%TF.GenerationSoftware,KiCad,Pcbnew,10.0.5*%
%TF.CreationDate,2026-08-19T15:20:02+05:30*%
%TF.ProjectId,FeroFlyF405,4665726f-466c-4794-9634-30352e6b6963,1*%
%TF.SameCoordinates,Original*%
%TF.FileFunction,Copper,L1,Top*%
%TF.FilePolarity,Positive*%
%FSLAX46Y46*%
G04 Gerber Fmt 4.6, Leading zero omitted, Abs format (unit mm)*
G04 Created by KiCad (PCBNEW 10.0.5) date 2026-08-19 15:20:02*
%MOMM*%
%LPD*%
G01*
G04 APERTURE LIST*
G04 Aperture macros list*
%AMRoundRect*
0 Rectangle with rounded corners*
0 $1 Rounding radius*
0 $2 $3 $4 $5 $6 $7 $8 $9 X,Y pos of 4 corners*
0 Add a 4 corners polygon primitive as box body*
4,1,4,$2,$3,$4,$5,$6,$7,$8,$9,$2,$3,0*
0 Add four circle primitives for the rounded corners*
1,1,$1+$1,$2,$3*
1,1,$1+$1,$4,$5*
1,1,$1+$1,$6,$7*
1,1,$1+$1,$8,$9*
0 Add four rect primitives between the rounded corners*
20,1,$1+$1,$2,$3,$4,$5,0*
20,1,$1+$1,$4,$5,$6,$7,0*
20,1,$1+$1,$6,$7,$8,$9,0*
20,1,$1+$1,$8,$9,$2,$3,0*%
%AMFreePoly0*
4,1,6,1.000000,0.000000,0.500000,-0.750000,-0.500000,-0.750000,-0.500000,0.750000,0.500000,0.750000,1.000000,0.000000,1.000000,0.000000,$1*%
%AMFreePoly1*
4,1,6,0.500000,-0.750000,-0.650000,-0.750000,-0.150000,0.000000,-0.650000,0.750000,0.500000,0.750000,0.500000,-0.750000,0.500000,-0.750000,$1*%
G04 Aperture macros list end*
%TA.AperFunction,SMDPad,CuDef*%
%ADD10RoundRect,0.237500X0.237500X-0.287500X0.237500X0.287500X-0.237500X0.287500X-0.237500X-0.287500X0*%
%TD*%
%TA.AperFunction,SMDPad,CuDef*%
%ADD11RoundRect,0.237500X-0.237500X0.250000X-0.237500X-0.250000X0.237500X-0.250000X0.237500X0.250000X0*%
%TD*%
%TA.AperFunction,SMDPad,CuDef*%
%ADD12RoundRect,0.093750X0.044194X0.176777X-0.176777X-0.044194X-0.044194X-0.176777X0.176777X0.044194X0*%
%TD*%
%TA.AperFunction,SMDPad,CuDef*%
%ADD13RoundRect,0.075000X0.123744X0.229810X-0.229810X-0.123744X-0.123744X-0.229810X0.229810X0.123744X0*%
%TD*%
%TA.AperFunction,SMDPad,CuDef*%
%ADD14R,0.350000X0.500000*%
%TD*%
%TA.AperFunction,SMDPad,CuDef*%
%ADD15RoundRect,0.237500X0.237500X-0.300000X0.237500X0.300000X-0.237500X0.300000X-0.237500X-0.300000X0*%
%TD*%
%TA.AperFunction,ComponentPad*%
%ADD16R,1.700000X1.700000*%
%TD*%
%TA.AperFunction,ComponentPad*%
%ADD17C,1.700000*%
%TD*%
%TA.AperFunction,SMDPad,CuDef*%
%ADD18RoundRect,0.237500X-0.300000X-0.237500X0.300000X-0.237500X0.300000X0.237500X-0.300000X0.237500X0*%
%TD*%
%TA.AperFunction,SMDPad,CuDef*%
%ADD19RoundRect,0.237500X0.237500X-0.250000X0.237500X0.250000X-0.237500X0.250000X-0.237500X-0.250000X0*%
%TD*%
%TA.AperFunction,SMDPad,CuDef*%
%ADD20RoundRect,0.150000X0.150000X0.700000X-0.150000X0.700000X-0.150000X-0.700000X0.150000X-0.700000X0*%
%TD*%
%TA.AperFunction,SMDPad,CuDef*%
%ADD21RoundRect,0.250000X0.250000X1.100000X-0.250000X1.100000X-0.250000X-1.100000X0.250000X-1.100000X0*%
%TD*%
%TA.AperFunction,SMDPad,CuDef*%
%ADD22RoundRect,0.237500X0.300000X0.237500X-0.300000X0.237500X-0.300000X-0.237500X0.300000X-0.237500X0*%
%TD*%
%TA.AperFunction,SMDPad,CuDef*%
%ADD23R,1.075000X0.600000*%
%TD*%
%TA.AperFunction,SMDPad,CuDef*%
%ADD24R,1.140000X0.300000*%
%TD*%
%TA.AperFunction,ComponentPad*%
%ADD25O,2.100000X1.050000*%
%TD*%
%TA.AperFunction,ComponentPad*%
%ADD26O,1.800000X0.900000*%
%TD*%
%TA.AperFunction,SMDPad,CuDef*%
%ADD27RoundRect,0.093750X0.093750X0.106250X-0.093750X0.106250X-0.093750X-0.106250X0.093750X-0.106250X0*%
%TD*%
%TA.AperFunction,HeatsinkPad*%
%ADD28R,1.000000X1.600000*%
%TD*%
%TA.AperFunction,SMDPad,CuDef*%
%ADD29RoundRect,0.150000X-0.150000X0.825000X-0.150000X-0.825000X0.150000X-0.825000X0.150000X0.825000X0*%
%TD*%
%TA.AperFunction,SMDPad,CuDef*%
%ADD30C,1.000000*%
%TD*%
%TA.AperFunction,SMDPad,CuDef*%
%ADD31RoundRect,0.237500X0.380070X-0.044194X-0.044194X0.380070X-0.380070X0.044194X0.044194X-0.380070X0*%
%TD*%
%TA.AperFunction,SMDPad,CuDef*%
%ADD32RoundRect,0.250000X0.475000X-0.337500X0.475000X0.337500X-0.475000X0.337500X-0.475000X-0.337500X0*%
%TD*%
%TA.AperFunction,SMDPad,CuDef*%
%ADD33RoundRect,0.250000X-0.337500X-0.475000X0.337500X-0.475000X0.337500X0.475000X-0.337500X0.475000X0*%
%TD*%
%TA.AperFunction,SMDPad,CuDef*%
%ADD34RoundRect,0.250000X-0.475000X0.337500X-0.475000X-0.337500X0.475000X-0.337500X0.475000X0.337500X0*%
%TD*%
%TA.AperFunction,SMDPad,CuDef*%
%ADD35R,2.000000X2.000000*%
%TD*%
%TA.AperFunction,SMDPad,CuDef*%
%ADD36RoundRect,0.237500X-0.237500X0.300000X-0.237500X-0.300000X0.237500X-0.300000X0.237500X0.300000X0*%
%TD*%
%TA.AperFunction,SMDPad,CuDef*%
%ADD37RoundRect,0.250000X0.337500X0.475000X-0.337500X0.475000X-0.337500X-0.475000X0.337500X-0.475000X0*%
%TD*%
%TA.AperFunction,SMDPad,CuDef*%
%ADD38RoundRect,0.075000X-0.700000X-0.075000X0.700000X-0.075000X0.700000X0.075000X-0.700000X0.075000X0*%
%TD*%
%TA.AperFunction,SMDPad,CuDef*%
%ADD39RoundRect,0.075000X-0.075000X-0.700000X0.075000X-0.700000X0.075000X0.700000X-0.075000X0.700000X0*%
%TD*%
%TA.AperFunction,SMDPad,CuDef*%
%ADD40R,0.900000X1.000000*%
%TD*%
%TA.AperFunction,SMDPad,CuDef*%
%ADD41FreePoly0,0.000000*%
%TD*%
%TA.AperFunction,SMDPad,CuDef*%
%ADD42FreePoly1,0.000000*%
%TD*%
%TA.AperFunction,SMDPad,CuDef*%
%ADD43RoundRect,0.087500X-0.225000X-0.087500X0.225000X-0.087500X0.225000X0.087500X-0.225000X0.087500X0*%
%TD*%
%TA.AperFunction,SMDPad,CuDef*%
%ADD44RoundRect,0.087500X-0.087500X-0.225000X0.087500X-0.225000X0.087500X0.225000X-0.087500X0.225000X0*%
%TD*%
%TA.AperFunction,SMDPad,CuDef*%
%ADD45RoundRect,0.150000X-0.309359X-0.521491X0.521491X0.309359X0.309359X0.521491X-0.521491X-0.309359X0*%
%TD*%
%TA.AperFunction,SMDPad,CuDef*%
%ADD46RoundRect,0.237500X-0.250000X-0.237500X0.250000X-0.237500X0.250000X0.237500X-0.250000X0.237500X0*%
%TD*%
%TA.AperFunction,SMDPad,CuDef*%
%ADD47RoundRect,0.250000X0.097227X-0.574524X0.574524X-0.097227X-0.097227X0.574524X-0.574524X0.097227X0*%
%TD*%
%TA.AperFunction,SMDPad,CuDef*%
%ADD48RoundRect,0.237500X-0.237500X0.287500X-0.237500X-0.287500X0.237500X-0.287500X0.237500X0.287500X0*%
%TD*%
%TA.AperFunction,SMDPad,CuDef*%
%ADD49RoundRect,0.237500X-0.044194X-0.380070X0.380070X0.044194X0.044194X0.380070X-0.380070X-0.044194X0*%
%TD*%
%TA.AperFunction,SMDPad,CuDef*%
%ADD50RoundRect,0.125000X-0.125000X0.125000X-0.125000X-0.125000X0.125000X-0.125000X0.125000X0.125000X0*%
%TD*%
%TA.AperFunction,SMDPad,CuDef*%
%ADD51RoundRect,0.250000X0.350000X-0.450000X0.350000X0.450000X-0.350000X0.450000X-0.350000X-0.450000X0*%
%TD*%
%TA.AperFunction,SMDPad,CuDef*%
%ADD52RoundRect,0.150000X-0.150000X-0.700000X0.150000X-0.700000X0.150000X0.700000X-0.150000X0.700000X0*%
%TD*%
%TA.AperFunction,SMDPad,CuDef*%
%ADD53RoundRect,0.250000X-0.250000X-1.100000X0.250000X-1.100000X0.250000X1.100000X-0.250000X1.100000X0*%
%TD*%
%TA.AperFunction,SMDPad,CuDef*%
%ADD54RoundRect,0.250000X0.400000X0.625000X-0.400000X0.625000X-0.400000X-0.625000X0.400000X-0.625000X0*%
%TD*%
%TA.AperFunction,ViaPad*%
%ADD55C,0.700000*%
%TD*%
%TA.AperFunction,ViaPad*%
%ADD56C,0.600000*%
%TD*%
%TA.AperFunction,Conductor*%
%ADD57C,0.300000*%
%TD*%
%TA.AperFunction,Conductor*%
%ADD58C,0.200000*%
%TD*%
%TA.AperFunction,Conductor*%
%ADD59C,0.800000*%
%TD*%
%TA.AperFunction,Conductor*%
%ADD60C,1.000000*%
%TD*%
%TA.AperFunction,Conductor*%
%ADD61C,0.600000*%
%TD*%
%TA.AperFunction,Conductor*%
%ADD62C,0.254000*%
%TD*%
G04 APERTURE END LIST*
D10*
%TO.P,D602,1,K_1*%
%TO.N,/Peripherals/CAN & LEDs/D_R_LED1*%
X163100000Y-133300000D03*
%TO.P,D602,2,A_2*%
%TO.N,/MCU/D_LED1*%
X163100000Y-131550000D03*
%TD*%
D11*
%TO.P,R206,1*%
%TO.N,/MCU/D_ADC2_CH13*%
X127600000Y-107037500D03*
%TO.P,R206,2*%
%TO.N,GND*%
X127600000Y-108862500D03*
%TD*%
D12*
%TO.P,U901,1,I/O1_1*%
%TO.N,/IO/IO2/USB_DN*%
X161071111Y-87829029D03*
D13*
%TO.P,U901,2,GND_2*%
%TO.N,GND*%
X160744074Y-87395926D03*
D12*
%TO.P,U901,3,I/O2_3*%
%TO.N,/IO/IO2/USB_DP*%
X160310971Y-87068889D03*
%TO.P,U901,4,I/O2_4*%
%TO.N,/IO/USB_D+*%
X159108889Y-88270971D03*
D13*
%TO.P,U901,5,VBUS_5*%
%TO.N,/IO/IO2/P_VBUS*%
X159435926Y-88704074D03*
D12*
%TO.P,U901,6,I/O1_6*%
%TO.N,/IO/USB_D-*%
X159869029Y-89031111D03*
%TD*%
D14*
%TO.P,U502,1,GND_1*%
%TO.N,GND*%
X134625000Y-103150000D03*
%TO.P,U502,2,CSB_2*%
%TO.N,+3V3*%
X135275000Y-103150000D03*
%TO.P,U502,3,SDI_3*%
%TO.N,/MCU/D_I2C2_SDA*%
X135925000Y-103150000D03*
%TO.P,U502,4,SCK_4*%
%TO.N,/MCU/D_I2C2_SCL*%
X136575000Y-103150000D03*
%TO.P,U502,5,SDO_5*%
%TO.N,unconnected-(U502-SDO-Pad5)*%
X136575000Y-104750000D03*
%TO.P,U502,6,VDDIO_6*%
%TO.N,+3V3*%
X135925000Y-104750000D03*
%TO.P,U502,7,GND_7*%
%TO.N,GND*%
X135275000Y-104750000D03*
%TO.P,U502,8,VDD_8*%
%TO.N,+3V3*%
X134625000Y-104750000D03*
%TD*%
D15*
%TO.P,C301,1*%
%TO.N,/MCU/D_NRST*%
X132300000Y-86212500D03*
%TO.P,C301,2*%
%TO.N,GND*%
X132300000Y-84487500D03*
%TD*%
D16*
%TO.P,J902,1,Pin_1_1*%
%TO.N,GND*%
X170900000Y-97550000D03*
D17*
%TO.P,J902,2,Pin_2_2*%
%TO.N,+5V*%
X168360000Y-97550000D03*
%TO.P,J902,3,Pin_3_3*%
%TO.N,/IO/IO2/D_S2*%
X165820000Y-97550000D03*
%TD*%
D18*
%TO.P,R308,1*%
%TO.N,/IO/D_USART2_TX*%
X134737500Y-99250000D03*
%TO.P,R308,2*%
%TO.N,/MCU/D_PA2*%
X136462500Y-99250000D03*
%TD*%
D19*
%TO.P,R201,1*%
%TO.N,Net-(D201-K)*%
X136700000Y-132862500D03*
%TO.P,R201,2*%
%TO.N,GND*%
X136700000Y-131037500D03*
%TD*%
D15*
%TO.P,C314,1*%
%TO.N,+3V3*%
X135600000Y-97012500D03*
%TO.P,C314,2*%
%TO.N,GND*%
X135600000Y-95287500D03*
%TD*%
%TO.P,R604,1*%
%TO.N,/Peripherals/CAN & LEDs/D_CANR*%
X151700000Y-118050000D03*
%TO.P,R604,2*%
%TO.N,/MCU/D_CAN2RX*%
X151700000Y-116325000D03*
%TD*%
D20*
%TO.P,J802,1,Pin_1_1*%
%TO.N,+5V*%
X162875000Y-75350000D03*
%TO.P,J802,2,Pin_2_2*%
%TO.N,/IO/D_USART4_TX*%
X161625000Y-75350000D03*
%TO.P,J802,3,Pin_3_3*%
%TO.N,/IO/D_USART4_RX*%
X160375000Y-75350000D03*
%TO.P,J802,4,Pin_4_4*%
%TO.N,GND*%
X159125000Y-75350000D03*
D21*
%TO.P,J802,MP,MountPin_MP*%
X164725000Y-72150000D03*
X157275000Y-72150000D03*
%TD*%
D22*
%TO.P,C312,1*%
%TO.N,+3V3*%
X143262500Y-102350000D03*
%TO.P,C312,2*%
%TO.N,GND*%
X141537500Y-102350000D03*
%TD*%
D23*
%TO.P,J913,A1_B12,GND_A1_B12*%
%TO.N,GND*%
X165137500Y-89750000D03*
%TO.P,J913,A4_B9,VBUS_A4_B9*%
%TO.N,/IO/IO2/P_VBUS*%
X165137500Y-88950000D03*
D24*
%TO.P,J913,A5,CC1_A_A5*%
%TO.N,/IO/IO2/D_CC1A*%
X165250000Y-87800000D03*
%TO.P,J913,A6,D+_A_A6*%
%TO.N,/IO/IO2/USB_DP*%
X165250000Y-86800000D03*
%TO.P,J913,A7,D-_A_A7*%
%TO.N,/IO/IO2/USB_DN*%
X165250000Y-86300000D03*
%TO.P,J913,A8,SBU1_A8*%
%TO.N,unconnected-(J913-SBU1-PadA8)*%
X165250000Y-85300000D03*
D23*
%TO.P,J913,B1_A12,GND__1_B1_A12*%
%TO.N,GND*%
X165137500Y-83350000D03*
%TO.P,J913,B4_A9,VBUS__1_B4_A9*%
%TO.N,/IO/IO2/P_VBUS*%
X165137500Y-84150000D03*
D24*
%TO.P,J913,B5,CC1_B_B5*%
%TO.N,/IO/IO2/D_CC1B*%
X165250000Y-84800000D03*
%TO.P,J913,B6,D+_B_B6*%
%TO.N,/IO/IO2/USB_DP*%
X165250000Y-85800000D03*
%TO.P,J913,B7,D-_B_B7*%
%TO.N,/IO/IO2/USB_DN*%
X165250000Y-87300000D03*
%TO.P,J913,B8,SBU2_B8*%
%TO.N,unconnected-(J913-SBU2-PadB8)*%
X165250000Y-88300000D03*
D25*
%TO.P,J913,SH1,SHIELD_SH1*%
%TO.N,unconnected-(J913-SHIELD-PadSH1)*%
X165820000Y-90870000D03*
%TO.P,J913,SH2,SHIELD__1_SH2*%
%TO.N,unconnected-(J913-SHIELD__1-PadSH2)*%
X165820000Y-82230000D03*
D26*
%TO.P,J913,SH3,SHIELD__2_SH3*%
%TO.N,unconnected-(J913-SHIELD__2-PadSH3)*%
X170000000Y-90870000D03*
%TO.P,J913,SH4,SHIELD__3_SH4*%
%TO.N,unconnected-(J913-SHIELD__3-PadSH4)*%
X170000000Y-82230000D03*
%TD*%
D16*
%TO.P,J909,1,Pin_1_1*%
%TO.N,GND*%
X170880000Y-117257500D03*
D17*
%TO.P,J909,2,Pin_2_2*%
%TO.N,+5V*%
X168340000Y-117257500D03*
%TO.P,J909,3,Pin_3_3*%
%TO.N,/IO/IO2/D_S9*%
X165800000Y-117257500D03*
%TD*%
D15*
%TO.P,C313,1*%
%TO.N,+3V3*%
X137500000Y-97012500D03*
%TO.P,C313,2*%
%TO.N,GND*%
X137500000Y-95287500D03*
%TD*%
D27*
%TO.P,U202,1,OUT_1*%
%TO.N,+3V3*%
X134700000Y-126750000D03*
%TO.P,U202,2,NC_2*%
%TO.N,unconnected-(U202-NC-Pad2)*%
X134700000Y-126100000D03*
%TO.P,U202,3,GND_3*%
%TO.N,GND*%
X134700000Y-125450000D03*
%TO.P,U202,4,EN_4*%
%TO.N,/IO/P_LDOIN*%
X132925000Y-125450000D03*
%TO.P,U202,5,NC_5*%
%TO.N,unconnected-(U202-NC-Pad5)*%
X132925000Y-126100000D03*
%TO.P,U202,6,IN_6*%
%TO.N,/IO/P_LDOIN*%
X132925000Y-126750000D03*
D28*
%TO.P,U202,7,GND_7*%
%TO.N,GND*%
X133812500Y-126100000D03*
%TD*%
D20*
%TO.P,J804,1,Pin_1_1*%
%TO.N,+5V*%
X136887500Y-75300000D03*
%TO.P,J804,2,Pin_2_2*%
%TO.N,/IO/D_PINIO0*%
X135637500Y-75300000D03*
%TO.P,J804,3,Pin_3_3*%
%TO.N,/IO/D_PINIO1*%
X134387500Y-75300000D03*
%TO.P,J804,4,Pin_4_4*%
%TO.N,GND*%
X133137500Y-75300000D03*
D21*
%TO.P,J804,MP,MountPin_MP*%
X138737500Y-72100000D03*
X131287500Y-72100000D03*
%TD*%
D15*
%TO.P,R205,1*%
%TO.N,/Power/P_VBAT*%
X129700000Y-108812500D03*
%TO.P,R205,2*%
%TO.N,/MCU/D_ADC2_CH13*%
X129700000Y-107087500D03*
%TD*%
D29*
%TO.P,U601,1,D_1*%
%TO.N,/MCU/D_CAN2TX*%
X156705000Y-120375000D03*
%TO.P,U601,2,GND_2*%
%TO.N,GND*%
X155435000Y-120375000D03*
%TO.P,U601,3,VCC_3*%
%TO.N,+3V3*%
X154165000Y-120375000D03*
%TO.P,U601,4,R_4*%
%TO.N,/Peripherals/CAN & LEDs/D_CANR*%
X152895000Y-120375000D03*
%TO.P,U601,5,Vref_5*%
%TO.N,unconnected-(U601-Vref-Pad5)*%
X152895000Y-125325000D03*
%TO.P,U601,6,CANL_6*%
%TO.N,/Peripherals/CAN & LEDs/CAN-*%
X154165000Y-125325000D03*
%TO.P,U601,7,CANH_7*%
%TO.N,/Peripherals/CAN & LEDs/CAN+*%
X155435000Y-125325000D03*
%TO.P,U601,8,Rs_8*%
%TO.N,Net-(U601-Rs)*%
X156705000Y-125325000D03*
%TD*%
D18*
%TO.P,C501,1*%
%TO.N,+3V3*%
X144837500Y-116850000D03*
%TO.P,C501,2*%
%TO.N,GND*%
X146562500Y-116850000D03*
%TD*%
D30*
%TO.P,TP804,1,1_1*%
%TO.N,GND*%
X131300000Y-77350000D03*
%TD*%
%TO.P,TP503,1,1_1*%
%TO.N,/MCU/SPI1_SCK*%
X145300000Y-108650000D03*
%TD*%
D31*
%TO.P,C308,1*%
%TO.N,+3V3*%
X152909880Y-89059880D03*
%TO.P,C308,2*%
%TO.N,GND*%
X151690120Y-87840120D03*
%TD*%
D32*
%TO.P,C602,1*%
%TO.N,+5V*%
X143000000Y-128787500D03*
%TO.P,C602,2*%
%TO.N,GND*%
X143000000Y-126712500D03*
%TD*%
D30*
%TO.P,TP502,1,1_1*%
%TO.N,/MCU/SPI1_MOSI*%
X148100000Y-108550000D03*
%TD*%
D10*
%TO.P,D601,1,K_1*%
%TO.N,/Peripherals/CAN & LEDs/D_R_LED0*%
X158900000Y-133270000D03*
%TO.P,D601,2,A_2*%
%TO.N,/MCU/D_LED0*%
X158900000Y-131520000D03*
%TD*%
D33*
%TO.P,C306,1*%
%TO.N,+3V3*%
X141062500Y-83950000D03*
%TO.P,C306,2*%
%TO.N,GND*%
X143137500Y-83950000D03*
%TD*%
D15*
%TO.P,C302,1*%
%TO.N,/MCU/D_BOOT0*%
X132300000Y-81312500D03*
%TO.P,C302,2*%
%TO.N,GND*%
X132300000Y-79587500D03*
%TD*%
D16*
%TO.P,J911,1,Pin_1_1*%
%TO.N,GND*%
X170900000Y-122850000D03*
D17*
%TO.P,J911,2,Pin_2_2*%
%TO.N,+5V*%
X168360000Y-122850000D03*
%TO.P,J911,3,Pin_3_3*%
%TO.N,/IO/IO2/D_S11*%
X165820000Y-122850000D03*
%TD*%
D34*
%TO.P,C801,1*%
%TO.N,+5V*%
X154800000Y-77950000D03*
%TO.P,C801,2*%
%TO.N,GND*%
X154800000Y-80025000D03*
%TD*%
D35*
%TO.P,TP202,1,1_1*%
%TO.N,GND*%
X124450000Y-117862500D03*
%TD*%
D36*
%TO.P,C304,1*%
%TO.N,/MCU/D_OSC_IN*%
X130950000Y-90287500D03*
%TO.P,C304,2*%
%TO.N,GND*%
X130950000Y-92012500D03*
%TD*%
D15*
%TO.P,C203,1*%
%TO.N,+3V3*%
X136400000Y-126912500D03*
%TO.P,C203,2*%
%TO.N,GND*%
X136400000Y-125187500D03*
%TD*%
D18*
%TO.P,C305,1*%
%TO.N,GND*%
X127237500Y-95550000D03*
%TO.P,C305,2*%
%TO.N,/MCU/D_OSC_OUTR*%
X128962500Y-95550000D03*
%TD*%
D19*
%TO.P,R504,1*%
%TO.N,+3V3*%
X138275000Y-104862500D03*
%TO.P,R504,2*%
%TO.N,/MCU/D_I2C2_SCL*%
X138275000Y-103037500D03*
%TD*%
D18*
%TO.P,C307,1*%
%TO.N,+3V3*%
X149937500Y-102250000D03*
%TO.P,C307,2*%
%TO.N,GND*%
X151662500Y-102250000D03*
%TD*%
D37*
%TO.P,C303,1*%
%TO.N,+3V3*%
X143237500Y-104450000D03*
%TO.P,C303,2*%
%TO.N,GND*%
X141162500Y-104450000D03*
%TD*%
D38*
%TO.P,U301,1,VBAT_1*%
%TO.N,+3V3*%
X140025000Y-90500000D03*
%TO.P,U301,2,PC13_2*%
%TO.N,unconnected-(U301-PC13-Pad2)*%
X140025000Y-91000000D03*
%TO.P,U301,3,PC14_3*%
%TO.N,unconnected-(U301-PC14-Pad3)*%
X140025000Y-91500000D03*
%TO.P,U301,4,PC15_4*%
%TO.N,unconnected-(U301-PC15-Pad4)*%
X140025000Y-92000000D03*
%TO.P,U301,5,PH0_5*%
%TO.N,/MCU/D_OSC_IN*%
X140025000Y-92500000D03*
%TO.P,U301,6,PH1_6*%
%TO.N,/MCU/D_OSC_OUT*%
X140025000Y-93000000D03*
%TO.P,U301,7,NRST_7*%
%TO.N,/MCU/D_NRST*%
X140025000Y-93500000D03*
%TO.P,U301,8,PC0_8*%
%TO.N,/IO/D_ADC1_CH10*%
X140025000Y-94000000D03*
%TO.P,U301,9,PC1_9*%
%TO.N,/MCU/D_LED0*%
X140025000Y-94500000D03*
%TO.P,U301,10,PC2_10*%
%TO.N,unconnected-(U301-PC2-Pad10)*%
X140025000Y-95000000D03*
%TO.P,U301,11,PC3_11*%
%TO.N,/MCU/D_ADC2_CH13*%
X140025000Y-95500000D03*
%TO.P,U301,12,VSSA_12*%
%TO.N,GND*%
X140025000Y-96000000D03*
%TO.P,U301,13,VDDA_13*%
%TO.N,+3V3*%
X140025000Y-96500000D03*
%TO.P,U301,14,PA0_14*%
%TO.N,/IO/D_TIM2_CH1*%
X140025000Y-97000000D03*
%TO.P,U301,15,PA1_15*%
%TO.N,/IO/D_TIM5_CH1*%
X140025000Y-97500000D03*
%TO.P,U301,16,PA2_16*%
%TO.N,/MCU/D_PA2*%
X140025000Y-98000000D03*
D39*
%TO.P,U301,17,PA3_17*%
%TO.N,/IO/D_USART2_RX*%
X141950000Y-99925000D03*
%TO.P,U301,18,VSS_18*%
%TO.N,GND*%
X142450000Y-99925000D03*
%TO.P,U301,19,VDD_19*%
%TO.N,+3V3*%
X142950000Y-99925000D03*
%TO.P,U301,20,PA4_20*%
%TO.N,unconnected-(U301-PA4-Pad20)*%
X143450000Y-99925000D03*
%TO.P,U301,21,PA5_21*%
%TO.N,/MCU/SPI1_SCKR*%
X143950000Y-99925000D03*
%TO.P,U301,22,PA6_22*%
%TO.N,/MCU/SPI1_MISO*%
X144450000Y-99925000D03*
%TO.P,U301,23,PA7_23*%
%TO.N,/MCU/SPI1_MOSIR*%
X144950000Y-99925000D03*
%TO.P,U301,24,PC4_24*%
%TO.N,/MCU/SPI1_CS*%
X145450000Y-99925000D03*
%TO.P,U301,25,PC5_25*%
%TO.N,unconnected-(U301-PC5-Pad25)*%
X145950000Y-99925000D03*
%TO.P,U301,26,PB0_26*%
%TO.N,unconnected-(U301-PB0-Pad26)*%
X146450000Y-99925000D03*
%TO.P,U301,27,PB1_27*%
%TO.N,unconnected-(U301-PB1-Pad27)*%
X146950000Y-99925000D03*
%TO.P,U301,28,PB2_28*%
%TO.N,/MCU/D_BOOT1*%
X147450000Y-99925000D03*
%TO.P,U301,29,PB10_29*%
%TO.N,/MCU/D_I2C2_SCL*%
X147950000Y-99925000D03*
%TO.P,U301,30,PB11_30*%
%TO.N,/MCU/D_I2C2_SDA*%
X148450000Y-99925000D03*
%TO.P,U301,31,VCAP_1_31*%
%TO.N,/MCU/P_VCAP1*%
X148950000Y-99925000D03*
%TO.P,U301,32,VDD_32*%
%TO.N,+3V3*%
X149450000Y-99925000D03*
D38*
%TO.P,U301,33,PB12_33*%
%TO.N,/MCU/D_CAN2RX*%
X151375000Y-98000000D03*
%TO.P,U301,34,PB13_34*%
%TO.N,/MCU/D_CAN2TXR*%
X151375000Y-97500000D03*
%TO.P,U301,35,PB14_35*%
%TO.N,/IO/D_TIM12_CH1*%
X151375000Y-97000000D03*
%TO.P,U301,36,PB15_36*%
%TO.N,/IO/D_TIM12_CH2*%
X151375000Y-96500000D03*
%TO.P,U301,37,PC6_37*%
%TO.N,/IO/D_TIM8_CH1*%
X151375000Y-96000000D03*
%TO.P,U301,38,PC7_38*%
%TO.N,/IO/D_TIM8_CH2*%
X151375000Y-95500000D03*
%TO.P,U301,39,PC8_39*%
%TO.N,/IO/D_TIM3_CH3*%
X151375000Y-95000000D03*
%TO.P,U301,40,PC9_40*%
%TO.N,/IO/D_TIM3_CH4*%
X151375000Y-94500000D03*
%TO.P,U301,41,PA8_41*%
%TO.N,/IO/D_TIM1_CH1*%
X151375000Y-94000000D03*
%TO.P,U301,42,PA9_42*%
%TO.N,/IO/D_TIM1_CH2*%
X151375000Y-93500000D03*
%TO.P,U301,43,PA10_43*%
%TO.N,unconnected-(U301-PA10-Pad43)*%
X151375000Y-93000000D03*
%TO.P,U301,44,PA11_44*%
%TO.N,/IO/USB_D-*%
X151375000Y-92500000D03*
%TO.P,U301,45,PA12_45*%
%TO.N,/IO/USB_D+*%
X151375000Y-92000000D03*
%TO.P,U301,46,PA13_46*%
%TO.N,/MCU/D_SWDIO*%
X151375000Y-91500000D03*
%TO.P,U301,47,VCAP_2_47*%
%TO.N,/MCU/P_VCAP2*%
X151375000Y-91000000D03*
%TO.P,U301,48,VDD_48*%
%TO.N,+3V3*%
X151375000Y-90500000D03*
D39*
%TO.P,U301,49,PA14_49*%
%TO.N,/MCU/D_SWCLK*%
X149450000Y-88575000D03*
%TO.P,U301,50,PA15_50*%
%TO.N,/MCU/D_LED1*%
X148950000Y-88575000D03*
%TO.P,U301,51,PC10_51*%
%TO.N,/MCU/D_PC10*%
X148450000Y-88575000D03*
%TO.P,U301,52,PC11_52*%
%TO.N,/IO/D_USART4_RX*%
X147950000Y-88575000D03*
%TO.P,U301,53,PC12_53*%
%TO.N,/MCU/D_PC12*%
X147450000Y-88575000D03*
%TO.P,U301,54,PD2_54*%
%TO.N,/IO/D_USART5_RX*%
X146950000Y-88575000D03*
%TO.P,U301,55,PB3_55*%
%TO.N,unconnected-(U301-PB3-Pad55)*%
X146450000Y-88575000D03*
%TO.P,U301,56,PB4_56*%
%TO.N,/IO/D_PINIO0*%
X145950000Y-88575000D03*
%TO.P,U301,57,PB5_57*%
%TO.N,/IO/D_PINIO1*%
X145450000Y-88575000D03*
%TO.P,U301,58,PB6_58*%
%TO.N,/IO/D_I2C1_SCL*%
X144950000Y-88575000D03*
%TO.P,U301,59,PB7_59*%
%TO.N,/IO/D_I2C1_SDA*%
X144450000Y-88575000D03*
%TO.P,U301,60,BOOT0_60*%
%TO.N,/MCU/D_BOOT0*%
X143950000Y-88575000D03*
%TO.P,U301,61,PB8_61*%
%TO.N,/IO/D_TIM4_CH3*%
X143450000Y-88575000D03*
%TO.P,U301,62,PB9_62*%
%TO.N,/IO/D_TIM4_CH4*%
X142950000Y-88575000D03*
%TO.P,U301,63,VSS_63*%
%TO.N,GND*%
X142450000Y-88575000D03*
%TO.P,U301,64,VDD_64*%
%TO.N,+3V3*%
X141950000Y-88575000D03*
%TD*%
D40*
%TO.P,SW302,1,1_1*%
%TO.N,+3V3*%
X128400000Y-81325000D03*
X124300000Y-81325000D03*
%TO.P,SW302,2,2_2*%
%TO.N,/MCU/D_BOOT0R*%
X128400000Y-79725000D03*
X124300000Y-79725000D03*
%TD*%
D16*
%TO.P,J905,1,Pin_1_1*%
%TO.N,GND*%
X170900000Y-105992500D03*
D17*
%TO.P,J905,2,Pin_2_2*%
%TO.N,+5V*%
X168360000Y-105992500D03*
%TO.P,J905,3,Pin_3_3*%
%TO.N,/IO/IO2/D_S5*%
X165820000Y-105992500D03*
%TD*%
D30*
%TO.P,TP807,1,1_1*%
%TO.N,GND*%
X128700000Y-100550000D03*
%TD*%
D41*
%TO.P,JP601,1,A_1*%
%TO.N,/Peripherals/CAN & LEDs/CAN+*%
X154375001Y-130650000D03*
D42*
%TO.P,JP601,2,B_2*%
%TO.N,/Peripherals/CAN & LEDs/CAN+R*%
X155824999Y-130650000D03*
%TD*%
D11*
%TO.P,R602,1*%
%TO.N,GND*%
X165100000Y-131537500D03*
%TO.P,R602,2*%
%TO.N,/Peripherals/CAN & LEDs/D_R_LED1*%
X165100000Y-133362500D03*
%TD*%
D16*
%TO.P,J907,1,Pin_1_1*%
%TO.N,GND*%
X170880000Y-111657500D03*
D17*
%TO.P,J907,2,Pin_2_2*%
%TO.N,+5V*%
X168340000Y-111657500D03*
%TO.P,J907,3,Pin_3_3*%
%TO.N,/IO/IO2/D_S7*%
X165800000Y-111657500D03*
%TD*%
D15*
%TO.P,C504,1*%
%TO.N,+3V3*%
X132975000Y-104812501D03*
%TO.P,C504,2*%
%TO.N,GND*%
X132975000Y-103087499D03*
%TD*%
D36*
%TO.P,C210,1*%
%TO.N,/MCU/D_ADC2_CH13*%
X131800000Y-107087500D03*
%TO.P,C210,2*%
%TO.N,GND*%
X131800000Y-108812500D03*
%TD*%
D20*
%TO.P,J801,1,Pin_1_1*%
%TO.N,+5V*%
X152925000Y-75350000D03*
%TO.P,J801,2,Pin_2_2*%
%TO.N,/IO/D_USART5_TX*%
X151675000Y-75350000D03*
%TO.P,J801,3,Pin_3_3*%
%TO.N,/IO/D_USART5_RX*%
X150425000Y-75350000D03*
%TO.P,J801,4,Pin_4_4*%
%TO.N,/IO/D_I2C1_SCL*%
X149175000Y-75350000D03*
%TO.P,J801,5,Pin_5_5*%
%TO.N,/IO/D_I2C1_SDA*%
X147925000Y-75350000D03*
%TO.P,J801,6,Pin_6_6*%
%TO.N,GND*%
X146675000Y-75350000D03*
D21*
%TO.P,J801,MP,MountPin_MP*%
X154775000Y-72150000D03*
X144825000Y-72150000D03*
%TD*%
D43*
%TO.P,U501,1,SDO/SA0_1*%
%TO.N,/Peripherals/IMUs/SPI1_MISOR*%
X144637500Y-113400000D03*
%TO.P,U501,2,SDX_2*%
%TO.N,GND*%
X144637500Y-113900000D03*
%TO.P,U501,3,SCX_3*%
X144637500Y-114400000D03*
%TO.P,U501,4,INT1_4*%
%TO.N,unconnected-(U501-INT1-Pad4)*%
X144637500Y-114900000D03*
D44*
%TO.P,U501,5,VDDIO_5*%
%TO.N,+3V3*%
X145300000Y-115062500D03*
%TO.P,U501,6,GND_6*%
%TO.N,GND*%
X145800000Y-115062500D03*
%TO.P,U501,7,GND_7*%
X146300000Y-115062500D03*
D43*
%TO.P,U501,8,VDD_8*%
%TO.N,+3V3*%
X146962500Y-114900000D03*
%TO.P,U501,9,INT2_9*%
%TO.N,unconnected-(U501-INT2-Pad9)*%
X146962500Y-114400000D03*
%TO.P,U501,10,NC_10*%
%TO.N,unconnected-(U501-NC-Pad10)*%
X146962500Y-113900000D03*
%TO.P,U501,11,NC_11*%
%TO.N,unconnected-(U501-NC-Pad11)*%
X146962500Y-113400000D03*
D44*
%TO.P,U501,12,CS_12*%
%TO.N,/MCU/SPI1_CS*%
X146300000Y-113237500D03*
%TO.P,U501,13,SCL_13*%
%TO.N,/MCU/SPI1_SCK*%
X145800000Y-113237500D03*
%TO.P,U501,14,SDA_14*%
%TO.N,/MCU/SPI1_MOSI*%
X145300000Y-113237500D03*
%TD*%
D16*
%TO.P,J906,1,Pin_1_1*%
%TO.N,GND*%
X170900000Y-108850000D03*
D17*
%TO.P,J906,2,Pin_2_2*%
%TO.N,+5V*%
X168360000Y-108850000D03*
%TO.P,J906,3,Pin_3_3*%
%TO.N,/IO/IO2/D_S6*%
X165820000Y-108850000D03*
%TD*%
D15*
%TO.P,R310,1*%
%TO.N,/MCU/SPI1_MOSI*%
X147400000Y-104612500D03*
%TO.P,R310,2*%
%TO.N,/MCU/SPI1_MOSIR*%
X147400000Y-102887500D03*
%TD*%
D45*
%TO.P,D603,1,K_1*%
%TO.N,/Peripherals/CAN & LEDs/CAN+*%
X147265336Y-124491161D03*
%TO.P,D603,2,K_2*%
%TO.N,/Peripherals/CAN & LEDs/CAN-*%
X148608839Y-125834664D03*
%TO.P,D603,3,A_3*%
%TO.N,GND*%
X149262913Y-123837087D03*
%TD*%
D46*
%TO.P,R503,1*%
%TO.N,+3V3*%
X134662500Y-101450000D03*
%TO.P,R503,2*%
%TO.N,/MCU/D_I2C2_SDA*%
X136487500Y-101450000D03*
%TD*%
D33*
%TO.P,C309,1*%
%TO.N,/MCU/P_VCAP1*%
X149362500Y-105050000D03*
%TO.P,C309,2*%
%TO.N,GND*%
X151437500Y-105050000D03*
%TD*%
D18*
%TO.P,C601,1*%
%TO.N,+3V3*%
X153837499Y-118004940D03*
%TO.P,C601,2*%
%TO.N,GND*%
X155562501Y-118004940D03*
%TD*%
D35*
%TO.P,TP201,1,1_1*%
%TO.N,/Power/P_VBAT*%
X124450000Y-114362500D03*
%TD*%
D15*
%TO.P,R315,1*%
%TO.N,/MCU/D_CAN2TX*%
X154700000Y-101812500D03*
%TO.P,R315,2*%
%TO.N,/MCU/D_CAN2TXR*%
X154700000Y-100087500D03*
%TD*%
D10*
%TO.P,D201,1,K_1*%
%TO.N,Net-(D201-K)*%
X139000000Y-132825000D03*
%TO.P,D201,2,A_2*%
%TO.N,+3V3*%
X139000000Y-131075000D03*
%TD*%
D16*
%TO.P,J903,1,Pin_1_1*%
%TO.N,GND*%
X170900000Y-100350000D03*
D17*
%TO.P,J903,2,Pin_2_2*%
%TO.N,+5V*%
X168360000Y-100350000D03*
%TO.P,J903,3,Pin_3_3*%
%TO.N,/IO/IO2/D_S3*%
X165820000Y-100350000D03*
%TD*%
D22*
%TO.P,C503,1*%
%TO.N,+3V3*%
X136437501Y-106350000D03*
%TO.P,C503,2*%
%TO.N,GND*%
X134712499Y-106350000D03*
%TD*%
D15*
%TO.P,R301,1*%
%TO.N,/MCU/D_NRST*%
X130400000Y-86212500D03*
%TO.P,R301,2*%
%TO.N,/MCU/D_NRSTR*%
X130400000Y-84487500D03*
%TD*%
D47*
%TO.P,C310,1*%
%TO.N,/MCU/P_VCAP2*%
X154766377Y-90183623D03*
%TO.P,C310,2*%
%TO.N,GND*%
X156233623Y-88716377D03*
%TD*%
D11*
%TO.P,R601,1*%
%TO.N,GND*%
X160900000Y-131512500D03*
%TO.P,R601,2*%
%TO.N,/Peripherals/CAN & LEDs/D_R_LED0*%
X160900000Y-133337500D03*
%TD*%
D18*
%TO.P,C603,1*%
%TO.N,+3V3*%
X153837499Y-116250000D03*
%TO.P,C603,2*%
%TO.N,GND*%
X155562501Y-116250000D03*
%TD*%
D19*
%TO.P,R603,1*%
%TO.N,Net-(U601-Rs)*%
X158800000Y-124562500D03*
%TO.P,R603,2*%
%TO.N,GND*%
X158800000Y-122737500D03*
%TD*%
D46*
%TO.P,R311,1*%
%TO.N,+3V3*%
X144687500Y-80450000D03*
%TO.P,R311,2*%
%TO.N,/IO/D_I2C1_SDA*%
X146512500Y-80450000D03*
%TD*%
D30*
%TO.P,TP504,1,1_1*%
%TO.N,GND*%
X150700000Y-108750000D03*
%TD*%
D36*
%TO.P,C502,1*%
%TO.N,+3V3*%
X148600000Y-115087500D03*
%TO.P,C502,2*%
%TO.N,GND*%
X148600000Y-116812500D03*
%TD*%
D30*
%TO.P,TP801,1,1_1*%
%TO.N,GND*%
X144100000Y-76750000D03*
%TD*%
D18*
%TO.P,C204,1*%
%TO.N,/IO/P_LDOIN*%
X132982500Y-128500000D03*
%TO.P,C204,2*%
%TO.N,GND*%
X134707500Y-128500000D03*
%TD*%
D48*
%TO.P,D202,1,K_1*%
%TO.N,+5V*%
X131900000Y-131075000D03*
%TO.P,D202,2,A_2*%
%TO.N,Net-(D202-A)*%
X131900000Y-132825000D03*
%TD*%
D49*
%TO.P,R307,1*%
%TO.N,/MCU/D_PC12*%
X148490120Y-84159880D03*
%TO.P,R307,2*%
%TO.N,/IO/D_USART5_TX*%
X149709880Y-82940120D03*
%TD*%
D19*
%TO.P,R204,1*%
%TO.N,Net-(D202-A)*%
X134350000Y-132862500D03*
%TO.P,R204,2*%
%TO.N,GND*%
X134350000Y-131037500D03*
%TD*%
%TO.P,R304,1*%
%TO.N,/MCU/D_BOOT0*%
X134100000Y-81362500D03*
%TO.P,R304,2*%
%TO.N,GND*%
X134100000Y-79537500D03*
%TD*%
D50*
%TO.P,D203,1,K_1*%
%TO.N,/Power/P_VIN*%
X127450000Y-111162500D03*
%TO.P,D203,2,A_2*%
%TO.N,/Power/P_VBAT*%
X127450000Y-113362500D03*
%TD*%
D51*
%TO.P,Y301,1,1_1*%
%TO.N,/MCU/D_OSC_OUTR*%
X128950000Y-93550000D03*
%TO.P,Y301,2,G_2*%
%TO.N,GND*%
X128950000Y-91350000D03*
%TO.P,Y301,3,3_3*%
%TO.N,/MCU/D_OSC_IN*%
X127250000Y-91350000D03*
%TO.P,Y301,4,G_4*%
%TO.N,GND*%
X127250000Y-93550000D03*
%TD*%
D16*
%TO.P,J904,1,Pin_1_1*%
%TO.N,GND*%
X170900000Y-103150000D03*
D17*
%TO.P,J904,2,Pin_2_2*%
%TO.N,+5V*%
X168360000Y-103150000D03*
%TO.P,J904,3,Pin_3_3*%
%TO.N,/IO/IO2/D_S4*%
X165820000Y-103150000D03*
%TD*%
D40*
%TO.P,SW301,1,1_1*%
%TO.N,GND*%
X128450000Y-86150000D03*
X124350000Y-86150000D03*
%TO.P,SW301,2,2_2*%
%TO.N,/MCU/D_NRSTR*%
X128450000Y-84550000D03*
X124350000Y-84550000D03*
%TD*%
D30*
%TO.P,TP505,1,1_1*%
%TO.N,GND*%
X140800000Y-107850000D03*
%TD*%
D15*
%TO.P,R302,1*%
%TO.N,/MCU/D_BOOT0*%
X130400000Y-81300000D03*
%TO.P,R302,2*%
%TO.N,/MCU/D_BOOT0R*%
X130400000Y-79575000D03*
%TD*%
D16*
%TO.P,J908,1,Pin_1_1*%
%TO.N,GND*%
X170880000Y-114457500D03*
D17*
%TO.P,J908,2,Pin_2_2*%
%TO.N,+5V*%
X168340000Y-114457500D03*
%TO.P,J908,3,Pin_3_3*%
%TO.N,/IO/IO2/D_S8*%
X165800000Y-114457500D03*
%TD*%
D18*
%TO.P,C311,1*%
%TO.N,+3V3*%
X141237500Y-86150000D03*
%TO.P,C311,2*%
%TO.N,GND*%
X142962500Y-86150000D03*
%TD*%
D11*
%TO.P,R303,1*%
%TO.N,+3V3*%
X134200000Y-84437500D03*
%TO.P,R303,2*%
%TO.N,/MCU/D_NRST*%
X134200000Y-86262500D03*
%TD*%
D30*
%TO.P,TP805,1,1_1*%
%TO.N,/IO/D_USART2_TX*%
X132200000Y-99250000D03*
%TD*%
D49*
%TO.P,R306,1*%
%TO.N,/MCU/D_PC10*%
X150390120Y-86359880D03*
%TO.P,R306,2*%
%TO.N,/IO/D_USART4_TX*%
X151609880Y-85140120D03*
%TD*%
D34*
%TO.P,C804,1*%
%TO.N,+5V*%
X138600000Y-77962500D03*
%TO.P,C804,2*%
%TO.N,GND*%
X138600000Y-80037500D03*
%TD*%
D52*
%TO.P,J601,1,Pin_1_1*%
%TO.N,+5V*%
X145025000Y-130150000D03*
%TO.P,J601,2,Pin_2_2*%
%TO.N,/Peripherals/CAN & LEDs/CAN+*%
X146275000Y-130150000D03*
%TO.P,J601,3,Pin_3_3*%
%TO.N,/Peripherals/CAN & LEDs/CAN-*%
X147525000Y-130150000D03*
%TO.P,J601,4,Pin_4_4*%
%TO.N,GND*%
X148775000Y-130150000D03*
D53*
%TO.P,J601,MP,MountPin_MP*%
X143175000Y-133350000D03*
X150625000Y-133350000D03*
%TD*%
D15*
%TO.P,R501,1*%
%TO.N,/Peripherals/IMUs/SPI1_MISOR*%
X142600000Y-113212500D03*
%TO.P,R501,2*%
%TO.N,/MCU/SPI1_MISO*%
X142600000Y-111487500D03*
%TD*%
D30*
%TO.P,TP501,1,1_1*%
%TO.N,/MCU/SPI1_MISO*%
X142600000Y-109250000D03*
%TD*%
D19*
%TO.P,R502,1*%
%TO.N,+3V3*%
X148700000Y-113262500D03*
%TO.P,R502,2*%
%TO.N,/MCU/SPI1_CS*%
X148700000Y-111437500D03*
%TD*%
D32*
%TO.P,C201,1*%
%TO.N,+3V3*%
X138600000Y-126987500D03*
%TO.P,C201,2*%
%TO.N,GND*%
X138600000Y-124912500D03*
%TD*%
D54*
%TO.P,R605,1*%
%TO.N,/Peripherals/CAN & LEDs/CAN+R*%
X156550001Y-128050000D03*
%TO.P,R605,2*%
%TO.N,/Peripherals/CAN & LEDs/CAN-*%
X153449999Y-128050000D03*
%TD*%
D16*
%TO.P,J901,1,Pin_1_1*%
%TO.N,GND*%
X170900000Y-94750000D03*
D17*
%TO.P,J901,2,Pin_2_2*%
%TO.N,+5V*%
X168360000Y-94750000D03*
%TO.P,J901,3,Pin_3_3*%
%TO.N,/IO/IO2/D_S1*%
X165820000Y-94750000D03*
%TD*%
D46*
%TO.P,R313,1*%
%TO.N,+3V3*%
X144687500Y-78550000D03*
%TO.P,R313,2*%
%TO.N,/IO/D_I2C1_SDA*%
X146512500Y-78550000D03*
%TD*%
D15*
%TO.P,R309,1*%
%TO.N,/MCU/SPI1_SCK*%
X145200000Y-104612500D03*
%TO.P,R309,2*%
%TO.N,/MCU/SPI1_SCKR*%
X145200000Y-102887500D03*
%TD*%
D16*
%TO.P,J910,1,Pin_1_1*%
%TO.N,GND*%
X170880000Y-120035000D03*
D17*
%TO.P,J910,2,Pin_2_2*%
%TO.N,+5V*%
X168340000Y-120035000D03*
%TO.P,J910,3,Pin_3_3*%
%TO.N,/IO/IO2/D_S10*%
X165800000Y-120035000D03*
%TD*%
D36*
%TO.P,R305,1*%
%TO.N,/MCU/D_OSC_OUT*%
X130950000Y-93787500D03*
%TO.P,R305,2*%
%TO.N,/MCU/D_OSC_OUTR*%
X130950000Y-95512500D03*
%TD*%
D30*
%TO.P,TP806,1,1_1*%
%TO.N,/IO/D_USART2_RX*%
X130800000Y-101850000D03*
%TD*%
%TO.P,TP802,1,1_1*%
%TO.N,GND*%
X157500000Y-77650000D03*
%TD*%
D34*
%TO.P,C802,1*%
%TO.N,+5V*%
X165200000Y-77512500D03*
%TO.P,C802,2*%
%TO.N,GND*%
X165200000Y-79587500D03*
%TD*%
D16*
%TO.P,J912,1,Pin_1_1*%
%TO.N,GND*%
X170900000Y-125707500D03*
D17*
%TO.P,J912,2,Pin_2_2*%
%TO.N,+5V*%
X168360000Y-125707500D03*
%TO.P,J912,3,Pin_3_3*%
%TO.N,/IO/IO2/D_S12*%
X165820000Y-125707500D03*
%TD*%
D55*
%TO.N,/MCU/D_LED1*%
X163100000Y-129850000D03*
X148200000Y-91150000D03*
%TO.N,/MCU/D_ADC2_CH13*%
X133200000Y-106550000D03*
X141800000Y-95250000D03*
%TO.N,GND*%
X131700000Y-103350000D03*
D56*
X172000000Y-87700000D03*
X163550000Y-90450000D03*
D55*
X152900000Y-87050000D03*
D56*
X131800000Y-89150000D03*
X134400000Y-93850000D03*
X136800000Y-91250000D03*
X142700000Y-120700000D03*
D55*
X137600000Y-86250000D03*
D56*
X125000000Y-88050000D03*
X154650000Y-81550000D03*
X148300000Y-121450000D03*
X125600000Y-93650000D03*
X130200000Y-72050000D03*
X127650000Y-118262500D03*
X156000000Y-71250000D03*
D55*
X158800000Y-121250000D03*
D56*
X163850000Y-104600000D03*
D55*
X133895000Y-126550000D03*
D56*
X154800000Y-83250000D03*
D55*
X144700000Y-126750000D03*
D56*
X132000000Y-124200000D03*
X156600000Y-79750000D03*
X143800000Y-106750000D03*
X138700000Y-101750000D03*
X137450000Y-110550000D03*
X141450000Y-120700000D03*
X171375000Y-86450000D03*
X133150000Y-94550000D03*
D55*
X171500000Y-78350000D03*
D56*
X134950000Y-110550000D03*
D55*
X134200000Y-95750000D03*
X142600000Y-82250000D03*
D56*
X162350000Y-110200000D03*
X149500000Y-134250000D03*
D55*
X136500000Y-79350000D03*
D56*
X136200000Y-109925000D03*
X153900000Y-98550000D03*
X163350000Y-121550000D03*
X161900000Y-127200000D03*
X162200000Y-118650000D03*
X139850000Y-113650000D03*
X163300000Y-115750000D03*
X124850000Y-78250000D03*
X156200000Y-100700000D03*
X136300000Y-93850000D03*
X146400000Y-94950000D03*
X125750000Y-78250000D03*
X146400000Y-72750000D03*
X126300000Y-89950000D03*
X124050000Y-107550000D03*
X139600000Y-103750000D03*
X134950000Y-111800000D03*
X140825000Y-121950000D03*
X162350000Y-107350000D03*
X139945000Y-125450000D03*
X150100000Y-110550000D03*
X163550000Y-91350000D03*
X151750000Y-127250000D03*
X135500000Y-80450000D03*
X152900000Y-130100000D03*
X132200000Y-95400000D03*
X161350000Y-124300000D03*
D55*
X164500000Y-129525000D03*
X148306551Y-124793449D03*
X130150000Y-100350000D03*
D56*
X140900000Y-110450000D03*
X172000000Y-85200000D03*
X137450000Y-111800000D03*
X163250000Y-124400000D03*
X143300000Y-117150000D03*
X155650000Y-109100000D03*
X156050000Y-112500000D03*
X125600000Y-91750000D03*
X161700000Y-128550000D03*
D55*
X153000000Y-79650000D03*
D56*
X125600000Y-95650000D03*
X147750000Y-79750000D03*
X139900000Y-71350000D03*
X165900000Y-72200000D03*
X159600000Y-81850000D03*
X149250000Y-118350000D03*
X163490000Y-81850000D03*
X149800000Y-72150000D03*
D55*
X160900000Y-130125000D03*
D56*
X126550000Y-118262500D03*
D55*
X132200000Y-110650000D03*
D56*
X158600000Y-109050000D03*
X152000000Y-106550000D03*
X159800000Y-119350000D03*
X139900000Y-73150000D03*
X163900000Y-107350000D03*
X130200000Y-103850000D03*
X144300000Y-133350000D03*
X143400000Y-71250000D03*
X123950000Y-78250000D03*
X123950000Y-99950000D03*
X161950000Y-92950000D03*
X137100000Y-81150000D03*
X156500000Y-101950000D03*
X163600000Y-96250000D03*
X157900000Y-83450000D03*
X156000000Y-72150000D03*
X151500000Y-121150000D03*
X158600000Y-112250000D03*
X157250000Y-113550000D03*
X158950000Y-91950000D03*
X125750000Y-99950000D03*
X149500000Y-133350000D03*
X152600000Y-81350000D03*
D55*
X159700000Y-94250000D03*
X141400000Y-106050000D03*
D56*
X160950000Y-80300000D03*
X130200000Y-71150000D03*
D55*
X133745000Y-125700000D03*
D56*
X151100000Y-106550000D03*
X163950000Y-101800000D03*
X146700000Y-110850000D03*
X140200000Y-120700000D03*
X148800000Y-96150000D03*
D55*
X151400000Y-103450000D03*
D56*
X125850000Y-107550000D03*
X155600000Y-87250000D03*
X159850000Y-90750000D03*
X162700000Y-101750000D03*
X143400000Y-72150000D03*
D55*
X127250000Y-96843750D03*
D56*
X134950000Y-109300000D03*
X150100000Y-112200000D03*
X149100000Y-93450000D03*
X129200000Y-76850000D03*
X138200000Y-93850000D03*
X126150000Y-104650000D03*
X154900000Y-88050000D03*
X133400000Y-89750000D03*
X129700000Y-89150000D03*
X139945000Y-124450000D03*
X132400000Y-91950000D03*
X146700000Y-108550000D03*
X152900000Y-83250000D03*
X144000000Y-109150000D03*
X150650000Y-80950000D03*
X149800000Y-71250000D03*
D55*
X146300000Y-118250000D03*
D56*
X162100000Y-104550000D03*
X155900000Y-122350000D03*
X136200000Y-112425000D03*
X129500000Y-96850000D03*
X124100000Y-88050000D03*
X143400000Y-73050000D03*
X146750000Y-122750000D03*
D55*
X139800000Y-115950000D03*
D56*
X124400000Y-82750000D03*
D55*
X161450000Y-86750000D03*
D56*
X148600000Y-95000000D03*
X136200000Y-111175000D03*
X156000000Y-85150000D03*
X161450000Y-115700000D03*
X156750000Y-123300000D03*
X149800000Y-73050000D03*
X141450000Y-123200000D03*
X130000000Y-75850000D03*
D55*
X135000000Y-107750000D03*
D56*
X163450000Y-118650000D03*
D55*
X133000000Y-87950000D03*
D56*
X161700000Y-121450000D03*
X125900000Y-88050000D03*
X143050000Y-115750000D03*
X163800000Y-110250000D03*
X134900000Y-91250000D03*
X171375000Y-83950000D03*
D55*
X155200000Y-114850000D03*
D56*
X162650000Y-112957500D03*
X142700000Y-123200000D03*
X126100000Y-82750000D03*
X150050000Y-90350000D03*
X135500000Y-130850000D03*
X127750000Y-119362500D03*
X130200000Y-72950000D03*
X124950000Y-107550000D03*
X155650000Y-105300000D03*
X165900000Y-71300000D03*
X160400000Y-127150000D03*
X162500000Y-99000000D03*
X137450000Y-109300000D03*
X163490000Y-82700000D03*
X146800000Y-121400000D03*
X131600000Y-96850000D03*
X124850000Y-99950000D03*
D55*
X143400000Y-114350000D03*
X163400000Y-79350000D03*
D56*
X157600000Y-110950000D03*
X165900000Y-73100000D03*
X161600000Y-96150000D03*
X150350000Y-128300000D03*
X127800000Y-89150000D03*
X171375000Y-88950000D03*
X163850000Y-92850000D03*
D55*
X150000000Y-116650000D03*
D56*
X156000000Y-73050000D03*
X153900000Y-85550000D03*
X139900000Y-72250000D03*
X134800000Y-124250000D03*
X139600000Y-99950000D03*
X139575000Y-121950000D03*
X138500000Y-91250000D03*
X144300000Y-134250000D03*
X130300000Y-105450000D03*
X142075000Y-121950000D03*
X163900000Y-99000000D03*
D55*
X142800000Y-79550000D03*
D56*
X151500000Y-129250000D03*
X126350000Y-117262500D03*
%TO.N,/IO/IO2/P_VBUS*%
X163550000Y-89250000D03*
X163550000Y-88050000D03*
X163490000Y-85200000D03*
X163490000Y-84000000D03*
D55*
X160050000Y-88050000D03*
D56*
%TO.N,+3V3*%
X139945000Y-126450000D03*
D55*
X136300000Y-107650000D03*
X154100000Y-114750000D03*
X134200000Y-96850000D03*
X150300000Y-103550000D03*
X141500000Y-82150000D03*
X145200000Y-118250000D03*
X131600000Y-104450000D03*
D56*
X139945000Y-127650000D03*
D55*
X150000000Y-115550000D03*
X142700000Y-105950000D03*
X153700000Y-87850000D03*
%TO.N,/MCU/D_I2C2_SDA*%
X139100000Y-99150000D03*
X137800000Y-101350000D03*
%TO.N,/MCU/D_I2C2_SCL*%
X140500000Y-99850000D03*
X139500000Y-102750000D03*
%TO.N,/MCU/D_NRST*%
X141600000Y-92250000D03*
X136350000Y-88100000D03*
%TO.N,+5V*%
X134150000Y-112662500D03*
X141100000Y-132050000D03*
X125900000Y-126750000D03*
X129500000Y-131050000D03*
D56*
X127050000Y-124162500D03*
D55*
X130900000Y-110750000D03*
D56*
X124450000Y-124162500D03*
X125750000Y-124162500D03*
D55*
X136500000Y-77950000D03*
X142800000Y-78300000D03*
X131700000Y-87950000D03*
X163400000Y-77950000D03*
X153000000Y-78350000D03*
%TO.N,/IO/D_USART2_TX*%
X125050000Y-104550000D03*
D56*
%TO.N,/IO/IO2/D_CC1A*%
X168800000Y-83650000D03*
%TO.N,/IO/IO2/D_CC1B*%
X167500000Y-84650000D03*
D55*
%TO.N,/IO/P_LDOIN*%
X157900000Y-87450000D03*
X131100000Y-128550000D03*
%TO.N,/IO/D_PINIO0*%
X147100000Y-90350000D03*
X135800000Y-73350000D03*
%TO.N,/IO/D_PINIO1*%
X134400000Y-73350000D03*
X145800000Y-90650000D03*
%TO.N,/MCU/SPI1_MOSI*%
X144300000Y-110050000D03*
X147300000Y-110050000D03*
%TO.N,/MCU/D_LED0*%
X158900000Y-129850000D03*
X144900000Y-93600000D03*
%TO.N,/MCU/D_BOOT0*%
X144650000Y-90050000D03*
X138000000Y-83350000D03*
%TO.N,/IO/D_ADC1_CH10*%
X141500000Y-90150000D03*
D56*
%TO.N,/IO/D_TIM2_CH1*%
X147500000Y-94550000D03*
%TO.N,/IO/D_TIM5_CH1*%
X146900000Y-95750000D03*
D55*
%TO.N,/IO/D_USART2_RX*%
X126250000Y-103650000D03*
%TO.N,/MCU/SPI1_MISO*%
X143250000Y-107700000D03*
X146300000Y-107450000D03*
%TO.N,/MCU/SPI1_CS*%
X144900000Y-98400000D03*
X148700000Y-110250000D03*
%TO.N,/MCU/D_BOOT1*%
X146600000Y-98350000D03*
%TO.N,/IO/D_TIM12_CH1*%
X156400000Y-103050000D03*
X149600000Y-96750000D03*
X160600000Y-121450000D03*
%TO.N,/IO/D_TIM12_CH2*%
X157800000Y-108250000D03*
X154700000Y-98050000D03*
X161200000Y-118550000D03*
%TO.N,/IO/D_TIM8_CH1*%
X161450000Y-113000000D03*
%TO.N,/IO/D_TIM8_CH2*%
X149600000Y-95450000D03*
%TO.N,/IO/D_TIM3_CH3*%
X161350000Y-107400000D03*
%TO.N,/IO/D_TIM3_CH4*%
X161080000Y-104557500D03*
%TO.N,/IO/D_TIM1_CH1*%
X161700000Y-101757500D03*
%TO.N,/IO/D_TIM1_CH2*%
X159200000Y-93350000D03*
%TO.N,/MCU/D_SWDIO*%
X149500000Y-91100000D03*
%TO.N,/MCU/D_SWCLK*%
X150700000Y-89650000D03*
D56*
%TO.N,/IO/D_I2C1_SCL*%
X148800000Y-79850000D03*
D55*
X147000000Y-71950000D03*
%TO.N,/IO/D_I2C1_SDA*%
X147100000Y-73550000D03*
%TO.N,/IO/D_TIM4_CH3*%
X149250000Y-92450000D03*
%TO.N,/IO/D_TIM4_CH4*%
X148100000Y-93250000D03*
D56*
%TO.N,/Power/P_VIN*%
X124550000Y-112262500D03*
X127350000Y-112262500D03*
X126050000Y-112262500D03*
%TD*%
%TO.N,/Peripherals/CAN & LEDs/D_R_LED1*%
D57*
X163100000Y-133300000D02*
X165037500Y-133300000D01*
X165037500Y-133300000D02*
X165100000Y-133362500D01*
%TO.N,/MCU/D_LED1*%
D58*
X148950000Y-88575000D02*
X148950000Y-89550000D01*
D57*
X163100000Y-131550000D02*
X163100000Y-129850000D01*
X148200000Y-90450000D02*
X148200000Y-91150000D01*
X148950000Y-89700000D02*
X148200000Y-90450000D01*
X148950000Y-89550000D02*
X148950000Y-89700000D01*
%TO.N,/MCU/D_ADC2_CH13*%
X141550000Y-95500000D02*
X141800000Y-95250000D01*
X141050000Y-95500000D02*
X141550000Y-95500000D01*
X131750000Y-107037500D02*
X131800000Y-107087500D01*
X132662500Y-107087500D02*
X131800000Y-107087500D01*
X133200000Y-106550000D02*
X132662500Y-107087500D01*
D58*
X140025000Y-95500000D02*
X141050000Y-95500000D01*
D57*
X127600000Y-107037500D02*
X131750000Y-107037500D01*
%TO.N,GND*%
D59*
X146562500Y-116850000D02*
X146562500Y-116212500D01*
D60*
X137187500Y-80037500D02*
X136500000Y-79350000D01*
D59*
X134712499Y-106350000D02*
X134712499Y-105887501D01*
X132975000Y-103087499D02*
X131962501Y-103087499D01*
D61*
X144825000Y-74475000D02*
X145300000Y-74950000D01*
D59*
X137500000Y-95287500D02*
X138037500Y-95287500D01*
D61*
X133700000Y-94550000D02*
X134400000Y-93850000D01*
D57*
X165100000Y-130125000D02*
X164500000Y-129525000D01*
X146000000Y-115750000D02*
X145900000Y-115650000D01*
D58*
X145800000Y-115550000D02*
X145900000Y-115650000D01*
D61*
X134800000Y-91150000D02*
X133400000Y-89750000D01*
D57*
X124350000Y-86150000D02*
X124350000Y-87800000D01*
X155435000Y-118915000D02*
X155500000Y-118850000D01*
X134100000Y-79537500D02*
X136312500Y-79537500D01*
X161390000Y-86750000D02*
X161450000Y-86750000D01*
D59*
X132975000Y-103087499D02*
X133012499Y-103050000D01*
D58*
X143450000Y-114400000D02*
X143400000Y-114350000D01*
D57*
X135500000Y-130850000D02*
X136512500Y-130850000D01*
D59*
X146562500Y-117987500D02*
X146300000Y-118250000D01*
D58*
X131437500Y-85350000D02*
X129750000Y-85350000D01*
X146300000Y-115062500D02*
X146300000Y-115550000D01*
D61*
X132250000Y-72100000D02*
X131287500Y-72100000D01*
D59*
X138037500Y-95287500D02*
X138500000Y-95750000D01*
D58*
X142450000Y-101000000D02*
X142400000Y-101050000D01*
D61*
X130100000Y-100350000D02*
X129900000Y-100550000D01*
X157700000Y-72150000D02*
X157275000Y-72150000D01*
D59*
X134712499Y-106350000D02*
X134712499Y-107462499D01*
D61*
X131800000Y-89150000D02*
X129400000Y-89150000D01*
D57*
X142500000Y-87450000D02*
X142600000Y-87350000D01*
D61*
X132500000Y-77350000D02*
X131300000Y-77350000D01*
X125600000Y-95650000D02*
X125600000Y-93650000D01*
D57*
X134624999Y-103150000D02*
X133800000Y-103150000D01*
D61*
X163600000Y-90450000D02*
X163550000Y-90450000D01*
X159125000Y-76325000D02*
X157800000Y-77650000D01*
D57*
X127600000Y-108862500D02*
X126312500Y-108862500D01*
D61*
X144100000Y-76150000D02*
X144100000Y-76750000D01*
D57*
X134537500Y-130850000D02*
X134350000Y-131037500D01*
D58*
X140025000Y-96000000D02*
X139050000Y-96000000D01*
D61*
X132200000Y-94550000D02*
X132200000Y-96250000D01*
X133137500Y-76712500D02*
X132500000Y-77350000D01*
D57*
X135275000Y-105275000D02*
X135200000Y-105350000D01*
D58*
X142450000Y-88575000D02*
X142450000Y-87500000D01*
D61*
X157800000Y-77650000D02*
X157500000Y-77650000D01*
D59*
X141162500Y-105812500D02*
X141400000Y-106050000D01*
D57*
X155435000Y-120375000D02*
X155435000Y-118915000D01*
D61*
X125600000Y-93650000D02*
X125600000Y-91750000D01*
D57*
X138900000Y-95850000D02*
X138800000Y-95850000D01*
D59*
X149837500Y-116812500D02*
X150000000Y-116650000D01*
X141537500Y-102350000D02*
X141400000Y-102487500D01*
D58*
X144637500Y-113900000D02*
X143850000Y-113900000D01*
D61*
X129493750Y-96843750D02*
X129500000Y-96850000D01*
X125600000Y-90650000D02*
X126300000Y-89950000D01*
D57*
X146300000Y-115750000D02*
X146000000Y-115750000D01*
D60*
X143000000Y-126712500D02*
X144662500Y-126712500D01*
D59*
X155562501Y-118004940D02*
X155562501Y-118487499D01*
D61*
X127237500Y-95550000D02*
X127237500Y-96831250D01*
D57*
X131800000Y-108812500D02*
X131800000Y-109750000D01*
D60*
X165200000Y-79587500D02*
X163637500Y-79587500D01*
D59*
X143137500Y-83950000D02*
X143137500Y-85975000D01*
D57*
X124350000Y-86150000D02*
X128450000Y-86150000D01*
D59*
X133012499Y-103050000D02*
X133700000Y-103050000D01*
D58*
X128950000Y-86150000D02*
X129750000Y-85350000D01*
D59*
X146562500Y-116850000D02*
X146562500Y-117987500D01*
X152480240Y-87050000D02*
X152900000Y-87050000D01*
D61*
X165250000Y-89750000D02*
X164300000Y-89750000D01*
X163640000Y-82700000D02*
X163490000Y-82700000D01*
X129700000Y-91350000D02*
X130362500Y-92012500D01*
X128950000Y-91350000D02*
X129700000Y-91350000D01*
X127250000Y-93550000D02*
X127250000Y-95537500D01*
X136300000Y-93850000D02*
X138200000Y-93850000D01*
X163550000Y-90450000D02*
X163550000Y-91350000D01*
D57*
X139000000Y-95950000D02*
X138900000Y-95850000D01*
D61*
X164290000Y-83350000D02*
X163640000Y-82700000D01*
D57*
X136512500Y-130850000D02*
X136700000Y-131037500D01*
X160744074Y-87395926D02*
X161390000Y-86750000D01*
D61*
X149262913Y-123837087D02*
X148306551Y-124793449D01*
D57*
X132337500Y-79550000D02*
X134012500Y-79550000D01*
D59*
X134662500Y-95287500D02*
X134200000Y-95750000D01*
D61*
X148775000Y-130150000D02*
X148775000Y-132625000D01*
D58*
X144637500Y-114400000D02*
X143450000Y-114400000D01*
D61*
X133400000Y-89750000D02*
X132800000Y-89150000D01*
X126300000Y-89950000D02*
X127100000Y-89150000D01*
X127237500Y-96831250D02*
X127250000Y-96843750D01*
D57*
X142400000Y-101050000D02*
X142300000Y-101150000D01*
D61*
X133137500Y-72987500D02*
X132250000Y-72100000D01*
D59*
X155562501Y-118487499D02*
X155500000Y-118550000D01*
D57*
X133812500Y-125567500D02*
X133745000Y-125500000D01*
D61*
X132200000Y-96250000D02*
X131600000Y-96850000D01*
D59*
X131962501Y-103087499D02*
X131700000Y-103350000D01*
X155562501Y-115212501D02*
X155200000Y-114850000D01*
D61*
X150700000Y-108750000D02*
X151100000Y-108350000D01*
D58*
X145800000Y-115062500D02*
X145800000Y-115550000D01*
D61*
X159125000Y-75350000D02*
X159125000Y-73575000D01*
D59*
X143137500Y-83950000D02*
X143137500Y-82787500D01*
D61*
X144825000Y-72150000D02*
X144825000Y-74475000D01*
D59*
X153375000Y-80025000D02*
X153000000Y-79650000D01*
X134712499Y-107462499D02*
X135000000Y-107750000D01*
X151690120Y-87840120D02*
X152480240Y-87050000D01*
D61*
X133137500Y-75300000D02*
X133137500Y-72987500D01*
D58*
X128450000Y-86150000D02*
X128950000Y-86150000D01*
D60*
X144662500Y-126712500D02*
X144700000Y-126750000D01*
D57*
X132300000Y-79587500D02*
X132337500Y-79550000D01*
X133800000Y-103150000D02*
X133700000Y-103050000D01*
D61*
X129400000Y-89150000D02*
X127800000Y-89150000D01*
X165250000Y-83350000D02*
X164290000Y-83350000D01*
X133150000Y-94550000D02*
X133700000Y-94550000D01*
D59*
X146562500Y-116212500D02*
X146400000Y-116050000D01*
D61*
X133137500Y-75300000D02*
X133137500Y-76712500D01*
D57*
X132300000Y-84487500D02*
X132300000Y-84450000D01*
D61*
X127250000Y-95537500D02*
X127237500Y-95550000D01*
D57*
X131800000Y-109750000D02*
X132200000Y-110150000D01*
X132200000Y-110150000D02*
X132200000Y-110650000D01*
D59*
X155500000Y-118550000D02*
X155500000Y-118850000D01*
X151662500Y-102250000D02*
X151662500Y-103187500D01*
D57*
X136312500Y-79537500D02*
X136500000Y-79350000D01*
D59*
X134712499Y-105887501D02*
X135000000Y-105600000D01*
D61*
X127100000Y-89150000D02*
X127800000Y-89150000D01*
D59*
X132237500Y-84550000D02*
X132300000Y-84487500D01*
D61*
X134800000Y-91150000D02*
X134900000Y-91250000D01*
X125600000Y-95650000D02*
X125600000Y-96450000D01*
X145300000Y-74950000D02*
X145700000Y-75350000D01*
D57*
X135500000Y-130850000D02*
X134537500Y-130850000D01*
D61*
X151100000Y-108350000D02*
X151100000Y-106550000D01*
D59*
X155562501Y-116250000D02*
X155562501Y-115212501D01*
X148600000Y-116812500D02*
X149837500Y-116812500D01*
D58*
X142450000Y-99925000D02*
X142450000Y-101000000D01*
D61*
X134900000Y-91250000D02*
X136800000Y-91250000D01*
X125993750Y-96843750D02*
X127250000Y-96843750D01*
X138500000Y-91250000D02*
X136800000Y-91250000D01*
D60*
X163637500Y-79587500D02*
X163400000Y-79350000D01*
D59*
X154800000Y-80025000D02*
X153375000Y-80025000D01*
D61*
X130362500Y-92012500D02*
X130950000Y-92012500D01*
D59*
X151662500Y-103187500D02*
X151400000Y-103450000D01*
D61*
X127250000Y-96843750D02*
X129493750Y-96843750D01*
D57*
X135275000Y-104750000D02*
X135275000Y-105275000D01*
X158800000Y-122737500D02*
X158800000Y-121250000D01*
D61*
X159125000Y-73575000D02*
X157700000Y-72150000D01*
D57*
X126312500Y-108862500D02*
X125850000Y-108400000D01*
D59*
X143137500Y-85975000D02*
X142962500Y-86150000D01*
D57*
X124350000Y-87800000D02*
X124100000Y-88050000D01*
D61*
X140800000Y-107850000D02*
X141400000Y-107250000D01*
D59*
X134050000Y-79587500D02*
X134100000Y-79537500D01*
X141537500Y-102350000D02*
X141537500Y-101912500D01*
D61*
X145300000Y-74950000D02*
X144100000Y-76150000D01*
D57*
X165100000Y-131537500D02*
X165100000Y-130125000D01*
D61*
X132800000Y-89150000D02*
X131800000Y-89150000D01*
X148775000Y-132625000D02*
X149500000Y-133350000D01*
X159125000Y-75350000D02*
X159125000Y-76325000D01*
D59*
X135600000Y-95287500D02*
X134662500Y-95287500D01*
D60*
X138600000Y-80037500D02*
X137187500Y-80037500D01*
D61*
X141400000Y-107250000D02*
X141400000Y-106050000D01*
X132200000Y-94550000D02*
X133150000Y-94550000D01*
X163490000Y-82700000D02*
X163490000Y-81850000D01*
X164300000Y-89750000D02*
X163600000Y-90450000D01*
D59*
X141162500Y-104450000D02*
X141162500Y-105812500D01*
X141537500Y-101912500D02*
X142100000Y-101350000D01*
D57*
X146300000Y-115550000D02*
X146300000Y-115750000D01*
D58*
X132300000Y-84487500D02*
X131437500Y-85350000D01*
D59*
X142962500Y-86150000D02*
X142962500Y-86787500D01*
D57*
X136387500Y-79237500D02*
X136500000Y-79350000D01*
D61*
X130950000Y-92012500D02*
X132337500Y-92012500D01*
X132337500Y-92012500D02*
X132400000Y-91950000D01*
D58*
X139050000Y-96000000D02*
X139000000Y-95950000D01*
D59*
X142962500Y-86787500D02*
X142700000Y-87050000D01*
D61*
X134400000Y-93850000D02*
X136300000Y-93850000D01*
D59*
X141400000Y-102487500D02*
X141400000Y-104412500D01*
X155562501Y-116250000D02*
X155562501Y-118004940D01*
D61*
X125600000Y-91750000D02*
X125600000Y-90650000D01*
D58*
X142450000Y-87500000D02*
X142500000Y-87450000D01*
D61*
X129900000Y-100550000D02*
X128700000Y-100550000D01*
D57*
X125850000Y-108400000D02*
X125850000Y-107550000D01*
D59*
X135600000Y-95287500D02*
X137500000Y-95287500D01*
X141400000Y-104412500D02*
X141362500Y-104450000D01*
D57*
X160900000Y-131512500D02*
X160900000Y-130125000D01*
D58*
X143850000Y-113900000D02*
X143400000Y-114350000D01*
D61*
X129500000Y-96850000D02*
X131600000Y-96850000D01*
D59*
X143137500Y-82787500D02*
X142600000Y-82250000D01*
D61*
X145700000Y-75350000D02*
X146675000Y-75350000D01*
X125600000Y-96450000D02*
X125993750Y-96843750D01*
%TO.N,/IO/IO2/USB_DN*%
D62*
X164394028Y-86277000D02*
X163894028Y-86777000D01*
D57*
X161420971Y-87829029D02*
X162450000Y-86800000D01*
D62*
X164807000Y-86277000D02*
X164394028Y-86277000D01*
X164417028Y-87300000D02*
X163894028Y-86777000D01*
X163894028Y-86777000D02*
X162450000Y-86777000D01*
X165250000Y-87300000D02*
X164417028Y-87300000D01*
D57*
X161071111Y-87829029D02*
X161420971Y-87829029D01*
%TO.N,/IO/IO2/USB_DP*%
D62*
X164807000Y-85823000D02*
X164205972Y-85823000D01*
X165250000Y-85800000D02*
X166400000Y-85800000D01*
X164205972Y-85823000D02*
X163705972Y-86323000D01*
X162223000Y-86323000D02*
X161850000Y-85950000D01*
X166700000Y-86100000D02*
X166700000Y-86550000D01*
X161150000Y-85950000D02*
X160310971Y-86789029D01*
X166400000Y-85800000D02*
X166700000Y-86100000D01*
X166700000Y-86550000D02*
X166450000Y-86800000D01*
X160310971Y-86789029D02*
X160310971Y-87068889D01*
X166450000Y-86800000D02*
X165250000Y-86800000D01*
X161850000Y-85950000D02*
X161150000Y-85950000D01*
X163705972Y-86323000D02*
X162223000Y-86323000D01*
%TO.N,/IO/USB_D+*%
X159079029Y-88270971D02*
X159108889Y-88270971D01*
X152537501Y-92000000D02*
X152560501Y-92023000D01*
X155705972Y-92023000D02*
X158600000Y-89128972D01*
X151375000Y-92000000D02*
X152537501Y-92000000D01*
X158600000Y-88750000D02*
X159079029Y-88270971D01*
X158600000Y-89128972D02*
X158600000Y-88750000D01*
X152560501Y-92023000D02*
X155705972Y-92023000D01*
%TO.N,/IO/IO2/P_VBUS*%
D61*
X163550000Y-88950000D02*
X163550000Y-88050000D01*
X163550000Y-89250000D02*
X163550000Y-88950000D01*
X165250000Y-88950000D02*
X163550000Y-88950000D01*
X163490000Y-84000000D02*
X163490000Y-85200000D01*
D57*
X160050000Y-88090000D02*
X160050000Y-88050000D01*
X159435926Y-88704074D02*
X160050000Y-88090000D01*
D61*
X163490000Y-84000000D02*
X163640000Y-84150000D01*
X165250000Y-84150000D02*
X163640000Y-84150000D01*
%TO.N,/IO/USB_D-*%
D62*
X155894028Y-92477000D02*
X152560501Y-92477000D01*
X158921028Y-89450000D02*
X155894028Y-92477000D01*
X152537501Y-92500000D02*
X151375000Y-92500000D01*
X159450140Y-89450000D02*
X158921028Y-89450000D01*
X152560501Y-92477000D02*
X152537501Y-92500000D01*
X159869029Y-89031111D02*
X159450140Y-89450000D01*
%TO.N,+3V3*%
D59*
X153837499Y-118587499D02*
X154000000Y-118750000D01*
D57*
X149500000Y-100950000D02*
X149500000Y-101150000D01*
D58*
X142950000Y-100900000D02*
X143000000Y-100950000D01*
D59*
X142700000Y-105950000D02*
X143237500Y-105412500D01*
D61*
X139850000Y-83950000D02*
X141062500Y-83950000D01*
D57*
X138700000Y-96650000D02*
X138500000Y-96850000D01*
D59*
X141237500Y-86150000D02*
X141237500Y-86787500D01*
D57*
X135275000Y-103150000D02*
X135275000Y-102625000D01*
D59*
X136437501Y-106350000D02*
X136437501Y-107512499D01*
X153837499Y-115012501D02*
X154100000Y-114750000D01*
D61*
X140000000Y-88200000D02*
X139300000Y-87500000D01*
D57*
X138900000Y-96650000D02*
X138700000Y-96650000D01*
D59*
X141062500Y-83950000D02*
X141062500Y-82587500D01*
X132975000Y-104812501D02*
X131962501Y-104812501D01*
X138337500Y-97012500D02*
X138500000Y-96850000D01*
D57*
X150000000Y-115550000D02*
X150000000Y-113550000D01*
X134200000Y-84437500D02*
X139237500Y-84437500D01*
D61*
X139300000Y-84500000D02*
X139850000Y-83950000D01*
D57*
X134662500Y-102012500D02*
X134662500Y-101450000D01*
D61*
X140000000Y-89850000D02*
X140000000Y-88200000D01*
D57*
X135925000Y-104750000D02*
X135925000Y-105275000D01*
D59*
X141062500Y-85975000D02*
X141237500Y-86150000D01*
D58*
X140025000Y-90075000D02*
X140000000Y-90050000D01*
D57*
X149712500Y-113262500D02*
X148700000Y-113262500D01*
D58*
X147550000Y-114900000D02*
X147600000Y-114950000D01*
D59*
X144837500Y-116412500D02*
X145200000Y-116050000D01*
X148600000Y-115087500D02*
X149537500Y-115087500D01*
D57*
X139000000Y-130050000D02*
X139945000Y-129105000D01*
D59*
X153837499Y-118004940D02*
X153837499Y-118587499D01*
D57*
X133500000Y-82750000D02*
X134200000Y-83450000D01*
X134624999Y-104750000D02*
X134000000Y-104750000D01*
X137600000Y-106350000D02*
X136437501Y-106350000D01*
D58*
X141950000Y-87500000D02*
X141900000Y-87450000D01*
D57*
X154165000Y-120375000D02*
X154165000Y-119115000D01*
D59*
X153837499Y-118004940D02*
X153837499Y-116250000D01*
D57*
X135925000Y-105275000D02*
X136000000Y-105350000D01*
D59*
X149937500Y-102250000D02*
X149937500Y-103187500D01*
D57*
X139237500Y-84437500D02*
X139300000Y-84500000D01*
D58*
X151375000Y-90500000D02*
X152150000Y-90500000D01*
D59*
X143250000Y-104262500D02*
X143437500Y-104450000D01*
X141237500Y-86787500D02*
X141600000Y-87150000D01*
X149937500Y-103187500D02*
X150300000Y-103550000D01*
D57*
X150000000Y-113550000D02*
X149712500Y-113262500D01*
D58*
X139000000Y-96550000D02*
X139050000Y-96500000D01*
D57*
X152300000Y-90350000D02*
X152500000Y-90150000D01*
D58*
X142950000Y-99925000D02*
X142950000Y-100900000D01*
D59*
X149937500Y-101587500D02*
X149700000Y-101350000D01*
D57*
X143000000Y-100950000D02*
X143000000Y-101250000D01*
D59*
X144837500Y-116850000D02*
X144837500Y-116412500D01*
D57*
X149500000Y-101150000D02*
X149700000Y-101350000D01*
X139945000Y-129105000D02*
X139945000Y-127650000D01*
D59*
X143262500Y-102350000D02*
X143250000Y-102362500D01*
D57*
X128400000Y-81325000D02*
X128400000Y-82150000D01*
D59*
X144837500Y-116850000D02*
X144837500Y-117887500D01*
X152909880Y-89059880D02*
X153700000Y-88269760D01*
X152909880Y-89059880D02*
X152909880Y-89640120D01*
X153837499Y-116250000D02*
X153837499Y-115012501D01*
X148600000Y-115087500D02*
X147937500Y-115087500D01*
D58*
X135925000Y-104275000D02*
X135925000Y-104750000D01*
D57*
X154165000Y-119115000D02*
X154000000Y-118950000D01*
D59*
X143237500Y-105412500D02*
X143237500Y-104450000D01*
X137500000Y-97012500D02*
X138337500Y-97012500D01*
X144837500Y-117887500D02*
X145200000Y-118250000D01*
X141062500Y-83950000D02*
X141062500Y-85975000D01*
D57*
X134200000Y-83450000D02*
X134200000Y-84437500D01*
D58*
X135275000Y-103150000D02*
X135275000Y-103625000D01*
X140025000Y-90500000D02*
X140025000Y-90075000D01*
D59*
X135600000Y-97012500D02*
X137500000Y-97012500D01*
X132975000Y-104812501D02*
X133637499Y-104812501D01*
X149937500Y-102250000D02*
X149937500Y-101587500D01*
X147937500Y-115087500D02*
X147900000Y-115050000D01*
D57*
X141900000Y-87450000D02*
X141800000Y-87350000D01*
D59*
X136437501Y-106350000D02*
X136437501Y-105887501D01*
D57*
X144687500Y-78550000D02*
X144687500Y-80450000D01*
X142500000Y-81150000D02*
X141500000Y-82150000D01*
X144687500Y-80450000D02*
X143987500Y-81150000D01*
D58*
X146962500Y-114900000D02*
X147550000Y-114900000D01*
X135275000Y-103625000D02*
X135925000Y-104275000D01*
D59*
X143262500Y-101512500D02*
X143200000Y-101450000D01*
D58*
X139050000Y-96500000D02*
X140025000Y-96500000D01*
D61*
X139300000Y-87500000D02*
X139300000Y-84500000D01*
D57*
X128400000Y-82150000D02*
X129000000Y-82750000D01*
D59*
X149537500Y-115087500D02*
X150000000Y-115550000D01*
X134200000Y-96850000D02*
X134362500Y-97012500D01*
D58*
X149450000Y-100900000D02*
X149500000Y-100950000D01*
X141950000Y-88575000D02*
X141950000Y-87500000D01*
D57*
X143987500Y-81150000D02*
X142500000Y-81150000D01*
D58*
X145300000Y-115062500D02*
X145300000Y-115550000D01*
X149450000Y-99925000D02*
X149450000Y-100900000D01*
D57*
X140000000Y-90050000D02*
X140000000Y-89850000D01*
X129000000Y-82750000D02*
X133500000Y-82750000D01*
D59*
X143262500Y-102350000D02*
X143262500Y-101512500D01*
X136437501Y-107512499D02*
X136300000Y-107650000D01*
X131962501Y-104812501D02*
X131600000Y-104450000D01*
X153700000Y-88269760D02*
X153700000Y-87850000D01*
X152909880Y-89640120D02*
X152600000Y-89950000D01*
X141062500Y-82587500D02*
X141500000Y-82150000D01*
D57*
X139000000Y-96550000D02*
X138900000Y-96650000D01*
D58*
X152150000Y-90500000D02*
X152300000Y-90350000D01*
D57*
X124300000Y-81325000D02*
X128400000Y-81325000D01*
X135275000Y-102625000D02*
X134662500Y-102012500D01*
D59*
X143250000Y-102362500D02*
X143250000Y-104262500D01*
D57*
X139000000Y-131075000D02*
X139000000Y-130050000D01*
X138275000Y-105675000D02*
X137600000Y-106350000D01*
X138275000Y-104862500D02*
X138275000Y-105675000D01*
D59*
X136437501Y-105887501D02*
X136200000Y-105650000D01*
D57*
X145300000Y-115550000D02*
X145300000Y-115750000D01*
D59*
X134362500Y-97012500D02*
X135600000Y-97012500D01*
%TO.N,/MCU/D_I2C2_SDA*%
D57*
X141700000Y-97750000D02*
X142900000Y-97750000D01*
D58*
X148450000Y-99925000D02*
X148450000Y-98950000D01*
D57*
X139100000Y-99150000D02*
X139500000Y-98750000D01*
X137800000Y-101350000D02*
X136587500Y-101350000D01*
X148450000Y-98800000D02*
X148450000Y-98950000D01*
X135925000Y-103150000D02*
X135925000Y-102012500D01*
X136587500Y-101350000D02*
X136487500Y-101450000D01*
X148700000Y-97450000D02*
X148700000Y-98550000D01*
X148000000Y-96750000D02*
X148700000Y-97450000D01*
X139500000Y-98750000D02*
X140700000Y-98750000D01*
X140700000Y-98750000D02*
X141700000Y-97750000D01*
X143900000Y-96750000D02*
X148000000Y-96750000D01*
X142900000Y-97750000D02*
X143900000Y-96750000D01*
X135925000Y-102012500D02*
X136487500Y-101450000D01*
X148700000Y-98550000D02*
X148450000Y-98800000D01*
%TO.N,/MCU/D_I2C2_SCL*%
X139500000Y-102750000D02*
X139150000Y-103100000D01*
X147900000Y-98850000D02*
X147900000Y-98150000D01*
X147300000Y-97550000D02*
X144300000Y-97550000D01*
X140600000Y-99850000D02*
X140500000Y-99850000D01*
X139150000Y-103100000D02*
X138337500Y-103100000D01*
D58*
X147900000Y-99875000D02*
X147950000Y-99925000D01*
D57*
X142000000Y-98450000D02*
X140600000Y-99850000D01*
X143400000Y-98450000D02*
X142000000Y-98450000D01*
X138337500Y-103100000D02*
X138275000Y-103037500D01*
X147900000Y-98150000D02*
X147300000Y-97550000D01*
X144300000Y-97550000D02*
X143400000Y-98450000D01*
D58*
X147900000Y-98850000D02*
X147900000Y-99875000D01*
D57*
X136575001Y-103150000D02*
X138162500Y-103150000D01*
%TO.N,/MCU/D_NRST*%
X132300000Y-86212500D02*
X134150000Y-86212500D01*
X132350000Y-86212500D02*
X132300000Y-86262500D01*
X136350000Y-88100000D02*
X135050000Y-88100000D01*
X141600000Y-93100000D02*
X141200000Y-93500000D01*
X141600000Y-92250000D02*
X141600000Y-93100000D01*
X134200000Y-87250000D02*
X134200000Y-86262500D01*
D58*
X140025000Y-93500000D02*
X141050000Y-93500000D01*
D57*
X134150000Y-86212500D02*
X134200000Y-86262500D01*
X135050000Y-88100000D02*
X134200000Y-87250000D01*
X130400000Y-86212500D02*
X132300000Y-86212500D01*
X141200000Y-93500000D02*
X141050000Y-93500000D01*
X134362500Y-86100000D02*
X134200000Y-86262500D01*
X134212500Y-86250000D02*
X134200000Y-86262500D01*
%TO.N,+5V*%
X131200000Y-131050000D02*
X131225000Y-131075000D01*
D60*
X154800000Y-76250000D02*
X154200000Y-75650000D01*
D59*
X144737500Y-128787500D02*
X143000000Y-128787500D01*
D60*
X141100000Y-129650000D02*
X141100000Y-132050000D01*
X165200000Y-77512500D02*
X165200000Y-76450000D01*
D61*
X136887500Y-75300000D02*
X137750000Y-75300000D01*
D60*
X143000000Y-128787500D02*
X141962500Y-128787500D01*
X124450000Y-124162500D02*
X127587500Y-124162500D01*
D57*
X131225000Y-131075000D02*
X131900000Y-131075000D01*
D60*
X136512500Y-77962500D02*
X136500000Y-77950000D01*
D61*
X137750000Y-75300000D02*
X138600000Y-76150000D01*
D57*
X134150000Y-112662500D02*
X130712500Y-112662500D01*
D60*
X141962500Y-128787500D02*
X141100000Y-129650000D01*
X163837500Y-77512500D02*
X163400000Y-77950000D01*
X154800000Y-77950000D02*
X153400000Y-77950000D01*
X154800000Y-77950000D02*
X154800000Y-76250000D01*
D61*
X153225000Y-75650000D02*
X152925000Y-75350000D01*
D57*
X129500000Y-131050000D02*
X131200000Y-131050000D01*
D61*
X138600000Y-76150000D02*
X138600000Y-77962500D01*
D60*
X138600000Y-77962500D02*
X136512500Y-77962500D01*
D61*
X163950000Y-75400000D02*
X162925000Y-75400000D01*
X145025000Y-129075000D02*
X144737500Y-128787500D01*
X162925000Y-75400000D02*
X162875000Y-75350000D01*
D60*
X165200000Y-77512500D02*
X163837500Y-77512500D01*
X154200000Y-75650000D02*
X153800000Y-75650000D01*
X153400000Y-77950000D02*
X153000000Y-78350000D01*
D61*
X145025000Y-130150000D02*
X145025000Y-129075000D01*
D60*
X127587500Y-124162500D02*
X130900000Y-120850000D01*
X164150000Y-75400000D02*
X163950000Y-75400000D01*
X165200000Y-76450000D02*
X164150000Y-75400000D01*
D61*
X153800000Y-75650000D02*
X153225000Y-75650000D01*
D60*
X130900000Y-120850000D02*
X130900000Y-110750000D01*
D57*
X130712500Y-112662500D02*
X130700000Y-112650000D01*
%TO.N,/IO/D_USART2_TX*%
X128000000Y-99250000D02*
X134737500Y-99250000D01*
X125050000Y-102200000D02*
X128000000Y-99250000D01*
X125000000Y-104550000D02*
X125050000Y-104500000D01*
X125050000Y-104500000D02*
X125050000Y-102200000D01*
%TO.N,/MCU/D_PA2*%
X137200000Y-99250000D02*
X136462500Y-99250000D01*
D58*
X139050000Y-98000000D02*
X139000000Y-98050000D01*
D57*
X138400000Y-98050000D02*
X137200000Y-99250000D01*
D58*
X140025000Y-98000000D02*
X139050000Y-98000000D01*
D57*
X139000000Y-98050000D02*
X138400000Y-98050000D01*
%TO.N,Net-(D201-K)*%
X136700000Y-132862500D02*
X138962500Y-132862500D01*
X138962500Y-132862500D02*
X139000000Y-132825000D01*
%TO.N,/Peripherals/CAN & LEDs/D_CANR*%
X152895000Y-119745000D02*
X151700000Y-118550000D01*
X152895000Y-120375000D02*
X152895000Y-119745000D01*
X151700000Y-118550000D02*
X151700000Y-118050000D01*
%TO.N,/MCU/D_CAN2RX*%
X153200000Y-100850000D02*
X153200000Y-112850000D01*
X153200000Y-112850000D02*
X151700000Y-114350000D01*
X151700000Y-114350000D02*
X151700000Y-116225000D01*
X151375000Y-99025000D02*
X153200000Y-100850000D01*
X151375000Y-98000000D02*
X151375000Y-99025000D01*
%TO.N,/IO/D_USART4_TX*%
X152700000Y-84050000D02*
X155500000Y-84050000D01*
X151609880Y-85140120D02*
X152700000Y-84050000D01*
X151419760Y-84930240D02*
X151419760Y-84950000D01*
X155500000Y-84050000D02*
X161625000Y-77925000D01*
X161625000Y-77925000D02*
X161625000Y-75350000D01*
%TO.N,/IO/D_USART4_RX*%
X160375000Y-75350000D02*
X160375000Y-77275000D01*
X155200000Y-82450000D02*
X152200000Y-82450000D01*
X160375000Y-77275000D02*
X155200000Y-82450000D01*
X152200000Y-82450000D02*
X147950000Y-86700000D01*
D58*
X147950000Y-87450000D02*
X147950000Y-88575000D01*
D57*
X147950000Y-86700000D02*
X147950000Y-87450000D01*
%TO.N,/IO/IO2/D_CC1A*%
X167300000Y-87800000D02*
X168800000Y-86300000D01*
D58*
X166150000Y-87800000D02*
X165250000Y-87800000D01*
D57*
X167300000Y-87800000D02*
X166150000Y-87800000D01*
X168800000Y-86300000D02*
X168800000Y-83650000D01*
%TO.N,/IO/IO2/D_CC1B*%
D58*
X165300000Y-84850000D02*
X166100000Y-84850000D01*
D57*
X166100000Y-84850000D02*
X167300000Y-84850000D01*
X167300000Y-84850000D02*
X167500000Y-84650000D01*
%TO.N,/IO/P_LDOIN*%
X132925000Y-126750000D02*
X132400000Y-126750000D01*
X132100000Y-125750000D02*
X132400000Y-125450000D01*
X132400000Y-125450000D02*
X132925000Y-125450000D01*
X132400000Y-126750000D02*
X132100000Y-126450000D01*
X132100000Y-126450000D02*
X132100000Y-125750000D01*
%TO.N,/IO/D_PINIO0*%
X146600000Y-89850000D02*
X147100000Y-90350000D01*
D58*
X145950000Y-88575000D02*
X145950000Y-89600000D01*
D57*
X146300000Y-89850000D02*
X146600000Y-89850000D01*
X135637500Y-73512500D02*
X135637500Y-75300000D01*
D58*
X145950000Y-89600000D02*
X146200000Y-89850000D01*
D57*
X135800000Y-73350000D02*
X135637500Y-73512500D01*
D58*
X146200000Y-89850000D02*
X146300000Y-89850000D01*
%TO.N,/IO/D_PINIO1*%
X145450000Y-89900000D02*
X145500000Y-89950000D01*
D57*
X145800000Y-90250000D02*
X145800000Y-90650000D01*
D58*
X145450000Y-88575000D02*
X145450000Y-89900000D01*
D57*
X134400000Y-73350000D02*
X134400000Y-75287500D01*
X145500000Y-89950000D02*
X145800000Y-90250000D01*
X134400000Y-75287500D02*
X134387500Y-75300000D01*
%TO.N,/Power/P_VBAT*%
X128700000Y-113350000D02*
X127462500Y-113350000D01*
X127462500Y-113350000D02*
X127450000Y-113362500D01*
X129400000Y-110250000D02*
X129400000Y-112650000D01*
X129700000Y-109950000D02*
X129400000Y-110250000D01*
X129700000Y-108812500D02*
X129700000Y-109950000D01*
X129400000Y-112650000D02*
X128700000Y-113350000D01*
%TO.N,/MCU/D_CAN2TX*%
X156705000Y-119045000D02*
X156705000Y-120375000D01*
X154700000Y-112550000D02*
X157000000Y-114850000D01*
X154700000Y-101812500D02*
X154700000Y-112550000D01*
X157000000Y-114850000D02*
X157000000Y-118750000D01*
X157000000Y-118750000D02*
X156705000Y-119045000D01*
%TO.N,/Peripherals/CAN & LEDs/CAN-*%
X150893503Y-123550000D02*
X153700000Y-123550000D01*
X153449999Y-127300001D02*
X154165000Y-126585000D01*
X154165000Y-125325000D02*
X154165000Y-124015000D01*
X147525000Y-126918503D02*
X147525000Y-130150000D01*
X153449999Y-128050000D02*
X153449999Y-127300001D01*
X154165000Y-126585000D02*
X154165000Y-125325000D01*
X148608839Y-125834664D02*
X150893503Y-123550000D01*
X154165000Y-124015000D02*
X153700000Y-123550000D01*
X148608839Y-125834664D02*
X147525000Y-126918503D01*
%TO.N,/Peripherals/CAN & LEDs/CAN+*%
X146275000Y-125481497D02*
X146275000Y-130150000D01*
X155435000Y-125325000D02*
X155435000Y-123285000D01*
X154400000Y-122250000D02*
X149506497Y-122250000D01*
X155435000Y-125325000D02*
X155435000Y-126715000D01*
X155435000Y-126715000D02*
X155050000Y-127100000D01*
X155050000Y-127100000D02*
X155050000Y-129050000D01*
X147265336Y-124491161D02*
X146275000Y-125481497D01*
X154935000Y-130509999D02*
X154900000Y-130474999D01*
X155435000Y-123285000D02*
X154400000Y-122250000D01*
X154375001Y-129724999D02*
X154375001Y-130650000D01*
X149506497Y-122250000D02*
X147265336Y-124491161D01*
X155050000Y-129050000D02*
X154375001Y-129724999D01*
%TO.N,Net-(U601-Rs)*%
X158037500Y-125325000D02*
X156705000Y-125325000D01*
X158800000Y-124562500D02*
X158037500Y-125325000D01*
%TO.N,/MCU/SPI1_SCK*%
X145200000Y-108550000D02*
X145800000Y-109150000D01*
D58*
X145800000Y-112550000D02*
X145800000Y-113237500D01*
D57*
X145200000Y-104612500D02*
X145200000Y-108550000D01*
X145800000Y-109150000D02*
X145800000Y-112550000D01*
%TO.N,/MCU/SPI1_MOSI*%
X148100000Y-109250000D02*
X147300000Y-110050000D01*
X145300000Y-112050000D02*
X144300000Y-111050000D01*
X147400000Y-104612500D02*
X147400000Y-106650000D01*
D58*
X145300000Y-112500000D02*
X145300000Y-113237500D01*
D57*
X148100000Y-107350000D02*
X148100000Y-109250000D01*
X147400000Y-106650000D02*
X148100000Y-107350000D01*
X145300000Y-112500000D02*
X145300000Y-112050000D01*
X144300000Y-111050000D02*
X144300000Y-110050000D01*
%TO.N,/Peripherals/CAN & LEDs/D_R_LED0*%
X160900000Y-133337500D02*
X158967500Y-133337500D01*
X158967500Y-133337500D02*
X158900000Y-133270000D01*
%TO.N,/MCU/D_LED0*%
X143550000Y-93550000D02*
X142600000Y-94500000D01*
X144900000Y-93600000D02*
X144850000Y-93550000D01*
X144850000Y-93550000D02*
X143550000Y-93550000D01*
X142600000Y-94500000D02*
X141850000Y-94500000D01*
X158900000Y-131520000D02*
X158900000Y-129850000D01*
D58*
X140025000Y-94500000D02*
X141850000Y-94500000D01*
%TO.N,/MCU/D_BOOT0*%
D57*
X130400000Y-81300000D02*
X134037500Y-81300000D01*
D58*
X143950000Y-88575000D02*
X143950000Y-89600000D01*
D57*
X144400000Y-90050000D02*
X144650000Y-90050000D01*
X138000000Y-83350000D02*
X136012500Y-81362500D01*
X134037500Y-81300000D02*
X134100000Y-81362500D01*
X134100000Y-81362500D02*
X136012500Y-81362500D01*
X144200000Y-89850000D02*
X144400000Y-90050000D01*
D58*
X143950000Y-89600000D02*
X144200000Y-89850000D01*
D57*
X134162500Y-81300000D02*
X134100000Y-81362500D01*
%TO.N,/MCU/D_OSC_IN*%
X138600000Y-92150000D02*
X138900000Y-92450000D01*
X134400000Y-92150000D02*
X138600000Y-92150000D01*
X130950000Y-90287500D02*
X131050000Y-90187500D01*
X132850000Y-90600000D02*
X134400000Y-92150000D01*
X130950000Y-90287500D02*
X131262500Y-90600000D01*
X127600000Y-90050000D02*
X130712500Y-90050000D01*
X131262500Y-90600000D02*
X132850000Y-90600000D01*
X130712500Y-90050000D02*
X130950000Y-90287500D01*
X127250000Y-91350000D02*
X127250000Y-90400000D01*
X127250000Y-90400000D02*
X127600000Y-90050000D01*
D58*
X138950000Y-92500000D02*
X138900000Y-92450000D01*
X140025000Y-92500000D02*
X138950000Y-92500000D01*
%TO.N,/MCU/D_OSC_OUTR*%
D57*
X128950000Y-95537500D02*
X128962500Y-95550000D01*
X131062500Y-95550000D02*
X131100000Y-95512500D01*
X128962500Y-95550000D02*
X130912500Y-95550000D01*
X128950000Y-93550000D02*
X128950000Y-95537500D01*
X130912500Y-95550000D02*
X130950000Y-95512500D01*
%TO.N,/MCU/D_OSC_OUT*%
X133600000Y-92950000D02*
X132762500Y-93787500D01*
D58*
X138850000Y-93000000D02*
X138800000Y-92950000D01*
X140025000Y-93000000D02*
X138850000Y-93000000D01*
D57*
X132762500Y-93787500D02*
X130950000Y-93787500D01*
X138800000Y-92950000D02*
X133600000Y-92950000D01*
%TO.N,/IO/D_ADC1_CH10*%
D58*
X140025000Y-94000000D02*
X141050000Y-94000000D01*
D57*
X141500000Y-90150000D02*
X141500000Y-90750000D01*
X142400000Y-93150000D02*
X141550000Y-94000000D01*
X142400000Y-91650000D02*
X142400000Y-93150000D01*
X141500000Y-90750000D02*
X142400000Y-91650000D01*
X141550000Y-94000000D02*
X141050000Y-94000000D01*
%TO.N,/IO/D_TIM2_CH1*%
X147500000Y-94550000D02*
X147500000Y-94450000D01*
X145900000Y-94150000D02*
X147100000Y-94150000D01*
X142100000Y-96250000D02*
X143400000Y-94950000D01*
D58*
X140950000Y-97000000D02*
X140025000Y-97000000D01*
D57*
X141700000Y-96250000D02*
X142100000Y-96250000D01*
X147100000Y-94150000D02*
X147500000Y-94550000D01*
X145100000Y-94950000D02*
X145900000Y-94150000D01*
X143400000Y-94950000D02*
X145100000Y-94950000D01*
X141150000Y-96800000D02*
X141700000Y-96250000D01*
D58*
X141150000Y-96800000D02*
X140950000Y-97000000D01*
%TO.N,/IO/D_TIM5_CH1*%
D57*
X143600000Y-95850000D02*
X142500000Y-96950000D01*
X141700000Y-96950000D02*
X141500000Y-97150000D01*
X142500000Y-96950000D02*
X141700000Y-96950000D01*
D58*
X141150000Y-97500000D02*
X141500000Y-97150000D01*
D57*
X146900000Y-95750000D02*
X146800000Y-95850000D01*
D58*
X140025000Y-97500000D02*
X141150000Y-97500000D01*
D57*
X146800000Y-95850000D02*
X143600000Y-95850000D01*
%TO.N,/IO/D_USART2_RX*%
X126200000Y-103650000D02*
X126250000Y-103650000D01*
X139200000Y-100950000D02*
X140925000Y-100950000D01*
X133600000Y-100350000D02*
X138600000Y-100350000D01*
X126250000Y-103650000D02*
X126250000Y-103000000D01*
X127400000Y-101850000D02*
X132100000Y-101850000D01*
X138600000Y-100350000D02*
X139200000Y-100950000D01*
X132100000Y-101850000D02*
X133600000Y-100350000D01*
X140925000Y-100950000D02*
X141950000Y-99925000D01*
X126250000Y-103000000D02*
X127400000Y-101850000D01*
%TO.N,/MCU/SPI1_SCKR*%
D58*
X143950000Y-101300000D02*
X144000000Y-101350000D01*
D57*
X144000000Y-101350000D02*
X144300000Y-101650000D01*
X144300000Y-101650000D02*
X144300000Y-101950000D01*
X145137500Y-102887500D02*
X145200000Y-102887500D01*
X145200000Y-102850000D02*
X145200000Y-102887500D01*
D58*
X143950000Y-99925000D02*
X143950000Y-101300000D01*
D57*
X144300000Y-101950000D02*
X145200000Y-102850000D01*
%TO.N,/MCU/SPI1_MISO*%
D58*
X144450000Y-99925000D02*
X144450000Y-101100000D01*
X144450000Y-101100000D02*
X144800000Y-101450000D01*
D57*
X146100000Y-101850000D02*
X146300000Y-102050000D01*
X144800000Y-101450000D02*
X145200000Y-101850000D01*
X143250000Y-107700000D02*
X142600000Y-108350000D01*
X146300000Y-102050000D02*
X146300000Y-107450000D01*
X142600000Y-108350000D02*
X142600000Y-111487500D01*
X145200000Y-101850000D02*
X146100000Y-101850000D01*
%TO.N,/MCU/SPI1_MOSIR*%
X145400000Y-101250000D02*
X146900000Y-101250000D01*
X145300000Y-101150000D02*
X145400000Y-101250000D01*
X147400000Y-101750000D02*
X147400000Y-102887500D01*
D58*
X144950000Y-99925000D02*
X144950000Y-100800000D01*
D57*
X146900000Y-101250000D02*
X147400000Y-101750000D01*
D58*
X144950000Y-100800000D02*
X145300000Y-101150000D01*
%TO.N,/MCU/SPI1_CS*%
D57*
X148700000Y-110250000D02*
X148700000Y-111437500D01*
D58*
X146300000Y-113237500D02*
X146300000Y-112800000D01*
D57*
X144900000Y-98400000D02*
X145050000Y-98400000D01*
X145050000Y-98400000D02*
X145400000Y-98750000D01*
D58*
X145450000Y-99925000D02*
X145450000Y-99000000D01*
D57*
X145400000Y-98750000D02*
X145400000Y-98950000D01*
X148700000Y-111437500D02*
X147662500Y-111437500D01*
D58*
X146300000Y-112800000D02*
X146500000Y-112600000D01*
D57*
X147662500Y-111437500D02*
X146500000Y-112600000D01*
%TO.N,/MCU/D_BOOT1*%
D58*
X147450000Y-98900000D02*
X147400000Y-98850000D01*
D57*
X146900000Y-98350000D02*
X146600000Y-98350000D01*
X147400000Y-98850000D02*
X146900000Y-98350000D01*
D58*
X147450000Y-99925000D02*
X147450000Y-98900000D01*
%TO.N,/MCU/P_VCAP1*%
X148950000Y-100900000D02*
X148800000Y-101050000D01*
D61*
X148700000Y-101250000D02*
X148700000Y-104187500D01*
D57*
X148800000Y-101050000D02*
X148700000Y-101150000D01*
X148700000Y-101150000D02*
X148700000Y-101250000D01*
D58*
X148950000Y-99925000D02*
X148950000Y-100900000D01*
D61*
X148700000Y-104187500D02*
X149362500Y-104850000D01*
X149362500Y-104850000D02*
X149362500Y-105050000D01*
%TO.N,/MCU/D_CAN2TXR*%
D57*
X152900000Y-97850000D02*
X152900000Y-98650000D01*
X152600000Y-97550000D02*
X152900000Y-97850000D01*
D58*
X152550000Y-97500000D02*
X152600000Y-97550000D01*
D57*
X152900000Y-98650000D02*
X154337500Y-100087500D01*
D58*
X151375000Y-97500000D02*
X152550000Y-97500000D01*
D57*
X154337500Y-100087500D02*
X154700000Y-100087500D01*
%TO.N,/IO/D_TIM12_CH1*%
X158400000Y-119250000D02*
X160600000Y-121450000D01*
X150200000Y-96950000D02*
X150000000Y-96750000D01*
D58*
X151375000Y-97000000D02*
X150250000Y-97000000D01*
D57*
X156400000Y-103050000D02*
X156600000Y-103250000D01*
D58*
X150250000Y-97000000D02*
X150200000Y-96950000D01*
D57*
X150000000Y-96750000D02*
X149600000Y-96750000D01*
X156600000Y-103250000D02*
X156600000Y-111650000D01*
X156600000Y-111650000D02*
X158400000Y-113450000D01*
X158400000Y-113450000D02*
X158400000Y-119250000D01*
%TO.N,/IO/D_TIM12_CH2*%
X154200000Y-97550000D02*
X154700000Y-98050000D01*
X157800000Y-108250000D02*
X157800000Y-109550000D01*
D58*
X152450000Y-96500000D02*
X151375000Y-96500000D01*
D57*
X160600000Y-118550000D02*
X161200000Y-118550000D01*
D58*
X152550000Y-96600000D02*
X152450000Y-96500000D01*
D57*
X159700000Y-111450000D02*
X159700000Y-117650000D01*
X157800000Y-109550000D02*
X159700000Y-111450000D01*
X153500000Y-97550000D02*
X154200000Y-97550000D01*
X152550000Y-96600000D02*
X153500000Y-97550000D01*
X159700000Y-117650000D02*
X160600000Y-118550000D01*
%TO.N,/IO/D_TIM8_CH1*%
X157800000Y-106150000D02*
X157800000Y-99150000D01*
X161400000Y-109750000D02*
X157800000Y-106150000D01*
X155500000Y-96850000D02*
X153750000Y-96850000D01*
X153750000Y-96850000D02*
X152900000Y-96000000D01*
X157800000Y-99150000D02*
X155500000Y-96850000D01*
X161400000Y-112950000D02*
X161400000Y-109750000D01*
X152900000Y-96000000D02*
X152550000Y-96000000D01*
X161450000Y-113000000D02*
X161400000Y-112950000D01*
D58*
X152550000Y-96000000D02*
X151375000Y-96000000D01*
%TO.N,/IO/D_TIM8_CH2*%
X151375000Y-95500000D02*
X150350000Y-95500000D01*
D57*
X150300000Y-95450000D02*
X149600000Y-95450000D01*
D58*
X149850000Y-95500000D02*
X149800000Y-95450000D01*
X150350000Y-95500000D02*
X150300000Y-95450000D01*
%TO.N,/IO/D_TIM3_CH3*%
D57*
X159200000Y-104750000D02*
X159200000Y-98750000D01*
X159200000Y-98750000D02*
X156500000Y-96050000D01*
D58*
X152500000Y-95000000D02*
X151375000Y-95000000D01*
D57*
X161300000Y-107350000D02*
X161300000Y-106850000D01*
X161300000Y-106850000D02*
X159200000Y-104750000D01*
X161350000Y-107400000D02*
X161300000Y-107350000D01*
X152700000Y-95200000D02*
X152575000Y-95075000D01*
D58*
X152575000Y-95075000D02*
X152500000Y-95000000D01*
D57*
X156500000Y-96050000D02*
X153900000Y-96050000D01*
X153900000Y-96050000D02*
X153050000Y-95200000D01*
X153050000Y-95200000D02*
X152700000Y-95200000D01*
%TO.N,/IO/D_TIM3_CH4*%
X153400000Y-94550000D02*
X154000000Y-95150000D01*
D58*
X151425000Y-94550000D02*
X151375000Y-94500000D01*
D57*
X154000000Y-95150000D02*
X157400000Y-95150000D01*
X157400000Y-95150000D02*
X160500000Y-98250000D01*
X152500000Y-94550000D02*
X153400000Y-94550000D01*
X160500000Y-98250000D02*
X160500000Y-103977500D01*
D58*
X152500000Y-94550000D02*
X151425000Y-94550000D01*
D57*
X160500000Y-103977500D02*
X161080000Y-104557500D01*
%TO.N,/IO/D_TIM1_CH1*%
X161700000Y-97650000D02*
X158400000Y-94350000D01*
D58*
X152550000Y-94000000D02*
X151375000Y-94000000D01*
D57*
X161700000Y-101757500D02*
X161700000Y-97650000D01*
X154400000Y-94350000D02*
X154050000Y-94000000D01*
X154050000Y-94000000D02*
X152450000Y-94000000D01*
X158400000Y-94350000D02*
X154400000Y-94350000D01*
%TO.N,/IO/D_TIM1_CH2*%
D58*
X152400000Y-93500000D02*
X151375000Y-93500000D01*
D57*
X152700000Y-93350000D02*
X152550000Y-93500000D01*
X159200000Y-93350000D02*
X152700000Y-93350000D01*
X152550000Y-93500000D02*
X152400000Y-93500000D01*
%TO.N,/MCU/D_SWDIO*%
X150400000Y-91500000D02*
X149900000Y-91500000D01*
D58*
X151375000Y-91500000D02*
X150400000Y-91500000D01*
D57*
X149900000Y-91500000D02*
X149500000Y-91100000D01*
%TO.N,/MCU/P_VCAP2*%
D58*
X151425000Y-90950000D02*
X152400000Y-90950000D01*
X151375000Y-91000000D02*
X151425000Y-90950000D01*
D61*
X154000000Y-90950000D02*
X152900000Y-90950000D01*
X154766377Y-90183623D02*
X154000000Y-90950000D01*
D57*
X152400000Y-90950000D02*
X152900000Y-90950000D01*
%TO.N,/MCU/D_SWCLK*%
X150700000Y-89200000D02*
X150700000Y-89650000D01*
X149450000Y-88575000D02*
X150075000Y-88575000D01*
X150075000Y-88575000D02*
X150700000Y-89200000D01*
%TO.N,/MCU/D_PC10*%
X148900000Y-86950000D02*
X149800000Y-86950000D01*
X148450000Y-87400000D02*
X148900000Y-86950000D01*
X149800000Y-86950000D02*
X150390120Y-86359880D01*
X148450000Y-87450000D02*
X148450000Y-87400000D01*
D58*
X148450000Y-87450000D02*
X148450000Y-88575000D01*
%TO.N,/MCU/D_PC12*%
D57*
X147450000Y-87450000D02*
X147450000Y-85200000D01*
D58*
X147450000Y-87450000D02*
X147450000Y-88575000D01*
D57*
X147450000Y-85200000D02*
X148490120Y-84159880D01*
%TO.N,/IO/D_USART5_RX*%
X146950000Y-87500000D02*
X146950000Y-87400000D01*
X146700000Y-83950000D02*
X150000000Y-80650000D01*
X150000000Y-80650000D02*
X150000000Y-77150000D01*
D58*
X146950000Y-87500000D02*
X146950000Y-88575000D01*
D57*
X146950000Y-87400000D02*
X146700000Y-87150000D01*
X146700000Y-87150000D02*
X146700000Y-83950000D01*
X150000000Y-77150000D02*
X150425000Y-76725000D01*
X150425000Y-76725000D02*
X150425000Y-75350000D01*
%TO.N,/IO/D_I2C1_SCL*%
X149175000Y-73625000D02*
X149175000Y-75350000D01*
X148800000Y-77150000D02*
X149175000Y-76775000D01*
X148800000Y-79850000D02*
X148800000Y-80250000D01*
X148800000Y-79850000D02*
X148800000Y-77150000D01*
X149175000Y-76775000D02*
X149175000Y-75350000D01*
X145700000Y-86750000D02*
X144950000Y-87500000D01*
D58*
X144950000Y-87500000D02*
X144950000Y-88575000D01*
D57*
X147500000Y-71950000D02*
X149175000Y-73625000D01*
X148800000Y-80250000D02*
X145700000Y-83350000D01*
X145700000Y-83350000D02*
X145700000Y-86750000D01*
X147000000Y-71950000D02*
X147500000Y-71950000D01*
%TO.N,/IO/D_I2C1_SDA*%
X147925000Y-74375000D02*
X147100000Y-73550000D01*
X144450000Y-86800000D02*
X144600000Y-86650000D01*
X144600000Y-86650000D02*
X144600000Y-82750000D01*
X144600000Y-82750000D02*
X146512500Y-80837500D01*
X146512500Y-78550000D02*
X146512500Y-80450000D01*
X147925000Y-76725000D02*
X146512500Y-78137500D01*
D58*
X144450000Y-87500000D02*
X144450000Y-88575000D01*
D57*
X146512500Y-78137500D02*
X146512500Y-78550000D01*
X147925000Y-75350000D02*
X147925000Y-74375000D01*
X146512500Y-80837500D02*
X146512500Y-80450000D01*
X147925000Y-75350000D02*
X147925000Y-76725000D01*
X144450000Y-87500000D02*
X144450000Y-86800000D01*
%TO.N,/IO/D_TIM4_CH3*%
X147200000Y-92150000D02*
X148950000Y-92150000D01*
X143450000Y-89550000D02*
X143450000Y-90150000D01*
X148950000Y-92150000D02*
X149250000Y-92450000D01*
X145000000Y-91700000D02*
X146750000Y-91700000D01*
X143450000Y-90150000D02*
X145000000Y-91700000D01*
D58*
X143450000Y-88575000D02*
X143450000Y-89550000D01*
D57*
X146750000Y-91700000D02*
X147200000Y-92150000D01*
%TO.N,/IO/D_TIM4_CH4*%
X142600000Y-90675000D02*
X142600000Y-89900000D01*
D58*
X142950000Y-89550000D02*
X142950000Y-88575000D01*
D57*
X145900000Y-92550000D02*
X144475000Y-92550000D01*
X148100000Y-93250000D02*
X147900000Y-93050000D01*
X142600000Y-89900000D02*
X142950000Y-89550000D01*
X144475000Y-92550000D02*
X142600000Y-90675000D01*
X146400000Y-93050000D02*
X145900000Y-92550000D01*
X147900000Y-93050000D02*
X146400000Y-93050000D01*
%TO.N,/MCU/D_BOOT0R*%
X130250000Y-79725000D02*
X130400000Y-79575000D01*
X128400000Y-79725000D02*
X124300000Y-79725000D01*
X128400000Y-79725000D02*
X130250000Y-79725000D01*
%TO.N,/Peripherals/CAN & LEDs/CAN+R*%
X156550001Y-129924998D02*
X155824999Y-130650000D01*
X156550001Y-128050000D02*
X156550001Y-129924998D01*
%TO.N,/IO/D_USART5_TX*%
X151400000Y-77050000D02*
X151675000Y-76775000D01*
X151400000Y-81250000D02*
X151400000Y-77050000D01*
X151675000Y-76775000D02*
X151675000Y-75350000D01*
X149709880Y-82940120D02*
X151400000Y-81250000D01*
%TO.N,/Peripherals/IMUs/SPI1_MISOR*%
D58*
X144100000Y-113350000D02*
X144587500Y-113350000D01*
D57*
X144100000Y-113350000D02*
X142737500Y-113350000D01*
%TO.N,/MCU/D_NRSTR*%
X124350000Y-84550000D02*
X128450000Y-84550000D01*
X130337500Y-84550000D02*
X130400000Y-84487500D01*
X128450000Y-84550000D02*
X130337500Y-84550000D01*
%TO.N,Net-(D202-A)*%
X131937500Y-132862500D02*
X131900000Y-132825000D01*
X134350000Y-132862500D02*
X131937500Y-132862500D01*
%TD*%
%TA.AperFunction,Conductor*%
%TO.N,GND*%
G36*
X134304191Y-125318907D02*
G01*
X134340155Y-125368407D01*
X134345000Y-125399000D01*
X134345000Y-125836055D01*
X134336565Y-125876042D01*
X134314853Y-125925214D01*
X134312000Y-125949810D01*
X134312000Y-126250180D01*
X134312000Y-126250182D01*
X134312001Y-126250184D01*
X134314854Y-126274786D01*
X134332483Y-126314712D01*
X134336565Y-126323956D01*
X134345000Y-126363944D01*
X134345000Y-126486055D01*
X134336565Y-126526042D01*
X134314853Y-126575214D01*
X134312000Y-126599810D01*
X134312000Y-126900180D01*
X134312000Y-126900182D01*
X134312001Y-126900184D01*
X134314854Y-126924786D01*
X134336565Y-126973956D01*
X134345000Y-127013944D01*
X134345000Y-127245000D01*
X134800000Y-127700000D01*
X135203992Y-127700000D01*
X135262183Y-127718907D01*
X135273996Y-127728996D01*
X135516004Y-127971004D01*
X135543781Y-128025521D01*
X135545000Y-128041008D01*
X135545000Y-129058992D01*
X135526093Y-129117183D01*
X135516004Y-129128996D01*
X135373996Y-129271004D01*
X135319479Y-129298781D01*
X135303992Y-129300000D01*
X134086008Y-129300000D01*
X134027817Y-129281093D01*
X134016004Y-129271004D01*
X133873996Y-129128996D01*
X133846219Y-129074479D01*
X133845000Y-129058992D01*
X133845000Y-127600000D01*
X133323996Y-127078996D01*
X133296219Y-127024479D01*
X133295000Y-127008992D01*
X133295000Y-126979971D01*
X133303436Y-126939983D01*
X133304040Y-126938613D01*
X133310146Y-126924786D01*
X133313000Y-126900185D01*
X133312999Y-126599816D01*
X133310146Y-126575214D01*
X133303434Y-126560012D01*
X133295000Y-126520026D01*
X133295000Y-126329971D01*
X133303436Y-126289983D01*
X133304040Y-126288613D01*
X133310146Y-126274786D01*
X133313000Y-126250185D01*
X133312999Y-125949816D01*
X133310146Y-125925214D01*
X133303434Y-125910012D01*
X133295000Y-125870026D01*
X133295000Y-125679971D01*
X133303436Y-125639983D01*
X133304040Y-125638613D01*
X133310146Y-125624786D01*
X133313000Y-125600185D01*
X133312999Y-125398998D01*
X133331906Y-125340810D01*
X133381406Y-125304846D01*
X133411999Y-125300000D01*
X134246000Y-125300000D01*
X134304191Y-125318907D01*
G37*
%TD.AperFunction*%
%TD*%
%TA.AperFunction,Conductor*%
%TO.N,GND*%
G36*
X151317183Y-131867849D02*
G01*
X151328996Y-131877938D01*
X151471004Y-132019946D01*
X151498781Y-132074463D01*
X151500000Y-132089950D01*
X151500000Y-134507934D01*
X151481093Y-134566125D01*
X151471004Y-134577938D01*
X151278996Y-134769946D01*
X151224479Y-134797723D01*
X151208992Y-134798942D01*
X149391008Y-134798942D01*
X149332817Y-134780035D01*
X149321004Y-134769946D01*
X149128996Y-134577938D01*
X149101219Y-134523421D01*
X149100000Y-134507934D01*
X149100000Y-132089950D01*
X149118907Y-132031759D01*
X149128996Y-132019946D01*
X149271004Y-131877938D01*
X149325521Y-131850161D01*
X149341008Y-131848942D01*
X151258992Y-131848942D01*
X151317183Y-131867849D01*
G37*
%TD.AperFunction*%
%TD*%
%TA.AperFunction,Conductor*%
%TO.N,+3V3*%
G36*
X140018903Y-126054845D02*
G01*
X140019876Y-126055161D01*
X140042129Y-126062391D01*
X140081542Y-126086542D01*
X140305862Y-126310862D01*
X140324068Y-126335922D01*
X140335139Y-126357651D01*
X140345929Y-126402737D01*
X140343928Y-127794601D01*
X140339038Y-127825188D01*
X140331449Y-127848430D01*
X140307316Y-127887731D01*
X140186108Y-128008847D01*
X140161041Y-128027045D01*
X140139256Y-128038134D01*
X140094392Y-128048906D01*
X136057763Y-128050786D01*
X136027169Y-128045955D01*
X136003944Y-128038421D01*
X135964501Y-128014268D01*
X135775355Y-127825188D01*
X135340095Y-127390080D01*
X135321886Y-127365025D01*
X135310797Y-127343269D01*
X135300000Y-127298312D01*
X135300000Y-127150001D01*
X135300000Y-127150000D01*
X135200000Y-127050000D01*
X135199999Y-127050000D01*
X134642923Y-127050000D01*
X134584732Y-127031093D01*
X134548768Y-126981593D01*
X134546055Y-126971434D01*
X134543671Y-126960135D01*
X134537640Y-126931542D01*
X134524555Y-126890949D01*
X134523979Y-126889437D01*
X134523861Y-126888798D01*
X134523765Y-126888499D01*
X134523804Y-126888486D01*
X134517500Y-126854210D01*
X134517500Y-126645787D01*
X134523806Y-126611513D01*
X134523765Y-126611500D01*
X134523867Y-126611181D01*
X134523985Y-126610544D01*
X134524549Y-126609062D01*
X134524555Y-126609049D01*
X134537424Y-126569125D01*
X134573273Y-126519542D01*
X134631419Y-126500499D01*
X134837681Y-126500499D01*
X134837684Y-126500499D01*
X134862286Y-126497646D01*
X134941646Y-126462604D01*
X134961199Y-126456302D01*
X134980977Y-126452131D01*
X135001406Y-126450000D01*
X135300000Y-126450000D01*
X135485502Y-126264497D01*
X135659921Y-126090079D01*
X135684974Y-126071878D01*
X135696814Y-126065844D01*
X135741316Y-126055056D01*
X136876004Y-126050001D01*
X136876445Y-126050000D01*
X139988312Y-126050000D01*
X140018903Y-126054845D01*
G37*
%TD.AperFunction*%
%TD*%
%TA.AperFunction,Conductor*%
%TO.N,GND*%
G36*
X166117183Y-70717849D02*
G01*
X166128996Y-70727938D01*
X166271004Y-70869946D01*
X166298781Y-70924463D01*
X166300000Y-70939950D01*
X166300000Y-73357934D01*
X166281093Y-73416125D01*
X166271004Y-73427938D01*
X166078996Y-73619946D01*
X166024479Y-73647723D01*
X166008992Y-73648942D01*
X164191008Y-73648942D01*
X164132817Y-73630035D01*
X164121004Y-73619946D01*
X163928996Y-73427938D01*
X163901219Y-73373421D01*
X163900000Y-73357934D01*
X163900000Y-70939950D01*
X163918907Y-70881759D01*
X163928996Y-70869946D01*
X164071004Y-70727938D01*
X164125521Y-70700161D01*
X164141008Y-70698942D01*
X166058992Y-70698942D01*
X166117183Y-70717849D01*
G37*
%TD.AperFunction*%
%TD*%
%TA.AperFunction,Conductor*%
%TO.N,GND*%
G36*
X144517183Y-131867849D02*
G01*
X144528996Y-131877938D01*
X144671004Y-132019946D01*
X144698781Y-132074463D01*
X144700000Y-132089950D01*
X144700000Y-134507934D01*
X144681093Y-134566125D01*
X144671004Y-134577938D01*
X144478996Y-134769946D01*
X144424479Y-134797723D01*
X144408992Y-134798942D01*
X142591008Y-134798942D01*
X142532817Y-134780035D01*
X142521004Y-134769946D01*
X142328996Y-134577938D01*
X142301219Y-134523421D01*
X142300000Y-134507934D01*
X142300000Y-132089950D01*
X142318907Y-132031759D01*
X142328996Y-132019946D01*
X142471004Y-131877938D01*
X142525521Y-131850161D01*
X142541008Y-131848942D01*
X144458992Y-131848942D01*
X144517183Y-131867849D01*
G37*
%TD.AperFunction*%
%TD*%
%TA.AperFunction,Conductor*%
%TO.N,GND*%
G36*
X131937492Y-70682982D02*
G01*
X131949305Y-70693071D01*
X132091313Y-70835079D01*
X132119090Y-70889596D01*
X132120309Y-70905083D01*
X132120309Y-73323067D01*
X132101402Y-73381258D01*
X132091313Y-73393071D01*
X131949305Y-73535079D01*
X131894788Y-73562856D01*
X131879301Y-73564075D01*
X129961317Y-73564075D01*
X129903126Y-73545168D01*
X129891313Y-73535079D01*
X129749305Y-73393071D01*
X129721528Y-73338554D01*
X129720309Y-73323067D01*
X129720309Y-70905083D01*
X129739216Y-70846892D01*
X129749305Y-70835079D01*
X129891313Y-70693071D01*
X129945830Y-70665294D01*
X129961317Y-70664075D01*
X131879301Y-70664075D01*
X131937492Y-70682982D01*
G37*
%TD.AperFunction*%
%TD*%
%TA.AperFunction,Conductor*%
%TO.N,GND*%
G36*
X140217683Y-70669407D02*
G01*
X140229496Y-70679496D01*
X140371004Y-70821004D01*
X140398781Y-70875521D01*
X140400000Y-70891008D01*
X140400000Y-73308992D01*
X140381093Y-73367183D01*
X140371004Y-73378996D01*
X140228996Y-73521004D01*
X140174479Y-73548781D01*
X140158992Y-73550000D01*
X138241008Y-73550000D01*
X138182817Y-73531093D01*
X138171004Y-73521004D01*
X138028996Y-73378996D01*
X138001219Y-73324479D01*
X138000000Y-73308992D01*
X138000000Y-70891008D01*
X138018907Y-70832817D01*
X138028996Y-70821004D01*
X138170504Y-70679496D01*
X138225021Y-70651719D01*
X138240508Y-70650500D01*
X140159492Y-70650500D01*
X140217683Y-70669407D01*
G37*
%TD.AperFunction*%
%TD*%
%TA.AperFunction,Conductor*%
%TO.N,/IO/P_LDOIN*%
G36*
X132664672Y-126458763D02*
G01*
X132691883Y-126466370D01*
X132762714Y-126497646D01*
X132787315Y-126500500D01*
X132997318Y-126500499D01*
X133027894Y-126505339D01*
X133031377Y-126506470D01*
X133080883Y-126542425D01*
X133097669Y-126580195D01*
X133102358Y-126602424D01*
X133102722Y-126603555D01*
X133102814Y-126604139D01*
X133103023Y-126604924D01*
X133102941Y-126604945D01*
X133107499Y-126633934D01*
X133107499Y-126866064D01*
X133102947Y-126895056D01*
X133103023Y-126895077D01*
X133102829Y-126895804D01*
X133102736Y-126896402D01*
X133102364Y-126897555D01*
X133093925Y-126937554D01*
X133089500Y-126979957D01*
X133089500Y-126979971D01*
X133089500Y-127008992D01*
X133089943Y-127020279D01*
X133090134Y-127025123D01*
X133091353Y-127040602D01*
X133091354Y-127040607D01*
X133113115Y-127117769D01*
X133113117Y-127117775D01*
X133140894Y-127172291D01*
X133180972Y-127227453D01*
X133179230Y-127228718D01*
X133199681Y-127277842D01*
X133200000Y-127285784D01*
X133200000Y-127450000D01*
X133610505Y-127860505D01*
X133638281Y-127915020D01*
X133639500Y-127930507D01*
X133639500Y-128969492D01*
X133620593Y-129027683D01*
X133610503Y-129039496D01*
X133440081Y-129209917D01*
X133415025Y-129228121D01*
X133393267Y-129239208D01*
X133348320Y-129250000D01*
X132256688Y-129250000D01*
X132226095Y-129245154D01*
X132202868Y-129237607D01*
X132163458Y-129213457D01*
X132000000Y-129050000D01*
X130756688Y-129050000D01*
X130726095Y-129045154D01*
X130702868Y-129037607D01*
X130663457Y-129013457D01*
X130540082Y-128890082D01*
X130521876Y-128865023D01*
X130510788Y-128843261D01*
X130500000Y-128798319D01*
X130500000Y-128306688D01*
X130504844Y-128276099D01*
X130512391Y-128252868D01*
X130536540Y-128213459D01*
X130659920Y-128090079D01*
X130684972Y-128071878D01*
X130706739Y-128060788D01*
X130751680Y-128050000D01*
X131999999Y-128050000D01*
X132000000Y-128050000D01*
X132500000Y-127550000D01*
X132500000Y-126606688D01*
X132504844Y-126576100D01*
X132506250Y-126571771D01*
X132512391Y-126552868D01*
X132536541Y-126513459D01*
X132557749Y-126492251D01*
X132582798Y-126474050D01*
X132596033Y-126467307D01*
X132653747Y-126457342D01*
X132664672Y-126458763D01*
G37*
%TD.AperFunction*%
%TD*%
%TA.AperFunction,Conductor*%
%TO.N,/Power/P_VIN*%
G36*
X127767183Y-110681407D02*
G01*
X127778996Y-110691496D01*
X127921004Y-110833504D01*
X127948781Y-110888021D01*
X127950000Y-110903508D01*
X127950000Y-112421492D01*
X127931093Y-112479683D01*
X127921004Y-112491496D01*
X127778996Y-112633504D01*
X127724479Y-112661281D01*
X127708992Y-112662500D01*
X126649999Y-112662500D01*
X126478995Y-112833504D01*
X126424479Y-112861281D01*
X126408992Y-112862500D01*
X124191008Y-112862500D01*
X124132817Y-112843593D01*
X124121004Y-112833504D01*
X123878996Y-112591496D01*
X123851219Y-112536979D01*
X123850000Y-112521492D01*
X123850000Y-111903508D01*
X123868907Y-111845317D01*
X123878996Y-111833504D01*
X124121004Y-111591496D01*
X124175521Y-111563719D01*
X124191008Y-111562500D01*
X126749999Y-111562500D01*
X126750000Y-111562500D01*
X126950000Y-111362500D01*
X126950000Y-110903508D01*
X126968907Y-110845317D01*
X126978996Y-110833504D01*
X127121004Y-110691496D01*
X127175521Y-110663719D01*
X127191008Y-110662500D01*
X127708992Y-110662500D01*
X127767183Y-110681407D01*
G37*
%TD.AperFunction*%
%TD*%
%TA.AperFunction,Conductor*%
%TO.N,GND*%
G36*
X157817183Y-70718907D02*
G01*
X157828996Y-70728996D01*
X157971004Y-70871004D01*
X157998781Y-70925521D01*
X158000000Y-70941008D01*
X158000000Y-73408992D01*
X157981093Y-73467183D01*
X157971004Y-73478996D01*
X157828996Y-73621004D01*
X157774479Y-73648781D01*
X157758992Y-73650000D01*
X154441008Y-73650000D01*
X154382817Y-73631093D01*
X154371004Y-73621004D01*
X154028996Y-73278996D01*
X154001219Y-73224479D01*
X154000000Y-73208992D01*
X154000000Y-71091008D01*
X154018907Y-71032817D01*
X154028996Y-71021004D01*
X154321004Y-70728996D01*
X154375521Y-70701219D01*
X154391008Y-70700000D01*
X157758992Y-70700000D01*
X157817183Y-70718907D01*
G37*
%TD.AperFunction*%
%TD*%
%TA.AperFunction,Conductor*%
%TO.N,GND*%
G36*
X145217683Y-70669407D02*
G01*
X145229496Y-70679496D01*
X145471004Y-70921004D01*
X145498781Y-70975521D01*
X145500000Y-70991008D01*
X145500000Y-73308992D01*
X145481093Y-73367183D01*
X145471004Y-73378996D01*
X145278996Y-73571004D01*
X145224479Y-73598781D01*
X145208992Y-73600000D01*
X143291008Y-73600000D01*
X143232817Y-73581093D01*
X143221004Y-73571004D01*
X143028996Y-73378996D01*
X143001219Y-73324479D01*
X143000000Y-73308992D01*
X143000000Y-70991008D01*
X143018907Y-70932817D01*
X143028996Y-70921004D01*
X143270504Y-70679496D01*
X143325021Y-70651719D01*
X143340508Y-70650500D01*
X145159492Y-70650500D01*
X145217683Y-70669407D01*
G37*
%TD.AperFunction*%
%TD*%
%TA.AperFunction,Conductor*%
%TO.N,GND*%
G36*
X155817183Y-86868907D02*
G01*
X155828996Y-86878996D01*
X157371004Y-88421004D01*
X157398781Y-88475521D01*
X157400000Y-88491008D01*
X157400000Y-88808992D01*
X157381093Y-88867183D01*
X157371004Y-88878996D01*
X156428996Y-89821004D01*
X156374479Y-89848781D01*
X156358992Y-89850000D01*
X156041008Y-89850000D01*
X155982817Y-89831093D01*
X155971004Y-89821004D01*
X154528996Y-88378996D01*
X154501219Y-88324479D01*
X154500000Y-88308992D01*
X154500000Y-87791008D01*
X154518907Y-87732817D01*
X154528996Y-87721004D01*
X155371004Y-86878996D01*
X155425521Y-86851219D01*
X155441008Y-86850000D01*
X155758992Y-86850000D01*
X155817183Y-86868907D01*
G37*
%TD.AperFunction*%
%TD*%
%TA.AperFunction,Conductor*%
%TO.N,GND*%
G36*
X140197093Y-124073707D02*
G01*
X140249691Y-124089430D01*
X140332570Y-124142719D01*
X140371291Y-124190094D01*
X140378027Y-124225562D01*
X140383982Y-125600813D01*
X140365327Y-125659085D01*
X140343313Y-125681234D01*
X140165227Y-125811094D01*
X140107338Y-125830101D01*
X135682687Y-125849816D01*
X135624413Y-125831168D01*
X135612248Y-125820826D01*
X135541422Y-125750000D01*
X135541421Y-125750000D01*
X134991077Y-125750000D01*
X134951092Y-125741565D01*
X134862286Y-125702354D01*
X134862283Y-125702353D01*
X134837688Y-125699500D01*
X134562319Y-125699500D01*
X134562316Y-125699501D01*
X134537715Y-125702353D01*
X134530529Y-125704309D01*
X134529952Y-125702189D01*
X134479653Y-125707311D01*
X134430546Y-125680546D01*
X134428996Y-125678996D01*
X134401219Y-125624479D01*
X134400000Y-125608992D01*
X134400000Y-125291008D01*
X134418907Y-125232817D01*
X134428996Y-125221004D01*
X134471004Y-125178996D01*
X134525521Y-125151219D01*
X134541008Y-125150000D01*
X135200000Y-125150000D01*
X135600000Y-124950000D01*
X135600000Y-124691008D01*
X135618907Y-124632817D01*
X135628996Y-124621004D01*
X135871004Y-124378996D01*
X135925521Y-124351219D01*
X135941008Y-124350000D01*
X137399999Y-124350000D01*
X137400000Y-124350000D01*
X137670615Y-124079384D01*
X137725130Y-124051609D01*
X137741550Y-124050394D01*
X140197093Y-124073707D01*
G37*
%TD.AperFunction*%
%TD*%
%TA.AperFunction,Conductor*%
%TO.N,/Power/P_VBAT*%
G36*
X127798012Y-112900687D02*
G01*
X127828594Y-112905584D01*
X127856125Y-112914581D01*
X127885126Y-112929752D01*
X127995946Y-113013657D01*
X128017411Y-113035986D01*
X128029943Y-113053971D01*
X128047716Y-113110222D01*
X128050292Y-113845866D01*
X128045554Y-113876477D01*
X128038891Y-113897230D01*
X128004295Y-113945966D01*
X127888992Y-114033049D01*
X127861663Y-114047619D01*
X127834315Y-114057070D01*
X127801979Y-114062500D01*
X126850000Y-114062500D01*
X126650000Y-114262500D01*
X126650000Y-114262501D01*
X126650000Y-115005811D01*
X126645154Y-115036404D01*
X126637607Y-115059631D01*
X126613457Y-115099042D01*
X126090082Y-115622417D01*
X126065025Y-115640621D01*
X126043267Y-115651708D01*
X125998320Y-115662500D01*
X123515180Y-115662500D01*
X123484587Y-115657654D01*
X123471901Y-115653532D01*
X123422401Y-115617568D01*
X123422394Y-115617558D01*
X123419400Y-115613436D01*
X123400500Y-115555256D01*
X123400500Y-113277178D01*
X123405343Y-113246592D01*
X123409465Y-113233903D01*
X123445423Y-113184404D01*
X123449552Y-113181404D01*
X123507738Y-113162498D01*
X126616808Y-113162482D01*
X126840018Y-112939270D01*
X126865075Y-112921066D01*
X126886801Y-112909996D01*
X126931911Y-112899208D01*
X127798012Y-112900687D01*
G37*
%TD.AperFunction*%
%TD*%
%TA.AperFunction,Conductor*%
%TO.N,GND*%
G36*
X152017183Y-104168907D02*
G01*
X152028996Y-104178996D01*
X152171004Y-104321004D01*
X152198781Y-104375521D01*
X152200000Y-104391008D01*
X152200000Y-105950000D01*
X152371005Y-106121005D01*
X152398781Y-106175520D01*
X152400000Y-106191007D01*
X152400000Y-106808992D01*
X152381093Y-106867183D01*
X152371004Y-106878996D01*
X152328996Y-106921004D01*
X152274479Y-106948781D01*
X152258992Y-106950000D01*
X150841008Y-106950000D01*
X150782817Y-106931093D01*
X150771004Y-106921004D01*
X150728996Y-106878996D01*
X150701219Y-106824479D01*
X150700000Y-106808992D01*
X150700000Y-104391008D01*
X150718907Y-104332817D01*
X150728996Y-104321004D01*
X150871004Y-104178996D01*
X150925521Y-104151219D01*
X150941008Y-104150000D01*
X151958992Y-104150000D01*
X152017183Y-104168907D01*
G37*
%TD.AperFunction*%
%TD*%
%TA.AperFunction,Conductor*%
%TO.N,GND*%
G36*
X126523903Y-116467345D02*
G01*
X126536240Y-116471353D01*
X126547129Y-116474891D01*
X126586542Y-116499042D01*
X126809917Y-116722417D01*
X126828122Y-116747475D01*
X126839209Y-116769234D01*
X126850000Y-116814180D01*
X126850000Y-117362500D01*
X127150000Y-117662500D01*
X127793312Y-117662500D01*
X127823903Y-117667345D01*
X127836240Y-117671353D01*
X127847129Y-117674891D01*
X127886542Y-117699042D01*
X128209917Y-118022417D01*
X128228122Y-118047475D01*
X128239209Y-118069234D01*
X128250000Y-118114180D01*
X128250000Y-119605811D01*
X128245154Y-119636404D01*
X128237607Y-119659631D01*
X128213457Y-119699042D01*
X128090082Y-119822417D01*
X128065025Y-119840621D01*
X128043267Y-119851708D01*
X127998320Y-119862500D01*
X127606688Y-119862500D01*
X127576095Y-119857654D01*
X127552868Y-119850107D01*
X127513457Y-119825957D01*
X127390082Y-119702582D01*
X127371876Y-119677523D01*
X127360788Y-119655761D01*
X127350000Y-119610819D01*
X127350000Y-119162501D01*
X127350000Y-119162500D01*
X127150000Y-118962500D01*
X127149999Y-118962500D01*
X125949998Y-118962500D01*
X125790081Y-119122416D01*
X125765025Y-119140620D01*
X125743265Y-119151708D01*
X125698318Y-119162500D01*
X123515180Y-119162500D01*
X123484587Y-119157654D01*
X123471901Y-119153532D01*
X123422401Y-119117568D01*
X123422394Y-119117558D01*
X123419400Y-119113436D01*
X123400500Y-119055256D01*
X123400500Y-116577180D01*
X123405343Y-116546594D01*
X123409465Y-116533905D01*
X123445423Y-116484406D01*
X123446022Y-116483971D01*
X123449563Y-116481400D01*
X123507743Y-116462500D01*
X126493312Y-116462500D01*
X126523903Y-116467345D01*
G37*
%TD.AperFunction*%
%TD*%
M02*
