%TF.GenerationSoftware,KiCad,Pcbnew,10.0.5*%
%TF.CreationDate,2026-08-18T20:05:55+05:30*%
%TF.ProjectId,FeroFlyF405,4665726f-466c-4794-9634-30352e6b6963,1*%
%TF.SameCoordinates,Original*%
%TF.FileFunction,Soldermask,Bot*%
%TF.FilePolarity,Negative*%
%FSLAX46Y46*%
G04 Gerber Fmt 4.6, Leading zero omitted, Abs format (unit mm)*
G04 Created by KiCad (PCBNEW 10.0.5) date 2026-08-18 20:05:55*
%MOMM*%
%LPD*%
G01*
G04 APERTURE LIST*
G04 Aperture macros list*
%AMRoundRect*
0 Rectangle with rounded corners*
0 $1 Rounding radius*
0 $2 $3 $4 $5 $6 $7 $8 $9 X,Y pos of 4 corners*
0 Add a 4 corners polygon primitive as box body*
4,1,4,$2,$3,$4,$5,$6,$7,$8,$9,$2,$3,0*
0 Add four circle primitives for the rounded corners*
1,1,$1+$1,$2,$3*
1,1,$1+$1,$4,$5*
1,1,$1+$1,$6,$7*
1,1,$1+$1,$8,$9*
0 Add four rect primitives between the rounded corners*
20,1,$1+$1,$2,$3,$4,$5,0*
20,1,$1+$1,$4,$5,$6,$7,0*
20,1,$1+$1,$6,$7,$8,$9,0*
20,1,$1+$1,$8,$9,$2,$3,0*%
G04 Aperture macros list end*
%ADD10R,1.700000X1.700000*%
%ADD11C,1.700000*%
%ADD12C,0.650000*%
%ADD13O,2.304000X1.254000*%
%ADD14O,2.004000X1.104000*%
%ADD15C,3.200000*%
%ADD16RoundRect,0.237500X0.250000X0.237500X-0.250000X0.237500X-0.250000X-0.237500X0.250000X-0.237500X0*%
%ADD17RoundRect,0.250000X0.475000X-0.337500X0.475000X0.337500X-0.475000X0.337500X-0.475000X-0.337500X0*%
%ADD18RoundRect,0.250000X-0.337500X-0.475000X0.337500X-0.475000X0.337500X0.475000X-0.337500X0.475000X0*%
%ADD19RoundRect,0.150000X0.700000X-0.150000X0.700000X0.150000X-0.700000X0.150000X-0.700000X-0.150000X0*%
%ADD20RoundRect,0.250000X1.100000X-0.250000X1.100000X0.250000X-1.100000X0.250000X-1.100000X-0.250000X0*%
%ADD21RoundRect,0.250000X-0.650000X0.412500X-0.650000X-0.412500X0.650000X-0.412500X0.650000X0.412500X0*%
%ADD22RoundRect,0.237500X-0.300000X-0.237500X0.300000X-0.237500X0.300000X0.237500X-0.300000X0.237500X0*%
%ADD23RoundRect,0.150000X-0.512500X-0.150000X0.512500X-0.150000X0.512500X0.150000X-0.512500X0.150000X0*%
%ADD24RoundRect,0.237500X-0.237500X0.250000X-0.237500X-0.250000X0.237500X-0.250000X0.237500X0.250000X0*%
%ADD25RoundRect,0.250000X1.100000X-0.412500X1.100000X0.412500X-1.100000X0.412500X-1.100000X-0.412500X0*%
%ADD26RoundRect,0.250000X-0.475000X0.337500X-0.475000X-0.337500X0.475000X-0.337500X0.475000X0.337500X0*%
%ADD27RoundRect,0.237500X-0.250000X-0.237500X0.250000X-0.237500X0.250000X0.237500X-0.250000X0.237500X0*%
%ADD28RoundRect,0.237500X-0.237500X0.300000X-0.237500X-0.300000X0.237500X-0.300000X0.237500X0.300000X0*%
%ADD29C,1.000000*%
%ADD30RoundRect,0.125000X0.125000X0.125000X-0.125000X0.125000X-0.125000X-0.125000X0.125000X-0.125000X0*%
%ADD31RoundRect,0.125000X0.000000X-0.176777X0.176777X0.000000X0.000000X0.176777X-0.176777X0.000000X0*%
%ADD32RoundRect,0.110000X0.440000X1.590000X-0.440000X1.590000X-0.440000X-1.590000X0.440000X-1.590000X0*%
%ADD33RoundRect,0.150000X-0.150000X-0.700000X0.150000X-0.700000X0.150000X0.700000X-0.150000X0.700000X0*%
%ADD34RoundRect,0.250000X-0.250000X-1.100000X0.250000X-1.100000X0.250000X1.100000X-0.250000X1.100000X0*%
G04 APERTURE END LIST*
D10*
%TO.C,J902*%
X175900000Y-81300000D03*
D11*
X173360000Y-81300000D03*
X170820000Y-81300000D03*
%TD*%
D12*
%TO.C,J913*%
X171320000Y-73190000D03*
X171320000Y-67410000D03*
D13*
X170820000Y-74620000D03*
X170820000Y-65980000D03*
D14*
X175000000Y-74620000D03*
X175000000Y-65980000D03*
%TD*%
D10*
%TO.C,J909*%
X175880000Y-101007500D03*
D11*
X173340000Y-101007500D03*
X170800000Y-101007500D03*
%TD*%
D15*
%TO.C,H104*%
X131500000Y-115500000D03*
%TD*%
D10*
%TO.C,J911*%
X175900000Y-106600000D03*
D11*
X173360000Y-106600000D03*
X170820000Y-106600000D03*
%TD*%
D15*
%TO.C,H103*%
X174500000Y-115500000D03*
%TD*%
D10*
%TO.C,J905*%
X175900000Y-89742500D03*
D11*
X173360000Y-89742500D03*
X170820000Y-89742500D03*
%TD*%
D10*
%TO.C,J907*%
X175880000Y-95407500D03*
D11*
X173340000Y-95407500D03*
X170800000Y-95407500D03*
%TD*%
D10*
%TO.C,J906*%
X175900000Y-92600000D03*
D11*
X173360000Y-92600000D03*
X170820000Y-92600000D03*
%TD*%
D15*
%TO.C,H101*%
X131500000Y-57500000D03*
%TD*%
D10*
%TO.C,J903*%
X175900000Y-84100000D03*
D11*
X173360000Y-84100000D03*
X170820000Y-84100000D03*
%TD*%
D10*
%TO.C,J904*%
X175900000Y-86900000D03*
D11*
X173360000Y-86900000D03*
X170820000Y-86900000D03*
%TD*%
D10*
%TO.C,J908*%
X175880000Y-98207500D03*
D11*
X173340000Y-98207500D03*
X170800000Y-98207500D03*
%TD*%
D15*
%TO.C,H102*%
X174500000Y-57500000D03*
%TD*%
D10*
%TO.C,J901*%
X175900000Y-78500000D03*
D11*
X173360000Y-78500000D03*
X170820000Y-78500000D03*
%TD*%
D10*
%TO.C,J910*%
X175880000Y-103785000D03*
D11*
X173340000Y-103785000D03*
X170800000Y-103785000D03*
%TD*%
D10*
%TO.C,J912*%
X175900000Y-109457500D03*
D11*
X173360000Y-109457500D03*
X170820000Y-109457500D03*
%TD*%
D16*
%TO.C,R909*%
X167992500Y-92407500D03*
X166167500Y-92407500D03*
%TD*%
%TO.C,R905*%
X167992500Y-81307500D03*
X166167500Y-81307500D03*
%TD*%
D17*
%TO.C,C901*%
X167140000Y-68200000D03*
X167140000Y-66125000D03*
%TD*%
D18*
%TO.C,C805*%
X135862500Y-92500000D03*
X137937500Y-92500000D03*
%TD*%
D19*
%TO.C,J805*%
X133100000Y-90625000D03*
X133100000Y-89375000D03*
X133100000Y-88125000D03*
X133100000Y-86875000D03*
X133100000Y-85625000D03*
X133100000Y-84375000D03*
D20*
X129900000Y-92475000D03*
X129900000Y-82525000D03*
%TD*%
D21*
%TO.C,C208*%
X132750000Y-97450000D03*
X132750000Y-100575000D03*
%TD*%
D16*
%TO.C,R912*%
X168092500Y-100907500D03*
X166267500Y-100907500D03*
%TD*%
D22*
%TO.C,R202*%
X139187500Y-97875000D03*
X140912500Y-97875000D03*
%TD*%
D23*
%TO.C,U201*%
X138512500Y-101562500D03*
X138512500Y-100612500D03*
X138512500Y-99662500D03*
X140787500Y-99662500D03*
X140787500Y-100612500D03*
X140787500Y-101562500D03*
%TD*%
D24*
%TO.C,R203*%
X143150000Y-97900000D03*
X143150000Y-99725000D03*
%TD*%
D16*
%TO.C,R904*%
X167992500Y-78507500D03*
X166167500Y-78507500D03*
%TD*%
D25*
%TO.C,C206*%
X134650000Y-106475000D03*
X134650000Y-103350000D03*
%TD*%
D26*
%TO.C,C902*%
X167050000Y-72400000D03*
X167050000Y-74475000D03*
%TD*%
D16*
%TO.C,R908*%
X168005000Y-89707500D03*
X166180000Y-89707500D03*
%TD*%
D19*
%TO.C,J914*%
X133050000Y-68875000D03*
X133050000Y-67625000D03*
X133050000Y-66375000D03*
X133050000Y-65125000D03*
D20*
X129850000Y-70725000D03*
X129850000Y-63275000D03*
%TD*%
D21*
%TO.C,C209*%
X135550000Y-97450000D03*
X135550000Y-100575000D03*
%TD*%
D27*
%TO.C,R901*%
X174687500Y-63650000D03*
X176512500Y-63650000D03*
%TD*%
%TO.C,R314*%
X149975000Y-66500000D03*
X151800000Y-66500000D03*
%TD*%
D17*
%TO.C,C205*%
X143400000Y-103837500D03*
X143400000Y-101762500D03*
%TD*%
D16*
%TO.C,R910*%
X168005000Y-95307500D03*
X166180000Y-95307500D03*
%TD*%
D28*
%TO.C,C904*%
X141100000Y-68237500D03*
X141100000Y-69962500D03*
%TD*%
D21*
%TO.C,C207*%
X129850000Y-97487500D03*
X129850000Y-100612500D03*
%TD*%
D29*
%TO.C,G*%
X153900000Y-60800000D03*
%TD*%
D16*
%TO.C,R915*%
X168100000Y-109400000D03*
X166275000Y-109400000D03*
%TD*%
D27*
%TO.C,R316*%
X155087500Y-88800000D03*
X156912500Y-88800000D03*
%TD*%
D25*
%TO.C,C202*%
X130750000Y-106475000D03*
X130750000Y-103350000D03*
%TD*%
D30*
%TO.C,D204*%
X134200000Y-110500000D03*
X132000000Y-110500000D03*
%TD*%
D31*
%TO.C,D901*%
X162922183Y-69877817D03*
X164477817Y-68322183D03*
%TD*%
D32*
%TO.C,L201*%
X141100000Y-105000000D03*
X138100000Y-105000000D03*
%TD*%
D27*
%TO.C,R312*%
X149975000Y-64600000D03*
X151800000Y-64600000D03*
%TD*%
D16*
%TO.C,R902*%
X172212500Y-63700000D03*
X170387500Y-63700000D03*
%TD*%
%TO.C,R906*%
X167992500Y-84107500D03*
X166167500Y-84107500D03*
%TD*%
%TO.C,R913*%
X168192500Y-103807500D03*
X166367500Y-103807500D03*
%TD*%
D33*
%TO.C,J302*%
X164125000Y-59050000D03*
X165375000Y-59050000D03*
X166625000Y-59050000D03*
X167875000Y-59050000D03*
D34*
X162275000Y-55850000D03*
X169725000Y-55850000D03*
%TD*%
D16*
%TO.C,R911*%
X168092500Y-98007500D03*
X166267500Y-98007500D03*
%TD*%
%TO.C,R907*%
X168005000Y-86900000D03*
X166180000Y-86900000D03*
%TD*%
D18*
%TO.C,C903*%
X136362500Y-70200000D03*
X138437500Y-70200000D03*
%TD*%
D16*
%TO.C,R914*%
X168112500Y-106700000D03*
X166287500Y-106700000D03*
%TD*%
%TO.C,R903*%
X141112500Y-66400000D03*
X139287500Y-66400000D03*
%TD*%
D33*
%TO.C,J803*%
X147900000Y-59100000D03*
X149150000Y-59100000D03*
X150400000Y-59100000D03*
X151650000Y-59100000D03*
D34*
X146050000Y-55900000D03*
X153500000Y-55900000D03*
%TD*%
D26*
%TO.C,C803*%
X146100000Y-61662500D03*
X146100000Y-63737500D03*
%TD*%
M02*
