%TF.GenerationSoftware,KiCad,Pcbnew,10.0.5*%
%TF.CreationDate,2026-08-18T20:05:54+05:30*%
%TF.ProjectId,FeroFlyF405,4665726f-466c-4794-9634-30352e6b6963,1*%
%TF.SameCoordinates,Original*%
%TF.FileFunction,Copper,L2,Inr*%
%TF.FilePolarity,Positive*%
%FSLAX46Y46*%
G04 Gerber Fmt 4.6, Leading zero omitted, Abs format (unit mm)*
G04 Created by KiCad (PCBNEW 10.0.5) date 2026-08-18 20:05:54*
%MOMM*%
%LPD*%
G01*
G04 APERTURE LIST*
%TA.AperFunction,ComponentPad*%
%ADD10R,1.700000X1.700000*%
%TD*%
%TA.AperFunction,ComponentPad*%
%ADD11C,1.700000*%
%TD*%
%TA.AperFunction,ComponentPad*%
%ADD12O,2.100000X1.050000*%
%TD*%
%TA.AperFunction,ComponentPad*%
%ADD13O,1.800000X0.900000*%
%TD*%
%TA.AperFunction,ViaPad*%
%ADD14C,0.600000*%
%TD*%
%TA.AperFunction,ViaPad*%
%ADD15C,0.700000*%
%TD*%
G04 APERTURE END LIST*
D10*
%TO.N,GND*%
%TO.C,J902*%
X175900000Y-81300000D03*
D11*
%TO.N,+5V*%
X173360000Y-81300000D03*
%TO.N,/IO/IO2/D_S2*%
X170820000Y-81300000D03*
%TD*%
D12*
%TO.N,unconnected-(J913-SHIELD-PadSH1)*%
%TO.C,J913*%
X170820000Y-74620000D03*
%TO.N,unconnected-(J913-SHIELD__1-PadSH2)*%
X170820000Y-65980000D03*
D13*
%TO.N,unconnected-(J913-SHIELD__2-PadSH3)*%
X175000000Y-74620000D03*
%TO.N,unconnected-(J913-SHIELD__3-PadSH4)*%
X175000000Y-65980000D03*
%TD*%
D10*
%TO.N,GND*%
%TO.C,J909*%
X175880000Y-101007500D03*
D11*
%TO.N,+5V*%
X173340000Y-101007500D03*
%TO.N,/IO/IO2/D_S9*%
X170800000Y-101007500D03*
%TD*%
D10*
%TO.N,GND*%
%TO.C,J911*%
X175900000Y-106600000D03*
D11*
%TO.N,+5V*%
X173360000Y-106600000D03*
%TO.N,/IO/IO2/D_S11*%
X170820000Y-106600000D03*
%TD*%
D10*
%TO.N,GND*%
%TO.C,J905*%
X175900000Y-89742500D03*
D11*
%TO.N,+5V*%
X173360000Y-89742500D03*
%TO.N,/IO/IO2/D_S5*%
X170820000Y-89742500D03*
%TD*%
D10*
%TO.N,GND*%
%TO.C,J907*%
X175880000Y-95407500D03*
D11*
%TO.N,+5V*%
X173340000Y-95407500D03*
%TO.N,/IO/IO2/D_S7*%
X170800000Y-95407500D03*
%TD*%
D10*
%TO.N,GND*%
%TO.C,J906*%
X175900000Y-92600000D03*
D11*
%TO.N,+5V*%
X173360000Y-92600000D03*
%TO.N,/IO/IO2/D_S6*%
X170820000Y-92600000D03*
%TD*%
D10*
%TO.N,GND*%
%TO.C,J903*%
X175900000Y-84100000D03*
D11*
%TO.N,+5V*%
X173360000Y-84100000D03*
%TO.N,/IO/IO2/D_S3*%
X170820000Y-84100000D03*
%TD*%
D10*
%TO.N,GND*%
%TO.C,J904*%
X175900000Y-86900000D03*
D11*
%TO.N,+5V*%
X173360000Y-86900000D03*
%TO.N,/IO/IO2/D_S4*%
X170820000Y-86900000D03*
%TD*%
D10*
%TO.N,GND*%
%TO.C,J908*%
X175880000Y-98207500D03*
D11*
%TO.N,+5V*%
X173340000Y-98207500D03*
%TO.N,/IO/IO2/D_S8*%
X170800000Y-98207500D03*
%TD*%
D10*
%TO.N,GND*%
%TO.C,J901*%
X175900000Y-78500000D03*
D11*
%TO.N,+5V*%
X173360000Y-78500000D03*
%TO.N,/IO/IO2/D_S1*%
X170820000Y-78500000D03*
%TD*%
D10*
%TO.N,GND*%
%TO.C,J910*%
X175880000Y-103785000D03*
D11*
%TO.N,+5V*%
X173340000Y-103785000D03*
%TO.N,/IO/IO2/D_S10*%
X170800000Y-103785000D03*
%TD*%
D10*
%TO.N,GND*%
%TO.C,J912*%
X175900000Y-109457500D03*
D11*
%TO.N,+5V*%
X173360000Y-109457500D03*
%TO.N,/IO/IO2/D_S12*%
X170820000Y-109457500D03*
%TD*%
D14*
%TO.N,GND*%
X159800000Y-67000000D03*
X155650000Y-64700000D03*
X152750000Y-63500000D03*
D15*
%TO.N,/MCU/D_LED1*%
X168100000Y-113600000D03*
X153200000Y-74900000D03*
%TO.N,/MCU/D_ADC2_CH13*%
X138200000Y-90300000D03*
X146800000Y-79000000D03*
%TO.N,GND*%
X136700000Y-87100000D03*
D14*
X177000000Y-71450000D03*
X168550000Y-74200000D03*
D15*
X157900000Y-70800000D03*
D14*
X136800000Y-72900000D03*
X139400000Y-77600000D03*
X141800000Y-75000000D03*
X147700000Y-104450000D03*
D15*
X142600000Y-70000000D03*
D14*
X130000000Y-71800000D03*
X159650000Y-65300000D03*
X153300000Y-105200000D03*
X130600000Y-77400000D03*
X135200000Y-55800000D03*
X132650000Y-102012500D03*
X161000000Y-55000000D03*
D15*
X163800000Y-105000000D03*
D14*
X168850000Y-88350000D03*
D15*
X138895000Y-110300000D03*
X149700000Y-110500000D03*
D14*
X137000000Y-107950000D03*
X161600000Y-63500000D03*
X148800000Y-90500000D03*
X143700000Y-85500000D03*
X142450000Y-94300000D03*
X146450000Y-104450000D03*
X176375000Y-70200000D03*
X138150000Y-78300000D03*
D15*
X176500000Y-62100000D03*
D14*
X139950000Y-94300000D03*
D15*
X139200000Y-79500000D03*
X147600000Y-66000000D03*
D14*
X167350000Y-93950000D03*
X154500000Y-118000000D03*
D15*
X141500000Y-63100000D03*
D14*
X141200000Y-93675000D03*
X158900000Y-82300000D03*
X168350000Y-105300000D03*
X166900000Y-110950000D03*
X167200000Y-102400000D03*
X144850000Y-97400000D03*
X168300000Y-99500000D03*
X129850000Y-62000000D03*
X161200000Y-84450000D03*
X141300000Y-77600000D03*
X151400000Y-78700000D03*
X130750000Y-62000000D03*
X151400000Y-56500000D03*
X131300000Y-73700000D03*
X129050000Y-91300000D03*
X144600000Y-87500000D03*
X139950000Y-95550000D03*
X145825000Y-105700000D03*
X167350000Y-91100000D03*
X144945000Y-109200000D03*
X155100000Y-94300000D03*
X168550000Y-75100000D03*
X156750000Y-111000000D03*
X140500000Y-64200000D03*
X157900000Y-113850000D03*
X137200000Y-79150000D03*
X166350000Y-108050000D03*
D15*
X169500000Y-113275000D03*
X153306551Y-108543449D03*
X135150000Y-84100000D03*
D14*
X145900000Y-94200000D03*
X177000000Y-68950000D03*
X142450000Y-95550000D03*
X168250000Y-108150000D03*
X148300000Y-100900000D03*
X160650000Y-92850000D03*
X161050000Y-96250000D03*
X130600000Y-75500000D03*
X166700000Y-112300000D03*
D15*
X158000000Y-63400000D03*
D14*
X130600000Y-79400000D03*
X144900000Y-55100000D03*
X170900000Y-55950000D03*
X164600000Y-65600000D03*
X154250000Y-102100000D03*
X168490000Y-65600000D03*
X154800000Y-55900000D03*
D15*
X165900000Y-113875000D03*
D14*
X131550000Y-102012500D03*
D15*
X137200000Y-94400000D03*
D14*
X163600000Y-92800000D03*
X157000000Y-90300000D03*
X164800000Y-103100000D03*
X144900000Y-56900000D03*
X168900000Y-91100000D03*
X135200000Y-87600000D03*
X149300000Y-117100000D03*
X148400000Y-55000000D03*
X128950000Y-62000000D03*
X128950000Y-83700000D03*
X166950000Y-76700000D03*
X142100000Y-64900000D03*
X161500000Y-85700000D03*
X168600000Y-80000000D03*
X162900000Y-67200000D03*
X161000000Y-55900000D03*
X156500000Y-104900000D03*
X163600000Y-96000000D03*
X162250000Y-97300000D03*
X163950000Y-75700000D03*
X130750000Y-83700000D03*
X154500000Y-117100000D03*
X157600000Y-65100000D03*
D15*
X164700000Y-78000000D03*
X146400000Y-89800000D03*
D14*
X165950000Y-64050000D03*
X135200000Y-54900000D03*
D15*
X138745000Y-109450000D03*
D14*
X156100000Y-90300000D03*
X168950000Y-85550000D03*
X151700000Y-94600000D03*
X145200000Y-104450000D03*
X153800000Y-79900000D03*
D15*
X156400000Y-87200000D03*
D14*
X130850000Y-91300000D03*
X160600000Y-71000000D03*
X164850000Y-74500000D03*
X167700000Y-85500000D03*
X148400000Y-55900000D03*
D15*
X132250000Y-80593750D03*
D14*
X139950000Y-93050000D03*
X155100000Y-95950000D03*
X154100000Y-77200000D03*
X134200000Y-60600000D03*
X143200000Y-77600000D03*
X131150000Y-88400000D03*
X159900000Y-71800000D03*
X138400000Y-73500000D03*
X134700000Y-72900000D03*
X144945000Y-108200000D03*
X137400000Y-75700000D03*
X151700000Y-92300000D03*
X157900000Y-67000000D03*
X149000000Y-92900000D03*
X154800000Y-55000000D03*
D15*
X151300000Y-102000000D03*
D14*
X167100000Y-88300000D03*
X160900000Y-106100000D03*
X141200000Y-96175000D03*
X134500000Y-80600000D03*
X129100000Y-71800000D03*
X148400000Y-56800000D03*
X151750000Y-106500000D03*
D15*
X144800000Y-99700000D03*
D14*
X129400000Y-66500000D03*
D15*
X166450000Y-70500000D03*
D14*
X153600000Y-78750000D03*
X141200000Y-94925000D03*
X161000000Y-68900000D03*
X166450000Y-99450000D03*
X161750000Y-107050000D03*
X154800000Y-56800000D03*
X146450000Y-106950000D03*
X135000000Y-59600000D03*
D15*
X140000000Y-91500000D03*
D14*
X168450000Y-102400000D03*
D15*
X138000000Y-71700000D03*
D14*
X166700000Y-105200000D03*
X130900000Y-71800000D03*
X148050000Y-99500000D03*
X168800000Y-94000000D03*
X139900000Y-75000000D03*
X176375000Y-67700000D03*
D15*
X160200000Y-98600000D03*
D14*
X167650000Y-96707500D03*
X147700000Y-106950000D03*
X131100000Y-66500000D03*
X155050000Y-74100000D03*
X140500000Y-114600000D03*
X132750000Y-103112500D03*
X135200000Y-56700000D03*
X129950000Y-91300000D03*
X160650000Y-89050000D03*
X170900000Y-55050000D03*
X165400000Y-110900000D03*
X167500000Y-82750000D03*
X142450000Y-93050000D03*
X168490000Y-66450000D03*
X151800000Y-105150000D03*
X136600000Y-80600000D03*
X129850000Y-83700000D03*
D15*
X148400000Y-98100000D03*
X168400000Y-63100000D03*
D14*
X162600000Y-94700000D03*
X170900000Y-56850000D03*
X166600000Y-79900000D03*
X155350000Y-112050000D03*
X132800000Y-72900000D03*
X176375000Y-72700000D03*
X168850000Y-76600000D03*
D15*
X155000000Y-100400000D03*
D14*
X161000000Y-56800000D03*
X158900000Y-69300000D03*
X144900000Y-56000000D03*
X139800000Y-108000000D03*
X144600000Y-83700000D03*
X144575000Y-105700000D03*
X143500000Y-75000000D03*
X149300000Y-118000000D03*
X135300000Y-89200000D03*
X147075000Y-105700000D03*
X168900000Y-82750000D03*
D15*
X147800000Y-63300000D03*
D14*
X156500000Y-113000000D03*
X131350000Y-101012500D03*
%TO.N,/IO/IO2/P_VBUS*%
X168550000Y-73000000D03*
X168550000Y-71800000D03*
X168490000Y-68950000D03*
X168490000Y-67750000D03*
D15*
X165050000Y-71800000D03*
D14*
%TO.N,+3V3*%
X144945000Y-110200000D03*
D15*
X141300000Y-91400000D03*
X159100000Y-98500000D03*
X139200000Y-80600000D03*
X155300000Y-87300000D03*
X146500000Y-65900000D03*
X150200000Y-102000000D03*
X136600000Y-88200000D03*
D14*
X144945000Y-111400000D03*
D15*
X155000000Y-99300000D03*
X147700000Y-89700000D03*
X158700000Y-71600000D03*
%TO.N,/MCU/D_I2C2_SDA*%
X144100000Y-82900000D03*
X142800000Y-85100000D03*
%TO.N,/MCU/D_I2C2_SCL*%
X145500000Y-83600000D03*
X144500000Y-86500000D03*
%TO.N,/MCU/D_NRST*%
X146600000Y-76000000D03*
X141350000Y-71850000D03*
%TO.N,+5V*%
X139150000Y-96412500D03*
X146100000Y-115800000D03*
X130900000Y-110500000D03*
X134500000Y-114800000D03*
D14*
X132050000Y-107912500D03*
D15*
X135900000Y-94500000D03*
D14*
X129450000Y-107912500D03*
X130750000Y-107912500D03*
D15*
X141500000Y-61700000D03*
X147800000Y-62050000D03*
X136700000Y-71700000D03*
X168400000Y-61700000D03*
X158000000Y-62100000D03*
%TO.N,/IO/D_USART2_TX*%
X130050000Y-88300000D03*
D14*
%TO.N,/IO/IO2/D_CC1A*%
X173800000Y-67400000D03*
%TO.N,/IO/IO2/D_CC1B*%
X172500000Y-68400000D03*
D15*
%TO.N,/IO/P_LDOIN*%
X162900000Y-71200000D03*
X136100000Y-112300000D03*
%TO.N,/IO/D_PINIO0*%
X152100000Y-74100000D03*
X140800000Y-57100000D03*
%TO.N,/IO/D_PINIO1*%
X139400000Y-57100000D03*
X150800000Y-74400000D03*
%TO.N,/MCU/SPI1_MOSI*%
X149300000Y-93800000D03*
X152300000Y-93800000D03*
%TO.N,/MCU/D_LED0*%
X163900000Y-113600000D03*
X149900000Y-77350000D03*
%TO.N,/MCU/D_BOOT0*%
X149650000Y-73800000D03*
X143000000Y-67100000D03*
%TO.N,/IO/D_ADC1_CH10*%
X146500000Y-73900000D03*
D14*
%TO.N,/IO/D_TIM2_CH1*%
X152500000Y-78300000D03*
%TO.N,/IO/D_TIM5_CH1*%
X151900000Y-79500000D03*
D15*
%TO.N,/IO/D_USART2_RX*%
X131250000Y-87400000D03*
%TO.N,/MCU/SPI1_MISO*%
X148250000Y-91450000D03*
X151300000Y-91200000D03*
%TO.N,/MCU/SPI1_CS*%
X149900000Y-82150000D03*
X153700000Y-94000000D03*
%TO.N,/MCU/D_BOOT1*%
X151600000Y-82100000D03*
%TO.N,/IO/D_TIM12_CH1*%
X161400000Y-86800000D03*
X154600000Y-80500000D03*
X165600000Y-105200000D03*
%TO.N,/IO/D_TIM12_CH2*%
X162800000Y-92000000D03*
X159700000Y-81800000D03*
X166200000Y-102300000D03*
%TO.N,/IO/D_TIM8_CH1*%
X166450000Y-96750000D03*
%TO.N,/IO/D_TIM8_CH2*%
X154600000Y-79200000D03*
%TO.N,/IO/D_TIM3_CH3*%
X166350000Y-91150000D03*
%TO.N,/IO/D_TIM3_CH4*%
X166080000Y-88307500D03*
%TO.N,/IO/D_TIM1_CH1*%
X166700000Y-85507500D03*
%TO.N,/IO/D_TIM1_CH2*%
X164200000Y-77100000D03*
%TO.N,/MCU/D_SWDIO*%
X154500000Y-74850000D03*
%TO.N,/MCU/D_SWCLK*%
X155700000Y-73400000D03*
D14*
%TO.N,/IO/D_I2C1_SCL*%
X153800000Y-63600000D03*
D15*
X152000000Y-55700000D03*
%TO.N,/IO/D_I2C1_SDA*%
X152100000Y-57300000D03*
%TO.N,/IO/D_TIM4_CH3*%
X154250000Y-76200000D03*
%TO.N,/IO/D_TIM4_CH4*%
X153100000Y-77000000D03*
D14*
%TO.N,/Power/P_VIN*%
X129550000Y-96012500D03*
X132350000Y-96012500D03*
X131050000Y-96012500D03*
%TD*%
%TA.AperFunction,Conductor*%
%TO.N,GND*%
G36*
X175002777Y-54400655D02*
G01*
X175285504Y-54416533D01*
X175296527Y-54417775D01*
X175572972Y-54464745D01*
X175583766Y-54467208D01*
X175853223Y-54544838D01*
X175863694Y-54548502D01*
X175969151Y-54592184D01*
X176122746Y-54655805D01*
X176132748Y-54660622D01*
X176378148Y-54796250D01*
X176387548Y-54802156D01*
X176616226Y-54964411D01*
X176624904Y-54971331D01*
X176833986Y-55158178D01*
X176841821Y-55166013D01*
X177028666Y-55375093D01*
X177035588Y-55383773D01*
X177197843Y-55612451D01*
X177203749Y-55621851D01*
X177339377Y-55867251D01*
X177344194Y-55877253D01*
X177451495Y-56136301D01*
X177455162Y-56146780D01*
X177532787Y-56416218D01*
X177535257Y-56427042D01*
X177582223Y-56703467D01*
X177583466Y-56714499D01*
X177599344Y-56997222D01*
X177599500Y-57002773D01*
X177599500Y-115997226D01*
X177599344Y-116002777D01*
X177583466Y-116285500D01*
X177582223Y-116296532D01*
X177535257Y-116572957D01*
X177532787Y-116583781D01*
X177455162Y-116853219D01*
X177451495Y-116863698D01*
X177344194Y-117122746D01*
X177339377Y-117132748D01*
X177203749Y-117378148D01*
X177197843Y-117387548D01*
X177035588Y-117616226D01*
X177028666Y-117624906D01*
X176841829Y-117833978D01*
X176833978Y-117841829D01*
X176624906Y-118028666D01*
X176616226Y-118035588D01*
X176387548Y-118197843D01*
X176378148Y-118203749D01*
X176132748Y-118339377D01*
X176122746Y-118344194D01*
X175863698Y-118451495D01*
X175853219Y-118455162D01*
X175583781Y-118532787D01*
X175572957Y-118535257D01*
X175296532Y-118582223D01*
X175285500Y-118583466D01*
X175002778Y-118599344D01*
X174997227Y-118599500D01*
X131002773Y-118599500D01*
X130997222Y-118599344D01*
X130714499Y-118583466D01*
X130703467Y-118582223D01*
X130427042Y-118535257D01*
X130416220Y-118532787D01*
X130346958Y-118512833D01*
X130146780Y-118455162D01*
X130136301Y-118451495D01*
X129877253Y-118344194D01*
X129867251Y-118339377D01*
X129621851Y-118203749D01*
X129612451Y-118197843D01*
X129383773Y-118035588D01*
X129375093Y-118028666D01*
X129166013Y-117841821D01*
X129158178Y-117833986D01*
X128971331Y-117624904D01*
X128964411Y-117616226D01*
X128914521Y-117545913D01*
X128818441Y-117410500D01*
X128802156Y-117387548D01*
X128796250Y-117378148D01*
X128660622Y-117132748D01*
X128655805Y-117122746D01*
X128548504Y-116863698D01*
X128544837Y-116853219D01*
X128535799Y-116821847D01*
X128467208Y-116583766D01*
X128464745Y-116572972D01*
X128417775Y-116296527D01*
X128416533Y-116285500D01*
X128414006Y-116240509D01*
X128400656Y-116002777D01*
X128400500Y-115997226D01*
X128400500Y-115374777D01*
X129589500Y-115374777D01*
X129589500Y-115625222D01*
X129622188Y-115873512D01*
X129622188Y-115873517D01*
X129687007Y-116115420D01*
X129687011Y-116115433D01*
X129782844Y-116346797D01*
X129782846Y-116346801D01*
X129782848Y-116346805D01*
X129805880Y-116386697D01*
X129908071Y-116563697D01*
X130060522Y-116762376D01*
X130060524Y-116762378D01*
X130060528Y-116762383D01*
X130237617Y-116939472D01*
X130237621Y-116939475D01*
X130237623Y-116939477D01*
X130436302Y-117091928D01*
X130436306Y-117091931D01*
X130653195Y-117217152D01*
X130884572Y-117312991D01*
X131126480Y-117377811D01*
X131374779Y-117410500D01*
X131374780Y-117410500D01*
X131625220Y-117410500D01*
X131625221Y-117410500D01*
X131873520Y-117377811D01*
X132115428Y-117312991D01*
X132346805Y-117217152D01*
X132563694Y-117091931D01*
X132762383Y-116939472D01*
X132939472Y-116762383D01*
X133091931Y-116563694D01*
X133217152Y-116346805D01*
X133312991Y-116115428D01*
X133377811Y-115873520D01*
X133397031Y-115727525D01*
X145549500Y-115727525D01*
X145549500Y-115872475D01*
X145554495Y-115891116D01*
X145587017Y-116012489D01*
X145659487Y-116138010D01*
X145659489Y-116138012D01*
X145659491Y-116138015D01*
X145761985Y-116240509D01*
X145761987Y-116240510D01*
X145761989Y-116240512D01*
X145887511Y-116312982D01*
X145887512Y-116312982D01*
X145887515Y-116312984D01*
X146027525Y-116350500D01*
X146027526Y-116350500D01*
X146172474Y-116350500D01*
X146172475Y-116350500D01*
X146312485Y-116312984D01*
X146312487Y-116312982D01*
X146312489Y-116312982D01*
X146438010Y-116240512D01*
X146438010Y-116240511D01*
X146438015Y-116240509D01*
X146540509Y-116138015D01*
X146612984Y-116012485D01*
X146650500Y-115872475D01*
X146650500Y-115727525D01*
X146612984Y-115587515D01*
X146612982Y-115587512D01*
X146612982Y-115587510D01*
X146540512Y-115461989D01*
X146540510Y-115461987D01*
X146540509Y-115461985D01*
X146447403Y-115368879D01*
X172499500Y-115368879D01*
X172499500Y-115631120D01*
X172531275Y-115872474D01*
X172533730Y-115891116D01*
X172566251Y-116012485D01*
X172601600Y-116144411D01*
X172601604Y-116144424D01*
X172701953Y-116386689D01*
X172701955Y-116386693D01*
X172701957Y-116386697D01*
X172779860Y-116521630D01*
X172809493Y-116572957D01*
X172833076Y-116613803D01*
X172992718Y-116821851D01*
X173178149Y-117007282D01*
X173386197Y-117166924D01*
X173613303Y-117298043D01*
X173855581Y-117398398D01*
X174108884Y-117466270D01*
X174368880Y-117500500D01*
X174368881Y-117500500D01*
X174631119Y-117500500D01*
X174631120Y-117500500D01*
X174891116Y-117466270D01*
X175144419Y-117398398D01*
X175386697Y-117298043D01*
X175613803Y-117166924D01*
X175821851Y-117007282D01*
X176007282Y-116821851D01*
X176166924Y-116613803D01*
X176298043Y-116386697D01*
X176398398Y-116144419D01*
X176466270Y-115891116D01*
X176500500Y-115631120D01*
X176500500Y-115368880D01*
X176466270Y-115108884D01*
X176398398Y-114855581D01*
X176298043Y-114613303D01*
X176166924Y-114386197D01*
X176007282Y-114178149D01*
X175821851Y-113992718D01*
X175613803Y-113833076D01*
X175613804Y-113833076D01*
X175613802Y-113833075D01*
X175521630Y-113779860D01*
X175386697Y-113701957D01*
X175386693Y-113701955D01*
X175386689Y-113701953D01*
X175144424Y-113601604D01*
X175144423Y-113601603D01*
X175144419Y-113601602D01*
X174891116Y-113533730D01*
X174891111Y-113533729D01*
X174891110Y-113533729D01*
X174631120Y-113499500D01*
X174368880Y-113499500D01*
X174368879Y-113499500D01*
X174108889Y-113533729D01*
X174108886Y-113533729D01*
X174108884Y-113533730D01*
X173923464Y-113583412D01*
X173855588Y-113601600D01*
X173855575Y-113601604D01*
X173613310Y-113701953D01*
X173386197Y-113833075D01*
X173178152Y-113992715D01*
X172992715Y-114178152D01*
X172833075Y-114386197D01*
X172701953Y-114613310D01*
X172601604Y-114855575D01*
X172601600Y-114855588D01*
X172533729Y-115108889D01*
X172499500Y-115368879D01*
X146447403Y-115368879D01*
X146438015Y-115359491D01*
X146438012Y-115359489D01*
X146438010Y-115359487D01*
X146312488Y-115287017D01*
X146312489Y-115287017D01*
X146282896Y-115279087D01*
X146172475Y-115249500D01*
X146027525Y-115249500D01*
X145965790Y-115266041D01*
X145887510Y-115287017D01*
X145761989Y-115359487D01*
X145659487Y-115461989D01*
X145587017Y-115587510D01*
X145576912Y-115625222D01*
X145549500Y-115727525D01*
X133397031Y-115727525D01*
X133410500Y-115625221D01*
X133410500Y-115374779D01*
X133377811Y-115126480D01*
X133312991Y-114884572D01*
X133247940Y-114727525D01*
X133949500Y-114727525D01*
X133949500Y-114872475D01*
X133979087Y-114982896D01*
X133987017Y-115012489D01*
X134059487Y-115138010D01*
X134059489Y-115138012D01*
X134059491Y-115138015D01*
X134161985Y-115240509D01*
X134161987Y-115240510D01*
X134161989Y-115240512D01*
X134287511Y-115312982D01*
X134287512Y-115312982D01*
X134287515Y-115312984D01*
X134427525Y-115350500D01*
X134427526Y-115350500D01*
X134572474Y-115350500D01*
X134572475Y-115350500D01*
X134712485Y-115312984D01*
X134712487Y-115312982D01*
X134712489Y-115312982D01*
X134838010Y-115240512D01*
X134838010Y-115240511D01*
X134838015Y-115240509D01*
X134940509Y-115138015D01*
X135012984Y-115012485D01*
X135050500Y-114872475D01*
X135050500Y-114727525D01*
X135012984Y-114587515D01*
X135012982Y-114587512D01*
X135012982Y-114587510D01*
X134940512Y-114461989D01*
X134940510Y-114461987D01*
X134940509Y-114461985D01*
X134838015Y-114359491D01*
X134838012Y-114359489D01*
X134838010Y-114359487D01*
X134712488Y-114287017D01*
X134712489Y-114287017D01*
X134682896Y-114279087D01*
X134572475Y-114249500D01*
X134427525Y-114249500D01*
X134365790Y-114266041D01*
X134287510Y-114287017D01*
X134161989Y-114359487D01*
X134059487Y-114461989D01*
X133987017Y-114587510D01*
X133987016Y-114587515D01*
X133949500Y-114727525D01*
X133247940Y-114727525D01*
X133217152Y-114653195D01*
X133091931Y-114436306D01*
X132939472Y-114237617D01*
X132762383Y-114060528D01*
X132762378Y-114060524D01*
X132762376Y-114060522D01*
X132563697Y-113908071D01*
X132433802Y-113833076D01*
X132346805Y-113782848D01*
X132346801Y-113782846D01*
X132346797Y-113782844D01*
X132115433Y-113687011D01*
X132115432Y-113687010D01*
X132115428Y-113687009D01*
X131873520Y-113622189D01*
X131873515Y-113622188D01*
X131873514Y-113622188D01*
X131850733Y-113619189D01*
X131625222Y-113589500D01*
X131625221Y-113589500D01*
X131374779Y-113589500D01*
X131374777Y-113589500D01*
X131126487Y-113622188D01*
X131126482Y-113622188D01*
X130884579Y-113687007D01*
X130884566Y-113687011D01*
X130653202Y-113782844D01*
X130436302Y-113908071D01*
X130237623Y-114060522D01*
X130060522Y-114237623D01*
X129908071Y-114436302D01*
X129782844Y-114653202D01*
X129687011Y-114884566D01*
X129687007Y-114884579D01*
X129622188Y-115126482D01*
X129622188Y-115126487D01*
X129589500Y-115374777D01*
X128400500Y-115374777D01*
X128400500Y-113527525D01*
X163349500Y-113527525D01*
X163349500Y-113672475D01*
X163353395Y-113687011D01*
X163387017Y-113812489D01*
X163459487Y-113938010D01*
X163459489Y-113938012D01*
X163459491Y-113938015D01*
X163561985Y-114040509D01*
X163561987Y-114040510D01*
X163561989Y-114040512D01*
X163687511Y-114112982D01*
X163687512Y-114112982D01*
X163687515Y-114112984D01*
X163827525Y-114150500D01*
X163827526Y-114150500D01*
X163972474Y-114150500D01*
X163972475Y-114150500D01*
X164112485Y-114112984D01*
X164112487Y-114112982D01*
X164112489Y-114112982D01*
X164238010Y-114040512D01*
X164238010Y-114040511D01*
X164238015Y-114040509D01*
X164340509Y-113938015D01*
X164357797Y-113908071D01*
X164412982Y-113812489D01*
X164412982Y-113812487D01*
X164412984Y-113812485D01*
X164450500Y-113672475D01*
X164450500Y-113527525D01*
X167549500Y-113527525D01*
X167549500Y-113672475D01*
X167553395Y-113687011D01*
X167587017Y-113812489D01*
X167659487Y-113938010D01*
X167659489Y-113938012D01*
X167659491Y-113938015D01*
X167761985Y-114040509D01*
X167761987Y-114040510D01*
X167761989Y-114040512D01*
X167887511Y-114112982D01*
X167887512Y-114112982D01*
X167887515Y-114112984D01*
X168027525Y-114150500D01*
X168027526Y-114150500D01*
X168172474Y-114150500D01*
X168172475Y-114150500D01*
X168312485Y-114112984D01*
X168312487Y-114112982D01*
X168312489Y-114112982D01*
X168438010Y-114040512D01*
X168438010Y-114040511D01*
X168438015Y-114040509D01*
X168540509Y-113938015D01*
X168557797Y-113908071D01*
X168612982Y-113812489D01*
X168612982Y-113812487D01*
X168612984Y-113812485D01*
X168650500Y-113672475D01*
X168650500Y-113527525D01*
X168612984Y-113387515D01*
X168612982Y-113387512D01*
X168612982Y-113387510D01*
X168540512Y-113261989D01*
X168540510Y-113261987D01*
X168540509Y-113261985D01*
X168438015Y-113159491D01*
X168438012Y-113159489D01*
X168438010Y-113159487D01*
X168312488Y-113087017D01*
X168312489Y-113087017D01*
X168282896Y-113079087D01*
X168172475Y-113049500D01*
X168027525Y-113049500D01*
X167965790Y-113066041D01*
X167887510Y-113087017D01*
X167761989Y-113159487D01*
X167659487Y-113261989D01*
X167587017Y-113387510D01*
X167587016Y-113387515D01*
X167549500Y-113527525D01*
X164450500Y-113527525D01*
X164412984Y-113387515D01*
X164412982Y-113387512D01*
X164412982Y-113387510D01*
X164340512Y-113261989D01*
X164340510Y-113261987D01*
X164340509Y-113261985D01*
X164238015Y-113159491D01*
X164238012Y-113159489D01*
X164238010Y-113159487D01*
X164112488Y-113087017D01*
X164112489Y-113087017D01*
X164082896Y-113079087D01*
X163972475Y-113049500D01*
X163827525Y-113049500D01*
X163765790Y-113066041D01*
X163687510Y-113087017D01*
X163561989Y-113159487D01*
X163459487Y-113261989D01*
X163387017Y-113387510D01*
X163387016Y-113387515D01*
X163349500Y-113527525D01*
X128400500Y-113527525D01*
X128400500Y-112227525D01*
X135549500Y-112227525D01*
X135549500Y-112372474D01*
X135587017Y-112512489D01*
X135659487Y-112638010D01*
X135659489Y-112638012D01*
X135659491Y-112638015D01*
X135761985Y-112740509D01*
X135761987Y-112740510D01*
X135761989Y-112740512D01*
X135887511Y-112812982D01*
X135887512Y-112812982D01*
X135887515Y-112812984D01*
X136027525Y-112850500D01*
X136027526Y-112850500D01*
X136172474Y-112850500D01*
X136172475Y-112850500D01*
X136312485Y-112812984D01*
X136312487Y-112812982D01*
X136312489Y-112812982D01*
X136438010Y-112740512D01*
X136438010Y-112740511D01*
X136438015Y-112740509D01*
X136540509Y-112638015D01*
X136612984Y-112512485D01*
X136650500Y-112372475D01*
X136650500Y-112227525D01*
X136612984Y-112087515D01*
X136612982Y-112087512D01*
X136612982Y-112087510D01*
X136540512Y-111961989D01*
X136540510Y-111961987D01*
X136540509Y-111961985D01*
X136438015Y-111859491D01*
X136438012Y-111859489D01*
X136438010Y-111859487D01*
X136312488Y-111787017D01*
X136312489Y-111787017D01*
X136282896Y-111779087D01*
X136172475Y-111749500D01*
X136027525Y-111749500D01*
X135965790Y-111766041D01*
X135887510Y-111787017D01*
X135761989Y-111859487D01*
X135659487Y-111961989D01*
X135587017Y-112087510D01*
X135549500Y-112227525D01*
X128400500Y-112227525D01*
X128400500Y-111334108D01*
X144444500Y-111334108D01*
X144444500Y-111465892D01*
X144474579Y-111578151D01*
X144478609Y-111593190D01*
X144544496Y-111707309D01*
X144544498Y-111707311D01*
X144544500Y-111707314D01*
X144637686Y-111800500D01*
X144637688Y-111800501D01*
X144637690Y-111800503D01*
X144751810Y-111866390D01*
X144751808Y-111866390D01*
X144751812Y-111866391D01*
X144751814Y-111866392D01*
X144879108Y-111900500D01*
X144879110Y-111900500D01*
X145010890Y-111900500D01*
X145010892Y-111900500D01*
X145138186Y-111866392D01*
X145138188Y-111866390D01*
X145138190Y-111866390D01*
X145252309Y-111800503D01*
X145252309Y-111800502D01*
X145252314Y-111800500D01*
X145345500Y-111707314D01*
X145411392Y-111593186D01*
X145445500Y-111465892D01*
X145445500Y-111334108D01*
X145411392Y-111206814D01*
X145411390Y-111206811D01*
X145411390Y-111206809D01*
X145345503Y-111092690D01*
X145345501Y-111092688D01*
X145345500Y-111092686D01*
X145252314Y-110999500D01*
X145252311Y-110999498D01*
X145252309Y-110999496D01*
X145138189Y-110933609D01*
X145138191Y-110933609D01*
X145088799Y-110920375D01*
X145010892Y-110899500D01*
X144879108Y-110899500D01*
X144801200Y-110920375D01*
X144751809Y-110933609D01*
X144637690Y-110999496D01*
X144544496Y-111092690D01*
X144478609Y-111206809D01*
X144478608Y-111206814D01*
X144444500Y-111334108D01*
X128400500Y-111334108D01*
X128400500Y-110427525D01*
X130349500Y-110427525D01*
X130349500Y-110572475D01*
X130358885Y-110607499D01*
X130387017Y-110712489D01*
X130459487Y-110838010D01*
X130459489Y-110838012D01*
X130459491Y-110838015D01*
X130561985Y-110940509D01*
X130561987Y-110940510D01*
X130561989Y-110940512D01*
X130687511Y-111012982D01*
X130687512Y-111012982D01*
X130687515Y-111012984D01*
X130827525Y-111050500D01*
X130827526Y-111050500D01*
X130972474Y-111050500D01*
X130972475Y-111050500D01*
X131112485Y-111012984D01*
X131112487Y-111012982D01*
X131112489Y-111012982D01*
X131238010Y-110940512D01*
X131238010Y-110940511D01*
X131238015Y-110940509D01*
X131340509Y-110838015D01*
X131412984Y-110712485D01*
X131450500Y-110572475D01*
X131450500Y-110427525D01*
X131412984Y-110287515D01*
X131412982Y-110287512D01*
X131412982Y-110287510D01*
X131349247Y-110177119D01*
X131349246Y-110177118D01*
X131340510Y-110161987D01*
X131340509Y-110161985D01*
X131312632Y-110134108D01*
X144444500Y-110134108D01*
X144444500Y-110265892D01*
X144467652Y-110352297D01*
X144478609Y-110393190D01*
X144544496Y-110507309D01*
X144544498Y-110507311D01*
X144544500Y-110507314D01*
X144637686Y-110600500D01*
X144637688Y-110600501D01*
X144637690Y-110600503D01*
X144751810Y-110666390D01*
X144751808Y-110666390D01*
X144751812Y-110666391D01*
X144751814Y-110666392D01*
X144879108Y-110700500D01*
X144879110Y-110700500D01*
X145010890Y-110700500D01*
X145010892Y-110700500D01*
X145138186Y-110666392D01*
X145138188Y-110666390D01*
X145138190Y-110666390D01*
X145252309Y-110600503D01*
X145252309Y-110600502D01*
X145252314Y-110600500D01*
X145345500Y-110507314D01*
X145368412Y-110467630D01*
X145411390Y-110393190D01*
X145411390Y-110393188D01*
X145411392Y-110393186D01*
X145445500Y-110265892D01*
X145445500Y-110134108D01*
X145411392Y-110006814D01*
X145411390Y-110006811D01*
X145411390Y-110006809D01*
X145345503Y-109892690D01*
X145345501Y-109892688D01*
X145345500Y-109892686D01*
X145252314Y-109799500D01*
X145252311Y-109799498D01*
X145252309Y-109799496D01*
X145138189Y-109733609D01*
X145138191Y-109733609D01*
X145088799Y-109720375D01*
X145010892Y-109699500D01*
X144879108Y-109699500D01*
X144801200Y-109720375D01*
X144751809Y-109733609D01*
X144637690Y-109799496D01*
X144544496Y-109892690D01*
X144478609Y-110006809D01*
X144478608Y-110006814D01*
X144444500Y-110134108D01*
X131312632Y-110134108D01*
X131238015Y-110059491D01*
X131238012Y-110059489D01*
X131238010Y-110059487D01*
X131112488Y-109987017D01*
X131112489Y-109987017D01*
X131082896Y-109979087D01*
X130972475Y-109949500D01*
X130827525Y-109949500D01*
X130797669Y-109957500D01*
X130687510Y-109987017D01*
X130561989Y-110059487D01*
X130459487Y-110161989D01*
X130387017Y-110287510D01*
X130362938Y-110377374D01*
X130349500Y-110427525D01*
X128400500Y-110427525D01*
X128400500Y-109354032D01*
X169769500Y-109354032D01*
X169769500Y-109560967D01*
X169809869Y-109763918D01*
X169889058Y-109955097D01*
X170004020Y-110127151D01*
X170004023Y-110127155D01*
X170150345Y-110273477D01*
X170322402Y-110388441D01*
X170513580Y-110467630D01*
X170716535Y-110508000D01*
X170716536Y-110508000D01*
X170923464Y-110508000D01*
X170923465Y-110508000D01*
X171126420Y-110467630D01*
X171317598Y-110388441D01*
X171489655Y-110273477D01*
X171635977Y-110127155D01*
X171750941Y-109955098D01*
X171830130Y-109763920D01*
X171870500Y-109560965D01*
X171870500Y-109354035D01*
X171870499Y-109354032D01*
X172309500Y-109354032D01*
X172309500Y-109560967D01*
X172349869Y-109763918D01*
X172429058Y-109955097D01*
X172544020Y-110127151D01*
X172544023Y-110127155D01*
X172690345Y-110273477D01*
X172862402Y-110388441D01*
X173053580Y-110467630D01*
X173256535Y-110508000D01*
X173256536Y-110508000D01*
X173463464Y-110508000D01*
X173463465Y-110508000D01*
X173666420Y-110467630D01*
X173857598Y-110388441D01*
X174029655Y-110273477D01*
X174175977Y-110127155D01*
X174290941Y-109955098D01*
X174370130Y-109763920D01*
X174410500Y-109560965D01*
X174410500Y-109354035D01*
X174370130Y-109151080D01*
X174290941Y-108959902D01*
X174175977Y-108787845D01*
X174029655Y-108641523D01*
X174027338Y-108639975D01*
X173911690Y-108562702D01*
X174750000Y-108562702D01*
X174750000Y-109207499D01*
X174750001Y-109207500D01*
X175466988Y-109207500D01*
X175434075Y-109264507D01*
X175400000Y-109391674D01*
X175400000Y-109523326D01*
X175434075Y-109650493D01*
X175466988Y-109707500D01*
X174750002Y-109707500D01*
X174750001Y-109707501D01*
X174750001Y-110352291D01*
X174752909Y-110377374D01*
X174798213Y-110479977D01*
X174877522Y-110559286D01*
X174980127Y-110604590D01*
X175005203Y-110607499D01*
X175649998Y-110607499D01*
X175650000Y-110607498D01*
X175650000Y-109890512D01*
X175707007Y-109923425D01*
X175834174Y-109957500D01*
X175965826Y-109957500D01*
X176092993Y-109923425D01*
X176150000Y-109890512D01*
X176150000Y-110607498D01*
X176150001Y-110607499D01*
X176794790Y-110607499D01*
X176794791Y-110607498D01*
X176819874Y-110604590D01*
X176922477Y-110559286D01*
X177001786Y-110479977D01*
X177047090Y-110377372D01*
X177049999Y-110352297D01*
X177050000Y-110352295D01*
X177050000Y-109707501D01*
X177049999Y-109707500D01*
X176333012Y-109707500D01*
X176365925Y-109650493D01*
X176400000Y-109523326D01*
X176400000Y-109391674D01*
X176365925Y-109264507D01*
X176333012Y-109207500D01*
X177049998Y-109207500D01*
X177049999Y-109207499D01*
X177049999Y-108562710D01*
X177049998Y-108562708D01*
X177047090Y-108537625D01*
X177001786Y-108435022D01*
X176922477Y-108355713D01*
X176819872Y-108310409D01*
X176794797Y-108307500D01*
X176150001Y-108307500D01*
X176150000Y-108307501D01*
X176150000Y-109024488D01*
X176092993Y-108991575D01*
X175965826Y-108957500D01*
X175834174Y-108957500D01*
X175707007Y-108991575D01*
X175650000Y-109024488D01*
X175650000Y-108307501D01*
X175649999Y-108307500D01*
X175005210Y-108307500D01*
X175005207Y-108307501D01*
X174980125Y-108310409D01*
X174877522Y-108355713D01*
X174798213Y-108435022D01*
X174752909Y-108537627D01*
X174750000Y-108562702D01*
X173911690Y-108562702D01*
X173857597Y-108526558D01*
X173666418Y-108447369D01*
X173463467Y-108407000D01*
X173463465Y-108407000D01*
X173256535Y-108407000D01*
X173256532Y-108407000D01*
X173053581Y-108447369D01*
X172862402Y-108526558D01*
X172690348Y-108641520D01*
X172544020Y-108787848D01*
X172429058Y-108959902D01*
X172349869Y-109151081D01*
X172309500Y-109354032D01*
X171870499Y-109354032D01*
X171830130Y-109151080D01*
X171750941Y-108959902D01*
X171635977Y-108787845D01*
X171489655Y-108641523D01*
X171489651Y-108641520D01*
X171317597Y-108526558D01*
X171126418Y-108447369D01*
X170923467Y-108407000D01*
X170923465Y-108407000D01*
X170716535Y-108407000D01*
X170716532Y-108407000D01*
X170513581Y-108447369D01*
X170322402Y-108526558D01*
X170150348Y-108641520D01*
X170004020Y-108787848D01*
X169889058Y-108959902D01*
X169809869Y-109151081D01*
X169769500Y-109354032D01*
X128400500Y-109354032D01*
X128400500Y-107846608D01*
X128949500Y-107846608D01*
X128949500Y-107978392D01*
X128979579Y-108090651D01*
X128983609Y-108105690D01*
X129049496Y-108219809D01*
X129049498Y-108219811D01*
X129049500Y-108219814D01*
X129142686Y-108313000D01*
X129142688Y-108313001D01*
X129142690Y-108313003D01*
X129256810Y-108378890D01*
X129256808Y-108378890D01*
X129256812Y-108378891D01*
X129256814Y-108378892D01*
X129384108Y-108413000D01*
X129384110Y-108413000D01*
X129515890Y-108413000D01*
X129515892Y-108413000D01*
X129643186Y-108378892D01*
X129643188Y-108378890D01*
X129643190Y-108378890D01*
X129757309Y-108313003D01*
X129757309Y-108313002D01*
X129757314Y-108313000D01*
X129850500Y-108219814D01*
X129916392Y-108105686D01*
X129950500Y-107978392D01*
X129950500Y-107846608D01*
X130249500Y-107846608D01*
X130249500Y-107978392D01*
X130279579Y-108090651D01*
X130283609Y-108105690D01*
X130349496Y-108219809D01*
X130349498Y-108219811D01*
X130349500Y-108219814D01*
X130442686Y-108313000D01*
X130442688Y-108313001D01*
X130442690Y-108313003D01*
X130556810Y-108378890D01*
X130556808Y-108378890D01*
X130556812Y-108378891D01*
X130556814Y-108378892D01*
X130684108Y-108413000D01*
X130684110Y-108413000D01*
X130815890Y-108413000D01*
X130815892Y-108413000D01*
X130943186Y-108378892D01*
X130943188Y-108378890D01*
X130943190Y-108378890D01*
X131057309Y-108313003D01*
X131057309Y-108313002D01*
X131057314Y-108313000D01*
X131150500Y-108219814D01*
X131216392Y-108105686D01*
X131250500Y-107978392D01*
X131250500Y-107846608D01*
X131549500Y-107846608D01*
X131549500Y-107978392D01*
X131579579Y-108090651D01*
X131583609Y-108105690D01*
X131649496Y-108219809D01*
X131649498Y-108219811D01*
X131649500Y-108219814D01*
X131742686Y-108313000D01*
X131742688Y-108313001D01*
X131742690Y-108313003D01*
X131856810Y-108378890D01*
X131856808Y-108378890D01*
X131856812Y-108378891D01*
X131856814Y-108378892D01*
X131984108Y-108413000D01*
X131984110Y-108413000D01*
X132115890Y-108413000D01*
X132115892Y-108413000D01*
X132243186Y-108378892D01*
X132243188Y-108378890D01*
X132243190Y-108378890D01*
X132357309Y-108313003D01*
X132357309Y-108313002D01*
X132357314Y-108313000D01*
X132450500Y-108219814D01*
X132516392Y-108105686D01*
X132550500Y-107978392D01*
X132550500Y-107846608D01*
X132516392Y-107719314D01*
X132516390Y-107719311D01*
X132516390Y-107719309D01*
X132450503Y-107605190D01*
X132450501Y-107605188D01*
X132450500Y-107605186D01*
X132357314Y-107512000D01*
X132357311Y-107511998D01*
X132357309Y-107511996D01*
X132243189Y-107446109D01*
X132243191Y-107446109D01*
X132193799Y-107432875D01*
X132115892Y-107412000D01*
X131984108Y-107412000D01*
X131906200Y-107432875D01*
X131856809Y-107446109D01*
X131742690Y-107511996D01*
X131649496Y-107605190D01*
X131583609Y-107719309D01*
X131575386Y-107749998D01*
X131549500Y-107846608D01*
X131250500Y-107846608D01*
X131216392Y-107719314D01*
X131216390Y-107719311D01*
X131216390Y-107719309D01*
X131150503Y-107605190D01*
X131150501Y-107605188D01*
X131150500Y-107605186D01*
X131057314Y-107512000D01*
X131057311Y-107511998D01*
X131057309Y-107511996D01*
X130943189Y-107446109D01*
X130943191Y-107446109D01*
X130893799Y-107432875D01*
X130815892Y-107412000D01*
X130684108Y-107412000D01*
X130606200Y-107432875D01*
X130556809Y-107446109D01*
X130442690Y-107511996D01*
X130349496Y-107605190D01*
X130283609Y-107719309D01*
X130275386Y-107749998D01*
X130249500Y-107846608D01*
X129950500Y-107846608D01*
X129916392Y-107719314D01*
X129916390Y-107719311D01*
X129916390Y-107719309D01*
X129850503Y-107605190D01*
X129850501Y-107605188D01*
X129850500Y-107605186D01*
X129757314Y-107512000D01*
X129757311Y-107511998D01*
X129757309Y-107511996D01*
X129643189Y-107446109D01*
X129643191Y-107446109D01*
X129593799Y-107432875D01*
X129515892Y-107412000D01*
X129384108Y-107412000D01*
X129306200Y-107432875D01*
X129256809Y-107446109D01*
X129142690Y-107511996D01*
X129049496Y-107605190D01*
X128983609Y-107719309D01*
X128975386Y-107749998D01*
X128949500Y-107846608D01*
X128400500Y-107846608D01*
X128400500Y-106496532D01*
X169769500Y-106496532D01*
X169769500Y-106703467D01*
X169809869Y-106906418D01*
X169889058Y-107097597D01*
X169889059Y-107097598D01*
X170004023Y-107269655D01*
X170150345Y-107415977D01*
X170322402Y-107530941D01*
X170513580Y-107610130D01*
X170716535Y-107650500D01*
X170716536Y-107650500D01*
X170923464Y-107650500D01*
X170923465Y-107650500D01*
X171126420Y-107610130D01*
X171317598Y-107530941D01*
X171489655Y-107415977D01*
X171635977Y-107269655D01*
X171750941Y-107097598D01*
X171830130Y-106906420D01*
X171870500Y-106703465D01*
X171870500Y-106496535D01*
X171870499Y-106496532D01*
X172309500Y-106496532D01*
X172309500Y-106703467D01*
X172349869Y-106906418D01*
X172429058Y-107097597D01*
X172429059Y-107097598D01*
X172544023Y-107269655D01*
X172690345Y-107415977D01*
X172862402Y-107530941D01*
X173053580Y-107610130D01*
X173256535Y-107650500D01*
X173256536Y-107650500D01*
X173463464Y-107650500D01*
X173463465Y-107650500D01*
X173666420Y-107610130D01*
X173857598Y-107530941D01*
X174029655Y-107415977D01*
X174175977Y-107269655D01*
X174290941Y-107097598D01*
X174370130Y-106906420D01*
X174410500Y-106703465D01*
X174410500Y-106496535D01*
X174370130Y-106293580D01*
X174290941Y-106102402D01*
X174175977Y-105930345D01*
X174029655Y-105784023D01*
X173923334Y-105712982D01*
X173911690Y-105705202D01*
X174750000Y-105705202D01*
X174750000Y-106349999D01*
X174750001Y-106350000D01*
X175466988Y-106350000D01*
X175434075Y-106407007D01*
X175400000Y-106534174D01*
X175400000Y-106665826D01*
X175434075Y-106792993D01*
X175466988Y-106850000D01*
X174750002Y-106850000D01*
X174750001Y-106850001D01*
X174750001Y-107494791D01*
X174752909Y-107519874D01*
X174798213Y-107622477D01*
X174877522Y-107701786D01*
X174980127Y-107747090D01*
X175005203Y-107749999D01*
X175649998Y-107749999D01*
X175650000Y-107749998D01*
X175650000Y-107033012D01*
X175707007Y-107065925D01*
X175834174Y-107100000D01*
X175965826Y-107100000D01*
X176092993Y-107065925D01*
X176150000Y-107033012D01*
X176150000Y-107749998D01*
X176150001Y-107749999D01*
X176794790Y-107749999D01*
X176794791Y-107749998D01*
X176819874Y-107747090D01*
X176922477Y-107701786D01*
X177001786Y-107622477D01*
X177047090Y-107519872D01*
X177049999Y-107494797D01*
X177050000Y-107494795D01*
X177050000Y-106850001D01*
X177049999Y-106850000D01*
X176333012Y-106850000D01*
X176365925Y-106792993D01*
X176400000Y-106665826D01*
X176400000Y-106534174D01*
X176365925Y-106407007D01*
X176333012Y-106350000D01*
X177049998Y-106350000D01*
X177049999Y-106349999D01*
X177049999Y-105705210D01*
X177049998Y-105705208D01*
X177047090Y-105680125D01*
X177001786Y-105577522D01*
X176922477Y-105498213D01*
X176819872Y-105452909D01*
X176794797Y-105450000D01*
X176150001Y-105450000D01*
X176150000Y-105450001D01*
X176150000Y-106166988D01*
X176092993Y-106134075D01*
X175965826Y-106100000D01*
X175834174Y-106100000D01*
X175707007Y-106134075D01*
X175650000Y-106166988D01*
X175650000Y-105450001D01*
X175649999Y-105450000D01*
X175005210Y-105450000D01*
X175005207Y-105450001D01*
X174980125Y-105452909D01*
X174877522Y-105498213D01*
X174798213Y-105577522D01*
X174752909Y-105680127D01*
X174750000Y-105705202D01*
X173911690Y-105705202D01*
X173857597Y-105669058D01*
X173666418Y-105589869D01*
X173463467Y-105549500D01*
X173463465Y-105549500D01*
X173256535Y-105549500D01*
X173256532Y-105549500D01*
X173053581Y-105589869D01*
X172862402Y-105669058D01*
X172690348Y-105784020D01*
X172544020Y-105930348D01*
X172429058Y-106102402D01*
X172349869Y-106293581D01*
X172309500Y-106496532D01*
X171870499Y-106496532D01*
X171830130Y-106293580D01*
X171750941Y-106102402D01*
X171635977Y-105930345D01*
X171489655Y-105784023D01*
X171383334Y-105712982D01*
X171317597Y-105669058D01*
X171126418Y-105589869D01*
X170923467Y-105549500D01*
X170923465Y-105549500D01*
X170716535Y-105549500D01*
X170716532Y-105549500D01*
X170513581Y-105589869D01*
X170322402Y-105669058D01*
X170150348Y-105784020D01*
X170004020Y-105930348D01*
X169889058Y-106102402D01*
X169809869Y-106293581D01*
X169769500Y-106496532D01*
X128400500Y-106496532D01*
X128400500Y-105127525D01*
X165049500Y-105127525D01*
X165049500Y-105272474D01*
X165087017Y-105412489D01*
X165159487Y-105538010D01*
X165159489Y-105538012D01*
X165159491Y-105538015D01*
X165261985Y-105640509D01*
X165261987Y-105640510D01*
X165261989Y-105640512D01*
X165387511Y-105712982D01*
X165387512Y-105712982D01*
X165387515Y-105712984D01*
X165527525Y-105750500D01*
X165527526Y-105750500D01*
X165672474Y-105750500D01*
X165672475Y-105750500D01*
X165812485Y-105712984D01*
X165812487Y-105712982D01*
X165812489Y-105712982D01*
X165938010Y-105640512D01*
X165938010Y-105640511D01*
X165938015Y-105640509D01*
X166040509Y-105538015D01*
X166112984Y-105412485D01*
X166150500Y-105272475D01*
X166150500Y-105127525D01*
X166112984Y-104987515D01*
X166112982Y-104987512D01*
X166112982Y-104987510D01*
X166040512Y-104861989D01*
X166040510Y-104861987D01*
X166040509Y-104861985D01*
X165938015Y-104759491D01*
X165938012Y-104759489D01*
X165938010Y-104759487D01*
X165812488Y-104687017D01*
X165812489Y-104687017D01*
X165782896Y-104679087D01*
X165672475Y-104649500D01*
X165527525Y-104649500D01*
X165465790Y-104666041D01*
X165387510Y-104687017D01*
X165261989Y-104759487D01*
X165159487Y-104861989D01*
X165087017Y-104987510D01*
X165049500Y-105127525D01*
X128400500Y-105127525D01*
X128400500Y-103681532D01*
X169749500Y-103681532D01*
X169749500Y-103888467D01*
X169789869Y-104091418D01*
X169869058Y-104282597D01*
X169869059Y-104282598D01*
X169984023Y-104454655D01*
X170130345Y-104600977D01*
X170302402Y-104715941D01*
X170493580Y-104795130D01*
X170696535Y-104835500D01*
X170696536Y-104835500D01*
X170903464Y-104835500D01*
X170903465Y-104835500D01*
X171106420Y-104795130D01*
X171297598Y-104715941D01*
X171469655Y-104600977D01*
X171615977Y-104454655D01*
X171730941Y-104282598D01*
X171810130Y-104091420D01*
X171850500Y-103888465D01*
X171850500Y-103681535D01*
X171850499Y-103681532D01*
X172289500Y-103681532D01*
X172289500Y-103888467D01*
X172329869Y-104091418D01*
X172409058Y-104282597D01*
X172409059Y-104282598D01*
X172524023Y-104454655D01*
X172670345Y-104600977D01*
X172842402Y-104715941D01*
X173033580Y-104795130D01*
X173236535Y-104835500D01*
X173236536Y-104835500D01*
X173443464Y-104835500D01*
X173443465Y-104835500D01*
X173646420Y-104795130D01*
X173837598Y-104715941D01*
X174009655Y-104600977D01*
X174155977Y-104454655D01*
X174270941Y-104282598D01*
X174350130Y-104091420D01*
X174390500Y-103888465D01*
X174390500Y-103681535D01*
X174350130Y-103478580D01*
X174270941Y-103287402D01*
X174155977Y-103115345D01*
X174009655Y-102969023D01*
X174007338Y-102967475D01*
X173891690Y-102890202D01*
X174730000Y-102890202D01*
X174730000Y-103534999D01*
X174730001Y-103535000D01*
X175446988Y-103535000D01*
X175414075Y-103592007D01*
X175380000Y-103719174D01*
X175380000Y-103850826D01*
X175414075Y-103977993D01*
X175446988Y-104035000D01*
X174730002Y-104035000D01*
X174730001Y-104035001D01*
X174730001Y-104679791D01*
X174732909Y-104704874D01*
X174778213Y-104807477D01*
X174857522Y-104886786D01*
X174960127Y-104932090D01*
X174985203Y-104934999D01*
X175629998Y-104934999D01*
X175630000Y-104934998D01*
X175630000Y-104218012D01*
X175687007Y-104250925D01*
X175814174Y-104285000D01*
X175945826Y-104285000D01*
X176072993Y-104250925D01*
X176130000Y-104218012D01*
X176130000Y-104934998D01*
X176130001Y-104934999D01*
X176774790Y-104934999D01*
X176774791Y-104934998D01*
X176799874Y-104932090D01*
X176902477Y-104886786D01*
X176981786Y-104807477D01*
X177027090Y-104704872D01*
X177029999Y-104679797D01*
X177030000Y-104679795D01*
X177030000Y-104035001D01*
X177029999Y-104035000D01*
X176313012Y-104035000D01*
X176345925Y-103977993D01*
X176380000Y-103850826D01*
X176380000Y-103719174D01*
X176345925Y-103592007D01*
X176313012Y-103535000D01*
X177029998Y-103535000D01*
X177029999Y-103534999D01*
X177029999Y-102890210D01*
X177029998Y-102890208D01*
X177027090Y-102865125D01*
X176981786Y-102762522D01*
X176902477Y-102683213D01*
X176799872Y-102637909D01*
X176774797Y-102635000D01*
X176130001Y-102635000D01*
X176130000Y-102635001D01*
X176130000Y-103351988D01*
X176072993Y-103319075D01*
X175945826Y-103285000D01*
X175814174Y-103285000D01*
X175687007Y-103319075D01*
X175630000Y-103351988D01*
X175630000Y-102635001D01*
X175629999Y-102635000D01*
X174985210Y-102635000D01*
X174985207Y-102635001D01*
X174960125Y-102637909D01*
X174857522Y-102683213D01*
X174778213Y-102762522D01*
X174732909Y-102865127D01*
X174730000Y-102890202D01*
X173891690Y-102890202D01*
X173837597Y-102854058D01*
X173646418Y-102774869D01*
X173443467Y-102734500D01*
X173443465Y-102734500D01*
X173236535Y-102734500D01*
X173236532Y-102734500D01*
X173033581Y-102774869D01*
X172842402Y-102854058D01*
X172670348Y-102969020D01*
X172524020Y-103115348D01*
X172409058Y-103287402D01*
X172329869Y-103478581D01*
X172289500Y-103681532D01*
X171850499Y-103681532D01*
X171810130Y-103478580D01*
X171730941Y-103287402D01*
X171615977Y-103115345D01*
X171469655Y-102969023D01*
X171469651Y-102969020D01*
X171297597Y-102854058D01*
X171106418Y-102774869D01*
X170903467Y-102734500D01*
X170903465Y-102734500D01*
X170696535Y-102734500D01*
X170696532Y-102734500D01*
X170493581Y-102774869D01*
X170302402Y-102854058D01*
X170130348Y-102969020D01*
X169984020Y-103115348D01*
X169869058Y-103287402D01*
X169789869Y-103478581D01*
X169749500Y-103681532D01*
X128400500Y-103681532D01*
X128400500Y-101927525D01*
X149649500Y-101927525D01*
X149649500Y-102072474D01*
X149687017Y-102212489D01*
X149759487Y-102338010D01*
X149759489Y-102338012D01*
X149759491Y-102338015D01*
X149861985Y-102440509D01*
X149861987Y-102440510D01*
X149861989Y-102440512D01*
X149987511Y-102512982D01*
X149987512Y-102512982D01*
X149987515Y-102512984D01*
X150127525Y-102550500D01*
X150127526Y-102550500D01*
X150272474Y-102550500D01*
X150272475Y-102550500D01*
X150412485Y-102512984D01*
X150412487Y-102512982D01*
X150412489Y-102512982D01*
X150538010Y-102440512D01*
X150538010Y-102440511D01*
X150538015Y-102440509D01*
X150640509Y-102338015D01*
X150704301Y-102227525D01*
X165649500Y-102227525D01*
X165649500Y-102372474D01*
X165687017Y-102512489D01*
X165759487Y-102638010D01*
X165759489Y-102638012D01*
X165759491Y-102638015D01*
X165861985Y-102740509D01*
X165861987Y-102740510D01*
X165861989Y-102740512D01*
X165987511Y-102812982D01*
X165987512Y-102812982D01*
X165987515Y-102812984D01*
X166127525Y-102850500D01*
X166127526Y-102850500D01*
X166272474Y-102850500D01*
X166272475Y-102850500D01*
X166412485Y-102812984D01*
X166412487Y-102812982D01*
X166412489Y-102812982D01*
X166538010Y-102740512D01*
X166538010Y-102740511D01*
X166538015Y-102740509D01*
X166640509Y-102638015D01*
X166712984Y-102512485D01*
X166750500Y-102372475D01*
X166750500Y-102227525D01*
X166712984Y-102087515D01*
X166712982Y-102087512D01*
X166712982Y-102087510D01*
X166640512Y-101961989D01*
X166640510Y-101961987D01*
X166640509Y-101961985D01*
X166538015Y-101859491D01*
X166538012Y-101859489D01*
X166538010Y-101859487D01*
X166412488Y-101787017D01*
X166412489Y-101787017D01*
X166382896Y-101779087D01*
X166272475Y-101749500D01*
X166127525Y-101749500D01*
X166065790Y-101766041D01*
X165987510Y-101787017D01*
X165861989Y-101859487D01*
X165759487Y-101961989D01*
X165687017Y-102087510D01*
X165649500Y-102227525D01*
X150704301Y-102227525D01*
X150712984Y-102212485D01*
X150750500Y-102072475D01*
X150750500Y-101927525D01*
X150712984Y-101787515D01*
X150712982Y-101787512D01*
X150712982Y-101787510D01*
X150640512Y-101661989D01*
X150640510Y-101661987D01*
X150640509Y-101661985D01*
X150538015Y-101559491D01*
X150538012Y-101559489D01*
X150538010Y-101559487D01*
X150412488Y-101487017D01*
X150412489Y-101487017D01*
X150361763Y-101473425D01*
X150272475Y-101449500D01*
X150127525Y-101449500D01*
X150065790Y-101466041D01*
X149987510Y-101487017D01*
X149861989Y-101559487D01*
X149759487Y-101661989D01*
X149687017Y-101787510D01*
X149649500Y-101927525D01*
X128400500Y-101927525D01*
X128400500Y-100904032D01*
X169749500Y-100904032D01*
X169749500Y-101110967D01*
X169789869Y-101313918D01*
X169869058Y-101505097D01*
X169973889Y-101661989D01*
X169984023Y-101677155D01*
X170130345Y-101823477D01*
X170302402Y-101938441D01*
X170493580Y-102017630D01*
X170696535Y-102058000D01*
X170696536Y-102058000D01*
X170903464Y-102058000D01*
X170903465Y-102058000D01*
X171106420Y-102017630D01*
X171297598Y-101938441D01*
X171469655Y-101823477D01*
X171615977Y-101677155D01*
X171730941Y-101505098D01*
X171810130Y-101313920D01*
X171850500Y-101110965D01*
X171850500Y-100904035D01*
X171850499Y-100904032D01*
X172289500Y-100904032D01*
X172289500Y-101110967D01*
X172329869Y-101313918D01*
X172409058Y-101505097D01*
X172513889Y-101661989D01*
X172524023Y-101677155D01*
X172670345Y-101823477D01*
X172842402Y-101938441D01*
X173033580Y-102017630D01*
X173236535Y-102058000D01*
X173236536Y-102058000D01*
X173443464Y-102058000D01*
X173443465Y-102058000D01*
X173646420Y-102017630D01*
X173837598Y-101938441D01*
X174009655Y-101823477D01*
X174155977Y-101677155D01*
X174270941Y-101505098D01*
X174350130Y-101313920D01*
X174390500Y-101110965D01*
X174390500Y-100904035D01*
X174350130Y-100701080D01*
X174270941Y-100509902D01*
X174155977Y-100337845D01*
X174009655Y-100191523D01*
X174007338Y-100189975D01*
X173891690Y-100112702D01*
X174730000Y-100112702D01*
X174730000Y-100757499D01*
X174730001Y-100757500D01*
X175446988Y-100757500D01*
X175414075Y-100814507D01*
X175380000Y-100941674D01*
X175380000Y-101073326D01*
X175414075Y-101200493D01*
X175446988Y-101257500D01*
X174730002Y-101257500D01*
X174730001Y-101257501D01*
X174730001Y-101902291D01*
X174732909Y-101927374D01*
X174778213Y-102029977D01*
X174857522Y-102109286D01*
X174960127Y-102154590D01*
X174985203Y-102157499D01*
X175629998Y-102157499D01*
X175630000Y-102157498D01*
X175630000Y-101440512D01*
X175687007Y-101473425D01*
X175814174Y-101507500D01*
X175945826Y-101507500D01*
X176072993Y-101473425D01*
X176130000Y-101440512D01*
X176130000Y-102157498D01*
X176130001Y-102157499D01*
X176774790Y-102157499D01*
X176774791Y-102157498D01*
X176799874Y-102154590D01*
X176902477Y-102109286D01*
X176981786Y-102029977D01*
X177027090Y-101927372D01*
X177029999Y-101902297D01*
X177030000Y-101902295D01*
X177030000Y-101257501D01*
X177029999Y-101257500D01*
X176313012Y-101257500D01*
X176345925Y-101200493D01*
X176380000Y-101073326D01*
X176380000Y-100941674D01*
X176345925Y-100814507D01*
X176313012Y-100757500D01*
X177029998Y-100757500D01*
X177029999Y-100757499D01*
X177029999Y-100112710D01*
X177029998Y-100112708D01*
X177027090Y-100087625D01*
X176981786Y-99985022D01*
X176902477Y-99905713D01*
X176799872Y-99860409D01*
X176774797Y-99857500D01*
X176130001Y-99857500D01*
X176130000Y-99857501D01*
X176130000Y-100574488D01*
X176072993Y-100541575D01*
X175945826Y-100507500D01*
X175814174Y-100507500D01*
X175687007Y-100541575D01*
X175630000Y-100574488D01*
X175630000Y-99857501D01*
X175629999Y-99857500D01*
X174985210Y-99857500D01*
X174985207Y-99857501D01*
X174960125Y-99860409D01*
X174857522Y-99905713D01*
X174778213Y-99985022D01*
X174732909Y-100087627D01*
X174730000Y-100112702D01*
X173891690Y-100112702D01*
X173837597Y-100076558D01*
X173646418Y-99997369D01*
X173443467Y-99957000D01*
X173443465Y-99957000D01*
X173236535Y-99957000D01*
X173236532Y-99957000D01*
X173033581Y-99997369D01*
X172842402Y-100076558D01*
X172670348Y-100191520D01*
X172524020Y-100337848D01*
X172409058Y-100509902D01*
X172329869Y-100701081D01*
X172289500Y-100904032D01*
X171850499Y-100904032D01*
X171810130Y-100701080D01*
X171730941Y-100509902D01*
X171615977Y-100337845D01*
X171469655Y-100191523D01*
X171469651Y-100191520D01*
X171297597Y-100076558D01*
X171106418Y-99997369D01*
X170903467Y-99957000D01*
X170903465Y-99957000D01*
X170696535Y-99957000D01*
X170696532Y-99957000D01*
X170493581Y-99997369D01*
X170302402Y-100076558D01*
X170130348Y-100191520D01*
X169984020Y-100337848D01*
X169869058Y-100509902D01*
X169789869Y-100701081D01*
X169749500Y-100904032D01*
X128400500Y-100904032D01*
X128400500Y-99227525D01*
X154449500Y-99227525D01*
X154449500Y-99372474D01*
X154487017Y-99512489D01*
X154559487Y-99638010D01*
X154559489Y-99638012D01*
X154559491Y-99638015D01*
X154661985Y-99740509D01*
X154661987Y-99740510D01*
X154661989Y-99740512D01*
X154787511Y-99812982D01*
X154787512Y-99812982D01*
X154787515Y-99812984D01*
X154927525Y-99850500D01*
X154927526Y-99850500D01*
X155072474Y-99850500D01*
X155072475Y-99850500D01*
X155212485Y-99812984D01*
X155212487Y-99812982D01*
X155212489Y-99812982D01*
X155338010Y-99740512D01*
X155338010Y-99740511D01*
X155338015Y-99740509D01*
X155440509Y-99638015D01*
X155512984Y-99512485D01*
X155550500Y-99372475D01*
X155550500Y-99227525D01*
X155512984Y-99087515D01*
X155512982Y-99087512D01*
X155512982Y-99087510D01*
X155440512Y-98961989D01*
X155440510Y-98961987D01*
X155440509Y-98961985D01*
X155338015Y-98859491D01*
X155338012Y-98859489D01*
X155338010Y-98859487D01*
X155212488Y-98787017D01*
X155212489Y-98787017D01*
X155182896Y-98779087D01*
X155072475Y-98749500D01*
X154927525Y-98749500D01*
X154865790Y-98766041D01*
X154787510Y-98787017D01*
X154661989Y-98859487D01*
X154559487Y-98961989D01*
X154487017Y-99087510D01*
X154449500Y-99227525D01*
X128400500Y-99227525D01*
X128400500Y-98427525D01*
X158549500Y-98427525D01*
X158549500Y-98572474D01*
X158587017Y-98712489D01*
X158659487Y-98838010D01*
X158659489Y-98838012D01*
X158659491Y-98838015D01*
X158761985Y-98940509D01*
X158761987Y-98940510D01*
X158761989Y-98940512D01*
X158887511Y-99012982D01*
X158887512Y-99012982D01*
X158887515Y-99012984D01*
X159027525Y-99050500D01*
X159027526Y-99050500D01*
X159172474Y-99050500D01*
X159172475Y-99050500D01*
X159312485Y-99012984D01*
X159312487Y-99012982D01*
X159312489Y-99012982D01*
X159438010Y-98940512D01*
X159438010Y-98940511D01*
X159438015Y-98940509D01*
X159540509Y-98838015D01*
X159569953Y-98787017D01*
X159612982Y-98712489D01*
X159612982Y-98712487D01*
X159612984Y-98712485D01*
X159650500Y-98572475D01*
X159650500Y-98427525D01*
X159612984Y-98287515D01*
X159612982Y-98287512D01*
X159612982Y-98287510D01*
X159540512Y-98161989D01*
X159540510Y-98161987D01*
X159540509Y-98161985D01*
X159482556Y-98104032D01*
X169749500Y-98104032D01*
X169749500Y-98310967D01*
X169789869Y-98513918D01*
X169869058Y-98705097D01*
X169972220Y-98859491D01*
X169984023Y-98877155D01*
X170130345Y-99023477D01*
X170302402Y-99138441D01*
X170493580Y-99217630D01*
X170696535Y-99258000D01*
X170696536Y-99258000D01*
X170903464Y-99258000D01*
X170903465Y-99258000D01*
X171106420Y-99217630D01*
X171297598Y-99138441D01*
X171469655Y-99023477D01*
X171615977Y-98877155D01*
X171730941Y-98705098D01*
X171810130Y-98513920D01*
X171850500Y-98310965D01*
X171850500Y-98104035D01*
X171850499Y-98104032D01*
X172289500Y-98104032D01*
X172289500Y-98310967D01*
X172329869Y-98513918D01*
X172409058Y-98705097D01*
X172512220Y-98859491D01*
X172524023Y-98877155D01*
X172670345Y-99023477D01*
X172842402Y-99138441D01*
X173033580Y-99217630D01*
X173236535Y-99258000D01*
X173236536Y-99258000D01*
X173443464Y-99258000D01*
X173443465Y-99258000D01*
X173646420Y-99217630D01*
X173837598Y-99138441D01*
X174009655Y-99023477D01*
X174155977Y-98877155D01*
X174270941Y-98705098D01*
X174350130Y-98513920D01*
X174390500Y-98310965D01*
X174390500Y-98104035D01*
X174350130Y-97901080D01*
X174270941Y-97709902D01*
X174155977Y-97537845D01*
X174009655Y-97391523D01*
X174007338Y-97389975D01*
X173891690Y-97312702D01*
X174730000Y-97312702D01*
X174730000Y-97957499D01*
X174730001Y-97957500D01*
X175446988Y-97957500D01*
X175414075Y-98014507D01*
X175380000Y-98141674D01*
X175380000Y-98273326D01*
X175414075Y-98400493D01*
X175446988Y-98457500D01*
X174730002Y-98457500D01*
X174730001Y-98457501D01*
X174730001Y-99102291D01*
X174732909Y-99127374D01*
X174778213Y-99229977D01*
X174857522Y-99309286D01*
X174960127Y-99354590D01*
X174985203Y-99357499D01*
X175629998Y-99357499D01*
X175630000Y-99357498D01*
X175630000Y-98640512D01*
X175687007Y-98673425D01*
X175814174Y-98707500D01*
X175945826Y-98707500D01*
X176072993Y-98673425D01*
X176130000Y-98640512D01*
X176130000Y-99357498D01*
X176130001Y-99357499D01*
X176774790Y-99357499D01*
X176774791Y-99357498D01*
X176799874Y-99354590D01*
X176902477Y-99309286D01*
X176981786Y-99229977D01*
X177027090Y-99127372D01*
X177029999Y-99102297D01*
X177030000Y-99102295D01*
X177030000Y-98457501D01*
X177029999Y-98457500D01*
X176313012Y-98457500D01*
X176345925Y-98400493D01*
X176380000Y-98273326D01*
X176380000Y-98141674D01*
X176345925Y-98014507D01*
X176313012Y-97957500D01*
X177029998Y-97957500D01*
X177029999Y-97957499D01*
X177029999Y-97312710D01*
X177029998Y-97312708D01*
X177027090Y-97287625D01*
X176981786Y-97185022D01*
X176902477Y-97105713D01*
X176799872Y-97060409D01*
X176774797Y-97057500D01*
X176130001Y-97057500D01*
X176130000Y-97057501D01*
X176130000Y-97774488D01*
X176072993Y-97741575D01*
X175945826Y-97707500D01*
X175814174Y-97707500D01*
X175687007Y-97741575D01*
X175630000Y-97774488D01*
X175630000Y-97057501D01*
X175629999Y-97057500D01*
X174985210Y-97057500D01*
X174985207Y-97057501D01*
X174960125Y-97060409D01*
X174857522Y-97105713D01*
X174778213Y-97185022D01*
X174732909Y-97287627D01*
X174730000Y-97312702D01*
X173891690Y-97312702D01*
X173837597Y-97276558D01*
X173646418Y-97197369D01*
X173443467Y-97157000D01*
X173443465Y-97157000D01*
X173236535Y-97157000D01*
X173236532Y-97157000D01*
X173033581Y-97197369D01*
X172842402Y-97276558D01*
X172670348Y-97391520D01*
X172524020Y-97537848D01*
X172409058Y-97709902D01*
X172329869Y-97901081D01*
X172289500Y-98104032D01*
X171850499Y-98104032D01*
X171810130Y-97901080D01*
X171730941Y-97709902D01*
X171615977Y-97537845D01*
X171469655Y-97391523D01*
X171469651Y-97391520D01*
X171297597Y-97276558D01*
X171106418Y-97197369D01*
X170903467Y-97157000D01*
X170903465Y-97157000D01*
X170696535Y-97157000D01*
X170696532Y-97157000D01*
X170493581Y-97197369D01*
X170302402Y-97276558D01*
X170130348Y-97391520D01*
X169984020Y-97537848D01*
X169869058Y-97709902D01*
X169789869Y-97901081D01*
X169749500Y-98104032D01*
X159482556Y-98104032D01*
X159438015Y-98059491D01*
X159438012Y-98059489D01*
X159438010Y-98059487D01*
X159312488Y-97987017D01*
X159312489Y-97987017D01*
X159282896Y-97979087D01*
X159172475Y-97949500D01*
X159027525Y-97949500D01*
X158997673Y-97957499D01*
X158887510Y-97987017D01*
X158761989Y-98059487D01*
X158659487Y-98161989D01*
X158587017Y-98287510D01*
X158549500Y-98427525D01*
X128400500Y-98427525D01*
X128400500Y-95946608D01*
X129049500Y-95946608D01*
X129049500Y-96078392D01*
X129079579Y-96190651D01*
X129083609Y-96205690D01*
X129149496Y-96319809D01*
X129149498Y-96319811D01*
X129149500Y-96319814D01*
X129242686Y-96413000D01*
X129242688Y-96413001D01*
X129242690Y-96413003D01*
X129356810Y-96478890D01*
X129356808Y-96478890D01*
X129356812Y-96478891D01*
X129356814Y-96478892D01*
X129484108Y-96513000D01*
X129484110Y-96513000D01*
X129615890Y-96513000D01*
X129615892Y-96513000D01*
X129743186Y-96478892D01*
X129743188Y-96478890D01*
X129743190Y-96478890D01*
X129857309Y-96413003D01*
X129857309Y-96413002D01*
X129857314Y-96413000D01*
X129950500Y-96319814D01*
X129956462Y-96309487D01*
X130016390Y-96205690D01*
X130016390Y-96205688D01*
X130016392Y-96205686D01*
X130050500Y-96078392D01*
X130050500Y-95946608D01*
X130549500Y-95946608D01*
X130549500Y-96078392D01*
X130579579Y-96190651D01*
X130583609Y-96205690D01*
X130649496Y-96319809D01*
X130649498Y-96319811D01*
X130649500Y-96319814D01*
X130742686Y-96413000D01*
X130742688Y-96413001D01*
X130742690Y-96413003D01*
X130856810Y-96478890D01*
X130856808Y-96478890D01*
X130856812Y-96478891D01*
X130856814Y-96478892D01*
X130984108Y-96513000D01*
X130984110Y-96513000D01*
X131115890Y-96513000D01*
X131115892Y-96513000D01*
X131243186Y-96478892D01*
X131243188Y-96478890D01*
X131243190Y-96478890D01*
X131357309Y-96413003D01*
X131357309Y-96413002D01*
X131357314Y-96413000D01*
X131450500Y-96319814D01*
X131456462Y-96309487D01*
X131516390Y-96205690D01*
X131516390Y-96205688D01*
X131516392Y-96205686D01*
X131550500Y-96078392D01*
X131550500Y-95946608D01*
X131849500Y-95946608D01*
X131849500Y-96078392D01*
X131879579Y-96190651D01*
X131883609Y-96205690D01*
X131949496Y-96319809D01*
X131949498Y-96319811D01*
X131949500Y-96319814D01*
X132042686Y-96413000D01*
X132042688Y-96413001D01*
X132042690Y-96413003D01*
X132156810Y-96478890D01*
X132156808Y-96478890D01*
X132156812Y-96478891D01*
X132156814Y-96478892D01*
X132284108Y-96513000D01*
X132284110Y-96513000D01*
X132415890Y-96513000D01*
X132415892Y-96513000D01*
X132543186Y-96478892D01*
X132543188Y-96478890D01*
X132543190Y-96478890D01*
X132657309Y-96413003D01*
X132657309Y-96413002D01*
X132657314Y-96413000D01*
X132730289Y-96340025D01*
X138599500Y-96340025D01*
X138599500Y-96484975D01*
X138618933Y-96557498D01*
X138637017Y-96624989D01*
X138709487Y-96750510D01*
X138709489Y-96750512D01*
X138709491Y-96750515D01*
X138811985Y-96853009D01*
X138811987Y-96853010D01*
X138811989Y-96853012D01*
X138937511Y-96925482D01*
X138937512Y-96925482D01*
X138937515Y-96925484D01*
X139077525Y-96963000D01*
X139077526Y-96963000D01*
X139222474Y-96963000D01*
X139222475Y-96963000D01*
X139362485Y-96925484D01*
X139362487Y-96925482D01*
X139362489Y-96925482D01*
X139488010Y-96853012D01*
X139488010Y-96853011D01*
X139488015Y-96853009D01*
X139590509Y-96750515D01*
X139632650Y-96677525D01*
X165899500Y-96677525D01*
X165899500Y-96822475D01*
X165929087Y-96932896D01*
X165937017Y-96962489D01*
X166009487Y-97088010D01*
X166009489Y-97088012D01*
X166009491Y-97088015D01*
X166111985Y-97190509D01*
X166111987Y-97190510D01*
X166111989Y-97190512D01*
X166237511Y-97262982D01*
X166237512Y-97262982D01*
X166237515Y-97262984D01*
X166377525Y-97300500D01*
X166377526Y-97300500D01*
X166522474Y-97300500D01*
X166522475Y-97300500D01*
X166662485Y-97262984D01*
X166662487Y-97262982D01*
X166662489Y-97262982D01*
X166788010Y-97190512D01*
X166788010Y-97190511D01*
X166788015Y-97190509D01*
X166890509Y-97088015D01*
X166890512Y-97088010D01*
X166962982Y-96962489D01*
X166962982Y-96962487D01*
X166962984Y-96962485D01*
X167000500Y-96822475D01*
X167000500Y-96677525D01*
X166962984Y-96537515D01*
X166962982Y-96537512D01*
X166962982Y-96537510D01*
X166890512Y-96411989D01*
X166890510Y-96411987D01*
X166890509Y-96411985D01*
X166788015Y-96309491D01*
X166788012Y-96309489D01*
X166788010Y-96309487D01*
X166662488Y-96237017D01*
X166662489Y-96237017D01*
X166611957Y-96223477D01*
X166522475Y-96199500D01*
X166377525Y-96199500D01*
X166354439Y-96205686D01*
X166237510Y-96237017D01*
X166111989Y-96309487D01*
X166009487Y-96411989D01*
X165937017Y-96537510D01*
X165931661Y-96557499D01*
X165899500Y-96677525D01*
X139632650Y-96677525D01*
X139662984Y-96624985D01*
X139700500Y-96484975D01*
X139700500Y-96340025D01*
X139662984Y-96200015D01*
X139662982Y-96200012D01*
X139662982Y-96200010D01*
X139590512Y-96074489D01*
X139590510Y-96074487D01*
X139590509Y-96074485D01*
X139488015Y-95971991D01*
X139488012Y-95971989D01*
X139488010Y-95971987D01*
X139362488Y-95899517D01*
X139362489Y-95899517D01*
X139265113Y-95873425D01*
X139222475Y-95862000D01*
X139077525Y-95862000D01*
X139034887Y-95873425D01*
X138937510Y-95899517D01*
X138811989Y-95971987D01*
X138709487Y-96074489D01*
X138637017Y-96200010D01*
X138627101Y-96237016D01*
X138599500Y-96340025D01*
X132730289Y-96340025D01*
X132750500Y-96319814D01*
X132806120Y-96223479D01*
X132816390Y-96205690D01*
X132816390Y-96205688D01*
X132816392Y-96205686D01*
X132850500Y-96078392D01*
X132850500Y-95946608D01*
X132816392Y-95819314D01*
X132816390Y-95819311D01*
X132816390Y-95819309D01*
X132750503Y-95705190D01*
X132750501Y-95705188D01*
X132750500Y-95705186D01*
X132657314Y-95612000D01*
X132657311Y-95611998D01*
X132657309Y-95611996D01*
X132543189Y-95546109D01*
X132543191Y-95546109D01*
X132493799Y-95532875D01*
X132415892Y-95512000D01*
X132284108Y-95512000D01*
X132206200Y-95532875D01*
X132156809Y-95546109D01*
X132042690Y-95611996D01*
X131949496Y-95705190D01*
X131883609Y-95819309D01*
X131883608Y-95819314D01*
X131849500Y-95946608D01*
X131550500Y-95946608D01*
X131516392Y-95819314D01*
X131516390Y-95819311D01*
X131516390Y-95819309D01*
X131450503Y-95705190D01*
X131450501Y-95705188D01*
X131450500Y-95705186D01*
X131357314Y-95612000D01*
X131357311Y-95611998D01*
X131357309Y-95611996D01*
X131243189Y-95546109D01*
X131243191Y-95546109D01*
X131193799Y-95532875D01*
X131115892Y-95512000D01*
X130984108Y-95512000D01*
X130906200Y-95532875D01*
X130856809Y-95546109D01*
X130742690Y-95611996D01*
X130649496Y-95705190D01*
X130583609Y-95819309D01*
X130583608Y-95819314D01*
X130549500Y-95946608D01*
X130050500Y-95946608D01*
X130016392Y-95819314D01*
X130016390Y-95819311D01*
X130016390Y-95819309D01*
X129950503Y-95705190D01*
X129950501Y-95705188D01*
X129950500Y-95705186D01*
X129857314Y-95612000D01*
X129857311Y-95611998D01*
X129857309Y-95611996D01*
X129743189Y-95546109D01*
X129743191Y-95546109D01*
X129693799Y-95532875D01*
X129615892Y-95512000D01*
X129484108Y-95512000D01*
X129406200Y-95532875D01*
X129356809Y-95546109D01*
X129242690Y-95611996D01*
X129149496Y-95705190D01*
X129083609Y-95819309D01*
X129083608Y-95819314D01*
X129049500Y-95946608D01*
X128400500Y-95946608D01*
X128400500Y-95304032D01*
X169749500Y-95304032D01*
X169749500Y-95510967D01*
X169789869Y-95713918D01*
X169869058Y-95905097D01*
X169984020Y-96077151D01*
X169984023Y-96077155D01*
X170130345Y-96223477D01*
X170302402Y-96338441D01*
X170493580Y-96417630D01*
X170696535Y-96458000D01*
X170696536Y-96458000D01*
X170903464Y-96458000D01*
X170903465Y-96458000D01*
X171106420Y-96417630D01*
X171297598Y-96338441D01*
X171469655Y-96223477D01*
X171615977Y-96077155D01*
X171730941Y-95905098D01*
X171810130Y-95713920D01*
X171850500Y-95510965D01*
X171850500Y-95304035D01*
X171850499Y-95304032D01*
X172289500Y-95304032D01*
X172289500Y-95510967D01*
X172329869Y-95713918D01*
X172409058Y-95905097D01*
X172524020Y-96077151D01*
X172524023Y-96077155D01*
X172670345Y-96223477D01*
X172842402Y-96338441D01*
X173033580Y-96417630D01*
X173236535Y-96458000D01*
X173236536Y-96458000D01*
X173443464Y-96458000D01*
X173443465Y-96458000D01*
X173646420Y-96417630D01*
X173837598Y-96338441D01*
X174009655Y-96223477D01*
X174155977Y-96077155D01*
X174270941Y-95905098D01*
X174350130Y-95713920D01*
X174390500Y-95510965D01*
X174390500Y-95304035D01*
X174350130Y-95101080D01*
X174270941Y-94909902D01*
X174155977Y-94737845D01*
X174009655Y-94591523D01*
X174007338Y-94589975D01*
X173891690Y-94512702D01*
X174730000Y-94512702D01*
X174730000Y-95157499D01*
X174730001Y-95157500D01*
X175446988Y-95157500D01*
X175414075Y-95214507D01*
X175380000Y-95341674D01*
X175380000Y-95473326D01*
X175414075Y-95600493D01*
X175446988Y-95657500D01*
X174730002Y-95657500D01*
X174730001Y-95657501D01*
X174730001Y-96302291D01*
X174732909Y-96327374D01*
X174778213Y-96429977D01*
X174857522Y-96509286D01*
X174960127Y-96554590D01*
X174985203Y-96557499D01*
X175629998Y-96557499D01*
X175630000Y-96557498D01*
X175630000Y-95840512D01*
X175687007Y-95873425D01*
X175814174Y-95907500D01*
X175945826Y-95907500D01*
X176072993Y-95873425D01*
X176130000Y-95840512D01*
X176130000Y-96557498D01*
X176130001Y-96557499D01*
X176774790Y-96557499D01*
X176774791Y-96557498D01*
X176799874Y-96554590D01*
X176902477Y-96509286D01*
X176981786Y-96429977D01*
X177027090Y-96327372D01*
X177029999Y-96302297D01*
X177030000Y-96302295D01*
X177030000Y-95657501D01*
X177029999Y-95657500D01*
X176313012Y-95657500D01*
X176345925Y-95600493D01*
X176380000Y-95473326D01*
X176380000Y-95341674D01*
X176345925Y-95214507D01*
X176313012Y-95157500D01*
X177029998Y-95157500D01*
X177029999Y-95157499D01*
X177029999Y-94512710D01*
X177029998Y-94512708D01*
X177027090Y-94487625D01*
X176981786Y-94385022D01*
X176902477Y-94305713D01*
X176799872Y-94260409D01*
X176774797Y-94257500D01*
X176130001Y-94257500D01*
X176130000Y-94257501D01*
X176130000Y-94974488D01*
X176072993Y-94941575D01*
X175945826Y-94907500D01*
X175814174Y-94907500D01*
X175687007Y-94941575D01*
X175630000Y-94974488D01*
X175630000Y-94257501D01*
X175629999Y-94257500D01*
X174985210Y-94257500D01*
X174985207Y-94257501D01*
X174960125Y-94260409D01*
X174857522Y-94305713D01*
X174778213Y-94385022D01*
X174732909Y-94487627D01*
X174730000Y-94512702D01*
X173891690Y-94512702D01*
X173837597Y-94476558D01*
X173646418Y-94397369D01*
X173443467Y-94357000D01*
X173443465Y-94357000D01*
X173236535Y-94357000D01*
X173236532Y-94357000D01*
X173033581Y-94397369D01*
X172842402Y-94476558D01*
X172670348Y-94591520D01*
X172524020Y-94737848D01*
X172409058Y-94909902D01*
X172329869Y-95101081D01*
X172289500Y-95304032D01*
X171850499Y-95304032D01*
X171810130Y-95101080D01*
X171730941Y-94909902D01*
X171615977Y-94737845D01*
X171469655Y-94591523D01*
X171469651Y-94591520D01*
X171297597Y-94476558D01*
X171106418Y-94397369D01*
X170903467Y-94357000D01*
X170903465Y-94357000D01*
X170696535Y-94357000D01*
X170696532Y-94357000D01*
X170493581Y-94397369D01*
X170302402Y-94476558D01*
X170130348Y-94591520D01*
X169984020Y-94737848D01*
X169869058Y-94909902D01*
X169789869Y-95101081D01*
X169749500Y-95304032D01*
X128400500Y-95304032D01*
X128400500Y-94427525D01*
X135349500Y-94427525D01*
X135349500Y-94572475D01*
X135354604Y-94591523D01*
X135387017Y-94712489D01*
X135459487Y-94838010D01*
X135459489Y-94838012D01*
X135459491Y-94838015D01*
X135561985Y-94940509D01*
X135561987Y-94940510D01*
X135561989Y-94940512D01*
X135687511Y-95012982D01*
X135687512Y-95012982D01*
X135687515Y-95012984D01*
X135827525Y-95050500D01*
X135827526Y-95050500D01*
X135972474Y-95050500D01*
X135972475Y-95050500D01*
X136112485Y-95012984D01*
X136112487Y-95012982D01*
X136112489Y-95012982D01*
X136238010Y-94940512D01*
X136238010Y-94940511D01*
X136238015Y-94940509D01*
X136340509Y-94838015D01*
X136398341Y-94737848D01*
X136412982Y-94712489D01*
X136412982Y-94712487D01*
X136412984Y-94712485D01*
X136450500Y-94572475D01*
X136450500Y-94427525D01*
X136412984Y-94287515D01*
X136412982Y-94287512D01*
X136412982Y-94287510D01*
X136340512Y-94161989D01*
X136340510Y-94161987D01*
X136340509Y-94161985D01*
X136238015Y-94059491D01*
X136238012Y-94059489D01*
X136238010Y-94059487D01*
X136112488Y-93987017D01*
X136112489Y-93987017D01*
X136082896Y-93979087D01*
X135972475Y-93949500D01*
X135827525Y-93949500D01*
X135765790Y-93966041D01*
X135687510Y-93987017D01*
X135561989Y-94059487D01*
X135459487Y-94161989D01*
X135387017Y-94287510D01*
X135373486Y-94338010D01*
X135349500Y-94427525D01*
X128400500Y-94427525D01*
X128400500Y-93727525D01*
X148749500Y-93727525D01*
X148749500Y-93872475D01*
X148764251Y-93927525D01*
X148787017Y-94012489D01*
X148859487Y-94138010D01*
X148859489Y-94138012D01*
X148859491Y-94138015D01*
X148961985Y-94240509D01*
X148961987Y-94240510D01*
X148961989Y-94240512D01*
X149087511Y-94312982D01*
X149087512Y-94312982D01*
X149087515Y-94312984D01*
X149227525Y-94350500D01*
X149227526Y-94350500D01*
X149372474Y-94350500D01*
X149372475Y-94350500D01*
X149512485Y-94312984D01*
X149512487Y-94312982D01*
X149512489Y-94312982D01*
X149638010Y-94240512D01*
X149638010Y-94240511D01*
X149638015Y-94240509D01*
X149740509Y-94138015D01*
X149785845Y-94059491D01*
X149812982Y-94012489D01*
X149812982Y-94012487D01*
X149812984Y-94012485D01*
X149850500Y-93872475D01*
X149850500Y-93727525D01*
X151749500Y-93727525D01*
X151749500Y-93872475D01*
X151764251Y-93927525D01*
X151787017Y-94012489D01*
X151859487Y-94138010D01*
X151859489Y-94138012D01*
X151859491Y-94138015D01*
X151961985Y-94240509D01*
X151961987Y-94240510D01*
X151961989Y-94240512D01*
X152087511Y-94312982D01*
X152087512Y-94312982D01*
X152087515Y-94312984D01*
X152227525Y-94350500D01*
X152227526Y-94350500D01*
X152372474Y-94350500D01*
X152372475Y-94350500D01*
X152512485Y-94312984D01*
X152512487Y-94312982D01*
X152512489Y-94312982D01*
X152638010Y-94240512D01*
X152638010Y-94240511D01*
X152638015Y-94240509D01*
X152740509Y-94138015D01*
X152785845Y-94059491D01*
X152812982Y-94012489D01*
X152812982Y-94012487D01*
X152812984Y-94012485D01*
X152835749Y-93927525D01*
X153149500Y-93927525D01*
X153149500Y-94072475D01*
X153179087Y-94182896D01*
X153187017Y-94212489D01*
X153259487Y-94338010D01*
X153259489Y-94338012D01*
X153259491Y-94338015D01*
X153361985Y-94440509D01*
X153361987Y-94440510D01*
X153361989Y-94440512D01*
X153487511Y-94512982D01*
X153487512Y-94512982D01*
X153487515Y-94512984D01*
X153627525Y-94550500D01*
X153627526Y-94550500D01*
X153772474Y-94550500D01*
X153772475Y-94550500D01*
X153912485Y-94512984D01*
X153912487Y-94512982D01*
X153912489Y-94512982D01*
X154038010Y-94440512D01*
X154038010Y-94440511D01*
X154038015Y-94440509D01*
X154140509Y-94338015D01*
X154186994Y-94257501D01*
X154212982Y-94212489D01*
X154212982Y-94212487D01*
X154212984Y-94212485D01*
X154250500Y-94072475D01*
X154250500Y-93927525D01*
X154212984Y-93787515D01*
X154212982Y-93787512D01*
X154212982Y-93787510D01*
X154140512Y-93661989D01*
X154140510Y-93661987D01*
X154140509Y-93661985D01*
X154038015Y-93559491D01*
X154038012Y-93559489D01*
X154038010Y-93559487D01*
X153912488Y-93487017D01*
X153912489Y-93487017D01*
X153882896Y-93479087D01*
X153772475Y-93449500D01*
X153627525Y-93449500D01*
X153580931Y-93461985D01*
X153487510Y-93487017D01*
X153361989Y-93559487D01*
X153259487Y-93661989D01*
X153187017Y-93787510D01*
X153187016Y-93787515D01*
X153149500Y-93927525D01*
X152835749Y-93927525D01*
X152850500Y-93872475D01*
X152850500Y-93727525D01*
X152812984Y-93587515D01*
X152812982Y-93587512D01*
X152812982Y-93587510D01*
X152740512Y-93461989D01*
X152740510Y-93461987D01*
X152740509Y-93461985D01*
X152638015Y-93359491D01*
X152638012Y-93359489D01*
X152638010Y-93359487D01*
X152512488Y-93287017D01*
X152512489Y-93287017D01*
X152482896Y-93279087D01*
X152372475Y-93249500D01*
X152227525Y-93249500D01*
X152165790Y-93266041D01*
X152087510Y-93287017D01*
X151961989Y-93359487D01*
X151859487Y-93461989D01*
X151787017Y-93587510D01*
X151756397Y-93701786D01*
X151749500Y-93727525D01*
X149850500Y-93727525D01*
X149812984Y-93587515D01*
X149812982Y-93587512D01*
X149812982Y-93587510D01*
X149740512Y-93461989D01*
X149740510Y-93461987D01*
X149740509Y-93461985D01*
X149638015Y-93359491D01*
X149638012Y-93359489D01*
X149638010Y-93359487D01*
X149512488Y-93287017D01*
X149512489Y-93287017D01*
X149482896Y-93279087D01*
X149372475Y-93249500D01*
X149227525Y-93249500D01*
X149165790Y-93266041D01*
X149087510Y-93287017D01*
X148961989Y-93359487D01*
X148859487Y-93461989D01*
X148787017Y-93587510D01*
X148756397Y-93701786D01*
X148749500Y-93727525D01*
X128400500Y-93727525D01*
X128400500Y-91327525D01*
X140749500Y-91327525D01*
X140749500Y-91472475D01*
X140753397Y-91487017D01*
X140787017Y-91612489D01*
X140859487Y-91738010D01*
X140859489Y-91738012D01*
X140859491Y-91738015D01*
X140961985Y-91840509D01*
X140961987Y-91840510D01*
X140961989Y-91840512D01*
X141087511Y-91912982D01*
X141087512Y-91912982D01*
X141087515Y-91912984D01*
X141227525Y-91950500D01*
X141227526Y-91950500D01*
X141372474Y-91950500D01*
X141372475Y-91950500D01*
X141512485Y-91912984D01*
X141512487Y-91912982D01*
X141512489Y-91912982D01*
X141638010Y-91840512D01*
X141638010Y-91840511D01*
X141638015Y-91840509D01*
X141740509Y-91738015D01*
X141759454Y-91705202D01*
X141812982Y-91612489D01*
X141812982Y-91612487D01*
X141812984Y-91612485D01*
X141850500Y-91472475D01*
X141850500Y-91377525D01*
X147699500Y-91377525D01*
X147699500Y-91522475D01*
X147729087Y-91632896D01*
X147737017Y-91662489D01*
X147809487Y-91788010D01*
X147809489Y-91788012D01*
X147809491Y-91788015D01*
X147911985Y-91890509D01*
X147911987Y-91890510D01*
X147911989Y-91890512D01*
X148037511Y-91962982D01*
X148037512Y-91962982D01*
X148037515Y-91962984D01*
X148177525Y-92000500D01*
X148177526Y-92000500D01*
X148322474Y-92000500D01*
X148322475Y-92000500D01*
X148462485Y-91962984D01*
X148462487Y-91962982D01*
X148462489Y-91962982D01*
X148523902Y-91927525D01*
X162249500Y-91927525D01*
X162249500Y-92072475D01*
X162257519Y-92102402D01*
X162287017Y-92212489D01*
X162359487Y-92338010D01*
X162359489Y-92338012D01*
X162359491Y-92338015D01*
X162461985Y-92440509D01*
X162461987Y-92440510D01*
X162461989Y-92440512D01*
X162587511Y-92512982D01*
X162587512Y-92512982D01*
X162587515Y-92512984D01*
X162727525Y-92550500D01*
X162727526Y-92550500D01*
X162872474Y-92550500D01*
X162872475Y-92550500D01*
X163012485Y-92512984D01*
X163012487Y-92512982D01*
X163012489Y-92512982D01*
X163040981Y-92496532D01*
X169769500Y-92496532D01*
X169769500Y-92703467D01*
X169809869Y-92906418D01*
X169889058Y-93097597D01*
X169889059Y-93097598D01*
X170004023Y-93269655D01*
X170150345Y-93415977D01*
X170322402Y-93530941D01*
X170513580Y-93610130D01*
X170716535Y-93650500D01*
X170716536Y-93650500D01*
X170923464Y-93650500D01*
X170923465Y-93650500D01*
X171126420Y-93610130D01*
X171317598Y-93530941D01*
X171489655Y-93415977D01*
X171635977Y-93269655D01*
X171750941Y-93097598D01*
X171830130Y-92906420D01*
X171870500Y-92703465D01*
X171870500Y-92496535D01*
X171870499Y-92496532D01*
X172309500Y-92496532D01*
X172309500Y-92703467D01*
X172349869Y-92906418D01*
X172429058Y-93097597D01*
X172429059Y-93097598D01*
X172544023Y-93269655D01*
X172690345Y-93415977D01*
X172862402Y-93530941D01*
X173053580Y-93610130D01*
X173256535Y-93650500D01*
X173256536Y-93650500D01*
X173463464Y-93650500D01*
X173463465Y-93650500D01*
X173666420Y-93610130D01*
X173857598Y-93530941D01*
X174029655Y-93415977D01*
X174175977Y-93269655D01*
X174290941Y-93097598D01*
X174370130Y-92906420D01*
X174410500Y-92703465D01*
X174410500Y-92496535D01*
X174370130Y-92293580D01*
X174290941Y-92102402D01*
X174175977Y-91930345D01*
X174029655Y-91784023D01*
X173923334Y-91712982D01*
X173911690Y-91705202D01*
X174750000Y-91705202D01*
X174750000Y-92349999D01*
X174750001Y-92350000D01*
X175466988Y-92350000D01*
X175434075Y-92407007D01*
X175400000Y-92534174D01*
X175400000Y-92665826D01*
X175434075Y-92792993D01*
X175466988Y-92850000D01*
X174750002Y-92850000D01*
X174750001Y-92850001D01*
X174750001Y-93494791D01*
X174752909Y-93519874D01*
X174798213Y-93622477D01*
X174877522Y-93701786D01*
X174980127Y-93747090D01*
X175005203Y-93749999D01*
X175649998Y-93749999D01*
X175650000Y-93749998D01*
X175650000Y-93033012D01*
X175707007Y-93065925D01*
X175834174Y-93100000D01*
X175965826Y-93100000D01*
X176092993Y-93065925D01*
X176150000Y-93033012D01*
X176150000Y-93749998D01*
X176150001Y-93749999D01*
X176794790Y-93749999D01*
X176794791Y-93749998D01*
X176819874Y-93747090D01*
X176922477Y-93701786D01*
X177001786Y-93622477D01*
X177047090Y-93519872D01*
X177049999Y-93494797D01*
X177050000Y-93494795D01*
X177050000Y-92850001D01*
X177049999Y-92850000D01*
X176333012Y-92850000D01*
X176365925Y-92792993D01*
X176400000Y-92665826D01*
X176400000Y-92534174D01*
X176365925Y-92407007D01*
X176333012Y-92350000D01*
X177049998Y-92350000D01*
X177049999Y-92349999D01*
X177049999Y-91705210D01*
X177049998Y-91705208D01*
X177047090Y-91680125D01*
X177001786Y-91577522D01*
X176922477Y-91498213D01*
X176819872Y-91452909D01*
X176794797Y-91450000D01*
X176150001Y-91450000D01*
X176150000Y-91450001D01*
X176150000Y-92166988D01*
X176092993Y-92134075D01*
X175965826Y-92100000D01*
X175834174Y-92100000D01*
X175707007Y-92134075D01*
X175650000Y-92166988D01*
X175650000Y-91450001D01*
X175649999Y-91450000D01*
X175005210Y-91450000D01*
X175005207Y-91450001D01*
X174980125Y-91452909D01*
X174877522Y-91498213D01*
X174798213Y-91577522D01*
X174752909Y-91680127D01*
X174750000Y-91705202D01*
X173911690Y-91705202D01*
X173857597Y-91669058D01*
X173666418Y-91589869D01*
X173463467Y-91549500D01*
X173463465Y-91549500D01*
X173256535Y-91549500D01*
X173256532Y-91549500D01*
X173053581Y-91589869D01*
X172862402Y-91669058D01*
X172690348Y-91784020D01*
X172544020Y-91930348D01*
X172429058Y-92102402D01*
X172349869Y-92293581D01*
X172309500Y-92496532D01*
X171870499Y-92496532D01*
X171830130Y-92293580D01*
X171750941Y-92102402D01*
X171635977Y-91930345D01*
X171489655Y-91784023D01*
X171420799Y-91738015D01*
X171317597Y-91669058D01*
X171126418Y-91589869D01*
X170923467Y-91549500D01*
X170923465Y-91549500D01*
X170716535Y-91549500D01*
X170716532Y-91549500D01*
X170513581Y-91589869D01*
X170322402Y-91669058D01*
X170150348Y-91784020D01*
X170004020Y-91930348D01*
X169889058Y-92102402D01*
X169809869Y-92293581D01*
X169769500Y-92496532D01*
X163040981Y-92496532D01*
X163138010Y-92440512D01*
X163138010Y-92440511D01*
X163138015Y-92440509D01*
X163240509Y-92338015D01*
X163312984Y-92212485D01*
X163350500Y-92072475D01*
X163350500Y-91927525D01*
X163312984Y-91787515D01*
X163312982Y-91787512D01*
X163312982Y-91787510D01*
X163240512Y-91661989D01*
X163240510Y-91661987D01*
X163240509Y-91661985D01*
X163138015Y-91559491D01*
X163138012Y-91559489D01*
X163138010Y-91559487D01*
X163012488Y-91487017D01*
X163012489Y-91487017D01*
X162885197Y-91452909D01*
X162872475Y-91449500D01*
X162727525Y-91449500D01*
X162714803Y-91452909D01*
X162587510Y-91487017D01*
X162461989Y-91559487D01*
X162359487Y-91661989D01*
X162287017Y-91787510D01*
X162259418Y-91890511D01*
X162249500Y-91927525D01*
X148523902Y-91927525D01*
X148588010Y-91890512D01*
X148588010Y-91890511D01*
X148588015Y-91890509D01*
X148690509Y-91788015D01*
X148692816Y-91784020D01*
X148762982Y-91662489D01*
X148762982Y-91662487D01*
X148762984Y-91662485D01*
X148800500Y-91522475D01*
X148800500Y-91377525D01*
X148762984Y-91237515D01*
X148762982Y-91237512D01*
X148762982Y-91237510D01*
X148724315Y-91170539D01*
X148699481Y-91127525D01*
X150749500Y-91127525D01*
X150749500Y-91272475D01*
X150777648Y-91377525D01*
X150787017Y-91412489D01*
X150859487Y-91538010D01*
X150859489Y-91538012D01*
X150859491Y-91538015D01*
X150961985Y-91640509D01*
X150961987Y-91640510D01*
X150961989Y-91640512D01*
X151087511Y-91712982D01*
X151087512Y-91712982D01*
X151087515Y-91712984D01*
X151227525Y-91750500D01*
X151227526Y-91750500D01*
X151372474Y-91750500D01*
X151372475Y-91750500D01*
X151512485Y-91712984D01*
X151512487Y-91712982D01*
X151512489Y-91712982D01*
X151638010Y-91640512D01*
X151638010Y-91640511D01*
X151638015Y-91640509D01*
X151740509Y-91538015D01*
X151769377Y-91488015D01*
X151812982Y-91412489D01*
X151812982Y-91412487D01*
X151812984Y-91412485D01*
X151850500Y-91272475D01*
X151850500Y-91127525D01*
X151837102Y-91077525D01*
X165799500Y-91077525D01*
X165799500Y-91222474D01*
X165837017Y-91362489D01*
X165909487Y-91488010D01*
X165909489Y-91488012D01*
X165909491Y-91488015D01*
X166011985Y-91590509D01*
X166011987Y-91590510D01*
X166011989Y-91590512D01*
X166137511Y-91662982D01*
X166137512Y-91662982D01*
X166137515Y-91662984D01*
X166277525Y-91700500D01*
X166277526Y-91700500D01*
X166422474Y-91700500D01*
X166422475Y-91700500D01*
X166562485Y-91662984D01*
X166562487Y-91662982D01*
X166562489Y-91662982D01*
X166688010Y-91590512D01*
X166688010Y-91590511D01*
X166688015Y-91590509D01*
X166790509Y-91488015D01*
X166810778Y-91452909D01*
X166862982Y-91362489D01*
X166862982Y-91362487D01*
X166862984Y-91362485D01*
X166900500Y-91222475D01*
X166900500Y-91077525D01*
X166862984Y-90937515D01*
X166862982Y-90937512D01*
X166862982Y-90937510D01*
X166790512Y-90811989D01*
X166790510Y-90811987D01*
X166790509Y-90811985D01*
X166688015Y-90709491D01*
X166688012Y-90709489D01*
X166688010Y-90709487D01*
X166562488Y-90637017D01*
X166562489Y-90637017D01*
X166532896Y-90629087D01*
X166422475Y-90599500D01*
X166277525Y-90599500D01*
X166215790Y-90616041D01*
X166137510Y-90637017D01*
X166011989Y-90709487D01*
X165909487Y-90811989D01*
X165837017Y-90937510D01*
X165799500Y-91077525D01*
X151837102Y-91077525D01*
X151812984Y-90987515D01*
X151812982Y-90987512D01*
X151812982Y-90987510D01*
X151740512Y-90861989D01*
X151740510Y-90861987D01*
X151740509Y-90861985D01*
X151638015Y-90759491D01*
X151638012Y-90759489D01*
X151638010Y-90759487D01*
X151512488Y-90687017D01*
X151512489Y-90687017D01*
X151461823Y-90673441D01*
X151372475Y-90649500D01*
X151227525Y-90649500D01*
X151179487Y-90662372D01*
X151087510Y-90687017D01*
X150961989Y-90759487D01*
X150859487Y-90861989D01*
X150787017Y-90987510D01*
X150757771Y-91096659D01*
X150749500Y-91127525D01*
X148699481Y-91127525D01*
X148690509Y-91111985D01*
X148588015Y-91009491D01*
X148588012Y-91009489D01*
X148588010Y-91009487D01*
X148462488Y-90937017D01*
X148462489Y-90937017D01*
X148432896Y-90929087D01*
X148322475Y-90899500D01*
X148177525Y-90899500D01*
X148115790Y-90916041D01*
X148037510Y-90937017D01*
X147911989Y-91009487D01*
X147809487Y-91111989D01*
X147737017Y-91237510D01*
X147703530Y-91362485D01*
X147699500Y-91377525D01*
X141850500Y-91377525D01*
X141850500Y-91327525D01*
X141812984Y-91187515D01*
X141812982Y-91187512D01*
X141812982Y-91187510D01*
X141740512Y-91061989D01*
X141740510Y-91061987D01*
X141740509Y-91061985D01*
X141638015Y-90959491D01*
X141638012Y-90959489D01*
X141638010Y-90959487D01*
X141512488Y-90887017D01*
X141512489Y-90887017D01*
X141482896Y-90879087D01*
X141372475Y-90849500D01*
X141227525Y-90849500D01*
X141180931Y-90861985D01*
X141087510Y-90887017D01*
X140961989Y-90959487D01*
X140859487Y-91061989D01*
X140787017Y-91187510D01*
X140777648Y-91222475D01*
X140749500Y-91327525D01*
X128400500Y-91327525D01*
X128400500Y-90227525D01*
X137649500Y-90227525D01*
X137649500Y-90372475D01*
X137679087Y-90482896D01*
X137687017Y-90512489D01*
X137759487Y-90638010D01*
X137759489Y-90638012D01*
X137759491Y-90638015D01*
X137861985Y-90740509D01*
X137861987Y-90740510D01*
X137861989Y-90740512D01*
X137987511Y-90812982D01*
X137987512Y-90812982D01*
X137987515Y-90812984D01*
X138127525Y-90850500D01*
X138127526Y-90850500D01*
X138272474Y-90850500D01*
X138272475Y-90850500D01*
X138412485Y-90812984D01*
X138412487Y-90812982D01*
X138412489Y-90812982D01*
X138538010Y-90740512D01*
X138538010Y-90740511D01*
X138538015Y-90740509D01*
X138640509Y-90638015D01*
X138662746Y-90599500D01*
X138712982Y-90512489D01*
X138712982Y-90512487D01*
X138712984Y-90512485D01*
X138750500Y-90372475D01*
X138750500Y-90227525D01*
X138712984Y-90087515D01*
X138712982Y-90087512D01*
X138712982Y-90087510D01*
X138640512Y-89961989D01*
X138640510Y-89961987D01*
X138640509Y-89961985D01*
X138538015Y-89859491D01*
X138538012Y-89859489D01*
X138538010Y-89859487D01*
X138412488Y-89787017D01*
X138412489Y-89787017D01*
X138358214Y-89772474D01*
X138272475Y-89749500D01*
X138127525Y-89749500D01*
X138065790Y-89766041D01*
X137987510Y-89787017D01*
X137861989Y-89859487D01*
X137759487Y-89961989D01*
X137687017Y-90087510D01*
X137687016Y-90087515D01*
X137649500Y-90227525D01*
X128400500Y-90227525D01*
X128400500Y-89627525D01*
X147149500Y-89627525D01*
X147149500Y-89772475D01*
X147169191Y-89845963D01*
X147187017Y-89912489D01*
X147259487Y-90038010D01*
X147259489Y-90038012D01*
X147259491Y-90038015D01*
X147361985Y-90140509D01*
X147361987Y-90140510D01*
X147361989Y-90140512D01*
X147487511Y-90212982D01*
X147487512Y-90212982D01*
X147487515Y-90212984D01*
X147627525Y-90250500D01*
X147627526Y-90250500D01*
X147772474Y-90250500D01*
X147772475Y-90250500D01*
X147912485Y-90212984D01*
X147912487Y-90212982D01*
X147912489Y-90212982D01*
X148038010Y-90140512D01*
X148038010Y-90140511D01*
X148038015Y-90140509D01*
X148140509Y-90038015D01*
X148184405Y-89961985D01*
X148212982Y-89912489D01*
X148212982Y-89912487D01*
X148212984Y-89912485D01*
X148250500Y-89772475D01*
X148250500Y-89639032D01*
X169769500Y-89639032D01*
X169769500Y-89845967D01*
X169809869Y-90048918D01*
X169889058Y-90240097D01*
X169889059Y-90240098D01*
X170004023Y-90412155D01*
X170150345Y-90558477D01*
X170322402Y-90673441D01*
X170513580Y-90752630D01*
X170716535Y-90793000D01*
X170716536Y-90793000D01*
X170923464Y-90793000D01*
X170923465Y-90793000D01*
X171126420Y-90752630D01*
X171317598Y-90673441D01*
X171489655Y-90558477D01*
X171635977Y-90412155D01*
X171750941Y-90240098D01*
X171830130Y-90048920D01*
X171870500Y-89845965D01*
X171870500Y-89639035D01*
X171870499Y-89639032D01*
X172309500Y-89639032D01*
X172309500Y-89845967D01*
X172349869Y-90048918D01*
X172429058Y-90240097D01*
X172429059Y-90240098D01*
X172544023Y-90412155D01*
X172690345Y-90558477D01*
X172862402Y-90673441D01*
X173053580Y-90752630D01*
X173256535Y-90793000D01*
X173256536Y-90793000D01*
X173463464Y-90793000D01*
X173463465Y-90793000D01*
X173666420Y-90752630D01*
X173857598Y-90673441D01*
X174029655Y-90558477D01*
X174175977Y-90412155D01*
X174290941Y-90240098D01*
X174370130Y-90048920D01*
X174410500Y-89845965D01*
X174410500Y-89639035D01*
X174370130Y-89436080D01*
X174290941Y-89244902D01*
X174175977Y-89072845D01*
X174029655Y-88926523D01*
X174027338Y-88924975D01*
X173911690Y-88847702D01*
X174750000Y-88847702D01*
X174750000Y-89492499D01*
X174750001Y-89492500D01*
X175466988Y-89492500D01*
X175434075Y-89549507D01*
X175400000Y-89676674D01*
X175400000Y-89808326D01*
X175434075Y-89935493D01*
X175466988Y-89992500D01*
X174750002Y-89992500D01*
X174750001Y-89992501D01*
X174750001Y-90637291D01*
X174752909Y-90662374D01*
X174798213Y-90764977D01*
X174877522Y-90844286D01*
X174980127Y-90889590D01*
X175005203Y-90892499D01*
X175649998Y-90892499D01*
X175650000Y-90892498D01*
X175650000Y-90175512D01*
X175707007Y-90208425D01*
X175834174Y-90242500D01*
X175965826Y-90242500D01*
X176092993Y-90208425D01*
X176150000Y-90175512D01*
X176150000Y-90892498D01*
X176150001Y-90892499D01*
X176794790Y-90892499D01*
X176794791Y-90892498D01*
X176819874Y-90889590D01*
X176922477Y-90844286D01*
X177001786Y-90764977D01*
X177047090Y-90662372D01*
X177049999Y-90637297D01*
X177050000Y-90637295D01*
X177050000Y-89992501D01*
X177049999Y-89992500D01*
X176333012Y-89992500D01*
X176365925Y-89935493D01*
X176400000Y-89808326D01*
X176400000Y-89676674D01*
X176365925Y-89549507D01*
X176333012Y-89492500D01*
X177049998Y-89492500D01*
X177049999Y-89492499D01*
X177049999Y-88847710D01*
X177049998Y-88847708D01*
X177047090Y-88822625D01*
X177001786Y-88720022D01*
X176922477Y-88640713D01*
X176819872Y-88595409D01*
X176794797Y-88592500D01*
X176150001Y-88592500D01*
X176150000Y-88592501D01*
X176150000Y-89309488D01*
X176092993Y-89276575D01*
X175965826Y-89242500D01*
X175834174Y-89242500D01*
X175707007Y-89276575D01*
X175650000Y-89309488D01*
X175650000Y-88592501D01*
X175649999Y-88592500D01*
X175005210Y-88592500D01*
X175005207Y-88592501D01*
X174980125Y-88595409D01*
X174877522Y-88640713D01*
X174798213Y-88720022D01*
X174752909Y-88822627D01*
X174750000Y-88847702D01*
X173911690Y-88847702D01*
X173857597Y-88811558D01*
X173666418Y-88732369D01*
X173463467Y-88692000D01*
X173463465Y-88692000D01*
X173256535Y-88692000D01*
X173256532Y-88692000D01*
X173053581Y-88732369D01*
X172862402Y-88811558D01*
X172690348Y-88926520D01*
X172544020Y-89072848D01*
X172429058Y-89244902D01*
X172349869Y-89436081D01*
X172309500Y-89639032D01*
X171870499Y-89639032D01*
X171830130Y-89436080D01*
X171750941Y-89244902D01*
X171635977Y-89072845D01*
X171489655Y-88926523D01*
X171489651Y-88926520D01*
X171317597Y-88811558D01*
X171126418Y-88732369D01*
X170923467Y-88692000D01*
X170923465Y-88692000D01*
X170716535Y-88692000D01*
X170716532Y-88692000D01*
X170513581Y-88732369D01*
X170322402Y-88811558D01*
X170150348Y-88926520D01*
X170004020Y-89072848D01*
X169889058Y-89244902D01*
X169809869Y-89436081D01*
X169769500Y-89639032D01*
X148250500Y-89639032D01*
X148250500Y-89627525D01*
X148212984Y-89487515D01*
X148212982Y-89487512D01*
X148212982Y-89487510D01*
X148140512Y-89361989D01*
X148140510Y-89361987D01*
X148140509Y-89361985D01*
X148038015Y-89259491D01*
X148038012Y-89259489D01*
X148038010Y-89259487D01*
X147912488Y-89187017D01*
X147912489Y-89187017D01*
X147882896Y-89179087D01*
X147772475Y-89149500D01*
X147627525Y-89149500D01*
X147565790Y-89166041D01*
X147487510Y-89187017D01*
X147361989Y-89259487D01*
X147259487Y-89361989D01*
X147187017Y-89487510D01*
X147185680Y-89492500D01*
X147149500Y-89627525D01*
X128400500Y-89627525D01*
X128400500Y-88227525D01*
X129499500Y-88227525D01*
X129499500Y-88372475D01*
X129501510Y-88379975D01*
X129537017Y-88512489D01*
X129609487Y-88638010D01*
X129609489Y-88638012D01*
X129609491Y-88638015D01*
X129711985Y-88740509D01*
X129711987Y-88740510D01*
X129711989Y-88740512D01*
X129837511Y-88812982D01*
X129837512Y-88812982D01*
X129837515Y-88812984D01*
X129977525Y-88850500D01*
X129977526Y-88850500D01*
X130122474Y-88850500D01*
X130122475Y-88850500D01*
X130262485Y-88812984D01*
X130262487Y-88812982D01*
X130262489Y-88812982D01*
X130388010Y-88740512D01*
X130388010Y-88740511D01*
X130388015Y-88740509D01*
X130490509Y-88638015D01*
X130562984Y-88512485D01*
X130600500Y-88372475D01*
X130600500Y-88227525D01*
X130573705Y-88127525D01*
X136049500Y-88127525D01*
X136049500Y-88272474D01*
X136087017Y-88412489D01*
X136159487Y-88538010D01*
X136159489Y-88538012D01*
X136159491Y-88538015D01*
X136261985Y-88640509D01*
X136261987Y-88640510D01*
X136261989Y-88640512D01*
X136387511Y-88712982D01*
X136387512Y-88712982D01*
X136387515Y-88712984D01*
X136527525Y-88750500D01*
X136527526Y-88750500D01*
X136672474Y-88750500D01*
X136672475Y-88750500D01*
X136812485Y-88712984D01*
X136812487Y-88712982D01*
X136812489Y-88712982D01*
X136938010Y-88640512D01*
X136938010Y-88640511D01*
X136938015Y-88640509D01*
X137040509Y-88538015D01*
X137050919Y-88519985D01*
X137112982Y-88412489D01*
X137112982Y-88412487D01*
X137112984Y-88412485D01*
X137150500Y-88272475D01*
X137150500Y-88235025D01*
X165529500Y-88235025D01*
X165529500Y-88379974D01*
X165567017Y-88519989D01*
X165639487Y-88645510D01*
X165639489Y-88645512D01*
X165639491Y-88645515D01*
X165741985Y-88748009D01*
X165741987Y-88748010D01*
X165741989Y-88748012D01*
X165867511Y-88820482D01*
X165867512Y-88820482D01*
X165867515Y-88820484D01*
X166007525Y-88858000D01*
X166007526Y-88858000D01*
X166152474Y-88858000D01*
X166152475Y-88858000D01*
X166292485Y-88820484D01*
X166292487Y-88820482D01*
X166292489Y-88820482D01*
X166418010Y-88748012D01*
X166418010Y-88748011D01*
X166418015Y-88748009D01*
X166520509Y-88645515D01*
X166520512Y-88645510D01*
X166592982Y-88519989D01*
X166592982Y-88519987D01*
X166592984Y-88519985D01*
X166630500Y-88379975D01*
X166630500Y-88235025D01*
X166592984Y-88095015D01*
X166592982Y-88095012D01*
X166592982Y-88095010D01*
X166520512Y-87969489D01*
X166520510Y-87969487D01*
X166520509Y-87969485D01*
X166418015Y-87866991D01*
X166418012Y-87866989D01*
X166418010Y-87866987D01*
X166292488Y-87794517D01*
X166292489Y-87794517D01*
X166161771Y-87759491D01*
X166152475Y-87757000D01*
X166007525Y-87757000D01*
X165998229Y-87759491D01*
X165867510Y-87794517D01*
X165741989Y-87866987D01*
X165639487Y-87969489D01*
X165567017Y-88095010D01*
X165529500Y-88235025D01*
X137150500Y-88235025D01*
X137150500Y-88127525D01*
X137112984Y-87987515D01*
X137112982Y-87987512D01*
X137112982Y-87987510D01*
X137040512Y-87861989D01*
X137040510Y-87861987D01*
X137040509Y-87861985D01*
X136938015Y-87759491D01*
X136938012Y-87759489D01*
X136938010Y-87759487D01*
X136812488Y-87687017D01*
X136812489Y-87687017D01*
X136782896Y-87679087D01*
X136672475Y-87649500D01*
X136527525Y-87649500D01*
X136465790Y-87666041D01*
X136387510Y-87687017D01*
X136261989Y-87759487D01*
X136159487Y-87861989D01*
X136087017Y-87987510D01*
X136049500Y-88127525D01*
X130573705Y-88127525D01*
X130562984Y-88087515D01*
X130562982Y-88087512D01*
X130562982Y-88087510D01*
X130490512Y-87961989D01*
X130490510Y-87961987D01*
X130490509Y-87961985D01*
X130388015Y-87859491D01*
X130388012Y-87859489D01*
X130388010Y-87859487D01*
X130262488Y-87787017D01*
X130262489Y-87787017D01*
X130159761Y-87759491D01*
X130122475Y-87749500D01*
X129977525Y-87749500D01*
X129940239Y-87759491D01*
X129837510Y-87787017D01*
X129711989Y-87859487D01*
X129609487Y-87961989D01*
X129537017Y-88087510D01*
X129499501Y-88227522D01*
X129499500Y-88227525D01*
X128400500Y-88227525D01*
X128400500Y-87327525D01*
X130699500Y-87327525D01*
X130699500Y-87472474D01*
X130737017Y-87612489D01*
X130809487Y-87738010D01*
X130809489Y-87738012D01*
X130809491Y-87738015D01*
X130911985Y-87840509D01*
X130911987Y-87840510D01*
X130911989Y-87840512D01*
X131037511Y-87912982D01*
X131037512Y-87912982D01*
X131037515Y-87912984D01*
X131177525Y-87950500D01*
X131177526Y-87950500D01*
X131322474Y-87950500D01*
X131322475Y-87950500D01*
X131462485Y-87912984D01*
X131462487Y-87912982D01*
X131462489Y-87912982D01*
X131588010Y-87840512D01*
X131588010Y-87840511D01*
X131588015Y-87840509D01*
X131690509Y-87738015D01*
X131719953Y-87687017D01*
X131762982Y-87612489D01*
X131762982Y-87612487D01*
X131762984Y-87612485D01*
X131800500Y-87472475D01*
X131800500Y-87327525D01*
X131773705Y-87227525D01*
X154749500Y-87227525D01*
X154749500Y-87372475D01*
X154776295Y-87472474D01*
X154787017Y-87512489D01*
X154859487Y-87638010D01*
X154859489Y-87638012D01*
X154859491Y-87638015D01*
X154961985Y-87740509D01*
X154961987Y-87740510D01*
X154961989Y-87740512D01*
X155087511Y-87812982D01*
X155087512Y-87812982D01*
X155087515Y-87812984D01*
X155227525Y-87850500D01*
X155227526Y-87850500D01*
X155372474Y-87850500D01*
X155372475Y-87850500D01*
X155512485Y-87812984D01*
X155512487Y-87812982D01*
X155512489Y-87812982D01*
X155638010Y-87740512D01*
X155638010Y-87740511D01*
X155638015Y-87740509D01*
X155740509Y-87638015D01*
X155740512Y-87638010D01*
X155812982Y-87512489D01*
X155812982Y-87512487D01*
X155812984Y-87512485D01*
X155850500Y-87372475D01*
X155850500Y-87227525D01*
X155812984Y-87087515D01*
X155812982Y-87087512D01*
X155812982Y-87087510D01*
X155740512Y-86961989D01*
X155740510Y-86961987D01*
X155740509Y-86961985D01*
X155638015Y-86859491D01*
X155638012Y-86859489D01*
X155638010Y-86859487D01*
X155546708Y-86806773D01*
X155546705Y-86806773D01*
X155512486Y-86787016D01*
X155442480Y-86768258D01*
X155372475Y-86749500D01*
X155227525Y-86749500D01*
X155165790Y-86766041D01*
X155087510Y-86787017D01*
X154961989Y-86859487D01*
X154859487Y-86961989D01*
X154787017Y-87087510D01*
X154787016Y-87087515D01*
X154749500Y-87227525D01*
X131773705Y-87227525D01*
X131762984Y-87187515D01*
X131762982Y-87187512D01*
X131762982Y-87187510D01*
X131690512Y-87061989D01*
X131690510Y-87061987D01*
X131690509Y-87061985D01*
X131588015Y-86959491D01*
X131588012Y-86959489D01*
X131588010Y-86959487D01*
X131462488Y-86887017D01*
X131462489Y-86887017D01*
X131359761Y-86859491D01*
X131322475Y-86849500D01*
X131177525Y-86849500D01*
X131140239Y-86859491D01*
X131037510Y-86887017D01*
X130911989Y-86959487D01*
X130809487Y-87061989D01*
X130737017Y-87187510D01*
X130699500Y-87327525D01*
X128400500Y-87327525D01*
X128400500Y-86427525D01*
X143949500Y-86427525D01*
X143949500Y-86572475D01*
X143970273Y-86649999D01*
X143987017Y-86712489D01*
X144059487Y-86838010D01*
X144059489Y-86838012D01*
X144059491Y-86838015D01*
X144161985Y-86940509D01*
X144161987Y-86940510D01*
X144161989Y-86940512D01*
X144287511Y-87012982D01*
X144287512Y-87012982D01*
X144287515Y-87012984D01*
X144427525Y-87050500D01*
X144427526Y-87050500D01*
X144572474Y-87050500D01*
X144572475Y-87050500D01*
X144712485Y-87012984D01*
X144712487Y-87012982D01*
X144712489Y-87012982D01*
X144838010Y-86940512D01*
X144838010Y-86940511D01*
X144838015Y-86940509D01*
X144940509Y-86838015D01*
X144969953Y-86787017D01*
X145004301Y-86727525D01*
X160849500Y-86727525D01*
X160849500Y-86872475D01*
X160874514Y-86965826D01*
X160887017Y-87012489D01*
X160959486Y-87138008D01*
X160959488Y-87138011D01*
X160959489Y-87138012D01*
X160959491Y-87138015D01*
X161061985Y-87240509D01*
X161061987Y-87240510D01*
X161061989Y-87240512D01*
X161187511Y-87312982D01*
X161187512Y-87312982D01*
X161187515Y-87312984D01*
X161327525Y-87350500D01*
X161327526Y-87350500D01*
X161472474Y-87350500D01*
X161472475Y-87350500D01*
X161612485Y-87312984D01*
X161612487Y-87312982D01*
X161612489Y-87312982D01*
X161738010Y-87240512D01*
X161738010Y-87240511D01*
X161738015Y-87240509D01*
X161840509Y-87138015D01*
X161840511Y-87138010D01*
X161840514Y-87138008D01*
X161912982Y-87012489D01*
X161912982Y-87012487D01*
X161912984Y-87012485D01*
X161950500Y-86872475D01*
X161950500Y-86796532D01*
X169769500Y-86796532D01*
X169769500Y-87003467D01*
X169809869Y-87206418D01*
X169889058Y-87397597D01*
X169889059Y-87397598D01*
X170004023Y-87569655D01*
X170150345Y-87715977D01*
X170322402Y-87830941D01*
X170513580Y-87910130D01*
X170716535Y-87950500D01*
X170716536Y-87950500D01*
X170923464Y-87950500D01*
X170923465Y-87950500D01*
X171126420Y-87910130D01*
X171317598Y-87830941D01*
X171489655Y-87715977D01*
X171635977Y-87569655D01*
X171750941Y-87397598D01*
X171830130Y-87206420D01*
X171870500Y-87003465D01*
X171870500Y-86796535D01*
X171870499Y-86796532D01*
X172309500Y-86796532D01*
X172309500Y-87003467D01*
X172349869Y-87206418D01*
X172429058Y-87397597D01*
X172429059Y-87397598D01*
X172544023Y-87569655D01*
X172690345Y-87715977D01*
X172862402Y-87830941D01*
X173053580Y-87910130D01*
X173256535Y-87950500D01*
X173256536Y-87950500D01*
X173463464Y-87950500D01*
X173463465Y-87950500D01*
X173666420Y-87910130D01*
X173857598Y-87830941D01*
X174029655Y-87715977D01*
X174175977Y-87569655D01*
X174290941Y-87397598D01*
X174370130Y-87206420D01*
X174410500Y-87003465D01*
X174410500Y-86796535D01*
X174370130Y-86593580D01*
X174290941Y-86402402D01*
X174175977Y-86230345D01*
X174029655Y-86084023D01*
X173990709Y-86058000D01*
X173911691Y-86005202D01*
X174750000Y-86005202D01*
X174750000Y-86649999D01*
X174750001Y-86650000D01*
X175466988Y-86650000D01*
X175434075Y-86707007D01*
X175400000Y-86834174D01*
X175400000Y-86965826D01*
X175434075Y-87092993D01*
X175466988Y-87150000D01*
X174750002Y-87150000D01*
X174750001Y-87150001D01*
X174750001Y-87794791D01*
X174752909Y-87819874D01*
X174798213Y-87922477D01*
X174877522Y-88001786D01*
X174980127Y-88047090D01*
X175005203Y-88049999D01*
X175649998Y-88049999D01*
X175650000Y-88049998D01*
X175650000Y-87333012D01*
X175707007Y-87365925D01*
X175834174Y-87400000D01*
X175965826Y-87400000D01*
X176092993Y-87365925D01*
X176150000Y-87333012D01*
X176150000Y-88049998D01*
X176150001Y-88049999D01*
X176794790Y-88049999D01*
X176794791Y-88049998D01*
X176819874Y-88047090D01*
X176922477Y-88001786D01*
X177001786Y-87922477D01*
X177047090Y-87819872D01*
X177049999Y-87794797D01*
X177050000Y-87794795D01*
X177050000Y-87150001D01*
X177049999Y-87150000D01*
X176333012Y-87150000D01*
X176365925Y-87092993D01*
X176400000Y-86965826D01*
X176400000Y-86834174D01*
X176365925Y-86707007D01*
X176333012Y-86650000D01*
X177049998Y-86650000D01*
X177049999Y-86649999D01*
X177049999Y-86005210D01*
X177049998Y-86005208D01*
X177047090Y-85980125D01*
X177001786Y-85877522D01*
X176922477Y-85798213D01*
X176819872Y-85752909D01*
X176794797Y-85750000D01*
X176150001Y-85750000D01*
X176150000Y-85750001D01*
X176150000Y-86466988D01*
X176092993Y-86434075D01*
X175965826Y-86400000D01*
X175834174Y-86400000D01*
X175707007Y-86434075D01*
X175650000Y-86466988D01*
X175650000Y-85750001D01*
X175649999Y-85750000D01*
X175005210Y-85750000D01*
X175005207Y-85750001D01*
X174980125Y-85752909D01*
X174877522Y-85798213D01*
X174798213Y-85877522D01*
X174752909Y-85980127D01*
X174750000Y-86005202D01*
X173911691Y-86005202D01*
X173857597Y-85969058D01*
X173666418Y-85889869D01*
X173463467Y-85849500D01*
X173463465Y-85849500D01*
X173256535Y-85849500D01*
X173256532Y-85849500D01*
X173053581Y-85889869D01*
X172862402Y-85969058D01*
X172690348Y-86084020D01*
X172544020Y-86230348D01*
X172429058Y-86402402D01*
X172349869Y-86593581D01*
X172309500Y-86796532D01*
X171870499Y-86796532D01*
X171830130Y-86593580D01*
X171750941Y-86402402D01*
X171635977Y-86230345D01*
X171489655Y-86084023D01*
X171452940Y-86059491D01*
X171317597Y-85969058D01*
X171126418Y-85889869D01*
X170923467Y-85849500D01*
X170923465Y-85849500D01*
X170716535Y-85849500D01*
X170716532Y-85849500D01*
X170513581Y-85889869D01*
X170322402Y-85969058D01*
X170150348Y-86084020D01*
X170004020Y-86230348D01*
X169889058Y-86402402D01*
X169809869Y-86593581D01*
X169769500Y-86796532D01*
X161950500Y-86796532D01*
X161950500Y-86727525D01*
X161912984Y-86587515D01*
X161912982Y-86587512D01*
X161912982Y-86587510D01*
X161840512Y-86461989D01*
X161840510Y-86461987D01*
X161840509Y-86461985D01*
X161738015Y-86359491D01*
X161738012Y-86359489D01*
X161738010Y-86359487D01*
X161612488Y-86287017D01*
X161612489Y-86287017D01*
X161582896Y-86279087D01*
X161472475Y-86249500D01*
X161327525Y-86249500D01*
X161265790Y-86266041D01*
X161187510Y-86287017D01*
X161061989Y-86359487D01*
X160959487Y-86461989D01*
X160887017Y-86587510D01*
X160870273Y-86649999D01*
X160849500Y-86727525D01*
X145004301Y-86727525D01*
X145012982Y-86712489D01*
X145012982Y-86712487D01*
X145012984Y-86712485D01*
X145050500Y-86572475D01*
X145050500Y-86427525D01*
X145012984Y-86287515D01*
X145012982Y-86287512D01*
X145012982Y-86287510D01*
X144940512Y-86161989D01*
X144940510Y-86161987D01*
X144940509Y-86161985D01*
X144838015Y-86059491D01*
X144838012Y-86059489D01*
X144838010Y-86059487D01*
X144712488Y-85987017D01*
X144712489Y-85987017D01*
X144645469Y-85969059D01*
X144572475Y-85949500D01*
X144427525Y-85949500D01*
X144365790Y-85966041D01*
X144287510Y-85987017D01*
X144161989Y-86059487D01*
X144059487Y-86161989D01*
X143987017Y-86287510D01*
X143987016Y-86287515D01*
X143949500Y-86427525D01*
X128400500Y-86427525D01*
X128400500Y-85027525D01*
X142249500Y-85027525D01*
X142249500Y-85172475D01*
X142270273Y-85249999D01*
X142287017Y-85312489D01*
X142359487Y-85438010D01*
X142359489Y-85438012D01*
X142359491Y-85438015D01*
X142461985Y-85540509D01*
X142461987Y-85540510D01*
X142461989Y-85540512D01*
X142587511Y-85612982D01*
X142587512Y-85612982D01*
X142587515Y-85612984D01*
X142727525Y-85650500D01*
X142727526Y-85650500D01*
X142872474Y-85650500D01*
X142872475Y-85650500D01*
X143012485Y-85612984D01*
X143012487Y-85612982D01*
X143012489Y-85612982D01*
X143138010Y-85540512D01*
X143138010Y-85540511D01*
X143138015Y-85540509D01*
X143240509Y-85438015D01*
X143242235Y-85435025D01*
X166149500Y-85435025D01*
X166149500Y-85579974D01*
X166187017Y-85719989D01*
X166259487Y-85845510D01*
X166259489Y-85845512D01*
X166259491Y-85845515D01*
X166361985Y-85948009D01*
X166361987Y-85948010D01*
X166361989Y-85948012D01*
X166487511Y-86020482D01*
X166487512Y-86020482D01*
X166487515Y-86020484D01*
X166627525Y-86058000D01*
X166627526Y-86058000D01*
X166772474Y-86058000D01*
X166772475Y-86058000D01*
X166912485Y-86020484D01*
X166912487Y-86020482D01*
X166912489Y-86020482D01*
X167038010Y-85948012D01*
X167038010Y-85948011D01*
X167038015Y-85948009D01*
X167140509Y-85845515D01*
X167167819Y-85798213D01*
X167212982Y-85719989D01*
X167212982Y-85719987D01*
X167212984Y-85719985D01*
X167250500Y-85579975D01*
X167250500Y-85435025D01*
X167212984Y-85295015D01*
X167212982Y-85295012D01*
X167212982Y-85295010D01*
X167140512Y-85169489D01*
X167140510Y-85169487D01*
X167140509Y-85169485D01*
X167038015Y-85066991D01*
X167038012Y-85066989D01*
X167038010Y-85066987D01*
X166912488Y-84994517D01*
X166912489Y-84994517D01*
X166882896Y-84986587D01*
X166772475Y-84957000D01*
X166627525Y-84957000D01*
X166565790Y-84973541D01*
X166487510Y-84994517D01*
X166361989Y-85066987D01*
X166259487Y-85169489D01*
X166187017Y-85295010D01*
X166149500Y-85435025D01*
X143242235Y-85435025D01*
X143312984Y-85312485D01*
X143350500Y-85172475D01*
X143350500Y-85027525D01*
X143312984Y-84887515D01*
X143312982Y-84887512D01*
X143312982Y-84887510D01*
X143240512Y-84761989D01*
X143240510Y-84761987D01*
X143240509Y-84761985D01*
X143138015Y-84659491D01*
X143138012Y-84659489D01*
X143138010Y-84659487D01*
X143012488Y-84587017D01*
X143012489Y-84587017D01*
X142933773Y-84565925D01*
X142872475Y-84549500D01*
X142727525Y-84549500D01*
X142666227Y-84565925D01*
X142587510Y-84587017D01*
X142461989Y-84659487D01*
X142359487Y-84761989D01*
X142287017Y-84887510D01*
X142251551Y-85019872D01*
X142249500Y-85027525D01*
X128400500Y-85027525D01*
X128400500Y-83527525D01*
X144949500Y-83527525D01*
X144949500Y-83672474D01*
X144987017Y-83812489D01*
X145059487Y-83938010D01*
X145059489Y-83938012D01*
X145059491Y-83938015D01*
X145161985Y-84040509D01*
X145161987Y-84040510D01*
X145161989Y-84040512D01*
X145287511Y-84112982D01*
X145287512Y-84112982D01*
X145287515Y-84112984D01*
X145427525Y-84150500D01*
X145427526Y-84150500D01*
X145572474Y-84150500D01*
X145572475Y-84150500D01*
X145712485Y-84112984D01*
X145712487Y-84112982D01*
X145712489Y-84112982D01*
X145838010Y-84040512D01*
X145838010Y-84040511D01*
X145838015Y-84040509D01*
X145881992Y-83996532D01*
X169769500Y-83996532D01*
X169769500Y-84203467D01*
X169809869Y-84406418D01*
X169889058Y-84597597D01*
X170004020Y-84769651D01*
X170004023Y-84769655D01*
X170150345Y-84915977D01*
X170322402Y-85030941D01*
X170513580Y-85110130D01*
X170716535Y-85150500D01*
X170716536Y-85150500D01*
X170923464Y-85150500D01*
X170923465Y-85150500D01*
X171126420Y-85110130D01*
X171317598Y-85030941D01*
X171489655Y-84915977D01*
X171635977Y-84769655D01*
X171750941Y-84597598D01*
X171830130Y-84406420D01*
X171870500Y-84203465D01*
X171870500Y-83996535D01*
X171870499Y-83996532D01*
X172309500Y-83996532D01*
X172309500Y-84203467D01*
X172349869Y-84406418D01*
X172429058Y-84597597D01*
X172544020Y-84769651D01*
X172544023Y-84769655D01*
X172690345Y-84915977D01*
X172862402Y-85030941D01*
X173053580Y-85110130D01*
X173256535Y-85150500D01*
X173256536Y-85150500D01*
X173463464Y-85150500D01*
X173463465Y-85150500D01*
X173666420Y-85110130D01*
X173857598Y-85030941D01*
X174029655Y-84915977D01*
X174175977Y-84769655D01*
X174290941Y-84597598D01*
X174370130Y-84406420D01*
X174410500Y-84203465D01*
X174410500Y-83996535D01*
X174370130Y-83793580D01*
X174290941Y-83602402D01*
X174175977Y-83430345D01*
X174029655Y-83284023D01*
X173960791Y-83238010D01*
X173911690Y-83205202D01*
X174750000Y-83205202D01*
X174750000Y-83849999D01*
X174750001Y-83850000D01*
X175466988Y-83850000D01*
X175434075Y-83907007D01*
X175400000Y-84034174D01*
X175400000Y-84165826D01*
X175434075Y-84292993D01*
X175466988Y-84350000D01*
X174750002Y-84350000D01*
X174750001Y-84350001D01*
X174750001Y-84994791D01*
X174752909Y-85019874D01*
X174798213Y-85122477D01*
X174877522Y-85201786D01*
X174980127Y-85247090D01*
X175005203Y-85249999D01*
X175649998Y-85249999D01*
X175650000Y-85249998D01*
X175650000Y-84533012D01*
X175707007Y-84565925D01*
X175834174Y-84600000D01*
X175965826Y-84600000D01*
X176092993Y-84565925D01*
X176150000Y-84533012D01*
X176150000Y-85249998D01*
X176150001Y-85249999D01*
X176794790Y-85249999D01*
X176794791Y-85249998D01*
X176819874Y-85247090D01*
X176922477Y-85201786D01*
X177001786Y-85122477D01*
X177047090Y-85019872D01*
X177049999Y-84994797D01*
X177050000Y-84994795D01*
X177050000Y-84350001D01*
X177049999Y-84350000D01*
X176333012Y-84350000D01*
X176365925Y-84292993D01*
X176400000Y-84165826D01*
X176400000Y-84034174D01*
X176365925Y-83907007D01*
X176333012Y-83850000D01*
X177049998Y-83850000D01*
X177049999Y-83849999D01*
X177049999Y-83205210D01*
X177049998Y-83205208D01*
X177047090Y-83180125D01*
X177001786Y-83077522D01*
X176922477Y-82998213D01*
X176819872Y-82952909D01*
X176794797Y-82950000D01*
X176150001Y-82950000D01*
X176150000Y-82950001D01*
X176150000Y-83666988D01*
X176092993Y-83634075D01*
X175965826Y-83600000D01*
X175834174Y-83600000D01*
X175707007Y-83634075D01*
X175650000Y-83666988D01*
X175650000Y-82950001D01*
X175649999Y-82950000D01*
X175005210Y-82950000D01*
X175005207Y-82950001D01*
X174980125Y-82952909D01*
X174877522Y-82998213D01*
X174798213Y-83077522D01*
X174752909Y-83180127D01*
X174750000Y-83205202D01*
X173911690Y-83205202D01*
X173857597Y-83169058D01*
X173666418Y-83089869D01*
X173463467Y-83049500D01*
X173463465Y-83049500D01*
X173256535Y-83049500D01*
X173256532Y-83049500D01*
X173053581Y-83089869D01*
X172862402Y-83169058D01*
X172690348Y-83284020D01*
X172544020Y-83430348D01*
X172429058Y-83602402D01*
X172349869Y-83793581D01*
X172309500Y-83996532D01*
X171870499Y-83996532D01*
X171830130Y-83793580D01*
X171750941Y-83602402D01*
X171635977Y-83430345D01*
X171489655Y-83284023D01*
X171420799Y-83238015D01*
X171317597Y-83169058D01*
X171126418Y-83089869D01*
X170923467Y-83049500D01*
X170923465Y-83049500D01*
X170716535Y-83049500D01*
X170716532Y-83049500D01*
X170513581Y-83089869D01*
X170322402Y-83169058D01*
X170150348Y-83284020D01*
X170004020Y-83430348D01*
X169889058Y-83602402D01*
X169809869Y-83793581D01*
X169769500Y-83996532D01*
X145881992Y-83996532D01*
X145940509Y-83938015D01*
X146012984Y-83812485D01*
X146050500Y-83672475D01*
X146050500Y-83527525D01*
X146012984Y-83387515D01*
X146012982Y-83387512D01*
X146012982Y-83387510D01*
X145940512Y-83261989D01*
X145940510Y-83261987D01*
X145940509Y-83261985D01*
X145838015Y-83159491D01*
X145838012Y-83159489D01*
X145838010Y-83159487D01*
X145712488Y-83087017D01*
X145712489Y-83087017D01*
X145677053Y-83077522D01*
X145572475Y-83049500D01*
X145427525Y-83049500D01*
X145365790Y-83066041D01*
X145287510Y-83087017D01*
X145161989Y-83159487D01*
X145059487Y-83261989D01*
X144987017Y-83387510D01*
X144949500Y-83527525D01*
X128400500Y-83527525D01*
X128400500Y-82827525D01*
X143549500Y-82827525D01*
X143549500Y-82972474D01*
X143587017Y-83112489D01*
X143659487Y-83238010D01*
X143659489Y-83238012D01*
X143659491Y-83238015D01*
X143761985Y-83340509D01*
X143761987Y-83340510D01*
X143761989Y-83340512D01*
X143887511Y-83412982D01*
X143887512Y-83412982D01*
X143887515Y-83412984D01*
X144027525Y-83450500D01*
X144027526Y-83450500D01*
X144172473Y-83450500D01*
X144172475Y-83450500D01*
X144312485Y-83412984D01*
X144312488Y-83412982D01*
X144312489Y-83412982D01*
X144438010Y-83340512D01*
X144438010Y-83340511D01*
X144438015Y-83340509D01*
X144540509Y-83238015D01*
X144580321Y-83169059D01*
X144612982Y-83112489D01*
X144612982Y-83112487D01*
X144612984Y-83112485D01*
X144650500Y-82972475D01*
X144650500Y-82827525D01*
X144612984Y-82687515D01*
X144612982Y-82687512D01*
X144612982Y-82687510D01*
X144540512Y-82561989D01*
X144540510Y-82561987D01*
X144540509Y-82561985D01*
X144438015Y-82459491D01*
X144438012Y-82459489D01*
X144438010Y-82459487D01*
X144312488Y-82387017D01*
X144312489Y-82387017D01*
X144282896Y-82379087D01*
X144172475Y-82349500D01*
X144027525Y-82349500D01*
X143979065Y-82362485D01*
X143887510Y-82387017D01*
X143761989Y-82459487D01*
X143659487Y-82561989D01*
X143587017Y-82687510D01*
X143549500Y-82827525D01*
X128400500Y-82827525D01*
X128400500Y-82077525D01*
X149349500Y-82077525D01*
X149349500Y-82222475D01*
X149373752Y-82312982D01*
X149387017Y-82362489D01*
X149459487Y-82488010D01*
X149459489Y-82488012D01*
X149459491Y-82488015D01*
X149561985Y-82590509D01*
X149561987Y-82590510D01*
X149561989Y-82590512D01*
X149687511Y-82662982D01*
X149687512Y-82662982D01*
X149687515Y-82662984D01*
X149827525Y-82700500D01*
X149827526Y-82700500D01*
X149972474Y-82700500D01*
X149972475Y-82700500D01*
X150112485Y-82662984D01*
X150112487Y-82662982D01*
X150112489Y-82662982D01*
X150238010Y-82590512D01*
X150238010Y-82590511D01*
X150238015Y-82590509D01*
X150340509Y-82488015D01*
X150340512Y-82488010D01*
X150412982Y-82362489D01*
X150412982Y-82362487D01*
X150412984Y-82362485D01*
X150450500Y-82222475D01*
X150450500Y-82077525D01*
X150437102Y-82027525D01*
X151049500Y-82027525D01*
X151049500Y-82172474D01*
X151087017Y-82312489D01*
X151159487Y-82438010D01*
X151159489Y-82438012D01*
X151159491Y-82438015D01*
X151261985Y-82540509D01*
X151261987Y-82540510D01*
X151261989Y-82540512D01*
X151387511Y-82612982D01*
X151387512Y-82612982D01*
X151387515Y-82612984D01*
X151527525Y-82650500D01*
X151527526Y-82650500D01*
X151672474Y-82650500D01*
X151672475Y-82650500D01*
X151812485Y-82612984D01*
X151812487Y-82612982D01*
X151812489Y-82612982D01*
X151938010Y-82540512D01*
X151938010Y-82540511D01*
X151938015Y-82540509D01*
X152040509Y-82438015D01*
X152069953Y-82387017D01*
X152112982Y-82312489D01*
X152112982Y-82312487D01*
X152112984Y-82312485D01*
X152150500Y-82172475D01*
X152150500Y-82027525D01*
X152112984Y-81887515D01*
X152040509Y-81761985D01*
X152006049Y-81727525D01*
X159149500Y-81727525D01*
X159149500Y-81872475D01*
X159153530Y-81887515D01*
X159187017Y-82012489D01*
X159259487Y-82138010D01*
X159259489Y-82138012D01*
X159259491Y-82138015D01*
X159361985Y-82240509D01*
X159361987Y-82240510D01*
X159361989Y-82240512D01*
X159487511Y-82312982D01*
X159487512Y-82312982D01*
X159487515Y-82312984D01*
X159627525Y-82350500D01*
X159627526Y-82350500D01*
X159772474Y-82350500D01*
X159772475Y-82350500D01*
X159912485Y-82312984D01*
X159912487Y-82312982D01*
X159912489Y-82312982D01*
X160038010Y-82240512D01*
X160038010Y-82240511D01*
X160038015Y-82240509D01*
X160140509Y-82138015D01*
X160212984Y-82012485D01*
X160250500Y-81872475D01*
X160250500Y-81727525D01*
X160212984Y-81587515D01*
X160212982Y-81587512D01*
X160212982Y-81587510D01*
X160140512Y-81461989D01*
X160140510Y-81461987D01*
X160140509Y-81461985D01*
X160038015Y-81359491D01*
X160038012Y-81359489D01*
X160038010Y-81359487D01*
X159912488Y-81287017D01*
X159912489Y-81287017D01*
X159882896Y-81279087D01*
X159772475Y-81249500D01*
X159627525Y-81249500D01*
X159565790Y-81266041D01*
X159487510Y-81287017D01*
X159361989Y-81359487D01*
X159259487Y-81461989D01*
X159187017Y-81587510D01*
X159181951Y-81606418D01*
X159149500Y-81727525D01*
X152006049Y-81727525D01*
X151938015Y-81659491D01*
X151938012Y-81659489D01*
X151938010Y-81659487D01*
X151812488Y-81587017D01*
X151812489Y-81587017D01*
X151782896Y-81579087D01*
X151672475Y-81549500D01*
X151527525Y-81549500D01*
X151465790Y-81566041D01*
X151387510Y-81587017D01*
X151261989Y-81659487D01*
X151159487Y-81761989D01*
X151087017Y-81887510D01*
X151049500Y-82027525D01*
X150437102Y-82027525D01*
X150412984Y-81937515D01*
X150412982Y-81937512D01*
X150412982Y-81937510D01*
X150340512Y-81811989D01*
X150340510Y-81811987D01*
X150340509Y-81811985D01*
X150238015Y-81709491D01*
X150238012Y-81709489D01*
X150238010Y-81709487D01*
X150112488Y-81637017D01*
X150112489Y-81637017D01*
X150082896Y-81629087D01*
X149972475Y-81599500D01*
X149827525Y-81599500D01*
X149801700Y-81606420D01*
X149687510Y-81637017D01*
X149561989Y-81709487D01*
X149459487Y-81811989D01*
X149387017Y-81937510D01*
X149357771Y-82046659D01*
X149349500Y-82077525D01*
X128400500Y-82077525D01*
X128400500Y-81196532D01*
X169769500Y-81196532D01*
X169769500Y-81403467D01*
X169809869Y-81606418D01*
X169889058Y-81797597D01*
X169982548Y-81937515D01*
X170004023Y-81969655D01*
X170150345Y-82115977D01*
X170322402Y-82230941D01*
X170513580Y-82310130D01*
X170716535Y-82350500D01*
X170716536Y-82350500D01*
X170923464Y-82350500D01*
X170923465Y-82350500D01*
X171126420Y-82310130D01*
X171317598Y-82230941D01*
X171489655Y-82115977D01*
X171635977Y-81969655D01*
X171750941Y-81797598D01*
X171830130Y-81606420D01*
X171870500Y-81403465D01*
X171870500Y-81196535D01*
X171870499Y-81196532D01*
X172309500Y-81196532D01*
X172309500Y-81403467D01*
X172349869Y-81606418D01*
X172429058Y-81797597D01*
X172522548Y-81937515D01*
X172544023Y-81969655D01*
X172690345Y-82115977D01*
X172862402Y-82230941D01*
X173053580Y-82310130D01*
X173256535Y-82350500D01*
X173256536Y-82350500D01*
X173463464Y-82350500D01*
X173463465Y-82350500D01*
X173666420Y-82310130D01*
X173857598Y-82230941D01*
X174029655Y-82115977D01*
X174175977Y-81969655D01*
X174290941Y-81797598D01*
X174370130Y-81606420D01*
X174410500Y-81403465D01*
X174410500Y-81196535D01*
X174370130Y-80993580D01*
X174290941Y-80802402D01*
X174175977Y-80630345D01*
X174029655Y-80484023D01*
X173973773Y-80446684D01*
X173911691Y-80405202D01*
X174750000Y-80405202D01*
X174750000Y-81049999D01*
X174750001Y-81050000D01*
X175466988Y-81050000D01*
X175434075Y-81107007D01*
X175400000Y-81234174D01*
X175400000Y-81365826D01*
X175434075Y-81492993D01*
X175466988Y-81550000D01*
X174750002Y-81550000D01*
X174750001Y-81550001D01*
X174750001Y-82194791D01*
X174752909Y-82219874D01*
X174798213Y-82322477D01*
X174877522Y-82401786D01*
X174980127Y-82447090D01*
X175005203Y-82449999D01*
X175649998Y-82449999D01*
X175650000Y-82449998D01*
X175650000Y-81733012D01*
X175707007Y-81765925D01*
X175834174Y-81800000D01*
X175965826Y-81800000D01*
X176092993Y-81765925D01*
X176150000Y-81733012D01*
X176150000Y-82449998D01*
X176150001Y-82449999D01*
X176794790Y-82449999D01*
X176794791Y-82449998D01*
X176819874Y-82447090D01*
X176922477Y-82401786D01*
X177001786Y-82322477D01*
X177047090Y-82219872D01*
X177049999Y-82194797D01*
X177050000Y-82194795D01*
X177050000Y-81550001D01*
X177049999Y-81550000D01*
X176333012Y-81550000D01*
X176365925Y-81492993D01*
X176400000Y-81365826D01*
X176400000Y-81234174D01*
X176365925Y-81107007D01*
X176333012Y-81050000D01*
X177049998Y-81050000D01*
X177049999Y-81049999D01*
X177049999Y-80405210D01*
X177049998Y-80405208D01*
X177047090Y-80380125D01*
X177001786Y-80277522D01*
X176922477Y-80198213D01*
X176819872Y-80152909D01*
X176794797Y-80150000D01*
X176150001Y-80150000D01*
X176150000Y-80150001D01*
X176150000Y-80866988D01*
X176092993Y-80834075D01*
X175965826Y-80800000D01*
X175834174Y-80800000D01*
X175707007Y-80834075D01*
X175650000Y-80866988D01*
X175650000Y-80150001D01*
X175649999Y-80150000D01*
X175005210Y-80150000D01*
X175005207Y-80150001D01*
X174980125Y-80152909D01*
X174877522Y-80198213D01*
X174798213Y-80277522D01*
X174752909Y-80380127D01*
X174750000Y-80405202D01*
X173911691Y-80405202D01*
X173857597Y-80369058D01*
X173666418Y-80289869D01*
X173463467Y-80249500D01*
X173463465Y-80249500D01*
X173256535Y-80249500D01*
X173256532Y-80249500D01*
X173053581Y-80289869D01*
X172862402Y-80369058D01*
X172690348Y-80484020D01*
X172544020Y-80630348D01*
X172429058Y-80802402D01*
X172349869Y-80993581D01*
X172309500Y-81196532D01*
X171870499Y-81196532D01*
X171830130Y-80993580D01*
X171750941Y-80802402D01*
X171635977Y-80630345D01*
X171489655Y-80484023D01*
X171433773Y-80446684D01*
X171317597Y-80369058D01*
X171126418Y-80289869D01*
X170923467Y-80249500D01*
X170923465Y-80249500D01*
X170716535Y-80249500D01*
X170716532Y-80249500D01*
X170513581Y-80289869D01*
X170322402Y-80369058D01*
X170150348Y-80484020D01*
X170004020Y-80630348D01*
X169889058Y-80802402D01*
X169809869Y-80993581D01*
X169769500Y-81196532D01*
X128400500Y-81196532D01*
X128400500Y-80527525D01*
X138649500Y-80527525D01*
X138649500Y-80672474D01*
X138687017Y-80812489D01*
X138759487Y-80938010D01*
X138759489Y-80938012D01*
X138759491Y-80938015D01*
X138861985Y-81040509D01*
X138861987Y-81040510D01*
X138861989Y-81040512D01*
X138987511Y-81112982D01*
X138987512Y-81112982D01*
X138987515Y-81112984D01*
X139127525Y-81150500D01*
X139127526Y-81150500D01*
X139272474Y-81150500D01*
X139272475Y-81150500D01*
X139412485Y-81112984D01*
X139412487Y-81112982D01*
X139412489Y-81112982D01*
X139538010Y-81040512D01*
X139538010Y-81040511D01*
X139538015Y-81040509D01*
X139640509Y-80938015D01*
X139712984Y-80812485D01*
X139750500Y-80672475D01*
X139750500Y-80527525D01*
X139723705Y-80427525D01*
X154049500Y-80427525D01*
X154049500Y-80572475D01*
X154065007Y-80630348D01*
X154087017Y-80712489D01*
X154159487Y-80838010D01*
X154159489Y-80838012D01*
X154159491Y-80838015D01*
X154261985Y-80940509D01*
X154261987Y-80940510D01*
X154261989Y-80940512D01*
X154387511Y-81012982D01*
X154387512Y-81012982D01*
X154387515Y-81012984D01*
X154527525Y-81050500D01*
X154527526Y-81050500D01*
X154672474Y-81050500D01*
X154672475Y-81050500D01*
X154812485Y-81012984D01*
X154812487Y-81012982D01*
X154812489Y-81012982D01*
X154938010Y-80940512D01*
X154938010Y-80940511D01*
X154938015Y-80940509D01*
X155040509Y-80838015D01*
X155042784Y-80834075D01*
X155112982Y-80712489D01*
X155112982Y-80712487D01*
X155112984Y-80712485D01*
X155150500Y-80572475D01*
X155150500Y-80427525D01*
X155112984Y-80287515D01*
X155112982Y-80287512D01*
X155112982Y-80287510D01*
X155040512Y-80161989D01*
X155040510Y-80161987D01*
X155040509Y-80161985D01*
X154938015Y-80059491D01*
X154938012Y-80059489D01*
X154938010Y-80059487D01*
X154812488Y-79987017D01*
X154812489Y-79987017D01*
X154735516Y-79966392D01*
X154672475Y-79949500D01*
X154527525Y-79949500D01*
X154465790Y-79966041D01*
X154387510Y-79987017D01*
X154261989Y-80059487D01*
X154159487Y-80161989D01*
X154087017Y-80287510D01*
X154087016Y-80287515D01*
X154049500Y-80427525D01*
X139723705Y-80427525D01*
X139712984Y-80387515D01*
X139712982Y-80387512D01*
X139712982Y-80387510D01*
X139640512Y-80261989D01*
X139640510Y-80261987D01*
X139640509Y-80261985D01*
X139538015Y-80159491D01*
X139538012Y-80159489D01*
X139538010Y-80159487D01*
X139412488Y-80087017D01*
X139412489Y-80087017D01*
X139309761Y-80059491D01*
X139272475Y-80049500D01*
X139127525Y-80049500D01*
X139090239Y-80059491D01*
X138987510Y-80087017D01*
X138861989Y-80159487D01*
X138759487Y-80261989D01*
X138687017Y-80387510D01*
X138649500Y-80527525D01*
X128400500Y-80527525D01*
X128400500Y-78927525D01*
X146249500Y-78927525D01*
X146249500Y-79072475D01*
X146264251Y-79127525D01*
X146287017Y-79212489D01*
X146359487Y-79338010D01*
X146359489Y-79338012D01*
X146359491Y-79338015D01*
X146461985Y-79440509D01*
X146461987Y-79440510D01*
X146461989Y-79440512D01*
X146587511Y-79512982D01*
X146587512Y-79512982D01*
X146587515Y-79512984D01*
X146727525Y-79550500D01*
X146727526Y-79550500D01*
X146872474Y-79550500D01*
X146872475Y-79550500D01*
X147012485Y-79512984D01*
X147012487Y-79512982D01*
X147012489Y-79512982D01*
X147138010Y-79440512D01*
X147138010Y-79440511D01*
X147138015Y-79440509D01*
X147144416Y-79434108D01*
X151399500Y-79434108D01*
X151399500Y-79565892D01*
X151419494Y-79640512D01*
X151433609Y-79693190D01*
X151499496Y-79807309D01*
X151499498Y-79807311D01*
X151499500Y-79807314D01*
X151592686Y-79900500D01*
X151592688Y-79900501D01*
X151592690Y-79900503D01*
X151706810Y-79966390D01*
X151706808Y-79966390D01*
X151706812Y-79966391D01*
X151706814Y-79966392D01*
X151834108Y-80000500D01*
X151834110Y-80000500D01*
X151965890Y-80000500D01*
X151965892Y-80000500D01*
X152093186Y-79966392D01*
X152093188Y-79966390D01*
X152093190Y-79966390D01*
X152207309Y-79900503D01*
X152207309Y-79900502D01*
X152207314Y-79900500D01*
X152300500Y-79807314D01*
X152366392Y-79693186D01*
X152400500Y-79565892D01*
X152400500Y-79434108D01*
X152366392Y-79306814D01*
X152366390Y-79306811D01*
X152366390Y-79306809D01*
X152300503Y-79192690D01*
X152300501Y-79192688D01*
X152300500Y-79192686D01*
X152235339Y-79127525D01*
X154049500Y-79127525D01*
X154049500Y-79272475D01*
X154079087Y-79382896D01*
X154087017Y-79412489D01*
X154159487Y-79538010D01*
X154159489Y-79538012D01*
X154159491Y-79538015D01*
X154261985Y-79640509D01*
X154261987Y-79640510D01*
X154261989Y-79640512D01*
X154387511Y-79712982D01*
X154387512Y-79712982D01*
X154387515Y-79712984D01*
X154527525Y-79750500D01*
X154527526Y-79750500D01*
X154672474Y-79750500D01*
X154672475Y-79750500D01*
X154812485Y-79712984D01*
X154812487Y-79712982D01*
X154812489Y-79712982D01*
X154938010Y-79640512D01*
X154938010Y-79640511D01*
X154938015Y-79640509D01*
X155040509Y-79538015D01*
X155054962Y-79512982D01*
X155112982Y-79412489D01*
X155112982Y-79412487D01*
X155112984Y-79412485D01*
X155150500Y-79272475D01*
X155150500Y-79127525D01*
X155112984Y-78987515D01*
X155112982Y-78987512D01*
X155112982Y-78987510D01*
X155040512Y-78861989D01*
X155040510Y-78861987D01*
X155040509Y-78861985D01*
X154938015Y-78759491D01*
X154938012Y-78759489D01*
X154938010Y-78759487D01*
X154812488Y-78687017D01*
X154812489Y-78687017D01*
X154782896Y-78679087D01*
X154672475Y-78649500D01*
X154527525Y-78649500D01*
X154480931Y-78661985D01*
X154387510Y-78687017D01*
X154261989Y-78759487D01*
X154159487Y-78861989D01*
X154087017Y-78987510D01*
X154074665Y-79033608D01*
X154049500Y-79127525D01*
X152235339Y-79127525D01*
X152207314Y-79099500D01*
X152207311Y-79099498D01*
X152207309Y-79099496D01*
X152093189Y-79033609D01*
X152093191Y-79033609D01*
X152043799Y-79020375D01*
X151965892Y-78999500D01*
X151834108Y-78999500D01*
X151756200Y-79020375D01*
X151706809Y-79033609D01*
X151592690Y-79099496D01*
X151499496Y-79192690D01*
X151433609Y-79306809D01*
X151433608Y-79306814D01*
X151399500Y-79434108D01*
X147144416Y-79434108D01*
X147240509Y-79338015D01*
X147312984Y-79212485D01*
X147350500Y-79072475D01*
X147350500Y-78927525D01*
X147312984Y-78787515D01*
X147312982Y-78787512D01*
X147312982Y-78787510D01*
X147240512Y-78661989D01*
X147240510Y-78661987D01*
X147240509Y-78661985D01*
X147138015Y-78559491D01*
X147138012Y-78559489D01*
X147138010Y-78559487D01*
X147012488Y-78487017D01*
X147012489Y-78487017D01*
X146982896Y-78479087D01*
X146872475Y-78449500D01*
X146727525Y-78449500D01*
X146665790Y-78466041D01*
X146587510Y-78487017D01*
X146461989Y-78559487D01*
X146359487Y-78661989D01*
X146287017Y-78787510D01*
X146256849Y-78900099D01*
X146249500Y-78927525D01*
X128400500Y-78927525D01*
X128400500Y-78234108D01*
X151999500Y-78234108D01*
X151999500Y-78365892D01*
X152029579Y-78478151D01*
X152033609Y-78493190D01*
X152099496Y-78607309D01*
X152099498Y-78607311D01*
X152099500Y-78607314D01*
X152192686Y-78700500D01*
X152192688Y-78700501D01*
X152192690Y-78700503D01*
X152306810Y-78766390D01*
X152306808Y-78766390D01*
X152306812Y-78766391D01*
X152306814Y-78766392D01*
X152434108Y-78800500D01*
X152434110Y-78800500D01*
X152565890Y-78800500D01*
X152565892Y-78800500D01*
X152693186Y-78766392D01*
X152693188Y-78766390D01*
X152693190Y-78766390D01*
X152807309Y-78700503D01*
X152807309Y-78700502D01*
X152807314Y-78700500D01*
X152900500Y-78607314D01*
X152902722Y-78603465D01*
X152966390Y-78493190D01*
X152966390Y-78493188D01*
X152966392Y-78493186D01*
X152992290Y-78396532D01*
X169769500Y-78396532D01*
X169769500Y-78603467D01*
X169809869Y-78806418D01*
X169889058Y-78997597D01*
X169957147Y-79099500D01*
X170004023Y-79169655D01*
X170150345Y-79315977D01*
X170322402Y-79430941D01*
X170513580Y-79510130D01*
X170716535Y-79550500D01*
X170716536Y-79550500D01*
X170923464Y-79550500D01*
X170923465Y-79550500D01*
X171126420Y-79510130D01*
X171317598Y-79430941D01*
X171489655Y-79315977D01*
X171635977Y-79169655D01*
X171750941Y-78997598D01*
X171830130Y-78806420D01*
X171870500Y-78603465D01*
X171870500Y-78396535D01*
X171870499Y-78396532D01*
X172309500Y-78396532D01*
X172309500Y-78603467D01*
X172349869Y-78806418D01*
X172429058Y-78997597D01*
X172497147Y-79099500D01*
X172544023Y-79169655D01*
X172690345Y-79315977D01*
X172862402Y-79430941D01*
X173053580Y-79510130D01*
X173256535Y-79550500D01*
X173256536Y-79550500D01*
X173463464Y-79550500D01*
X173463465Y-79550500D01*
X173666420Y-79510130D01*
X173857598Y-79430941D01*
X174029655Y-79315977D01*
X174175977Y-79169655D01*
X174290941Y-78997598D01*
X174370130Y-78806420D01*
X174410500Y-78603465D01*
X174410500Y-78396535D01*
X174370130Y-78193580D01*
X174290941Y-78002402D01*
X174175977Y-77830345D01*
X174029655Y-77684023D01*
X173923334Y-77612982D01*
X173911690Y-77605202D01*
X174750000Y-77605202D01*
X174750000Y-78249999D01*
X174750001Y-78250000D01*
X175466988Y-78250000D01*
X175434075Y-78307007D01*
X175400000Y-78434174D01*
X175400000Y-78565826D01*
X175434075Y-78692993D01*
X175466988Y-78750000D01*
X174750002Y-78750000D01*
X174750001Y-78750001D01*
X174750001Y-79394791D01*
X174752909Y-79419874D01*
X174798213Y-79522477D01*
X174877522Y-79601786D01*
X174980127Y-79647090D01*
X175005203Y-79649999D01*
X175649998Y-79649999D01*
X175650000Y-79649998D01*
X175650000Y-78933012D01*
X175707007Y-78965925D01*
X175834174Y-79000000D01*
X175965826Y-79000000D01*
X176092993Y-78965925D01*
X176150000Y-78933012D01*
X176150000Y-79649998D01*
X176150001Y-79649999D01*
X176794790Y-79649999D01*
X176794791Y-79649998D01*
X176819874Y-79647090D01*
X176922477Y-79601786D01*
X177001786Y-79522477D01*
X177047090Y-79419872D01*
X177049999Y-79394797D01*
X177050000Y-79394795D01*
X177050000Y-78750001D01*
X177049999Y-78750000D01*
X176333012Y-78750000D01*
X176365925Y-78692993D01*
X176400000Y-78565826D01*
X176400000Y-78434174D01*
X176365925Y-78307007D01*
X176333012Y-78250000D01*
X177049998Y-78250000D01*
X177049999Y-78249999D01*
X177049999Y-77605210D01*
X177049998Y-77605208D01*
X177047090Y-77580125D01*
X177001786Y-77477522D01*
X176922477Y-77398213D01*
X176819872Y-77352909D01*
X176794797Y-77350000D01*
X176150001Y-77350000D01*
X176150000Y-77350001D01*
X176150000Y-78066988D01*
X176092993Y-78034075D01*
X175965826Y-78000000D01*
X175834174Y-78000000D01*
X175707007Y-78034075D01*
X175650000Y-78066988D01*
X175650000Y-77350001D01*
X175649999Y-77350000D01*
X175005210Y-77350000D01*
X175005207Y-77350001D01*
X174980125Y-77352909D01*
X174877522Y-77398213D01*
X174798213Y-77477522D01*
X174752909Y-77580127D01*
X174750000Y-77605202D01*
X173911690Y-77605202D01*
X173857597Y-77569058D01*
X173666418Y-77489869D01*
X173463467Y-77449500D01*
X173463465Y-77449500D01*
X173256535Y-77449500D01*
X173256532Y-77449500D01*
X173053581Y-77489869D01*
X172862402Y-77569058D01*
X172690348Y-77684020D01*
X172544020Y-77830348D01*
X172429058Y-78002402D01*
X172349869Y-78193581D01*
X172309500Y-78396532D01*
X171870499Y-78396532D01*
X171830130Y-78193580D01*
X171750941Y-78002402D01*
X171635977Y-77830345D01*
X171489655Y-77684023D01*
X171383334Y-77612982D01*
X171317597Y-77569058D01*
X171126418Y-77489869D01*
X170923467Y-77449500D01*
X170923465Y-77449500D01*
X170716535Y-77449500D01*
X170716532Y-77449500D01*
X170513581Y-77489869D01*
X170322402Y-77569058D01*
X170150348Y-77684020D01*
X170004020Y-77830348D01*
X169889058Y-78002402D01*
X169809869Y-78193581D01*
X169769500Y-78396532D01*
X152992290Y-78396532D01*
X153000500Y-78365892D01*
X153000500Y-78234108D01*
X152966392Y-78106814D01*
X152966390Y-78106811D01*
X152966390Y-78106809D01*
X152900503Y-77992690D01*
X152900501Y-77992688D01*
X152900500Y-77992686D01*
X152807314Y-77899500D01*
X152807311Y-77899498D01*
X152807309Y-77899496D01*
X152693189Y-77833609D01*
X152693191Y-77833609D01*
X152643799Y-77820375D01*
X152565892Y-77799500D01*
X152434108Y-77799500D01*
X152356200Y-77820375D01*
X152306809Y-77833609D01*
X152192690Y-77899496D01*
X152099496Y-77992690D01*
X152033609Y-78106809D01*
X152033608Y-78106814D01*
X151999500Y-78234108D01*
X128400500Y-78234108D01*
X128400500Y-77277525D01*
X149349500Y-77277525D01*
X149349500Y-77422475D01*
X149364250Y-77477522D01*
X149387017Y-77562489D01*
X149459487Y-77688010D01*
X149459489Y-77688012D01*
X149459491Y-77688015D01*
X149561985Y-77790509D01*
X149561987Y-77790510D01*
X149561989Y-77790512D01*
X149687511Y-77862982D01*
X149687512Y-77862982D01*
X149687515Y-77862984D01*
X149827525Y-77900500D01*
X149827526Y-77900500D01*
X149972474Y-77900500D01*
X149972475Y-77900500D01*
X150112485Y-77862984D01*
X150112487Y-77862982D01*
X150112489Y-77862982D01*
X150238010Y-77790512D01*
X150238010Y-77790511D01*
X150238015Y-77790509D01*
X150340509Y-77688015D01*
X150342816Y-77684020D01*
X150412982Y-77562489D01*
X150412982Y-77562487D01*
X150412984Y-77562485D01*
X150450500Y-77422475D01*
X150450500Y-77277525D01*
X150412984Y-77137515D01*
X150412982Y-77137512D01*
X150412982Y-77137510D01*
X150340512Y-77011989D01*
X150340510Y-77011987D01*
X150340509Y-77011985D01*
X150256049Y-76927525D01*
X152549500Y-76927525D01*
X152549500Y-77072474D01*
X152587017Y-77212489D01*
X152659487Y-77338010D01*
X152659489Y-77338012D01*
X152659491Y-77338015D01*
X152761985Y-77440509D01*
X152761987Y-77440510D01*
X152761989Y-77440512D01*
X152887511Y-77512982D01*
X152887512Y-77512982D01*
X152887515Y-77512984D01*
X153027525Y-77550500D01*
X153027526Y-77550500D01*
X153172474Y-77550500D01*
X153172475Y-77550500D01*
X153312485Y-77512984D01*
X153312487Y-77512982D01*
X153312489Y-77512982D01*
X153438010Y-77440512D01*
X153438010Y-77440511D01*
X153438015Y-77440509D01*
X153540509Y-77338015D01*
X153540512Y-77338010D01*
X153612982Y-77212489D01*
X153612982Y-77212487D01*
X153612984Y-77212485D01*
X153650500Y-77072475D01*
X153650500Y-77027525D01*
X163649500Y-77027525D01*
X163649500Y-77172474D01*
X163687017Y-77312489D01*
X163759487Y-77438010D01*
X163759489Y-77438012D01*
X163759491Y-77438015D01*
X163861985Y-77540509D01*
X163861987Y-77540510D01*
X163861989Y-77540512D01*
X163987511Y-77612982D01*
X163987512Y-77612982D01*
X163987515Y-77612984D01*
X164127525Y-77650500D01*
X164127526Y-77650500D01*
X164272474Y-77650500D01*
X164272475Y-77650500D01*
X164412485Y-77612984D01*
X164412487Y-77612982D01*
X164412489Y-77612982D01*
X164538010Y-77540512D01*
X164538010Y-77540511D01*
X164538015Y-77540509D01*
X164640509Y-77438015D01*
X164712984Y-77312485D01*
X164750500Y-77172475D01*
X164750500Y-77027525D01*
X164712984Y-76887515D01*
X164712982Y-76887512D01*
X164712982Y-76887510D01*
X164640512Y-76761989D01*
X164640510Y-76761987D01*
X164640509Y-76761985D01*
X164538015Y-76659491D01*
X164538012Y-76659489D01*
X164538010Y-76659487D01*
X164412488Y-76587017D01*
X164412489Y-76587017D01*
X164309761Y-76559491D01*
X164272475Y-76549500D01*
X164127525Y-76549500D01*
X164090239Y-76559491D01*
X163987510Y-76587017D01*
X163861989Y-76659487D01*
X163759487Y-76761989D01*
X163687017Y-76887510D01*
X163649500Y-77027525D01*
X153650500Y-77027525D01*
X153650500Y-76927525D01*
X153612984Y-76787515D01*
X153612982Y-76787512D01*
X153612982Y-76787510D01*
X153540512Y-76661989D01*
X153540510Y-76661987D01*
X153540509Y-76661985D01*
X153438015Y-76559491D01*
X153438012Y-76559489D01*
X153438010Y-76559487D01*
X153312488Y-76487017D01*
X153312489Y-76487017D01*
X153282896Y-76479087D01*
X153172475Y-76449500D01*
X153027525Y-76449500D01*
X152965790Y-76466041D01*
X152887510Y-76487017D01*
X152761989Y-76559487D01*
X152659487Y-76661989D01*
X152587017Y-76787510D01*
X152549500Y-76927525D01*
X150256049Y-76927525D01*
X150238015Y-76909491D01*
X150238012Y-76909489D01*
X150238010Y-76909487D01*
X150112488Y-76837017D01*
X150112489Y-76837017D01*
X150082896Y-76829087D01*
X149972475Y-76799500D01*
X149827525Y-76799500D01*
X149765790Y-76816041D01*
X149687510Y-76837017D01*
X149561989Y-76909487D01*
X149459487Y-77011989D01*
X149387017Y-77137510D01*
X149349500Y-77277525D01*
X128400500Y-77277525D01*
X128400500Y-75927525D01*
X146049500Y-75927525D01*
X146049500Y-76072475D01*
X146064251Y-76127525D01*
X146087017Y-76212489D01*
X146159487Y-76338010D01*
X146159489Y-76338012D01*
X146159491Y-76338015D01*
X146261985Y-76440509D01*
X146261987Y-76440510D01*
X146261989Y-76440512D01*
X146387511Y-76512982D01*
X146387512Y-76512982D01*
X146387515Y-76512984D01*
X146527525Y-76550500D01*
X146527526Y-76550500D01*
X146672474Y-76550500D01*
X146672475Y-76550500D01*
X146812485Y-76512984D01*
X146812487Y-76512982D01*
X146812489Y-76512982D01*
X146938010Y-76440512D01*
X146938010Y-76440511D01*
X146938015Y-76440509D01*
X147040509Y-76338015D01*
X147112984Y-76212485D01*
X147135749Y-76127525D01*
X153699500Y-76127525D01*
X153699500Y-76272474D01*
X153737017Y-76412489D01*
X153809487Y-76538010D01*
X153809489Y-76538012D01*
X153809491Y-76538015D01*
X153911985Y-76640509D01*
X153911987Y-76640510D01*
X153911989Y-76640512D01*
X154037511Y-76712982D01*
X154037512Y-76712982D01*
X154037515Y-76712984D01*
X154177525Y-76750500D01*
X154177526Y-76750500D01*
X154322474Y-76750500D01*
X154322475Y-76750500D01*
X154462485Y-76712984D01*
X154462487Y-76712982D01*
X154462489Y-76712982D01*
X154588010Y-76640512D01*
X154588010Y-76640511D01*
X154588015Y-76640509D01*
X154690509Y-76538015D01*
X154719953Y-76487017D01*
X154762982Y-76412489D01*
X154762982Y-76412487D01*
X154762984Y-76412485D01*
X154800500Y-76272475D01*
X154800500Y-76127525D01*
X154762984Y-75987515D01*
X154762982Y-75987512D01*
X154762982Y-75987510D01*
X154690512Y-75861989D01*
X154690510Y-75861987D01*
X154690509Y-75861985D01*
X154588015Y-75759491D01*
X154588012Y-75759489D01*
X154588010Y-75759487D01*
X154462488Y-75687017D01*
X154462489Y-75687017D01*
X154432896Y-75679087D01*
X154322475Y-75649500D01*
X154177525Y-75649500D01*
X154130931Y-75661985D01*
X154037510Y-75687017D01*
X153911989Y-75759487D01*
X153809487Y-75861989D01*
X153737017Y-75987510D01*
X153699500Y-76127525D01*
X147135749Y-76127525D01*
X147150500Y-76072475D01*
X147150500Y-75927525D01*
X147112984Y-75787515D01*
X147112982Y-75787512D01*
X147112982Y-75787510D01*
X147040512Y-75661989D01*
X147040510Y-75661987D01*
X147040509Y-75661985D01*
X146938015Y-75559491D01*
X146938012Y-75559489D01*
X146938010Y-75559487D01*
X146812488Y-75487017D01*
X146812489Y-75487017D01*
X146782896Y-75479087D01*
X146672475Y-75449500D01*
X146527525Y-75449500D01*
X146465790Y-75466041D01*
X146387510Y-75487017D01*
X146261989Y-75559487D01*
X146159487Y-75661989D01*
X146087017Y-75787510D01*
X146049500Y-75927525D01*
X128400500Y-75927525D01*
X128400500Y-73827525D01*
X145949500Y-73827525D01*
X145949500Y-73972475D01*
X145972006Y-74056468D01*
X145987017Y-74112489D01*
X146059487Y-74238010D01*
X146059489Y-74238012D01*
X146059491Y-74238015D01*
X146161985Y-74340509D01*
X146161987Y-74340510D01*
X146161989Y-74340512D01*
X146287511Y-74412982D01*
X146287512Y-74412982D01*
X146287515Y-74412984D01*
X146427525Y-74450500D01*
X146427526Y-74450500D01*
X146572474Y-74450500D01*
X146572475Y-74450500D01*
X146712485Y-74412984D01*
X146712487Y-74412982D01*
X146712489Y-74412982D01*
X146838010Y-74340512D01*
X146838010Y-74340511D01*
X146838015Y-74340509D01*
X146940509Y-74238015D01*
X146959379Y-74205331D01*
X147012982Y-74112489D01*
X147012982Y-74112487D01*
X147012984Y-74112485D01*
X147050500Y-73972475D01*
X147050500Y-73827525D01*
X147023705Y-73727525D01*
X149099500Y-73727525D01*
X149099500Y-73872475D01*
X149118285Y-73942579D01*
X149137017Y-74012489D01*
X149209487Y-74138010D01*
X149209489Y-74138012D01*
X149209491Y-74138015D01*
X149311985Y-74240509D01*
X149311987Y-74240510D01*
X149311989Y-74240512D01*
X149437511Y-74312982D01*
X149437512Y-74312982D01*
X149437515Y-74312984D01*
X149577525Y-74350500D01*
X149577526Y-74350500D01*
X149722474Y-74350500D01*
X149722475Y-74350500D01*
X149808218Y-74327525D01*
X150249500Y-74327525D01*
X150249500Y-74472475D01*
X150279087Y-74582896D01*
X150287017Y-74612489D01*
X150359487Y-74738010D01*
X150359489Y-74738012D01*
X150359491Y-74738015D01*
X150461985Y-74840509D01*
X150461987Y-74840510D01*
X150461989Y-74840512D01*
X150587511Y-74912982D01*
X150587512Y-74912982D01*
X150587515Y-74912984D01*
X150727525Y-74950500D01*
X150727526Y-74950500D01*
X150872474Y-74950500D01*
X150872475Y-74950500D01*
X151012485Y-74912984D01*
X151012487Y-74912982D01*
X151012489Y-74912982D01*
X151138010Y-74840512D01*
X151138010Y-74840511D01*
X151138015Y-74840509D01*
X151150999Y-74827525D01*
X152649500Y-74827525D01*
X152649500Y-74972475D01*
X152678976Y-75082478D01*
X152687017Y-75112489D01*
X152759487Y-75238010D01*
X152759489Y-75238012D01*
X152759491Y-75238015D01*
X152861985Y-75340509D01*
X152861987Y-75340510D01*
X152861989Y-75340512D01*
X152987511Y-75412982D01*
X152987512Y-75412982D01*
X152987515Y-75412984D01*
X153127525Y-75450500D01*
X153127526Y-75450500D01*
X153272474Y-75450500D01*
X153272475Y-75450500D01*
X153412485Y-75412984D01*
X153412487Y-75412982D01*
X153412489Y-75412982D01*
X153538010Y-75340512D01*
X153538010Y-75340511D01*
X153538015Y-75340509D01*
X153640509Y-75238015D01*
X153669377Y-75188015D01*
X153712982Y-75112489D01*
X153712982Y-75112487D01*
X153712984Y-75112485D01*
X153750500Y-74972475D01*
X153750500Y-74827525D01*
X153737102Y-74777525D01*
X153949500Y-74777525D01*
X153949500Y-74922475D01*
X153962897Y-74972474D01*
X153987017Y-75062489D01*
X154059487Y-75188010D01*
X154059489Y-75188012D01*
X154059491Y-75188015D01*
X154161985Y-75290509D01*
X154161987Y-75290510D01*
X154161989Y-75290512D01*
X154287511Y-75362982D01*
X154287512Y-75362982D01*
X154287515Y-75362984D01*
X154427525Y-75400500D01*
X154427526Y-75400500D01*
X154572474Y-75400500D01*
X154572475Y-75400500D01*
X154712485Y-75362984D01*
X154712487Y-75362982D01*
X154712489Y-75362982D01*
X154838010Y-75290512D01*
X154838010Y-75290511D01*
X154838015Y-75290509D01*
X154940509Y-75188015D01*
X154943100Y-75183528D01*
X155012982Y-75062489D01*
X155012982Y-75062487D01*
X155012984Y-75062485D01*
X155050500Y-74922475D01*
X155050500Y-74777525D01*
X155012984Y-74637515D01*
X154961615Y-74548542D01*
X169569500Y-74548542D01*
X169569500Y-74691457D01*
X169581351Y-74751032D01*
X169596566Y-74827525D01*
X169597381Y-74831619D01*
X169597381Y-74831621D01*
X169652068Y-74963648D01*
X169652074Y-74963659D01*
X169699522Y-75034668D01*
X169731468Y-75082479D01*
X169832521Y-75183532D01*
X169903362Y-75230866D01*
X169951340Y-75262925D01*
X169951351Y-75262931D01*
X170000121Y-75283132D01*
X170083380Y-75317619D01*
X170223545Y-75345500D01*
X170223546Y-75345500D01*
X171416454Y-75345500D01*
X171416455Y-75345500D01*
X171556620Y-75317619D01*
X171688653Y-75262929D01*
X171807479Y-75183532D01*
X171908532Y-75082479D01*
X171987929Y-74963653D01*
X172042619Y-74831620D01*
X172070500Y-74691455D01*
X172070500Y-74555931D01*
X173899500Y-74555931D01*
X173899500Y-74684069D01*
X173921896Y-74796660D01*
X173924499Y-74809742D01*
X173924500Y-74809747D01*
X173973534Y-74928125D01*
X173973538Y-74928133D01*
X174003167Y-74972475D01*
X174044724Y-75034669D01*
X174135331Y-75125276D01*
X174198848Y-75167717D01*
X174241866Y-75196461D01*
X174241870Y-75196463D01*
X174241873Y-75196465D01*
X174360256Y-75245501D01*
X174485931Y-75270500D01*
X174485932Y-75270500D01*
X175514068Y-75270500D01*
X175514069Y-75270500D01*
X175639744Y-75245501D01*
X175758127Y-75196465D01*
X175864669Y-75125276D01*
X175955276Y-75034669D01*
X176026465Y-74928127D01*
X176075501Y-74809744D01*
X176100500Y-74684069D01*
X176100500Y-74555931D01*
X176075501Y-74430256D01*
X176026465Y-74311873D01*
X176026463Y-74311870D01*
X176026461Y-74311866D01*
X175978781Y-74240509D01*
X175955276Y-74205331D01*
X175864669Y-74114724D01*
X175798537Y-74070536D01*
X175758133Y-74043538D01*
X175758125Y-74043534D01*
X175639747Y-73994500D01*
X175639745Y-73994499D01*
X175639744Y-73994499D01*
X175514069Y-73969500D01*
X174485931Y-73969500D01*
X174485930Y-73969500D01*
X174447885Y-73977068D01*
X174360256Y-73994499D01*
X174360255Y-73994499D01*
X174360252Y-73994500D01*
X174241874Y-74043534D01*
X174241866Y-74043538D01*
X174135331Y-74114724D01*
X174135327Y-74114727D01*
X174044727Y-74205327D01*
X174044724Y-74205331D01*
X173973538Y-74311866D01*
X173973534Y-74311874D01*
X173924500Y-74430252D01*
X173924499Y-74430255D01*
X173924499Y-74430256D01*
X173899500Y-74555931D01*
X172070500Y-74555931D01*
X172070500Y-74548545D01*
X172042619Y-74408380D01*
X172014506Y-74340509D01*
X171987931Y-74276351D01*
X171987925Y-74276340D01*
X171955866Y-74228362D01*
X171908532Y-74157521D01*
X171807479Y-74056468D01*
X171726115Y-74002102D01*
X171688659Y-73977074D01*
X171688651Y-73977070D01*
X171605382Y-73942579D01*
X171558857Y-73902842D01*
X171544573Y-73843348D01*
X171567988Y-73786820D01*
X171605382Y-73759651D01*
X171621022Y-73753173D01*
X171725108Y-73683625D01*
X171813625Y-73595108D01*
X171883173Y-73491022D01*
X171931078Y-73375369D01*
X171955500Y-73252591D01*
X171955500Y-73127409D01*
X171931078Y-73004631D01*
X171901867Y-72934109D01*
X171883175Y-72888982D01*
X171883169Y-72888971D01*
X171855087Y-72846945D01*
X171813625Y-72784892D01*
X171725108Y-72696375D01*
X171683644Y-72668669D01*
X171621028Y-72626830D01*
X171621017Y-72626824D01*
X171505369Y-72578922D01*
X171382593Y-72554500D01*
X171382591Y-72554500D01*
X171257409Y-72554500D01*
X171257406Y-72554500D01*
X171134631Y-72578922D01*
X171134629Y-72578922D01*
X171018982Y-72626824D01*
X171018971Y-72626830D01*
X170914892Y-72696375D01*
X170914888Y-72696378D01*
X170826378Y-72784888D01*
X170826375Y-72784892D01*
X170756830Y-72888971D01*
X170756824Y-72888982D01*
X170708922Y-73004629D01*
X170708922Y-73004631D01*
X170684500Y-73127406D01*
X170684500Y-73252593D01*
X170708922Y-73375368D01*
X170708922Y-73375370D01*
X170756824Y-73491017D01*
X170756830Y-73491028D01*
X170795901Y-73549500D01*
X170826375Y-73595108D01*
X170914892Y-73683625D01*
X170959132Y-73713185D01*
X170997011Y-73761235D01*
X170999413Y-73822373D01*
X170965420Y-73873247D01*
X170908016Y-73894424D01*
X170904130Y-73894500D01*
X170223542Y-73894500D01*
X170083380Y-73922381D01*
X170083378Y-73922381D01*
X169951351Y-73977068D01*
X169951340Y-73977074D01*
X169832521Y-74056468D01*
X169832517Y-74056471D01*
X169731471Y-74157517D01*
X169731468Y-74157521D01*
X169652074Y-74276340D01*
X169652068Y-74276351D01*
X169597381Y-74408378D01*
X169597381Y-74408380D01*
X169569500Y-74548542D01*
X154961615Y-74548542D01*
X154940509Y-74511985D01*
X154838015Y-74409491D01*
X154838012Y-74409489D01*
X154838010Y-74409487D01*
X154712488Y-74337017D01*
X154712489Y-74337017D01*
X154682896Y-74329087D01*
X154572475Y-74299500D01*
X154427525Y-74299500D01*
X154381375Y-74311866D01*
X154287510Y-74337017D01*
X154161989Y-74409487D01*
X154059487Y-74511989D01*
X153987017Y-74637510D01*
X153972562Y-74691457D01*
X153949500Y-74777525D01*
X153737102Y-74777525D01*
X153712984Y-74687515D01*
X153712982Y-74687512D01*
X153712982Y-74687510D01*
X153640512Y-74561989D01*
X153640510Y-74561987D01*
X153640509Y-74561985D01*
X153538015Y-74459491D01*
X153538012Y-74459489D01*
X153538010Y-74459487D01*
X153412488Y-74387017D01*
X153412489Y-74387017D01*
X153382896Y-74379087D01*
X153272475Y-74349500D01*
X153127525Y-74349500D01*
X153065790Y-74366041D01*
X152987510Y-74387017D01*
X152861989Y-74459487D01*
X152759487Y-74561989D01*
X152687017Y-74687510D01*
X152657771Y-74796659D01*
X152649500Y-74827525D01*
X151150999Y-74827525D01*
X151240509Y-74738015D01*
X151240512Y-74738010D01*
X151312982Y-74612489D01*
X151312982Y-74612487D01*
X151312984Y-74612485D01*
X151350500Y-74472475D01*
X151350500Y-74327525D01*
X151312984Y-74187515D01*
X151240509Y-74061985D01*
X151206049Y-74027525D01*
X151549500Y-74027525D01*
X151549500Y-74172475D01*
X151553530Y-74187515D01*
X151587017Y-74312489D01*
X151659487Y-74438010D01*
X151659489Y-74438012D01*
X151659491Y-74438015D01*
X151761985Y-74540509D01*
X151761987Y-74540510D01*
X151761989Y-74540512D01*
X151887511Y-74612982D01*
X151887512Y-74612982D01*
X151887515Y-74612984D01*
X152027525Y-74650500D01*
X152027526Y-74650500D01*
X152172474Y-74650500D01*
X152172475Y-74650500D01*
X152312485Y-74612984D01*
X152312487Y-74612982D01*
X152312489Y-74612982D01*
X152438010Y-74540512D01*
X152438010Y-74540511D01*
X152438015Y-74540509D01*
X152540509Y-74438015D01*
X152554962Y-74412982D01*
X152612982Y-74312489D01*
X152612982Y-74312487D01*
X152612984Y-74312485D01*
X152650500Y-74172475D01*
X152650500Y-74027525D01*
X152612984Y-73887515D01*
X152612982Y-73887512D01*
X152612982Y-73887510D01*
X152540512Y-73761989D01*
X152540510Y-73761987D01*
X152540509Y-73761985D01*
X152438015Y-73659491D01*
X152438012Y-73659489D01*
X152438010Y-73659487D01*
X152312488Y-73587017D01*
X152312489Y-73587017D01*
X152282896Y-73579087D01*
X152172475Y-73549500D01*
X152027525Y-73549500D01*
X151980931Y-73561985D01*
X151887510Y-73587017D01*
X151761989Y-73659487D01*
X151659487Y-73761989D01*
X151587017Y-73887510D01*
X151563019Y-73977071D01*
X151549500Y-74027525D01*
X151206049Y-74027525D01*
X151138015Y-73959491D01*
X151138012Y-73959489D01*
X151138010Y-73959487D01*
X151012488Y-73887017D01*
X151012489Y-73887017D01*
X150958214Y-73872474D01*
X150872475Y-73849500D01*
X150727525Y-73849500D01*
X150665790Y-73866041D01*
X150587510Y-73887017D01*
X150461989Y-73959487D01*
X150359490Y-74061986D01*
X150344572Y-74087823D01*
X150344546Y-74087870D01*
X150287016Y-74187515D01*
X150284236Y-74197888D01*
X150284234Y-74197893D01*
X150272815Y-74240512D01*
X150249500Y-74327525D01*
X149808218Y-74327525D01*
X149862485Y-74312984D01*
X149862487Y-74312982D01*
X149862489Y-74312982D01*
X149988010Y-74240512D01*
X149988010Y-74240511D01*
X149988015Y-74240509D01*
X150090509Y-74138015D01*
X150162984Y-74012485D01*
X150200500Y-73872475D01*
X150200500Y-73727525D01*
X150162984Y-73587515D01*
X150162982Y-73587512D01*
X150162982Y-73587510D01*
X150090512Y-73461989D01*
X150090510Y-73461987D01*
X150090509Y-73461985D01*
X149988015Y-73359491D01*
X149988012Y-73359489D01*
X149988010Y-73359487D01*
X149932650Y-73327525D01*
X155149500Y-73327525D01*
X155149500Y-73472475D01*
X155179087Y-73582896D01*
X155187017Y-73612489D01*
X155259487Y-73738010D01*
X155259489Y-73738012D01*
X155259491Y-73738015D01*
X155361985Y-73840509D01*
X155361987Y-73840510D01*
X155361989Y-73840512D01*
X155487511Y-73912982D01*
X155487512Y-73912982D01*
X155487515Y-73912984D01*
X155627525Y-73950500D01*
X155627526Y-73950500D01*
X155772474Y-73950500D01*
X155772475Y-73950500D01*
X155912485Y-73912984D01*
X155912487Y-73912982D01*
X155912489Y-73912982D01*
X156038010Y-73840512D01*
X156038010Y-73840511D01*
X156038015Y-73840509D01*
X156140509Y-73738015D01*
X156140512Y-73738010D01*
X156212982Y-73612489D01*
X156212982Y-73612487D01*
X156212984Y-73612485D01*
X156250500Y-73472475D01*
X156250500Y-73327525D01*
X156212984Y-73187515D01*
X156212982Y-73187512D01*
X156212982Y-73187510D01*
X156140512Y-73061989D01*
X156140510Y-73061987D01*
X156140509Y-73061985D01*
X156038015Y-72959491D01*
X156038012Y-72959489D01*
X156038010Y-72959487D01*
X155994052Y-72934108D01*
X168049500Y-72934108D01*
X168049500Y-73065892D01*
X168065984Y-73127410D01*
X168083609Y-73193190D01*
X168149496Y-73307309D01*
X168149498Y-73307311D01*
X168149500Y-73307314D01*
X168242686Y-73400500D01*
X168242688Y-73400501D01*
X168242690Y-73400503D01*
X168356810Y-73466390D01*
X168356808Y-73466390D01*
X168356812Y-73466391D01*
X168356814Y-73466392D01*
X168484108Y-73500500D01*
X168484110Y-73500500D01*
X168615890Y-73500500D01*
X168615892Y-73500500D01*
X168743186Y-73466392D01*
X168743188Y-73466390D01*
X168743190Y-73466390D01*
X168857309Y-73400503D01*
X168857309Y-73400502D01*
X168857314Y-73400500D01*
X168950500Y-73307314D01*
X168982093Y-73252593D01*
X169016390Y-73193190D01*
X169016390Y-73193188D01*
X169016392Y-73193186D01*
X169050500Y-73065892D01*
X169050500Y-72934108D01*
X169016392Y-72806814D01*
X169016390Y-72806811D01*
X169016390Y-72806809D01*
X168950503Y-72692690D01*
X168950501Y-72692688D01*
X168950500Y-72692686D01*
X168857314Y-72599500D01*
X168857311Y-72599498D01*
X168857309Y-72599496D01*
X168743189Y-72533609D01*
X168743191Y-72533609D01*
X168693799Y-72520375D01*
X168615892Y-72499500D01*
X168484108Y-72499500D01*
X168406200Y-72520375D01*
X168356809Y-72533609D01*
X168242690Y-72599496D01*
X168149496Y-72692690D01*
X168083609Y-72806809D01*
X168083608Y-72806814D01*
X168049500Y-72934108D01*
X155994052Y-72934108D01*
X155912488Y-72887017D01*
X155912489Y-72887017D01*
X155882896Y-72879087D01*
X155772475Y-72849500D01*
X155627525Y-72849500D01*
X155565790Y-72866041D01*
X155487510Y-72887017D01*
X155361989Y-72959487D01*
X155259487Y-73061989D01*
X155187017Y-73187510D01*
X155187016Y-73187515D01*
X155149500Y-73327525D01*
X149932650Y-73327525D01*
X149862488Y-73287017D01*
X149862489Y-73287017D01*
X149832896Y-73279087D01*
X149722475Y-73249500D01*
X149577525Y-73249500D01*
X149515790Y-73266041D01*
X149437510Y-73287017D01*
X149311989Y-73359487D01*
X149209487Y-73461989D01*
X149137017Y-73587510D01*
X149130325Y-73612485D01*
X149099500Y-73727525D01*
X147023705Y-73727525D01*
X147012984Y-73687515D01*
X147012982Y-73687512D01*
X147012982Y-73687510D01*
X146940512Y-73561989D01*
X146940510Y-73561987D01*
X146940509Y-73561985D01*
X146838015Y-73459491D01*
X146838012Y-73459489D01*
X146838010Y-73459487D01*
X146712488Y-73387017D01*
X146712489Y-73387017D01*
X146669018Y-73375369D01*
X146572475Y-73349500D01*
X146427525Y-73349500D01*
X146390239Y-73359491D01*
X146287510Y-73387017D01*
X146161989Y-73459487D01*
X146059487Y-73561989D01*
X145987017Y-73687510D01*
X145950880Y-73822373D01*
X145949500Y-73827525D01*
X128400500Y-73827525D01*
X128400500Y-71627525D01*
X136149500Y-71627525D01*
X136149500Y-71772474D01*
X136187017Y-71912489D01*
X136259487Y-72038010D01*
X136259489Y-72038012D01*
X136259491Y-72038015D01*
X136361985Y-72140509D01*
X136361987Y-72140510D01*
X136361989Y-72140512D01*
X136487511Y-72212982D01*
X136487512Y-72212982D01*
X136487515Y-72212984D01*
X136627525Y-72250500D01*
X136627526Y-72250500D01*
X136772474Y-72250500D01*
X136772475Y-72250500D01*
X136912485Y-72212984D01*
X136912487Y-72212982D01*
X136912489Y-72212982D01*
X137038010Y-72140512D01*
X137038010Y-72140511D01*
X137038015Y-72140509D01*
X137140509Y-72038015D01*
X137140512Y-72038010D01*
X137212982Y-71912489D01*
X137212982Y-71912487D01*
X137212984Y-71912485D01*
X137249147Y-71777525D01*
X140799500Y-71777525D01*
X140799500Y-71922475D01*
X140829087Y-72032896D01*
X140837017Y-72062489D01*
X140909487Y-72188010D01*
X140909489Y-72188012D01*
X140909491Y-72188015D01*
X141011985Y-72290509D01*
X141011987Y-72290510D01*
X141011989Y-72290512D01*
X141137511Y-72362982D01*
X141137512Y-72362982D01*
X141137515Y-72362984D01*
X141277525Y-72400500D01*
X141277526Y-72400500D01*
X141422474Y-72400500D01*
X141422475Y-72400500D01*
X141562485Y-72362984D01*
X141562487Y-72362982D01*
X141562489Y-72362982D01*
X141688010Y-72290512D01*
X141688010Y-72290511D01*
X141688015Y-72290509D01*
X141790509Y-72188015D01*
X141790512Y-72188010D01*
X141862982Y-72062489D01*
X141862982Y-72062487D01*
X141862984Y-72062485D01*
X141900500Y-71922475D01*
X141900500Y-71777525D01*
X141862984Y-71637515D01*
X141862982Y-71637512D01*
X141862982Y-71637510D01*
X141824315Y-71570539D01*
X141799481Y-71527525D01*
X158149500Y-71527525D01*
X158149500Y-71672475D01*
X158164251Y-71727525D01*
X158187017Y-71812489D01*
X158259487Y-71938010D01*
X158259489Y-71938012D01*
X158259491Y-71938015D01*
X158361985Y-72040509D01*
X158361987Y-72040510D01*
X158361989Y-72040512D01*
X158487511Y-72112982D01*
X158487512Y-72112982D01*
X158487515Y-72112984D01*
X158627525Y-72150500D01*
X158627526Y-72150500D01*
X158772474Y-72150500D01*
X158772475Y-72150500D01*
X158912485Y-72112984D01*
X158912487Y-72112982D01*
X158912489Y-72112982D01*
X159038010Y-72040512D01*
X159038010Y-72040511D01*
X159038015Y-72040509D01*
X159140509Y-71938015D01*
X159149482Y-71922474D01*
X159212982Y-71812489D01*
X159212982Y-71812487D01*
X159212984Y-71812485D01*
X159250500Y-71672475D01*
X159250500Y-71527525D01*
X159212984Y-71387515D01*
X159212982Y-71387512D01*
X159212982Y-71387510D01*
X159140512Y-71261989D01*
X159140510Y-71261987D01*
X159140509Y-71261985D01*
X159038015Y-71159491D01*
X159038012Y-71159489D01*
X159038010Y-71159487D01*
X158982650Y-71127525D01*
X162349500Y-71127525D01*
X162349500Y-71272475D01*
X162379087Y-71382896D01*
X162387017Y-71412489D01*
X162459487Y-71538010D01*
X162459489Y-71538012D01*
X162459491Y-71538015D01*
X162561985Y-71640509D01*
X162561987Y-71640510D01*
X162561989Y-71640512D01*
X162687511Y-71712982D01*
X162687512Y-71712982D01*
X162687515Y-71712984D01*
X162827525Y-71750500D01*
X162827526Y-71750500D01*
X162972474Y-71750500D01*
X162972475Y-71750500D01*
X163058218Y-71727525D01*
X164499500Y-71727525D01*
X164499500Y-71872474D01*
X164537017Y-72012489D01*
X164609487Y-72138010D01*
X164609489Y-72138012D01*
X164609491Y-72138015D01*
X164711985Y-72240509D01*
X164711987Y-72240510D01*
X164711989Y-72240512D01*
X164837511Y-72312982D01*
X164837512Y-72312982D01*
X164837515Y-72312984D01*
X164977525Y-72350500D01*
X164977526Y-72350500D01*
X165122474Y-72350500D01*
X165122475Y-72350500D01*
X165262485Y-72312984D01*
X165262487Y-72312982D01*
X165262489Y-72312982D01*
X165388010Y-72240512D01*
X165388010Y-72240511D01*
X165388015Y-72240509D01*
X165490509Y-72138015D01*
X165534114Y-72062489D01*
X165562982Y-72012489D01*
X165562982Y-72012487D01*
X165562984Y-72012485D01*
X165600500Y-71872475D01*
X165600500Y-71734108D01*
X168049500Y-71734108D01*
X168049500Y-71865892D01*
X168061986Y-71912489D01*
X168083609Y-71993190D01*
X168149496Y-72107309D01*
X168149498Y-72107311D01*
X168149500Y-72107314D01*
X168242686Y-72200500D01*
X168242688Y-72200501D01*
X168242690Y-72200503D01*
X168356810Y-72266390D01*
X168356808Y-72266390D01*
X168356812Y-72266391D01*
X168356814Y-72266392D01*
X168484108Y-72300500D01*
X168484110Y-72300500D01*
X168615890Y-72300500D01*
X168615892Y-72300500D01*
X168743186Y-72266392D01*
X168743188Y-72266390D01*
X168743190Y-72266390D01*
X168857309Y-72200503D01*
X168857309Y-72200502D01*
X168857314Y-72200500D01*
X168950500Y-72107314D01*
X168990513Y-72038010D01*
X169016390Y-71993190D01*
X169016390Y-71993188D01*
X169016392Y-71993186D01*
X169050500Y-71865892D01*
X169050500Y-71734108D01*
X169016392Y-71606814D01*
X169016390Y-71606811D01*
X169016390Y-71606809D01*
X168950503Y-71492690D01*
X168950501Y-71492688D01*
X168950500Y-71492686D01*
X168857314Y-71399500D01*
X168857311Y-71399498D01*
X168857309Y-71399496D01*
X168743189Y-71333609D01*
X168743191Y-71333609D01*
X168693799Y-71320375D01*
X168615892Y-71299500D01*
X168484108Y-71299500D01*
X168406200Y-71320375D01*
X168356809Y-71333609D01*
X168242690Y-71399496D01*
X168149496Y-71492690D01*
X168083609Y-71606809D01*
X168074579Y-71640512D01*
X168049500Y-71734108D01*
X165600500Y-71734108D01*
X165600500Y-71727525D01*
X165562984Y-71587515D01*
X165562982Y-71587512D01*
X165562982Y-71587510D01*
X165490512Y-71461989D01*
X165490510Y-71461987D01*
X165490509Y-71461985D01*
X165388015Y-71359491D01*
X165388012Y-71359489D01*
X165388010Y-71359487D01*
X165262488Y-71287017D01*
X165262489Y-71287017D01*
X165208214Y-71272474D01*
X165122475Y-71249500D01*
X164977525Y-71249500D01*
X164940239Y-71259491D01*
X164837510Y-71287017D01*
X164711989Y-71359487D01*
X164609487Y-71461989D01*
X164537017Y-71587510D01*
X164499500Y-71727525D01*
X163058218Y-71727525D01*
X163112485Y-71712984D01*
X163112487Y-71712982D01*
X163112489Y-71712982D01*
X163238008Y-71640513D01*
X163238007Y-71640513D01*
X163238015Y-71640509D01*
X163340509Y-71538015D01*
X163340512Y-71538010D01*
X163412982Y-71412489D01*
X163412982Y-71412487D01*
X163412984Y-71412485D01*
X163450500Y-71272475D01*
X163450500Y-71127525D01*
X163412984Y-70987515D01*
X163412982Y-70987512D01*
X163412982Y-70987510D01*
X163340512Y-70861989D01*
X163340510Y-70861987D01*
X163340509Y-70861985D01*
X163238015Y-70759491D01*
X163238012Y-70759489D01*
X163238010Y-70759487D01*
X163112488Y-70687017D01*
X163112489Y-70687017D01*
X163082896Y-70679087D01*
X162972475Y-70649500D01*
X162827525Y-70649500D01*
X162765790Y-70666041D01*
X162687510Y-70687017D01*
X162561989Y-70759487D01*
X162459487Y-70861989D01*
X162387017Y-70987510D01*
X162387016Y-70987515D01*
X162349500Y-71127525D01*
X158982650Y-71127525D01*
X158912488Y-71087017D01*
X158912489Y-71087017D01*
X158882896Y-71079087D01*
X158772475Y-71049500D01*
X158627525Y-71049500D01*
X158565790Y-71066041D01*
X158487510Y-71087017D01*
X158361989Y-71159487D01*
X158259487Y-71261989D01*
X158187017Y-71387510D01*
X158160222Y-71487510D01*
X158149500Y-71527525D01*
X141799481Y-71527525D01*
X141790509Y-71511985D01*
X141688015Y-71409491D01*
X141688012Y-71409489D01*
X141688010Y-71409487D01*
X141562488Y-71337017D01*
X141562489Y-71337017D01*
X141532896Y-71329087D01*
X141422475Y-71299500D01*
X141277525Y-71299500D01*
X141215790Y-71316041D01*
X141137510Y-71337017D01*
X141011989Y-71409487D01*
X140909487Y-71511989D01*
X140837017Y-71637510D01*
X140811134Y-71734108D01*
X140799500Y-71777525D01*
X137249147Y-71777525D01*
X137250500Y-71772475D01*
X137250500Y-71627525D01*
X137212984Y-71487515D01*
X137212982Y-71487512D01*
X137212982Y-71487510D01*
X137140512Y-71361989D01*
X137140510Y-71361987D01*
X137140509Y-71361985D01*
X137038015Y-71259491D01*
X137038012Y-71259489D01*
X137038010Y-71259487D01*
X136912488Y-71187017D01*
X136912489Y-71187017D01*
X136809761Y-71159491D01*
X136772475Y-71149500D01*
X136627525Y-71149500D01*
X136590239Y-71159491D01*
X136487510Y-71187017D01*
X136361989Y-71259487D01*
X136259487Y-71361989D01*
X136187017Y-71487510D01*
X136149500Y-71627525D01*
X128400500Y-71627525D01*
X128400500Y-68884108D01*
X167989500Y-68884108D01*
X167989500Y-69015892D01*
X168019579Y-69128151D01*
X168023609Y-69143190D01*
X168089496Y-69257309D01*
X168089498Y-69257311D01*
X168089500Y-69257314D01*
X168182686Y-69350500D01*
X168182688Y-69350501D01*
X168182690Y-69350503D01*
X168296810Y-69416390D01*
X168296808Y-69416390D01*
X168296812Y-69416391D01*
X168296814Y-69416392D01*
X168424108Y-69450500D01*
X168424110Y-69450500D01*
X168555890Y-69450500D01*
X168555892Y-69450500D01*
X168683186Y-69416392D01*
X168683188Y-69416390D01*
X168683190Y-69416390D01*
X168797309Y-69350503D01*
X168797309Y-69350502D01*
X168797314Y-69350500D01*
X168890500Y-69257314D01*
X168956392Y-69143186D01*
X168990500Y-69015892D01*
X168990500Y-68884108D01*
X168956392Y-68756814D01*
X168956390Y-68756811D01*
X168956390Y-68756809D01*
X168890503Y-68642690D01*
X168890501Y-68642688D01*
X168890500Y-68642686D01*
X168797314Y-68549500D01*
X168797311Y-68549498D01*
X168797309Y-68549496D01*
X168683189Y-68483609D01*
X168683191Y-68483609D01*
X168617068Y-68465892D01*
X168555892Y-68449500D01*
X168424108Y-68449500D01*
X168362932Y-68465892D01*
X168296809Y-68483609D01*
X168182690Y-68549496D01*
X168089496Y-68642690D01*
X168023609Y-68756809D01*
X168023608Y-68756814D01*
X167989500Y-68884108D01*
X128400500Y-68884108D01*
X128400500Y-68334108D01*
X171999500Y-68334108D01*
X171999500Y-68465892D01*
X172029579Y-68578151D01*
X172033609Y-68593190D01*
X172099496Y-68707309D01*
X172099498Y-68707311D01*
X172099500Y-68707314D01*
X172192686Y-68800500D01*
X172192688Y-68800501D01*
X172192690Y-68800503D01*
X172306810Y-68866390D01*
X172306808Y-68866390D01*
X172306812Y-68866391D01*
X172306814Y-68866392D01*
X172434108Y-68900500D01*
X172434110Y-68900500D01*
X172565890Y-68900500D01*
X172565892Y-68900500D01*
X172693186Y-68866392D01*
X172693188Y-68866390D01*
X172693190Y-68866390D01*
X172807309Y-68800503D01*
X172807309Y-68800502D01*
X172807314Y-68800500D01*
X172900500Y-68707314D01*
X172966392Y-68593186D01*
X173000500Y-68465892D01*
X173000500Y-68334108D01*
X172966392Y-68206814D01*
X172966390Y-68206811D01*
X172966390Y-68206809D01*
X172900503Y-68092690D01*
X172900501Y-68092688D01*
X172900500Y-68092686D01*
X172807314Y-67999500D01*
X172807311Y-67999498D01*
X172807309Y-67999496D01*
X172693189Y-67933609D01*
X172693191Y-67933609D01*
X172643799Y-67920375D01*
X172565892Y-67899500D01*
X172434108Y-67899500D01*
X172356200Y-67920375D01*
X172306809Y-67933609D01*
X172192690Y-67999496D01*
X172099496Y-68092690D01*
X172033609Y-68206809D01*
X172021902Y-68250500D01*
X171999500Y-68334108D01*
X128400500Y-68334108D01*
X128400500Y-67684108D01*
X167989500Y-67684108D01*
X167989500Y-67815892D01*
X168013008Y-67903625D01*
X168023609Y-67943190D01*
X168089496Y-68057309D01*
X168089498Y-68057311D01*
X168089500Y-68057314D01*
X168182686Y-68150500D01*
X168182688Y-68150501D01*
X168182690Y-68150503D01*
X168296810Y-68216390D01*
X168296808Y-68216390D01*
X168296812Y-68216391D01*
X168296814Y-68216392D01*
X168424108Y-68250500D01*
X168424110Y-68250500D01*
X168555890Y-68250500D01*
X168555892Y-68250500D01*
X168683186Y-68216392D01*
X168683188Y-68216390D01*
X168683190Y-68216390D01*
X168797309Y-68150503D01*
X168797309Y-68150502D01*
X168797314Y-68150500D01*
X168890500Y-68057314D01*
X168897321Y-68045500D01*
X168956390Y-67943190D01*
X168956390Y-67943188D01*
X168956392Y-67943186D01*
X168990500Y-67815892D01*
X168990500Y-67684108D01*
X168956392Y-67556814D01*
X168956390Y-67556811D01*
X168956390Y-67556809D01*
X168890503Y-67442690D01*
X168890501Y-67442688D01*
X168890500Y-67442686D01*
X168797314Y-67349500D01*
X168797311Y-67349498D01*
X168797309Y-67349496D01*
X168683189Y-67283609D01*
X168683191Y-67283609D01*
X168633799Y-67270375D01*
X168555892Y-67249500D01*
X168424108Y-67249500D01*
X168346200Y-67270375D01*
X168296809Y-67283609D01*
X168182690Y-67349496D01*
X168089496Y-67442690D01*
X168023609Y-67556809D01*
X168013277Y-67595369D01*
X167989500Y-67684108D01*
X128400500Y-67684108D01*
X128400500Y-67027525D01*
X142449500Y-67027525D01*
X142449500Y-67172474D01*
X142487017Y-67312489D01*
X142559487Y-67438010D01*
X142559489Y-67438012D01*
X142559491Y-67438015D01*
X142661985Y-67540509D01*
X142661987Y-67540510D01*
X142661989Y-67540512D01*
X142787511Y-67612982D01*
X142787512Y-67612982D01*
X142787515Y-67612984D01*
X142927525Y-67650500D01*
X142927526Y-67650500D01*
X143072474Y-67650500D01*
X143072475Y-67650500D01*
X143212485Y-67612984D01*
X143212487Y-67612982D01*
X143212489Y-67612982D01*
X143249034Y-67591883D01*
X143338010Y-67540512D01*
X143338010Y-67540511D01*
X143338015Y-67540509D01*
X143440509Y-67438015D01*
X143440512Y-67438010D01*
X143512982Y-67312489D01*
X143512982Y-67312487D01*
X143512984Y-67312485D01*
X143550500Y-67172475D01*
X143550500Y-67027525D01*
X143512984Y-66887515D01*
X143512982Y-66887512D01*
X143512982Y-66887510D01*
X143440512Y-66761989D01*
X143440510Y-66761987D01*
X143440509Y-66761985D01*
X143338015Y-66659491D01*
X143338012Y-66659489D01*
X143338010Y-66659487D01*
X143212488Y-66587017D01*
X143212489Y-66587017D01*
X143098468Y-66556465D01*
X143072475Y-66549500D01*
X142927525Y-66549500D01*
X142901532Y-66556465D01*
X142787510Y-66587017D01*
X142661989Y-66659487D01*
X142559487Y-66761989D01*
X142487017Y-66887510D01*
X142449500Y-67027525D01*
X128400500Y-67027525D01*
X128400500Y-65827525D01*
X145949500Y-65827525D01*
X145949500Y-65972474D01*
X145987017Y-66112489D01*
X146059487Y-66238010D01*
X146059489Y-66238012D01*
X146059491Y-66238015D01*
X146161985Y-66340509D01*
X146161987Y-66340510D01*
X146161989Y-66340512D01*
X146287511Y-66412982D01*
X146287512Y-66412982D01*
X146287515Y-66412984D01*
X146427525Y-66450500D01*
X146427526Y-66450500D01*
X146572474Y-66450500D01*
X146572475Y-66450500D01*
X146712485Y-66412984D01*
X146712487Y-66412982D01*
X146712489Y-66412982D01*
X146838010Y-66340512D01*
X146838010Y-66340511D01*
X146838015Y-66340509D01*
X146940509Y-66238015D01*
X146979924Y-66169747D01*
X147012982Y-66112489D01*
X147012982Y-66112487D01*
X147012984Y-66112485D01*
X147050500Y-65972475D01*
X147050500Y-65908542D01*
X169569500Y-65908542D01*
X169569500Y-66051457D01*
X169597381Y-66191619D01*
X169597381Y-66191621D01*
X169652068Y-66323648D01*
X169652074Y-66323659D01*
X169699522Y-66394668D01*
X169731468Y-66442479D01*
X169832521Y-66543532D01*
X169897601Y-66587017D01*
X169951340Y-66622925D01*
X169951351Y-66622931D01*
X170000121Y-66643132D01*
X170083380Y-66677619D01*
X170223545Y-66705500D01*
X170223546Y-66705500D01*
X170904130Y-66705500D01*
X170962321Y-66724407D01*
X170998285Y-66773907D01*
X170998285Y-66835093D01*
X170962321Y-66884593D01*
X170959132Y-66886815D01*
X170914892Y-66916375D01*
X170914888Y-66916378D01*
X170826378Y-67004888D01*
X170826375Y-67004892D01*
X170756830Y-67108971D01*
X170756824Y-67108982D01*
X170708922Y-67224629D01*
X170708922Y-67224631D01*
X170684500Y-67347406D01*
X170684500Y-67472593D01*
X170708922Y-67595368D01*
X170708922Y-67595370D01*
X170756824Y-67711017D01*
X170756830Y-67711028D01*
X170798669Y-67773644D01*
X170826375Y-67815108D01*
X170914892Y-67903625D01*
X170974099Y-67943186D01*
X171018971Y-67973169D01*
X171018982Y-67973175D01*
X171061702Y-67990869D01*
X171134631Y-68021078D01*
X171257409Y-68045500D01*
X171257410Y-68045500D01*
X171382590Y-68045500D01*
X171382591Y-68045500D01*
X171505369Y-68021078D01*
X171621022Y-67973173D01*
X171725108Y-67903625D01*
X171813625Y-67815108D01*
X171883173Y-67711022D01*
X171931078Y-67595369D01*
X171955500Y-67472591D01*
X171955500Y-67347409D01*
X171952854Y-67334108D01*
X173299500Y-67334108D01*
X173299500Y-67465892D01*
X173319494Y-67540512D01*
X173333609Y-67593190D01*
X173399496Y-67707309D01*
X173399498Y-67707311D01*
X173399500Y-67707314D01*
X173492686Y-67800500D01*
X173492688Y-67800501D01*
X173492690Y-67800503D01*
X173606810Y-67866390D01*
X173606808Y-67866390D01*
X173606812Y-67866391D01*
X173606814Y-67866392D01*
X173734108Y-67900500D01*
X173734110Y-67900500D01*
X173865890Y-67900500D01*
X173865892Y-67900500D01*
X173993186Y-67866392D01*
X173993188Y-67866390D01*
X173993190Y-67866390D01*
X174107309Y-67800503D01*
X174107309Y-67800502D01*
X174107314Y-67800500D01*
X174200500Y-67707314D01*
X174200503Y-67707309D01*
X174266390Y-67593190D01*
X174266390Y-67593188D01*
X174266392Y-67593186D01*
X174300500Y-67465892D01*
X174300500Y-67334108D01*
X174266392Y-67206814D01*
X174266390Y-67206811D01*
X174266390Y-67206809D01*
X174200503Y-67092690D01*
X174200501Y-67092688D01*
X174200500Y-67092686D01*
X174107314Y-66999500D01*
X174107311Y-66999498D01*
X174107309Y-66999496D01*
X173993189Y-66933609D01*
X173993191Y-66933609D01*
X173928871Y-66916375D01*
X173865892Y-66899500D01*
X173734108Y-66899500D01*
X173671129Y-66916375D01*
X173606809Y-66933609D01*
X173492690Y-66999496D01*
X173399496Y-67092690D01*
X173333609Y-67206809D01*
X173328834Y-67224631D01*
X173299500Y-67334108D01*
X171952854Y-67334108D01*
X171931078Y-67224631D01*
X171883173Y-67108978D01*
X171883172Y-67108976D01*
X171883169Y-67108971D01*
X171855087Y-67066945D01*
X171813625Y-67004892D01*
X171725108Y-66916375D01*
X171677543Y-66884593D01*
X171621028Y-66846830D01*
X171621018Y-66846825D01*
X171605380Y-66840347D01*
X171558855Y-66800609D01*
X171544573Y-66741114D01*
X171567990Y-66684587D01*
X171605380Y-66657421D01*
X171688653Y-66622929D01*
X171807479Y-66543532D01*
X171908532Y-66442479D01*
X171987929Y-66323653D01*
X172042619Y-66191620D01*
X172070500Y-66051455D01*
X172070500Y-65915930D01*
X173899500Y-65915930D01*
X173899500Y-66044069D01*
X173924499Y-66169742D01*
X173924500Y-66169747D01*
X173973534Y-66288125D01*
X173973538Y-66288133D01*
X174008535Y-66340509D01*
X174044724Y-66394669D01*
X174135331Y-66485276D01*
X174198848Y-66527717D01*
X174241866Y-66556461D01*
X174241870Y-66556463D01*
X174241873Y-66556465D01*
X174360256Y-66605501D01*
X174485931Y-66630500D01*
X174485932Y-66630500D01*
X175514068Y-66630500D01*
X175514069Y-66630500D01*
X175639744Y-66605501D01*
X175758127Y-66556465D01*
X175864669Y-66485276D01*
X175955276Y-66394669D01*
X176026465Y-66288127D01*
X176075501Y-66169744D01*
X176100500Y-66044069D01*
X176100500Y-65915931D01*
X176075501Y-65790256D01*
X176026465Y-65671873D01*
X176026463Y-65671870D01*
X176026461Y-65671866D01*
X175997717Y-65628848D01*
X175955276Y-65565331D01*
X175864669Y-65474724D01*
X175822226Y-65446365D01*
X175758133Y-65403538D01*
X175758125Y-65403534D01*
X175639747Y-65354500D01*
X175639745Y-65354499D01*
X175639744Y-65354499D01*
X175514069Y-65329500D01*
X174485931Y-65329500D01*
X174485930Y-65329500D01*
X174447885Y-65337068D01*
X174360256Y-65354499D01*
X174360255Y-65354499D01*
X174360252Y-65354500D01*
X174241874Y-65403534D01*
X174241866Y-65403538D01*
X174135331Y-65474724D01*
X174135327Y-65474727D01*
X174044727Y-65565327D01*
X174044724Y-65565331D01*
X173973538Y-65671866D01*
X173973534Y-65671874D01*
X173924500Y-65790252D01*
X173924499Y-65790257D01*
X173899500Y-65915930D01*
X172070500Y-65915930D01*
X172070500Y-65908545D01*
X172042619Y-65768380D01*
X172009124Y-65687515D01*
X171987931Y-65636351D01*
X171987925Y-65636340D01*
X171955866Y-65588362D01*
X171908532Y-65517521D01*
X171807479Y-65416468D01*
X171760143Y-65384839D01*
X171688659Y-65337074D01*
X171688648Y-65337068D01*
X171556620Y-65282381D01*
X171416457Y-65254500D01*
X171416455Y-65254500D01*
X170223545Y-65254500D01*
X170223542Y-65254500D01*
X170083380Y-65282381D01*
X170083378Y-65282381D01*
X169951351Y-65337068D01*
X169951340Y-65337074D01*
X169832521Y-65416468D01*
X169832517Y-65416471D01*
X169731471Y-65517517D01*
X169731468Y-65517521D01*
X169652074Y-65636340D01*
X169652068Y-65636351D01*
X169597381Y-65768378D01*
X169597381Y-65768380D01*
X169569500Y-65908542D01*
X147050500Y-65908542D01*
X147050500Y-65827525D01*
X147012984Y-65687515D01*
X147012982Y-65687512D01*
X147012982Y-65687510D01*
X146940512Y-65561989D01*
X146940510Y-65561987D01*
X146940509Y-65561985D01*
X146838015Y-65459491D01*
X146838012Y-65459489D01*
X146838010Y-65459487D01*
X146712488Y-65387017D01*
X146712489Y-65387017D01*
X146682896Y-65379087D01*
X146572475Y-65349500D01*
X146427525Y-65349500D01*
X146365790Y-65366041D01*
X146287510Y-65387017D01*
X146161989Y-65459487D01*
X146059487Y-65561989D01*
X145987017Y-65687510D01*
X145949500Y-65827525D01*
X128400500Y-65827525D01*
X128400500Y-63534108D01*
X153299500Y-63534108D01*
X153299500Y-63665892D01*
X153329579Y-63778151D01*
X153333609Y-63793190D01*
X153399496Y-63907309D01*
X153399498Y-63907311D01*
X153399500Y-63907314D01*
X153492686Y-64000500D01*
X153492688Y-64000501D01*
X153492690Y-64000503D01*
X153606810Y-64066390D01*
X153606808Y-64066390D01*
X153606812Y-64066391D01*
X153606814Y-64066392D01*
X153734108Y-64100500D01*
X153734110Y-64100500D01*
X153865890Y-64100500D01*
X153865892Y-64100500D01*
X153993186Y-64066392D01*
X153993188Y-64066390D01*
X153993190Y-64066390D01*
X154107309Y-64000503D01*
X154107309Y-64000502D01*
X154107314Y-64000500D01*
X154200500Y-63907314D01*
X154266392Y-63793186D01*
X154300500Y-63665892D01*
X154300500Y-63534108D01*
X154266392Y-63406814D01*
X154266390Y-63406811D01*
X154266390Y-63406809D01*
X154200503Y-63292690D01*
X154200501Y-63292688D01*
X154200500Y-63292686D01*
X154107314Y-63199500D01*
X154107311Y-63199498D01*
X154107309Y-63199496D01*
X153993189Y-63133609D01*
X153993191Y-63133609D01*
X153943799Y-63120375D01*
X153865892Y-63099500D01*
X153734108Y-63099500D01*
X153656200Y-63120375D01*
X153606809Y-63133609D01*
X153492690Y-63199496D01*
X153399496Y-63292690D01*
X153333609Y-63406809D01*
X153333608Y-63406814D01*
X153299500Y-63534108D01*
X128400500Y-63534108D01*
X128400500Y-61627525D01*
X140949500Y-61627525D01*
X140949500Y-61772474D01*
X140987017Y-61912489D01*
X141059487Y-62038010D01*
X141059489Y-62038012D01*
X141059491Y-62038015D01*
X141161985Y-62140509D01*
X141161987Y-62140510D01*
X141161989Y-62140512D01*
X141287511Y-62212982D01*
X141287512Y-62212982D01*
X141287515Y-62212984D01*
X141427525Y-62250500D01*
X141427526Y-62250500D01*
X141572474Y-62250500D01*
X141572475Y-62250500D01*
X141712485Y-62212984D01*
X141712487Y-62212982D01*
X141712489Y-62212982D01*
X141838010Y-62140512D01*
X141838010Y-62140511D01*
X141838015Y-62140509D01*
X141940509Y-62038015D01*
X141940512Y-62038010D01*
X141975433Y-61977525D01*
X147249500Y-61977525D01*
X147249500Y-62122474D01*
X147287017Y-62262489D01*
X147359487Y-62388010D01*
X147359489Y-62388012D01*
X147359491Y-62388015D01*
X147461985Y-62490509D01*
X147461987Y-62490510D01*
X147461989Y-62490512D01*
X147587511Y-62562982D01*
X147587512Y-62562982D01*
X147587515Y-62562984D01*
X147727525Y-62600500D01*
X147727526Y-62600500D01*
X147872474Y-62600500D01*
X147872475Y-62600500D01*
X148012485Y-62562984D01*
X148012487Y-62562982D01*
X148012489Y-62562982D01*
X148138010Y-62490512D01*
X148138010Y-62490511D01*
X148138015Y-62490509D01*
X148240509Y-62388015D01*
X148284114Y-62312489D01*
X148312982Y-62262489D01*
X148312982Y-62262487D01*
X148312984Y-62262485D01*
X148350500Y-62122475D01*
X148350500Y-62027525D01*
X157449500Y-62027525D01*
X157449500Y-62172475D01*
X157479087Y-62282896D01*
X157487017Y-62312489D01*
X157559487Y-62438010D01*
X157559489Y-62438012D01*
X157559491Y-62438015D01*
X157661985Y-62540509D01*
X157661987Y-62540510D01*
X157661989Y-62540512D01*
X157787511Y-62612982D01*
X157787512Y-62612982D01*
X157787515Y-62612984D01*
X157927525Y-62650500D01*
X157927526Y-62650500D01*
X158072474Y-62650500D01*
X158072475Y-62650500D01*
X158212485Y-62612984D01*
X158212487Y-62612982D01*
X158212489Y-62612982D01*
X158338010Y-62540512D01*
X158338010Y-62540511D01*
X158338015Y-62540509D01*
X158440509Y-62438015D01*
X158469377Y-62388015D01*
X158512982Y-62312489D01*
X158512982Y-62312487D01*
X158512984Y-62312485D01*
X158550500Y-62172475D01*
X158550500Y-62027525D01*
X158512984Y-61887515D01*
X158512982Y-61887512D01*
X158512982Y-61887510D01*
X158440512Y-61761989D01*
X158440510Y-61761987D01*
X158440509Y-61761985D01*
X158338015Y-61659491D01*
X158338012Y-61659489D01*
X158338010Y-61659487D01*
X158282650Y-61627525D01*
X167849500Y-61627525D01*
X167849500Y-61772474D01*
X167887017Y-61912489D01*
X167959487Y-62038010D01*
X167959489Y-62038012D01*
X167959491Y-62038015D01*
X168061985Y-62140509D01*
X168061987Y-62140510D01*
X168061989Y-62140512D01*
X168187511Y-62212982D01*
X168187512Y-62212982D01*
X168187515Y-62212984D01*
X168327525Y-62250500D01*
X168327526Y-62250500D01*
X168472474Y-62250500D01*
X168472475Y-62250500D01*
X168612485Y-62212984D01*
X168612487Y-62212982D01*
X168612489Y-62212982D01*
X168738010Y-62140512D01*
X168738010Y-62140511D01*
X168738015Y-62140509D01*
X168840509Y-62038015D01*
X168840512Y-62038010D01*
X168912982Y-61912489D01*
X168912982Y-61912487D01*
X168912984Y-61912485D01*
X168950500Y-61772475D01*
X168950500Y-61627525D01*
X168912984Y-61487515D01*
X168912982Y-61487512D01*
X168912982Y-61487510D01*
X168840512Y-61361989D01*
X168840510Y-61361987D01*
X168840509Y-61361985D01*
X168738015Y-61259491D01*
X168738012Y-61259489D01*
X168738010Y-61259487D01*
X168612488Y-61187017D01*
X168612489Y-61187017D01*
X168582896Y-61179087D01*
X168472475Y-61149500D01*
X168327525Y-61149500D01*
X168265790Y-61166041D01*
X168187510Y-61187017D01*
X168061989Y-61259487D01*
X167959487Y-61361989D01*
X167887017Y-61487510D01*
X167849500Y-61627525D01*
X158282650Y-61627525D01*
X158212488Y-61587017D01*
X158212489Y-61587017D01*
X158182896Y-61579087D01*
X158072475Y-61549500D01*
X157927525Y-61549500D01*
X157865790Y-61566041D01*
X157787510Y-61587017D01*
X157661989Y-61659487D01*
X157559487Y-61761989D01*
X157487017Y-61887510D01*
X157449500Y-62027525D01*
X148350500Y-62027525D01*
X148350500Y-61977525D01*
X148312984Y-61837515D01*
X148312982Y-61837512D01*
X148312982Y-61837510D01*
X148240512Y-61711989D01*
X148240510Y-61711987D01*
X148240509Y-61711985D01*
X148138015Y-61609491D01*
X148138012Y-61609489D01*
X148138010Y-61609487D01*
X148012488Y-61537017D01*
X148012489Y-61537017D01*
X147982896Y-61529087D01*
X147872475Y-61499500D01*
X147727525Y-61499500D01*
X147665790Y-61516041D01*
X147587510Y-61537017D01*
X147461989Y-61609487D01*
X147359487Y-61711989D01*
X147287017Y-61837510D01*
X147249500Y-61977525D01*
X141975433Y-61977525D01*
X142007759Y-61921536D01*
X142007759Y-61921535D01*
X142007971Y-61921166D01*
X142012984Y-61912485D01*
X142050500Y-61772475D01*
X142050500Y-61627525D01*
X142012984Y-61487515D01*
X142012982Y-61487512D01*
X142012982Y-61487510D01*
X141940512Y-61361989D01*
X141940510Y-61361987D01*
X141940509Y-61361985D01*
X141838015Y-61259491D01*
X141838012Y-61259489D01*
X141838010Y-61259487D01*
X141712488Y-61187017D01*
X141712489Y-61187017D01*
X141682896Y-61179087D01*
X141572475Y-61149500D01*
X141427525Y-61149500D01*
X141365790Y-61166041D01*
X141287510Y-61187017D01*
X141161989Y-61259487D01*
X141059487Y-61361989D01*
X140987017Y-61487510D01*
X140949500Y-61627525D01*
X128400500Y-61627525D01*
X128400500Y-57374777D01*
X129589500Y-57374777D01*
X129589500Y-57625222D01*
X129622188Y-57873512D01*
X129622188Y-57873517D01*
X129687007Y-58115420D01*
X129687011Y-58115433D01*
X129782844Y-58346797D01*
X129782846Y-58346801D01*
X129782848Y-58346805D01*
X129908069Y-58563694D01*
X129908071Y-58563697D01*
X130060522Y-58762376D01*
X130060524Y-58762378D01*
X130060528Y-58762383D01*
X130237617Y-58939472D01*
X130237621Y-58939475D01*
X130237623Y-58939477D01*
X130436302Y-59091928D01*
X130436306Y-59091931D01*
X130653195Y-59217152D01*
X130884572Y-59312991D01*
X131126480Y-59377811D01*
X131374779Y-59410500D01*
X131374780Y-59410500D01*
X131625220Y-59410500D01*
X131625221Y-59410500D01*
X131873520Y-59377811D01*
X132115428Y-59312991D01*
X132346805Y-59217152D01*
X132563694Y-59091931D01*
X132762383Y-58939472D01*
X132939472Y-58762383D01*
X133091931Y-58563694D01*
X133217152Y-58346805D01*
X133312991Y-58115428D01*
X133377811Y-57873520D01*
X133410500Y-57625221D01*
X133410500Y-57374779D01*
X133377811Y-57126480D01*
X133351296Y-57027525D01*
X138849500Y-57027525D01*
X138849500Y-57172475D01*
X138864251Y-57227525D01*
X138887017Y-57312489D01*
X138959487Y-57438010D01*
X138959489Y-57438012D01*
X138959491Y-57438015D01*
X139061985Y-57540509D01*
X139061987Y-57540510D01*
X139061989Y-57540512D01*
X139187511Y-57612982D01*
X139187512Y-57612982D01*
X139187515Y-57612984D01*
X139327525Y-57650500D01*
X139327526Y-57650500D01*
X139472474Y-57650500D01*
X139472475Y-57650500D01*
X139612485Y-57612984D01*
X139612487Y-57612982D01*
X139612489Y-57612982D01*
X139738010Y-57540512D01*
X139738010Y-57540511D01*
X139738015Y-57540509D01*
X139840509Y-57438015D01*
X139877018Y-57374780D01*
X139912982Y-57312489D01*
X139912982Y-57312487D01*
X139912984Y-57312485D01*
X139950500Y-57172475D01*
X139950500Y-57027525D01*
X140249500Y-57027525D01*
X140249500Y-57172475D01*
X140264251Y-57227525D01*
X140287017Y-57312489D01*
X140359487Y-57438010D01*
X140359489Y-57438012D01*
X140359491Y-57438015D01*
X140461985Y-57540509D01*
X140461987Y-57540510D01*
X140461989Y-57540512D01*
X140587511Y-57612982D01*
X140587512Y-57612982D01*
X140587515Y-57612984D01*
X140727525Y-57650500D01*
X140727526Y-57650500D01*
X140872474Y-57650500D01*
X140872475Y-57650500D01*
X141012485Y-57612984D01*
X141012487Y-57612982D01*
X141012489Y-57612982D01*
X141138010Y-57540512D01*
X141138010Y-57540511D01*
X141138015Y-57540509D01*
X141240509Y-57438015D01*
X141277018Y-57374780D01*
X141312982Y-57312489D01*
X141312982Y-57312487D01*
X141312984Y-57312485D01*
X141335749Y-57227525D01*
X151549500Y-57227525D01*
X151549500Y-57372475D01*
X151550118Y-57374780D01*
X151587017Y-57512489D01*
X151659487Y-57638010D01*
X151659489Y-57638012D01*
X151659491Y-57638015D01*
X151761985Y-57740509D01*
X151761987Y-57740510D01*
X151761989Y-57740512D01*
X151887511Y-57812982D01*
X151887512Y-57812982D01*
X151887515Y-57812984D01*
X152027525Y-57850500D01*
X152027526Y-57850500D01*
X152172474Y-57850500D01*
X152172475Y-57850500D01*
X152312485Y-57812984D01*
X152312487Y-57812982D01*
X152312489Y-57812982D01*
X152438010Y-57740512D01*
X152438010Y-57740511D01*
X152438015Y-57740509D01*
X152540509Y-57638015D01*
X152596803Y-57540512D01*
X152612982Y-57512489D01*
X152612982Y-57512487D01*
X152612984Y-57512485D01*
X152649883Y-57374777D01*
X172589500Y-57374777D01*
X172589500Y-57625222D01*
X172622188Y-57873512D01*
X172622188Y-57873517D01*
X172687007Y-58115420D01*
X172687011Y-58115433D01*
X172782844Y-58346797D01*
X172782846Y-58346801D01*
X172782848Y-58346805D01*
X172908069Y-58563694D01*
X172908071Y-58563697D01*
X173060522Y-58762376D01*
X173060524Y-58762378D01*
X173060528Y-58762383D01*
X173237617Y-58939472D01*
X173237621Y-58939475D01*
X173237623Y-58939477D01*
X173436302Y-59091928D01*
X173436306Y-59091931D01*
X173653195Y-59217152D01*
X173884572Y-59312991D01*
X174126480Y-59377811D01*
X174374779Y-59410500D01*
X174374780Y-59410500D01*
X174625220Y-59410500D01*
X174625221Y-59410500D01*
X174873520Y-59377811D01*
X175115428Y-59312991D01*
X175346805Y-59217152D01*
X175563694Y-59091931D01*
X175762383Y-58939472D01*
X175939472Y-58762383D01*
X176091931Y-58563694D01*
X176217152Y-58346805D01*
X176312991Y-58115428D01*
X176377811Y-57873520D01*
X176410500Y-57625221D01*
X176410500Y-57374779D01*
X176377811Y-57126480D01*
X176312991Y-56884572D01*
X176217152Y-56653195D01*
X176091931Y-56436306D01*
X176076517Y-56416218D01*
X175939477Y-56237623D01*
X175939475Y-56237621D01*
X175939472Y-56237617D01*
X175762383Y-56060528D01*
X175762378Y-56060524D01*
X175762376Y-56060522D01*
X175563697Y-55908071D01*
X175510319Y-55877253D01*
X175346805Y-55782848D01*
X175346801Y-55782846D01*
X175346797Y-55782844D01*
X175115433Y-55687011D01*
X175115432Y-55687010D01*
X175115428Y-55687009D01*
X174873520Y-55622189D01*
X174873515Y-55622188D01*
X174873514Y-55622188D01*
X174625222Y-55589500D01*
X174625221Y-55589500D01*
X174374779Y-55589500D01*
X174374777Y-55589500D01*
X174126487Y-55622188D01*
X174126482Y-55622188D01*
X173884579Y-55687007D01*
X173884566Y-55687011D01*
X173653202Y-55782844D01*
X173436302Y-55908071D01*
X173237623Y-56060522D01*
X173060522Y-56237623D01*
X172908071Y-56436302D01*
X172782844Y-56653202D01*
X172687011Y-56884566D01*
X172687007Y-56884579D01*
X172622188Y-57126482D01*
X172622188Y-57126487D01*
X172589500Y-57374777D01*
X152649883Y-57374777D01*
X152650500Y-57372475D01*
X152650500Y-57227525D01*
X152612984Y-57087515D01*
X152612982Y-57087512D01*
X152612982Y-57087510D01*
X152540512Y-56961989D01*
X152540510Y-56961987D01*
X152540509Y-56961985D01*
X152438015Y-56859491D01*
X152438012Y-56859489D01*
X152438010Y-56859487D01*
X152312488Y-56787017D01*
X152312489Y-56787017D01*
X152282896Y-56779087D01*
X152172475Y-56749500D01*
X152027525Y-56749500D01*
X151980931Y-56761985D01*
X151887510Y-56787017D01*
X151761989Y-56859487D01*
X151659487Y-56961989D01*
X151587017Y-57087510D01*
X151576573Y-57126487D01*
X151549500Y-57227525D01*
X141335749Y-57227525D01*
X141350500Y-57172475D01*
X141350500Y-57027525D01*
X141312984Y-56887515D01*
X141312982Y-56887512D01*
X141312982Y-56887510D01*
X141240512Y-56761989D01*
X141240510Y-56761987D01*
X141240509Y-56761985D01*
X141138015Y-56659491D01*
X141138012Y-56659489D01*
X141138010Y-56659487D01*
X141012488Y-56587017D01*
X141012489Y-56587017D01*
X140982896Y-56579087D01*
X140872475Y-56549500D01*
X140727525Y-56549500D01*
X140665790Y-56566041D01*
X140587510Y-56587017D01*
X140461989Y-56659487D01*
X140359487Y-56761989D01*
X140287017Y-56887510D01*
X140257620Y-56997222D01*
X140249500Y-57027525D01*
X139950500Y-57027525D01*
X139912984Y-56887515D01*
X139912982Y-56887512D01*
X139912982Y-56887510D01*
X139840512Y-56761989D01*
X139840510Y-56761987D01*
X139840509Y-56761985D01*
X139738015Y-56659491D01*
X139738012Y-56659489D01*
X139738010Y-56659487D01*
X139612488Y-56587017D01*
X139612489Y-56587017D01*
X139582896Y-56579087D01*
X139472475Y-56549500D01*
X139327525Y-56549500D01*
X139265790Y-56566041D01*
X139187510Y-56587017D01*
X139061989Y-56659487D01*
X138959487Y-56761989D01*
X138887017Y-56887510D01*
X138857620Y-56997222D01*
X138849500Y-57027525D01*
X133351296Y-57027525D01*
X133312991Y-56884572D01*
X133217152Y-56653195D01*
X133091931Y-56436306D01*
X133076517Y-56416218D01*
X132939477Y-56237623D01*
X132939475Y-56237621D01*
X132939472Y-56237617D01*
X132762383Y-56060528D01*
X132762378Y-56060524D01*
X132762376Y-56060522D01*
X132563697Y-55908071D01*
X132510319Y-55877253D01*
X132346805Y-55782848D01*
X132346801Y-55782846D01*
X132346797Y-55782844D01*
X132176969Y-55712500D01*
X132115433Y-55687011D01*
X132115432Y-55687010D01*
X132115428Y-55687009D01*
X131893434Y-55627525D01*
X151449500Y-55627525D01*
X151449500Y-55772475D01*
X151474895Y-55867251D01*
X151487017Y-55912489D01*
X151559487Y-56038010D01*
X151559489Y-56038012D01*
X151559491Y-56038015D01*
X151661985Y-56140509D01*
X151661987Y-56140510D01*
X151661989Y-56140512D01*
X151787511Y-56212982D01*
X151787512Y-56212982D01*
X151787515Y-56212984D01*
X151927525Y-56250500D01*
X151927526Y-56250500D01*
X152072474Y-56250500D01*
X152072475Y-56250500D01*
X152212485Y-56212984D01*
X152212487Y-56212982D01*
X152212489Y-56212982D01*
X152338010Y-56140512D01*
X152338010Y-56140511D01*
X152338015Y-56140509D01*
X152440509Y-56038015D01*
X152512984Y-55912485D01*
X152550500Y-55772475D01*
X152550500Y-55627525D01*
X152512984Y-55487515D01*
X152512982Y-55487512D01*
X152512982Y-55487510D01*
X152440512Y-55361989D01*
X152440510Y-55361987D01*
X152440509Y-55361985D01*
X152338015Y-55259491D01*
X152338012Y-55259489D01*
X152338010Y-55259487D01*
X152212488Y-55187017D01*
X152212489Y-55187017D01*
X152118662Y-55161876D01*
X152072475Y-55149500D01*
X151927525Y-55149500D01*
X151881338Y-55161876D01*
X151787510Y-55187017D01*
X151661989Y-55259487D01*
X151559487Y-55361989D01*
X151487017Y-55487510D01*
X151487016Y-55487515D01*
X151449500Y-55627525D01*
X131893434Y-55627525D01*
X131873520Y-55622189D01*
X131873515Y-55622188D01*
X131873514Y-55622188D01*
X131625222Y-55589500D01*
X131625221Y-55589500D01*
X131374779Y-55589500D01*
X131374777Y-55589500D01*
X131126487Y-55622188D01*
X131126482Y-55622188D01*
X130884579Y-55687007D01*
X130884566Y-55687011D01*
X130653202Y-55782844D01*
X130436302Y-55908071D01*
X130237623Y-56060522D01*
X130060522Y-56237623D01*
X129908071Y-56436302D01*
X129782844Y-56653202D01*
X129687011Y-56884566D01*
X129687007Y-56884579D01*
X129622188Y-57126482D01*
X129622188Y-57126487D01*
X129589500Y-57374777D01*
X128400500Y-57374777D01*
X128400500Y-57002773D01*
X128400656Y-56997222D01*
X128406982Y-56884572D01*
X128416533Y-56714493D01*
X128417776Y-56703467D01*
X128425248Y-56659491D01*
X128464746Y-56427023D01*
X128467207Y-56416237D01*
X128544840Y-56146770D01*
X128548500Y-56136310D01*
X128655808Y-55877246D01*
X128660622Y-55867251D01*
X128707270Y-55782848D01*
X128796254Y-55621843D01*
X128802151Y-55612458D01*
X128964419Y-55383762D01*
X128971324Y-55375104D01*
X129158187Y-55166003D01*
X129166003Y-55158187D01*
X129375104Y-54971324D01*
X129383762Y-54964419D01*
X129612458Y-54802151D01*
X129621843Y-54796254D01*
X129867257Y-54660618D01*
X129877246Y-54655808D01*
X130136310Y-54548500D01*
X130146770Y-54544840D01*
X130416237Y-54467207D01*
X130427023Y-54464746D01*
X130703474Y-54417775D01*
X130714493Y-54416533D01*
X130997222Y-54400655D01*
X131002773Y-54400500D01*
X131057583Y-54400500D01*
X174942417Y-54400500D01*
X174997227Y-54400500D01*
X175002777Y-54400655D01*
G37*
%TD.AperFunction*%
%TD*%
M02*
