%TF.GenerationSoftware,KiCad,Pcbnew,10.0.5*%
%TF.CreationDate,2026-08-19T15:20:02+05:30*%
%TF.ProjectId,FeroFlyF405,4665726f-466c-4794-9634-30352e6b6963,1*%
%TF.SameCoordinates,Original*%
%TF.FileFunction,Legend,Bot*%
%TF.FilePolarity,Positive*%
%FSLAX46Y46*%
G04 Gerber Fmt 4.6, Leading zero omitted, Abs format (unit mm)*
G04 Created by KiCad (PCBNEW 10.0.5) date 2026-08-19 15:20:02*
%MOMM*%
%LPD*%
G01*
G04 APERTURE LIST*
%ADD10C,0.150000*%
%ADD11C,0.162500*%
%ADD12C,0.250000*%
%ADD13C,0.120000*%
%ADD14C,0.010000*%
%ADD15C,0.000000*%
G04 APERTURE END LIST*
D10*
X142394295Y-77356778D02*
X142394295Y-76975826D01*
X142394295Y-76975826D02*
X142775247Y-76937730D01*
X142775247Y-76937730D02*
X142737152Y-76975826D01*
X142737152Y-76975826D02*
X142699057Y-77052016D01*
X142699057Y-77052016D02*
X142699057Y-77242492D01*
X142699057Y-77242492D02*
X142737152Y-77318683D01*
X142737152Y-77318683D02*
X142775247Y-77356778D01*
X142775247Y-77356778D02*
X142851438Y-77394873D01*
X142851438Y-77394873D02*
X143041914Y-77394873D01*
X143041914Y-77394873D02*
X143118104Y-77356778D01*
X143118104Y-77356778D02*
X143156200Y-77318683D01*
X143156200Y-77318683D02*
X143194295Y-77242492D01*
X143194295Y-77242492D02*
X143194295Y-77052016D01*
X143194295Y-77052016D02*
X143156200Y-76975826D01*
X143156200Y-76975826D02*
X143118104Y-76937730D01*
X142394295Y-77623445D02*
X143194295Y-77890112D01*
X143194295Y-77890112D02*
X142394295Y-78156778D01*
X144456200Y-76951540D02*
X144494295Y-77065826D01*
X144494295Y-77065826D02*
X144494295Y-77256302D01*
X144494295Y-77256302D02*
X144456200Y-77332493D01*
X144456200Y-77332493D02*
X144418104Y-77370588D01*
X144418104Y-77370588D02*
X144341914Y-77408683D01*
X144341914Y-77408683D02*
X144265723Y-77408683D01*
X144265723Y-77408683D02*
X144189533Y-77370588D01*
X144189533Y-77370588D02*
X144151438Y-77332493D01*
X144151438Y-77332493D02*
X144113342Y-77256302D01*
X144113342Y-77256302D02*
X144075247Y-77103921D01*
X144075247Y-77103921D02*
X144037152Y-77027731D01*
X144037152Y-77027731D02*
X143999057Y-76989636D01*
X143999057Y-76989636D02*
X143922866Y-76951540D01*
X143922866Y-76951540D02*
X143846676Y-76951540D01*
X143846676Y-76951540D02*
X143770485Y-76989636D01*
X143770485Y-76989636D02*
X143732390Y-77027731D01*
X143732390Y-77027731D02*
X143694295Y-77103921D01*
X143694295Y-77103921D02*
X143694295Y-77294398D01*
X143694295Y-77294398D02*
X143732390Y-77408683D01*
X144418104Y-78208684D02*
X144456200Y-78170588D01*
X144456200Y-78170588D02*
X144494295Y-78056303D01*
X144494295Y-78056303D02*
X144494295Y-77980112D01*
X144494295Y-77980112D02*
X144456200Y-77865826D01*
X144456200Y-77865826D02*
X144380009Y-77789636D01*
X144380009Y-77789636D02*
X144303819Y-77751541D01*
X144303819Y-77751541D02*
X144151438Y-77713445D01*
X144151438Y-77713445D02*
X144037152Y-77713445D01*
X144037152Y-77713445D02*
X143884771Y-77751541D01*
X143884771Y-77751541D02*
X143808580Y-77789636D01*
X143808580Y-77789636D02*
X143732390Y-77865826D01*
X143732390Y-77865826D02*
X143694295Y-77980112D01*
X143694295Y-77980112D02*
X143694295Y-78056303D01*
X143694295Y-78056303D02*
X143732390Y-78170588D01*
X143732390Y-78170588D02*
X143770485Y-78208684D01*
X144494295Y-78932493D02*
X144494295Y-78551541D01*
X144494295Y-78551541D02*
X143694295Y-78551541D01*
X144494295Y-79618207D02*
X144494295Y-79161064D01*
X144494295Y-79389636D02*
X143694295Y-79389636D01*
X143694295Y-79389636D02*
X143808580Y-79313445D01*
X143808580Y-79313445D02*
X143884771Y-79237255D01*
X143884771Y-79237255D02*
X143922866Y-79161064D01*
X145756200Y-76951540D02*
X145794295Y-77065826D01*
X145794295Y-77065826D02*
X145794295Y-77256302D01*
X145794295Y-77256302D02*
X145756200Y-77332493D01*
X145756200Y-77332493D02*
X145718104Y-77370588D01*
X145718104Y-77370588D02*
X145641914Y-77408683D01*
X145641914Y-77408683D02*
X145565723Y-77408683D01*
X145565723Y-77408683D02*
X145489533Y-77370588D01*
X145489533Y-77370588D02*
X145451438Y-77332493D01*
X145451438Y-77332493D02*
X145413342Y-77256302D01*
X145413342Y-77256302D02*
X145375247Y-77103921D01*
X145375247Y-77103921D02*
X145337152Y-77027731D01*
X145337152Y-77027731D02*
X145299057Y-76989636D01*
X145299057Y-76989636D02*
X145222866Y-76951540D01*
X145222866Y-76951540D02*
X145146676Y-76951540D01*
X145146676Y-76951540D02*
X145070485Y-76989636D01*
X145070485Y-76989636D02*
X145032390Y-77027731D01*
X145032390Y-77027731D02*
X144994295Y-77103921D01*
X144994295Y-77103921D02*
X144994295Y-77294398D01*
X144994295Y-77294398D02*
X145032390Y-77408683D01*
X145794295Y-77751541D02*
X144994295Y-77751541D01*
X144994295Y-77751541D02*
X144994295Y-77942017D01*
X144994295Y-77942017D02*
X145032390Y-78056303D01*
X145032390Y-78056303D02*
X145108580Y-78132493D01*
X145108580Y-78132493D02*
X145184771Y-78170588D01*
X145184771Y-78170588D02*
X145337152Y-78208684D01*
X145337152Y-78208684D02*
X145451438Y-78208684D01*
X145451438Y-78208684D02*
X145603819Y-78170588D01*
X145603819Y-78170588D02*
X145680009Y-78132493D01*
X145680009Y-78132493D02*
X145756200Y-78056303D01*
X145756200Y-78056303D02*
X145794295Y-77942017D01*
X145794295Y-77942017D02*
X145794295Y-77751541D01*
X145565723Y-78513445D02*
X145565723Y-78894398D01*
X145794295Y-78437255D02*
X144994295Y-78703922D01*
X144994295Y-78703922D02*
X145794295Y-78970588D01*
X145794295Y-79656302D02*
X145794295Y-79199159D01*
X145794295Y-79427731D02*
X144994295Y-79427731D01*
X144994295Y-79427731D02*
X145108580Y-79351540D01*
X145108580Y-79351540D02*
X145184771Y-79275350D01*
X145184771Y-79275350D02*
X145222866Y-79199159D01*
X146232390Y-77408683D02*
X146194295Y-77332493D01*
X146194295Y-77332493D02*
X146194295Y-77218207D01*
X146194295Y-77218207D02*
X146232390Y-77103921D01*
X146232390Y-77103921D02*
X146308580Y-77027731D01*
X146308580Y-77027731D02*
X146384771Y-76989636D01*
X146384771Y-76989636D02*
X146537152Y-76951540D01*
X146537152Y-76951540D02*
X146651438Y-76951540D01*
X146651438Y-76951540D02*
X146803819Y-76989636D01*
X146803819Y-76989636D02*
X146880009Y-77027731D01*
X146880009Y-77027731D02*
X146956200Y-77103921D01*
X146956200Y-77103921D02*
X146994295Y-77218207D01*
X146994295Y-77218207D02*
X146994295Y-77294398D01*
X146994295Y-77294398D02*
X146956200Y-77408683D01*
X146956200Y-77408683D02*
X146918104Y-77446779D01*
X146918104Y-77446779D02*
X146651438Y-77446779D01*
X146651438Y-77446779D02*
X146651438Y-77294398D01*
X158644295Y-76899159D02*
X158644295Y-77394397D01*
X158644295Y-77394397D02*
X158949057Y-77127731D01*
X158949057Y-77127731D02*
X158949057Y-77242016D01*
X158949057Y-77242016D02*
X158987152Y-77318207D01*
X158987152Y-77318207D02*
X159025247Y-77356302D01*
X159025247Y-77356302D02*
X159101438Y-77394397D01*
X159101438Y-77394397D02*
X159291914Y-77394397D01*
X159291914Y-77394397D02*
X159368104Y-77356302D01*
X159368104Y-77356302D02*
X159406200Y-77318207D01*
X159406200Y-77318207D02*
X159444295Y-77242016D01*
X159444295Y-77242016D02*
X159444295Y-77013445D01*
X159444295Y-77013445D02*
X159406200Y-76937254D01*
X159406200Y-76937254D02*
X159368104Y-76899159D01*
X158644295Y-77622969D02*
X159444295Y-77889636D01*
X159444295Y-77889636D02*
X158644295Y-78156302D01*
X158644295Y-78346778D02*
X158644295Y-78842016D01*
X158644295Y-78842016D02*
X158949057Y-78575350D01*
X158949057Y-78575350D02*
X158949057Y-78689635D01*
X158949057Y-78689635D02*
X158987152Y-78765826D01*
X158987152Y-78765826D02*
X159025247Y-78803921D01*
X159025247Y-78803921D02*
X159101438Y-78842016D01*
X159101438Y-78842016D02*
X159291914Y-78842016D01*
X159291914Y-78842016D02*
X159368104Y-78803921D01*
X159368104Y-78803921D02*
X159406200Y-78765826D01*
X159406200Y-78765826D02*
X159444295Y-78689635D01*
X159444295Y-78689635D02*
X159444295Y-78461064D01*
X159444295Y-78461064D02*
X159406200Y-78384873D01*
X159406200Y-78384873D02*
X159368104Y-78346778D01*
X160744295Y-76975350D02*
X159944295Y-76975350D01*
X159944295Y-76975350D02*
X159944295Y-77165826D01*
X159944295Y-77165826D02*
X159982390Y-77280112D01*
X159982390Y-77280112D02*
X160058580Y-77356302D01*
X160058580Y-77356302D02*
X160134771Y-77394397D01*
X160134771Y-77394397D02*
X160287152Y-77432493D01*
X160287152Y-77432493D02*
X160401438Y-77432493D01*
X160401438Y-77432493D02*
X160553819Y-77394397D01*
X160553819Y-77394397D02*
X160630009Y-77356302D01*
X160630009Y-77356302D02*
X160706200Y-77280112D01*
X160706200Y-77280112D02*
X160744295Y-77165826D01*
X160744295Y-77165826D02*
X160744295Y-76975350D01*
X160744295Y-77775350D02*
X159944295Y-77775350D01*
X159944295Y-78308683D02*
X159944295Y-78461064D01*
X159944295Y-78461064D02*
X159982390Y-78537254D01*
X159982390Y-78537254D02*
X160058580Y-78613445D01*
X160058580Y-78613445D02*
X160210961Y-78651540D01*
X160210961Y-78651540D02*
X160477628Y-78651540D01*
X160477628Y-78651540D02*
X160630009Y-78613445D01*
X160630009Y-78613445D02*
X160706200Y-78537254D01*
X160706200Y-78537254D02*
X160744295Y-78461064D01*
X160744295Y-78461064D02*
X160744295Y-78308683D01*
X160744295Y-78308683D02*
X160706200Y-78232492D01*
X160706200Y-78232492D02*
X160630009Y-78156302D01*
X160630009Y-78156302D02*
X160477628Y-78118206D01*
X160477628Y-78118206D02*
X160210961Y-78118206D01*
X160210961Y-78118206D02*
X160058580Y-78156302D01*
X160058580Y-78156302D02*
X159982390Y-78232492D01*
X159982390Y-78232492D02*
X159944295Y-78308683D01*
X161968104Y-77432493D02*
X162006200Y-77394397D01*
X162006200Y-77394397D02*
X162044295Y-77280112D01*
X162044295Y-77280112D02*
X162044295Y-77203921D01*
X162044295Y-77203921D02*
X162006200Y-77089635D01*
X162006200Y-77089635D02*
X161930009Y-77013445D01*
X161930009Y-77013445D02*
X161853819Y-76975350D01*
X161853819Y-76975350D02*
X161701438Y-76937254D01*
X161701438Y-76937254D02*
X161587152Y-76937254D01*
X161587152Y-76937254D02*
X161434771Y-76975350D01*
X161434771Y-76975350D02*
X161358580Y-77013445D01*
X161358580Y-77013445D02*
X161282390Y-77089635D01*
X161282390Y-77089635D02*
X161244295Y-77203921D01*
X161244295Y-77203921D02*
X161244295Y-77280112D01*
X161244295Y-77280112D02*
X161282390Y-77394397D01*
X161282390Y-77394397D02*
X161320485Y-77432493D01*
X162044295Y-78156302D02*
X162044295Y-77775350D01*
X162044295Y-77775350D02*
X161244295Y-77775350D01*
X162044295Y-78422969D02*
X161244295Y-78422969D01*
X162044295Y-78880112D02*
X161587152Y-78537254D01*
X161244295Y-78880112D02*
X161701438Y-78422969D01*
X162582390Y-77394397D02*
X162544295Y-77318207D01*
X162544295Y-77318207D02*
X162544295Y-77203921D01*
X162544295Y-77203921D02*
X162582390Y-77089635D01*
X162582390Y-77089635D02*
X162658580Y-77013445D01*
X162658580Y-77013445D02*
X162734771Y-76975350D01*
X162734771Y-76975350D02*
X162887152Y-76937254D01*
X162887152Y-76937254D02*
X163001438Y-76937254D01*
X163001438Y-76937254D02*
X163153819Y-76975350D01*
X163153819Y-76975350D02*
X163230009Y-77013445D01*
X163230009Y-77013445D02*
X163306200Y-77089635D01*
X163306200Y-77089635D02*
X163344295Y-77203921D01*
X163344295Y-77203921D02*
X163344295Y-77280112D01*
X163344295Y-77280112D02*
X163306200Y-77394397D01*
X163306200Y-77394397D02*
X163268104Y-77432493D01*
X163268104Y-77432493D02*
X163001438Y-77432493D01*
X163001438Y-77432493D02*
X163001438Y-77280112D01*
X130132493Y-103955704D02*
X129865826Y-104336657D01*
X129675350Y-103955704D02*
X129675350Y-104755704D01*
X129675350Y-104755704D02*
X129980112Y-104755704D01*
X129980112Y-104755704D02*
X130056302Y-104717609D01*
X130056302Y-104717609D02*
X130094397Y-104679514D01*
X130094397Y-104679514D02*
X130132493Y-104603323D01*
X130132493Y-104603323D02*
X130132493Y-104489038D01*
X130132493Y-104489038D02*
X130094397Y-104412847D01*
X130094397Y-104412847D02*
X130056302Y-104374752D01*
X130056302Y-104374752D02*
X129980112Y-104336657D01*
X129980112Y-104336657D02*
X129675350Y-104336657D01*
X130399159Y-104755704D02*
X130932493Y-103955704D01*
X130932493Y-104755704D02*
X130399159Y-103955704D01*
X131199159Y-104679514D02*
X131237255Y-104717609D01*
X131237255Y-104717609D02*
X131313445Y-104755704D01*
X131313445Y-104755704D02*
X131503921Y-104755704D01*
X131503921Y-104755704D02*
X131580112Y-104717609D01*
X131580112Y-104717609D02*
X131618207Y-104679514D01*
X131618207Y-104679514D02*
X131656302Y-104603323D01*
X131656302Y-104603323D02*
X131656302Y-104527133D01*
X131656302Y-104527133D02*
X131618207Y-104412847D01*
X131618207Y-104412847D02*
X131161064Y-103955704D01*
X131161064Y-103955704D02*
X131656302Y-103955704D01*
X130056302Y-107355704D02*
X129675350Y-107355704D01*
X129675350Y-107355704D02*
X129637254Y-106974752D01*
X129637254Y-106974752D02*
X129675350Y-107012847D01*
X129675350Y-107012847D02*
X129751540Y-107050942D01*
X129751540Y-107050942D02*
X129942016Y-107050942D01*
X129942016Y-107050942D02*
X130018207Y-107012847D01*
X130018207Y-107012847D02*
X130056302Y-106974752D01*
X130056302Y-106974752D02*
X130094397Y-106898561D01*
X130094397Y-106898561D02*
X130094397Y-106708085D01*
X130094397Y-106708085D02*
X130056302Y-106631895D01*
X130056302Y-106631895D02*
X130018207Y-106593800D01*
X130018207Y-106593800D02*
X129942016Y-106555704D01*
X129942016Y-106555704D02*
X129751540Y-106555704D01*
X129751540Y-106555704D02*
X129675350Y-106593800D01*
X129675350Y-106593800D02*
X129637254Y-106631895D01*
X130322969Y-107355704D02*
X130589636Y-106555704D01*
X130589636Y-106555704D02*
X130856302Y-107355704D01*
X130108207Y-81580109D02*
X130032017Y-81618204D01*
X130032017Y-81618204D02*
X129917731Y-81618204D01*
X129917731Y-81618204D02*
X129803445Y-81580109D01*
X129803445Y-81580109D02*
X129727255Y-81503919D01*
X129727255Y-81503919D02*
X129689160Y-81427728D01*
X129689160Y-81427728D02*
X129651064Y-81275347D01*
X129651064Y-81275347D02*
X129651064Y-81161061D01*
X129651064Y-81161061D02*
X129689160Y-81008680D01*
X129689160Y-81008680D02*
X129727255Y-80932490D01*
X129727255Y-80932490D02*
X129803445Y-80856300D01*
X129803445Y-80856300D02*
X129917731Y-80818204D01*
X129917731Y-80818204D02*
X129993922Y-80818204D01*
X129993922Y-80818204D02*
X130108207Y-80856300D01*
X130108207Y-80856300D02*
X130146303Y-80894395D01*
X130146303Y-80894395D02*
X130146303Y-81161061D01*
X130146303Y-81161061D02*
X129993922Y-81161061D01*
X130146303Y-82194395D02*
X130108207Y-82156300D01*
X130108207Y-82156300D02*
X129993922Y-82118204D01*
X129993922Y-82118204D02*
X129917731Y-82118204D01*
X129917731Y-82118204D02*
X129803445Y-82156300D01*
X129803445Y-82156300D02*
X129727255Y-82232490D01*
X129727255Y-82232490D02*
X129689160Y-82308680D01*
X129689160Y-82308680D02*
X129651064Y-82461061D01*
X129651064Y-82461061D02*
X129651064Y-82575347D01*
X129651064Y-82575347D02*
X129689160Y-82727728D01*
X129689160Y-82727728D02*
X129727255Y-82803919D01*
X129727255Y-82803919D02*
X129803445Y-82880109D01*
X129803445Y-82880109D02*
X129917731Y-82918204D01*
X129917731Y-82918204D02*
X129993922Y-82918204D01*
X129993922Y-82918204D02*
X130108207Y-82880109D01*
X130108207Y-82880109D02*
X130146303Y-82842014D01*
X130489160Y-82918204D02*
X130489160Y-82270585D01*
X130489160Y-82270585D02*
X130527255Y-82194395D01*
X130527255Y-82194395D02*
X130565350Y-82156300D01*
X130565350Y-82156300D02*
X130641541Y-82118204D01*
X130641541Y-82118204D02*
X130793922Y-82118204D01*
X130793922Y-82118204D02*
X130870112Y-82156300D01*
X130870112Y-82156300D02*
X130908207Y-82194395D01*
X130908207Y-82194395D02*
X130946303Y-82270585D01*
X130946303Y-82270585D02*
X130946303Y-82918204D01*
X131784398Y-82118204D02*
X131517731Y-82499157D01*
X131327255Y-82118204D02*
X131327255Y-82918204D01*
X131327255Y-82918204D02*
X131632017Y-82918204D01*
X131632017Y-82918204D02*
X131708207Y-82880109D01*
X131708207Y-82880109D02*
X131746302Y-82842014D01*
X131746302Y-82842014D02*
X131784398Y-82765823D01*
X131784398Y-82765823D02*
X131784398Y-82651538D01*
X131784398Y-82651538D02*
X131746302Y-82575347D01*
X131746302Y-82575347D02*
X131708207Y-82537252D01*
X131708207Y-82537252D02*
X131632017Y-82499157D01*
X131632017Y-82499157D02*
X131327255Y-82499157D01*
X130108207Y-84180109D02*
X130032017Y-84218204D01*
X130032017Y-84218204D02*
X129917731Y-84218204D01*
X129917731Y-84218204D02*
X129803445Y-84180109D01*
X129803445Y-84180109D02*
X129727255Y-84103919D01*
X129727255Y-84103919D02*
X129689160Y-84027728D01*
X129689160Y-84027728D02*
X129651064Y-83875347D01*
X129651064Y-83875347D02*
X129651064Y-83761061D01*
X129651064Y-83761061D02*
X129689160Y-83608680D01*
X129689160Y-83608680D02*
X129727255Y-83532490D01*
X129727255Y-83532490D02*
X129803445Y-83456300D01*
X129803445Y-83456300D02*
X129917731Y-83418204D01*
X129917731Y-83418204D02*
X129993922Y-83418204D01*
X129993922Y-83418204D02*
X130108207Y-83456300D01*
X130108207Y-83456300D02*
X130146303Y-83494395D01*
X130146303Y-83494395D02*
X130146303Y-83761061D01*
X130146303Y-83761061D02*
X129993922Y-83761061D01*
X130070112Y-85518204D02*
X129689160Y-85518204D01*
X129689160Y-85518204D02*
X129651064Y-85137252D01*
X129651064Y-85137252D02*
X129689160Y-85175347D01*
X129689160Y-85175347D02*
X129765350Y-85213442D01*
X129765350Y-85213442D02*
X129955826Y-85213442D01*
X129955826Y-85213442D02*
X130032017Y-85175347D01*
X130032017Y-85175347D02*
X130070112Y-85137252D01*
X130070112Y-85137252D02*
X130108207Y-85061061D01*
X130108207Y-85061061D02*
X130108207Y-84870585D01*
X130108207Y-84870585D02*
X130070112Y-84794395D01*
X130070112Y-84794395D02*
X130032017Y-84756300D01*
X130032017Y-84756300D02*
X129955826Y-84718204D01*
X129955826Y-84718204D02*
X129765350Y-84718204D01*
X129765350Y-84718204D02*
X129689160Y-84756300D01*
X129689160Y-84756300D02*
X129651064Y-84794395D01*
X130336779Y-85518204D02*
X130603446Y-84718204D01*
X130603446Y-84718204D02*
X130870112Y-85518204D01*
X130108207Y-101017609D02*
X130032017Y-101055704D01*
X130032017Y-101055704D02*
X129917731Y-101055704D01*
X129917731Y-101055704D02*
X129803445Y-101017609D01*
X129803445Y-101017609D02*
X129727255Y-100941419D01*
X129727255Y-100941419D02*
X129689160Y-100865228D01*
X129689160Y-100865228D02*
X129651064Y-100712847D01*
X129651064Y-100712847D02*
X129651064Y-100598561D01*
X129651064Y-100598561D02*
X129689160Y-100446180D01*
X129689160Y-100446180D02*
X129727255Y-100369990D01*
X129727255Y-100369990D02*
X129803445Y-100293800D01*
X129803445Y-100293800D02*
X129917731Y-100255704D01*
X129917731Y-100255704D02*
X129993922Y-100255704D01*
X129993922Y-100255704D02*
X130108207Y-100293800D01*
X130108207Y-100293800D02*
X130146303Y-100331895D01*
X130146303Y-100331895D02*
X130146303Y-100598561D01*
X130146303Y-100598561D02*
X129993922Y-100598561D01*
X129689160Y-101455704D02*
X129689160Y-102255704D01*
X129689160Y-102255704D02*
X130146303Y-101455704D01*
X130146303Y-101455704D02*
X130146303Y-102255704D01*
X130984398Y-101531895D02*
X130946302Y-101493800D01*
X130946302Y-101493800D02*
X130832017Y-101455704D01*
X130832017Y-101455704D02*
X130755826Y-101455704D01*
X130755826Y-101455704D02*
X130641540Y-101493800D01*
X130641540Y-101493800D02*
X130565350Y-101569990D01*
X130565350Y-101569990D02*
X130527255Y-101646180D01*
X130527255Y-101646180D02*
X130489159Y-101798561D01*
X130489159Y-101798561D02*
X130489159Y-101912847D01*
X130489159Y-101912847D02*
X130527255Y-102065228D01*
X130527255Y-102065228D02*
X130565350Y-102141419D01*
X130565350Y-102141419D02*
X130641540Y-102217609D01*
X130641540Y-102217609D02*
X130755826Y-102255704D01*
X130755826Y-102255704D02*
X130832017Y-102255704D01*
X130832017Y-102255704D02*
X130946302Y-102217609D01*
X130946302Y-102217609D02*
X130984398Y-102179514D01*
X129689160Y-102655704D02*
X129689160Y-103455704D01*
X129689160Y-103455704D02*
X130146303Y-102655704D01*
X130146303Y-102655704D02*
X130146303Y-103455704D01*
X130984398Y-102731895D02*
X130946302Y-102693800D01*
X130946302Y-102693800D02*
X130832017Y-102655704D01*
X130832017Y-102655704D02*
X130755826Y-102655704D01*
X130755826Y-102655704D02*
X130641540Y-102693800D01*
X130641540Y-102693800D02*
X130565350Y-102769990D01*
X130565350Y-102769990D02*
X130527255Y-102846180D01*
X130527255Y-102846180D02*
X130489159Y-102998561D01*
X130489159Y-102998561D02*
X130489159Y-103112847D01*
X130489159Y-103112847D02*
X130527255Y-103265228D01*
X130527255Y-103265228D02*
X130565350Y-103341419D01*
X130565350Y-103341419D02*
X130641540Y-103417609D01*
X130641540Y-103417609D02*
X130755826Y-103455704D01*
X130755826Y-103455704D02*
X130832017Y-103455704D01*
X130832017Y-103455704D02*
X130946302Y-103417609D01*
X130946302Y-103417609D02*
X130984398Y-103379514D01*
X129674874Y-106055704D02*
X130132017Y-106055704D01*
X129903445Y-105255704D02*
X129903445Y-106055704D01*
X130322493Y-106055704D02*
X130855827Y-105255704D01*
X130855827Y-106055704D02*
X130322493Y-105255704D01*
X131122493Y-105979514D02*
X131160589Y-106017609D01*
X131160589Y-106017609D02*
X131236779Y-106055704D01*
X131236779Y-106055704D02*
X131427255Y-106055704D01*
X131427255Y-106055704D02*
X131503446Y-106017609D01*
X131503446Y-106017609D02*
X131541541Y-105979514D01*
X131541541Y-105979514D02*
X131579636Y-105903323D01*
X131579636Y-105903323D02*
X131579636Y-105827133D01*
X131579636Y-105827133D02*
X131541541Y-105712847D01*
X131541541Y-105712847D02*
X131084398Y-105255704D01*
X131084398Y-105255704D02*
X131579636Y-105255704D01*
D11*
G36*
X147810566Y-102990140D02*
G01*
X147654031Y-102990140D01*
X147599946Y-102985262D01*
X147542012Y-102964894D01*
X147499932Y-102930626D01*
X147484348Y-102908019D01*
X147472899Y-102882094D01*
X147465478Y-102851370D01*
X147462966Y-102817253D01*
X147468080Y-102767762D01*
X147489498Y-102714141D01*
X147506198Y-102692188D01*
X147526696Y-102673704D01*
X147551886Y-102658314D01*
X147580876Y-102646978D01*
X147615507Y-102639572D01*
X147654031Y-102637063D01*
X147810566Y-102637063D01*
X147810566Y-102990140D01*
G37*
G36*
X148224343Y-103873444D02*
G01*
X142672474Y-103873444D01*
X142672474Y-103483322D01*
X142816918Y-103483322D01*
X142816918Y-103729000D01*
X143690483Y-103729000D01*
X143690483Y-103483322D01*
X143355662Y-103483322D01*
X143355662Y-103437838D01*
X144199064Y-103437838D01*
X144202204Y-103472040D01*
X144209964Y-103499486D01*
X144222122Y-103524193D01*
X144238692Y-103546228D01*
X144259244Y-103564944D01*
X144284178Y-103580436D01*
X144312712Y-103591901D01*
X144345329Y-103599184D01*
X144381079Y-103601676D01*
X144424266Y-103597990D01*
X144482493Y-103578092D01*
X144525809Y-103543623D01*
X144541635Y-103521554D01*
X144553300Y-103496535D01*
X144560601Y-103468451D01*
X144563095Y-103437838D01*
X144559963Y-103403667D01*
X144552216Y-103376229D01*
X144540071Y-103351531D01*
X144523518Y-103329508D01*
X144502982Y-103310803D01*
X144478052Y-103295316D01*
X144449517Y-103283855D01*
X144416872Y-103276571D01*
X144381079Y-103274079D01*
X144337893Y-103277764D01*
X144279661Y-103297662D01*
X144236344Y-103332119D01*
X144220521Y-103354174D01*
X144208857Y-103379178D01*
X144201558Y-103407242D01*
X144199064Y-103437838D01*
X143355662Y-103437838D01*
X143355662Y-102677070D01*
X143694134Y-102921001D01*
X143694134Y-102728031D01*
X144199064Y-102728031D01*
X144202204Y-102762234D01*
X144209964Y-102789680D01*
X144222122Y-102814386D01*
X144238692Y-102836421D01*
X144259244Y-102855137D01*
X144284178Y-102870630D01*
X144312712Y-102882095D01*
X144345329Y-102889377D01*
X144381079Y-102891869D01*
X144424266Y-102888184D01*
X144482493Y-102868285D01*
X144525809Y-102833817D01*
X144541635Y-102811748D01*
X144553300Y-102786729D01*
X144560601Y-102758645D01*
X144563095Y-102728031D01*
X144559963Y-102693861D01*
X144552216Y-102666422D01*
X144540071Y-102641725D01*
X144523518Y-102619702D01*
X144502982Y-102600997D01*
X144478052Y-102585510D01*
X144449517Y-102574048D01*
X144416872Y-102566765D01*
X144381079Y-102564273D01*
X144337893Y-102567958D01*
X144279661Y-102587855D01*
X144236344Y-102622312D01*
X144220521Y-102644368D01*
X144208857Y-102669372D01*
X144201558Y-102697436D01*
X144199064Y-102728031D01*
X143694134Y-102728031D01*
X143694134Y-102618885D01*
X143382889Y-102400434D01*
X144971579Y-102400434D01*
X145297350Y-103729000D01*
X145643125Y-103729000D01*
X145913874Y-102637063D01*
X146144482Y-102637063D01*
X146695928Y-102637063D01*
X146695928Y-102935528D01*
X146208144Y-102935528D01*
X146208144Y-103161202D01*
X146695928Y-103161202D01*
X146695928Y-103492450D01*
X146144482Y-103492450D01*
X146144482Y-103729000D01*
X146963435Y-103729000D01*
X147171725Y-103729000D01*
X147468443Y-103729000D01*
X147683163Y-103226690D01*
X147810566Y-103226690D01*
X147810566Y-103729000D01*
X148079899Y-103729000D01*
X148079899Y-102400434D01*
X147654031Y-102400434D01*
X147616092Y-102401404D01*
X147506021Y-102416612D01*
X147412319Y-102448335D01*
X147334923Y-102494438D01*
X147273579Y-102553483D01*
X147248905Y-102587648D01*
X147228335Y-102624819D01*
X147211903Y-102665208D01*
X147199935Y-102708413D01*
X147192496Y-102755111D01*
X147189982Y-102804473D01*
X147190279Y-102817253D01*
X147190510Y-102827206D01*
X147195338Y-102876097D01*
X147205024Y-102922967D01*
X147219316Y-102967414D01*
X147238006Y-103009202D01*
X147287067Y-103082761D01*
X147349518Y-103141245D01*
X147422880Y-103183031D01*
X147171725Y-103729000D01*
X146963435Y-103729000D01*
X146963435Y-102400434D01*
X146144482Y-102400434D01*
X146144482Y-102637063D01*
X145913874Y-102637063D01*
X145972547Y-102400434D01*
X145690514Y-102400434D01*
X145506673Y-103239470D01*
X145463014Y-103465144D01*
X145424754Y-103237644D01*
X145246389Y-102400434D01*
X144971579Y-102400434D01*
X143382889Y-102400434D01*
X143082599Y-102400434D01*
X143082599Y-103483322D01*
X142816918Y-103483322D01*
X142672474Y-103483322D01*
X142672474Y-102255990D01*
X148224343Y-102255990D01*
X148224343Y-103873444D01*
G37*
D12*
G36*
X137416939Y-99196519D02*
G01*
X137366427Y-99253821D01*
X137298130Y-99288856D01*
X137205975Y-99301543D01*
X137105825Y-99289014D01*
X137019207Y-99252556D01*
X136942746Y-99191151D01*
X136874873Y-99100348D01*
X136806631Y-98960973D01*
X136737977Y-98762467D01*
X136670778Y-98489436D01*
X136624371Y-98216495D01*
X137416939Y-99196519D01*
G37*
G36*
X136961757Y-97669324D02*
G01*
X137048010Y-97706842D01*
X137125949Y-97770850D01*
X137196968Y-97866617D01*
X137268373Y-98011611D01*
X137338758Y-98213408D01*
X137406101Y-98485925D01*
X137447317Y-98717040D01*
X136669862Y-97744037D01*
X136716490Y-97696705D01*
X136779383Y-97667289D01*
X136864035Y-97656568D01*
X136961757Y-97669324D01*
G37*
G36*
X149682432Y-98233604D02*
G01*
X149784973Y-98283526D01*
X149874241Y-98368841D01*
X149944224Y-98475620D01*
X150001841Y-98606576D01*
X150045821Y-98766041D01*
X150069008Y-98935148D01*
X150064315Y-99065242D01*
X150038036Y-99165073D01*
X150000466Y-99228632D01*
X149948772Y-99273397D01*
X149880256Y-99301620D01*
X149789519Y-99311924D01*
X149671054Y-99295197D01*
X149570424Y-99246442D01*
X149482994Y-99163241D01*
X149414597Y-99058767D01*
X149357474Y-98928036D01*
X149313093Y-98766041D01*
X149289634Y-98599193D01*
X149292446Y-98468757D01*
X149315840Y-98367009D01*
X149351017Y-98301904D01*
X149401323Y-98256126D01*
X149469620Y-98227148D01*
X149561915Y-98216495D01*
X149682432Y-98233604D01*
G37*
G36*
X153827856Y-98192953D02*
G01*
X153919096Y-98226510D01*
X154002861Y-98283051D01*
X154073305Y-98356819D01*
X154130396Y-98446906D01*
X154174136Y-98555992D01*
X153451940Y-98555992D01*
X153442465Y-98440932D01*
X153458396Y-98351668D01*
X153495904Y-98281372D01*
X153553698Y-98227151D01*
X153628735Y-98193627D01*
X153726561Y-98181537D01*
X153827856Y-98192953D01*
G37*
G36*
X139040849Y-98060790D02*
G01*
X139145874Y-98195429D01*
X139615888Y-98776574D01*
X139112595Y-98776574D01*
X139032606Y-98391434D01*
X139000091Y-98251452D01*
X138953990Y-98062469D01*
X138921475Y-97922487D01*
X138935061Y-97922487D01*
X139040849Y-98060790D01*
G37*
G36*
X157234756Y-100860223D02*
G01*
X133734264Y-100860223D01*
X133734264Y-97225937D01*
X134012042Y-97225937D01*
X134111113Y-97702058D01*
X134932837Y-97702058D01*
X135055416Y-98143069D01*
X134901696Y-98120324D01*
X134778964Y-98114981D01*
X134616650Y-98129563D01*
X134486129Y-98170061D01*
X134380882Y-98233858D01*
X134296432Y-98321519D01*
X134236848Y-98427123D01*
X134201979Y-98553490D01*
X134194011Y-98706169D01*
X134218121Y-98891979D01*
X134271106Y-99077439D01*
X134345758Y-99236662D01*
X134441451Y-99373290D01*
X134558830Y-99491930D01*
X134691962Y-99588386D01*
X134842620Y-99663786D01*
X135003431Y-99716545D01*
X135176603Y-99748876D01*
X135364078Y-99759957D01*
X135527619Y-99751636D01*
X135689379Y-99726679D01*
X135843219Y-99683338D01*
X135972548Y-99623486D01*
X135869966Y-99129963D01*
X135735932Y-99192451D01*
X135586797Y-99242009D01*
X135430870Y-99273417D01*
X135268518Y-99283989D01*
X135143367Y-99273344D01*
X135040605Y-99243579D01*
X134955887Y-99196519D01*
X134886427Y-99130379D01*
X134833670Y-99043297D01*
X134797893Y-98930447D01*
X134787393Y-98807358D01*
X134808727Y-98718778D01*
X134856816Y-98653995D01*
X134927219Y-98607124D01*
X135016407Y-98577322D01*
X135129605Y-98566525D01*
X135330190Y-98584080D01*
X135515204Y-98626059D01*
X135700828Y-98514013D01*
X135528951Y-97893963D01*
X136099302Y-97893963D01*
X136108260Y-98156293D01*
X136117682Y-98216495D01*
X136159852Y-98485925D01*
X136221317Y-98735561D01*
X136294638Y-98956323D01*
X136378755Y-99151029D01*
X136484445Y-99332727D01*
X136605559Y-99480716D01*
X136742371Y-99599062D01*
X136857272Y-99667794D01*
X136985966Y-99717908D01*
X137130773Y-99749088D01*
X137294513Y-99759957D01*
X137473442Y-99744556D01*
X137615911Y-99702033D01*
X137729384Y-99635609D01*
X137819144Y-99545207D01*
X137887718Y-99427481D01*
X137938695Y-99264355D01*
X137962862Y-99057484D01*
X137953718Y-98796234D01*
X137902372Y-98468523D01*
X137820659Y-98148956D01*
X137724305Y-97889176D01*
X137615871Y-97680342D01*
X137496929Y-97514754D01*
X137379766Y-97397966D01*
X137250624Y-97308483D01*
X137107841Y-97244218D01*
X137034348Y-97225937D01*
X138273316Y-97225937D01*
X138418139Y-97922487D01*
X138595717Y-98776574D01*
X138284154Y-98776574D01*
X138375898Y-99217432D01*
X138687460Y-99217432D01*
X138792943Y-99725000D01*
X139309822Y-99725000D01*
X139204339Y-99217432D01*
X140190470Y-99217432D01*
X140103916Y-98800998D01*
X138779815Y-97225937D01*
X140162534Y-97225937D01*
X140262369Y-97705569D01*
X141323604Y-97705569D01*
X141445725Y-98293431D01*
X140432423Y-98293431D01*
X140532257Y-98773063D01*
X141545560Y-98773063D01*
X141743396Y-99725000D01*
X142270655Y-99725000D01*
X141871136Y-97803572D01*
X142209442Y-97803572D01*
X143357689Y-99868492D01*
X143504423Y-100100478D01*
X143649980Y-100276502D01*
X143794578Y-100405674D01*
X143916395Y-100482457D01*
X144047992Y-100537374D01*
X144191223Y-100570923D01*
X144348399Y-100582445D01*
X144471937Y-100575558D01*
X144599358Y-100554509D01*
X144506241Y-100106476D01*
X144415539Y-100122453D01*
X144332523Y-100127542D01*
X144230075Y-100118161D01*
X144140324Y-100091125D01*
X144060803Y-100046942D01*
X143957015Y-99951443D01*
X143862966Y-99812469D01*
X143803585Y-99707445D01*
X143869257Y-99357567D01*
X144733387Y-99357567D01*
X144809713Y-99725000D01*
X146535288Y-99725000D01*
X146458962Y-99357567D01*
X145814772Y-99273456D01*
X145449476Y-97516434D01*
X145933230Y-97439497D01*
X145888829Y-97225937D01*
X146456673Y-97225937D01*
X146556507Y-97705569D01*
X147617742Y-97705569D01*
X147739863Y-98293431D01*
X146726561Y-98293431D01*
X146826395Y-98773063D01*
X147839698Y-98773063D01*
X148037534Y-99725000D01*
X148564794Y-99725000D01*
X148324249Y-98568139D01*
X148744797Y-98568139D01*
X148749205Y-98599193D01*
X148774385Y-98776574D01*
X148826021Y-98968256D01*
X148895577Y-99138939D01*
X148982449Y-99291010D01*
X149089806Y-99428061D01*
X149213671Y-99542390D01*
X149355377Y-99635698D01*
X149510487Y-99703537D01*
X149683926Y-99745418D01*
X149879278Y-99759957D01*
X150072170Y-99744554D01*
X150227115Y-99701991D01*
X150351583Y-99635698D01*
X150456254Y-99542405D01*
X150534874Y-99427121D01*
X150588651Y-99285820D01*
X150614015Y-99134461D01*
X150614171Y-98960382D01*
X150585293Y-98759019D01*
X150533455Y-98567422D01*
X150462627Y-98395520D01*
X150373259Y-98241072D01*
X150263048Y-98101544D01*
X150137699Y-97986066D01*
X149996057Y-97892720D01*
X149840929Y-97824662D01*
X149840203Y-97824485D01*
X150609564Y-97824485D01*
X150854876Y-98345943D01*
X150977608Y-98310986D01*
X151118505Y-98296942D01*
X151256588Y-98313156D01*
X151376240Y-98360191D01*
X151481816Y-98438756D01*
X151566805Y-98541319D01*
X151633773Y-98670706D01*
X151681638Y-98832445D01*
X151773381Y-99273456D01*
X151283674Y-99354056D01*
X151360764Y-99725000D01*
X152880717Y-99725000D01*
X152803628Y-99354056D01*
X152293771Y-99273456D01*
X152124000Y-98456794D01*
X152957965Y-98456794D01*
X152986352Y-98671550D01*
X153040239Y-98930447D01*
X154262369Y-98930447D01*
X154266613Y-99026815D01*
X154249147Y-99104792D01*
X154212030Y-99169124D01*
X154153681Y-99222775D01*
X154056337Y-99274088D01*
X153935368Y-99307030D01*
X153785027Y-99318946D01*
X153639845Y-99310489D01*
X153481707Y-99283989D01*
X153322177Y-99240202D01*
X153152896Y-99175453D01*
X153246013Y-99623486D01*
X153424440Y-99689159D01*
X153600165Y-99730190D01*
X153775052Y-99752813D01*
X153931572Y-99759957D01*
X154136315Y-99747310D01*
X154303421Y-99712350D01*
X154439315Y-99658460D01*
X154549330Y-99587412D01*
X154637434Y-99499228D01*
X154704907Y-99394056D01*
X154751316Y-99271569D01*
X154775877Y-99128080D01*
X154775914Y-98958991D01*
X154747038Y-98759019D01*
X154685465Y-98537394D01*
X154601018Y-98345821D01*
X154494642Y-98180375D01*
X154366019Y-98038045D01*
X154214845Y-97921116D01*
X154046554Y-97837580D01*
X153857810Y-97786262D01*
X153644129Y-97768462D01*
X153479670Y-97779856D01*
X153344621Y-97811524D01*
X153233814Y-97860819D01*
X153143117Y-97926728D01*
X153069700Y-98009957D01*
X153003893Y-98132916D01*
X152965761Y-98279779D01*
X152958664Y-98440932D01*
X152957965Y-98456794D01*
X152124000Y-98456794D01*
X152082043Y-98254963D01*
X152477869Y-98198940D01*
X152395590Y-97803572D01*
X151597832Y-97803572D01*
X151581956Y-98122003D01*
X151554479Y-98122003D01*
X151436722Y-97978914D01*
X151294360Y-97866464D01*
X151186995Y-97812450D01*
X151069746Y-97779694D01*
X150940208Y-97768462D01*
X150799921Y-97777315D01*
X150710301Y-97792870D01*
X150609564Y-97824485D01*
X149840203Y-97824485D01*
X149669568Y-97782888D01*
X149478720Y-97768462D01*
X149292676Y-97783274D01*
X149140653Y-97824511D01*
X149016185Y-97889209D01*
X148910890Y-97980431D01*
X148830379Y-98095120D01*
X148773621Y-98237561D01*
X148746000Y-98390234D01*
X148744797Y-98568139D01*
X148324249Y-98568139D01*
X148045167Y-97225937D01*
X154848857Y-97225937D01*
X154948691Y-97705569D01*
X156009926Y-97705569D01*
X156132048Y-98293431D01*
X155118745Y-98293431D01*
X155218579Y-98773063D01*
X156231882Y-98773063D01*
X156429719Y-99725000D01*
X156956978Y-99725000D01*
X156437351Y-97225937D01*
X154848857Y-97225937D01*
X148045167Y-97225937D01*
X146456673Y-97225937D01*
X145888829Y-97225937D01*
X145855377Y-97065042D01*
X144814750Y-97065042D01*
X145273927Y-99273456D01*
X144733387Y-99357567D01*
X143869257Y-99357567D01*
X144160942Y-97803572D01*
X143572012Y-97803572D01*
X143450196Y-98864043D01*
X143441800Y-99012726D01*
X143442563Y-99189497D01*
X143432183Y-99189497D01*
X143362268Y-99009215D01*
X143296017Y-98864043D01*
X142781276Y-97803572D01*
X142209442Y-97803572D01*
X141871136Y-97803572D01*
X141751029Y-97225937D01*
X140162534Y-97225937D01*
X138779815Y-97225937D01*
X138273316Y-97225937D01*
X137034348Y-97225937D01*
X136948875Y-97204676D01*
X136770459Y-97190980D01*
X136591560Y-97206361D01*
X136448878Y-97248857D01*
X136335023Y-97315279D01*
X136244763Y-97405705D01*
X136175575Y-97523456D01*
X136123937Y-97686626D01*
X136117116Y-97744037D01*
X136099302Y-97893963D01*
X135528951Y-97893963D01*
X135343776Y-97225937D01*
X134012042Y-97225937D01*
X133734264Y-97225937D01*
X133734264Y-96787264D01*
X157234756Y-96787264D01*
X157234756Y-100860223D01*
G37*
D10*
X148402438Y-78911904D02*
X148354819Y-78816666D01*
X148354819Y-78816666D02*
X148354819Y-78673809D01*
X148354819Y-78673809D02*
X148402438Y-78530952D01*
X148402438Y-78530952D02*
X148497676Y-78435714D01*
X148497676Y-78435714D02*
X148592914Y-78388095D01*
X148592914Y-78388095D02*
X148783390Y-78340476D01*
X148783390Y-78340476D02*
X148926247Y-78340476D01*
X148926247Y-78340476D02*
X149116723Y-78388095D01*
X149116723Y-78388095D02*
X149211961Y-78435714D01*
X149211961Y-78435714D02*
X149307200Y-78530952D01*
X149307200Y-78530952D02*
X149354819Y-78673809D01*
X149354819Y-78673809D02*
X149354819Y-78769047D01*
X149354819Y-78769047D02*
X149307200Y-78911904D01*
X149307200Y-78911904D02*
X149259580Y-78959523D01*
X149259580Y-78959523D02*
X148926247Y-78959523D01*
X148926247Y-78959523D02*
X148926247Y-78769047D01*
%TO.C,R909*%
D13*
X162334724Y-108135000D02*
X161825276Y-108135000D01*
X162334724Y-109180000D02*
X161825276Y-109180000D01*
%TO.C,R905*%
X162334724Y-97035000D02*
X161825276Y-97035000D01*
X162334724Y-98080000D02*
X161825276Y-98080000D01*
%TO.C,C901*%
X161405000Y-83673752D02*
X161405000Y-83151248D01*
X162875000Y-83673752D02*
X162875000Y-83151248D01*
%TO.C,C805*%
X131638748Y-108015000D02*
X132161252Y-108015000D01*
X131638748Y-109485000D02*
X132161252Y-109485000D01*
%TO.C,J805*%
X123690000Y-107965000D02*
X123690000Y-99535000D01*
X126510000Y-98265000D02*
X127960000Y-98265000D01*
X126510000Y-109235000D02*
X127960000Y-109235000D01*
X127960000Y-98265000D02*
X127960000Y-100065000D01*
X127960000Y-107435000D02*
X128950000Y-107435000D01*
X127960000Y-109235000D02*
X127960000Y-107435000D01*
%TO.C,C208*%
X126840000Y-114551248D02*
X126840000Y-115973752D01*
X128660000Y-114551248D02*
X128660000Y-115973752D01*
D14*
%TO.C,REF\u002A\u002A*%
X145203464Y-87800427D02*
X145090882Y-88397618D01*
X144675469Y-88568865D01*
X144260055Y-88740112D01*
X143761698Y-88401233D01*
X143622131Y-88306877D01*
X143495971Y-88222630D01*
X143389104Y-88152338D01*
X143307417Y-88099847D01*
X143256798Y-88069004D01*
X143243013Y-88062353D01*
X143218179Y-88079458D01*
X143165111Y-88126744D01*
X143089759Y-88198172D01*
X142998070Y-88287700D01*
X142895992Y-88389289D01*
X142789473Y-88496898D01*
X142684463Y-88604487D01*
X142586908Y-88706015D01*
X142502757Y-88795441D01*
X142437959Y-88866726D01*
X142398462Y-88913828D01*
X142389019Y-88929592D01*
X142402608Y-88958653D01*
X142440706Y-89022321D01*
X142499306Y-89114367D01*
X142574402Y-89228564D01*
X142661991Y-89358684D01*
X142712745Y-89432901D01*
X142805254Y-89568422D01*
X142887459Y-89690716D01*
X142955369Y-89793695D01*
X143004999Y-89871273D01*
X143032359Y-89917361D01*
X143036470Y-89927047D01*
X143027150Y-89954574D01*
X143001745Y-90018728D01*
X142964088Y-90110490D01*
X142918013Y-90220839D01*
X142867353Y-90340755D01*
X142815940Y-90461219D01*
X142767610Y-90573209D01*
X142726193Y-90667707D01*
X142695525Y-90735692D01*
X142679438Y-90768143D01*
X142678488Y-90769420D01*
X142653227Y-90775617D01*
X142585954Y-90789440D01*
X142483639Y-90809532D01*
X142353258Y-90834534D01*
X142201783Y-90863086D01*
X142113406Y-90879551D01*
X141951547Y-90910369D01*
X141805350Y-90939694D01*
X141682212Y-90965921D01*
X141589530Y-90987446D01*
X141534698Y-91002665D01*
X141523676Y-91007493D01*
X141512881Y-91040174D01*
X141504170Y-91113985D01*
X141497539Y-91220292D01*
X141492981Y-91350467D01*
X141490490Y-91495876D01*
X141490061Y-91647890D01*
X141491688Y-91797877D01*
X141495364Y-91937206D01*
X141501084Y-92057245D01*
X141508842Y-92149365D01*
X141518631Y-92204932D01*
X141524503Y-92216500D01*
X141559600Y-92230365D01*
X141633971Y-92250188D01*
X141737776Y-92273639D01*
X141861180Y-92298391D01*
X141904258Y-92306398D01*
X142111952Y-92344441D01*
X142276015Y-92375079D01*
X142401869Y-92399529D01*
X142494934Y-92419009D01*
X142560632Y-92434736D01*
X142604382Y-92447928D01*
X142631607Y-92459804D01*
X142647727Y-92471580D01*
X142649982Y-92473908D01*
X142672496Y-92511400D01*
X142706841Y-92584365D01*
X142749588Y-92683867D01*
X142797307Y-92800973D01*
X142846569Y-92926748D01*
X142893944Y-93052257D01*
X142936004Y-93168565D01*
X142969319Y-93266739D01*
X142990458Y-93337843D01*
X142995994Y-93372942D01*
X142995533Y-93374172D01*
X142976776Y-93402861D01*
X142934223Y-93465985D01*
X142872346Y-93556973D01*
X142795617Y-93669255D01*
X142708508Y-93796260D01*
X142683701Y-93832353D01*
X142595247Y-93963203D01*
X142517411Y-94082591D01*
X142454433Y-94183662D01*
X142410554Y-94259559D01*
X142390014Y-94303427D01*
X142389019Y-94308817D01*
X142406277Y-94337144D01*
X142453964Y-94393261D01*
X142525949Y-94471137D01*
X142616102Y-94564740D01*
X142718294Y-94668041D01*
X142826394Y-94775006D01*
X142934271Y-94879606D01*
X143035795Y-94975809D01*
X143124837Y-95057584D01*
X143195266Y-95118900D01*
X143240952Y-95153726D01*
X143253590Y-95159412D01*
X143283008Y-95146020D01*
X143343238Y-95109899D01*
X143424470Y-95057136D01*
X143486969Y-95014667D01*
X143600214Y-94936740D01*
X143734325Y-94844984D01*
X143868844Y-94753375D01*
X143941166Y-94704346D01*
X144185961Y-94538770D01*
X144391449Y-94649875D01*
X144485063Y-94698548D01*
X144564669Y-94736381D01*
X144618532Y-94757958D01*
X144632242Y-94760961D01*
X144648729Y-94738793D01*
X144681254Y-94676149D01*
X144727391Y-94578809D01*
X144784709Y-94452549D01*
X144850783Y-94303150D01*
X144923184Y-94136388D01*
X144999483Y-93958042D01*
X145077253Y-93773891D01*
X145154065Y-93589712D01*
X145227493Y-93411285D01*
X145295107Y-93244387D01*
X145354479Y-93094797D01*
X145403183Y-92968293D01*
X145438789Y-92870654D01*
X145458869Y-92807657D01*
X145462099Y-92786021D01*
X145436503Y-92758424D01*
X145380461Y-92713625D01*
X145305688Y-92660934D01*
X145299412Y-92656765D01*
X145106154Y-92502069D01*
X144950325Y-92321591D01*
X144833275Y-92121102D01*
X144756354Y-91906374D01*
X144720913Y-91683177D01*
X144728302Y-91457281D01*
X144779872Y-91234459D01*
X144876973Y-91020479D01*
X144905541Y-90973664D01*
X145054131Y-90784618D01*
X145229672Y-90632812D01*
X145426089Y-90519034D01*
X145637306Y-90444075D01*
X145857246Y-90408722D01*
X146079836Y-90413767D01*
X146298998Y-90459999D01*
X146508657Y-90548206D01*
X146702738Y-90679179D01*
X146762773Y-90732337D01*
X146915564Y-90898739D01*
X147026902Y-91073912D01*
X147103276Y-91270266D01*
X147145812Y-91464717D01*
X147156313Y-91683342D01*
X147121299Y-91903052D01*
X147044326Y-92116420D01*
X146928952Y-92316022D01*
X146778734Y-92494429D01*
X146597226Y-92644217D01*
X146573372Y-92660006D01*
X146497798Y-92711712D01*
X146440348Y-92756512D01*
X146412882Y-92785117D01*
X146412482Y-92786021D01*
X146418379Y-92816964D01*
X146441754Y-92887191D01*
X146480178Y-92990925D01*
X146531222Y-93122390D01*
X146592457Y-93275807D01*
X146661455Y-93445401D01*
X146735786Y-93625393D01*
X146813021Y-93810008D01*
X146890731Y-93993468D01*
X146966488Y-94169996D01*
X147037862Y-94333814D01*
X147102425Y-94479147D01*
X147157747Y-94600217D01*
X147201399Y-94691247D01*
X147230953Y-94746460D01*
X147242855Y-94760961D01*
X147279222Y-94749669D01*
X147347269Y-94719385D01*
X147435263Y-94675520D01*
X147483649Y-94649875D01*
X147689136Y-94538770D01*
X147933931Y-94704346D01*
X148058893Y-94789170D01*
X148195704Y-94882516D01*
X148323911Y-94970408D01*
X148388128Y-95014667D01*
X148478448Y-95075318D01*
X148554928Y-95123381D01*
X148607592Y-95152770D01*
X148624697Y-95158982D01*
X148649594Y-95142223D01*
X148704694Y-95095436D01*
X148784656Y-95023480D01*
X148884139Y-94931212D01*
X148997799Y-94823490D01*
X149069684Y-94754326D01*
X149195448Y-94630757D01*
X149304136Y-94520234D01*
X149391354Y-94427485D01*
X149452710Y-94357237D01*
X149483808Y-94314220D01*
X149486791Y-94305490D01*
X149472946Y-94272284D01*
X149434687Y-94205142D01*
X149376258Y-94110863D01*
X149301902Y-93996245D01*
X149215864Y-93868083D01*
X149191397Y-93832353D01*
X149102245Y-93702489D01*
X149022261Y-93585569D01*
X148955919Y-93488162D01*
X148907688Y-93416839D01*
X148882042Y-93378170D01*
X148879564Y-93374172D01*
X148883270Y-93343355D01*
X148902938Y-93275599D01*
X148935139Y-93179839D01*
X148976444Y-93065009D01*
X149023424Y-92940044D01*
X149072650Y-92813879D01*
X149120691Y-92695448D01*
X149164118Y-92593685D01*
X149199503Y-92517526D01*
X149223415Y-92475904D01*
X149225115Y-92473908D01*
X149239737Y-92462013D01*
X149264434Y-92450250D01*
X149304627Y-92437401D01*
X149365736Y-92422249D01*
X149453182Y-92403576D01*
X149572387Y-92380165D01*
X149728772Y-92350797D01*
X149927756Y-92314255D01*
X149970839Y-92306398D01*
X150098529Y-92281727D01*
X150209846Y-92257593D01*
X150294954Y-92236324D01*
X150344016Y-92220248D01*
X150350594Y-92216500D01*
X150361435Y-92183273D01*
X150370246Y-92109021D01*
X150377023Y-92002376D01*
X150381759Y-91871967D01*
X150384449Y-91726427D01*
X150385086Y-91574386D01*
X150383665Y-91424476D01*
X150380179Y-91285328D01*
X150374623Y-91165572D01*
X150366991Y-91073841D01*
X150357277Y-91018766D01*
X150351421Y-91007493D01*
X150318819Y-90996123D01*
X150244581Y-90977624D01*
X150136103Y-90953602D01*
X150000782Y-90925662D01*
X149846014Y-90895408D01*
X149761692Y-90879551D01*
X149601703Y-90849644D01*
X149459032Y-90822550D01*
X149340651Y-90799631D01*
X149253534Y-90782243D01*
X149204654Y-90771747D01*
X149196609Y-90769420D01*
X149183012Y-90743186D01*
X149154270Y-90679995D01*
X149114214Y-90588877D01*
X149066675Y-90478857D01*
X149015484Y-90358965D01*
X148964473Y-90238227D01*
X148917473Y-90125671D01*
X148878315Y-90030326D01*
X148850830Y-89961217D01*
X148838850Y-89927374D01*
X148838627Y-89925895D01*
X148852208Y-89899197D01*
X148890284Y-89837760D01*
X148948852Y-89747689D01*
X149023911Y-89635090D01*
X149111459Y-89506070D01*
X149162352Y-89431961D01*
X149255090Y-89296077D01*
X149337458Y-89172709D01*
X149405438Y-89068097D01*
X149455011Y-88988483D01*
X149482157Y-88940107D01*
X149486078Y-88929262D01*
X149469224Y-88904020D01*
X149422631Y-88850124D01*
X149352251Y-88773613D01*
X149264034Y-88680523D01*
X149163934Y-88576895D01*
X149057901Y-88468764D01*
X148951888Y-88362170D01*
X148851847Y-88263150D01*
X148763729Y-88177742D01*
X148693486Y-88111985D01*
X148647071Y-88071916D01*
X148631543Y-88062353D01*
X148606260Y-88075800D01*
X148545788Y-88113575D01*
X148456007Y-88171835D01*
X148342796Y-88246734D01*
X148212036Y-88334425D01*
X148113400Y-88401233D01*
X147615042Y-88740112D01*
X147199629Y-88568865D01*
X146784215Y-88397618D01*
X146671633Y-87800427D01*
X146559050Y-87203235D01*
X145316047Y-87203235D01*
X145203464Y-87800427D01*
G36*
X146671633Y-87800427D02*
G01*
X146784215Y-88397618D01*
X147199629Y-88568865D01*
X147615042Y-88740112D01*
X148113400Y-88401233D01*
X148212036Y-88334425D01*
X148342796Y-88246734D01*
X148456007Y-88171835D01*
X148545788Y-88113575D01*
X148606260Y-88075800D01*
X148631543Y-88062353D01*
X148647071Y-88071916D01*
X148693486Y-88111985D01*
X148763729Y-88177742D01*
X148851847Y-88263150D01*
X148951888Y-88362170D01*
X149057901Y-88468764D01*
X149163934Y-88576895D01*
X149264034Y-88680523D01*
X149352251Y-88773613D01*
X149422631Y-88850124D01*
X149469224Y-88904020D01*
X149486078Y-88929262D01*
X149482157Y-88940107D01*
X149455011Y-88988483D01*
X149405438Y-89068097D01*
X149337458Y-89172709D01*
X149255090Y-89296077D01*
X149162352Y-89431961D01*
X149111459Y-89506070D01*
X149023911Y-89635090D01*
X148948852Y-89747689D01*
X148890284Y-89837760D01*
X148852208Y-89899197D01*
X148838627Y-89925895D01*
X148838850Y-89927374D01*
X148850830Y-89961217D01*
X148878315Y-90030326D01*
X148917473Y-90125671D01*
X148964473Y-90238227D01*
X149015484Y-90358965D01*
X149066675Y-90478857D01*
X149114214Y-90588877D01*
X149154270Y-90679995D01*
X149183012Y-90743186D01*
X149196609Y-90769420D01*
X149204654Y-90771747D01*
X149253534Y-90782243D01*
X149340651Y-90799631D01*
X149459032Y-90822550D01*
X149601703Y-90849644D01*
X149761692Y-90879551D01*
X149846014Y-90895408D01*
X150000782Y-90925662D01*
X150136103Y-90953602D01*
X150244581Y-90977624D01*
X150318819Y-90996123D01*
X150351421Y-91007493D01*
X150357277Y-91018766D01*
X150366991Y-91073841D01*
X150374623Y-91165572D01*
X150380179Y-91285328D01*
X150383665Y-91424476D01*
X150385086Y-91574386D01*
X150384449Y-91726427D01*
X150381759Y-91871967D01*
X150377023Y-92002376D01*
X150370246Y-92109021D01*
X150361435Y-92183273D01*
X150350594Y-92216500D01*
X150344016Y-92220248D01*
X150294954Y-92236324D01*
X150209846Y-92257593D01*
X150098529Y-92281727D01*
X149970839Y-92306398D01*
X149927756Y-92314255D01*
X149728772Y-92350797D01*
X149572387Y-92380165D01*
X149453182Y-92403576D01*
X149365736Y-92422249D01*
X149304627Y-92437401D01*
X149264434Y-92450250D01*
X149239737Y-92462013D01*
X149225115Y-92473908D01*
X149223415Y-92475904D01*
X149199503Y-92517526D01*
X149164118Y-92593685D01*
X149120691Y-92695448D01*
X149072650Y-92813879D01*
X149023424Y-92940044D01*
X148976444Y-93065009D01*
X148935139Y-93179839D01*
X148902938Y-93275599D01*
X148883270Y-93343355D01*
X148879564Y-93374172D01*
X148882042Y-93378170D01*
X148907688Y-93416839D01*
X148955919Y-93488162D01*
X149022261Y-93585569D01*
X149102245Y-93702489D01*
X149191397Y-93832353D01*
X149215864Y-93868083D01*
X149301902Y-93996245D01*
X149376258Y-94110863D01*
X149434687Y-94205142D01*
X149472946Y-94272284D01*
X149486791Y-94305490D01*
X149483808Y-94314220D01*
X149452710Y-94357237D01*
X149391354Y-94427485D01*
X149304136Y-94520234D01*
X149195448Y-94630757D01*
X149069684Y-94754326D01*
X148997799Y-94823490D01*
X148884139Y-94931212D01*
X148784656Y-95023480D01*
X148704694Y-95095436D01*
X148649594Y-95142223D01*
X148624697Y-95158982D01*
X148607592Y-95152770D01*
X148554928Y-95123381D01*
X148478448Y-95075318D01*
X148388128Y-95014667D01*
X148323911Y-94970408D01*
X148195704Y-94882516D01*
X148058893Y-94789170D01*
X147933931Y-94704346D01*
X147689136Y-94538770D01*
X147483649Y-94649875D01*
X147435263Y-94675520D01*
X147347269Y-94719385D01*
X147279222Y-94749669D01*
X147242855Y-94760961D01*
X147230953Y-94746460D01*
X147201399Y-94691247D01*
X147157747Y-94600217D01*
X147102425Y-94479147D01*
X147037862Y-94333814D01*
X146966488Y-94169996D01*
X146890731Y-93993468D01*
X146813021Y-93810008D01*
X146735786Y-93625393D01*
X146661455Y-93445401D01*
X146592457Y-93275807D01*
X146531222Y-93122390D01*
X146480178Y-92990925D01*
X146441754Y-92887191D01*
X146418379Y-92816964D01*
X146412482Y-92786021D01*
X146412882Y-92785117D01*
X146440348Y-92756512D01*
X146497798Y-92711712D01*
X146573372Y-92660006D01*
X146597226Y-92644217D01*
X146778734Y-92494429D01*
X146928952Y-92316022D01*
X147044326Y-92116420D01*
X147121299Y-91903052D01*
X147156313Y-91683342D01*
X147145812Y-91464717D01*
X147103276Y-91270266D01*
X147026902Y-91073912D01*
X146915564Y-90898739D01*
X146762773Y-90732337D01*
X146702738Y-90679179D01*
X146508657Y-90548206D01*
X146298998Y-90459999D01*
X146079836Y-90413767D01*
X145857246Y-90408722D01*
X145637306Y-90444075D01*
X145426089Y-90519034D01*
X145229672Y-90632812D01*
X145054131Y-90784618D01*
X144905541Y-90973664D01*
X144876973Y-91020479D01*
X144779872Y-91234459D01*
X144728302Y-91457281D01*
X144720913Y-91683177D01*
X144756354Y-91906374D01*
X144833275Y-92121102D01*
X144950325Y-92321591D01*
X145106154Y-92502069D01*
X145299412Y-92656765D01*
X145305688Y-92660934D01*
X145380461Y-92713625D01*
X145436503Y-92758424D01*
X145462099Y-92786021D01*
X145458869Y-92807657D01*
X145438789Y-92870654D01*
X145403183Y-92968293D01*
X145354479Y-93094797D01*
X145295107Y-93244387D01*
X145227493Y-93411285D01*
X145154065Y-93589712D01*
X145077253Y-93773891D01*
X144999483Y-93958042D01*
X144923184Y-94136388D01*
X144850783Y-94303150D01*
X144784709Y-94452549D01*
X144727391Y-94578809D01*
X144681254Y-94676149D01*
X144648729Y-94738793D01*
X144632242Y-94760961D01*
X144618532Y-94757958D01*
X144564669Y-94736381D01*
X144485063Y-94698548D01*
X144391449Y-94649875D01*
X144185961Y-94538770D01*
X143941166Y-94704346D01*
X143868844Y-94753375D01*
X143734325Y-94844984D01*
X143600214Y-94936740D01*
X143486969Y-95014667D01*
X143424470Y-95057136D01*
X143343238Y-95109899D01*
X143283008Y-95146020D01*
X143253590Y-95159412D01*
X143240952Y-95153726D01*
X143195266Y-95118900D01*
X143124837Y-95057584D01*
X143035795Y-94975809D01*
X142934271Y-94879606D01*
X142826394Y-94775006D01*
X142718294Y-94668041D01*
X142616102Y-94564740D01*
X142525949Y-94471137D01*
X142453964Y-94393261D01*
X142406277Y-94337144D01*
X142389019Y-94308817D01*
X142390014Y-94303427D01*
X142410554Y-94259559D01*
X142454433Y-94183662D01*
X142517411Y-94082591D01*
X142595247Y-93963203D01*
X142683701Y-93832353D01*
X142708508Y-93796260D01*
X142795617Y-93669255D01*
X142872346Y-93556973D01*
X142934223Y-93465985D01*
X142976776Y-93402861D01*
X142995533Y-93374172D01*
X142995994Y-93372942D01*
X142990458Y-93337843D01*
X142969319Y-93266739D01*
X142936004Y-93168565D01*
X142893944Y-93052257D01*
X142846569Y-92926748D01*
X142797307Y-92800973D01*
X142749588Y-92683867D01*
X142706841Y-92584365D01*
X142672496Y-92511400D01*
X142649982Y-92473908D01*
X142647727Y-92471580D01*
X142631607Y-92459804D01*
X142604382Y-92447928D01*
X142560632Y-92434736D01*
X142494934Y-92419009D01*
X142401869Y-92399529D01*
X142276015Y-92375079D01*
X142111952Y-92344441D01*
X141904258Y-92306398D01*
X141861180Y-92298391D01*
X141737776Y-92273639D01*
X141633971Y-92250188D01*
X141559600Y-92230365D01*
X141524503Y-92216500D01*
X141518631Y-92204932D01*
X141508842Y-92149365D01*
X141501084Y-92057245D01*
X141495364Y-91937206D01*
X141491688Y-91797877D01*
X141490061Y-91647890D01*
X141490490Y-91495876D01*
X141492981Y-91350467D01*
X141497539Y-91220292D01*
X141504170Y-91113985D01*
X141512881Y-91040174D01*
X141523676Y-91007493D01*
X141534698Y-91002665D01*
X141589530Y-90987446D01*
X141682212Y-90965921D01*
X141805350Y-90939694D01*
X141951547Y-90910369D01*
X142113406Y-90879551D01*
X142201783Y-90863086D01*
X142353258Y-90834534D01*
X142483639Y-90809532D01*
X142585954Y-90789440D01*
X142653227Y-90775617D01*
X142678488Y-90769420D01*
X142679438Y-90768143D01*
X142695525Y-90735692D01*
X142726193Y-90667707D01*
X142767610Y-90573209D01*
X142815940Y-90461219D01*
X142867353Y-90340755D01*
X142918013Y-90220839D01*
X142964088Y-90110490D01*
X143001745Y-90018728D01*
X143027150Y-89954574D01*
X143036470Y-89927047D01*
X143032359Y-89917361D01*
X143004999Y-89871273D01*
X142955369Y-89793695D01*
X142887459Y-89690716D01*
X142805254Y-89568422D01*
X142712745Y-89432901D01*
X142661991Y-89358684D01*
X142574402Y-89228564D01*
X142499306Y-89114367D01*
X142440706Y-89022321D01*
X142402608Y-88958653D01*
X142389019Y-88929592D01*
X142398462Y-88913828D01*
X142437959Y-88866726D01*
X142502757Y-88795441D01*
X142586908Y-88706015D01*
X142684463Y-88604487D01*
X142789473Y-88496898D01*
X142895992Y-88389289D01*
X142998070Y-88287700D01*
X143089759Y-88198172D01*
X143165111Y-88126744D01*
X143218179Y-88079458D01*
X143243013Y-88062353D01*
X143256798Y-88069004D01*
X143307417Y-88099847D01*
X143389104Y-88152338D01*
X143495971Y-88222630D01*
X143622131Y-88306877D01*
X143761698Y-88401233D01*
X144260055Y-88740112D01*
X144675469Y-88568865D01*
X145090882Y-88397618D01*
X145203464Y-87800427D01*
X145316047Y-87203235D01*
X146559050Y-87203235D01*
X146671633Y-87800427D01*
G37*
%TO.C,R912*%
D13*
X162434724Y-116635000D02*
X161925276Y-116635000D01*
X162434724Y-117680000D02*
X161925276Y-117680000D01*
%TO.C,R202*%
X134903733Y-113615000D02*
X135196267Y-113615000D01*
X134903733Y-114635000D02*
X135196267Y-114635000D01*
%TO.C,U201*%
X133740000Y-115302500D02*
X133740000Y-115352500D01*
X133740000Y-118372500D02*
X133740000Y-118422500D01*
X133740000Y-118422500D02*
X135560000Y-118422500D01*
X135560000Y-115302500D02*
X133740000Y-115302500D01*
X135560000Y-115352500D02*
X135560000Y-115302500D01*
X135560000Y-118422500D02*
X135560000Y-118372500D01*
X133200000Y-118372500D02*
X132960000Y-118702500D01*
X133440000Y-118702500D01*
X133200000Y-118372500D01*
G36*
X133440000Y-118702500D02*
G01*
X132960000Y-118702500D01*
X133200000Y-118372500D01*
X133440000Y-118702500D01*
G37*
%TO.C,R203*%
X137627500Y-114807776D02*
X137627500Y-115317224D01*
X138672500Y-114807776D02*
X138672500Y-115317224D01*
%TO.C,R904*%
X162334724Y-94235000D02*
X161825276Y-94235000D01*
X162334724Y-95280000D02*
X161825276Y-95280000D01*
%TO.C,C206*%
X128290000Y-121873752D02*
X128290000Y-120451248D01*
X131010000Y-121873752D02*
X131010000Y-120451248D01*
%TO.C,C902*%
X161315000Y-89426248D02*
X161315000Y-89948752D01*
X162785000Y-89426248D02*
X162785000Y-89948752D01*
%TO.C,R908*%
X162347224Y-105435000D02*
X161837776Y-105435000D01*
X162347224Y-106480000D02*
X161837776Y-106480000D01*
%TO.C,J914*%
X123640000Y-86215000D02*
X123640000Y-80285000D01*
X126460000Y-79015000D02*
X127910000Y-79015000D01*
X126460000Y-87485000D02*
X127910000Y-87485000D01*
X127910000Y-79015000D02*
X127910000Y-80815000D01*
X127910000Y-85685000D02*
X128900000Y-85685000D01*
X127910000Y-87485000D02*
X127910000Y-85685000D01*
D15*
%TO.C,G\u002A\u002A\u002A*%
G36*
X152164441Y-129926233D02*
G01*
X152164441Y-130186040D01*
X152470097Y-130186040D01*
X152775753Y-130186040D01*
X152775753Y-129926233D01*
X152775753Y-129666426D01*
X152989712Y-129666426D01*
X153203671Y-129666426D01*
X153203671Y-130400000D01*
X153203671Y-131133574D01*
X152989712Y-131133574D01*
X152775753Y-131133574D01*
X152775753Y-130873766D01*
X152775753Y-130613959D01*
X152470097Y-130613959D01*
X152164441Y-130613959D01*
X152164441Y-130873766D01*
X152164441Y-131133574D01*
X151958123Y-131133574D01*
X151751806Y-131133574D01*
X151751806Y-130400000D01*
X151751806Y-129666426D01*
X151958123Y-129666426D01*
X152164441Y-129666426D01*
X152164441Y-129926233D01*
G37*
G36*
X151489803Y-131224039D02*
G01*
X151564547Y-131267834D01*
X151625532Y-131334994D01*
X151633055Y-131346748D01*
X151654705Y-131390247D01*
X151666717Y-131439411D01*
X151672478Y-131506623D01*
X151672731Y-131512122D01*
X151673880Y-131570217D01*
X151669082Y-131610897D01*
X151655543Y-131646246D01*
X151630469Y-131688350D01*
X151616255Y-131709216D01*
X151567807Y-131760649D01*
X151503306Y-131799000D01*
X151436776Y-131823711D01*
X151347179Y-131833924D01*
X151260908Y-131814404D01*
X151174739Y-131764813D01*
X151174302Y-131764488D01*
X151115200Y-131702415D01*
X151076357Y-131623714D01*
X151059227Y-131535814D01*
X151065263Y-131446142D01*
X151095919Y-131362128D01*
X151105768Y-131345504D01*
X151165278Y-131276776D01*
X151239038Y-131229979D01*
X151321447Y-131205398D01*
X151406902Y-131203323D01*
X151489803Y-131224039D01*
G37*
G36*
X150376355Y-130399568D02*
G01*
X150376355Y-131485078D01*
X150139630Y-131485078D01*
X149902906Y-131485078D01*
X149898926Y-130815527D01*
X149894947Y-130145976D01*
X149589291Y-130594056D01*
X149547691Y-130655030D01*
X149466959Y-130773311D01*
X149386193Y-130891584D01*
X149308843Y-131004799D01*
X149238359Y-131107908D01*
X149178192Y-131195861D01*
X149131791Y-131263607D01*
X148979946Y-131485078D01*
X148776466Y-131485078D01*
X148572985Y-131485078D01*
X148572985Y-130400000D01*
X148572985Y-129314921D01*
X148809868Y-129314921D01*
X149046752Y-129314921D01*
X149046752Y-129990000D01*
X149046752Y-130665080D01*
X149347264Y-130223063D01*
X149383377Y-130169944D01*
X149463825Y-130051587D01*
X149544821Y-129932404D01*
X149622816Y-129817613D01*
X149694264Y-129712436D01*
X149755617Y-129622093D01*
X149803330Y-129551805D01*
X149958882Y-129322563D01*
X150167618Y-129318311D01*
X150376355Y-129314059D01*
X150376355Y-130399568D01*
G37*
G36*
X144912756Y-129433083D02*
G01*
X145141998Y-129567348D01*
X145146393Y-129708584D01*
X145150787Y-129849819D01*
X145257193Y-129849819D01*
X145363599Y-129849819D01*
X145363599Y-130025571D01*
X145363599Y-130201323D01*
X145257914Y-130201323D01*
X145152230Y-130201323D01*
X145147008Y-130686552D01*
X145146893Y-130697128D01*
X145145331Y-130830700D01*
X145143693Y-130937574D01*
X145141736Y-131021358D01*
X145139218Y-131085662D01*
X145135896Y-131134096D01*
X145131526Y-131170270D01*
X145125868Y-131197794D01*
X145118677Y-131220277D01*
X145109712Y-131241330D01*
X145066468Y-131317576D01*
X144990171Y-131402083D01*
X144894799Y-131462743D01*
X144780839Y-131499174D01*
X144758206Y-131503281D01*
X144625947Y-131513234D01*
X144485310Y-131499321D01*
X144464145Y-131495666D01*
X144412808Y-131485725D01*
X144380269Y-131473459D01*
X144363860Y-131453319D01*
X144360910Y-131419755D01*
X144368751Y-131367215D01*
X144384713Y-131290151D01*
X144419747Y-131123200D01*
X144518530Y-131124566D01*
X144525176Y-131124664D01*
X144566938Y-131124942D01*
X144600174Y-131122303D01*
X144625858Y-131113675D01*
X144644963Y-131095987D01*
X144658460Y-131066166D01*
X144667322Y-131021140D01*
X144672522Y-130957837D01*
X144675032Y-130873185D01*
X144675825Y-130764113D01*
X144675873Y-130627548D01*
X144675873Y-130201323D01*
X144530687Y-130201323D01*
X144385500Y-130201323D01*
X144385500Y-130025571D01*
X144385500Y-129849819D01*
X144530342Y-129849819D01*
X144675184Y-129849819D01*
X144679349Y-129574319D01*
X144683515Y-129298819D01*
X144912756Y-129433083D01*
G37*
G36*
X144125693Y-130398927D02*
G01*
X144125693Y-131485078D01*
X143896451Y-131485078D01*
X143667209Y-131485078D01*
X143667209Y-130591034D01*
X143667209Y-129696991D01*
X143475300Y-129696991D01*
X143378399Y-129698262D01*
X143289087Y-129703734D01*
X143220007Y-129714793D01*
X143165681Y-129732797D01*
X143120629Y-129759103D01*
X143079372Y-129795069D01*
X143042317Y-129839716D01*
X142999306Y-129925532D01*
X142979361Y-130020213D01*
X142982744Y-130116848D01*
X143009720Y-130208529D01*
X143060552Y-130288345D01*
X143062107Y-130290109D01*
X143110041Y-130335738D01*
X143164531Y-130368770D01*
X143231495Y-130391208D01*
X143316848Y-130405057D01*
X143426505Y-130412320D01*
X143606078Y-130419050D01*
X143606078Y-130602485D01*
X143606078Y-130785919D01*
X143342450Y-130777771D01*
X143278020Y-130775550D01*
X143178507Y-130770401D01*
X143099472Y-130762831D01*
X143034363Y-130751555D01*
X142976628Y-130735290D01*
X142919713Y-130712750D01*
X142857068Y-130682654D01*
X142842361Y-130674906D01*
X142739069Y-130601667D01*
X142652311Y-130506011D01*
X142584103Y-130392026D01*
X142536459Y-130263795D01*
X142511396Y-130125404D01*
X142510927Y-129980939D01*
X142526325Y-129874642D01*
X142569923Y-129733668D01*
X142637893Y-129610537D01*
X142729461Y-129506273D01*
X142843857Y-129421900D01*
X142980308Y-129358441D01*
X142998543Y-129352072D01*
X143025398Y-129343787D01*
X143053864Y-129337176D01*
X143087561Y-129332003D01*
X143130108Y-129328033D01*
X143185123Y-129325031D01*
X143256227Y-129322760D01*
X143347037Y-129320987D01*
X143461174Y-129319475D01*
X143602257Y-129317990D01*
X144125693Y-129312777D01*
X144125693Y-130398927D01*
G37*
G36*
X146949684Y-129884205D02*
G01*
X146926305Y-129921898D01*
X146890077Y-129983071D01*
X146847012Y-130057838D01*
X146799308Y-130142183D01*
X146749161Y-130232091D01*
X146698767Y-130323547D01*
X146650325Y-130412537D01*
X146606030Y-130495044D01*
X146568081Y-130567055D01*
X146538673Y-130624553D01*
X146520003Y-130663525D01*
X146514269Y-130679955D01*
X146515602Y-130682759D01*
X146529327Y-130707830D01*
X146555929Y-130754745D01*
X146593428Y-130820063D01*
X146639841Y-130900341D01*
X146693186Y-130992137D01*
X146751483Y-131092010D01*
X146981411Y-131485078D01*
X146740721Y-131485078D01*
X146500031Y-131485078D01*
X146366572Y-131242376D01*
X146327591Y-131171857D01*
X146286810Y-131098914D01*
X146252373Y-131038209D01*
X146227045Y-130994607D01*
X146213588Y-130972974D01*
X146210992Y-130969215D01*
X146205519Y-130961098D01*
X146200086Y-130957185D01*
X146192800Y-130960272D01*
X146181771Y-130973155D01*
X146165105Y-130998633D01*
X146140911Y-131039500D01*
X146107297Y-131098555D01*
X146062370Y-131178594D01*
X146004238Y-131282412D01*
X145890855Y-131484741D01*
X145657793Y-131484909D01*
X145613361Y-131484786D01*
X145538694Y-131483795D01*
X145478873Y-131481974D01*
X145439139Y-131479508D01*
X145424730Y-131476587D01*
X145425588Y-131474399D01*
X145437839Y-131451539D01*
X145463116Y-131406805D01*
X145499506Y-131343510D01*
X145545096Y-131264970D01*
X145597974Y-131174500D01*
X145656226Y-131075413D01*
X145675685Y-131042349D01*
X145732452Y-130945223D01*
X145783181Y-130857440D01*
X145825954Y-130782386D01*
X145858855Y-130723446D01*
X145879964Y-130684005D01*
X145887364Y-130667448D01*
X145885515Y-130662127D01*
X145871345Y-130633537D01*
X145845035Y-130584465D01*
X145808773Y-130518891D01*
X145764745Y-130440793D01*
X145715140Y-130354151D01*
X145699154Y-130326424D01*
X145645233Y-130232803D01*
X145593581Y-130142980D01*
X145547452Y-130062623D01*
X145510099Y-129997400D01*
X145484778Y-129952978D01*
X145426281Y-129849819D01*
X145666209Y-129850059D01*
X145906138Y-129850299D01*
X145990193Y-130012300D01*
X146017594Y-130064829D01*
X146061080Y-130147336D01*
X146102963Y-130225936D01*
X146137065Y-130288987D01*
X146199882Y-130403672D01*
X146343277Y-130126745D01*
X146486673Y-129849819D01*
X146729240Y-129849819D01*
X146971807Y-129849819D01*
X146949684Y-129884205D01*
G37*
G36*
X147809008Y-129839178D02*
G01*
X147928400Y-129858715D01*
X148033305Y-129896062D01*
X148130980Y-129953941D01*
X148228681Y-130035075D01*
X148320258Y-130138570D01*
X148396073Y-130267715D01*
X148447721Y-130413498D01*
X148474558Y-130574067D01*
X148475942Y-130747567D01*
X148462192Y-130866448D01*
X148422698Y-131021826D01*
X148360760Y-131158620D01*
X148277359Y-131275541D01*
X148173476Y-131371299D01*
X148050090Y-131444604D01*
X147908184Y-131494167D01*
X147880816Y-131499851D01*
X147797799Y-131509650D01*
X147700504Y-131513745D01*
X147600018Y-131512181D01*
X147507424Y-131505002D01*
X147433807Y-131492254D01*
X147297361Y-131444876D01*
X147175418Y-131374709D01*
X147075562Y-131284325D01*
X146998784Y-131174631D01*
X146946077Y-131046533D01*
X146943629Y-131035385D01*
X146946063Y-131022369D01*
X146959234Y-131012610D01*
X146987101Y-131005186D01*
X147033625Y-130999173D01*
X147102765Y-130993647D01*
X147198480Y-130987686D01*
X147359896Y-130978196D01*
X147399969Y-131038751D01*
X147413103Y-131056696D01*
X147475377Y-131111941D01*
X147552975Y-131147523D01*
X147639568Y-131163511D01*
X147728828Y-131159972D01*
X147814427Y-131136973D01*
X147890036Y-131094583D01*
X147949327Y-131032869D01*
X147959188Y-131017897D01*
X147986701Y-130965224D01*
X148005572Y-130905562D01*
X148016819Y-130833103D01*
X148021459Y-130742039D01*
X148020511Y-130626562D01*
X148019095Y-130577447D01*
X148015957Y-130505932D01*
X148011252Y-130454641D01*
X148003903Y-130416845D01*
X147992830Y-130385818D01*
X147976956Y-130354830D01*
X147964151Y-130334682D01*
X147920695Y-130282619D01*
X147872481Y-130240209D01*
X147862652Y-130233393D01*
X147827373Y-130212044D01*
X147793327Y-130200076D01*
X147749927Y-130194839D01*
X147686583Y-130193682D01*
X147670010Y-130193724D01*
X147612052Y-130195577D01*
X147571746Y-130202088D01*
X147538581Y-130215869D01*
X147502047Y-130239530D01*
X147463476Y-130271550D01*
X147405082Y-130348975D01*
X147371693Y-130442348D01*
X147361824Y-130491696D01*
X147661749Y-130491696D01*
X147961673Y-130491696D01*
X147961673Y-130644524D01*
X147961673Y-130797352D01*
X147449700Y-130797352D01*
X146937726Y-130797352D01*
X146937726Y-130640094D01*
X146938539Y-130593137D01*
X146956302Y-130426789D01*
X146997125Y-130279286D01*
X147060776Y-130151292D01*
X147147021Y-130043472D01*
X147181328Y-130010995D01*
X147288848Y-129931516D01*
X147407518Y-129876625D01*
X147541317Y-129844805D01*
X147694225Y-129834536D01*
X147809008Y-129839178D01*
G37*
G36*
X141573587Y-129297885D02*
G01*
X141736120Y-129336434D01*
X141886349Y-129400503D01*
X142022133Y-129488733D01*
X142141333Y-129599769D01*
X142241807Y-129732253D01*
X142321417Y-129884828D01*
X142378021Y-130056137D01*
X142387000Y-130100346D01*
X142398915Y-130197903D01*
X142405423Y-130310995D01*
X142406531Y-130430498D01*
X142402245Y-130547287D01*
X142392573Y-130652236D01*
X142377520Y-130736221D01*
X142328078Y-130891206D01*
X142251255Y-131049612D01*
X142153918Y-131186845D01*
X142037240Y-131301772D01*
X141902398Y-131393263D01*
X141750567Y-131460186D01*
X141582922Y-131501408D01*
X141566845Y-131503520D01*
X141507193Y-131507695D01*
X141433870Y-131509305D01*
X141359172Y-131507987D01*
X141198196Y-131489121D01*
X141040534Y-131444086D01*
X140897504Y-131374924D01*
X140771440Y-131283347D01*
X140664678Y-131171069D01*
X140579552Y-131039803D01*
X140518399Y-130891260D01*
X140511952Y-130870614D01*
X140495863Y-130817889D01*
X140488776Y-130781080D01*
X140494283Y-130757344D01*
X140515973Y-130743835D01*
X140557436Y-130737708D01*
X140622263Y-130736119D01*
X140714043Y-130736221D01*
X140939698Y-130736221D01*
X140967429Y-130814300D01*
X140979018Y-130842748D01*
X141033451Y-130930053D01*
X141108223Y-131004957D01*
X141195568Y-131059123D01*
X141232502Y-131074145D01*
X141280388Y-131086968D01*
X141336924Y-131093298D01*
X141412997Y-131094929D01*
X141459510Y-131094543D01*
X141514587Y-131091574D01*
X141556900Y-131083589D01*
X141597329Y-131068167D01*
X141646756Y-131042885D01*
X141732075Y-130984914D01*
X141816383Y-130894056D01*
X141881115Y-130780339D01*
X141925737Y-130644524D01*
X141934185Y-130596040D01*
X141941798Y-130510646D01*
X141944727Y-130413370D01*
X141942977Y-130314734D01*
X141936554Y-130225262D01*
X141925465Y-130155475D01*
X141909638Y-130100184D01*
X141868667Y-129999983D01*
X141816575Y-129908530D01*
X141759058Y-129836735D01*
X141716949Y-129799391D01*
X141623812Y-129742472D01*
X141522639Y-129708606D01*
X141417785Y-129696751D01*
X141313603Y-129705861D01*
X141214447Y-129734895D01*
X141124672Y-129782808D01*
X141048630Y-129848558D01*
X140990676Y-129931100D01*
X140955164Y-130029392D01*
X140944443Y-130079061D01*
X140714681Y-130079061D01*
X140484918Y-130079061D01*
X140495318Y-130009705D01*
X140523658Y-129886129D01*
X140582758Y-129745040D01*
X140666293Y-129618557D01*
X140771852Y-129509096D01*
X140897024Y-129419072D01*
X141039397Y-129350902D01*
X141196562Y-129307002D01*
X141220169Y-129302774D01*
X141400890Y-129286213D01*
X141573587Y-129297885D01*
G37*
G36*
X140320278Y-130401158D02*
G01*
X140320278Y-131487395D01*
X139758635Y-131481423D01*
X139630097Y-131479945D01*
X139503272Y-131478102D01*
X139400872Y-131475996D01*
X139319567Y-131473457D01*
X139256028Y-131470313D01*
X139206925Y-131466393D01*
X139168929Y-131461527D01*
X139138709Y-131455543D01*
X139112937Y-131448270D01*
X138992885Y-131399636D01*
X138878270Y-131327040D01*
X138787569Y-131235963D01*
X138720204Y-131125932D01*
X138707033Y-131096631D01*
X138691448Y-131053839D01*
X138682470Y-131010331D01*
X138678361Y-130956167D01*
X138677377Y-130881407D01*
X138678438Y-130836579D01*
X139143503Y-130836579D01*
X139143602Y-130844620D01*
X139159281Y-130931338D01*
X139200525Y-131002313D01*
X139265620Y-131055486D01*
X139352857Y-131088793D01*
X139361868Y-131090479D01*
X139406602Y-131095161D01*
X139472144Y-131098987D01*
X139551174Y-131101600D01*
X139636373Y-131102643D01*
X139861794Y-131103008D01*
X139861794Y-130400000D01*
X139861794Y-129696991D01*
X139637377Y-129696991D01*
X139619819Y-129697023D01*
X139513180Y-129699328D01*
X139431325Y-129706315D01*
X139369328Y-129719436D01*
X139322261Y-129740140D01*
X139285198Y-129769879D01*
X139253211Y-129810103D01*
X139228262Y-129866724D01*
X139217064Y-129940578D01*
X139222365Y-130015311D01*
X139244585Y-130077898D01*
X139254948Y-130094366D01*
X139296764Y-130142697D01*
X139350423Y-130177464D01*
X139420399Y-130200291D01*
X139511164Y-130212798D01*
X139627191Y-130216606D01*
X139800663Y-130216606D01*
X139800663Y-130377075D01*
X139800663Y-130537545D01*
X139605807Y-130537630D01*
X139532224Y-130538308D01*
X139443788Y-130542315D01*
X139376150Y-130551047D01*
X139323523Y-130565782D01*
X139280117Y-130587799D01*
X139240146Y-130618374D01*
X139191126Y-130671681D01*
X139154976Y-130746492D01*
X139143503Y-130836579D01*
X138678438Y-130836579D01*
X138678987Y-130813371D01*
X138689492Y-130724799D01*
X138712546Y-130651381D01*
X138751337Y-130584233D01*
X138809053Y-130514468D01*
X138868028Y-130458858D01*
X138962629Y-130399934D01*
X139074730Y-130362859D01*
X139151144Y-130345773D01*
X139058748Y-130312072D01*
X139055108Y-130310731D01*
X138947034Y-130255730D01*
X138860741Y-130179492D01*
X138796767Y-130082488D01*
X138776464Y-130037692D01*
X138762410Y-129992058D01*
X138756248Y-129941290D01*
X138755488Y-129872743D01*
X138755731Y-129861284D01*
X138772573Y-129730115D01*
X138814749Y-129615855D01*
X138881810Y-129519012D01*
X138973308Y-129440093D01*
X139088795Y-129379606D01*
X139227825Y-129338056D01*
X139258291Y-129332611D01*
X139307322Y-129326832D01*
X139370234Y-129322372D01*
X139450364Y-129319105D01*
X139551046Y-129316903D01*
X139675615Y-129315639D01*
X139827407Y-129315187D01*
X140320278Y-129314921D01*
X140320278Y-130400000D01*
X140320278Y-130401158D01*
G37*
G36*
X152531934Y-128963421D02*
G01*
X152706331Y-128963499D01*
X152853689Y-128963747D01*
X152976660Y-128964251D01*
X153077896Y-128965097D01*
X153160049Y-128966372D01*
X153225771Y-128968162D01*
X153277713Y-128970554D01*
X153318528Y-128973634D01*
X153350866Y-128977488D01*
X153377381Y-128982203D01*
X153400724Y-128987865D01*
X153423546Y-128994561D01*
X153502150Y-129025608D01*
X153614100Y-129094369D01*
X153713629Y-129185076D01*
X153795535Y-129292688D01*
X153854613Y-129412166D01*
X153857967Y-129421542D01*
X153863568Y-129440010D01*
X153868296Y-129461642D01*
X153872226Y-129488929D01*
X153875429Y-129524362D01*
X153877981Y-129570431D01*
X153879954Y-129629629D01*
X153881422Y-129704445D01*
X153882458Y-129797371D01*
X153883136Y-129910899D01*
X153883529Y-130047519D01*
X153883711Y-130209722D01*
X153883755Y-130400000D01*
X153883744Y-130504687D01*
X153883636Y-130679746D01*
X153883351Y-130828054D01*
X153882816Y-130952102D01*
X153881957Y-131054380D01*
X153880701Y-131137379D01*
X153878974Y-131203591D01*
X153876703Y-131255508D01*
X153873814Y-131295618D01*
X153870234Y-131326415D01*
X153865890Y-131350389D01*
X153860707Y-131370032D01*
X153854613Y-131387833D01*
X153816149Y-131471686D01*
X153741766Y-131581771D01*
X153648743Y-131677566D01*
X153542597Y-131753669D01*
X153428844Y-131804680D01*
X153408272Y-131810829D01*
X153385066Y-131816481D01*
X153358244Y-131821182D01*
X153325111Y-131825024D01*
X153282972Y-131828097D01*
X153229132Y-131830492D01*
X153160897Y-131832300D01*
X153075571Y-131833612D01*
X152970459Y-131834520D01*
X152842867Y-131835113D01*
X152690099Y-131835484D01*
X152509461Y-131835724D01*
X151685347Y-131836582D01*
X151716789Y-131802196D01*
X151738044Y-131776815D01*
X151775678Y-131712402D01*
X151798715Y-131634457D01*
X151809878Y-131535164D01*
X151816726Y-131409497D01*
X152562582Y-131405260D01*
X152704869Y-131404431D01*
X152851965Y-131403457D01*
X152973374Y-131402403D01*
X153071771Y-131401146D01*
X153149832Y-131399563D01*
X153210232Y-131397532D01*
X153255646Y-131394930D01*
X153288751Y-131391633D01*
X153312220Y-131387520D01*
X153328729Y-131382467D01*
X153340955Y-131376352D01*
X153351572Y-131369052D01*
X153355090Y-131366366D01*
X153394171Y-131329452D01*
X153429092Y-131286557D01*
X153463478Y-131236033D01*
X153463478Y-130400000D01*
X153463478Y-129563966D01*
X153429092Y-129513442D01*
X153426239Y-129509348D01*
X153390089Y-129466208D01*
X153351558Y-129430947D01*
X153345182Y-129426369D01*
X153334642Y-129420160D01*
X153321118Y-129414968D01*
X153302101Y-129410702D01*
X153275086Y-129407271D01*
X153237563Y-129404584D01*
X153187026Y-129402551D01*
X153120968Y-129401080D01*
X153036881Y-129400080D01*
X152932257Y-129399461D01*
X152804591Y-129399131D01*
X152651373Y-129399000D01*
X152470097Y-129398977D01*
X152360797Y-129398983D01*
X152196154Y-129399064D01*
X152058111Y-129399308D01*
X151944163Y-129399805D01*
X151851804Y-129400646D01*
X151778531Y-129401920D01*
X151721837Y-129403716D01*
X151679219Y-129406125D01*
X151648170Y-129409235D01*
X151626187Y-129413137D01*
X151610765Y-129417919D01*
X151599397Y-129423673D01*
X151589581Y-129430487D01*
X151552267Y-129463393D01*
X151515867Y-129504187D01*
X151509530Y-129513274D01*
X151503406Y-129525085D01*
X151498327Y-129541002D01*
X151494173Y-129563670D01*
X151490828Y-129595736D01*
X151488173Y-129639845D01*
X151486091Y-129698644D01*
X151484462Y-129774778D01*
X151483170Y-129870894D01*
X151482096Y-129989637D01*
X151481122Y-130133653D01*
X151480130Y-130305589D01*
X151475903Y-131064801D01*
X151373151Y-131064857D01*
X151276551Y-131072251D01*
X151192773Y-131097427D01*
X151114769Y-131143657D01*
X151105048Y-131150672D01*
X151073972Y-131171175D01*
X151056849Y-131179422D01*
X151055770Y-131173348D01*
X151054277Y-131140503D01*
X151053044Y-131081598D01*
X151052088Y-130999385D01*
X151051425Y-130896617D01*
X151051069Y-130776047D01*
X151051037Y-130640427D01*
X151051345Y-130492510D01*
X151052009Y-130335048D01*
X151052809Y-130184466D01*
X151053739Y-130025499D01*
X151054716Y-129892340D01*
X151055852Y-129782368D01*
X151057258Y-129692962D01*
X151059045Y-129621504D01*
X151061325Y-129565371D01*
X151064210Y-129521945D01*
X151067809Y-129488603D01*
X151072236Y-129462727D01*
X151077601Y-129441696D01*
X151084015Y-129422889D01*
X151091591Y-129403686D01*
X151108717Y-129364736D01*
X151182732Y-129242344D01*
X151278472Y-129137381D01*
X151391895Y-129053711D01*
X151518959Y-128995197D01*
X151529085Y-128991842D01*
X151550161Y-128985525D01*
X151572861Y-128980220D01*
X151599815Y-128975838D01*
X151633656Y-128972291D01*
X151677014Y-128969492D01*
X151732520Y-128967352D01*
X151802805Y-128965782D01*
X151890500Y-128964696D01*
X151998237Y-128964004D01*
X152128646Y-128963619D01*
X152284358Y-128963453D01*
X152468005Y-128963417D01*
X152531934Y-128963421D01*
G37*
%TO.C,C209*%
D13*
X129640000Y-114551248D02*
X129640000Y-115973752D01*
X131460000Y-114551248D02*
X131460000Y-115973752D01*
%TO.C,R901*%
X170345276Y-79377500D02*
X170854724Y-79377500D01*
X170345276Y-80422500D02*
X170854724Y-80422500D01*
%TO.C,R314*%
X145632776Y-82227500D02*
X146142224Y-82227500D01*
X145632776Y-83272500D02*
X146142224Y-83272500D01*
%TO.C,C205*%
X137665000Y-119311252D02*
X137665000Y-118788748D01*
X139135000Y-119311252D02*
X139135000Y-118788748D01*
%TO.C,R910*%
X162347224Y-111035000D02*
X161837776Y-111035000D01*
X162347224Y-112080000D02*
X161837776Y-112080000D01*
%TO.C,C904*%
X135590000Y-85203733D02*
X135590000Y-85496267D01*
X136610000Y-85203733D02*
X136610000Y-85496267D01*
%TO.C,C207*%
X123940000Y-114588748D02*
X123940000Y-116011252D01*
X125760000Y-114588748D02*
X125760000Y-116011252D01*
%TO.C,G*%
X149600000Y-77050000D02*
G75*
G02*
X148200000Y-77050000I-700000J0D01*
G01*
X148200000Y-77050000D02*
G75*
G02*
X149600000Y-77050000I700000J0D01*
G01*
%TO.C,R915*%
X162442224Y-125127500D02*
X161932776Y-125127500D01*
X162442224Y-126172500D02*
X161932776Y-126172500D01*
%TO.C,R316*%
X150745276Y-104527500D02*
X151254724Y-104527500D01*
X150745276Y-105572500D02*
X151254724Y-105572500D01*
%TO.C,C202*%
X124390000Y-121873752D02*
X124390000Y-120451248D01*
X127110000Y-121873752D02*
X127110000Y-120451248D01*
%TO.C,D204*%
X129710000Y-125900000D02*
X127050000Y-125900000D01*
X129710000Y-125900000D02*
X129710000Y-127600000D01*
X129710000Y-127600000D02*
X127050000Y-127600000D01*
%TO.C,D901*%
X156960517Y-85887401D02*
X158841421Y-84006497D01*
X158162599Y-87089483D02*
X156960517Y-85887401D01*
X158162599Y-87089483D02*
X160043503Y-85208579D01*
%TO.C,L201*%
X136590000Y-119130000D02*
X132610000Y-119130000D01*
X136590000Y-123370000D02*
X132610000Y-123370000D01*
%TO.C,R312*%
X145632776Y-80327500D02*
X146142224Y-80327500D01*
X145632776Y-81372500D02*
X146142224Y-81372500D01*
%TO.C,R902*%
X166554724Y-79427500D02*
X166045276Y-79427500D01*
X166554724Y-80472500D02*
X166045276Y-80472500D01*
%TO.C,R906*%
X162334724Y-99835000D02*
X161825276Y-99835000D01*
X162334724Y-100880000D02*
X161825276Y-100880000D01*
%TO.C,R913*%
X162534724Y-119535000D02*
X162025276Y-119535000D01*
X162534724Y-120580000D02*
X162025276Y-120580000D01*
%TO.C,J302*%
X156765000Y-73710000D02*
X156765000Y-75160000D01*
X156765000Y-75160000D02*
X158565000Y-75160000D01*
X158035000Y-70890000D02*
X163965000Y-70890000D01*
X158565000Y-75160000D02*
X158565000Y-76150000D01*
X165235000Y-73710000D02*
X165235000Y-75160000D01*
X165235000Y-75160000D02*
X163435000Y-75160000D01*
%TO.C,R911*%
X162434724Y-113735000D02*
X161925276Y-113735000D01*
X162434724Y-114780000D02*
X161925276Y-114780000D01*
%TO.C,R907*%
X162347224Y-102627500D02*
X161837776Y-102627500D01*
X162347224Y-103672500D02*
X161837776Y-103672500D01*
%TO.C,C903*%
X132138748Y-85715000D02*
X132661252Y-85715000D01*
X132138748Y-87185000D02*
X132661252Y-87185000D01*
%TO.C,R914*%
X162454724Y-122427500D02*
X161945276Y-122427500D01*
X162454724Y-123472500D02*
X161945276Y-123472500D01*
%TO.C,R903*%
X135454724Y-82127500D02*
X134945276Y-82127500D01*
X135454724Y-83172500D02*
X134945276Y-83172500D01*
%TO.C,J803*%
X140540000Y-73760000D02*
X140540000Y-75210000D01*
X140540000Y-75210000D02*
X142340000Y-75210000D01*
X141810000Y-70940000D02*
X147740000Y-70940000D01*
X142340000Y-75210000D02*
X142340000Y-76200000D01*
X149010000Y-73760000D02*
X149010000Y-75210000D01*
X149010000Y-75210000D02*
X147210000Y-75210000D01*
%TO.C,C803*%
X140365000Y-78688747D02*
X140365000Y-79211253D01*
X141835000Y-78688747D02*
X141835000Y-79211253D01*
%TD*%
M02*
