%TF.GenerationSoftware,KiCad,Pcbnew,10.0.5*%
%TF.CreationDate,2026-08-18T20:05:55+05:30*%
%TF.ProjectId,FeroFlyF405,4665726f-466c-4794-9634-30352e6b6963,1*%
%TF.SameCoordinates,Original*%
%TF.FileFunction,Paste,Top*%
%TF.FilePolarity,Positive*%
%FSLAX46Y46*%
G04 Gerber Fmt 4.6, Leading zero omitted, Abs format (unit mm)*
G04 Created by KiCad (PCBNEW 10.0.5) date 2026-08-18 20:05:55*
%MOMM*%
%LPD*%
G01*
G04 APERTURE LIST*
G04 Aperture macros list*
%AMRoundRect*
0 Rectangle with rounded corners*
0 $1 Rounding radius*
0 $2 $3 $4 $5 $6 $7 $8 $9 X,Y pos of 4 corners*
0 Add a 4 corners polygon primitive as box body*
4,1,4,$2,$3,$4,$5,$6,$7,$8,$9,$2,$3,0*
0 Add four circle primitives for the rounded corners*
1,1,$1+$1,$2,$3*
1,1,$1+$1,$4,$5*
1,1,$1+$1,$6,$7*
1,1,$1+$1,$8,$9*
0 Add four rect primitives between the rounded corners*
20,1,$1+$1,$2,$3,$4,$5,0*
20,1,$1+$1,$4,$5,$6,$7,0*
20,1,$1+$1,$6,$7,$8,$9,0*
20,1,$1+$1,$8,$9,$2,$3,0*%
G04 Aperture macros list end*
%ADD10RoundRect,0.237500X0.237500X-0.287500X0.237500X0.287500X-0.237500X0.287500X-0.237500X-0.287500X0*%
%ADD11RoundRect,0.237500X-0.237500X0.250000X-0.237500X-0.250000X0.237500X-0.250000X0.237500X0.250000X0*%
%ADD12RoundRect,0.093750X0.044194X0.176777X-0.176777X-0.044194X-0.044194X-0.176777X0.176777X0.044194X0*%
%ADD13RoundRect,0.075000X0.123744X0.229810X-0.229810X-0.123744X-0.123744X-0.229810X0.229810X0.123744X0*%
%ADD14R,0.350000X0.500000*%
%ADD15RoundRect,0.237500X0.237500X-0.300000X0.237500X0.300000X-0.237500X0.300000X-0.237500X-0.300000X0*%
%ADD16RoundRect,0.237500X-0.300000X-0.237500X0.300000X-0.237500X0.300000X0.237500X-0.300000X0.237500X0*%
%ADD17RoundRect,0.237500X0.237500X-0.250000X0.237500X0.250000X-0.237500X0.250000X-0.237500X-0.250000X0*%
%ADD18RoundRect,0.150000X0.150000X0.700000X-0.150000X0.700000X-0.150000X-0.700000X0.150000X-0.700000X0*%
%ADD19RoundRect,0.250000X0.250000X1.100000X-0.250000X1.100000X-0.250000X-1.100000X0.250000X-1.100000X0*%
%ADD20RoundRect,0.237500X0.300000X0.237500X-0.300000X0.237500X-0.300000X-0.237500X0.300000X-0.237500X0*%
%ADD21R,1.075000X0.600000*%
%ADD22R,1.140000X0.300000*%
%ADD23RoundRect,0.160000X0.245000X0.160000X-0.245000X0.160000X-0.245000X-0.160000X0.245000X-0.160000X0*%
%ADD24RoundRect,0.093750X0.093750X0.106250X-0.093750X0.106250X-0.093750X-0.106250X0.093750X-0.106250X0*%
%ADD25RoundRect,0.150000X-0.150000X0.825000X-0.150000X-0.825000X0.150000X-0.825000X0.150000X0.825000X0*%
%ADD26RoundRect,0.237500X0.380070X-0.044194X-0.044194X0.380070X-0.380070X0.044194X0.044194X-0.380070X0*%
%ADD27RoundRect,0.250000X0.475000X-0.337500X0.475000X0.337500X-0.475000X0.337500X-0.475000X-0.337500X0*%
%ADD28RoundRect,0.250000X-0.337500X-0.475000X0.337500X-0.475000X0.337500X0.475000X-0.337500X0.475000X0*%
%ADD29RoundRect,0.250000X-0.475000X0.337500X-0.475000X-0.337500X0.475000X-0.337500X0.475000X0.337500X0*%
%ADD30RoundRect,0.237500X-0.237500X0.300000X-0.237500X-0.300000X0.237500X-0.300000X0.237500X0.300000X0*%
%ADD31RoundRect,0.250000X0.337500X0.475000X-0.337500X0.475000X-0.337500X-0.475000X0.337500X-0.475000X0*%
%ADD32RoundRect,0.075000X-0.700000X-0.075000X0.700000X-0.075000X0.700000X0.075000X-0.700000X0.075000X0*%
%ADD33RoundRect,0.075000X-0.075000X-0.700000X0.075000X-0.700000X0.075000X0.700000X-0.075000X0.700000X0*%
%ADD34R,0.900000X1.000000*%
%ADD35RoundRect,0.087500X-0.225000X-0.087500X0.225000X-0.087500X0.225000X0.087500X-0.225000X0.087500X0*%
%ADD36RoundRect,0.087500X-0.087500X-0.225000X0.087500X-0.225000X0.087500X0.225000X-0.087500X0.225000X0*%
%ADD37RoundRect,0.150000X-0.309359X-0.521491X0.521491X0.309359X0.309359X0.521491X-0.521491X-0.309359X0*%
%ADD38RoundRect,0.237500X-0.250000X-0.237500X0.250000X-0.237500X0.250000X0.237500X-0.250000X0.237500X0*%
%ADD39RoundRect,0.250000X0.097227X-0.574524X0.574524X-0.097227X-0.097227X0.574524X-0.574524X0.097227X0*%
%ADD40RoundRect,0.237500X-0.237500X0.287500X-0.237500X-0.287500X0.237500X-0.287500X0.237500X0.287500X0*%
%ADD41RoundRect,0.237500X-0.044194X-0.380070X0.380070X0.044194X0.044194X0.380070X-0.380070X-0.044194X0*%
%ADD42RoundRect,0.125000X-0.125000X0.125000X-0.125000X-0.125000X0.125000X-0.125000X0.125000X0.125000X0*%
%ADD43RoundRect,0.250000X0.350000X-0.450000X0.350000X0.450000X-0.350000X0.450000X-0.350000X-0.450000X0*%
%ADD44RoundRect,0.150000X-0.150000X-0.700000X0.150000X-0.700000X0.150000X0.700000X-0.150000X0.700000X0*%
%ADD45RoundRect,0.250000X-0.250000X-1.100000X0.250000X-1.100000X0.250000X1.100000X-0.250000X1.100000X0*%
%ADD46RoundRect,0.250000X0.400000X0.625000X-0.400000X0.625000X-0.400000X-0.625000X0.400000X-0.625000X0*%
G04 APERTURE END LIST*
D10*
%TO.C,D602*%
X168100000Y-117050000D03*
X168100000Y-115300000D03*
%TD*%
D11*
%TO.C,R206*%
X132600000Y-90787500D03*
X132600000Y-92612500D03*
%TD*%
D12*
%TO.C,U901*%
X166071111Y-71579029D03*
D13*
X165744074Y-71145926D03*
D12*
X165310971Y-70818889D03*
X164108889Y-72020971D03*
D13*
X164435926Y-72454074D03*
D12*
X164869029Y-72781111D03*
%TD*%
D14*
%TO.C,U502*%
X139625000Y-86900000D03*
X140275000Y-86900000D03*
X140925000Y-86900000D03*
X141575000Y-86900000D03*
X141575000Y-88500000D03*
X140925000Y-88500000D03*
X140275000Y-88500000D03*
X139625000Y-88500000D03*
%TD*%
D15*
%TO.C,C301*%
X137300000Y-69962500D03*
X137300000Y-68237500D03*
%TD*%
D16*
%TO.C,R308*%
X139737500Y-83000000D03*
X141462500Y-83000000D03*
%TD*%
D17*
%TO.C,R201*%
X141700000Y-116612500D03*
X141700000Y-114787500D03*
%TD*%
D15*
%TO.C,C314*%
X140600000Y-80762500D03*
X140600000Y-79037500D03*
%TD*%
%TO.C,R604*%
X156700000Y-101800000D03*
X156700000Y-100075000D03*
%TD*%
D18*
%TO.C,J802*%
X167875000Y-59100000D03*
X166625000Y-59100000D03*
X165375000Y-59100000D03*
X164125000Y-59100000D03*
D19*
X169725000Y-55900000D03*
X162275000Y-55900000D03*
%TD*%
D20*
%TO.C,C312*%
X148262500Y-86100000D03*
X146537500Y-86100000D03*
%TD*%
D21*
%TO.C,J913*%
X170137500Y-73500000D03*
X170137500Y-72700000D03*
D22*
X170250000Y-71550000D03*
X170250000Y-70550000D03*
X170250000Y-70050000D03*
X170250000Y-69050000D03*
D21*
X170137500Y-67100000D03*
X170137500Y-67900000D03*
D22*
X170250000Y-68550000D03*
X170250000Y-69550000D03*
X170250000Y-71050000D03*
X170250000Y-72050000D03*
%TD*%
D15*
%TO.C,C313*%
X142500000Y-80762500D03*
X142500000Y-79037500D03*
%TD*%
D23*
%TO.C,U202*%
X138812500Y-110250000D03*
X138812500Y-109450000D03*
D24*
X139700000Y-110500000D03*
X139700000Y-109850000D03*
X139700000Y-109200000D03*
X137925000Y-109200000D03*
X137925000Y-109850000D03*
X137925000Y-110500000D03*
%TD*%
D18*
%TO.C,J804*%
X141887500Y-59050000D03*
X140637500Y-59050000D03*
X139387500Y-59050000D03*
X138137500Y-59050000D03*
D19*
X143737500Y-55850000D03*
X136287500Y-55850000D03*
%TD*%
D15*
%TO.C,R205*%
X134700000Y-92562500D03*
X134700000Y-90837500D03*
%TD*%
D25*
%TO.C,U601*%
X161705000Y-104125000D03*
X160435000Y-104125000D03*
X159165000Y-104125000D03*
X157895000Y-104125000D03*
X157895000Y-109075000D03*
X159165000Y-109075000D03*
X160435000Y-109075000D03*
X161705000Y-109075000D03*
%TD*%
D16*
%TO.C,C501*%
X149837500Y-100600000D03*
X151562500Y-100600000D03*
%TD*%
D26*
%TO.C,C308*%
X157909880Y-72809880D03*
X156690120Y-71590120D03*
%TD*%
D27*
%TO.C,C602*%
X148000000Y-112537500D03*
X148000000Y-110462500D03*
%TD*%
D10*
%TO.C,D601*%
X163900000Y-117020000D03*
X163900000Y-115270000D03*
%TD*%
D28*
%TO.C,C306*%
X146062500Y-67700000D03*
X148137500Y-67700000D03*
%TD*%
D15*
%TO.C,C302*%
X137300000Y-65062500D03*
X137300000Y-63337500D03*
%TD*%
D29*
%TO.C,C801*%
X159800000Y-61700000D03*
X159800000Y-63775000D03*
%TD*%
D30*
%TO.C,C304*%
X135950000Y-74037500D03*
X135950000Y-75762500D03*
%TD*%
D15*
%TO.C,C203*%
X141400000Y-110662500D03*
X141400000Y-108937500D03*
%TD*%
D16*
%TO.C,C305*%
X132237500Y-79300000D03*
X133962500Y-79300000D03*
%TD*%
D17*
%TO.C,R504*%
X143275000Y-88612500D03*
X143275000Y-86787500D03*
%TD*%
D16*
%TO.C,C307*%
X154937500Y-86000000D03*
X156662500Y-86000000D03*
%TD*%
D31*
%TO.C,C303*%
X148237500Y-88200000D03*
X146162500Y-88200000D03*
%TD*%
D32*
%TO.C,U301*%
X145025000Y-74250000D03*
X145025000Y-74750000D03*
X145025000Y-75250000D03*
X145025000Y-75750000D03*
X145025000Y-76250000D03*
X145025000Y-76750000D03*
X145025000Y-77250000D03*
X145025000Y-77750000D03*
X145025000Y-78250000D03*
X145025000Y-78750000D03*
X145025000Y-79250000D03*
X145025000Y-79750000D03*
X145025000Y-80250000D03*
X145025000Y-80750000D03*
X145025000Y-81250000D03*
X145025000Y-81750000D03*
D33*
X146950000Y-83675000D03*
X147450000Y-83675000D03*
X147950000Y-83675000D03*
X148450000Y-83675000D03*
X148950000Y-83675000D03*
X149450000Y-83675000D03*
X149950000Y-83675000D03*
X150450000Y-83675000D03*
X150950000Y-83675000D03*
X151450000Y-83675000D03*
X151950000Y-83675000D03*
X152450000Y-83675000D03*
X152950000Y-83675000D03*
X153450000Y-83675000D03*
X153950000Y-83675000D03*
X154450000Y-83675000D03*
D32*
X156375000Y-81750000D03*
X156375000Y-81250000D03*
X156375000Y-80750000D03*
X156375000Y-80250000D03*
X156375000Y-79750000D03*
X156375000Y-79250000D03*
X156375000Y-78750000D03*
X156375000Y-78250000D03*
X156375000Y-77750000D03*
X156375000Y-77250000D03*
X156375000Y-76750000D03*
X156375000Y-76250000D03*
X156375000Y-75750000D03*
X156375000Y-75250000D03*
X156375000Y-74750000D03*
X156375000Y-74250000D03*
D33*
X154450000Y-72325000D03*
X153950000Y-72325000D03*
X153450000Y-72325000D03*
X152950000Y-72325000D03*
X152450000Y-72325000D03*
X151950000Y-72325000D03*
X151450000Y-72325000D03*
X150950000Y-72325000D03*
X150450000Y-72325000D03*
X149950000Y-72325000D03*
X149450000Y-72325000D03*
X148950000Y-72325000D03*
X148450000Y-72325000D03*
X147950000Y-72325000D03*
X147450000Y-72325000D03*
X146950000Y-72325000D03*
%TD*%
D34*
%TO.C,SW302*%
X133400000Y-65075000D03*
X129300000Y-65075000D03*
X133400000Y-63475000D03*
X129300000Y-63475000D03*
%TD*%
D11*
%TO.C,R602*%
X170100000Y-115287500D03*
X170100000Y-117112500D03*
%TD*%
D15*
%TO.C,C504*%
X137975000Y-88562501D03*
X137975000Y-86837499D03*
%TD*%
D30*
%TO.C,C210*%
X136800000Y-90837500D03*
X136800000Y-92562500D03*
%TD*%
D18*
%TO.C,J801*%
X157925000Y-59100000D03*
X156675000Y-59100000D03*
X155425000Y-59100000D03*
X154175000Y-59100000D03*
X152925000Y-59100000D03*
X151675000Y-59100000D03*
D19*
X159775000Y-55900000D03*
X149825000Y-55900000D03*
%TD*%
D35*
%TO.C,U501*%
X149637500Y-97150000D03*
X149637500Y-97650000D03*
X149637500Y-98150000D03*
X149637500Y-98650000D03*
D36*
X150300000Y-98812500D03*
X150800000Y-98812500D03*
X151300000Y-98812500D03*
D35*
X151962500Y-98650000D03*
X151962500Y-98150000D03*
X151962500Y-97650000D03*
X151962500Y-97150000D03*
D36*
X151300000Y-96987500D03*
X150800000Y-96987500D03*
X150300000Y-96987500D03*
%TD*%
D15*
%TO.C,R310*%
X152400000Y-88362500D03*
X152400000Y-86637500D03*
%TD*%
D37*
%TO.C,D603*%
X152265336Y-108241161D03*
X153608839Y-109584664D03*
X154262913Y-107587087D03*
%TD*%
D38*
%TO.C,R503*%
X139662500Y-85200000D03*
X141487500Y-85200000D03*
%TD*%
D28*
%TO.C,C309*%
X154362500Y-88800000D03*
X156437500Y-88800000D03*
%TD*%
D16*
%TO.C,C601*%
X158837499Y-101754940D03*
X160562501Y-101754940D03*
%TD*%
D15*
%TO.C,R315*%
X159700000Y-85562500D03*
X159700000Y-83837500D03*
%TD*%
D10*
%TO.C,D201*%
X144000000Y-116575000D03*
X144000000Y-114825000D03*
%TD*%
D20*
%TO.C,C503*%
X141437501Y-90100000D03*
X139712499Y-90100000D03*
%TD*%
D15*
%TO.C,R301*%
X135400000Y-69962500D03*
X135400000Y-68237500D03*
%TD*%
D39*
%TO.C,C310*%
X159766377Y-73933623D03*
X161233623Y-72466377D03*
%TD*%
D11*
%TO.C,R601*%
X165900000Y-115262500D03*
X165900000Y-117087500D03*
%TD*%
D16*
%TO.C,C603*%
X158837499Y-100000000D03*
X160562501Y-100000000D03*
%TD*%
D17*
%TO.C,R603*%
X163800000Y-108312500D03*
X163800000Y-106487500D03*
%TD*%
D38*
%TO.C,R311*%
X149687500Y-64200000D03*
X151512500Y-64200000D03*
%TD*%
D30*
%TO.C,C502*%
X153600000Y-98837500D03*
X153600000Y-100562500D03*
%TD*%
D16*
%TO.C,C204*%
X137982500Y-112250000D03*
X139707500Y-112250000D03*
%TD*%
D40*
%TO.C,D202*%
X136900000Y-114825000D03*
X136900000Y-116575000D03*
%TD*%
D41*
%TO.C,R307*%
X153490120Y-67909880D03*
X154709880Y-66690120D03*
%TD*%
D17*
%TO.C,R204*%
X139350000Y-116612500D03*
X139350000Y-114787500D03*
%TD*%
%TO.C,R304*%
X139100000Y-65112500D03*
X139100000Y-63287500D03*
%TD*%
D42*
%TO.C,D203*%
X132450000Y-94912500D03*
X132450000Y-97112500D03*
%TD*%
D43*
%TO.C,Y301*%
X133950000Y-77300000D03*
X133950000Y-75100000D03*
X132250000Y-75100000D03*
X132250000Y-77300000D03*
%TD*%
D34*
%TO.C,SW301*%
X133450000Y-69900000D03*
X129350000Y-69900000D03*
X133450000Y-68300000D03*
X129350000Y-68300000D03*
%TD*%
D15*
%TO.C,R302*%
X135400000Y-65050000D03*
X135400000Y-63325000D03*
%TD*%
D16*
%TO.C,C311*%
X146237500Y-69900000D03*
X147962500Y-69900000D03*
%TD*%
D11*
%TO.C,R303*%
X139200000Y-68187500D03*
X139200000Y-70012500D03*
%TD*%
D41*
%TO.C,R306*%
X155390120Y-70109880D03*
X156609880Y-68890120D03*
%TD*%
D29*
%TO.C,C804*%
X143600000Y-61712500D03*
X143600000Y-63787500D03*
%TD*%
D44*
%TO.C,J601*%
X150025000Y-113900000D03*
X151275000Y-113900000D03*
X152525000Y-113900000D03*
X153775000Y-113900000D03*
D45*
X148175000Y-117100000D03*
X155625000Y-117100000D03*
%TD*%
D15*
%TO.C,R501*%
X147600000Y-96962500D03*
X147600000Y-95237500D03*
%TD*%
D17*
%TO.C,R502*%
X153700000Y-97012500D03*
X153700000Y-95187500D03*
%TD*%
D27*
%TO.C,C201*%
X143600000Y-110737500D03*
X143600000Y-108662500D03*
%TD*%
D46*
%TO.C,R605*%
X161550001Y-111800000D03*
X158449999Y-111800000D03*
%TD*%
D38*
%TO.C,R313*%
X149687500Y-62300000D03*
X151512500Y-62300000D03*
%TD*%
D15*
%TO.C,R309*%
X150200000Y-88362500D03*
X150200000Y-86637500D03*
%TD*%
D30*
%TO.C,R305*%
X135950000Y-77537500D03*
X135950000Y-79262500D03*
%TD*%
D29*
%TO.C,C802*%
X170200000Y-61262500D03*
X170200000Y-63337500D03*
%TD*%
M02*
