%TF.GenerationSoftware,KiCad,Pcbnew,10.0.5*%
%TF.CreationDate,2026-08-18T20:05:55+05:30*%
%TF.ProjectId,FeroFlyF405,4665726f-466c-4794-9634-30352e6b6963,1*%
%TF.SameCoordinates,Original*%
%TF.FileFunction,Copper,L4,Bot*%
%TF.FilePolarity,Positive*%
%FSLAX46Y46*%
G04 Gerber Fmt 4.6, Leading zero omitted, Abs format (unit mm)*
G04 Created by KiCad (PCBNEW 10.0.5) date 2026-08-18 20:05:55*
%MOMM*%
%LPD*%
G01*
G04 APERTURE LIST*
G04 Aperture macros list*
%AMRoundRect*
0 Rectangle with rounded corners*
0 $1 Rounding radius*
0 $2 $3 $4 $5 $6 $7 $8 $9 X,Y pos of 4 corners*
0 Add a 4 corners polygon primitive as box body*
4,1,4,$2,$3,$4,$5,$6,$7,$8,$9,$2,$3,0*
0 Add four circle primitives for the rounded corners*
1,1,$1+$1,$2,$3*
1,1,$1+$1,$4,$5*
1,1,$1+$1,$6,$7*
1,1,$1+$1,$8,$9*
0 Add four rect primitives between the rounded corners*
20,1,$1+$1,$2,$3,$4,$5,0*
20,1,$1+$1,$4,$5,$6,$7,0*
20,1,$1+$1,$6,$7,$8,$9,0*
20,1,$1+$1,$8,$9,$2,$3,0*%
G04 Aperture macros list end*
%TA.AperFunction,ComponentPad*%
%ADD10R,1.700000X1.700000*%
%TD*%
%TA.AperFunction,ComponentPad*%
%ADD11C,1.700000*%
%TD*%
%TA.AperFunction,ComponentPad*%
%ADD12O,2.100000X1.050000*%
%TD*%
%TA.AperFunction,ComponentPad*%
%ADD13O,1.800000X0.900000*%
%TD*%
%TA.AperFunction,SMDPad,CuDef*%
%ADD14RoundRect,0.237500X0.250000X0.237500X-0.250000X0.237500X-0.250000X-0.237500X0.250000X-0.237500X0*%
%TD*%
%TA.AperFunction,SMDPad,CuDef*%
%ADD15RoundRect,0.250000X0.475000X-0.337500X0.475000X0.337500X-0.475000X0.337500X-0.475000X-0.337500X0*%
%TD*%
%TA.AperFunction,SMDPad,CuDef*%
%ADD16RoundRect,0.250000X-0.337500X-0.475000X0.337500X-0.475000X0.337500X0.475000X-0.337500X0.475000X0*%
%TD*%
%TA.AperFunction,SMDPad,CuDef*%
%ADD17RoundRect,0.150000X0.700000X-0.150000X0.700000X0.150000X-0.700000X0.150000X-0.700000X-0.150000X0*%
%TD*%
%TA.AperFunction,SMDPad,CuDef*%
%ADD18RoundRect,0.250000X1.100000X-0.250000X1.100000X0.250000X-1.100000X0.250000X-1.100000X-0.250000X0*%
%TD*%
%TA.AperFunction,SMDPad,CuDef*%
%ADD19RoundRect,0.250000X-0.650000X0.412500X-0.650000X-0.412500X0.650000X-0.412500X0.650000X0.412500X0*%
%TD*%
%TA.AperFunction,SMDPad,CuDef*%
%ADD20RoundRect,0.237500X-0.300000X-0.237500X0.300000X-0.237500X0.300000X0.237500X-0.300000X0.237500X0*%
%TD*%
%TA.AperFunction,SMDPad,CuDef*%
%ADD21RoundRect,0.150000X-0.512500X-0.150000X0.512500X-0.150000X0.512500X0.150000X-0.512500X0.150000X0*%
%TD*%
%TA.AperFunction,SMDPad,CuDef*%
%ADD22RoundRect,0.237500X-0.237500X0.250000X-0.237500X-0.250000X0.237500X-0.250000X0.237500X0.250000X0*%
%TD*%
%TA.AperFunction,SMDPad,CuDef*%
%ADD23RoundRect,0.250000X1.100000X-0.412500X1.100000X0.412500X-1.100000X0.412500X-1.100000X-0.412500X0*%
%TD*%
%TA.AperFunction,SMDPad,CuDef*%
%ADD24RoundRect,0.250000X-0.475000X0.337500X-0.475000X-0.337500X0.475000X-0.337500X0.475000X0.337500X0*%
%TD*%
%TA.AperFunction,SMDPad,CuDef*%
%ADD25RoundRect,0.237500X-0.250000X-0.237500X0.250000X-0.237500X0.250000X0.237500X-0.250000X0.237500X0*%
%TD*%
%TA.AperFunction,SMDPad,CuDef*%
%ADD26RoundRect,0.237500X-0.237500X0.300000X-0.237500X-0.300000X0.237500X-0.300000X0.237500X0.300000X0*%
%TD*%
%TA.AperFunction,SMDPad,CuDef*%
%ADD27C,1.000000*%
%TD*%
%TA.AperFunction,SMDPad,CuDef*%
%ADD28RoundRect,0.125000X0.125000X0.125000X-0.125000X0.125000X-0.125000X-0.125000X0.125000X-0.125000X0*%
%TD*%
%TA.AperFunction,SMDPad,CuDef*%
%ADD29RoundRect,0.125000X0.000000X-0.176777X0.176777X0.000000X0.000000X0.176777X-0.176777X0.000000X0*%
%TD*%
%TA.AperFunction,SMDPad,CuDef*%
%ADD30RoundRect,0.110000X0.440000X1.590000X-0.440000X1.590000X-0.440000X-1.590000X0.440000X-1.590000X0*%
%TD*%
%TA.AperFunction,SMDPad,CuDef*%
%ADD31RoundRect,0.150000X-0.150000X-0.700000X0.150000X-0.700000X0.150000X0.700000X-0.150000X0.700000X0*%
%TD*%
%TA.AperFunction,SMDPad,CuDef*%
%ADD32RoundRect,0.250000X-0.250000X-1.100000X0.250000X-1.100000X0.250000X1.100000X-0.250000X1.100000X0*%
%TD*%
%TA.AperFunction,ViaPad*%
%ADD33C,0.600000*%
%TD*%
%TA.AperFunction,ViaPad*%
%ADD34C,0.700000*%
%TD*%
%TA.AperFunction,Conductor*%
%ADD35C,0.300000*%
%TD*%
%TA.AperFunction,Conductor*%
%ADD36C,0.600000*%
%TD*%
%TA.AperFunction,Conductor*%
%ADD37C,0.800000*%
%TD*%
%TA.AperFunction,Conductor*%
%ADD38C,1.000000*%
%TD*%
G04 APERTURE END LIST*
D10*
%TO.P,J902,1,Pin_1_1*%
%TO.N,GND*%
X175900000Y-81300000D03*
D11*
%TO.P,J902,2,Pin_2_2*%
%TO.N,+5V*%
X173360000Y-81300000D03*
%TO.P,J902,3,Pin_3_3*%
%TO.N,/IO/IO2/D_S2*%
X170820000Y-81300000D03*
%TD*%
D12*
%TO.P,J913,SH1,SHIELD_SH1*%
%TO.N,unconnected-(J913-SHIELD-PadSH1)*%
X170820000Y-74620000D03*
%TO.P,J913,SH2,SHIELD__1_SH2*%
%TO.N,unconnected-(J913-SHIELD__1-PadSH2)*%
X170820000Y-65980000D03*
D13*
%TO.P,J913,SH3,SHIELD__2_SH3*%
%TO.N,unconnected-(J913-SHIELD__2-PadSH3)*%
X175000000Y-74620000D03*
%TO.P,J913,SH4,SHIELD__3_SH4*%
%TO.N,unconnected-(J913-SHIELD__3-PadSH4)*%
X175000000Y-65980000D03*
%TD*%
D10*
%TO.P,J909,1,Pin_1_1*%
%TO.N,GND*%
X175880000Y-101007500D03*
D11*
%TO.P,J909,2,Pin_2_2*%
%TO.N,+5V*%
X173340000Y-101007500D03*
%TO.P,J909,3,Pin_3_3*%
%TO.N,/IO/IO2/D_S9*%
X170800000Y-101007500D03*
%TD*%
D10*
%TO.P,J911,1,Pin_1_1*%
%TO.N,GND*%
X175900000Y-106600000D03*
D11*
%TO.P,J911,2,Pin_2_2*%
%TO.N,+5V*%
X173360000Y-106600000D03*
%TO.P,J911,3,Pin_3_3*%
%TO.N,/IO/IO2/D_S11*%
X170820000Y-106600000D03*
%TD*%
D10*
%TO.P,J905,1,Pin_1_1*%
%TO.N,GND*%
X175900000Y-89742500D03*
D11*
%TO.P,J905,2,Pin_2_2*%
%TO.N,+5V*%
X173360000Y-89742500D03*
%TO.P,J905,3,Pin_3_3*%
%TO.N,/IO/IO2/D_S5*%
X170820000Y-89742500D03*
%TD*%
D10*
%TO.P,J907,1,Pin_1_1*%
%TO.N,GND*%
X175880000Y-95407500D03*
D11*
%TO.P,J907,2,Pin_2_2*%
%TO.N,+5V*%
X173340000Y-95407500D03*
%TO.P,J907,3,Pin_3_3*%
%TO.N,/IO/IO2/D_S7*%
X170800000Y-95407500D03*
%TD*%
D10*
%TO.P,J906,1,Pin_1_1*%
%TO.N,GND*%
X175900000Y-92600000D03*
D11*
%TO.P,J906,2,Pin_2_2*%
%TO.N,+5V*%
X173360000Y-92600000D03*
%TO.P,J906,3,Pin_3_3*%
%TO.N,/IO/IO2/D_S6*%
X170820000Y-92600000D03*
%TD*%
D10*
%TO.P,J903,1,Pin_1_1*%
%TO.N,GND*%
X175900000Y-84100000D03*
D11*
%TO.P,J903,2,Pin_2_2*%
%TO.N,+5V*%
X173360000Y-84100000D03*
%TO.P,J903,3,Pin_3_3*%
%TO.N,/IO/IO2/D_S3*%
X170820000Y-84100000D03*
%TD*%
D10*
%TO.P,J904,1,Pin_1_1*%
%TO.N,GND*%
X175900000Y-86900000D03*
D11*
%TO.P,J904,2,Pin_2_2*%
%TO.N,+5V*%
X173360000Y-86900000D03*
%TO.P,J904,3,Pin_3_3*%
%TO.N,/IO/IO2/D_S4*%
X170820000Y-86900000D03*
%TD*%
D10*
%TO.P,J908,1,Pin_1_1*%
%TO.N,GND*%
X175880000Y-98207500D03*
D11*
%TO.P,J908,2,Pin_2_2*%
%TO.N,+5V*%
X173340000Y-98207500D03*
%TO.P,J908,3,Pin_3_3*%
%TO.N,/IO/IO2/D_S8*%
X170800000Y-98207500D03*
%TD*%
D10*
%TO.P,J901,1,Pin_1_1*%
%TO.N,GND*%
X175900000Y-78500000D03*
D11*
%TO.P,J901,2,Pin_2_2*%
%TO.N,+5V*%
X173360000Y-78500000D03*
%TO.P,J901,3,Pin_3_3*%
%TO.N,/IO/IO2/D_S1*%
X170820000Y-78500000D03*
%TD*%
D10*
%TO.P,J910,1,Pin_1_1*%
%TO.N,GND*%
X175880000Y-103785000D03*
D11*
%TO.P,J910,2,Pin_2_2*%
%TO.N,+5V*%
X173340000Y-103785000D03*
%TO.P,J910,3,Pin_3_3*%
%TO.N,/IO/IO2/D_S10*%
X170800000Y-103785000D03*
%TD*%
D10*
%TO.P,J912,1,Pin_1_1*%
%TO.N,GND*%
X175900000Y-109457500D03*
D11*
%TO.P,J912,2,Pin_2_2*%
%TO.N,+5V*%
X173360000Y-109457500D03*
%TO.P,J912,3,Pin_3_3*%
%TO.N,/IO/IO2/D_S12*%
X170820000Y-109457500D03*
%TD*%
D14*
%TO.P,R909,1*%
%TO.N,/IO/IO2/D_S6*%
X167992500Y-92407500D03*
%TO.P,R909,2*%
%TO.N,/IO/D_TIM3_CH3*%
X166167500Y-92407500D03*
%TD*%
%TO.P,R905,1*%
%TO.N,/IO/IO2/D_S2*%
X167992500Y-81307500D03*
%TO.P,R905,2*%
%TO.N,/IO/D_TIM4_CH3*%
X166167500Y-81307500D03*
%TD*%
D15*
%TO.P,C901,1*%
%TO.N,/IO/IO2/P_VBUS*%
X167140000Y-68200000D03*
%TO.P,C901,2*%
%TO.N,GND*%
X167140000Y-66125000D03*
%TD*%
D16*
%TO.P,C805,1*%
%TO.N,+5V*%
X135862500Y-92500000D03*
%TO.P,C805,2*%
%TO.N,GND*%
X137937500Y-92500000D03*
%TD*%
D17*
%TO.P,J805,1,Pin_1_1*%
%TO.N,+5V*%
X133100000Y-90625000D03*
%TO.P,J805,2,Pin_2_2*%
%TO.N,/IO/D_USART2_TX*%
X133100000Y-89375000D03*
%TO.P,J805,3,Pin_3_3*%
%TO.N,/IO/D_USART2_RX*%
X133100000Y-88125000D03*
%TO.P,J805,4,Pin_4_4*%
%TO.N,unconnected-(J805-Pin_4-Pad4)*%
X133100000Y-86875000D03*
%TO.P,J805,5,Pin_5_5*%
%TO.N,unconnected-(J805-Pin_5-Pad5)*%
X133100000Y-85625000D03*
%TO.P,J805,6,Pin_6_6*%
%TO.N,GND*%
X133100000Y-84375000D03*
D18*
%TO.P,J805,MP,MountPin_MP*%
X129900000Y-92475000D03*
X129900000Y-82525000D03*
%TD*%
D19*
%TO.P,C208,1*%
%TO.N,/Power/P_VIN*%
X132750000Y-97450000D03*
%TO.P,C208,2*%
%TO.N,GND*%
X132750000Y-100575000D03*
%TD*%
D14*
%TO.P,R912,1*%
%TO.N,/IO/IO2/D_S9*%
X168092500Y-100907500D03*
%TO.P,R912,2*%
%TO.N,/IO/D_TIM2_CH1*%
X166267500Y-100907500D03*
%TD*%
D20*
%TO.P,R202,1*%
%TO.N,+5V*%
X139187500Y-97875000D03*
%TO.P,R202,2*%
%TO.N,/Power/D_FB*%
X140912500Y-97875000D03*
%TD*%
D21*
%TO.P,U201,1,GND_1*%
%TO.N,GND*%
X138512500Y-101562500D03*
%TO.P,U201,2,SW_2*%
%TO.N,/Power/P_SW*%
X138512500Y-100612500D03*
%TO.P,U201,3,IN_3*%
%TO.N,/Power/P_VIN*%
X138512500Y-99662500D03*
%TO.P,U201,4,FB_4*%
%TO.N,/Power/D_FB*%
X140787500Y-99662500D03*
%TO.P,U201,5,EN_5*%
%TO.N,unconnected-(U201-EN-Pad5)*%
X140787500Y-100612500D03*
%TO.P,U201,6,BST_6*%
%TO.N,Net-(U201-BST)*%
X140787500Y-101562500D03*
%TD*%
D22*
%TO.P,R203,1*%
%TO.N,/Power/D_FB*%
X143150000Y-97900000D03*
%TO.P,R203,2*%
%TO.N,GND*%
X143150000Y-99725000D03*
%TD*%
D14*
%TO.P,R904,1*%
%TO.N,/IO/IO2/D_S1*%
X167992500Y-78507500D03*
%TO.P,R904,2*%
%TO.N,/IO/D_TIM1_CH2*%
X166167500Y-78507500D03*
%TD*%
D23*
%TO.P,C206,1*%
%TO.N,+5V*%
X134650000Y-106475000D03*
%TO.P,C206,2*%
%TO.N,GND*%
X134650000Y-103350000D03*
%TD*%
D24*
%TO.P,C902,1*%
%TO.N,/IO/IO2/P_VBUS*%
X167050000Y-72400000D03*
%TO.P,C902,2*%
%TO.N,GND*%
X167050000Y-74475000D03*
%TD*%
D14*
%TO.P,R908,1*%
%TO.N,/IO/IO2/D_S5*%
X168005000Y-89707500D03*
%TO.P,R908,2*%
%TO.N,/IO/D_TIM3_CH4*%
X166180000Y-89707500D03*
%TD*%
D17*
%TO.P,J914,1,Pin_1_1*%
%TO.N,+5V*%
X133050000Y-68875000D03*
%TO.P,J914,2,Pin_2_2*%
%TO.N,GND*%
X133050000Y-67625000D03*
%TO.P,J914,3,Pin_3_3*%
%TO.N,/IO/IO2/D_CUR*%
X133050000Y-66375000D03*
%TO.P,J914,4,Pin_4_4*%
%TO.N,GND*%
X133050000Y-65125000D03*
D18*
%TO.P,J914,MP,MountPin_MP*%
X129850000Y-70725000D03*
X129850000Y-63275000D03*
%TD*%
D19*
%TO.P,C209,1*%
%TO.N,/Power/P_VIN*%
X135550000Y-97450000D03*
%TO.P,C209,2*%
%TO.N,GND*%
X135550000Y-100575000D03*
%TD*%
D25*
%TO.P,R901,1*%
%TO.N,/IO/IO2/D_CC1A*%
X174687500Y-63650000D03*
%TO.P,R901,2*%
%TO.N,GND*%
X176512500Y-63650000D03*
%TD*%
%TO.P,R314,1*%
%TO.N,+3V3*%
X149975000Y-66500000D03*
%TO.P,R314,2*%
%TO.N,/IO/D_I2C1_SCL*%
X151800000Y-66500000D03*
%TD*%
D15*
%TO.P,C205,1*%
%TO.N,/Power/P_SW*%
X143400000Y-103837500D03*
%TO.P,C205,2*%
%TO.N,Net-(U201-BST)*%
X143400000Y-101762500D03*
%TD*%
D14*
%TO.P,R910,1*%
%TO.N,/IO/IO2/D_S7*%
X168005000Y-95307500D03*
%TO.P,R910,2*%
%TO.N,/IO/D_TIM8_CH2*%
X166180000Y-95307500D03*
%TD*%
D26*
%TO.P,C904,1*%
%TO.N,/IO/D_ADC1_CH10*%
X141100000Y-68237500D03*
%TO.P,C904,2*%
%TO.N,GND*%
X141100000Y-69962500D03*
%TD*%
D19*
%TO.P,C207,1*%
%TO.N,/Power/P_VIN*%
X129850000Y-97487500D03*
%TO.P,C207,2*%
%TO.N,GND*%
X129850000Y-100612500D03*
%TD*%
D27*
%TO.P,G,1,1_1*%
%TO.N,GND*%
X153900000Y-60800000D03*
%TD*%
D14*
%TO.P,R915,1*%
%TO.N,/IO/IO2/D_S12*%
X168100000Y-109400000D03*
%TO.P,R915,2*%
%TO.N,/IO/D_TIM5_CH1*%
X166275000Y-109400000D03*
%TD*%
D25*
%TO.P,R316,1*%
%TO.N,/MCU/D_BOOT1*%
X155087500Y-88800000D03*
%TO.P,R316,2*%
%TO.N,GND*%
X156912500Y-88800000D03*
%TD*%
D23*
%TO.P,C202,1*%
%TO.N,+5V*%
X130750000Y-106475000D03*
%TO.P,C202,2*%
%TO.N,GND*%
X130750000Y-103350000D03*
%TD*%
D28*
%TO.P,D204,1,K_1*%
%TO.N,/IO/P_LDOIN*%
X134200000Y-110500000D03*
%TO.P,D204,2,A_2*%
%TO.N,+5V*%
X132000000Y-110500000D03*
%TD*%
D29*
%TO.P,D901,1,K_1*%
%TO.N,/IO/P_LDOIN*%
X162922183Y-69877817D03*
%TO.P,D901,2,A_2*%
%TO.N,/IO/IO2/P_VBUS*%
X164477817Y-68322183D03*
%TD*%
D30*
%TO.P,L201,1,1_1*%
%TO.N,/Power/P_SW*%
X141100000Y-105000000D03*
%TO.P,L201,2,2_2*%
%TO.N,+5V*%
X138100000Y-105000000D03*
%TD*%
D25*
%TO.P,R312,1*%
%TO.N,+3V3*%
X149975000Y-64600000D03*
%TO.P,R312,2*%
%TO.N,/IO/D_I2C1_SCL*%
X151800000Y-64600000D03*
%TD*%
D14*
%TO.P,R902,1*%
%TO.N,/IO/IO2/D_CC1B*%
X172212500Y-63700000D03*
%TO.P,R902,2*%
%TO.N,GND*%
X170387500Y-63700000D03*
%TD*%
%TO.P,R906,1*%
%TO.N,/IO/IO2/D_S3*%
X167992500Y-84107500D03*
%TO.P,R906,2*%
%TO.N,/IO/D_TIM4_CH4*%
X166167500Y-84107500D03*
%TD*%
%TO.P,R913,1*%
%TO.N,/IO/IO2/D_S10*%
X168192500Y-103807500D03*
%TO.P,R913,2*%
%TO.N,/IO/D_TIM12_CH2*%
X166367500Y-103807500D03*
%TD*%
D31*
%TO.P,J302,1,Pin_1_1*%
%TO.N,+3V3*%
X164125000Y-59050000D03*
%TO.P,J302,2,Pin_2_2*%
%TO.N,/MCU/D_SWDIO*%
X165375000Y-59050000D03*
%TO.P,J302,3,Pin_3_3*%
%TO.N,/MCU/D_SWCLK*%
X166625000Y-59050000D03*
%TO.P,J302,4,Pin_4_4*%
%TO.N,GND*%
X167875000Y-59050000D03*
D32*
%TO.P,J302,MP,MountPin_MP*%
X162275000Y-55850000D03*
X169725000Y-55850000D03*
%TD*%
D14*
%TO.P,R911,1*%
%TO.N,/IO/IO2/D_S8*%
X168092500Y-98007500D03*
%TO.P,R911,2*%
%TO.N,/IO/D_TIM8_CH1*%
X166267500Y-98007500D03*
%TD*%
%TO.P,R907,1*%
%TO.N,/IO/IO2/D_S4*%
X168005000Y-86900000D03*
%TO.P,R907,2*%
%TO.N,/IO/D_TIM1_CH1*%
X166180000Y-86900000D03*
%TD*%
D16*
%TO.P,C903,1*%
%TO.N,+5V*%
X136362500Y-70200000D03*
%TO.P,C903,2*%
%TO.N,GND*%
X138437500Y-70200000D03*
%TD*%
D14*
%TO.P,R914,1*%
%TO.N,/IO/IO2/D_S11*%
X168112500Y-106700000D03*
%TO.P,R914,2*%
%TO.N,/IO/D_TIM12_CH1*%
X166287500Y-106700000D03*
%TD*%
%TO.P,R903,1*%
%TO.N,/IO/D_ADC1_CH10*%
X141112500Y-66400000D03*
%TO.P,R903,2*%
%TO.N,/IO/IO2/D_CUR*%
X139287500Y-66400000D03*
%TD*%
D31*
%TO.P,J803,1,Pin_1_1*%
%TO.N,+5V*%
X147900000Y-59100000D03*
%TO.P,J803,2,Pin_2_2*%
%TO.N,/IO/D_I2C1_SCL*%
X149150000Y-59100000D03*
%TO.P,J803,3,Pin_3_3*%
%TO.N,/IO/D_I2C1_SDA*%
X150400000Y-59100000D03*
%TO.P,J803,4,Pin_4_4*%
%TO.N,GND*%
X151650000Y-59100000D03*
D32*
%TO.P,J803,MP,MountPin_MP*%
X146050000Y-55900000D03*
X153500000Y-55900000D03*
%TD*%
D24*
%TO.P,C803,1*%
%TO.N,+5V*%
X146100000Y-61662500D03*
%TO.P,C803,2*%
%TO.N,GND*%
X146100000Y-63737500D03*
%TD*%
D33*
%TO.N,GND*%
X159800000Y-67000000D03*
X155650000Y-64700000D03*
X152750000Y-63500000D03*
D34*
%TO.N,/MCU/D_LED1*%
X168100000Y-113600000D03*
X153200000Y-74900000D03*
%TO.N,/MCU/D_ADC2_CH13*%
X138200000Y-90300000D03*
X146800000Y-79000000D03*
%TO.N,GND*%
X136700000Y-87100000D03*
D33*
X177000000Y-71450000D03*
X168550000Y-74200000D03*
D34*
X157900000Y-70800000D03*
D33*
X136800000Y-72900000D03*
X139400000Y-77600000D03*
X141800000Y-75000000D03*
X147700000Y-104450000D03*
D34*
X142600000Y-70000000D03*
D33*
X130000000Y-71800000D03*
X159650000Y-65300000D03*
X153300000Y-105200000D03*
X130600000Y-77400000D03*
X135200000Y-55800000D03*
X132650000Y-102012500D03*
X161000000Y-55000000D03*
D34*
X163800000Y-105000000D03*
D33*
X168850000Y-88350000D03*
D34*
X138895000Y-110300000D03*
X149700000Y-110500000D03*
D33*
X137000000Y-107950000D03*
X161600000Y-63500000D03*
X148800000Y-90500000D03*
X143700000Y-85500000D03*
X142450000Y-94300000D03*
X146450000Y-104450000D03*
X176375000Y-70200000D03*
X138150000Y-78300000D03*
D34*
X176500000Y-62100000D03*
D33*
X139950000Y-94300000D03*
D34*
X139200000Y-79500000D03*
X147600000Y-66000000D03*
D33*
X167350000Y-93950000D03*
X154500000Y-118000000D03*
D34*
X141500000Y-63100000D03*
D33*
X141200000Y-93675000D03*
X158900000Y-82300000D03*
X168350000Y-105300000D03*
X166900000Y-110950000D03*
X167200000Y-102400000D03*
X144850000Y-97400000D03*
X168300000Y-99500000D03*
X129850000Y-62000000D03*
X161200000Y-84450000D03*
X141300000Y-77600000D03*
X151400000Y-78700000D03*
X130750000Y-62000000D03*
X151400000Y-56500000D03*
X131300000Y-73700000D03*
X129050000Y-91300000D03*
X144600000Y-87500000D03*
X139950000Y-95550000D03*
X145825000Y-105700000D03*
X167350000Y-91100000D03*
X144945000Y-109200000D03*
X155100000Y-94300000D03*
X168550000Y-75100000D03*
X156750000Y-111000000D03*
X140500000Y-64200000D03*
X157900000Y-113850000D03*
X137200000Y-79150000D03*
X166350000Y-108050000D03*
D34*
X169500000Y-113275000D03*
X153306551Y-108543449D03*
X135150000Y-84100000D03*
D33*
X145900000Y-94200000D03*
X177000000Y-68950000D03*
X142450000Y-95550000D03*
X168250000Y-108150000D03*
X148300000Y-100900000D03*
X160650000Y-92850000D03*
X161050000Y-96250000D03*
X130600000Y-75500000D03*
X166700000Y-112300000D03*
D34*
X158000000Y-63400000D03*
D33*
X130600000Y-79400000D03*
X144900000Y-55100000D03*
X170900000Y-55950000D03*
X164600000Y-65600000D03*
X154250000Y-102100000D03*
X168490000Y-65600000D03*
X154800000Y-55900000D03*
D34*
X165900000Y-113875000D03*
D33*
X131550000Y-102012500D03*
D34*
X137200000Y-94400000D03*
D33*
X163600000Y-92800000D03*
X157000000Y-90300000D03*
X164800000Y-103100000D03*
X144900000Y-56900000D03*
X168900000Y-91100000D03*
X135200000Y-87600000D03*
X149300000Y-117100000D03*
X148400000Y-55000000D03*
X128950000Y-62000000D03*
X128950000Y-83700000D03*
X166950000Y-76700000D03*
X142100000Y-64900000D03*
X161500000Y-85700000D03*
X168600000Y-80000000D03*
X162900000Y-67200000D03*
X161000000Y-55900000D03*
X156500000Y-104900000D03*
X163600000Y-96000000D03*
X162250000Y-97300000D03*
X163950000Y-75700000D03*
X130750000Y-83700000D03*
X154500000Y-117100000D03*
X157600000Y-65100000D03*
D34*
X164700000Y-78000000D03*
X146400000Y-89800000D03*
D33*
X165950000Y-64050000D03*
X135200000Y-54900000D03*
D34*
X138745000Y-109450000D03*
D33*
X156100000Y-90300000D03*
X168950000Y-85550000D03*
X151700000Y-94600000D03*
X145200000Y-104450000D03*
X153800000Y-79900000D03*
D34*
X156400000Y-87200000D03*
D33*
X130850000Y-91300000D03*
X160600000Y-71000000D03*
X164850000Y-74500000D03*
X167700000Y-85500000D03*
X148400000Y-55900000D03*
D34*
X132250000Y-80593750D03*
D33*
X139950000Y-93050000D03*
X155100000Y-95950000D03*
X154100000Y-77200000D03*
X134200000Y-60600000D03*
X143200000Y-77600000D03*
X131150000Y-88400000D03*
X159900000Y-71800000D03*
X138400000Y-73500000D03*
X134700000Y-72900000D03*
X144945000Y-108200000D03*
X137400000Y-75700000D03*
X151700000Y-92300000D03*
X157900000Y-67000000D03*
X149000000Y-92900000D03*
X154800000Y-55000000D03*
D34*
X151300000Y-102000000D03*
D33*
X167100000Y-88300000D03*
X160900000Y-106100000D03*
X141200000Y-96175000D03*
X134500000Y-80600000D03*
X129100000Y-71800000D03*
X148400000Y-56800000D03*
X151750000Y-106500000D03*
D34*
X144800000Y-99700000D03*
D33*
X129400000Y-66500000D03*
D34*
X166450000Y-70500000D03*
D33*
X153600000Y-78750000D03*
X141200000Y-94925000D03*
X161000000Y-68900000D03*
X166450000Y-99450000D03*
X161750000Y-107050000D03*
X154800000Y-56800000D03*
X146450000Y-106950000D03*
X135000000Y-59600000D03*
D34*
X140000000Y-91500000D03*
D33*
X168450000Y-102400000D03*
D34*
X138000000Y-71700000D03*
D33*
X166700000Y-105200000D03*
X130900000Y-71800000D03*
X148050000Y-99500000D03*
X168800000Y-94000000D03*
X139900000Y-75000000D03*
X176375000Y-67700000D03*
D34*
X160200000Y-98600000D03*
D33*
X167650000Y-96707500D03*
X147700000Y-106950000D03*
X131100000Y-66500000D03*
X155050000Y-74100000D03*
X140500000Y-114600000D03*
X132750000Y-103112500D03*
X135200000Y-56700000D03*
X129950000Y-91300000D03*
X160650000Y-89050000D03*
X170900000Y-55050000D03*
X165400000Y-110900000D03*
X167500000Y-82750000D03*
X142450000Y-93050000D03*
X168490000Y-66450000D03*
X151800000Y-105150000D03*
X136600000Y-80600000D03*
X129850000Y-83700000D03*
D34*
X148400000Y-98100000D03*
X168400000Y-63100000D03*
D33*
X162600000Y-94700000D03*
X170900000Y-56850000D03*
X166600000Y-79900000D03*
X155350000Y-112050000D03*
X132800000Y-72900000D03*
X176375000Y-72700000D03*
X168850000Y-76600000D03*
D34*
X155000000Y-100400000D03*
D33*
X161000000Y-56800000D03*
X158900000Y-69300000D03*
X144900000Y-56000000D03*
X139800000Y-108000000D03*
X144600000Y-83700000D03*
X144575000Y-105700000D03*
X143500000Y-75000000D03*
X149300000Y-118000000D03*
X135300000Y-89200000D03*
X147075000Y-105700000D03*
X168900000Y-82750000D03*
D34*
X147800000Y-63300000D03*
D33*
X156500000Y-113000000D03*
X131350000Y-101012500D03*
%TO.N,/IO/IO2/P_VBUS*%
X168550000Y-73000000D03*
X168550000Y-71800000D03*
X168490000Y-68950000D03*
X168490000Y-67750000D03*
D34*
X165050000Y-71800000D03*
D33*
%TO.N,+3V3*%
X144945000Y-110200000D03*
D34*
X141300000Y-91400000D03*
X159100000Y-98500000D03*
X139200000Y-80600000D03*
X155300000Y-87300000D03*
X146500000Y-65900000D03*
X150200000Y-102000000D03*
X136600000Y-88200000D03*
D33*
X144945000Y-111400000D03*
D34*
X155000000Y-99300000D03*
X147700000Y-89700000D03*
X158700000Y-71600000D03*
%TO.N,/MCU/D_I2C2_SDA*%
X144100000Y-82900000D03*
X142800000Y-85100000D03*
%TO.N,/MCU/D_I2C2_SCL*%
X145500000Y-83600000D03*
X144500000Y-86500000D03*
%TO.N,/MCU/D_NRST*%
X146600000Y-76000000D03*
X141350000Y-71850000D03*
%TO.N,+5V*%
X139150000Y-96412500D03*
X146100000Y-115800000D03*
X130900000Y-110500000D03*
X134500000Y-114800000D03*
D33*
X132050000Y-107912500D03*
D34*
X135900000Y-94500000D03*
D33*
X129450000Y-107912500D03*
X130750000Y-107912500D03*
D34*
X141500000Y-61700000D03*
X147800000Y-62050000D03*
X136700000Y-71700000D03*
X168400000Y-61700000D03*
X158000000Y-62100000D03*
%TO.N,/IO/D_USART2_TX*%
X130050000Y-88300000D03*
D33*
%TO.N,/IO/IO2/D_CC1A*%
X173800000Y-67400000D03*
%TO.N,/IO/IO2/D_CC1B*%
X172500000Y-68400000D03*
D34*
%TO.N,/IO/P_LDOIN*%
X162900000Y-71200000D03*
X136100000Y-112300000D03*
%TO.N,/IO/D_PINIO0*%
X152100000Y-74100000D03*
X140800000Y-57100000D03*
%TO.N,/IO/D_PINIO1*%
X139400000Y-57100000D03*
X150800000Y-74400000D03*
%TO.N,/MCU/SPI1_MOSI*%
X149300000Y-93800000D03*
X152300000Y-93800000D03*
%TO.N,/MCU/D_LED0*%
X163900000Y-113600000D03*
X149900000Y-77350000D03*
%TO.N,/MCU/D_BOOT0*%
X149650000Y-73800000D03*
X143000000Y-67100000D03*
%TO.N,/IO/D_ADC1_CH10*%
X146500000Y-73900000D03*
D33*
%TO.N,/IO/D_TIM2_CH1*%
X152500000Y-78300000D03*
%TO.N,/IO/D_TIM5_CH1*%
X151900000Y-79500000D03*
D34*
%TO.N,/IO/D_USART2_RX*%
X131250000Y-87400000D03*
%TO.N,/MCU/SPI1_MISO*%
X148250000Y-91450000D03*
X151300000Y-91200000D03*
%TO.N,/MCU/SPI1_CS*%
X149900000Y-82150000D03*
X153700000Y-94000000D03*
%TO.N,/MCU/D_BOOT1*%
X151600000Y-82100000D03*
%TO.N,/IO/D_TIM12_CH1*%
X161400000Y-86800000D03*
X154600000Y-80500000D03*
X165600000Y-105200000D03*
%TO.N,/IO/D_TIM12_CH2*%
X162800000Y-92000000D03*
X159700000Y-81800000D03*
X166200000Y-102300000D03*
%TO.N,/IO/D_TIM8_CH1*%
X166450000Y-96750000D03*
%TO.N,/IO/D_TIM8_CH2*%
X154600000Y-79200000D03*
%TO.N,/IO/D_TIM3_CH3*%
X166350000Y-91150000D03*
%TO.N,/IO/D_TIM3_CH4*%
X166080000Y-88307500D03*
%TO.N,/IO/D_TIM1_CH1*%
X166700000Y-85507500D03*
%TO.N,/IO/D_TIM1_CH2*%
X164200000Y-77100000D03*
%TO.N,/MCU/D_SWDIO*%
X154500000Y-74850000D03*
%TO.N,/MCU/D_SWCLK*%
X155700000Y-73400000D03*
D33*
%TO.N,/IO/D_I2C1_SCL*%
X153800000Y-63600000D03*
D34*
X152000000Y-55700000D03*
%TO.N,/IO/D_I2C1_SDA*%
X152100000Y-57300000D03*
%TO.N,/IO/D_TIM4_CH3*%
X154250000Y-76200000D03*
%TO.N,/IO/D_TIM4_CH4*%
X153100000Y-77000000D03*
D33*
%TO.N,/Power/P_VIN*%
X129550000Y-96012500D03*
X132350000Y-96012500D03*
X131050000Y-96012500D03*
%TD*%
%TO.N,/MCU/D_LED1*%
D35*
X150800000Y-81250000D02*
X150800000Y-86650000D01*
X151600000Y-77200000D02*
X150400000Y-78400000D01*
X156500000Y-103050000D02*
X167050000Y-113600000D01*
X150400000Y-80850000D02*
X150800000Y-81250000D01*
X156500000Y-92350000D02*
X156500000Y-103050000D01*
X153200000Y-74900000D02*
X151600000Y-76500000D01*
X167050000Y-113600000D02*
X168100000Y-113600000D01*
X151600000Y-76500000D02*
X151600000Y-77200000D01*
X150400000Y-78400000D02*
X150400000Y-80850000D01*
X150800000Y-86650000D02*
X156500000Y-92350000D01*
%TO.N,/MCU/D_ADC2_CH13*%
X140800000Y-86600000D02*
X140800000Y-84200000D01*
X145700000Y-79300000D02*
X146500000Y-79300000D01*
X138200000Y-90300000D02*
X138200000Y-89200000D01*
X146500000Y-79300000D02*
X146800000Y-79000000D01*
X138200000Y-89200000D02*
X140800000Y-86600000D01*
X140800000Y-84200000D02*
X145700000Y-79300000D01*
%TO.N,GND*%
D36*
X153500000Y-58200000D02*
X152900000Y-58800000D01*
D35*
X156912500Y-88800000D02*
X156912500Y-90212500D01*
D36*
X129850000Y-69350000D02*
X129850000Y-70725000D01*
X152600000Y-59100000D02*
X151650000Y-59100000D01*
X168950000Y-55850000D02*
X169725000Y-55850000D01*
D35*
X176500000Y-63637500D02*
X176512500Y-63650000D01*
D36*
X133050000Y-67625000D02*
X131575000Y-67625000D01*
X152900000Y-58800000D02*
X152600000Y-59100000D01*
D35*
X156400000Y-87050000D02*
X156400000Y-87200000D01*
D36*
X131575000Y-67625000D02*
X129850000Y-69350000D01*
X134875000Y-84375000D02*
X135150000Y-84100000D01*
X152900000Y-58800000D02*
X153900000Y-59800000D01*
D37*
X143150000Y-99725000D02*
X144775000Y-99725000D01*
D38*
X147362500Y-63737500D02*
X147800000Y-63300000D01*
D35*
X156912500Y-90212500D02*
X157000000Y-90300000D01*
D37*
X138437500Y-71262500D02*
X138000000Y-71700000D01*
D36*
X167875000Y-59050000D02*
X167875000Y-56925000D01*
D37*
X138437500Y-70200000D02*
X138437500Y-71262500D01*
D36*
X167875000Y-56925000D02*
X168950000Y-55850000D01*
D35*
X170387500Y-63700000D02*
X169000000Y-63700000D01*
D36*
X131025000Y-65125000D02*
X129850000Y-63950000D01*
D35*
X142562500Y-69962500D02*
X142600000Y-70000000D01*
D38*
X146100000Y-63737500D02*
X147362500Y-63737500D01*
D35*
X176700000Y-63462500D02*
X176762500Y-63400000D01*
X141100000Y-69962500D02*
X142562500Y-69962500D01*
X169000000Y-63700000D02*
X168400000Y-63100000D01*
D36*
X133100000Y-84375000D02*
X134875000Y-84375000D01*
X153900000Y-59800000D02*
X153900000Y-60800000D01*
D37*
X137937500Y-93662500D02*
X137200000Y-94400000D01*
D36*
X133050000Y-65125000D02*
X131025000Y-65125000D01*
D37*
X144775000Y-99725000D02*
X144800000Y-99700000D01*
D36*
X129850000Y-63950000D02*
X129850000Y-63275000D01*
X153500000Y-55900000D02*
X153500000Y-58200000D01*
D35*
X176500000Y-62100000D02*
X176500000Y-63637500D01*
D37*
X137937500Y-92500000D02*
X137937500Y-93662500D01*
%TO.N,/IO/IO2/P_VBUS*%
D36*
X165650000Y-72400000D02*
X167050000Y-72400000D01*
X165050000Y-71800000D02*
X165650000Y-72400000D01*
%TO.N,+3V3*%
D35*
X159700000Y-61000000D02*
X156700000Y-61000000D01*
X155500000Y-62200000D02*
X150700000Y-62200000D01*
X150700000Y-62200000D02*
X149975000Y-62925000D01*
X149975000Y-64600000D02*
X149975000Y-66500000D01*
X147200000Y-64900000D02*
X149675000Y-64900000D01*
X156700000Y-61000000D02*
X155500000Y-62200000D01*
X164125000Y-59050000D02*
X161650000Y-59050000D01*
X161650000Y-59050000D02*
X159700000Y-61000000D01*
X149975000Y-62925000D02*
X149975000Y-64600000D01*
X146500000Y-65900000D02*
X146500000Y-65600000D01*
X149675000Y-64900000D02*
X149975000Y-64600000D01*
X146500000Y-65600000D02*
X147200000Y-64900000D01*
%TO.N,/MCU/D_I2C2_SDA*%
X144100000Y-82900000D02*
X142800000Y-84200000D01*
X142800000Y-84200000D02*
X142800000Y-85100000D01*
%TO.N,/MCU/D_I2C2_SCL*%
X145500000Y-85000000D02*
X144500000Y-86000000D01*
X144500000Y-86000000D02*
X144500000Y-86500000D01*
X145500000Y-83600000D02*
X145500000Y-85000000D01*
%TO.N,/MCU/D_NRST*%
X141350000Y-71850000D02*
X142100000Y-71850000D01*
X146250000Y-76000000D02*
X146600000Y-76000000D01*
X146600000Y-76000000D02*
X146500000Y-76000000D01*
X142100000Y-71850000D02*
X146250000Y-76000000D01*
%TO.N,+5V*%
D36*
X133050000Y-68875000D02*
X133050000Y-69850000D01*
D38*
X133200000Y-70000000D02*
X133400000Y-70200000D01*
X135900000Y-94500000D02*
X135900000Y-92537500D01*
X147412500Y-61662500D02*
X147800000Y-62050000D01*
X135062500Y-90600000D02*
X135862500Y-91400000D01*
X133400000Y-70200000D02*
X134375000Y-70200000D01*
D36*
X133100000Y-90625000D02*
X134775000Y-90625000D01*
D38*
X136400000Y-70237500D02*
X136362500Y-70200000D01*
X173360000Y-78500000D02*
X173360000Y-109457500D01*
X134800000Y-90600000D02*
X135062500Y-90600000D01*
X146100000Y-61662500D02*
X147412500Y-61662500D01*
X146100000Y-59800000D02*
X146100000Y-61662500D01*
D36*
X136062500Y-70200000D02*
X136362500Y-70500000D01*
D35*
X139150000Y-96412500D02*
X139150000Y-97837500D01*
D38*
X132000000Y-110500000D02*
X130900000Y-110500000D01*
D36*
X147900000Y-59100000D02*
X146800000Y-59100000D01*
D38*
X134375000Y-70200000D02*
X136362500Y-70200000D01*
X135862500Y-91400000D02*
X135862500Y-92500000D01*
X135900000Y-92537500D02*
X135862500Y-92500000D01*
D36*
X133050000Y-69850000D02*
X133200000Y-70000000D01*
D38*
X136362500Y-70200000D02*
X136362500Y-71362500D01*
X132050000Y-107912500D02*
X129450000Y-107912500D01*
X146800000Y-59100000D02*
X146100000Y-59800000D01*
D35*
X139150000Y-97837500D02*
X139187500Y-97875000D01*
D38*
X136362500Y-71362500D02*
X136700000Y-71700000D01*
%TO.N,/IO/IO2/D_S2*%
D35*
X167992500Y-81307500D02*
X170812500Y-81307500D01*
X170812500Y-81307500D02*
X170820000Y-81300000D01*
%TO.N,/IO/D_USART2_TX*%
X130050000Y-88400000D02*
X131025000Y-89375000D01*
X131025000Y-89375000D02*
X133100000Y-89375000D01*
X130050000Y-88300000D02*
X130050000Y-88400000D01*
%TO.N,/IO/IO2/D_CC1A*%
X174687500Y-63912500D02*
X174687500Y-63650000D01*
X173800000Y-67400000D02*
X173400000Y-67000000D01*
X173400000Y-67000000D02*
X173400000Y-65200000D01*
X173400000Y-65200000D02*
X174687500Y-63912500D01*
%TO.N,/IO/IO2/D_CC1B*%
X172600000Y-64087500D02*
X172600000Y-68300000D01*
X172600000Y-68300000D02*
X172500000Y-68400000D01*
X172212500Y-63700000D02*
X172600000Y-64087500D01*
%TO.N,/IO/IO2/D_S9*%
X168092500Y-100907500D02*
X170700000Y-100907500D01*
X170700000Y-100907500D02*
X170800000Y-101007500D01*
%TO.N,/IO/P_LDOIN*%
D38*
X136100000Y-111400000D02*
X136100000Y-112300000D01*
X134200000Y-110500000D02*
X135200000Y-110500000D01*
X162922183Y-69877817D02*
X162922183Y-71177817D01*
X162922183Y-71177817D02*
X162900000Y-71200000D01*
X135200000Y-110500000D02*
X136100000Y-111400000D01*
%TO.N,/IO/D_PINIO0*%
D35*
X152100000Y-71500000D02*
X149000000Y-68400000D01*
X149000000Y-68400000D02*
X147500000Y-68400000D01*
X152100000Y-74100000D02*
X152100000Y-71500000D01*
X147500000Y-68400000D02*
X144100000Y-65000000D01*
X144100000Y-65000000D02*
X144100000Y-60400000D01*
X144100000Y-60400000D02*
X140800000Y-57100000D01*
%TO.N,/IO/D_PINIO1*%
X139400000Y-57600000D02*
X139400000Y-57100000D01*
X142900000Y-61100000D02*
X139400000Y-57600000D01*
X142900000Y-65500000D02*
X142900000Y-61100000D01*
X150800000Y-73400000D02*
X142900000Y-65500000D01*
X150800000Y-74400000D02*
X150800000Y-73400000D01*
%TO.N,/MCU/SPI1_MOSI*%
X152300000Y-93800000D02*
X149300000Y-93800000D01*
%TO.N,/MCU/D_BOOT0*%
X144600000Y-69900000D02*
X148500000Y-73800000D01*
X143000000Y-67100000D02*
X144600000Y-68700000D01*
X148500000Y-73800000D02*
X149650000Y-73800000D01*
X144600000Y-68700000D02*
X144600000Y-69900000D01*
%TO.N,/IO/IO2/D_S11*%
X170720000Y-106700000D02*
X170820000Y-106600000D01*
X168112500Y-106700000D02*
X170720000Y-106700000D01*
%TO.N,/IO/D_ADC1_CH10*%
X146500000Y-73900000D02*
X143500000Y-70900000D01*
X141112500Y-68225000D02*
X141100000Y-68237500D01*
X142637500Y-68237500D02*
X141100000Y-68237500D01*
X143500000Y-69100000D02*
X142637500Y-68237500D01*
X141112500Y-66400000D02*
X141112500Y-68225000D01*
X143500000Y-70900000D02*
X143500000Y-69100000D01*
%TO.N,/IO/D_TIM2_CH1*%
X163800000Y-97450000D02*
X163800000Y-98400000D01*
X166267500Y-100867500D02*
X166267500Y-100907500D01*
X159850000Y-93500000D02*
X163800000Y-97450000D01*
X159850000Y-87150000D02*
X159850000Y-93500000D01*
X163800000Y-98400000D02*
X166267500Y-100867500D01*
X152900000Y-80200000D02*
X159850000Y-87150000D01*
X152900000Y-78700000D02*
X152900000Y-80200000D01*
X152500000Y-78300000D02*
X152900000Y-78700000D01*
%TO.N,/IO/D_TIM5_CH1*%
X166200000Y-109400000D02*
X166275000Y-109400000D01*
X152000000Y-80800000D02*
X153600000Y-82400000D01*
X151900000Y-79500000D02*
X152000000Y-79600000D01*
X153600000Y-82400000D02*
X153600000Y-83000000D01*
X158300000Y-95100000D02*
X161900000Y-98700000D01*
X161900000Y-98700000D02*
X161900000Y-105100000D01*
X158300000Y-87700000D02*
X158300000Y-95100000D01*
X153600000Y-83000000D02*
X158300000Y-87700000D01*
X161900000Y-105100000D02*
X166200000Y-109400000D01*
X152000000Y-79600000D02*
X152000000Y-80800000D01*
%TO.N,/IO/D_USART2_RX*%
X131975000Y-88125000D02*
X133100000Y-88125000D01*
X131250000Y-87400000D02*
X131975000Y-88125000D01*
%TO.N,/MCU/SPI1_MISO*%
X151300000Y-91200000D02*
X148500000Y-91200000D01*
X148500000Y-91200000D02*
X148250000Y-91450000D01*
%TO.N,/MCU/SPI1_CS*%
X149900000Y-82150000D02*
X149900000Y-82200000D01*
X149900000Y-82200000D02*
X149500000Y-82600000D01*
X149500000Y-82600000D02*
X149500000Y-87600000D01*
X149500000Y-87600000D02*
X153700000Y-91800000D01*
X153700000Y-91800000D02*
X153700000Y-94000000D01*
%TO.N,/MCU/D_BOOT1*%
X155087500Y-88687500D02*
X155087500Y-88800000D01*
X152200000Y-82700000D02*
X152200000Y-85800000D01*
X151600000Y-82100000D02*
X152200000Y-82700000D01*
X152200000Y-85800000D02*
X155087500Y-88687500D01*
%TO.N,/IO/D_TIM12_CH1*%
X154600000Y-80500000D02*
X154600000Y-80700000D01*
X155300000Y-80500000D02*
X161400000Y-86600000D01*
X154800000Y-80500000D02*
X155300000Y-80500000D01*
X161400000Y-86600000D02*
X161400000Y-86800000D01*
X154600000Y-80700000D02*
X154800000Y-80500000D01*
X165600000Y-105200000D02*
X166287500Y-105887500D01*
X166287500Y-105887500D02*
X166287500Y-106700000D01*
%TO.N,/IO/D_TIM12_CH2*%
X159800000Y-81800000D02*
X159700000Y-81800000D01*
X162800000Y-92000000D02*
X162800000Y-84800000D01*
X162800000Y-84800000D02*
X159800000Y-81800000D01*
X166200000Y-102300000D02*
X166200000Y-103640000D01*
X166200000Y-103640000D02*
X166367500Y-103807500D01*
%TO.N,/IO/D_TIM8_CH1*%
X166180000Y-97920000D02*
X166267500Y-98007500D01*
X166180000Y-97020000D02*
X166180000Y-97920000D01*
X166450000Y-96750000D02*
X166180000Y-97020000D01*
%TO.N,/IO/D_TIM8_CH2*%
X159500000Y-79200000D02*
X164550000Y-84250000D01*
X166080000Y-95307500D02*
X166180000Y-95307500D01*
X164550000Y-92950000D02*
X166180000Y-94580000D01*
X154600000Y-79200000D02*
X159500000Y-79200000D01*
X164550000Y-84250000D02*
X164550000Y-92950000D01*
X166180000Y-94580000D02*
X166180000Y-95307500D01*
%TO.N,/IO/D_TIM3_CH3*%
X166080000Y-91420000D02*
X166080000Y-92320000D01*
X166080000Y-92320000D02*
X166167500Y-92407500D01*
X166350000Y-91150000D02*
X166080000Y-91420000D01*
%TO.N,/IO/D_TIM3_CH4*%
X166080000Y-89607500D02*
X166180000Y-89707500D01*
X166080000Y-88307500D02*
X166080000Y-89607500D01*
%TO.N,/IO/D_TIM1_CH1*%
X166700000Y-85507500D02*
X166700000Y-86087500D01*
X166180000Y-86607500D02*
X166180000Y-86900000D01*
X166700000Y-86087500D02*
X166180000Y-86607500D01*
%TO.N,/IO/D_TIM1_CH2*%
X164200000Y-77100000D02*
X165400000Y-77100000D01*
X165400000Y-77100000D02*
X166167500Y-77867500D01*
X166167500Y-77867500D02*
X166167500Y-78507500D01*
%TO.N,/MCU/D_SWDIO*%
X157400000Y-66100000D02*
X154300000Y-69200000D01*
X154300000Y-69200000D02*
X154300000Y-74650000D01*
X154300000Y-74650000D02*
X154500000Y-74850000D01*
X165375000Y-59050000D02*
X165375000Y-60925000D01*
X160200000Y-66100000D02*
X157400000Y-66100000D01*
X165375000Y-60925000D02*
X160200000Y-66100000D01*
%TO.N,/MCU/D_SWCLK*%
X155700000Y-70500000D02*
X158500000Y-67700000D01*
X160700000Y-67700000D02*
X166625000Y-61775000D01*
X158500000Y-67700000D02*
X160700000Y-67700000D01*
X166625000Y-61775000D02*
X166625000Y-59050000D01*
X155700000Y-73400000D02*
X155700000Y-70500000D01*
%TO.N,/IO/D_I2C1_SCL*%
X153800000Y-63600000D02*
X153700000Y-63700000D01*
X150800000Y-55700000D02*
X149150000Y-57350000D01*
X152000000Y-55700000D02*
X150800000Y-55700000D01*
X153800000Y-63900000D02*
X153800000Y-63600000D01*
X153100000Y-64600000D02*
X153800000Y-63900000D01*
X151800000Y-66500000D02*
X151800000Y-64600000D01*
X149150000Y-57350000D02*
X149150000Y-59100000D01*
X151800000Y-64600000D02*
X153100000Y-64600000D01*
%TO.N,/IO/D_I2C1_SDA*%
X150400000Y-57900000D02*
X150400000Y-59100000D01*
X152100000Y-57300000D02*
X151000000Y-57300000D01*
X151000000Y-57300000D02*
X150400000Y-57900000D01*
%TO.N,/IO/D_TIM4_CH3*%
X161360000Y-76500000D02*
X166167500Y-81307500D01*
X154250000Y-76200000D02*
X154550000Y-76500000D01*
X154550000Y-76500000D02*
X161360000Y-76500000D01*
%TO.N,/IO/D_TIM4_CH4*%
X153100000Y-77300000D02*
X153800000Y-78000000D01*
X153800000Y-78000000D02*
X160300000Y-78000000D01*
X166167500Y-83867500D02*
X166167500Y-84107500D01*
X160300000Y-78000000D02*
X166167500Y-83867500D01*
X153100000Y-77000000D02*
X153100000Y-77300000D01*
%TO.N,/IO/IO2/D_S5*%
X170695000Y-89617500D02*
X170820000Y-89742500D01*
X168005000Y-89707500D02*
X171095000Y-89707500D01*
%TO.N,/IO/IO2/D_S7*%
X168005000Y-95307500D02*
X170700000Y-95307500D01*
X170700000Y-95307500D02*
X170800000Y-95407500D01*
%TO.N,/IO/IO2/D_S6*%
X170627500Y-92407500D02*
X170820000Y-92600000D01*
X167992500Y-92407500D02*
X170627500Y-92407500D01*
%TO.N,/IO/IO2/D_S3*%
X167992500Y-84107500D02*
X170812500Y-84107500D01*
X170812500Y-84107500D02*
X170820000Y-84100000D01*
%TO.N,/IO/IO2/D_S4*%
X168005000Y-86900000D02*
X170820000Y-86900000D01*
%TO.N,/IO/IO2/D_S8*%
X170600000Y-98007500D02*
X170800000Y-98207500D01*
X168092500Y-98007500D02*
X170600000Y-98007500D01*
%TO.N,/IO/IO2/D_S1*%
X170812500Y-78507500D02*
X170820000Y-78500000D01*
X167992500Y-78507500D02*
X170812500Y-78507500D01*
%TO.N,/IO/IO2/D_S10*%
X168192500Y-103807500D02*
X170777500Y-103807500D01*
X170777500Y-103807500D02*
X170800000Y-103785000D01*
%TO.N,/IO/IO2/D_S12*%
X168100000Y-109400000D02*
X170762500Y-109400000D01*
X170762500Y-109400000D02*
X170820000Y-109457500D01*
%TO.N,/Power/D_FB*%
X143150000Y-97900000D02*
X140937500Y-97900000D01*
X140912500Y-97875000D02*
X140787500Y-98000000D01*
X140787500Y-98000000D02*
X140787500Y-99662500D01*
X140937500Y-97900000D02*
X140912500Y-97875000D01*
%TO.N,Net-(U201-BST)*%
X143200000Y-101562500D02*
X143400000Y-101762500D01*
X140787500Y-101562500D02*
X143200000Y-101562500D01*
%TO.N,/IO/IO2/D_CUR*%
X133050000Y-66375000D02*
X139262500Y-66375000D01*
X139262500Y-66375000D02*
X139287500Y-66400000D01*
%TO.N,/MCU/D_LED0*%
X148100000Y-79200000D02*
X149900000Y-77400000D01*
X149900000Y-77400000D02*
X149900000Y-77350000D01*
X148100000Y-85800000D02*
X148100000Y-79200000D01*
X145200000Y-88700000D02*
X148100000Y-85800000D01*
X145200000Y-92300000D02*
X145200000Y-88700000D01*
X152600000Y-99700000D02*
X145200000Y-92300000D01*
X152600000Y-102300000D02*
X152600000Y-99700000D01*
X163900000Y-113600000D02*
X152600000Y-102300000D01*
%TD*%
%TA.AperFunction,Conductor*%
%TO.N,/IO/IO2/P_VBUS*%
G36*
X168959191Y-71418907D02*
G01*
X168995155Y-71468407D01*
X169000000Y-71499000D01*
X169000000Y-73201000D01*
X168981093Y-73259191D01*
X168931593Y-73295155D01*
X168901000Y-73300000D01*
X166099000Y-73300000D01*
X166040809Y-73281093D01*
X166004845Y-73231593D01*
X166000000Y-73201000D01*
X166000000Y-71499000D01*
X166018907Y-71440809D01*
X166068407Y-71404845D01*
X166099000Y-71400000D01*
X166099999Y-71400000D01*
X166100000Y-71400000D01*
X168100000Y-71400000D01*
X168100001Y-71400000D01*
X168901000Y-71400000D01*
X168959191Y-71418907D01*
G37*
%TD.AperFunction*%
%TD*%
%TA.AperFunction,Conductor*%
%TO.N,GND*%
G36*
X168915908Y-65104843D02*
G01*
X168928595Y-65108966D01*
X168978095Y-65144927D01*
X168978096Y-65144928D01*
X168981091Y-65149050D01*
X169000000Y-65207240D01*
X169000000Y-66785319D01*
X168995154Y-66815912D01*
X168991032Y-66828598D01*
X168955080Y-66878089D01*
X168950959Y-66881084D01*
X168892771Y-66900000D01*
X166114680Y-66900000D01*
X166084087Y-66895154D01*
X166071401Y-66891032D01*
X166021901Y-66855068D01*
X166021894Y-66855058D01*
X166018900Y-66850936D01*
X166000000Y-66792756D01*
X166000000Y-65214680D01*
X166004843Y-65184094D01*
X166008965Y-65171405D01*
X166044923Y-65121906D01*
X166045522Y-65121471D01*
X166049063Y-65118900D01*
X166107243Y-65100000D01*
X168885320Y-65100000D01*
X168915908Y-65104843D01*
G37*
%TD.AperFunction*%
%TD*%
%TA.AperFunction,Conductor*%
%TO.N,GND*%
G36*
X171217183Y-54518907D02*
G01*
X171228996Y-54528996D01*
X171371004Y-54671004D01*
X171398781Y-54725521D01*
X171400000Y-54741008D01*
X171400000Y-57058992D01*
X171381093Y-57117183D01*
X171371004Y-57128996D01*
X171228996Y-57271004D01*
X171174479Y-57298781D01*
X171158992Y-57300000D01*
X169141008Y-57300000D01*
X169082817Y-57281093D01*
X169071004Y-57271004D01*
X168928996Y-57128996D01*
X168901219Y-57074479D01*
X168900000Y-57058992D01*
X168900000Y-54741008D01*
X168918907Y-54682817D01*
X168928996Y-54671004D01*
X169071004Y-54528996D01*
X169125521Y-54501219D01*
X169141008Y-54500000D01*
X171158992Y-54500000D01*
X171217183Y-54518907D01*
G37*
%TD.AperFunction*%
%TD*%
%TA.AperFunction,Conductor*%
%TO.N,/Power/P_VIN*%
G36*
X135723903Y-95517345D02*
G01*
X135736240Y-95521353D01*
X135747129Y-95524891D01*
X135786542Y-95549042D01*
X136709917Y-96472417D01*
X136728122Y-96497475D01*
X136739209Y-96519234D01*
X136750000Y-96564180D01*
X136750000Y-97912500D01*
X137950000Y-99112500D01*
X139335320Y-99112500D01*
X139365908Y-99117343D01*
X139378595Y-99121466D01*
X139428095Y-99157427D01*
X139428096Y-99157428D01*
X139431091Y-99161550D01*
X139450000Y-99219740D01*
X139450000Y-99855811D01*
X139445156Y-99886399D01*
X139440384Y-99901088D01*
X139404422Y-99950590D01*
X139346233Y-99969500D01*
X137801676Y-99969500D01*
X137753710Y-99975177D01*
X137753704Y-99975178D01*
X137708775Y-99985963D01*
X137663450Y-100002683D01*
X137641684Y-100013772D01*
X137641679Y-100013774D01*
X137614189Y-100030620D01*
X137614188Y-100030621D01*
X137589124Y-100048831D01*
X137589114Y-100048839D01*
X137564617Y-100069761D01*
X137564616Y-100069763D01*
X137557198Y-100077180D01*
X137502678Y-100104951D01*
X137456621Y-100101326D01*
X137452880Y-100100111D01*
X137413457Y-100075957D01*
X137208992Y-99871492D01*
X137193311Y-99855811D01*
X136250000Y-98912500D01*
X136249999Y-98912500D01*
X129006688Y-98912500D01*
X128976095Y-98907654D01*
X128952868Y-98900107D01*
X128913457Y-98875957D01*
X128440582Y-98403082D01*
X128422376Y-98378023D01*
X128411288Y-98356261D01*
X128400500Y-98311319D01*
X128400500Y-96218688D01*
X128405344Y-96188099D01*
X128412891Y-96164868D01*
X128437040Y-96125459D01*
X129009920Y-95552579D01*
X129034972Y-95534378D01*
X129056739Y-95523288D01*
X129101680Y-95512500D01*
X135693312Y-95512500D01*
X135723903Y-95517345D01*
G37*
%TD.AperFunction*%
%TD*%
%TA.AperFunction,Conductor*%
%TO.N,GND*%
G36*
X146617683Y-54419407D02*
G01*
X146629496Y-54429496D01*
X146771004Y-54571004D01*
X146798781Y-54625521D01*
X146800000Y-54641008D01*
X146800000Y-57058992D01*
X146781093Y-57117183D01*
X146771004Y-57128996D01*
X146528996Y-57371004D01*
X146474479Y-57398781D01*
X146458992Y-57400000D01*
X144741008Y-57400000D01*
X144682817Y-57381093D01*
X144671004Y-57371004D01*
X144428996Y-57128996D01*
X144401219Y-57074479D01*
X144400000Y-57058992D01*
X144400000Y-54641008D01*
X144418907Y-54582817D01*
X144428996Y-54571004D01*
X144570504Y-54429496D01*
X144625021Y-54401719D01*
X144640508Y-54400500D01*
X146559492Y-54400500D01*
X146617683Y-54419407D01*
G37*
%TD.AperFunction*%
%TD*%
%TA.AperFunction,Conductor*%
%TO.N,GND*%
G36*
X131017183Y-61518907D02*
G01*
X131028996Y-61528996D01*
X131271004Y-61771004D01*
X131298781Y-61825521D01*
X131300000Y-61841008D01*
X131300000Y-63658992D01*
X131281093Y-63717183D01*
X131271004Y-63728996D01*
X131028996Y-63971004D01*
X130974479Y-63998781D01*
X130958992Y-64000000D01*
X128641008Y-64000000D01*
X128582817Y-63981093D01*
X128571004Y-63971004D01*
X128429496Y-63829496D01*
X128401719Y-63774979D01*
X128400500Y-63759492D01*
X128400500Y-61740508D01*
X128419407Y-61682317D01*
X128429496Y-61670504D01*
X128571004Y-61528996D01*
X128625521Y-61501219D01*
X128641008Y-61500000D01*
X130958992Y-61500000D01*
X131017183Y-61518907D01*
G37*
%TD.AperFunction*%
%TD*%
%TA.AperFunction,Conductor*%
%TO.N,GND*%
G36*
X155017183Y-54518907D02*
G01*
X155028996Y-54528996D01*
X155171004Y-54671004D01*
X155198781Y-54725521D01*
X155200000Y-54741008D01*
X155200000Y-57058992D01*
X155181093Y-57117183D01*
X155171004Y-57128996D01*
X155028996Y-57271004D01*
X154974479Y-57298781D01*
X154958992Y-57300000D01*
X152941008Y-57300000D01*
X152882817Y-57281093D01*
X152871004Y-57271004D01*
X152728996Y-57128996D01*
X152701219Y-57074479D01*
X152700000Y-57058992D01*
X152700000Y-54741008D01*
X152718907Y-54682817D01*
X152728996Y-54671004D01*
X152871004Y-54528996D01*
X152925521Y-54501219D01*
X152941008Y-54500000D01*
X154958992Y-54500000D01*
X155017183Y-54518907D01*
G37*
%TD.AperFunction*%
%TD*%
%TA.AperFunction,Conductor*%
%TO.N,GND*%
G36*
X168915908Y-73604843D02*
G01*
X168928595Y-73608966D01*
X168978095Y-73644927D01*
X168978096Y-73644928D01*
X168981091Y-73649050D01*
X169000000Y-73707240D01*
X169000000Y-75385319D01*
X168995154Y-75415912D01*
X168991032Y-75428598D01*
X168955080Y-75478089D01*
X168950959Y-75481084D01*
X168892771Y-75500000D01*
X166114680Y-75500000D01*
X166084087Y-75495154D01*
X166071401Y-75491032D01*
X166021901Y-75455068D01*
X166021894Y-75455058D01*
X166018900Y-75450936D01*
X166000000Y-75392756D01*
X166000000Y-73714680D01*
X166004843Y-73684094D01*
X166008965Y-73671405D01*
X166044923Y-73621906D01*
X166045522Y-73621471D01*
X166049063Y-73618900D01*
X166107243Y-73600000D01*
X168885320Y-73600000D01*
X168915908Y-73604843D01*
G37*
%TD.AperFunction*%
%TD*%
%TA.AperFunction,Conductor*%
%TO.N,GND*%
G36*
X131167183Y-90918907D02*
G01*
X131178996Y-90928996D01*
X131321004Y-91071004D01*
X131348781Y-91125521D01*
X131350000Y-91141008D01*
X131350000Y-93058992D01*
X131331093Y-93117183D01*
X131321004Y-93128996D01*
X131178996Y-93271004D01*
X131124479Y-93298781D01*
X131108992Y-93300000D01*
X128691008Y-93300000D01*
X128632817Y-93281093D01*
X128621004Y-93271004D01*
X128478996Y-93128996D01*
X128451219Y-93074479D01*
X128450000Y-93058992D01*
X128450000Y-91141008D01*
X128468907Y-91082817D01*
X128478996Y-91071004D01*
X128621004Y-90928996D01*
X128675521Y-90901219D01*
X128691008Y-90900000D01*
X131108992Y-90900000D01*
X131167183Y-90918907D01*
G37*
%TD.AperFunction*%
%TD*%
%TA.AperFunction,Conductor*%
%TO.N,GND*%
G36*
X131167183Y-81718907D02*
G01*
X131178996Y-81728996D01*
X131321004Y-81871004D01*
X131348781Y-81925521D01*
X131350000Y-81941008D01*
X131350000Y-83858992D01*
X131331093Y-83917183D01*
X131321004Y-83928996D01*
X131178996Y-84071004D01*
X131124479Y-84098781D01*
X131108992Y-84100000D01*
X128691008Y-84100000D01*
X128632817Y-84081093D01*
X128621004Y-84071004D01*
X128478996Y-83928996D01*
X128451219Y-83874479D01*
X128450000Y-83858992D01*
X128450000Y-81941008D01*
X128468907Y-81882817D01*
X128478996Y-81871004D01*
X128621004Y-81728996D01*
X128675521Y-81701219D01*
X128691008Y-81700000D01*
X131108992Y-81700000D01*
X131167183Y-81718907D01*
G37*
%TD.AperFunction*%
%TD*%
%TA.AperFunction,Conductor*%
%TO.N,/Power/P_SW*%
G36*
X139723903Y-100179845D02*
G01*
X139736240Y-100183853D01*
X139747129Y-100187391D01*
X139786542Y-100211542D01*
X139888430Y-100313430D01*
X139906637Y-100338491D01*
X139916514Y-100357877D01*
X139926270Y-100417085D01*
X139924500Y-100429237D01*
X139924500Y-100429240D01*
X139924500Y-100795760D01*
X139932327Y-100849479D01*
X139934427Y-100863893D01*
X139934428Y-100863897D01*
X139934979Y-100865023D01*
X139942487Y-100886179D01*
X139947452Y-100907640D01*
X139950000Y-100929952D01*
X139950000Y-101245047D01*
X139947452Y-101267358D01*
X139942875Y-101287142D01*
X139942489Y-101288814D01*
X139934979Y-101309973D01*
X139934427Y-101311100D01*
X139933670Y-101314374D01*
X139933393Y-101318203D01*
X139924500Y-101379240D01*
X139924500Y-101745760D01*
X139934427Y-101813890D01*
X139934427Y-101813893D01*
X139934428Y-101813897D01*
X139934979Y-101815023D01*
X139942487Y-101836179D01*
X139947452Y-101857640D01*
X139950000Y-101879952D01*
X139950000Y-102175000D01*
X140625000Y-102850000D01*
X143968312Y-102850000D01*
X143998903Y-102854845D01*
X144011240Y-102858853D01*
X144022129Y-102862391D01*
X144061542Y-102886542D01*
X144309917Y-103134917D01*
X144328122Y-103159975D01*
X144339209Y-103181734D01*
X144350000Y-103226680D01*
X144350000Y-104418311D01*
X144345154Y-104448904D01*
X144337607Y-104472131D01*
X144313457Y-104511542D01*
X144190082Y-104634917D01*
X144165025Y-104653121D01*
X144143267Y-104664208D01*
X144098320Y-104675000D01*
X142850000Y-104675000D01*
X142450000Y-105075000D01*
X142450000Y-105075001D01*
X142450000Y-106618311D01*
X142445154Y-106648904D01*
X142437607Y-106672131D01*
X142413457Y-106711542D01*
X141952582Y-107172417D01*
X141927525Y-107190621D01*
X141905767Y-107201708D01*
X141860820Y-107212500D01*
X140444188Y-107212500D01*
X140413595Y-107207654D01*
X140390368Y-107200107D01*
X140350957Y-107175957D01*
X139890082Y-106715082D01*
X139871876Y-106690023D01*
X139860788Y-106668261D01*
X139850000Y-106623319D01*
X139850000Y-103375000D01*
X139849998Y-103374998D01*
X139390084Y-102915083D01*
X139371878Y-102890024D01*
X139360790Y-102868262D01*
X139350000Y-102823318D01*
X139350000Y-101879954D01*
X139352547Y-101857643D01*
X139357510Y-101836187D01*
X139365023Y-101815016D01*
X139365573Y-101813893D01*
X139375500Y-101745760D01*
X139375500Y-101379240D01*
X139365573Y-101311107D01*
X139365505Y-101310969D01*
X139365022Y-101309979D01*
X139357510Y-101288813D01*
X139352546Y-101267357D01*
X139350000Y-101245046D01*
X139350000Y-101175001D01*
X139350000Y-101175000D01*
X139250000Y-101075000D01*
X139249999Y-101075000D01*
X139158714Y-101075000D01*
X139143934Y-101073890D01*
X139138278Y-101073036D01*
X139103194Y-101067738D01*
X139092890Y-101067045D01*
X139062426Y-101062607D01*
X139058260Y-101062000D01*
X139058259Y-101062000D01*
X137966742Y-101062000D01*
X137966740Y-101062000D01*
X137932066Y-101067052D01*
X137929386Y-101066593D01*
X137890907Y-101072404D01*
X137881064Y-101073890D01*
X137866285Y-101075000D01*
X137806688Y-101075000D01*
X137776095Y-101070154D01*
X137752868Y-101062607D01*
X137713457Y-101038457D01*
X137590082Y-100915082D01*
X137571876Y-100890023D01*
X137560788Y-100868261D01*
X137550000Y-100823319D01*
X137550000Y-100431688D01*
X137554844Y-100401099D01*
X137562391Y-100377868D01*
X137586540Y-100338459D01*
X137709920Y-100215079D01*
X137734972Y-100196878D01*
X137756739Y-100185788D01*
X137801680Y-100175000D01*
X139693312Y-100175000D01*
X139723903Y-100179845D01*
G37*
%TD.AperFunction*%
%TD*%
%TA.AperFunction,Conductor*%
%TO.N,GND*%
G36*
X162817683Y-54419407D02*
G01*
X162829496Y-54429496D01*
X162971004Y-54571004D01*
X162998781Y-54625521D01*
X163000000Y-54641008D01*
X163000000Y-57058992D01*
X162981093Y-57117183D01*
X162971004Y-57128996D01*
X162728996Y-57371004D01*
X162674479Y-57398781D01*
X162658992Y-57400000D01*
X160941008Y-57400000D01*
X160882817Y-57381093D01*
X160871004Y-57371004D01*
X160628996Y-57128996D01*
X160601219Y-57074479D01*
X160600000Y-57058992D01*
X160600000Y-54641008D01*
X160618907Y-54582817D01*
X160628996Y-54571004D01*
X160770504Y-54429496D01*
X160825021Y-54401719D01*
X160840508Y-54400500D01*
X162759492Y-54400500D01*
X162817683Y-54419407D01*
G37*
%TD.AperFunction*%
%TD*%
%TA.AperFunction,Conductor*%
%TO.N,/IO/IO2/P_VBUS*%
G36*
X168817183Y-67318907D02*
G01*
X168828996Y-67328996D01*
X168971004Y-67471004D01*
X168998781Y-67525521D01*
X169000000Y-67541008D01*
X169000000Y-69358992D01*
X168981093Y-69417183D01*
X168971004Y-69428996D01*
X168928996Y-69471004D01*
X168874479Y-69498781D01*
X168858992Y-69500000D01*
X168100000Y-69500000D01*
X168100000Y-69100000D01*
X166100000Y-69100000D01*
X166100000Y-68700000D01*
X166099999Y-68700000D01*
X164241008Y-68700000D01*
X164182817Y-68681093D01*
X164171004Y-68671004D01*
X164128996Y-68628996D01*
X164101219Y-68574479D01*
X164100000Y-68558992D01*
X164100000Y-68041008D01*
X164118907Y-67982817D01*
X164128996Y-67971004D01*
X164171004Y-67928996D01*
X164225521Y-67901219D01*
X164241008Y-67900000D01*
X165999999Y-67900000D01*
X166000000Y-67900000D01*
X166571004Y-67328996D01*
X166625521Y-67301219D01*
X166641008Y-67300000D01*
X168758992Y-67300000D01*
X168817183Y-67318907D01*
G37*
%TD.AperFunction*%
%TD*%
%TA.AperFunction,Conductor*%
%TO.N,+5V*%
G36*
X138967183Y-102893907D02*
G01*
X138978996Y-102903996D01*
X139321004Y-103246004D01*
X139348781Y-103300521D01*
X139350000Y-103316008D01*
X139350000Y-106533992D01*
X139331093Y-106592183D01*
X139321004Y-106603996D01*
X138778996Y-107146004D01*
X138724479Y-107173781D01*
X138708992Y-107175000D01*
X136550000Y-107175000D01*
X135311500Y-108413500D01*
X135241496Y-108483504D01*
X135186979Y-108511281D01*
X135171492Y-108512500D01*
X128849000Y-108512500D01*
X128790809Y-108493593D01*
X128754845Y-108444093D01*
X128750000Y-108413500D01*
X128750000Y-105816008D01*
X128768907Y-105757817D01*
X128778996Y-105746004D01*
X129221004Y-105303996D01*
X129275521Y-105276219D01*
X129291008Y-105275000D01*
X136649999Y-105275000D01*
X136650000Y-105275000D01*
X136950000Y-104975000D01*
X136950000Y-103216008D01*
X136968907Y-103157817D01*
X136978996Y-103146004D01*
X137221004Y-102903996D01*
X137275521Y-102876219D01*
X137291008Y-102875000D01*
X138908992Y-102875000D01*
X138967183Y-102893907D01*
G37*
%TD.AperFunction*%
%TD*%
%TA.AperFunction,Conductor*%
%TO.N,/IO/IO2/P_VBUS*%
G36*
X168100000Y-71400000D02*
G01*
X166100000Y-71400000D01*
X166100000Y-71104187D01*
X166118907Y-71045996D01*
X166168407Y-71010032D01*
X166229593Y-71010032D01*
X166236889Y-71012724D01*
X166237506Y-71012979D01*
X166237515Y-71012984D01*
X166377525Y-71050500D01*
X166377526Y-71050500D01*
X166522474Y-71050500D01*
X166522475Y-71050500D01*
X166662485Y-71012984D01*
X166662487Y-71012982D01*
X166662489Y-71012982D01*
X166788010Y-70940512D01*
X166788010Y-70940511D01*
X166788015Y-70940509D01*
X166890509Y-70838015D01*
X166962984Y-70712485D01*
X167000500Y-70572475D01*
X167000500Y-70427525D01*
X166962984Y-70287515D01*
X166962982Y-70287512D01*
X166962982Y-70287510D01*
X166890512Y-70161989D01*
X166890510Y-70161987D01*
X166890509Y-70161985D01*
X166788015Y-70059491D01*
X166788012Y-70059489D01*
X166788010Y-70059487D01*
X166662488Y-69987017D01*
X166662489Y-69987017D01*
X166562034Y-69960100D01*
X166522475Y-69949500D01*
X166377525Y-69949500D01*
X166337966Y-69960100D01*
X166237510Y-69987017D01*
X166236877Y-69987280D01*
X166236388Y-69987318D01*
X166231247Y-69988696D01*
X166230991Y-69987742D01*
X166175880Y-69992074D01*
X166123714Y-69960100D01*
X166100304Y-69903570D01*
X166100000Y-69895812D01*
X166100000Y-69100000D01*
X168100000Y-69100000D01*
X168100000Y-71400000D01*
G37*
%TD.AperFunction*%
%TD*%
%TA.AperFunction,Conductor*%
%TO.N,GND*%
G36*
X136123903Y-99417345D02*
G01*
X136136240Y-99421353D01*
X136147129Y-99424891D01*
X136186542Y-99449042D01*
X136809917Y-100072417D01*
X136828122Y-100097475D01*
X136839209Y-100119234D01*
X136850000Y-100164180D01*
X136850000Y-100812500D01*
X137250000Y-101212500D01*
X137576247Y-101212500D01*
X137627972Y-101227087D01*
X137645498Y-101237827D01*
X137645502Y-101237828D01*
X137645509Y-101237833D01*
X137683054Y-101255140D01*
X137689364Y-101258049D01*
X137712591Y-101265596D01*
X137743944Y-101273123D01*
X137774537Y-101277969D01*
X137806688Y-101280500D01*
X137866272Y-101280500D01*
X137866285Y-101280500D01*
X137881676Y-101279923D01*
X137896455Y-101278813D01*
X137911748Y-101277086D01*
X137948460Y-101271541D01*
X137957827Y-101270898D01*
X137957812Y-101270662D01*
X137961693Y-101270405D01*
X137961693Y-101270404D01*
X137961695Y-101270405D01*
X137971233Y-101269015D01*
X137974537Y-101268534D01*
X137988810Y-101267500D01*
X139036191Y-101267500D01*
X139050463Y-101268534D01*
X139063273Y-101270400D01*
X139067803Y-101270881D01*
X139074824Y-101271627D01*
X139130692Y-101296574D01*
X139159396Y-101342316D01*
X139163548Y-101356531D01*
X139166484Y-101370009D01*
X139168965Y-101387031D01*
X139170000Y-101401310D01*
X139170000Y-101723688D01*
X139168965Y-101737965D01*
X139166485Y-101754982D01*
X139163551Y-101768457D01*
X139157294Y-101789882D01*
X139157292Y-101789890D01*
X139152338Y-101811306D01*
X139152331Y-101811343D01*
X139148373Y-101834336D01*
X139148369Y-101834363D01*
X139145826Y-101856634D01*
X139145826Y-101856639D01*
X139144500Y-101879949D01*
X139144500Y-101976992D01*
X139125593Y-102035183D01*
X139115502Y-102046997D01*
X139090080Y-102072418D01*
X139065025Y-102090621D01*
X139043267Y-102101708D01*
X138998320Y-102112500D01*
X137150000Y-102112500D01*
X136550000Y-102712500D01*
X136550000Y-102712501D01*
X136550000Y-104055811D01*
X136545154Y-104086404D01*
X136537607Y-104109631D01*
X136513457Y-104149042D01*
X136190082Y-104472417D01*
X136165025Y-104490621D01*
X136143267Y-104501708D01*
X136098320Y-104512500D01*
X129406688Y-104512500D01*
X129376095Y-104507654D01*
X129352868Y-104500107D01*
X129313457Y-104475957D01*
X128490082Y-103652582D01*
X128471876Y-103627523D01*
X128460788Y-103605761D01*
X128450000Y-103560819D01*
X128450000Y-99869188D01*
X128454844Y-99838599D01*
X128462391Y-99815368D01*
X128486540Y-99775959D01*
X128809920Y-99452579D01*
X128834972Y-99434378D01*
X128856739Y-99423288D01*
X128901680Y-99412500D01*
X136093312Y-99412500D01*
X136123903Y-99417345D01*
G37*
%TD.AperFunction*%
%TD*%
%TA.AperFunction,Conductor*%
%TO.N,GND*%
G36*
X131117183Y-69918907D02*
G01*
X131128996Y-69928996D01*
X131371004Y-70171004D01*
X131398781Y-70225521D01*
X131400000Y-70241008D01*
X131400000Y-71958992D01*
X131381093Y-72017183D01*
X131371004Y-72028996D01*
X131128996Y-72271004D01*
X131074479Y-72298781D01*
X131058992Y-72300000D01*
X128641008Y-72300000D01*
X128582817Y-72281093D01*
X128571004Y-72271004D01*
X128429496Y-72129496D01*
X128401719Y-72074979D01*
X128400500Y-72059492D01*
X128400500Y-70140508D01*
X128419407Y-70082317D01*
X128429496Y-70070504D01*
X128571004Y-69928996D01*
X128625521Y-69901219D01*
X128641008Y-69900000D01*
X131058992Y-69900000D01*
X131117183Y-69918907D01*
G37*
%TD.AperFunction*%
%TD*%
M02*
