M48
; DRILL file KiCad 10.0.5 date 2026-08-18T20:05:40
; FORMAT={-:-/ absolute / metric / decimal}
; #@! TF.CreationDate,2026-08-18T20:05:40+05:30
; #@! TF.GenerationSoftware,Kicad,Pcbnew,10.0.5
; #@! TF.FileFunction,MixedPlating,1,4
FMAT,2
METRIC
; #@! TA.AperFunction,Plated,PTH,ViaDrill
T1C0.300
; #@! TA.AperFunction,Plated,PTH,ComponentDrill
T2C0.600
; #@! TA.AperFunction,Plated,PTH,ComponentDrill
T3C1.000
; #@! TA.AperFunction,NonPlated,NPTH,ComponentDrill
T4C0.650
; #@! TA.AperFunction,NonPlated,NPTH,ComponentDrill
T5C3.200
%
G90
G05
T1
X128.95Y-62.0
X128.95Y-83.7
X129.05Y-91.3
X129.1Y-71.8
X129.4Y-66.5
X129.45Y-107.912
X129.55Y-96.012
X129.85Y-62.0
X129.85Y-83.7
X129.95Y-91.3
X130.0Y-71.8
X130.05Y-88.3
X130.6Y-75.5
X130.6Y-77.4
X130.6Y-79.4
X130.75Y-62.0
X130.75Y-83.7
X130.75Y-107.912
X130.85Y-91.3
X130.9Y-71.8
X130.9Y-110.5
X131.05Y-96.012
X131.1Y-66.5
X131.15Y-88.4
X131.25Y-87.4
X131.3Y-73.7
X131.35Y-101.012
X131.55Y-102.012
X132.05Y-107.912
X132.25Y-80.594
X132.35Y-96.012
X132.65Y-102.012
X132.75Y-103.112
X132.8Y-72.9
X134.2Y-60.6
X134.5Y-80.6
X134.5Y-114.8
X134.7Y-72.9
X135.0Y-59.6
X135.15Y-84.1
X135.2Y-54.9
X135.2Y-55.8
X135.2Y-56.7
X135.2Y-87.6
X135.3Y-89.2
X135.9Y-94.5
X136.1Y-112.3
X136.6Y-80.6
X136.6Y-88.2
X136.7Y-71.7
X136.7Y-87.1
X136.8Y-72.9
X137.0Y-107.95
X137.2Y-79.15
X137.2Y-94.4
X137.4Y-75.7
X138.0Y-71.7
X138.15Y-78.3
X138.2Y-90.3
X138.4Y-73.5
X138.745Y-109.45
X138.895Y-110.3
X139.15Y-96.412
X139.2Y-79.5
X139.2Y-80.6
X139.4Y-57.1
X139.4Y-77.6
X139.8Y-108.0
X139.9Y-75.0
X139.95Y-93.05
X139.95Y-94.3
X139.95Y-95.55
X140.0Y-91.5
X140.5Y-64.2
X140.5Y-114.6
X140.8Y-57.1
X141.2Y-93.675
X141.2Y-94.925
X141.2Y-96.175
X141.3Y-77.6
X141.3Y-91.4
X141.35Y-71.85
X141.5Y-61.7
X141.5Y-63.1
X141.8Y-75.0
X142.1Y-64.9
X142.45Y-93.05
X142.45Y-94.3
X142.45Y-95.55
X142.6Y-70.0
X142.8Y-85.1
X143.0Y-67.1
X143.2Y-77.6
X143.5Y-75.0
X143.7Y-85.5
X144.1Y-82.9
X144.5Y-86.5
X144.575Y-105.7
X144.6Y-83.7
X144.6Y-87.5
X144.8Y-99.7
X144.85Y-97.4
X144.9Y-55.1
X144.9Y-56.0
X144.9Y-56.9
X144.945Y-108.2
X144.945Y-109.2
X144.945Y-110.2
X144.945Y-111.4
X145.2Y-104.45
X145.5Y-83.6
X145.825Y-105.7
X145.9Y-94.2
X146.1Y-115.8
X146.4Y-89.8
X146.45Y-104.45
X146.45Y-106.95
X146.5Y-65.9
X146.5Y-73.9
X146.6Y-76.0
X146.8Y-79.0
X147.075Y-105.7
X147.6Y-66.0
X147.7Y-89.7
X147.7Y-104.45
X147.7Y-106.95
X147.8Y-62.05
X147.8Y-63.3
X148.05Y-99.5
X148.25Y-91.45
X148.3Y-100.9
X148.4Y-55.0
X148.4Y-55.9
X148.4Y-56.8
X148.4Y-98.1
X148.8Y-90.5
X149.0Y-92.9
X149.3Y-93.8
X149.3Y-117.1
X149.3Y-118.0
X149.65Y-73.8
X149.7Y-110.5
X149.9Y-77.35
X149.9Y-82.15
X150.2Y-102.0
X150.8Y-74.4
X151.3Y-91.2
X151.3Y-102.0
X151.4Y-56.5
X151.4Y-78.7
X151.6Y-82.1
X151.7Y-92.3
X151.7Y-94.6
X151.75Y-106.5
X151.8Y-105.15
X151.9Y-79.5
X152.0Y-55.7
X152.1Y-57.3
X152.1Y-74.1
X152.3Y-93.8
X152.5Y-78.3
X152.75Y-63.5
X153.1Y-77.0
X153.2Y-74.9
X153.3Y-105.2
X153.307Y-108.543
X153.6Y-78.75
X153.7Y-94.0
X153.8Y-63.6
X153.8Y-79.9
X154.1Y-77.2
X154.25Y-76.2
X154.25Y-102.1
X154.5Y-74.85
X154.5Y-117.1
X154.5Y-118.0
X154.6Y-79.2
X154.6Y-80.5
X154.8Y-55.0
X154.8Y-55.9
X154.8Y-56.8
X155.0Y-99.3
X155.0Y-100.4
X155.05Y-74.1
X155.1Y-94.3
X155.1Y-95.95
X155.3Y-87.3
X155.35Y-112.05
X155.65Y-64.7
X155.7Y-73.4
X156.1Y-90.3
X156.4Y-87.2
X156.5Y-104.9
X156.5Y-113.0
X156.75Y-111.0
X157.0Y-90.3
X157.6Y-65.1
X157.9Y-67.0
X157.9Y-70.8
X157.9Y-113.85
X158.0Y-62.1
X158.0Y-63.4
X158.7Y-71.6
X158.9Y-69.3
X158.9Y-82.3
X159.1Y-98.5
X159.65Y-65.3
X159.7Y-81.8
X159.8Y-67.0
X159.9Y-71.8
X160.2Y-98.6
X160.6Y-71.0
X160.65Y-89.05
X160.65Y-92.85
X160.9Y-106.1
X161.0Y-55.0
X161.0Y-55.9
X161.0Y-56.8
X161.0Y-68.9
X161.05Y-96.25
X161.2Y-84.45
X161.4Y-86.8
X161.5Y-85.7
X161.6Y-63.5
X161.75Y-107.05
X162.25Y-97.3
X162.6Y-94.7
X162.8Y-92.0
X162.9Y-67.2
X162.9Y-71.2
X163.6Y-92.8
X163.6Y-96.0
X163.8Y-105.0
X163.9Y-113.6
X163.95Y-75.7
X164.2Y-77.1
X164.6Y-65.6
X164.7Y-78.0
X164.8Y-103.1
X164.85Y-74.5
X165.05Y-71.8
X165.4Y-110.9
X165.6Y-105.2
X165.9Y-113.875
X165.95Y-64.05
X166.08Y-88.307
X166.2Y-102.3
X166.35Y-91.15
X166.35Y-108.05
X166.45Y-70.5
X166.45Y-96.75
X166.45Y-99.45
X166.6Y-79.9
X166.7Y-85.507
X166.7Y-105.2
X166.7Y-112.3
X166.9Y-110.95
X166.95Y-76.7
X167.1Y-88.3
X167.2Y-102.4
X167.35Y-91.1
X167.35Y-93.95
X167.5Y-82.75
X167.65Y-96.707
X167.7Y-85.5
X168.1Y-113.6
X168.25Y-108.15
X168.3Y-99.5
X168.35Y-105.3
X168.4Y-61.7
X168.4Y-63.1
X168.45Y-102.4
X168.49Y-65.6
X168.49Y-66.45
X168.49Y-67.75
X168.49Y-68.95
X168.55Y-71.8
X168.55Y-73.0
X168.55Y-74.2
X168.55Y-75.1
X168.6Y-80.0
X168.8Y-94.0
X168.85Y-76.6
X168.85Y-88.35
X168.9Y-82.75
X168.9Y-91.1
X168.95Y-85.55
X169.5Y-113.275
X170.9Y-55.05
X170.9Y-55.95
X170.9Y-56.85
X172.5Y-68.4
X173.8Y-67.4
X176.375Y-67.7
X176.375Y-70.2
X176.375Y-72.7
X176.5Y-62.1
X177.0Y-68.95
X177.0Y-71.45
T3
X170.8Y-95.407
X170.8Y-98.207
X170.8Y-101.007
X170.8Y-103.785
X170.82Y-78.5
X170.82Y-81.3
X170.82Y-84.1
X170.82Y-86.9
X170.82Y-89.742
X170.82Y-92.6
X170.82Y-106.6
X170.82Y-109.457
X173.34Y-95.407
X173.34Y-98.207
X173.34Y-101.007
X173.34Y-103.785
X173.36Y-78.5
X173.36Y-81.3
X173.36Y-84.1
X173.36Y-86.9
X173.36Y-89.742
X173.36Y-92.6
X173.36Y-106.6
X173.36Y-109.457
X175.88Y-95.407
X175.88Y-98.207
X175.88Y-101.007
X175.88Y-103.785
X175.9Y-78.5
X175.9Y-81.3
X175.9Y-84.1
X175.9Y-86.9
X175.9Y-89.742
X175.9Y-92.6
X175.9Y-106.6
X175.9Y-109.457
T4
X171.32Y-67.41
X171.32Y-73.19
T5
X131.5Y-57.5
X131.5Y-115.5
X174.5Y-57.5
X174.5Y-115.5
T2
G00X170.27Y-65.98
M15
G01X171.37Y-65.98
M16
G05
G00X170.27Y-74.62
M15
G01X171.37Y-74.62
M16
G05
G00X174.6Y-65.98
M15
G01X175.4Y-65.98
M16
G05
G00X174.6Y-74.62
M15
G01X175.4Y-74.62
M16
G05
M30
