%TF.GenerationSoftware,KiCad,Pcbnew,10.0.5*%
%TF.CreationDate,2026-08-19T15:20:02+05:30*%
%TF.ProjectId,FeroFlyF405,4665726f-466c-4794-9634-30352e6b6963,1*%
%TF.SameCoordinates,Original*%
%TF.FileFunction,Soldermask,Top*%
%TF.FilePolarity,Negative*%
%FSLAX46Y46*%
G04 Gerber Fmt 4.6, Leading zero omitted, Abs format (unit mm)*
G04 Created by KiCad (PCBNEW 10.0.5) date 2026-08-19 15:20:02*
%MOMM*%
%LPD*%
G01*
G04 APERTURE LIST*
G04 Aperture macros list*
%AMRoundRect*
0 Rectangle with rounded corners*
0 $1 Rounding radius*
0 $2 $3 $4 $5 $6 $7 $8 $9 X,Y pos of 4 corners*
0 Add a 4 corners polygon primitive as box body*
4,1,4,$2,$3,$4,$5,$6,$7,$8,$9,$2,$3,0*
0 Add four circle primitives for the rounded corners*
1,1,$1+$1,$2,$3*
1,1,$1+$1,$4,$5*
1,1,$1+$1,$6,$7*
1,1,$1+$1,$8,$9*
0 Add four rect primitives between the rounded corners*
20,1,$1+$1,$2,$3,$4,$5,0*
20,1,$1+$1,$4,$5,$6,$7,0*
20,1,$1+$1,$6,$7,$8,$9,0*
20,1,$1+$1,$8,$9,$2,$3,0*%
%AMFreePoly0*
4,1,6,1.000000,0.000000,0.500000,-0.750000,-0.500000,-0.750000,-0.500000,0.750000,0.500000,0.750000,1.000000,0.000000,1.000000,0.000000,$1*%
%AMFreePoly1*
4,1,6,0.500000,-0.750000,-0.650000,-0.750000,-0.150000,0.000000,-0.650000,0.750000,0.500000,0.750000,0.500000,-0.750000,0.500000,-0.750000,$1*%
G04 Aperture macros list end*
%ADD10C,0.000000*%
%ADD11RoundRect,0.237500X0.237500X-0.287500X0.237500X0.287500X-0.237500X0.287500X-0.237500X-0.287500X0*%
%ADD12RoundRect,0.237500X-0.237500X0.250000X-0.237500X-0.250000X0.237500X-0.250000X0.237500X0.250000X0*%
%ADD13RoundRect,0.093750X0.044194X0.176777X-0.176777X-0.044194X-0.044194X-0.176777X0.176777X0.044194X0*%
%ADD14RoundRect,0.075000X0.123744X0.229810X-0.229810X-0.123744X-0.123744X-0.229810X0.229810X0.123744X0*%
%ADD15R,0.350000X0.500000*%
%ADD16RoundRect,0.237500X0.237500X-0.300000X0.237500X0.300000X-0.237500X0.300000X-0.237500X-0.300000X0*%
%ADD17R,1.700000X1.700000*%
%ADD18C,1.700000*%
%ADD19RoundRect,0.237500X-0.300000X-0.237500X0.300000X-0.237500X0.300000X0.237500X-0.300000X0.237500X0*%
%ADD20RoundRect,0.237500X0.237500X-0.250000X0.237500X0.250000X-0.237500X0.250000X-0.237500X-0.250000X0*%
%ADD21RoundRect,0.150000X0.150000X0.700000X-0.150000X0.700000X-0.150000X-0.700000X0.150000X-0.700000X0*%
%ADD22RoundRect,0.250000X0.250000X1.100000X-0.250000X1.100000X-0.250000X-1.100000X0.250000X-1.100000X0*%
%ADD23RoundRect,0.237500X0.300000X0.237500X-0.300000X0.237500X-0.300000X-0.237500X0.300000X-0.237500X0*%
%ADD24C,0.650000*%
%ADD25RoundRect,0.102000X0.537500X-0.300000X0.537500X0.300000X-0.537500X0.300000X-0.537500X-0.300000X0*%
%ADD26RoundRect,0.102000X0.570000X-0.150000X0.570000X0.150000X-0.570000X0.150000X-0.570000X-0.150000X0*%
%ADD27O,2.304000X1.254000*%
%ADD28O,2.004000X1.104000*%
%ADD29RoundRect,0.093750X0.093750X0.106250X-0.093750X0.106250X-0.093750X-0.106250X0.093750X-0.106250X0*%
%ADD30R,1.000000X1.600000*%
%ADD31RoundRect,0.150000X-0.150000X0.825000X-0.150000X-0.825000X0.150000X-0.825000X0.150000X0.825000X0*%
%ADD32C,1.000000*%
%ADD33RoundRect,0.237500X0.380070X-0.044194X-0.044194X0.380070X-0.380070X0.044194X0.044194X-0.380070X0*%
%ADD34RoundRect,0.250000X0.475000X-0.337500X0.475000X0.337500X-0.475000X0.337500X-0.475000X-0.337500X0*%
%ADD35RoundRect,0.250000X-0.337500X-0.475000X0.337500X-0.475000X0.337500X0.475000X-0.337500X0.475000X0*%
%ADD36C,3.200000*%
%ADD37RoundRect,0.250000X-0.475000X0.337500X-0.475000X-0.337500X0.475000X-0.337500X0.475000X0.337500X0*%
%ADD38R,2.000000X2.000000*%
%ADD39RoundRect,0.237500X-0.237500X0.300000X-0.237500X-0.300000X0.237500X-0.300000X0.237500X0.300000X0*%
%ADD40RoundRect,0.250000X0.337500X0.475000X-0.337500X0.475000X-0.337500X-0.475000X0.337500X-0.475000X0*%
%ADD41RoundRect,0.075000X-0.700000X-0.075000X0.700000X-0.075000X0.700000X0.075000X-0.700000X0.075000X0*%
%ADD42RoundRect,0.075000X-0.075000X-0.700000X0.075000X-0.700000X0.075000X0.700000X-0.075000X0.700000X0*%
%ADD43R,0.900000X1.000000*%
%ADD44FreePoly0,0.000000*%
%ADD45FreePoly1,0.000000*%
%ADD46RoundRect,0.087500X-0.225000X-0.087500X0.225000X-0.087500X0.225000X0.087500X-0.225000X0.087500X0*%
%ADD47RoundRect,0.087500X-0.087500X-0.225000X0.087500X-0.225000X0.087500X0.225000X-0.087500X0.225000X0*%
%ADD48RoundRect,0.150000X-0.309359X-0.521491X0.521491X0.309359X0.309359X0.521491X-0.521491X-0.309359X0*%
%ADD49RoundRect,0.237500X-0.250000X-0.237500X0.250000X-0.237500X0.250000X0.237500X-0.250000X0.237500X0*%
%ADD50RoundRect,0.250000X0.097227X-0.574524X0.574524X-0.097227X-0.097227X0.574524X-0.574524X0.097227X0*%
%ADD51RoundRect,0.237500X-0.237500X0.287500X-0.237500X-0.287500X0.237500X-0.287500X0.237500X0.287500X0*%
%ADD52RoundRect,0.237500X-0.044194X-0.380070X0.380070X0.044194X0.044194X0.380070X-0.380070X-0.044194X0*%
%ADD53RoundRect,0.125000X-0.125000X0.125000X-0.125000X-0.125000X0.125000X-0.125000X0.125000X0.125000X0*%
%ADD54RoundRect,0.250000X0.350000X-0.450000X0.350000X0.450000X-0.350000X0.450000X-0.350000X-0.450000X0*%
%ADD55RoundRect,0.150000X-0.150000X-0.700000X0.150000X-0.700000X0.150000X0.700000X-0.150000X0.700000X0*%
%ADD56RoundRect,0.250000X-0.250000X-1.100000X0.250000X-1.100000X0.250000X1.100000X-0.250000X1.100000X0*%
%ADD57RoundRect,0.250000X0.400000X0.625000X-0.400000X0.625000X-0.400000X-0.625000X0.400000X-0.625000X0*%
G04 APERTURE END LIST*
D10*
%TO.C,JP601*%
G36*
X156325000Y-131400000D02*
G01*
X153875000Y-131400000D01*
X153875000Y-129900000D01*
X156325000Y-129900000D01*
X156325000Y-131400000D01*
G37*
%TD*%
D11*
%TO.C,D602*%
X163100000Y-133300000D03*
X163100000Y-131550000D03*
%TD*%
D12*
%TO.C,R206*%
X127600000Y-107037500D03*
X127600000Y-108862500D03*
%TD*%
D13*
%TO.C,U901*%
X161071111Y-87829029D03*
D14*
X160744074Y-87395926D03*
D13*
X160310971Y-87068889D03*
X159108889Y-88270971D03*
D14*
X159435926Y-88704074D03*
D13*
X159869029Y-89031111D03*
%TD*%
D15*
%TO.C,U502*%
X134625000Y-103150000D03*
X135275000Y-103150000D03*
X135925000Y-103150000D03*
X136575000Y-103150000D03*
X136575000Y-104750000D03*
X135925000Y-104750000D03*
X135275000Y-104750000D03*
X134625000Y-104750000D03*
%TD*%
D16*
%TO.C,C301*%
X132300000Y-86212500D03*
X132300000Y-84487500D03*
%TD*%
D17*
%TO.C,J902*%
X170900000Y-97550000D03*
D18*
X168360000Y-97550000D03*
X165820000Y-97550000D03*
%TD*%
D19*
%TO.C,R308*%
X134737500Y-99250000D03*
X136462500Y-99250000D03*
%TD*%
D20*
%TO.C,R201*%
X136700000Y-132862500D03*
X136700000Y-131037500D03*
%TD*%
D16*
%TO.C,C314*%
X135600000Y-97012500D03*
X135600000Y-95287500D03*
%TD*%
%TO.C,R604*%
X151700000Y-118050000D03*
X151700000Y-116325000D03*
%TD*%
D21*
%TO.C,J802*%
X162875000Y-75350000D03*
X161625000Y-75350000D03*
X160375000Y-75350000D03*
X159125000Y-75350000D03*
D22*
X164725000Y-72150000D03*
X157275000Y-72150000D03*
%TD*%
D23*
%TO.C,C312*%
X143262500Y-102350000D03*
X141537500Y-102350000D03*
%TD*%
D24*
%TO.C,J913*%
X166320000Y-89440000D03*
X166320000Y-83660000D03*
D25*
X165137500Y-89750000D03*
X165137500Y-88950000D03*
D26*
X165250000Y-87800000D03*
X165250000Y-86800000D03*
X165250000Y-86300000D03*
X165250000Y-85300000D03*
D25*
X165137500Y-83350000D03*
X165137500Y-84150000D03*
D26*
X165250000Y-84800000D03*
X165250000Y-85800000D03*
X165250000Y-87300000D03*
X165250000Y-88300000D03*
D27*
X165820000Y-90870000D03*
X165820000Y-82230000D03*
D28*
X170000000Y-90870000D03*
X170000000Y-82230000D03*
%TD*%
D17*
%TO.C,J909*%
X170880000Y-117257500D03*
D18*
X168340000Y-117257500D03*
X165800000Y-117257500D03*
%TD*%
D16*
%TO.C,C313*%
X137500000Y-97012500D03*
X137500000Y-95287500D03*
%TD*%
D29*
%TO.C,U202*%
X134700000Y-126750000D03*
X134700000Y-126100000D03*
X134700000Y-125450000D03*
X132925000Y-125450000D03*
X132925000Y-126100000D03*
X132925000Y-126750000D03*
D30*
X133812500Y-126100000D03*
%TD*%
D21*
%TO.C,J804*%
X136887500Y-75300000D03*
X135637500Y-75300000D03*
X134387500Y-75300000D03*
X133137500Y-75300000D03*
D22*
X138737500Y-72100000D03*
X131287500Y-72100000D03*
%TD*%
D16*
%TO.C,R205*%
X129700000Y-108812500D03*
X129700000Y-107087500D03*
%TD*%
D31*
%TO.C,U601*%
X156705000Y-120375000D03*
X155435000Y-120375000D03*
X154165000Y-120375000D03*
X152895000Y-120375000D03*
X152895000Y-125325000D03*
X154165000Y-125325000D03*
X155435000Y-125325000D03*
X156705000Y-125325000D03*
%TD*%
D19*
%TO.C,C501*%
X144837500Y-116850000D03*
X146562500Y-116850000D03*
%TD*%
D32*
%TO.C,TP804*%
X131300000Y-77350000D03*
%TD*%
%TO.C,TP503*%
X145300000Y-108650000D03*
%TD*%
D33*
%TO.C,C308*%
X152909880Y-89059880D03*
X151690120Y-87840120D03*
%TD*%
D34*
%TO.C,C602*%
X143000000Y-128787500D03*
X143000000Y-126712500D03*
%TD*%
D32*
%TO.C,TP502*%
X148100000Y-108550000D03*
%TD*%
D11*
%TO.C,D601*%
X158900000Y-133270000D03*
X158900000Y-131520000D03*
%TD*%
D35*
%TO.C,C306*%
X141062500Y-83950000D03*
X143137500Y-83950000D03*
%TD*%
D16*
%TO.C,C302*%
X132300000Y-81312500D03*
X132300000Y-79587500D03*
%TD*%
D36*
%TO.C,H104*%
X126500000Y-131750000D03*
%TD*%
D17*
%TO.C,J911*%
X170900000Y-122850000D03*
D18*
X168360000Y-122850000D03*
X165820000Y-122850000D03*
%TD*%
D37*
%TO.C,C801*%
X154800000Y-77950000D03*
X154800000Y-80025000D03*
%TD*%
D36*
%TO.C,H103*%
X169500000Y-131750000D03*
%TD*%
D38*
%TO.C,TP202*%
X124450000Y-117862500D03*
%TD*%
D39*
%TO.C,C304*%
X130950000Y-90287500D03*
X130950000Y-92012500D03*
%TD*%
D16*
%TO.C,C203*%
X136400000Y-126912500D03*
X136400000Y-125187500D03*
%TD*%
D19*
%TO.C,C305*%
X127237500Y-95550000D03*
X128962500Y-95550000D03*
%TD*%
D20*
%TO.C,R504*%
X138275000Y-104862500D03*
X138275000Y-103037500D03*
%TD*%
D19*
%TO.C,C307*%
X149937500Y-102250000D03*
X151662500Y-102250000D03*
%TD*%
D40*
%TO.C,C303*%
X143237500Y-104450000D03*
X141162500Y-104450000D03*
%TD*%
D41*
%TO.C,U301*%
X140025000Y-90500000D03*
X140025000Y-91000000D03*
X140025000Y-91500000D03*
X140025000Y-92000000D03*
X140025000Y-92500000D03*
X140025000Y-93000000D03*
X140025000Y-93500000D03*
X140025000Y-94000000D03*
X140025000Y-94500000D03*
X140025000Y-95000000D03*
X140025000Y-95500000D03*
X140025000Y-96000000D03*
X140025000Y-96500000D03*
X140025000Y-97000000D03*
X140025000Y-97500000D03*
X140025000Y-98000000D03*
D42*
X141950000Y-99925000D03*
X142450000Y-99925000D03*
X142950000Y-99925000D03*
X143450000Y-99925000D03*
X143950000Y-99925000D03*
X144450000Y-99925000D03*
X144950000Y-99925000D03*
X145450000Y-99925000D03*
X145950000Y-99925000D03*
X146450000Y-99925000D03*
X146950000Y-99925000D03*
X147450000Y-99925000D03*
X147950000Y-99925000D03*
X148450000Y-99925000D03*
X148950000Y-99925000D03*
X149450000Y-99925000D03*
D41*
X151375000Y-98000000D03*
X151375000Y-97500000D03*
X151375000Y-97000000D03*
X151375000Y-96500000D03*
X151375000Y-96000000D03*
X151375000Y-95500000D03*
X151375000Y-95000000D03*
X151375000Y-94500000D03*
X151375000Y-94000000D03*
X151375000Y-93500000D03*
X151375000Y-93000000D03*
X151375000Y-92500000D03*
X151375000Y-92000000D03*
X151375000Y-91500000D03*
X151375000Y-91000000D03*
X151375000Y-90500000D03*
D42*
X149450000Y-88575000D03*
X148950000Y-88575000D03*
X148450000Y-88575000D03*
X147950000Y-88575000D03*
X147450000Y-88575000D03*
X146950000Y-88575000D03*
X146450000Y-88575000D03*
X145950000Y-88575000D03*
X145450000Y-88575000D03*
X144950000Y-88575000D03*
X144450000Y-88575000D03*
X143950000Y-88575000D03*
X143450000Y-88575000D03*
X142950000Y-88575000D03*
X142450000Y-88575000D03*
X141950000Y-88575000D03*
%TD*%
D43*
%TO.C,SW302*%
X128400000Y-81325000D03*
X124300000Y-81325000D03*
X128400000Y-79725000D03*
X124300000Y-79725000D03*
%TD*%
D17*
%TO.C,J905*%
X170900000Y-105992500D03*
D18*
X168360000Y-105992500D03*
X165820000Y-105992500D03*
%TD*%
D32*
%TO.C,TP807*%
X128700000Y-100550000D03*
%TD*%
D44*
%TO.C,JP601*%
X154375001Y-130650000D03*
D45*
X155824999Y-130650000D03*
%TD*%
D12*
%TO.C,R602*%
X165100000Y-131537500D03*
X165100000Y-133362500D03*
%TD*%
D17*
%TO.C,J907*%
X170880000Y-111657500D03*
D18*
X168340000Y-111657500D03*
X165800000Y-111657500D03*
%TD*%
D16*
%TO.C,C504*%
X132975000Y-104812501D03*
X132975000Y-103087499D03*
%TD*%
D39*
%TO.C,C210*%
X131800000Y-107087500D03*
X131800000Y-108812500D03*
%TD*%
D21*
%TO.C,J801*%
X152925000Y-75350000D03*
X151675000Y-75350000D03*
X150425000Y-75350000D03*
X149175000Y-75350000D03*
X147925000Y-75350000D03*
X146675000Y-75350000D03*
D22*
X154775000Y-72150000D03*
X144825000Y-72150000D03*
%TD*%
D46*
%TO.C,U501*%
X144637500Y-113400000D03*
X144637500Y-113900000D03*
X144637500Y-114400000D03*
X144637500Y-114900000D03*
D47*
X145300000Y-115062500D03*
X145800000Y-115062500D03*
X146300000Y-115062500D03*
D46*
X146962500Y-114900000D03*
X146962500Y-114400000D03*
X146962500Y-113900000D03*
X146962500Y-113400000D03*
D47*
X146300000Y-113237500D03*
X145800000Y-113237500D03*
X145300000Y-113237500D03*
%TD*%
D17*
%TO.C,J906*%
X170900000Y-108850000D03*
D18*
X168360000Y-108850000D03*
X165820000Y-108850000D03*
%TD*%
D16*
%TO.C,R310*%
X147400000Y-104612500D03*
X147400000Y-102887500D03*
%TD*%
D48*
%TO.C,D603*%
X147265336Y-124491161D03*
X148608839Y-125834664D03*
X149262913Y-123837087D03*
%TD*%
D49*
%TO.C,R503*%
X134662500Y-101450000D03*
X136487500Y-101450000D03*
%TD*%
D35*
%TO.C,C309*%
X149362500Y-105050000D03*
X151437500Y-105050000D03*
%TD*%
D19*
%TO.C,C601*%
X153837499Y-118004940D03*
X155562501Y-118004940D03*
%TD*%
D38*
%TO.C,TP201*%
X124450000Y-114362500D03*
%TD*%
D16*
%TO.C,R315*%
X154700000Y-101812500D03*
X154700000Y-100087500D03*
%TD*%
D11*
%TO.C,D201*%
X139000000Y-132825000D03*
X139000000Y-131075000D03*
%TD*%
D36*
%TO.C,H101*%
X126500000Y-73750000D03*
%TD*%
D17*
%TO.C,J903*%
X170900000Y-100350000D03*
D18*
X168360000Y-100350000D03*
X165820000Y-100350000D03*
%TD*%
D23*
%TO.C,C503*%
X136437501Y-106350000D03*
X134712499Y-106350000D03*
%TD*%
D16*
%TO.C,R301*%
X130400000Y-86212500D03*
X130400000Y-84487500D03*
%TD*%
D50*
%TO.C,C310*%
X154766377Y-90183623D03*
X156233623Y-88716377D03*
%TD*%
D12*
%TO.C,R601*%
X160900000Y-131512500D03*
X160900000Y-133337500D03*
%TD*%
D19*
%TO.C,C603*%
X153837499Y-116250000D03*
X155562501Y-116250000D03*
%TD*%
D20*
%TO.C,R603*%
X158800000Y-124562500D03*
X158800000Y-122737500D03*
%TD*%
D49*
%TO.C,R311*%
X144687500Y-80450000D03*
X146512500Y-80450000D03*
%TD*%
D32*
%TO.C,TP504*%
X150700000Y-108750000D03*
%TD*%
D39*
%TO.C,C502*%
X148600000Y-115087500D03*
X148600000Y-116812500D03*
%TD*%
D32*
%TO.C,TP801*%
X144100000Y-76750000D03*
%TD*%
D19*
%TO.C,C204*%
X132982500Y-128500000D03*
X134707500Y-128500000D03*
%TD*%
D51*
%TO.C,D202*%
X131900000Y-131075000D03*
X131900000Y-132825000D03*
%TD*%
D52*
%TO.C,R307*%
X148490120Y-84159880D03*
X149709880Y-82940120D03*
%TD*%
D20*
%TO.C,R204*%
X134350000Y-132862500D03*
X134350000Y-131037500D03*
%TD*%
%TO.C,R304*%
X134100000Y-81362500D03*
X134100000Y-79537500D03*
%TD*%
D53*
%TO.C,D203*%
X127450000Y-111162500D03*
X127450000Y-113362500D03*
%TD*%
D54*
%TO.C,Y301*%
X128950000Y-93550000D03*
X128950000Y-91350000D03*
X127250000Y-91350000D03*
X127250000Y-93550000D03*
%TD*%
D17*
%TO.C,J904*%
X170900000Y-103150000D03*
D18*
X168360000Y-103150000D03*
X165820000Y-103150000D03*
%TD*%
D43*
%TO.C,SW301*%
X128450000Y-86150000D03*
X124350000Y-86150000D03*
X128450000Y-84550000D03*
X124350000Y-84550000D03*
%TD*%
D32*
%TO.C,TP505*%
X140800000Y-107850000D03*
%TD*%
D16*
%TO.C,R302*%
X130400000Y-81300000D03*
X130400000Y-79575000D03*
%TD*%
D17*
%TO.C,J908*%
X170880000Y-114457500D03*
D18*
X168340000Y-114457500D03*
X165800000Y-114457500D03*
%TD*%
D19*
%TO.C,C311*%
X141237500Y-86150000D03*
X142962500Y-86150000D03*
%TD*%
D12*
%TO.C,R303*%
X134200000Y-84437500D03*
X134200000Y-86262500D03*
%TD*%
D36*
%TO.C,H102*%
X169500000Y-73750000D03*
%TD*%
D32*
%TO.C,TP805*%
X132200000Y-99250000D03*
%TD*%
D52*
%TO.C,R306*%
X150390120Y-86359880D03*
X151609880Y-85140120D03*
%TD*%
D37*
%TO.C,C804*%
X138600000Y-77962500D03*
X138600000Y-80037500D03*
%TD*%
D55*
%TO.C,J601*%
X145025000Y-130150000D03*
X146275000Y-130150000D03*
X147525000Y-130150000D03*
X148775000Y-130150000D03*
D56*
X143175000Y-133350000D03*
X150625000Y-133350000D03*
%TD*%
D16*
%TO.C,R501*%
X142600000Y-113212500D03*
X142600000Y-111487500D03*
%TD*%
D32*
%TO.C,TP501*%
X142600000Y-109250000D03*
%TD*%
D20*
%TO.C,R502*%
X148700000Y-113262500D03*
X148700000Y-111437500D03*
%TD*%
D34*
%TO.C,C201*%
X138600000Y-126987500D03*
X138600000Y-124912500D03*
%TD*%
D57*
%TO.C,R605*%
X156550001Y-128050000D03*
X153449999Y-128050000D03*
%TD*%
D17*
%TO.C,J901*%
X170900000Y-94750000D03*
D18*
X168360000Y-94750000D03*
X165820000Y-94750000D03*
%TD*%
D49*
%TO.C,R313*%
X144687500Y-78550000D03*
X146512500Y-78550000D03*
%TD*%
D16*
%TO.C,R309*%
X145200000Y-104612500D03*
X145200000Y-102887500D03*
%TD*%
D17*
%TO.C,J910*%
X170880000Y-120035000D03*
D18*
X168340000Y-120035000D03*
X165800000Y-120035000D03*
%TD*%
D39*
%TO.C,R305*%
X130950000Y-93787500D03*
X130950000Y-95512500D03*
%TD*%
D32*
%TO.C,TP806*%
X130800000Y-101850000D03*
%TD*%
%TO.C,TP802*%
X157500000Y-77650000D03*
%TD*%
D37*
%TO.C,C802*%
X165200000Y-77512500D03*
X165200000Y-79587500D03*
%TD*%
D17*
%TO.C,J912*%
X170900000Y-125707500D03*
D18*
X168360000Y-125707500D03*
X165820000Y-125707500D03*
%TD*%
M02*
