M48
; DRILL file KiCad 10.0.5 date 2026-08-20T20:39:20
; FORMAT={-:-/ absolute / metric / decimal}
; #@! TF.CreationDate,2026-08-20T20:39:20+05:30
; #@! TF.GenerationSoftware,Kicad,Pcbnew,10.0.5
; #@! TF.FileFunction,MixedPlating,1,4
FMAT,2
METRIC
; #@! TA.AperFunction,Plated,PTH,ViaDrill
T1C0.300
; #@! TA.AperFunction,Plated,PTH,ComponentDrill
T2C0.600
; #@! TA.AperFunction,Plated,PTH,ComponentDrill
T3C1.000
; #@! TA.AperFunction,NonPlated,NPTH,ComponentDrill
T4C0.650
; #@! TA.AperFunction,NonPlated,NPTH,ComponentDrill
T5C3.200
%
G90
G05
T1
X123.95Y-78.25
X123.95Y-99.95
X124.05Y-107.55
X124.1Y-88.05
X124.4Y-82.75
X124.45Y-124.162
X124.55Y-112.262
X124.85Y-78.25
X124.85Y-99.95
X124.95Y-107.55
X125.0Y-88.05
X125.05Y-104.55
X125.6Y-91.75
X125.6Y-93.65
X125.6Y-95.65
X125.75Y-78.25
X125.75Y-99.95
X125.75Y-124.162
X125.85Y-107.55
X125.9Y-88.05
X125.9Y-126.75
X126.05Y-112.262
X126.1Y-82.75
X126.15Y-104.65
X126.25Y-103.65
X126.3Y-89.95
X126.35Y-117.262
X126.55Y-118.262
X127.05Y-124.162
X127.25Y-96.844
X127.35Y-112.262
X127.65Y-118.262
X127.75Y-119.362
X127.8Y-89.15
X129.2Y-76.85
X129.5Y-96.85
X129.5Y-131.05
X129.7Y-89.15
X130.0Y-75.85
X130.15Y-100.35
X130.2Y-71.15
X130.2Y-72.05
X130.2Y-72.95
X130.2Y-103.85
X130.3Y-105.45
X130.9Y-110.75
X131.1Y-128.55
X131.6Y-96.85
X131.6Y-104.45
X131.7Y-87.95
X131.7Y-103.35
X131.8Y-89.15
X132.0Y-124.2
X132.2Y-95.4
X132.2Y-110.65
X132.4Y-91.95
X133.0Y-87.95
X133.15Y-94.55
X133.2Y-106.55
X133.4Y-89.75
X133.745Y-125.7
X133.895Y-126.55
X134.15Y-112.662
X134.2Y-95.75
X134.2Y-96.85
X134.4Y-72.4
X134.4Y-93.85
X134.8Y-124.25
X134.9Y-91.25
X134.95Y-109.3
X134.95Y-110.55
X134.95Y-111.8
X135.0Y-107.75
X135.5Y-80.45
X135.5Y-130.85
X135.9Y-72.4
X136.2Y-109.925
X136.2Y-111.175
X136.2Y-112.425
X136.3Y-93.85
X136.3Y-107.65
X136.35Y-88.1
X136.5Y-77.95
X136.5Y-79.35
X136.8Y-91.25
X137.1Y-81.15
X137.45Y-109.3
X137.45Y-110.55
X137.45Y-111.8
X137.6Y-86.25
X137.8Y-101.35
X138.0Y-83.35
X138.2Y-93.85
X138.5Y-91.25
X138.7Y-101.75
X139.1Y-99.15
X139.5Y-102.75
X139.575Y-121.95
X139.6Y-99.95
X139.6Y-103.75
X139.8Y-115.95
X139.85Y-113.65
X139.9Y-71.35
X139.9Y-72.25
X139.9Y-73.15
X139.945Y-124.45
X139.945Y-125.45
X139.945Y-126.45
X139.945Y-127.65
X140.2Y-120.7
X140.5Y-99.85
X140.825Y-121.95
X140.9Y-110.45
X141.1Y-132.05
X141.4Y-106.05
X141.45Y-120.7
X141.45Y-123.2
X141.5Y-82.15
X141.5Y-90.15
X141.6Y-92.25
X141.8Y-95.25
X142.075Y-121.95
X142.6Y-82.25
X142.7Y-105.95
X142.7Y-120.7
X142.7Y-123.2
X142.8Y-78.3
X142.8Y-79.55
X143.05Y-115.75
X143.25Y-107.7
X143.3Y-117.15
X143.4Y-71.25
X143.4Y-72.15
X143.4Y-73.05
X143.4Y-114.35
X143.8Y-106.75
X144.0Y-109.15
X144.3Y-110.05
X144.3Y-133.35
X144.3Y-134.25
X144.65Y-90.05
X144.7Y-126.75
X144.9Y-93.6
X144.9Y-98.4
X145.2Y-118.25
X145.8Y-90.65
X146.3Y-107.45
X146.3Y-118.25
X146.4Y-72.75
X146.4Y-94.95
X146.6Y-98.35
X146.7Y-108.55
X146.7Y-110.85
X146.75Y-122.75
X146.8Y-121.4
X146.9Y-95.75
X147.0Y-71.95
X147.1Y-73.55
X147.1Y-90.35
X147.3Y-110.05
X147.5Y-94.55
X147.75Y-79.75
X148.1Y-93.25
X148.2Y-91.15
X148.3Y-121.45
X148.307Y-124.793
X148.6Y-95.0
X148.7Y-110.25
X148.8Y-79.85
X148.8Y-96.15
X149.1Y-93.45
X149.25Y-92.45
X149.25Y-118.35
X149.5Y-91.1
X149.5Y-133.35
X149.5Y-134.25
X149.6Y-95.45
X149.6Y-96.75
X149.8Y-71.25
X149.8Y-72.15
X149.8Y-73.05
X150.0Y-115.55
X150.0Y-116.65
X150.05Y-90.35
X150.1Y-110.55
X150.1Y-112.2
X150.3Y-103.55
X150.35Y-128.3
X150.65Y-80.95
X150.7Y-89.65
X151.1Y-106.55
X151.4Y-103.45
X151.5Y-121.15
X151.5Y-129.25
X151.75Y-127.25
X152.0Y-106.55
X152.6Y-81.35
X152.9Y-83.25
X152.9Y-87.05
X152.9Y-130.1
X153.0Y-78.35
X153.0Y-79.65
X153.7Y-87.85
X153.9Y-85.55
X153.9Y-98.55
X154.1Y-114.75
X154.65Y-81.55
X154.7Y-98.05
X154.8Y-83.25
X154.9Y-88.05
X155.2Y-114.85
X155.6Y-87.25
X155.65Y-105.3
X155.65Y-109.1
X155.9Y-122.35
X156.0Y-71.25
X156.0Y-72.15
X156.0Y-73.05
X156.0Y-85.15
X156.05Y-112.5
X156.2Y-100.7
X156.4Y-103.05
X156.5Y-101.95
X156.6Y-79.75
X156.75Y-123.3
X157.25Y-113.55
X157.6Y-110.95
X157.8Y-108.25
X157.9Y-83.45
X157.9Y-87.45
X158.6Y-109.05
X158.6Y-112.25
X158.8Y-121.25
X158.9Y-129.85
X158.95Y-91.95
X159.2Y-93.35
X159.6Y-81.85
X159.7Y-94.25
X159.8Y-119.35
X159.85Y-90.75
X160.05Y-88.05
X160.4Y-127.15
X160.6Y-121.45
X160.9Y-130.125
X160.95Y-80.3
X161.08Y-104.557
X161.2Y-118.55
X161.35Y-107.4
X161.35Y-124.3
X161.45Y-86.75
X161.45Y-113.0
X161.45Y-115.7
X161.6Y-96.15
X161.7Y-101.757
X161.7Y-121.45
X161.7Y-128.55
X161.9Y-127.2
X161.95Y-92.95
X162.1Y-104.55
X162.2Y-118.65
X162.35Y-107.35
X162.35Y-110.2
X162.5Y-99.0
X162.65Y-112.957
X162.7Y-101.75
X163.1Y-129.85
X163.25Y-124.4
X163.3Y-115.75
X163.35Y-121.55
X163.4Y-77.95
X163.4Y-79.35
X163.45Y-118.65
X163.49Y-81.85
X163.49Y-82.7
X163.49Y-84.0
X163.49Y-85.2
X163.55Y-88.05
X163.55Y-89.25
X163.55Y-90.45
X163.55Y-91.35
X163.6Y-96.25
X163.8Y-110.25
X163.85Y-92.85
X163.85Y-104.6
X163.9Y-99.0
X163.9Y-107.35
X163.95Y-101.8
X164.5Y-129.525
X165.9Y-71.3
X165.9Y-72.2
X165.9Y-73.1
X167.5Y-84.65
X168.8Y-83.65
X171.375Y-83.95
X171.375Y-86.45
X171.375Y-88.95
X171.5Y-78.35
X172.0Y-85.2
X172.0Y-87.7
T3
X165.8Y-111.657
X165.8Y-114.457
X165.8Y-117.257
X165.8Y-120.035
X165.82Y-94.75
X165.82Y-97.55
X165.82Y-100.35
X165.82Y-103.15
X165.82Y-105.992
X165.82Y-108.85
X165.82Y-122.85
X165.82Y-125.707
X168.34Y-111.657
X168.34Y-114.457
X168.34Y-117.257
X168.34Y-120.035
X168.36Y-94.75
X168.36Y-97.55
X168.36Y-100.35
X168.36Y-103.15
X168.36Y-105.992
X168.36Y-108.85
X168.36Y-122.85
X168.36Y-125.707
X170.88Y-111.657
X170.88Y-114.457
X170.88Y-117.257
X170.88Y-120.035
X170.9Y-94.75
X170.9Y-97.55
X170.9Y-100.35
X170.9Y-103.15
X170.9Y-105.992
X170.9Y-108.85
X170.9Y-122.85
X170.9Y-125.707
T4
X166.32Y-83.66
X166.32Y-89.44
T5
X126.5Y-73.75
X126.5Y-131.75
X169.5Y-73.75
X169.5Y-131.75
T2
G00X165.27Y-82.23
M15
G01X166.37Y-82.23
M16
G05
G00X165.27Y-90.87
M15
G01X166.37Y-90.87
M16
G05
G00X169.6Y-82.23
M15
G01X170.4Y-82.23
M16
G05
G00X169.6Y-90.87
M15
G01X170.4Y-90.87
M16
G05
M30
