%TF.GenerationSoftware,KiCad,Pcbnew,10.0.5*%
%TF.CreationDate,2026-08-20T20:39:13+05:30*%
%TF.ProjectId,FeroFlyF405,4665726f-466c-4794-9634-30352e6b6963,1*%
%TF.SameCoordinates,Original*%
%TF.FileFunction,Copper,L2,Inr*%
%TF.FilePolarity,Positive*%
%FSLAX46Y46*%
G04 Gerber Fmt 4.6, Leading zero omitted, Abs format (unit mm)*
G04 Created by KiCad (PCBNEW 10.0.5) date 2026-08-20 20:39:13*
%MOMM*%
%LPD*%
G01*
G04 APERTURE LIST*
%TA.AperFunction,ComponentPad*%
%ADD10R,1.700000X1.700000*%
%TD*%
%TA.AperFunction,ComponentPad*%
%ADD11C,1.700000*%
%TD*%
%TA.AperFunction,ComponentPad*%
%ADD12O,2.100000X1.050000*%
%TD*%
%TA.AperFunction,ComponentPad*%
%ADD13O,1.800000X0.900000*%
%TD*%
%TA.AperFunction,ViaPad*%
%ADD14C,0.700000*%
%TD*%
%TA.AperFunction,ViaPad*%
%ADD15C,0.600000*%
%TD*%
G04 APERTURE END LIST*
D10*
%TO.N,GND*%
%TO.C,J902*%
X170900000Y-97550000D03*
D11*
%TO.N,+5V*%
X168360000Y-97550000D03*
%TO.N,/IO/IO2/D_S2*%
X165820000Y-97550000D03*
%TD*%
D12*
%TO.N,unconnected-(J913-SHIELD-PadSH1)*%
%TO.C,J913*%
X165820000Y-90870000D03*
%TO.N,unconnected-(J913-SHIELD__1-PadSH2)*%
X165820000Y-82230000D03*
D13*
%TO.N,unconnected-(J913-SHIELD__2-PadSH3)*%
X170000000Y-90870000D03*
%TO.N,unconnected-(J913-SHIELD__3-PadSH4)*%
X170000000Y-82230000D03*
%TD*%
D10*
%TO.N,GND*%
%TO.C,J909*%
X170880000Y-117257500D03*
D11*
%TO.N,+5V*%
X168340000Y-117257500D03*
%TO.N,/IO/IO2/D_S9*%
X165800000Y-117257500D03*
%TD*%
D10*
%TO.N,GND*%
%TO.C,J911*%
X170900000Y-122850000D03*
D11*
%TO.N,+5V*%
X168360000Y-122850000D03*
%TO.N,/IO/IO2/D_S11*%
X165820000Y-122850000D03*
%TD*%
D10*
%TO.N,GND*%
%TO.C,J905*%
X170900000Y-105992500D03*
D11*
%TO.N,+5V*%
X168360000Y-105992500D03*
%TO.N,/IO/IO2/D_S5*%
X165820000Y-105992500D03*
%TD*%
D10*
%TO.N,GND*%
%TO.C,J907*%
X170880000Y-111657500D03*
D11*
%TO.N,+5V*%
X168340000Y-111657500D03*
%TO.N,/IO/IO2/D_S7*%
X165800000Y-111657500D03*
%TD*%
D10*
%TO.N,GND*%
%TO.C,J906*%
X170900000Y-108850000D03*
D11*
%TO.N,+5V*%
X168360000Y-108850000D03*
%TO.N,/IO/IO2/D_S6*%
X165820000Y-108850000D03*
%TD*%
D10*
%TO.N,GND*%
%TO.C,J903*%
X170900000Y-100350000D03*
D11*
%TO.N,+5V*%
X168360000Y-100350000D03*
%TO.N,/IO/IO2/D_S3*%
X165820000Y-100350000D03*
%TD*%
D10*
%TO.N,GND*%
%TO.C,J904*%
X170900000Y-103150000D03*
D11*
%TO.N,+5V*%
X168360000Y-103150000D03*
%TO.N,/IO/IO2/D_S4*%
X165820000Y-103150000D03*
%TD*%
D10*
%TO.N,GND*%
%TO.C,J908*%
X170880000Y-114457500D03*
D11*
%TO.N,+5V*%
X168340000Y-114457500D03*
%TO.N,/IO/IO2/D_S8*%
X165800000Y-114457500D03*
%TD*%
D10*
%TO.N,GND*%
%TO.C,J901*%
X170900000Y-94750000D03*
D11*
%TO.N,+5V*%
X168360000Y-94750000D03*
%TO.N,/IO/IO2/D_S1*%
X165820000Y-94750000D03*
%TD*%
D10*
%TO.N,GND*%
%TO.C,J910*%
X170880000Y-120035000D03*
D11*
%TO.N,+5V*%
X168340000Y-120035000D03*
%TO.N,/IO/IO2/D_S10*%
X165800000Y-120035000D03*
%TD*%
D10*
%TO.N,GND*%
%TO.C,J912*%
X170900000Y-125707500D03*
D11*
%TO.N,+5V*%
X168360000Y-125707500D03*
%TO.N,/IO/IO2/D_S12*%
X165820000Y-125707500D03*
%TD*%
D14*
%TO.N,/IO/IO1/D_PINIO0R*%
X135900000Y-72400000D03*
%TO.N,/IO/IO1/D_PINIO1R*%
X134400000Y-72400000D03*
%TO.N,/MCU/D_LED1*%
X163100000Y-129850000D03*
X148200000Y-91150000D03*
%TO.N,/MCU/D_ADC2_CH13*%
X133200000Y-106550000D03*
X141800000Y-95250000D03*
%TO.N,GND*%
X131700000Y-103350000D03*
D15*
X172000000Y-87700000D03*
X163550000Y-90450000D03*
D14*
X152900000Y-87050000D03*
D15*
X131800000Y-89150000D03*
X134400000Y-93850000D03*
X136800000Y-91250000D03*
X142700000Y-120700000D03*
D14*
X137600000Y-86250000D03*
D15*
X125000000Y-88050000D03*
X154650000Y-81550000D03*
X148300000Y-121450000D03*
X125600000Y-93650000D03*
X130200000Y-72050000D03*
X127650000Y-118262500D03*
X156000000Y-71250000D03*
D14*
X158800000Y-121250000D03*
D15*
X163850000Y-104600000D03*
D14*
X133895000Y-126550000D03*
D15*
X154800000Y-83250000D03*
D14*
X144700000Y-126750000D03*
D15*
X132000000Y-124200000D03*
X156600000Y-79750000D03*
X143800000Y-106750000D03*
X138700000Y-101750000D03*
X137450000Y-110550000D03*
X141450000Y-120700000D03*
X171375000Y-86450000D03*
X133150000Y-94550000D03*
D14*
X171500000Y-78350000D03*
D15*
X134950000Y-110550000D03*
D14*
X134200000Y-95750000D03*
X142600000Y-82250000D03*
D15*
X162350000Y-110200000D03*
X149500000Y-134250000D03*
D14*
X136500000Y-79350000D03*
D15*
X136200000Y-109925000D03*
X153900000Y-98550000D03*
X163350000Y-121550000D03*
X161900000Y-127200000D03*
X162200000Y-118650000D03*
X139850000Y-113650000D03*
X163300000Y-115750000D03*
X124850000Y-78250000D03*
X156200000Y-100700000D03*
X136300000Y-93850000D03*
X146400000Y-94950000D03*
X125750000Y-78250000D03*
X146400000Y-72750000D03*
X126300000Y-89950000D03*
X124050000Y-107550000D03*
X139600000Y-103750000D03*
X134950000Y-111800000D03*
X140825000Y-121950000D03*
X162350000Y-107350000D03*
X139945000Y-125450000D03*
X150100000Y-110550000D03*
X163550000Y-91350000D03*
X151750000Y-127250000D03*
X135500000Y-80450000D03*
X152900000Y-130100000D03*
X132200000Y-95400000D03*
X161350000Y-124300000D03*
D14*
X164500000Y-129525000D03*
X148306551Y-124793449D03*
X130150000Y-100350000D03*
D15*
X140900000Y-110450000D03*
X172000000Y-85200000D03*
X137450000Y-111800000D03*
X163250000Y-124400000D03*
X143300000Y-117150000D03*
X155650000Y-109100000D03*
X156050000Y-112500000D03*
X125600000Y-91750000D03*
X161700000Y-128550000D03*
D14*
X153000000Y-79650000D03*
D15*
X125600000Y-95650000D03*
X147750000Y-79750000D03*
X139900000Y-71350000D03*
X165900000Y-72200000D03*
X159600000Y-81850000D03*
X149250000Y-118350000D03*
X163490000Y-81850000D03*
X149800000Y-72150000D03*
D14*
X160900000Y-130125000D03*
D15*
X126550000Y-118262500D03*
D14*
X132200000Y-110650000D03*
D15*
X158600000Y-109050000D03*
X152000000Y-106550000D03*
X159800000Y-119350000D03*
X139900000Y-73150000D03*
X163900000Y-107350000D03*
X130200000Y-103850000D03*
X144300000Y-133350000D03*
X143400000Y-71250000D03*
X123950000Y-78250000D03*
X123950000Y-99950000D03*
X161950000Y-92950000D03*
X137100000Y-81150000D03*
X156500000Y-101950000D03*
X163600000Y-96250000D03*
X157900000Y-83450000D03*
X156000000Y-72150000D03*
X151500000Y-121150000D03*
X158600000Y-112250000D03*
X157250000Y-113550000D03*
X158950000Y-91950000D03*
X125750000Y-99950000D03*
X149500000Y-133350000D03*
X152600000Y-81350000D03*
D14*
X159700000Y-94250000D03*
X141400000Y-106050000D03*
D15*
X160950000Y-80300000D03*
X130200000Y-71150000D03*
D14*
X133745000Y-125700000D03*
D15*
X151100000Y-106550000D03*
X163950000Y-101800000D03*
X146700000Y-110850000D03*
X140200000Y-120700000D03*
X148800000Y-96150000D03*
D14*
X151400000Y-103450000D03*
D15*
X125850000Y-107550000D03*
X155600000Y-87250000D03*
X159850000Y-90750000D03*
X162700000Y-101750000D03*
X143400000Y-72150000D03*
D14*
X127250000Y-96843750D03*
D15*
X134950000Y-109300000D03*
X150100000Y-112200000D03*
X149100000Y-93450000D03*
X129200000Y-76850000D03*
X138200000Y-93850000D03*
X126150000Y-104650000D03*
X154900000Y-88050000D03*
X133400000Y-89750000D03*
X129700000Y-89150000D03*
X139945000Y-124450000D03*
X132400000Y-91950000D03*
X146700000Y-108550000D03*
X152900000Y-83250000D03*
X144000000Y-109150000D03*
X150650000Y-80950000D03*
X149800000Y-71250000D03*
D14*
X146300000Y-118250000D03*
D15*
X162100000Y-104550000D03*
X155900000Y-122350000D03*
X136200000Y-112425000D03*
X129500000Y-96850000D03*
X124100000Y-88050000D03*
X143400000Y-73050000D03*
X146750000Y-122750000D03*
D14*
X139800000Y-115950000D03*
D15*
X124400000Y-82750000D03*
D14*
X161450000Y-86750000D03*
D15*
X148600000Y-95000000D03*
X136200000Y-111175000D03*
X156000000Y-85150000D03*
X161450000Y-115700000D03*
X156750000Y-123300000D03*
X149800000Y-73050000D03*
X141450000Y-123200000D03*
X130000000Y-75850000D03*
D14*
X135000000Y-107750000D03*
D15*
X163450000Y-118650000D03*
D14*
X133000000Y-87950000D03*
D15*
X161700000Y-121450000D03*
X125900000Y-88050000D03*
X143050000Y-115750000D03*
X163800000Y-110250000D03*
X134900000Y-91250000D03*
X171375000Y-83950000D03*
D14*
X155200000Y-114850000D03*
D15*
X162650000Y-112957500D03*
X142700000Y-123200000D03*
X126100000Y-82750000D03*
X150050000Y-90350000D03*
X135500000Y-130850000D03*
X127750000Y-119362500D03*
X130200000Y-72950000D03*
X124950000Y-107550000D03*
X155650000Y-105300000D03*
X165900000Y-71300000D03*
X160400000Y-127150000D03*
X162500000Y-99000000D03*
X137450000Y-109300000D03*
X163490000Y-82700000D03*
X146800000Y-121400000D03*
X131600000Y-96850000D03*
X124850000Y-99950000D03*
D14*
X143400000Y-114350000D03*
X163400000Y-79350000D03*
D15*
X157600000Y-110950000D03*
X165900000Y-73100000D03*
X161600000Y-96150000D03*
X150350000Y-128300000D03*
X127800000Y-89150000D03*
X171375000Y-88950000D03*
X163850000Y-92850000D03*
D14*
X150000000Y-116650000D03*
D15*
X156000000Y-73050000D03*
X153900000Y-85550000D03*
X139900000Y-72250000D03*
X134800000Y-124250000D03*
X139600000Y-99950000D03*
X139575000Y-121950000D03*
X138500000Y-91250000D03*
X144300000Y-134250000D03*
X130300000Y-105450000D03*
X142075000Y-121950000D03*
X163900000Y-99000000D03*
D14*
X142800000Y-79550000D03*
D15*
X151500000Y-129250000D03*
X126350000Y-117262500D03*
%TO.N,/IO/IO2/P_VBUS*%
X163550000Y-89250000D03*
X163550000Y-88050000D03*
X163490000Y-85200000D03*
X163490000Y-84000000D03*
D14*
X160050000Y-88050000D03*
D15*
%TO.N,+3V3*%
X139945000Y-126450000D03*
D14*
X136300000Y-107650000D03*
X154100000Y-114750000D03*
X134200000Y-96850000D03*
X150300000Y-103550000D03*
X141500000Y-82150000D03*
X145200000Y-118250000D03*
X131600000Y-104450000D03*
D15*
X139945000Y-127650000D03*
D14*
X150000000Y-115550000D03*
X142700000Y-105950000D03*
X153700000Y-87850000D03*
%TO.N,/MCU/D_I2C2_SDA*%
X139100000Y-99150000D03*
X137800000Y-101350000D03*
%TO.N,/MCU/D_I2C2_SCL*%
X140500000Y-99850000D03*
X139500000Y-102750000D03*
%TO.N,/MCU/D_NRST*%
X141600000Y-92250000D03*
X136350000Y-88100000D03*
%TO.N,+5V*%
X134150000Y-112662500D03*
X141100000Y-132050000D03*
X125900000Y-126750000D03*
X129500000Y-131050000D03*
D15*
X127050000Y-124162500D03*
D14*
X130900000Y-110750000D03*
D15*
X124450000Y-124162500D03*
X125750000Y-124162500D03*
D14*
X136500000Y-77950000D03*
X142800000Y-78300000D03*
X131700000Y-87950000D03*
X163400000Y-77950000D03*
X153000000Y-78350000D03*
%TO.N,/IO/D_USART2_TX*%
X125050000Y-104550000D03*
D15*
%TO.N,/IO/IO2/D_CC1A*%
X168800000Y-83650000D03*
%TO.N,/IO/IO2/D_CC1B*%
X167500000Y-84650000D03*
D14*
%TO.N,/IO/P_LDOIN*%
X157900000Y-87450000D03*
X131100000Y-128550000D03*
%TO.N,/IO/D_PINIO0*%
X147100000Y-90350000D03*
%TO.N,/IO/D_PINIO1*%
X145800000Y-90650000D03*
%TO.N,/MCU/SPI1_MOSI*%
X144300000Y-110050000D03*
X147300000Y-110050000D03*
%TO.N,/MCU/D_LED0*%
X158900000Y-129850000D03*
X144900000Y-93600000D03*
%TO.N,/MCU/D_BOOT0*%
X144650000Y-90050000D03*
X138000000Y-83350000D03*
%TO.N,/IO/D_ADC1_CH10*%
X141500000Y-90150000D03*
D15*
%TO.N,/IO/D_TIM2_CH1*%
X147500000Y-94550000D03*
%TO.N,/IO/D_TIM5_CH1*%
X146900000Y-95750000D03*
D14*
%TO.N,/IO/D_USART2_RX*%
X126250000Y-103650000D03*
%TO.N,/MCU/SPI1_MISO*%
X143250000Y-107700000D03*
X146300000Y-107450000D03*
%TO.N,/MCU/SPI1_CS*%
X144900000Y-98400000D03*
X148700000Y-110250000D03*
%TO.N,/MCU/D_BOOT1*%
X146600000Y-98350000D03*
%TO.N,/IO/D_TIM12_CH1*%
X156400000Y-103050000D03*
X149600000Y-96750000D03*
X160600000Y-121450000D03*
%TO.N,/IO/D_TIM12_CH2*%
X157800000Y-108250000D03*
X154700000Y-98050000D03*
X161200000Y-118550000D03*
%TO.N,/IO/D_TIM8_CH1*%
X161450000Y-113000000D03*
%TO.N,/IO/D_TIM8_CH2*%
X149600000Y-95450000D03*
%TO.N,/IO/D_TIM3_CH3*%
X161350000Y-107400000D03*
%TO.N,/IO/D_TIM3_CH4*%
X161080000Y-104557500D03*
%TO.N,/IO/D_TIM1_CH1*%
X161700000Y-101757500D03*
%TO.N,/IO/D_TIM1_CH2*%
X159200000Y-93350000D03*
%TO.N,/MCU/D_SWDIO*%
X149500000Y-91100000D03*
%TO.N,/MCU/D_SWCLK*%
X150700000Y-89650000D03*
D15*
%TO.N,/IO/D_I2C1_SCL*%
X148800000Y-79850000D03*
D14*
X147000000Y-71950000D03*
%TO.N,/IO/D_I2C1_SDA*%
X147100000Y-73550000D03*
%TO.N,/IO/D_TIM4_CH3*%
X149250000Y-92450000D03*
%TO.N,/IO/D_TIM4_CH4*%
X148100000Y-93250000D03*
D15*
%TO.N,/Power/P_VIN*%
X124550000Y-112262500D03*
X127350000Y-112262500D03*
X126050000Y-112262500D03*
%TD*%
%TA.AperFunction,Conductor*%
%TO.N,GND*%
G36*
X170002777Y-70650655D02*
G01*
X170285504Y-70666533D01*
X170296527Y-70667775D01*
X170572972Y-70714745D01*
X170583766Y-70717208D01*
X170853223Y-70794838D01*
X170863694Y-70798502D01*
X170969151Y-70842184D01*
X171122746Y-70905805D01*
X171132748Y-70910622D01*
X171378148Y-71046250D01*
X171387548Y-71052156D01*
X171616226Y-71214411D01*
X171624904Y-71221331D01*
X171833986Y-71408178D01*
X171841821Y-71416013D01*
X172028666Y-71625093D01*
X172035588Y-71633773D01*
X172197843Y-71862451D01*
X172203749Y-71871851D01*
X172339377Y-72117251D01*
X172344194Y-72127253D01*
X172451495Y-72386301D01*
X172455162Y-72396780D01*
X172532787Y-72666218D01*
X172535257Y-72677042D01*
X172582223Y-72953467D01*
X172583466Y-72964499D01*
X172599344Y-73247222D01*
X172599500Y-73252773D01*
X172599500Y-132247226D01*
X172599344Y-132252777D01*
X172583466Y-132535500D01*
X172582223Y-132546532D01*
X172535257Y-132822957D01*
X172532787Y-132833781D01*
X172455162Y-133103219D01*
X172451495Y-133113698D01*
X172344194Y-133372746D01*
X172339377Y-133382748D01*
X172203749Y-133628148D01*
X172197843Y-133637548D01*
X172035588Y-133866226D01*
X172028666Y-133874906D01*
X171841829Y-134083978D01*
X171833978Y-134091829D01*
X171624906Y-134278666D01*
X171616226Y-134285588D01*
X171387548Y-134447843D01*
X171378148Y-134453749D01*
X171132748Y-134589377D01*
X171122746Y-134594194D01*
X170863698Y-134701495D01*
X170853219Y-134705162D01*
X170583781Y-134782787D01*
X170572957Y-134785257D01*
X170296532Y-134832223D01*
X170285500Y-134833466D01*
X170002778Y-134849344D01*
X169997227Y-134849500D01*
X126002773Y-134849500D01*
X125997222Y-134849344D01*
X125714499Y-134833466D01*
X125703467Y-134832223D01*
X125427042Y-134785257D01*
X125416220Y-134782787D01*
X125346958Y-134762833D01*
X125146780Y-134705162D01*
X125136301Y-134701495D01*
X124877253Y-134594194D01*
X124867251Y-134589377D01*
X124621851Y-134453749D01*
X124612451Y-134447843D01*
X124383773Y-134285588D01*
X124375093Y-134278666D01*
X124166013Y-134091821D01*
X124158178Y-134083986D01*
X123971331Y-133874904D01*
X123964411Y-133866226D01*
X123914521Y-133795913D01*
X123818441Y-133660500D01*
X123802156Y-133637548D01*
X123796250Y-133628148D01*
X123660622Y-133382748D01*
X123655805Y-133372746D01*
X123548504Y-133113698D01*
X123544837Y-133103219D01*
X123535799Y-133071847D01*
X123467208Y-132833766D01*
X123464745Y-132822972D01*
X123417775Y-132546527D01*
X123416533Y-132535500D01*
X123414006Y-132490509D01*
X123400656Y-132252777D01*
X123400500Y-132247226D01*
X123400500Y-131624777D01*
X124589500Y-131624777D01*
X124589500Y-131875222D01*
X124622188Y-132123512D01*
X124622188Y-132123517D01*
X124687007Y-132365420D01*
X124687011Y-132365433D01*
X124782844Y-132596797D01*
X124782846Y-132596801D01*
X124782848Y-132596805D01*
X124805880Y-132636697D01*
X124908071Y-132813697D01*
X125060522Y-133012376D01*
X125060524Y-133012378D01*
X125060528Y-133012383D01*
X125237617Y-133189472D01*
X125237621Y-133189475D01*
X125237623Y-133189477D01*
X125436302Y-133341928D01*
X125436306Y-133341931D01*
X125653195Y-133467152D01*
X125884572Y-133562991D01*
X126126480Y-133627811D01*
X126374779Y-133660500D01*
X126374780Y-133660500D01*
X126625220Y-133660500D01*
X126625221Y-133660500D01*
X126873520Y-133627811D01*
X127115428Y-133562991D01*
X127346805Y-133467152D01*
X127563694Y-133341931D01*
X127762383Y-133189472D01*
X127939472Y-133012383D01*
X128091931Y-132813694D01*
X128217152Y-132596805D01*
X128312991Y-132365428D01*
X128377811Y-132123520D01*
X128397031Y-131977525D01*
X140549500Y-131977525D01*
X140549500Y-132122475D01*
X140554495Y-132141116D01*
X140587017Y-132262489D01*
X140659487Y-132388010D01*
X140659489Y-132388012D01*
X140659491Y-132388015D01*
X140761985Y-132490509D01*
X140761987Y-132490510D01*
X140761989Y-132490512D01*
X140887511Y-132562982D01*
X140887512Y-132562982D01*
X140887515Y-132562984D01*
X141027525Y-132600500D01*
X141027526Y-132600500D01*
X141172474Y-132600500D01*
X141172475Y-132600500D01*
X141312485Y-132562984D01*
X141312487Y-132562982D01*
X141312489Y-132562982D01*
X141438010Y-132490512D01*
X141438010Y-132490511D01*
X141438015Y-132490509D01*
X141540509Y-132388015D01*
X141612984Y-132262485D01*
X141650500Y-132122475D01*
X141650500Y-131977525D01*
X141612984Y-131837515D01*
X141612982Y-131837512D01*
X141612982Y-131837510D01*
X141540512Y-131711989D01*
X141540510Y-131711987D01*
X141540509Y-131711985D01*
X141447403Y-131618879D01*
X167499500Y-131618879D01*
X167499500Y-131881120D01*
X167531275Y-132122474D01*
X167533730Y-132141116D01*
X167566251Y-132262485D01*
X167601600Y-132394411D01*
X167601604Y-132394424D01*
X167701953Y-132636689D01*
X167701955Y-132636693D01*
X167701957Y-132636697D01*
X167779860Y-132771630D01*
X167809493Y-132822957D01*
X167833076Y-132863803D01*
X167992718Y-133071851D01*
X168178149Y-133257282D01*
X168386197Y-133416924D01*
X168613303Y-133548043D01*
X168855581Y-133648398D01*
X169108884Y-133716270D01*
X169368880Y-133750500D01*
X169368881Y-133750500D01*
X169631119Y-133750500D01*
X169631120Y-133750500D01*
X169891116Y-133716270D01*
X170144419Y-133648398D01*
X170386697Y-133548043D01*
X170613803Y-133416924D01*
X170821851Y-133257282D01*
X171007282Y-133071851D01*
X171166924Y-132863803D01*
X171298043Y-132636697D01*
X171398398Y-132394419D01*
X171466270Y-132141116D01*
X171500500Y-131881120D01*
X171500500Y-131618880D01*
X171466270Y-131358884D01*
X171398398Y-131105581D01*
X171298043Y-130863303D01*
X171166924Y-130636197D01*
X171007282Y-130428149D01*
X170821851Y-130242718D01*
X170613803Y-130083076D01*
X170613804Y-130083076D01*
X170613802Y-130083075D01*
X170521630Y-130029860D01*
X170386697Y-129951957D01*
X170386693Y-129951955D01*
X170386689Y-129951953D01*
X170144424Y-129851604D01*
X170144423Y-129851603D01*
X170144419Y-129851602D01*
X169891116Y-129783730D01*
X169891111Y-129783729D01*
X169891110Y-129783729D01*
X169631120Y-129749500D01*
X169368880Y-129749500D01*
X169368879Y-129749500D01*
X169108889Y-129783729D01*
X169108886Y-129783729D01*
X169108884Y-129783730D01*
X168923464Y-129833412D01*
X168855588Y-129851600D01*
X168855575Y-129851604D01*
X168613310Y-129951953D01*
X168386197Y-130083075D01*
X168178152Y-130242715D01*
X167992715Y-130428152D01*
X167833075Y-130636197D01*
X167701953Y-130863310D01*
X167601604Y-131105575D01*
X167601600Y-131105588D01*
X167533729Y-131358889D01*
X167499500Y-131618879D01*
X141447403Y-131618879D01*
X141438015Y-131609491D01*
X141438012Y-131609489D01*
X141438010Y-131609487D01*
X141312488Y-131537017D01*
X141312489Y-131537017D01*
X141282896Y-131529087D01*
X141172475Y-131499500D01*
X141027525Y-131499500D01*
X140965790Y-131516041D01*
X140887510Y-131537017D01*
X140761989Y-131609487D01*
X140659487Y-131711989D01*
X140587017Y-131837510D01*
X140576912Y-131875222D01*
X140549500Y-131977525D01*
X128397031Y-131977525D01*
X128410500Y-131875221D01*
X128410500Y-131624779D01*
X128377811Y-131376480D01*
X128312991Y-131134572D01*
X128247940Y-130977525D01*
X128949500Y-130977525D01*
X128949500Y-131122475D01*
X128979087Y-131232896D01*
X128987017Y-131262489D01*
X129059487Y-131388010D01*
X129059489Y-131388012D01*
X129059491Y-131388015D01*
X129161985Y-131490509D01*
X129161987Y-131490510D01*
X129161989Y-131490512D01*
X129287511Y-131562982D01*
X129287512Y-131562982D01*
X129287515Y-131562984D01*
X129427525Y-131600500D01*
X129427526Y-131600500D01*
X129572474Y-131600500D01*
X129572475Y-131600500D01*
X129712485Y-131562984D01*
X129712487Y-131562982D01*
X129712489Y-131562982D01*
X129838010Y-131490512D01*
X129838010Y-131490511D01*
X129838015Y-131490509D01*
X129940509Y-131388015D01*
X130012984Y-131262485D01*
X130050500Y-131122475D01*
X130050500Y-130977525D01*
X130012984Y-130837515D01*
X130012982Y-130837512D01*
X130012982Y-130837510D01*
X129940512Y-130711989D01*
X129940510Y-130711987D01*
X129940509Y-130711985D01*
X129838015Y-130609491D01*
X129838012Y-130609489D01*
X129838010Y-130609487D01*
X129712488Y-130537017D01*
X129712489Y-130537017D01*
X129682896Y-130529087D01*
X129572475Y-130499500D01*
X129427525Y-130499500D01*
X129365790Y-130516041D01*
X129287510Y-130537017D01*
X129161989Y-130609487D01*
X129059487Y-130711989D01*
X128987017Y-130837510D01*
X128987016Y-130837515D01*
X128949500Y-130977525D01*
X128247940Y-130977525D01*
X128217152Y-130903195D01*
X128091931Y-130686306D01*
X127939472Y-130487617D01*
X127762383Y-130310528D01*
X127762378Y-130310524D01*
X127762376Y-130310522D01*
X127563697Y-130158071D01*
X127433802Y-130083076D01*
X127346805Y-130032848D01*
X127346801Y-130032846D01*
X127346797Y-130032844D01*
X127115433Y-129937011D01*
X127115432Y-129937010D01*
X127115428Y-129937009D01*
X126873520Y-129872189D01*
X126873515Y-129872188D01*
X126873514Y-129872188D01*
X126850733Y-129869189D01*
X126625222Y-129839500D01*
X126625221Y-129839500D01*
X126374779Y-129839500D01*
X126374777Y-129839500D01*
X126126487Y-129872188D01*
X126126482Y-129872188D01*
X125884579Y-129937007D01*
X125884566Y-129937011D01*
X125653202Y-130032844D01*
X125436302Y-130158071D01*
X125237623Y-130310522D01*
X125060522Y-130487623D01*
X124908071Y-130686302D01*
X124782844Y-130903202D01*
X124687011Y-131134566D01*
X124687007Y-131134579D01*
X124622188Y-131376482D01*
X124622188Y-131376487D01*
X124589500Y-131624777D01*
X123400500Y-131624777D01*
X123400500Y-129777525D01*
X158349500Y-129777525D01*
X158349500Y-129922475D01*
X158353395Y-129937011D01*
X158387017Y-130062489D01*
X158459487Y-130188010D01*
X158459489Y-130188012D01*
X158459491Y-130188015D01*
X158561985Y-130290509D01*
X158561987Y-130290510D01*
X158561989Y-130290512D01*
X158687511Y-130362982D01*
X158687512Y-130362982D01*
X158687515Y-130362984D01*
X158827525Y-130400500D01*
X158827526Y-130400500D01*
X158972474Y-130400500D01*
X158972475Y-130400500D01*
X159112485Y-130362984D01*
X159112487Y-130362982D01*
X159112489Y-130362982D01*
X159238010Y-130290512D01*
X159238010Y-130290511D01*
X159238015Y-130290509D01*
X159340509Y-130188015D01*
X159357797Y-130158071D01*
X159412982Y-130062489D01*
X159412982Y-130062487D01*
X159412984Y-130062485D01*
X159450500Y-129922475D01*
X159450500Y-129777525D01*
X162549500Y-129777525D01*
X162549500Y-129922475D01*
X162553395Y-129937011D01*
X162587017Y-130062489D01*
X162659487Y-130188010D01*
X162659489Y-130188012D01*
X162659491Y-130188015D01*
X162761985Y-130290509D01*
X162761987Y-130290510D01*
X162761989Y-130290512D01*
X162887511Y-130362982D01*
X162887512Y-130362982D01*
X162887515Y-130362984D01*
X163027525Y-130400500D01*
X163027526Y-130400500D01*
X163172474Y-130400500D01*
X163172475Y-130400500D01*
X163312485Y-130362984D01*
X163312487Y-130362982D01*
X163312489Y-130362982D01*
X163438010Y-130290512D01*
X163438010Y-130290511D01*
X163438015Y-130290509D01*
X163540509Y-130188015D01*
X163557797Y-130158071D01*
X163612982Y-130062489D01*
X163612982Y-130062487D01*
X163612984Y-130062485D01*
X163650500Y-129922475D01*
X163650500Y-129777525D01*
X163612984Y-129637515D01*
X163612982Y-129637512D01*
X163612982Y-129637510D01*
X163540512Y-129511989D01*
X163540510Y-129511987D01*
X163540509Y-129511985D01*
X163438015Y-129409491D01*
X163438012Y-129409489D01*
X163438010Y-129409487D01*
X163312488Y-129337017D01*
X163312489Y-129337017D01*
X163282896Y-129329087D01*
X163172475Y-129299500D01*
X163027525Y-129299500D01*
X162965790Y-129316041D01*
X162887510Y-129337017D01*
X162761989Y-129409487D01*
X162659487Y-129511989D01*
X162587017Y-129637510D01*
X162587016Y-129637515D01*
X162549500Y-129777525D01*
X159450500Y-129777525D01*
X159412984Y-129637515D01*
X159412982Y-129637512D01*
X159412982Y-129637510D01*
X159340512Y-129511989D01*
X159340510Y-129511987D01*
X159340509Y-129511985D01*
X159238015Y-129409491D01*
X159238012Y-129409489D01*
X159238010Y-129409487D01*
X159112488Y-129337017D01*
X159112489Y-129337017D01*
X159082896Y-129329087D01*
X158972475Y-129299500D01*
X158827525Y-129299500D01*
X158765790Y-129316041D01*
X158687510Y-129337017D01*
X158561989Y-129409487D01*
X158459487Y-129511989D01*
X158387017Y-129637510D01*
X158387016Y-129637515D01*
X158349500Y-129777525D01*
X123400500Y-129777525D01*
X123400500Y-128477525D01*
X130549500Y-128477525D01*
X130549500Y-128622474D01*
X130587017Y-128762489D01*
X130659487Y-128888010D01*
X130659489Y-128888012D01*
X130659491Y-128888015D01*
X130761985Y-128990509D01*
X130761987Y-128990510D01*
X130761989Y-128990512D01*
X130887511Y-129062982D01*
X130887512Y-129062982D01*
X130887515Y-129062984D01*
X131027525Y-129100500D01*
X131027526Y-129100500D01*
X131172474Y-129100500D01*
X131172475Y-129100500D01*
X131312485Y-129062984D01*
X131312487Y-129062982D01*
X131312489Y-129062982D01*
X131438010Y-128990512D01*
X131438010Y-128990511D01*
X131438015Y-128990509D01*
X131540509Y-128888015D01*
X131612984Y-128762485D01*
X131650500Y-128622475D01*
X131650500Y-128477525D01*
X131612984Y-128337515D01*
X131612982Y-128337512D01*
X131612982Y-128337510D01*
X131540512Y-128211989D01*
X131540510Y-128211987D01*
X131540509Y-128211985D01*
X131438015Y-128109491D01*
X131438012Y-128109489D01*
X131438010Y-128109487D01*
X131312488Y-128037017D01*
X131312489Y-128037017D01*
X131282896Y-128029087D01*
X131172475Y-127999500D01*
X131027525Y-127999500D01*
X130965790Y-128016041D01*
X130887510Y-128037017D01*
X130761989Y-128109487D01*
X130659487Y-128211989D01*
X130587017Y-128337510D01*
X130549500Y-128477525D01*
X123400500Y-128477525D01*
X123400500Y-127584108D01*
X139444500Y-127584108D01*
X139444500Y-127715892D01*
X139474579Y-127828151D01*
X139478609Y-127843190D01*
X139544496Y-127957309D01*
X139544498Y-127957311D01*
X139544500Y-127957314D01*
X139637686Y-128050500D01*
X139637688Y-128050501D01*
X139637690Y-128050503D01*
X139751810Y-128116390D01*
X139751808Y-128116390D01*
X139751812Y-128116391D01*
X139751814Y-128116392D01*
X139879108Y-128150500D01*
X139879110Y-128150500D01*
X140010890Y-128150500D01*
X140010892Y-128150500D01*
X140138186Y-128116392D01*
X140138188Y-128116390D01*
X140138190Y-128116390D01*
X140252309Y-128050503D01*
X140252309Y-128050502D01*
X140252314Y-128050500D01*
X140345500Y-127957314D01*
X140411392Y-127843186D01*
X140445500Y-127715892D01*
X140445500Y-127584108D01*
X140411392Y-127456814D01*
X140411390Y-127456811D01*
X140411390Y-127456809D01*
X140345503Y-127342690D01*
X140345501Y-127342688D01*
X140345500Y-127342686D01*
X140252314Y-127249500D01*
X140252311Y-127249498D01*
X140252309Y-127249496D01*
X140138189Y-127183609D01*
X140138191Y-127183609D01*
X140088799Y-127170375D01*
X140010892Y-127149500D01*
X139879108Y-127149500D01*
X139801200Y-127170375D01*
X139751809Y-127183609D01*
X139637690Y-127249496D01*
X139544496Y-127342690D01*
X139478609Y-127456809D01*
X139478608Y-127456814D01*
X139444500Y-127584108D01*
X123400500Y-127584108D01*
X123400500Y-126677525D01*
X125349500Y-126677525D01*
X125349500Y-126822475D01*
X125358885Y-126857499D01*
X125387017Y-126962489D01*
X125459487Y-127088010D01*
X125459489Y-127088012D01*
X125459491Y-127088015D01*
X125561985Y-127190509D01*
X125561987Y-127190510D01*
X125561989Y-127190512D01*
X125687511Y-127262982D01*
X125687512Y-127262982D01*
X125687515Y-127262984D01*
X125827525Y-127300500D01*
X125827526Y-127300500D01*
X125972474Y-127300500D01*
X125972475Y-127300500D01*
X126112485Y-127262984D01*
X126112487Y-127262982D01*
X126112489Y-127262982D01*
X126238010Y-127190512D01*
X126238010Y-127190511D01*
X126238015Y-127190509D01*
X126340509Y-127088015D01*
X126412984Y-126962485D01*
X126450500Y-126822475D01*
X126450500Y-126677525D01*
X126412984Y-126537515D01*
X126412982Y-126537512D01*
X126412982Y-126537510D01*
X126349247Y-126427119D01*
X126349246Y-126427118D01*
X126340510Y-126411987D01*
X126340509Y-126411985D01*
X126312632Y-126384108D01*
X139444500Y-126384108D01*
X139444500Y-126515892D01*
X139467652Y-126602297D01*
X139478609Y-126643190D01*
X139544496Y-126757309D01*
X139544498Y-126757311D01*
X139544500Y-126757314D01*
X139637686Y-126850500D01*
X139637688Y-126850501D01*
X139637690Y-126850503D01*
X139751810Y-126916390D01*
X139751808Y-126916390D01*
X139751812Y-126916391D01*
X139751814Y-126916392D01*
X139879108Y-126950500D01*
X139879110Y-126950500D01*
X140010890Y-126950500D01*
X140010892Y-126950500D01*
X140138186Y-126916392D01*
X140138188Y-126916390D01*
X140138190Y-126916390D01*
X140252309Y-126850503D01*
X140252309Y-126850502D01*
X140252314Y-126850500D01*
X140345500Y-126757314D01*
X140368412Y-126717630D01*
X140411390Y-126643190D01*
X140411390Y-126643188D01*
X140411392Y-126643186D01*
X140445500Y-126515892D01*
X140445500Y-126384108D01*
X140411392Y-126256814D01*
X140411390Y-126256811D01*
X140411390Y-126256809D01*
X140345503Y-126142690D01*
X140345501Y-126142688D01*
X140345500Y-126142686D01*
X140252314Y-126049500D01*
X140252311Y-126049498D01*
X140252309Y-126049496D01*
X140138189Y-125983609D01*
X140138191Y-125983609D01*
X140088799Y-125970375D01*
X140010892Y-125949500D01*
X139879108Y-125949500D01*
X139801200Y-125970375D01*
X139751809Y-125983609D01*
X139637690Y-126049496D01*
X139544496Y-126142690D01*
X139478609Y-126256809D01*
X139478608Y-126256814D01*
X139444500Y-126384108D01*
X126312632Y-126384108D01*
X126238015Y-126309491D01*
X126238012Y-126309489D01*
X126238010Y-126309487D01*
X126112488Y-126237017D01*
X126112489Y-126237017D01*
X126082896Y-126229087D01*
X125972475Y-126199500D01*
X125827525Y-126199500D01*
X125797669Y-126207500D01*
X125687510Y-126237017D01*
X125561989Y-126309487D01*
X125459487Y-126411989D01*
X125387017Y-126537510D01*
X125362938Y-126627374D01*
X125349500Y-126677525D01*
X123400500Y-126677525D01*
X123400500Y-125604032D01*
X164769500Y-125604032D01*
X164769500Y-125810967D01*
X164809869Y-126013918D01*
X164889058Y-126205097D01*
X165004020Y-126377151D01*
X165004023Y-126377155D01*
X165150345Y-126523477D01*
X165322402Y-126638441D01*
X165513580Y-126717630D01*
X165716535Y-126758000D01*
X165716536Y-126758000D01*
X165923464Y-126758000D01*
X165923465Y-126758000D01*
X166126420Y-126717630D01*
X166317598Y-126638441D01*
X166489655Y-126523477D01*
X166635977Y-126377155D01*
X166750941Y-126205098D01*
X166830130Y-126013920D01*
X166870500Y-125810965D01*
X166870500Y-125604035D01*
X166870499Y-125604032D01*
X167309500Y-125604032D01*
X167309500Y-125810967D01*
X167349869Y-126013918D01*
X167429058Y-126205097D01*
X167544020Y-126377151D01*
X167544023Y-126377155D01*
X167690345Y-126523477D01*
X167862402Y-126638441D01*
X168053580Y-126717630D01*
X168256535Y-126758000D01*
X168256536Y-126758000D01*
X168463464Y-126758000D01*
X168463465Y-126758000D01*
X168666420Y-126717630D01*
X168857598Y-126638441D01*
X169029655Y-126523477D01*
X169175977Y-126377155D01*
X169290941Y-126205098D01*
X169370130Y-126013920D01*
X169410500Y-125810965D01*
X169410500Y-125604035D01*
X169370130Y-125401080D01*
X169290941Y-125209902D01*
X169175977Y-125037845D01*
X169029655Y-124891523D01*
X169027338Y-124889975D01*
X168911690Y-124812702D01*
X169750000Y-124812702D01*
X169750000Y-125457499D01*
X169750001Y-125457500D01*
X170466988Y-125457500D01*
X170434075Y-125514507D01*
X170400000Y-125641674D01*
X170400000Y-125773326D01*
X170434075Y-125900493D01*
X170466988Y-125957500D01*
X169750002Y-125957500D01*
X169750001Y-125957501D01*
X169750001Y-126602291D01*
X169752909Y-126627374D01*
X169798213Y-126729977D01*
X169877522Y-126809286D01*
X169980127Y-126854590D01*
X170005203Y-126857499D01*
X170649998Y-126857499D01*
X170650000Y-126857498D01*
X170650000Y-126140512D01*
X170707007Y-126173425D01*
X170834174Y-126207500D01*
X170965826Y-126207500D01*
X171092993Y-126173425D01*
X171150000Y-126140512D01*
X171150000Y-126857498D01*
X171150001Y-126857499D01*
X171794790Y-126857499D01*
X171794791Y-126857498D01*
X171819874Y-126854590D01*
X171922477Y-126809286D01*
X172001786Y-126729977D01*
X172047090Y-126627372D01*
X172049999Y-126602297D01*
X172050000Y-126602295D01*
X172050000Y-125957501D01*
X172049999Y-125957500D01*
X171333012Y-125957500D01*
X171365925Y-125900493D01*
X171400000Y-125773326D01*
X171400000Y-125641674D01*
X171365925Y-125514507D01*
X171333012Y-125457500D01*
X172049998Y-125457500D01*
X172049999Y-125457499D01*
X172049999Y-124812710D01*
X172049998Y-124812708D01*
X172047090Y-124787625D01*
X172001786Y-124685022D01*
X171922477Y-124605713D01*
X171819872Y-124560409D01*
X171794797Y-124557500D01*
X171150001Y-124557500D01*
X171150000Y-124557501D01*
X171150000Y-125274488D01*
X171092993Y-125241575D01*
X170965826Y-125207500D01*
X170834174Y-125207500D01*
X170707007Y-125241575D01*
X170650000Y-125274488D01*
X170650000Y-124557501D01*
X170649999Y-124557500D01*
X170005210Y-124557500D01*
X170005207Y-124557501D01*
X169980125Y-124560409D01*
X169877522Y-124605713D01*
X169798213Y-124685022D01*
X169752909Y-124787627D01*
X169750000Y-124812702D01*
X168911690Y-124812702D01*
X168857597Y-124776558D01*
X168666418Y-124697369D01*
X168463467Y-124657000D01*
X168463465Y-124657000D01*
X168256535Y-124657000D01*
X168256532Y-124657000D01*
X168053581Y-124697369D01*
X167862402Y-124776558D01*
X167690348Y-124891520D01*
X167544020Y-125037848D01*
X167429058Y-125209902D01*
X167349869Y-125401081D01*
X167309500Y-125604032D01*
X166870499Y-125604032D01*
X166830130Y-125401080D01*
X166750941Y-125209902D01*
X166635977Y-125037845D01*
X166489655Y-124891523D01*
X166489651Y-124891520D01*
X166317597Y-124776558D01*
X166126418Y-124697369D01*
X165923467Y-124657000D01*
X165923465Y-124657000D01*
X165716535Y-124657000D01*
X165716532Y-124657000D01*
X165513581Y-124697369D01*
X165322402Y-124776558D01*
X165150348Y-124891520D01*
X165004020Y-125037848D01*
X164889058Y-125209902D01*
X164809869Y-125401081D01*
X164769500Y-125604032D01*
X123400500Y-125604032D01*
X123400500Y-124096608D01*
X123949500Y-124096608D01*
X123949500Y-124228392D01*
X123979579Y-124340651D01*
X123983609Y-124355690D01*
X124049496Y-124469809D01*
X124049498Y-124469811D01*
X124049500Y-124469814D01*
X124142686Y-124563000D01*
X124142688Y-124563001D01*
X124142690Y-124563003D01*
X124256810Y-124628890D01*
X124256808Y-124628890D01*
X124256812Y-124628891D01*
X124256814Y-124628892D01*
X124384108Y-124663000D01*
X124384110Y-124663000D01*
X124515890Y-124663000D01*
X124515892Y-124663000D01*
X124643186Y-124628892D01*
X124643188Y-124628890D01*
X124643190Y-124628890D01*
X124757309Y-124563003D01*
X124757309Y-124563002D01*
X124757314Y-124563000D01*
X124850500Y-124469814D01*
X124916392Y-124355686D01*
X124950500Y-124228392D01*
X124950500Y-124096608D01*
X125249500Y-124096608D01*
X125249500Y-124228392D01*
X125279579Y-124340651D01*
X125283609Y-124355690D01*
X125349496Y-124469809D01*
X125349498Y-124469811D01*
X125349500Y-124469814D01*
X125442686Y-124563000D01*
X125442688Y-124563001D01*
X125442690Y-124563003D01*
X125556810Y-124628890D01*
X125556808Y-124628890D01*
X125556812Y-124628891D01*
X125556814Y-124628892D01*
X125684108Y-124663000D01*
X125684110Y-124663000D01*
X125815890Y-124663000D01*
X125815892Y-124663000D01*
X125943186Y-124628892D01*
X125943188Y-124628890D01*
X125943190Y-124628890D01*
X126057309Y-124563003D01*
X126057309Y-124563002D01*
X126057314Y-124563000D01*
X126150500Y-124469814D01*
X126216392Y-124355686D01*
X126250500Y-124228392D01*
X126250500Y-124096608D01*
X126549500Y-124096608D01*
X126549500Y-124228392D01*
X126579579Y-124340651D01*
X126583609Y-124355690D01*
X126649496Y-124469809D01*
X126649498Y-124469811D01*
X126649500Y-124469814D01*
X126742686Y-124563000D01*
X126742688Y-124563001D01*
X126742690Y-124563003D01*
X126856810Y-124628890D01*
X126856808Y-124628890D01*
X126856812Y-124628891D01*
X126856814Y-124628892D01*
X126984108Y-124663000D01*
X126984110Y-124663000D01*
X127115890Y-124663000D01*
X127115892Y-124663000D01*
X127243186Y-124628892D01*
X127243188Y-124628890D01*
X127243190Y-124628890D01*
X127357309Y-124563003D01*
X127357309Y-124563002D01*
X127357314Y-124563000D01*
X127450500Y-124469814D01*
X127516392Y-124355686D01*
X127550500Y-124228392D01*
X127550500Y-124096608D01*
X127516392Y-123969314D01*
X127516390Y-123969311D01*
X127516390Y-123969309D01*
X127450503Y-123855190D01*
X127450501Y-123855188D01*
X127450500Y-123855186D01*
X127357314Y-123762000D01*
X127357311Y-123761998D01*
X127357309Y-123761996D01*
X127243189Y-123696109D01*
X127243191Y-123696109D01*
X127193799Y-123682875D01*
X127115892Y-123662000D01*
X126984108Y-123662000D01*
X126906200Y-123682875D01*
X126856809Y-123696109D01*
X126742690Y-123761996D01*
X126649496Y-123855190D01*
X126583609Y-123969309D01*
X126575386Y-123999998D01*
X126549500Y-124096608D01*
X126250500Y-124096608D01*
X126216392Y-123969314D01*
X126216390Y-123969311D01*
X126216390Y-123969309D01*
X126150503Y-123855190D01*
X126150501Y-123855188D01*
X126150500Y-123855186D01*
X126057314Y-123762000D01*
X126057311Y-123761998D01*
X126057309Y-123761996D01*
X125943189Y-123696109D01*
X125943191Y-123696109D01*
X125893799Y-123682875D01*
X125815892Y-123662000D01*
X125684108Y-123662000D01*
X125606200Y-123682875D01*
X125556809Y-123696109D01*
X125442690Y-123761996D01*
X125349496Y-123855190D01*
X125283609Y-123969309D01*
X125275386Y-123999998D01*
X125249500Y-124096608D01*
X124950500Y-124096608D01*
X124916392Y-123969314D01*
X124916390Y-123969311D01*
X124916390Y-123969309D01*
X124850503Y-123855190D01*
X124850501Y-123855188D01*
X124850500Y-123855186D01*
X124757314Y-123762000D01*
X124757311Y-123761998D01*
X124757309Y-123761996D01*
X124643189Y-123696109D01*
X124643191Y-123696109D01*
X124593799Y-123682875D01*
X124515892Y-123662000D01*
X124384108Y-123662000D01*
X124306200Y-123682875D01*
X124256809Y-123696109D01*
X124142690Y-123761996D01*
X124049496Y-123855190D01*
X123983609Y-123969309D01*
X123975386Y-123999998D01*
X123949500Y-124096608D01*
X123400500Y-124096608D01*
X123400500Y-122746532D01*
X164769500Y-122746532D01*
X164769500Y-122953467D01*
X164809869Y-123156418D01*
X164889058Y-123347597D01*
X164889059Y-123347598D01*
X165004023Y-123519655D01*
X165150345Y-123665977D01*
X165322402Y-123780941D01*
X165513580Y-123860130D01*
X165716535Y-123900500D01*
X165716536Y-123900500D01*
X165923464Y-123900500D01*
X165923465Y-123900500D01*
X166126420Y-123860130D01*
X166317598Y-123780941D01*
X166489655Y-123665977D01*
X166635977Y-123519655D01*
X166750941Y-123347598D01*
X166830130Y-123156420D01*
X166870500Y-122953465D01*
X166870500Y-122746535D01*
X166870499Y-122746532D01*
X167309500Y-122746532D01*
X167309500Y-122953467D01*
X167349869Y-123156418D01*
X167429058Y-123347597D01*
X167429059Y-123347598D01*
X167544023Y-123519655D01*
X167690345Y-123665977D01*
X167862402Y-123780941D01*
X168053580Y-123860130D01*
X168256535Y-123900500D01*
X168256536Y-123900500D01*
X168463464Y-123900500D01*
X168463465Y-123900500D01*
X168666420Y-123860130D01*
X168857598Y-123780941D01*
X169029655Y-123665977D01*
X169175977Y-123519655D01*
X169290941Y-123347598D01*
X169370130Y-123156420D01*
X169410500Y-122953465D01*
X169410500Y-122746535D01*
X169370130Y-122543580D01*
X169290941Y-122352402D01*
X169175977Y-122180345D01*
X169029655Y-122034023D01*
X168923334Y-121962982D01*
X168911690Y-121955202D01*
X169750000Y-121955202D01*
X169750000Y-122599999D01*
X169750001Y-122600000D01*
X170466988Y-122600000D01*
X170434075Y-122657007D01*
X170400000Y-122784174D01*
X170400000Y-122915826D01*
X170434075Y-123042993D01*
X170466988Y-123100000D01*
X169750002Y-123100000D01*
X169750001Y-123100001D01*
X169750001Y-123744791D01*
X169752909Y-123769874D01*
X169798213Y-123872477D01*
X169877522Y-123951786D01*
X169980127Y-123997090D01*
X170005203Y-123999999D01*
X170649998Y-123999999D01*
X170650000Y-123999998D01*
X170650000Y-123283012D01*
X170707007Y-123315925D01*
X170834174Y-123350000D01*
X170965826Y-123350000D01*
X171092993Y-123315925D01*
X171150000Y-123283012D01*
X171150000Y-123999998D01*
X171150001Y-123999999D01*
X171794790Y-123999999D01*
X171794791Y-123999998D01*
X171819874Y-123997090D01*
X171922477Y-123951786D01*
X172001786Y-123872477D01*
X172047090Y-123769872D01*
X172049999Y-123744797D01*
X172050000Y-123744795D01*
X172050000Y-123100001D01*
X172049999Y-123100000D01*
X171333012Y-123100000D01*
X171365925Y-123042993D01*
X171400000Y-122915826D01*
X171400000Y-122784174D01*
X171365925Y-122657007D01*
X171333012Y-122600000D01*
X172049998Y-122600000D01*
X172049999Y-122599999D01*
X172049999Y-121955210D01*
X172049998Y-121955208D01*
X172047090Y-121930125D01*
X172001786Y-121827522D01*
X171922477Y-121748213D01*
X171819872Y-121702909D01*
X171794797Y-121700000D01*
X171150001Y-121700000D01*
X171150000Y-121700001D01*
X171150000Y-122416988D01*
X171092993Y-122384075D01*
X170965826Y-122350000D01*
X170834174Y-122350000D01*
X170707007Y-122384075D01*
X170650000Y-122416988D01*
X170650000Y-121700001D01*
X170649999Y-121700000D01*
X170005210Y-121700000D01*
X170005207Y-121700001D01*
X169980125Y-121702909D01*
X169877522Y-121748213D01*
X169798213Y-121827522D01*
X169752909Y-121930127D01*
X169750000Y-121955202D01*
X168911690Y-121955202D01*
X168857597Y-121919058D01*
X168666418Y-121839869D01*
X168463467Y-121799500D01*
X168463465Y-121799500D01*
X168256535Y-121799500D01*
X168256532Y-121799500D01*
X168053581Y-121839869D01*
X167862402Y-121919058D01*
X167690348Y-122034020D01*
X167544020Y-122180348D01*
X167429058Y-122352402D01*
X167349869Y-122543581D01*
X167309500Y-122746532D01*
X166870499Y-122746532D01*
X166830130Y-122543580D01*
X166750941Y-122352402D01*
X166635977Y-122180345D01*
X166489655Y-122034023D01*
X166383334Y-121962982D01*
X166317597Y-121919058D01*
X166126418Y-121839869D01*
X165923467Y-121799500D01*
X165923465Y-121799500D01*
X165716535Y-121799500D01*
X165716532Y-121799500D01*
X165513581Y-121839869D01*
X165322402Y-121919058D01*
X165150348Y-122034020D01*
X165004020Y-122180348D01*
X164889058Y-122352402D01*
X164809869Y-122543581D01*
X164769500Y-122746532D01*
X123400500Y-122746532D01*
X123400500Y-121377525D01*
X160049500Y-121377525D01*
X160049500Y-121522474D01*
X160087017Y-121662489D01*
X160159487Y-121788010D01*
X160159489Y-121788012D01*
X160159491Y-121788015D01*
X160261985Y-121890509D01*
X160261987Y-121890510D01*
X160261989Y-121890512D01*
X160387511Y-121962982D01*
X160387512Y-121962982D01*
X160387515Y-121962984D01*
X160527525Y-122000500D01*
X160527526Y-122000500D01*
X160672474Y-122000500D01*
X160672475Y-122000500D01*
X160812485Y-121962984D01*
X160812487Y-121962982D01*
X160812489Y-121962982D01*
X160938010Y-121890512D01*
X160938010Y-121890511D01*
X160938015Y-121890509D01*
X161040509Y-121788015D01*
X161112984Y-121662485D01*
X161150500Y-121522475D01*
X161150500Y-121377525D01*
X161112984Y-121237515D01*
X161112982Y-121237512D01*
X161112982Y-121237510D01*
X161040512Y-121111989D01*
X161040510Y-121111987D01*
X161040509Y-121111985D01*
X160938015Y-121009491D01*
X160938012Y-121009489D01*
X160938010Y-121009487D01*
X160812488Y-120937017D01*
X160812489Y-120937017D01*
X160782896Y-120929087D01*
X160672475Y-120899500D01*
X160527525Y-120899500D01*
X160465790Y-120916041D01*
X160387510Y-120937017D01*
X160261989Y-121009487D01*
X160159487Y-121111989D01*
X160087017Y-121237510D01*
X160049500Y-121377525D01*
X123400500Y-121377525D01*
X123400500Y-119931532D01*
X164749500Y-119931532D01*
X164749500Y-120138467D01*
X164789869Y-120341418D01*
X164869058Y-120532597D01*
X164869059Y-120532598D01*
X164984023Y-120704655D01*
X165130345Y-120850977D01*
X165302402Y-120965941D01*
X165493580Y-121045130D01*
X165696535Y-121085500D01*
X165696536Y-121085500D01*
X165903464Y-121085500D01*
X165903465Y-121085500D01*
X166106420Y-121045130D01*
X166297598Y-120965941D01*
X166469655Y-120850977D01*
X166615977Y-120704655D01*
X166730941Y-120532598D01*
X166810130Y-120341420D01*
X166850500Y-120138465D01*
X166850500Y-119931535D01*
X166850499Y-119931532D01*
X167289500Y-119931532D01*
X167289500Y-120138467D01*
X167329869Y-120341418D01*
X167409058Y-120532597D01*
X167409059Y-120532598D01*
X167524023Y-120704655D01*
X167670345Y-120850977D01*
X167842402Y-120965941D01*
X168033580Y-121045130D01*
X168236535Y-121085500D01*
X168236536Y-121085500D01*
X168443464Y-121085500D01*
X168443465Y-121085500D01*
X168646420Y-121045130D01*
X168837598Y-120965941D01*
X169009655Y-120850977D01*
X169155977Y-120704655D01*
X169270941Y-120532598D01*
X169350130Y-120341420D01*
X169390500Y-120138465D01*
X169390500Y-119931535D01*
X169350130Y-119728580D01*
X169270941Y-119537402D01*
X169155977Y-119365345D01*
X169009655Y-119219023D01*
X169007338Y-119217475D01*
X168891690Y-119140202D01*
X169730000Y-119140202D01*
X169730000Y-119784999D01*
X169730001Y-119785000D01*
X170446988Y-119785000D01*
X170414075Y-119842007D01*
X170380000Y-119969174D01*
X170380000Y-120100826D01*
X170414075Y-120227993D01*
X170446988Y-120285000D01*
X169730002Y-120285000D01*
X169730001Y-120285001D01*
X169730001Y-120929791D01*
X169732909Y-120954874D01*
X169778213Y-121057477D01*
X169857522Y-121136786D01*
X169960127Y-121182090D01*
X169985203Y-121184999D01*
X170629998Y-121184999D01*
X170630000Y-121184998D01*
X170630000Y-120468012D01*
X170687007Y-120500925D01*
X170814174Y-120535000D01*
X170945826Y-120535000D01*
X171072993Y-120500925D01*
X171130000Y-120468012D01*
X171130000Y-121184998D01*
X171130001Y-121184999D01*
X171774790Y-121184999D01*
X171774791Y-121184998D01*
X171799874Y-121182090D01*
X171902477Y-121136786D01*
X171981786Y-121057477D01*
X172027090Y-120954872D01*
X172029999Y-120929797D01*
X172030000Y-120929795D01*
X172030000Y-120285001D01*
X172029999Y-120285000D01*
X171313012Y-120285000D01*
X171345925Y-120227993D01*
X171380000Y-120100826D01*
X171380000Y-119969174D01*
X171345925Y-119842007D01*
X171313012Y-119785000D01*
X172029998Y-119785000D01*
X172029999Y-119784999D01*
X172029999Y-119140210D01*
X172029998Y-119140208D01*
X172027090Y-119115125D01*
X171981786Y-119012522D01*
X171902477Y-118933213D01*
X171799872Y-118887909D01*
X171774797Y-118885000D01*
X171130001Y-118885000D01*
X171130000Y-118885001D01*
X171130000Y-119601988D01*
X171072993Y-119569075D01*
X170945826Y-119535000D01*
X170814174Y-119535000D01*
X170687007Y-119569075D01*
X170630000Y-119601988D01*
X170630000Y-118885001D01*
X170629999Y-118885000D01*
X169985210Y-118885000D01*
X169985207Y-118885001D01*
X169960125Y-118887909D01*
X169857522Y-118933213D01*
X169778213Y-119012522D01*
X169732909Y-119115127D01*
X169730000Y-119140202D01*
X168891690Y-119140202D01*
X168837597Y-119104058D01*
X168646418Y-119024869D01*
X168443467Y-118984500D01*
X168443465Y-118984500D01*
X168236535Y-118984500D01*
X168236532Y-118984500D01*
X168033581Y-119024869D01*
X167842402Y-119104058D01*
X167670348Y-119219020D01*
X167524020Y-119365348D01*
X167409058Y-119537402D01*
X167329869Y-119728581D01*
X167289500Y-119931532D01*
X166850499Y-119931532D01*
X166810130Y-119728580D01*
X166730941Y-119537402D01*
X166615977Y-119365345D01*
X166469655Y-119219023D01*
X166469651Y-119219020D01*
X166297597Y-119104058D01*
X166106418Y-119024869D01*
X165903467Y-118984500D01*
X165903465Y-118984500D01*
X165696535Y-118984500D01*
X165696532Y-118984500D01*
X165493581Y-119024869D01*
X165302402Y-119104058D01*
X165130348Y-119219020D01*
X164984020Y-119365348D01*
X164869058Y-119537402D01*
X164789869Y-119728581D01*
X164749500Y-119931532D01*
X123400500Y-119931532D01*
X123400500Y-118177525D01*
X144649500Y-118177525D01*
X144649500Y-118322474D01*
X144687017Y-118462489D01*
X144759487Y-118588010D01*
X144759489Y-118588012D01*
X144759491Y-118588015D01*
X144861985Y-118690509D01*
X144861987Y-118690510D01*
X144861989Y-118690512D01*
X144987511Y-118762982D01*
X144987512Y-118762982D01*
X144987515Y-118762984D01*
X145127525Y-118800500D01*
X145127526Y-118800500D01*
X145272474Y-118800500D01*
X145272475Y-118800500D01*
X145412485Y-118762984D01*
X145412487Y-118762982D01*
X145412489Y-118762982D01*
X145538010Y-118690512D01*
X145538010Y-118690511D01*
X145538015Y-118690509D01*
X145640509Y-118588015D01*
X145704301Y-118477525D01*
X160649500Y-118477525D01*
X160649500Y-118622474D01*
X160687017Y-118762489D01*
X160759487Y-118888010D01*
X160759489Y-118888012D01*
X160759491Y-118888015D01*
X160861985Y-118990509D01*
X160861987Y-118990510D01*
X160861989Y-118990512D01*
X160987511Y-119062982D01*
X160987512Y-119062982D01*
X160987515Y-119062984D01*
X161127525Y-119100500D01*
X161127526Y-119100500D01*
X161272474Y-119100500D01*
X161272475Y-119100500D01*
X161412485Y-119062984D01*
X161412487Y-119062982D01*
X161412489Y-119062982D01*
X161538010Y-118990512D01*
X161538010Y-118990511D01*
X161538015Y-118990509D01*
X161640509Y-118888015D01*
X161712984Y-118762485D01*
X161750500Y-118622475D01*
X161750500Y-118477525D01*
X161712984Y-118337515D01*
X161712982Y-118337512D01*
X161712982Y-118337510D01*
X161640512Y-118211989D01*
X161640510Y-118211987D01*
X161640509Y-118211985D01*
X161538015Y-118109491D01*
X161538012Y-118109489D01*
X161538010Y-118109487D01*
X161412488Y-118037017D01*
X161412489Y-118037017D01*
X161382896Y-118029087D01*
X161272475Y-117999500D01*
X161127525Y-117999500D01*
X161065790Y-118016041D01*
X160987510Y-118037017D01*
X160861989Y-118109487D01*
X160759487Y-118211989D01*
X160687017Y-118337510D01*
X160649500Y-118477525D01*
X145704301Y-118477525D01*
X145712984Y-118462485D01*
X145750500Y-118322475D01*
X145750500Y-118177525D01*
X145712984Y-118037515D01*
X145712982Y-118037512D01*
X145712982Y-118037510D01*
X145640512Y-117911989D01*
X145640510Y-117911987D01*
X145640509Y-117911985D01*
X145538015Y-117809491D01*
X145538012Y-117809489D01*
X145538010Y-117809487D01*
X145412488Y-117737017D01*
X145412489Y-117737017D01*
X145361763Y-117723425D01*
X145272475Y-117699500D01*
X145127525Y-117699500D01*
X145065790Y-117716041D01*
X144987510Y-117737017D01*
X144861989Y-117809487D01*
X144759487Y-117911989D01*
X144687017Y-118037510D01*
X144649500Y-118177525D01*
X123400500Y-118177525D01*
X123400500Y-117154032D01*
X164749500Y-117154032D01*
X164749500Y-117360967D01*
X164789869Y-117563918D01*
X164869058Y-117755097D01*
X164973889Y-117911989D01*
X164984023Y-117927155D01*
X165130345Y-118073477D01*
X165302402Y-118188441D01*
X165493580Y-118267630D01*
X165696535Y-118308000D01*
X165696536Y-118308000D01*
X165903464Y-118308000D01*
X165903465Y-118308000D01*
X166106420Y-118267630D01*
X166297598Y-118188441D01*
X166469655Y-118073477D01*
X166615977Y-117927155D01*
X166730941Y-117755098D01*
X166810130Y-117563920D01*
X166850500Y-117360965D01*
X166850500Y-117154035D01*
X166850499Y-117154032D01*
X167289500Y-117154032D01*
X167289500Y-117360967D01*
X167329869Y-117563918D01*
X167409058Y-117755097D01*
X167513889Y-117911989D01*
X167524023Y-117927155D01*
X167670345Y-118073477D01*
X167842402Y-118188441D01*
X168033580Y-118267630D01*
X168236535Y-118308000D01*
X168236536Y-118308000D01*
X168443464Y-118308000D01*
X168443465Y-118308000D01*
X168646420Y-118267630D01*
X168837598Y-118188441D01*
X169009655Y-118073477D01*
X169155977Y-117927155D01*
X169270941Y-117755098D01*
X169350130Y-117563920D01*
X169390500Y-117360965D01*
X169390500Y-117154035D01*
X169350130Y-116951080D01*
X169270941Y-116759902D01*
X169155977Y-116587845D01*
X169009655Y-116441523D01*
X169007338Y-116439975D01*
X168891690Y-116362702D01*
X169730000Y-116362702D01*
X169730000Y-117007499D01*
X169730001Y-117007500D01*
X170446988Y-117007500D01*
X170414075Y-117064507D01*
X170380000Y-117191674D01*
X170380000Y-117323326D01*
X170414075Y-117450493D01*
X170446988Y-117507500D01*
X169730002Y-117507500D01*
X169730001Y-117507501D01*
X169730001Y-118152291D01*
X169732909Y-118177374D01*
X169778213Y-118279977D01*
X169857522Y-118359286D01*
X169960127Y-118404590D01*
X169985203Y-118407499D01*
X170629998Y-118407499D01*
X170630000Y-118407498D01*
X170630000Y-117690512D01*
X170687007Y-117723425D01*
X170814174Y-117757500D01*
X170945826Y-117757500D01*
X171072993Y-117723425D01*
X171130000Y-117690512D01*
X171130000Y-118407498D01*
X171130001Y-118407499D01*
X171774790Y-118407499D01*
X171774791Y-118407498D01*
X171799874Y-118404590D01*
X171902477Y-118359286D01*
X171981786Y-118279977D01*
X172027090Y-118177372D01*
X172029999Y-118152297D01*
X172030000Y-118152295D01*
X172030000Y-117507501D01*
X172029999Y-117507500D01*
X171313012Y-117507500D01*
X171345925Y-117450493D01*
X171380000Y-117323326D01*
X171380000Y-117191674D01*
X171345925Y-117064507D01*
X171313012Y-117007500D01*
X172029998Y-117007500D01*
X172029999Y-117007499D01*
X172029999Y-116362710D01*
X172029998Y-116362708D01*
X172027090Y-116337625D01*
X171981786Y-116235022D01*
X171902477Y-116155713D01*
X171799872Y-116110409D01*
X171774797Y-116107500D01*
X171130001Y-116107500D01*
X171130000Y-116107501D01*
X171130000Y-116824488D01*
X171072993Y-116791575D01*
X170945826Y-116757500D01*
X170814174Y-116757500D01*
X170687007Y-116791575D01*
X170630000Y-116824488D01*
X170630000Y-116107501D01*
X170629999Y-116107500D01*
X169985210Y-116107500D01*
X169985207Y-116107501D01*
X169960125Y-116110409D01*
X169857522Y-116155713D01*
X169778213Y-116235022D01*
X169732909Y-116337627D01*
X169730000Y-116362702D01*
X168891690Y-116362702D01*
X168837597Y-116326558D01*
X168646418Y-116247369D01*
X168443467Y-116207000D01*
X168443465Y-116207000D01*
X168236535Y-116207000D01*
X168236532Y-116207000D01*
X168033581Y-116247369D01*
X167842402Y-116326558D01*
X167670348Y-116441520D01*
X167524020Y-116587848D01*
X167409058Y-116759902D01*
X167329869Y-116951081D01*
X167289500Y-117154032D01*
X166850499Y-117154032D01*
X166810130Y-116951080D01*
X166730941Y-116759902D01*
X166615977Y-116587845D01*
X166469655Y-116441523D01*
X166469651Y-116441520D01*
X166297597Y-116326558D01*
X166106418Y-116247369D01*
X165903467Y-116207000D01*
X165903465Y-116207000D01*
X165696535Y-116207000D01*
X165696532Y-116207000D01*
X165493581Y-116247369D01*
X165302402Y-116326558D01*
X165130348Y-116441520D01*
X164984020Y-116587848D01*
X164869058Y-116759902D01*
X164789869Y-116951081D01*
X164749500Y-117154032D01*
X123400500Y-117154032D01*
X123400500Y-115477525D01*
X149449500Y-115477525D01*
X149449500Y-115622474D01*
X149487017Y-115762489D01*
X149559487Y-115888010D01*
X149559489Y-115888012D01*
X149559491Y-115888015D01*
X149661985Y-115990509D01*
X149661987Y-115990510D01*
X149661989Y-115990512D01*
X149787511Y-116062982D01*
X149787512Y-116062982D01*
X149787515Y-116062984D01*
X149927525Y-116100500D01*
X149927526Y-116100500D01*
X150072474Y-116100500D01*
X150072475Y-116100500D01*
X150212485Y-116062984D01*
X150212487Y-116062982D01*
X150212489Y-116062982D01*
X150338010Y-115990512D01*
X150338010Y-115990511D01*
X150338015Y-115990509D01*
X150440509Y-115888015D01*
X150512984Y-115762485D01*
X150550500Y-115622475D01*
X150550500Y-115477525D01*
X150512984Y-115337515D01*
X150512982Y-115337512D01*
X150512982Y-115337510D01*
X150440512Y-115211989D01*
X150440510Y-115211987D01*
X150440509Y-115211985D01*
X150338015Y-115109491D01*
X150338012Y-115109489D01*
X150338010Y-115109487D01*
X150212488Y-115037017D01*
X150212489Y-115037017D01*
X150182896Y-115029087D01*
X150072475Y-114999500D01*
X149927525Y-114999500D01*
X149865790Y-115016041D01*
X149787510Y-115037017D01*
X149661989Y-115109487D01*
X149559487Y-115211989D01*
X149487017Y-115337510D01*
X149449500Y-115477525D01*
X123400500Y-115477525D01*
X123400500Y-114677525D01*
X153549500Y-114677525D01*
X153549500Y-114822474D01*
X153587017Y-114962489D01*
X153659487Y-115088010D01*
X153659489Y-115088012D01*
X153659491Y-115088015D01*
X153761985Y-115190509D01*
X153761987Y-115190510D01*
X153761989Y-115190512D01*
X153887511Y-115262982D01*
X153887512Y-115262982D01*
X153887515Y-115262984D01*
X154027525Y-115300500D01*
X154027526Y-115300500D01*
X154172474Y-115300500D01*
X154172475Y-115300500D01*
X154312485Y-115262984D01*
X154312487Y-115262982D01*
X154312489Y-115262982D01*
X154438010Y-115190512D01*
X154438010Y-115190511D01*
X154438015Y-115190509D01*
X154540509Y-115088015D01*
X154569953Y-115037017D01*
X154612982Y-114962489D01*
X154612982Y-114962487D01*
X154612984Y-114962485D01*
X154650500Y-114822475D01*
X154650500Y-114677525D01*
X154612984Y-114537515D01*
X154612982Y-114537512D01*
X154612982Y-114537510D01*
X154540512Y-114411989D01*
X154540510Y-114411987D01*
X154540509Y-114411985D01*
X154482556Y-114354032D01*
X164749500Y-114354032D01*
X164749500Y-114560967D01*
X164789869Y-114763918D01*
X164869058Y-114955097D01*
X164972220Y-115109491D01*
X164984023Y-115127155D01*
X165130345Y-115273477D01*
X165302402Y-115388441D01*
X165493580Y-115467630D01*
X165696535Y-115508000D01*
X165696536Y-115508000D01*
X165903464Y-115508000D01*
X165903465Y-115508000D01*
X166106420Y-115467630D01*
X166297598Y-115388441D01*
X166469655Y-115273477D01*
X166615977Y-115127155D01*
X166730941Y-114955098D01*
X166810130Y-114763920D01*
X166850500Y-114560965D01*
X166850500Y-114354035D01*
X166850499Y-114354032D01*
X167289500Y-114354032D01*
X167289500Y-114560967D01*
X167329869Y-114763918D01*
X167409058Y-114955097D01*
X167512220Y-115109491D01*
X167524023Y-115127155D01*
X167670345Y-115273477D01*
X167842402Y-115388441D01*
X168033580Y-115467630D01*
X168236535Y-115508000D01*
X168236536Y-115508000D01*
X168443464Y-115508000D01*
X168443465Y-115508000D01*
X168646420Y-115467630D01*
X168837598Y-115388441D01*
X169009655Y-115273477D01*
X169155977Y-115127155D01*
X169270941Y-114955098D01*
X169350130Y-114763920D01*
X169390500Y-114560965D01*
X169390500Y-114354035D01*
X169350130Y-114151080D01*
X169270941Y-113959902D01*
X169155977Y-113787845D01*
X169009655Y-113641523D01*
X169007338Y-113639975D01*
X168891690Y-113562702D01*
X169730000Y-113562702D01*
X169730000Y-114207499D01*
X169730001Y-114207500D01*
X170446988Y-114207500D01*
X170414075Y-114264507D01*
X170380000Y-114391674D01*
X170380000Y-114523326D01*
X170414075Y-114650493D01*
X170446988Y-114707500D01*
X169730002Y-114707500D01*
X169730001Y-114707501D01*
X169730001Y-115352291D01*
X169732909Y-115377374D01*
X169778213Y-115479977D01*
X169857522Y-115559286D01*
X169960127Y-115604590D01*
X169985203Y-115607499D01*
X170629998Y-115607499D01*
X170630000Y-115607498D01*
X170630000Y-114890512D01*
X170687007Y-114923425D01*
X170814174Y-114957500D01*
X170945826Y-114957500D01*
X171072993Y-114923425D01*
X171130000Y-114890512D01*
X171130000Y-115607498D01*
X171130001Y-115607499D01*
X171774790Y-115607499D01*
X171774791Y-115607498D01*
X171799874Y-115604590D01*
X171902477Y-115559286D01*
X171981786Y-115479977D01*
X172027090Y-115377372D01*
X172029999Y-115352297D01*
X172030000Y-115352295D01*
X172030000Y-114707501D01*
X172029999Y-114707500D01*
X171313012Y-114707500D01*
X171345925Y-114650493D01*
X171380000Y-114523326D01*
X171380000Y-114391674D01*
X171345925Y-114264507D01*
X171313012Y-114207500D01*
X172029998Y-114207500D01*
X172029999Y-114207499D01*
X172029999Y-113562710D01*
X172029998Y-113562708D01*
X172027090Y-113537625D01*
X171981786Y-113435022D01*
X171902477Y-113355713D01*
X171799872Y-113310409D01*
X171774797Y-113307500D01*
X171130001Y-113307500D01*
X171130000Y-113307501D01*
X171130000Y-114024488D01*
X171072993Y-113991575D01*
X170945826Y-113957500D01*
X170814174Y-113957500D01*
X170687007Y-113991575D01*
X170630000Y-114024488D01*
X170630000Y-113307501D01*
X170629999Y-113307500D01*
X169985210Y-113307500D01*
X169985207Y-113307501D01*
X169960125Y-113310409D01*
X169857522Y-113355713D01*
X169778213Y-113435022D01*
X169732909Y-113537627D01*
X169730000Y-113562702D01*
X168891690Y-113562702D01*
X168837597Y-113526558D01*
X168646418Y-113447369D01*
X168443467Y-113407000D01*
X168443465Y-113407000D01*
X168236535Y-113407000D01*
X168236532Y-113407000D01*
X168033581Y-113447369D01*
X167842402Y-113526558D01*
X167670348Y-113641520D01*
X167524020Y-113787848D01*
X167409058Y-113959902D01*
X167329869Y-114151081D01*
X167289500Y-114354032D01*
X166850499Y-114354032D01*
X166810130Y-114151080D01*
X166730941Y-113959902D01*
X166615977Y-113787845D01*
X166469655Y-113641523D01*
X166469651Y-113641520D01*
X166297597Y-113526558D01*
X166106418Y-113447369D01*
X165903467Y-113407000D01*
X165903465Y-113407000D01*
X165696535Y-113407000D01*
X165696532Y-113407000D01*
X165493581Y-113447369D01*
X165302402Y-113526558D01*
X165130348Y-113641520D01*
X164984020Y-113787848D01*
X164869058Y-113959902D01*
X164789869Y-114151081D01*
X164749500Y-114354032D01*
X154482556Y-114354032D01*
X154438015Y-114309491D01*
X154438012Y-114309489D01*
X154438010Y-114309487D01*
X154312488Y-114237017D01*
X154312489Y-114237017D01*
X154282896Y-114229087D01*
X154172475Y-114199500D01*
X154027525Y-114199500D01*
X153997673Y-114207499D01*
X153887510Y-114237017D01*
X153761989Y-114309487D01*
X153659487Y-114411989D01*
X153587017Y-114537510D01*
X153549500Y-114677525D01*
X123400500Y-114677525D01*
X123400500Y-112196608D01*
X124049500Y-112196608D01*
X124049500Y-112328392D01*
X124079579Y-112440651D01*
X124083609Y-112455690D01*
X124149496Y-112569809D01*
X124149498Y-112569811D01*
X124149500Y-112569814D01*
X124242686Y-112663000D01*
X124242688Y-112663001D01*
X124242690Y-112663003D01*
X124356810Y-112728890D01*
X124356808Y-112728890D01*
X124356812Y-112728891D01*
X124356814Y-112728892D01*
X124484108Y-112763000D01*
X124484110Y-112763000D01*
X124615890Y-112763000D01*
X124615892Y-112763000D01*
X124743186Y-112728892D01*
X124743188Y-112728890D01*
X124743190Y-112728890D01*
X124857309Y-112663003D01*
X124857309Y-112663002D01*
X124857314Y-112663000D01*
X124950500Y-112569814D01*
X124956462Y-112559487D01*
X125016390Y-112455690D01*
X125016390Y-112455688D01*
X125016392Y-112455686D01*
X125050500Y-112328392D01*
X125050500Y-112196608D01*
X125549500Y-112196608D01*
X125549500Y-112328392D01*
X125579579Y-112440651D01*
X125583609Y-112455690D01*
X125649496Y-112569809D01*
X125649498Y-112569811D01*
X125649500Y-112569814D01*
X125742686Y-112663000D01*
X125742688Y-112663001D01*
X125742690Y-112663003D01*
X125856810Y-112728890D01*
X125856808Y-112728890D01*
X125856812Y-112728891D01*
X125856814Y-112728892D01*
X125984108Y-112763000D01*
X125984110Y-112763000D01*
X126115890Y-112763000D01*
X126115892Y-112763000D01*
X126243186Y-112728892D01*
X126243188Y-112728890D01*
X126243190Y-112728890D01*
X126357309Y-112663003D01*
X126357309Y-112663002D01*
X126357314Y-112663000D01*
X126450500Y-112569814D01*
X126456462Y-112559487D01*
X126516390Y-112455690D01*
X126516390Y-112455688D01*
X126516392Y-112455686D01*
X126550500Y-112328392D01*
X126550500Y-112196608D01*
X126849500Y-112196608D01*
X126849500Y-112328392D01*
X126879579Y-112440651D01*
X126883609Y-112455690D01*
X126949496Y-112569809D01*
X126949498Y-112569811D01*
X126949500Y-112569814D01*
X127042686Y-112663000D01*
X127042688Y-112663001D01*
X127042690Y-112663003D01*
X127156810Y-112728890D01*
X127156808Y-112728890D01*
X127156812Y-112728891D01*
X127156814Y-112728892D01*
X127284108Y-112763000D01*
X127284110Y-112763000D01*
X127415890Y-112763000D01*
X127415892Y-112763000D01*
X127543186Y-112728892D01*
X127543188Y-112728890D01*
X127543190Y-112728890D01*
X127657309Y-112663003D01*
X127657309Y-112663002D01*
X127657314Y-112663000D01*
X127730289Y-112590025D01*
X133599500Y-112590025D01*
X133599500Y-112734975D01*
X133618933Y-112807498D01*
X133637017Y-112874989D01*
X133709487Y-113000510D01*
X133709489Y-113000512D01*
X133709491Y-113000515D01*
X133811985Y-113103009D01*
X133811987Y-113103010D01*
X133811989Y-113103012D01*
X133937511Y-113175482D01*
X133937512Y-113175482D01*
X133937515Y-113175484D01*
X134077525Y-113213000D01*
X134077526Y-113213000D01*
X134222474Y-113213000D01*
X134222475Y-113213000D01*
X134362485Y-113175484D01*
X134362487Y-113175482D01*
X134362489Y-113175482D01*
X134488010Y-113103012D01*
X134488010Y-113103011D01*
X134488015Y-113103009D01*
X134590509Y-113000515D01*
X134632650Y-112927525D01*
X160899500Y-112927525D01*
X160899500Y-113072475D01*
X160929087Y-113182896D01*
X160937017Y-113212489D01*
X161009487Y-113338010D01*
X161009489Y-113338012D01*
X161009491Y-113338015D01*
X161111985Y-113440509D01*
X161111987Y-113440510D01*
X161111989Y-113440512D01*
X161237511Y-113512982D01*
X161237512Y-113512982D01*
X161237515Y-113512984D01*
X161377525Y-113550500D01*
X161377526Y-113550500D01*
X161522474Y-113550500D01*
X161522475Y-113550500D01*
X161662485Y-113512984D01*
X161662487Y-113512982D01*
X161662489Y-113512982D01*
X161788010Y-113440512D01*
X161788010Y-113440511D01*
X161788015Y-113440509D01*
X161890509Y-113338015D01*
X161890512Y-113338010D01*
X161962982Y-113212489D01*
X161962982Y-113212487D01*
X161962984Y-113212485D01*
X162000500Y-113072475D01*
X162000500Y-112927525D01*
X161962984Y-112787515D01*
X161962982Y-112787512D01*
X161962982Y-112787510D01*
X161890512Y-112661989D01*
X161890510Y-112661987D01*
X161890509Y-112661985D01*
X161788015Y-112559491D01*
X161788012Y-112559489D01*
X161788010Y-112559487D01*
X161662488Y-112487017D01*
X161662489Y-112487017D01*
X161611957Y-112473477D01*
X161522475Y-112449500D01*
X161377525Y-112449500D01*
X161354439Y-112455686D01*
X161237510Y-112487017D01*
X161111989Y-112559487D01*
X161009487Y-112661989D01*
X160937017Y-112787510D01*
X160931661Y-112807499D01*
X160899500Y-112927525D01*
X134632650Y-112927525D01*
X134662984Y-112874985D01*
X134700500Y-112734975D01*
X134700500Y-112590025D01*
X134662984Y-112450015D01*
X134662982Y-112450012D01*
X134662982Y-112450010D01*
X134590512Y-112324489D01*
X134590510Y-112324487D01*
X134590509Y-112324485D01*
X134488015Y-112221991D01*
X134488012Y-112221989D01*
X134488010Y-112221987D01*
X134362488Y-112149517D01*
X134362489Y-112149517D01*
X134265113Y-112123425D01*
X134222475Y-112112000D01*
X134077525Y-112112000D01*
X134034887Y-112123425D01*
X133937510Y-112149517D01*
X133811989Y-112221987D01*
X133709487Y-112324489D01*
X133637017Y-112450010D01*
X133627101Y-112487016D01*
X133599500Y-112590025D01*
X127730289Y-112590025D01*
X127750500Y-112569814D01*
X127806120Y-112473479D01*
X127816390Y-112455690D01*
X127816390Y-112455688D01*
X127816392Y-112455686D01*
X127850500Y-112328392D01*
X127850500Y-112196608D01*
X127816392Y-112069314D01*
X127816390Y-112069311D01*
X127816390Y-112069309D01*
X127750503Y-111955190D01*
X127750501Y-111955188D01*
X127750500Y-111955186D01*
X127657314Y-111862000D01*
X127657311Y-111861998D01*
X127657309Y-111861996D01*
X127543189Y-111796109D01*
X127543191Y-111796109D01*
X127493799Y-111782875D01*
X127415892Y-111762000D01*
X127284108Y-111762000D01*
X127206200Y-111782875D01*
X127156809Y-111796109D01*
X127042690Y-111861996D01*
X126949496Y-111955190D01*
X126883609Y-112069309D01*
X126883608Y-112069314D01*
X126849500Y-112196608D01*
X126550500Y-112196608D01*
X126516392Y-112069314D01*
X126516390Y-112069311D01*
X126516390Y-112069309D01*
X126450503Y-111955190D01*
X126450501Y-111955188D01*
X126450500Y-111955186D01*
X126357314Y-111862000D01*
X126357311Y-111861998D01*
X126357309Y-111861996D01*
X126243189Y-111796109D01*
X126243191Y-111796109D01*
X126193799Y-111782875D01*
X126115892Y-111762000D01*
X125984108Y-111762000D01*
X125906200Y-111782875D01*
X125856809Y-111796109D01*
X125742690Y-111861996D01*
X125649496Y-111955190D01*
X125583609Y-112069309D01*
X125583608Y-112069314D01*
X125549500Y-112196608D01*
X125050500Y-112196608D01*
X125016392Y-112069314D01*
X125016390Y-112069311D01*
X125016390Y-112069309D01*
X124950503Y-111955190D01*
X124950501Y-111955188D01*
X124950500Y-111955186D01*
X124857314Y-111862000D01*
X124857311Y-111861998D01*
X124857309Y-111861996D01*
X124743189Y-111796109D01*
X124743191Y-111796109D01*
X124693799Y-111782875D01*
X124615892Y-111762000D01*
X124484108Y-111762000D01*
X124406200Y-111782875D01*
X124356809Y-111796109D01*
X124242690Y-111861996D01*
X124149496Y-111955190D01*
X124083609Y-112069309D01*
X124083608Y-112069314D01*
X124049500Y-112196608D01*
X123400500Y-112196608D01*
X123400500Y-111554032D01*
X164749500Y-111554032D01*
X164749500Y-111760967D01*
X164789869Y-111963918D01*
X164869058Y-112155097D01*
X164984020Y-112327151D01*
X164984023Y-112327155D01*
X165130345Y-112473477D01*
X165302402Y-112588441D01*
X165493580Y-112667630D01*
X165696535Y-112708000D01*
X165696536Y-112708000D01*
X165903464Y-112708000D01*
X165903465Y-112708000D01*
X166106420Y-112667630D01*
X166297598Y-112588441D01*
X166469655Y-112473477D01*
X166615977Y-112327155D01*
X166730941Y-112155098D01*
X166810130Y-111963920D01*
X166850500Y-111760965D01*
X166850500Y-111554035D01*
X166850499Y-111554032D01*
X167289500Y-111554032D01*
X167289500Y-111760967D01*
X167329869Y-111963918D01*
X167409058Y-112155097D01*
X167524020Y-112327151D01*
X167524023Y-112327155D01*
X167670345Y-112473477D01*
X167842402Y-112588441D01*
X168033580Y-112667630D01*
X168236535Y-112708000D01*
X168236536Y-112708000D01*
X168443464Y-112708000D01*
X168443465Y-112708000D01*
X168646420Y-112667630D01*
X168837598Y-112588441D01*
X169009655Y-112473477D01*
X169155977Y-112327155D01*
X169270941Y-112155098D01*
X169350130Y-111963920D01*
X169390500Y-111760965D01*
X169390500Y-111554035D01*
X169350130Y-111351080D01*
X169270941Y-111159902D01*
X169155977Y-110987845D01*
X169009655Y-110841523D01*
X169007338Y-110839975D01*
X168891690Y-110762702D01*
X169730000Y-110762702D01*
X169730000Y-111407499D01*
X169730001Y-111407500D01*
X170446988Y-111407500D01*
X170414075Y-111464507D01*
X170380000Y-111591674D01*
X170380000Y-111723326D01*
X170414075Y-111850493D01*
X170446988Y-111907500D01*
X169730002Y-111907500D01*
X169730001Y-111907501D01*
X169730001Y-112552291D01*
X169732909Y-112577374D01*
X169778213Y-112679977D01*
X169857522Y-112759286D01*
X169960127Y-112804590D01*
X169985203Y-112807499D01*
X170629998Y-112807499D01*
X170630000Y-112807498D01*
X170630000Y-112090512D01*
X170687007Y-112123425D01*
X170814174Y-112157500D01*
X170945826Y-112157500D01*
X171072993Y-112123425D01*
X171130000Y-112090512D01*
X171130000Y-112807498D01*
X171130001Y-112807499D01*
X171774790Y-112807499D01*
X171774791Y-112807498D01*
X171799874Y-112804590D01*
X171902477Y-112759286D01*
X171981786Y-112679977D01*
X172027090Y-112577372D01*
X172029999Y-112552297D01*
X172030000Y-112552295D01*
X172030000Y-111907501D01*
X172029999Y-111907500D01*
X171313012Y-111907500D01*
X171345925Y-111850493D01*
X171380000Y-111723326D01*
X171380000Y-111591674D01*
X171345925Y-111464507D01*
X171313012Y-111407500D01*
X172029998Y-111407500D01*
X172029999Y-111407499D01*
X172029999Y-110762710D01*
X172029998Y-110762708D01*
X172027090Y-110737625D01*
X171981786Y-110635022D01*
X171902477Y-110555713D01*
X171799872Y-110510409D01*
X171774797Y-110507500D01*
X171130001Y-110507500D01*
X171130000Y-110507501D01*
X171130000Y-111224488D01*
X171072993Y-111191575D01*
X170945826Y-111157500D01*
X170814174Y-111157500D01*
X170687007Y-111191575D01*
X170630000Y-111224488D01*
X170630000Y-110507501D01*
X170629999Y-110507500D01*
X169985210Y-110507500D01*
X169985207Y-110507501D01*
X169960125Y-110510409D01*
X169857522Y-110555713D01*
X169778213Y-110635022D01*
X169732909Y-110737627D01*
X169730000Y-110762702D01*
X168891690Y-110762702D01*
X168837597Y-110726558D01*
X168646418Y-110647369D01*
X168443467Y-110607000D01*
X168443465Y-110607000D01*
X168236535Y-110607000D01*
X168236532Y-110607000D01*
X168033581Y-110647369D01*
X167842402Y-110726558D01*
X167670348Y-110841520D01*
X167524020Y-110987848D01*
X167409058Y-111159902D01*
X167329869Y-111351081D01*
X167289500Y-111554032D01*
X166850499Y-111554032D01*
X166810130Y-111351080D01*
X166730941Y-111159902D01*
X166615977Y-110987845D01*
X166469655Y-110841523D01*
X166469651Y-110841520D01*
X166297597Y-110726558D01*
X166106418Y-110647369D01*
X165903467Y-110607000D01*
X165903465Y-110607000D01*
X165696535Y-110607000D01*
X165696532Y-110607000D01*
X165493581Y-110647369D01*
X165302402Y-110726558D01*
X165130348Y-110841520D01*
X164984020Y-110987848D01*
X164869058Y-111159902D01*
X164789869Y-111351081D01*
X164749500Y-111554032D01*
X123400500Y-111554032D01*
X123400500Y-110677525D01*
X130349500Y-110677525D01*
X130349500Y-110822475D01*
X130354604Y-110841523D01*
X130387017Y-110962489D01*
X130459487Y-111088010D01*
X130459489Y-111088012D01*
X130459491Y-111088015D01*
X130561985Y-111190509D01*
X130561987Y-111190510D01*
X130561989Y-111190512D01*
X130687511Y-111262982D01*
X130687512Y-111262982D01*
X130687515Y-111262984D01*
X130827525Y-111300500D01*
X130827526Y-111300500D01*
X130972474Y-111300500D01*
X130972475Y-111300500D01*
X131112485Y-111262984D01*
X131112487Y-111262982D01*
X131112489Y-111262982D01*
X131238010Y-111190512D01*
X131238010Y-111190511D01*
X131238015Y-111190509D01*
X131340509Y-111088015D01*
X131398341Y-110987848D01*
X131412982Y-110962489D01*
X131412982Y-110962487D01*
X131412984Y-110962485D01*
X131450500Y-110822475D01*
X131450500Y-110677525D01*
X131412984Y-110537515D01*
X131412982Y-110537512D01*
X131412982Y-110537510D01*
X131340512Y-110411989D01*
X131340510Y-110411987D01*
X131340509Y-110411985D01*
X131238015Y-110309491D01*
X131238012Y-110309489D01*
X131238010Y-110309487D01*
X131112488Y-110237017D01*
X131112489Y-110237017D01*
X131082896Y-110229087D01*
X130972475Y-110199500D01*
X130827525Y-110199500D01*
X130765790Y-110216041D01*
X130687510Y-110237017D01*
X130561989Y-110309487D01*
X130459487Y-110411989D01*
X130387017Y-110537510D01*
X130373486Y-110588010D01*
X130349500Y-110677525D01*
X123400500Y-110677525D01*
X123400500Y-109977525D01*
X143749500Y-109977525D01*
X143749500Y-110122475D01*
X143764251Y-110177525D01*
X143787017Y-110262489D01*
X143859487Y-110388010D01*
X143859489Y-110388012D01*
X143859491Y-110388015D01*
X143961985Y-110490509D01*
X143961987Y-110490510D01*
X143961989Y-110490512D01*
X144087511Y-110562982D01*
X144087512Y-110562982D01*
X144087515Y-110562984D01*
X144227525Y-110600500D01*
X144227526Y-110600500D01*
X144372474Y-110600500D01*
X144372475Y-110600500D01*
X144512485Y-110562984D01*
X144512487Y-110562982D01*
X144512489Y-110562982D01*
X144638010Y-110490512D01*
X144638010Y-110490511D01*
X144638015Y-110490509D01*
X144740509Y-110388015D01*
X144785845Y-110309491D01*
X144812982Y-110262489D01*
X144812982Y-110262487D01*
X144812984Y-110262485D01*
X144850500Y-110122475D01*
X144850500Y-109977525D01*
X146749500Y-109977525D01*
X146749500Y-110122475D01*
X146764251Y-110177525D01*
X146787017Y-110262489D01*
X146859487Y-110388010D01*
X146859489Y-110388012D01*
X146859491Y-110388015D01*
X146961985Y-110490509D01*
X146961987Y-110490510D01*
X146961989Y-110490512D01*
X147087511Y-110562982D01*
X147087512Y-110562982D01*
X147087515Y-110562984D01*
X147227525Y-110600500D01*
X147227526Y-110600500D01*
X147372474Y-110600500D01*
X147372475Y-110600500D01*
X147512485Y-110562984D01*
X147512487Y-110562982D01*
X147512489Y-110562982D01*
X147638010Y-110490512D01*
X147638010Y-110490511D01*
X147638015Y-110490509D01*
X147740509Y-110388015D01*
X147785845Y-110309491D01*
X147812982Y-110262489D01*
X147812982Y-110262487D01*
X147812984Y-110262485D01*
X147835749Y-110177525D01*
X148149500Y-110177525D01*
X148149500Y-110322475D01*
X148179087Y-110432896D01*
X148187017Y-110462489D01*
X148259487Y-110588010D01*
X148259489Y-110588012D01*
X148259491Y-110588015D01*
X148361985Y-110690509D01*
X148361987Y-110690510D01*
X148361989Y-110690512D01*
X148487511Y-110762982D01*
X148487512Y-110762982D01*
X148487515Y-110762984D01*
X148627525Y-110800500D01*
X148627526Y-110800500D01*
X148772474Y-110800500D01*
X148772475Y-110800500D01*
X148912485Y-110762984D01*
X148912487Y-110762982D01*
X148912489Y-110762982D01*
X149038010Y-110690512D01*
X149038010Y-110690511D01*
X149038015Y-110690509D01*
X149140509Y-110588015D01*
X149186994Y-110507501D01*
X149212982Y-110462489D01*
X149212982Y-110462487D01*
X149212984Y-110462485D01*
X149250500Y-110322475D01*
X149250500Y-110177525D01*
X149212984Y-110037515D01*
X149212982Y-110037512D01*
X149212982Y-110037510D01*
X149140512Y-109911989D01*
X149140510Y-109911987D01*
X149140509Y-109911985D01*
X149038015Y-109809491D01*
X149038012Y-109809489D01*
X149038010Y-109809487D01*
X148912488Y-109737017D01*
X148912489Y-109737017D01*
X148882896Y-109729087D01*
X148772475Y-109699500D01*
X148627525Y-109699500D01*
X148580931Y-109711985D01*
X148487510Y-109737017D01*
X148361989Y-109809487D01*
X148259487Y-109911989D01*
X148187017Y-110037510D01*
X148187016Y-110037515D01*
X148149500Y-110177525D01*
X147835749Y-110177525D01*
X147850500Y-110122475D01*
X147850500Y-109977525D01*
X147812984Y-109837515D01*
X147812982Y-109837512D01*
X147812982Y-109837510D01*
X147740512Y-109711989D01*
X147740510Y-109711987D01*
X147740509Y-109711985D01*
X147638015Y-109609491D01*
X147638012Y-109609489D01*
X147638010Y-109609487D01*
X147512488Y-109537017D01*
X147512489Y-109537017D01*
X147482896Y-109529087D01*
X147372475Y-109499500D01*
X147227525Y-109499500D01*
X147165790Y-109516041D01*
X147087510Y-109537017D01*
X146961989Y-109609487D01*
X146859487Y-109711989D01*
X146787017Y-109837510D01*
X146756397Y-109951786D01*
X146749500Y-109977525D01*
X144850500Y-109977525D01*
X144812984Y-109837515D01*
X144812982Y-109837512D01*
X144812982Y-109837510D01*
X144740512Y-109711989D01*
X144740510Y-109711987D01*
X144740509Y-109711985D01*
X144638015Y-109609491D01*
X144638012Y-109609489D01*
X144638010Y-109609487D01*
X144512488Y-109537017D01*
X144512489Y-109537017D01*
X144482896Y-109529087D01*
X144372475Y-109499500D01*
X144227525Y-109499500D01*
X144165790Y-109516041D01*
X144087510Y-109537017D01*
X143961989Y-109609487D01*
X143859487Y-109711989D01*
X143787017Y-109837510D01*
X143756397Y-109951786D01*
X143749500Y-109977525D01*
X123400500Y-109977525D01*
X123400500Y-107577525D01*
X135749500Y-107577525D01*
X135749500Y-107722475D01*
X135753397Y-107737017D01*
X135787017Y-107862489D01*
X135859487Y-107988010D01*
X135859489Y-107988012D01*
X135859491Y-107988015D01*
X135961985Y-108090509D01*
X135961987Y-108090510D01*
X135961989Y-108090512D01*
X136087511Y-108162982D01*
X136087512Y-108162982D01*
X136087515Y-108162984D01*
X136227525Y-108200500D01*
X136227526Y-108200500D01*
X136372474Y-108200500D01*
X136372475Y-108200500D01*
X136512485Y-108162984D01*
X136512487Y-108162982D01*
X136512489Y-108162982D01*
X136638010Y-108090512D01*
X136638010Y-108090511D01*
X136638015Y-108090509D01*
X136740509Y-107988015D01*
X136759454Y-107955202D01*
X136812982Y-107862489D01*
X136812982Y-107862487D01*
X136812984Y-107862485D01*
X136850500Y-107722475D01*
X136850500Y-107627525D01*
X142699500Y-107627525D01*
X142699500Y-107772475D01*
X142729087Y-107882896D01*
X142737017Y-107912489D01*
X142809487Y-108038010D01*
X142809489Y-108038012D01*
X142809491Y-108038015D01*
X142911985Y-108140509D01*
X142911987Y-108140510D01*
X142911989Y-108140512D01*
X143037511Y-108212982D01*
X143037512Y-108212982D01*
X143037515Y-108212984D01*
X143177525Y-108250500D01*
X143177526Y-108250500D01*
X143322474Y-108250500D01*
X143322475Y-108250500D01*
X143462485Y-108212984D01*
X143462487Y-108212982D01*
X143462489Y-108212982D01*
X143523902Y-108177525D01*
X157249500Y-108177525D01*
X157249500Y-108322475D01*
X157257519Y-108352402D01*
X157287017Y-108462489D01*
X157359487Y-108588010D01*
X157359489Y-108588012D01*
X157359491Y-108588015D01*
X157461985Y-108690509D01*
X157461987Y-108690510D01*
X157461989Y-108690512D01*
X157587511Y-108762982D01*
X157587512Y-108762982D01*
X157587515Y-108762984D01*
X157727525Y-108800500D01*
X157727526Y-108800500D01*
X157872474Y-108800500D01*
X157872475Y-108800500D01*
X158012485Y-108762984D01*
X158012487Y-108762982D01*
X158012489Y-108762982D01*
X158040981Y-108746532D01*
X164769500Y-108746532D01*
X164769500Y-108953467D01*
X164809869Y-109156418D01*
X164889058Y-109347597D01*
X164889059Y-109347598D01*
X165004023Y-109519655D01*
X165150345Y-109665977D01*
X165322402Y-109780941D01*
X165513580Y-109860130D01*
X165716535Y-109900500D01*
X165716536Y-109900500D01*
X165923464Y-109900500D01*
X165923465Y-109900500D01*
X166126420Y-109860130D01*
X166317598Y-109780941D01*
X166489655Y-109665977D01*
X166635977Y-109519655D01*
X166750941Y-109347598D01*
X166830130Y-109156420D01*
X166870500Y-108953465D01*
X166870500Y-108746535D01*
X166870499Y-108746532D01*
X167309500Y-108746532D01*
X167309500Y-108953467D01*
X167349869Y-109156418D01*
X167429058Y-109347597D01*
X167429059Y-109347598D01*
X167544023Y-109519655D01*
X167690345Y-109665977D01*
X167862402Y-109780941D01*
X168053580Y-109860130D01*
X168256535Y-109900500D01*
X168256536Y-109900500D01*
X168463464Y-109900500D01*
X168463465Y-109900500D01*
X168666420Y-109860130D01*
X168857598Y-109780941D01*
X169029655Y-109665977D01*
X169175977Y-109519655D01*
X169290941Y-109347598D01*
X169370130Y-109156420D01*
X169410500Y-108953465D01*
X169410500Y-108746535D01*
X169370130Y-108543580D01*
X169290941Y-108352402D01*
X169175977Y-108180345D01*
X169029655Y-108034023D01*
X168923334Y-107962982D01*
X168911690Y-107955202D01*
X169750000Y-107955202D01*
X169750000Y-108599999D01*
X169750001Y-108600000D01*
X170466988Y-108600000D01*
X170434075Y-108657007D01*
X170400000Y-108784174D01*
X170400000Y-108915826D01*
X170434075Y-109042993D01*
X170466988Y-109100000D01*
X169750002Y-109100000D01*
X169750001Y-109100001D01*
X169750001Y-109744791D01*
X169752909Y-109769874D01*
X169798213Y-109872477D01*
X169877522Y-109951786D01*
X169980127Y-109997090D01*
X170005203Y-109999999D01*
X170649998Y-109999999D01*
X170650000Y-109999998D01*
X170650000Y-109283012D01*
X170707007Y-109315925D01*
X170834174Y-109350000D01*
X170965826Y-109350000D01*
X171092993Y-109315925D01*
X171150000Y-109283012D01*
X171150000Y-109999998D01*
X171150001Y-109999999D01*
X171794790Y-109999999D01*
X171794791Y-109999998D01*
X171819874Y-109997090D01*
X171922477Y-109951786D01*
X172001786Y-109872477D01*
X172047090Y-109769872D01*
X172049999Y-109744797D01*
X172050000Y-109744795D01*
X172050000Y-109100001D01*
X172049999Y-109100000D01*
X171333012Y-109100000D01*
X171365925Y-109042993D01*
X171400000Y-108915826D01*
X171400000Y-108784174D01*
X171365925Y-108657007D01*
X171333012Y-108600000D01*
X172049998Y-108600000D01*
X172049999Y-108599999D01*
X172049999Y-107955210D01*
X172049998Y-107955208D01*
X172047090Y-107930125D01*
X172001786Y-107827522D01*
X171922477Y-107748213D01*
X171819872Y-107702909D01*
X171794797Y-107700000D01*
X171150001Y-107700000D01*
X171150000Y-107700001D01*
X171150000Y-108416988D01*
X171092993Y-108384075D01*
X170965826Y-108350000D01*
X170834174Y-108350000D01*
X170707007Y-108384075D01*
X170650000Y-108416988D01*
X170650000Y-107700001D01*
X170649999Y-107700000D01*
X170005210Y-107700000D01*
X170005207Y-107700001D01*
X169980125Y-107702909D01*
X169877522Y-107748213D01*
X169798213Y-107827522D01*
X169752909Y-107930127D01*
X169750000Y-107955202D01*
X168911690Y-107955202D01*
X168857597Y-107919058D01*
X168666418Y-107839869D01*
X168463467Y-107799500D01*
X168463465Y-107799500D01*
X168256535Y-107799500D01*
X168256532Y-107799500D01*
X168053581Y-107839869D01*
X167862402Y-107919058D01*
X167690348Y-108034020D01*
X167544020Y-108180348D01*
X167429058Y-108352402D01*
X167349869Y-108543581D01*
X167309500Y-108746532D01*
X166870499Y-108746532D01*
X166830130Y-108543580D01*
X166750941Y-108352402D01*
X166635977Y-108180345D01*
X166489655Y-108034023D01*
X166420799Y-107988015D01*
X166317597Y-107919058D01*
X166126418Y-107839869D01*
X165923467Y-107799500D01*
X165923465Y-107799500D01*
X165716535Y-107799500D01*
X165716532Y-107799500D01*
X165513581Y-107839869D01*
X165322402Y-107919058D01*
X165150348Y-108034020D01*
X165004020Y-108180348D01*
X164889058Y-108352402D01*
X164809869Y-108543581D01*
X164769500Y-108746532D01*
X158040981Y-108746532D01*
X158138010Y-108690512D01*
X158138010Y-108690511D01*
X158138015Y-108690509D01*
X158240509Y-108588015D01*
X158312984Y-108462485D01*
X158350500Y-108322475D01*
X158350500Y-108177525D01*
X158312984Y-108037515D01*
X158312982Y-108037512D01*
X158312982Y-108037510D01*
X158240512Y-107911989D01*
X158240510Y-107911987D01*
X158240509Y-107911985D01*
X158138015Y-107809491D01*
X158138012Y-107809489D01*
X158138010Y-107809487D01*
X158012488Y-107737017D01*
X158012489Y-107737017D01*
X157885197Y-107702909D01*
X157872475Y-107699500D01*
X157727525Y-107699500D01*
X157714803Y-107702909D01*
X157587510Y-107737017D01*
X157461989Y-107809487D01*
X157359487Y-107911989D01*
X157287017Y-108037510D01*
X157259418Y-108140511D01*
X157249500Y-108177525D01*
X143523902Y-108177525D01*
X143588010Y-108140512D01*
X143588010Y-108140511D01*
X143588015Y-108140509D01*
X143690509Y-108038015D01*
X143692816Y-108034020D01*
X143762982Y-107912489D01*
X143762982Y-107912487D01*
X143762984Y-107912485D01*
X143800500Y-107772475D01*
X143800500Y-107627525D01*
X143762984Y-107487515D01*
X143762982Y-107487512D01*
X143762982Y-107487510D01*
X143724315Y-107420539D01*
X143699481Y-107377525D01*
X145749500Y-107377525D01*
X145749500Y-107522475D01*
X145777648Y-107627525D01*
X145787017Y-107662489D01*
X145859487Y-107788010D01*
X145859489Y-107788012D01*
X145859491Y-107788015D01*
X145961985Y-107890509D01*
X145961987Y-107890510D01*
X145961989Y-107890512D01*
X146087511Y-107962982D01*
X146087512Y-107962982D01*
X146087515Y-107962984D01*
X146227525Y-108000500D01*
X146227526Y-108000500D01*
X146372474Y-108000500D01*
X146372475Y-108000500D01*
X146512485Y-107962984D01*
X146512487Y-107962982D01*
X146512489Y-107962982D01*
X146638010Y-107890512D01*
X146638010Y-107890511D01*
X146638015Y-107890509D01*
X146740509Y-107788015D01*
X146769377Y-107738015D01*
X146812982Y-107662489D01*
X146812982Y-107662487D01*
X146812984Y-107662485D01*
X146850500Y-107522475D01*
X146850500Y-107377525D01*
X146837102Y-107327525D01*
X160799500Y-107327525D01*
X160799500Y-107472474D01*
X160837017Y-107612489D01*
X160909487Y-107738010D01*
X160909489Y-107738012D01*
X160909491Y-107738015D01*
X161011985Y-107840509D01*
X161011987Y-107840510D01*
X161011989Y-107840512D01*
X161137511Y-107912982D01*
X161137512Y-107912982D01*
X161137515Y-107912984D01*
X161277525Y-107950500D01*
X161277526Y-107950500D01*
X161422474Y-107950500D01*
X161422475Y-107950500D01*
X161562485Y-107912984D01*
X161562487Y-107912982D01*
X161562489Y-107912982D01*
X161688010Y-107840512D01*
X161688010Y-107840511D01*
X161688015Y-107840509D01*
X161790509Y-107738015D01*
X161810778Y-107702909D01*
X161862982Y-107612489D01*
X161862982Y-107612487D01*
X161862984Y-107612485D01*
X161900500Y-107472475D01*
X161900500Y-107327525D01*
X161862984Y-107187515D01*
X161862982Y-107187512D01*
X161862982Y-107187510D01*
X161790512Y-107061989D01*
X161790510Y-107061987D01*
X161790509Y-107061985D01*
X161688015Y-106959491D01*
X161688012Y-106959489D01*
X161688010Y-106959487D01*
X161562488Y-106887017D01*
X161562489Y-106887017D01*
X161532896Y-106879087D01*
X161422475Y-106849500D01*
X161277525Y-106849500D01*
X161215790Y-106866041D01*
X161137510Y-106887017D01*
X161011989Y-106959487D01*
X160909487Y-107061989D01*
X160837017Y-107187510D01*
X160799500Y-107327525D01*
X146837102Y-107327525D01*
X146812984Y-107237515D01*
X146812982Y-107237512D01*
X146812982Y-107237510D01*
X146740512Y-107111989D01*
X146740510Y-107111987D01*
X146740509Y-107111985D01*
X146638015Y-107009491D01*
X146638012Y-107009489D01*
X146638010Y-107009487D01*
X146512488Y-106937017D01*
X146512489Y-106937017D01*
X146461823Y-106923441D01*
X146372475Y-106899500D01*
X146227525Y-106899500D01*
X146179487Y-106912372D01*
X146087510Y-106937017D01*
X145961989Y-107009487D01*
X145859487Y-107111989D01*
X145787017Y-107237510D01*
X145757771Y-107346659D01*
X145749500Y-107377525D01*
X143699481Y-107377525D01*
X143690509Y-107361985D01*
X143588015Y-107259491D01*
X143588012Y-107259489D01*
X143588010Y-107259487D01*
X143462488Y-107187017D01*
X143462489Y-107187017D01*
X143432896Y-107179087D01*
X143322475Y-107149500D01*
X143177525Y-107149500D01*
X143115790Y-107166041D01*
X143037510Y-107187017D01*
X142911989Y-107259487D01*
X142809487Y-107361989D01*
X142737017Y-107487510D01*
X142703530Y-107612485D01*
X142699500Y-107627525D01*
X136850500Y-107627525D01*
X136850500Y-107577525D01*
X136812984Y-107437515D01*
X136812982Y-107437512D01*
X136812982Y-107437510D01*
X136740512Y-107311989D01*
X136740510Y-107311987D01*
X136740509Y-107311985D01*
X136638015Y-107209491D01*
X136638012Y-107209489D01*
X136638010Y-107209487D01*
X136512488Y-107137017D01*
X136512489Y-107137017D01*
X136482896Y-107129087D01*
X136372475Y-107099500D01*
X136227525Y-107099500D01*
X136180931Y-107111985D01*
X136087510Y-107137017D01*
X135961989Y-107209487D01*
X135859487Y-107311989D01*
X135787017Y-107437510D01*
X135777648Y-107472475D01*
X135749500Y-107577525D01*
X123400500Y-107577525D01*
X123400500Y-106477525D01*
X132649500Y-106477525D01*
X132649500Y-106622475D01*
X132679087Y-106732896D01*
X132687017Y-106762489D01*
X132759487Y-106888010D01*
X132759489Y-106888012D01*
X132759491Y-106888015D01*
X132861985Y-106990509D01*
X132861987Y-106990510D01*
X132861989Y-106990512D01*
X132987511Y-107062982D01*
X132987512Y-107062982D01*
X132987515Y-107062984D01*
X133127525Y-107100500D01*
X133127526Y-107100500D01*
X133272474Y-107100500D01*
X133272475Y-107100500D01*
X133412485Y-107062984D01*
X133412487Y-107062982D01*
X133412489Y-107062982D01*
X133538010Y-106990512D01*
X133538010Y-106990511D01*
X133538015Y-106990509D01*
X133640509Y-106888015D01*
X133662746Y-106849500D01*
X133712982Y-106762489D01*
X133712982Y-106762487D01*
X133712984Y-106762485D01*
X133750500Y-106622475D01*
X133750500Y-106477525D01*
X133712984Y-106337515D01*
X133712982Y-106337512D01*
X133712982Y-106337510D01*
X133640512Y-106211989D01*
X133640510Y-106211987D01*
X133640509Y-106211985D01*
X133538015Y-106109491D01*
X133538012Y-106109489D01*
X133538010Y-106109487D01*
X133412488Y-106037017D01*
X133412489Y-106037017D01*
X133358214Y-106022474D01*
X133272475Y-105999500D01*
X133127525Y-105999500D01*
X133065790Y-106016041D01*
X132987510Y-106037017D01*
X132861989Y-106109487D01*
X132759487Y-106211989D01*
X132687017Y-106337510D01*
X132687016Y-106337515D01*
X132649500Y-106477525D01*
X123400500Y-106477525D01*
X123400500Y-105877525D01*
X142149500Y-105877525D01*
X142149500Y-106022475D01*
X142169191Y-106095963D01*
X142187017Y-106162489D01*
X142259487Y-106288010D01*
X142259489Y-106288012D01*
X142259491Y-106288015D01*
X142361985Y-106390509D01*
X142361987Y-106390510D01*
X142361989Y-106390512D01*
X142487511Y-106462982D01*
X142487512Y-106462982D01*
X142487515Y-106462984D01*
X142627525Y-106500500D01*
X142627526Y-106500500D01*
X142772474Y-106500500D01*
X142772475Y-106500500D01*
X142912485Y-106462984D01*
X142912487Y-106462982D01*
X142912489Y-106462982D01*
X143038010Y-106390512D01*
X143038010Y-106390511D01*
X143038015Y-106390509D01*
X143140509Y-106288015D01*
X143184405Y-106211985D01*
X143212982Y-106162489D01*
X143212982Y-106162487D01*
X143212984Y-106162485D01*
X143250500Y-106022475D01*
X143250500Y-105889032D01*
X164769500Y-105889032D01*
X164769500Y-106095967D01*
X164809869Y-106298918D01*
X164889058Y-106490097D01*
X164889059Y-106490098D01*
X165004023Y-106662155D01*
X165150345Y-106808477D01*
X165322402Y-106923441D01*
X165513580Y-107002630D01*
X165716535Y-107043000D01*
X165716536Y-107043000D01*
X165923464Y-107043000D01*
X165923465Y-107043000D01*
X166126420Y-107002630D01*
X166317598Y-106923441D01*
X166489655Y-106808477D01*
X166635977Y-106662155D01*
X166750941Y-106490098D01*
X166830130Y-106298920D01*
X166870500Y-106095965D01*
X166870500Y-105889035D01*
X166870499Y-105889032D01*
X167309500Y-105889032D01*
X167309500Y-106095967D01*
X167349869Y-106298918D01*
X167429058Y-106490097D01*
X167429059Y-106490098D01*
X167544023Y-106662155D01*
X167690345Y-106808477D01*
X167862402Y-106923441D01*
X168053580Y-107002630D01*
X168256535Y-107043000D01*
X168256536Y-107043000D01*
X168463464Y-107043000D01*
X168463465Y-107043000D01*
X168666420Y-107002630D01*
X168857598Y-106923441D01*
X169029655Y-106808477D01*
X169175977Y-106662155D01*
X169290941Y-106490098D01*
X169370130Y-106298920D01*
X169410500Y-106095965D01*
X169410500Y-105889035D01*
X169370130Y-105686080D01*
X169290941Y-105494902D01*
X169175977Y-105322845D01*
X169029655Y-105176523D01*
X169027338Y-105174975D01*
X168911690Y-105097702D01*
X169750000Y-105097702D01*
X169750000Y-105742499D01*
X169750001Y-105742500D01*
X170466988Y-105742500D01*
X170434075Y-105799507D01*
X170400000Y-105926674D01*
X170400000Y-106058326D01*
X170434075Y-106185493D01*
X170466988Y-106242500D01*
X169750002Y-106242500D01*
X169750001Y-106242501D01*
X169750001Y-106887291D01*
X169752909Y-106912374D01*
X169798213Y-107014977D01*
X169877522Y-107094286D01*
X169980127Y-107139590D01*
X170005203Y-107142499D01*
X170649998Y-107142499D01*
X170650000Y-107142498D01*
X170650000Y-106425512D01*
X170707007Y-106458425D01*
X170834174Y-106492500D01*
X170965826Y-106492500D01*
X171092993Y-106458425D01*
X171150000Y-106425512D01*
X171150000Y-107142498D01*
X171150001Y-107142499D01*
X171794790Y-107142499D01*
X171794791Y-107142498D01*
X171819874Y-107139590D01*
X171922477Y-107094286D01*
X172001786Y-107014977D01*
X172047090Y-106912372D01*
X172049999Y-106887297D01*
X172050000Y-106887295D01*
X172050000Y-106242501D01*
X172049999Y-106242500D01*
X171333012Y-106242500D01*
X171365925Y-106185493D01*
X171400000Y-106058326D01*
X171400000Y-105926674D01*
X171365925Y-105799507D01*
X171333012Y-105742500D01*
X172049998Y-105742500D01*
X172049999Y-105742499D01*
X172049999Y-105097710D01*
X172049998Y-105097708D01*
X172047090Y-105072625D01*
X172001786Y-104970022D01*
X171922477Y-104890713D01*
X171819872Y-104845409D01*
X171794797Y-104842500D01*
X171150001Y-104842500D01*
X171150000Y-104842501D01*
X171150000Y-105559488D01*
X171092993Y-105526575D01*
X170965826Y-105492500D01*
X170834174Y-105492500D01*
X170707007Y-105526575D01*
X170650000Y-105559488D01*
X170650000Y-104842501D01*
X170649999Y-104842500D01*
X170005210Y-104842500D01*
X170005207Y-104842501D01*
X169980125Y-104845409D01*
X169877522Y-104890713D01*
X169798213Y-104970022D01*
X169752909Y-105072627D01*
X169750000Y-105097702D01*
X168911690Y-105097702D01*
X168857597Y-105061558D01*
X168666418Y-104982369D01*
X168463467Y-104942000D01*
X168463465Y-104942000D01*
X168256535Y-104942000D01*
X168256532Y-104942000D01*
X168053581Y-104982369D01*
X167862402Y-105061558D01*
X167690348Y-105176520D01*
X167544020Y-105322848D01*
X167429058Y-105494902D01*
X167349869Y-105686081D01*
X167309500Y-105889032D01*
X166870499Y-105889032D01*
X166830130Y-105686080D01*
X166750941Y-105494902D01*
X166635977Y-105322845D01*
X166489655Y-105176523D01*
X166489651Y-105176520D01*
X166317597Y-105061558D01*
X166126418Y-104982369D01*
X165923467Y-104942000D01*
X165923465Y-104942000D01*
X165716535Y-104942000D01*
X165716532Y-104942000D01*
X165513581Y-104982369D01*
X165322402Y-105061558D01*
X165150348Y-105176520D01*
X165004020Y-105322848D01*
X164889058Y-105494902D01*
X164809869Y-105686081D01*
X164769500Y-105889032D01*
X143250500Y-105889032D01*
X143250500Y-105877525D01*
X143212984Y-105737515D01*
X143212982Y-105737512D01*
X143212982Y-105737510D01*
X143140512Y-105611989D01*
X143140510Y-105611987D01*
X143140509Y-105611985D01*
X143038015Y-105509491D01*
X143038012Y-105509489D01*
X143038010Y-105509487D01*
X142912488Y-105437017D01*
X142912489Y-105437017D01*
X142882896Y-105429087D01*
X142772475Y-105399500D01*
X142627525Y-105399500D01*
X142565790Y-105416041D01*
X142487510Y-105437017D01*
X142361989Y-105509487D01*
X142259487Y-105611989D01*
X142187017Y-105737510D01*
X142185680Y-105742500D01*
X142149500Y-105877525D01*
X123400500Y-105877525D01*
X123400500Y-104477525D01*
X124499500Y-104477525D01*
X124499500Y-104622475D01*
X124501510Y-104629975D01*
X124537017Y-104762489D01*
X124609487Y-104888010D01*
X124609489Y-104888012D01*
X124609491Y-104888015D01*
X124711985Y-104990509D01*
X124711987Y-104990510D01*
X124711989Y-104990512D01*
X124837511Y-105062982D01*
X124837512Y-105062982D01*
X124837515Y-105062984D01*
X124977525Y-105100500D01*
X124977526Y-105100500D01*
X125122474Y-105100500D01*
X125122475Y-105100500D01*
X125262485Y-105062984D01*
X125262487Y-105062982D01*
X125262489Y-105062982D01*
X125388010Y-104990512D01*
X125388010Y-104990511D01*
X125388015Y-104990509D01*
X125490509Y-104888015D01*
X125562984Y-104762485D01*
X125600500Y-104622475D01*
X125600500Y-104477525D01*
X125573705Y-104377525D01*
X131049500Y-104377525D01*
X131049500Y-104522474D01*
X131087017Y-104662489D01*
X131159487Y-104788010D01*
X131159489Y-104788012D01*
X131159491Y-104788015D01*
X131261985Y-104890509D01*
X131261987Y-104890510D01*
X131261989Y-104890512D01*
X131387511Y-104962982D01*
X131387512Y-104962982D01*
X131387515Y-104962984D01*
X131527525Y-105000500D01*
X131527526Y-105000500D01*
X131672474Y-105000500D01*
X131672475Y-105000500D01*
X131812485Y-104962984D01*
X131812487Y-104962982D01*
X131812489Y-104962982D01*
X131938010Y-104890512D01*
X131938010Y-104890511D01*
X131938015Y-104890509D01*
X132040509Y-104788015D01*
X132050919Y-104769985D01*
X132112982Y-104662489D01*
X132112982Y-104662487D01*
X132112984Y-104662485D01*
X132150500Y-104522475D01*
X132150500Y-104485025D01*
X160529500Y-104485025D01*
X160529500Y-104629974D01*
X160567017Y-104769989D01*
X160639487Y-104895510D01*
X160639489Y-104895512D01*
X160639491Y-104895515D01*
X160741985Y-104998009D01*
X160741987Y-104998010D01*
X160741989Y-104998012D01*
X160867511Y-105070482D01*
X160867512Y-105070482D01*
X160867515Y-105070484D01*
X161007525Y-105108000D01*
X161007526Y-105108000D01*
X161152474Y-105108000D01*
X161152475Y-105108000D01*
X161292485Y-105070484D01*
X161292487Y-105070482D01*
X161292489Y-105070482D01*
X161418010Y-104998012D01*
X161418010Y-104998011D01*
X161418015Y-104998009D01*
X161520509Y-104895515D01*
X161520512Y-104895510D01*
X161592982Y-104769989D01*
X161592982Y-104769987D01*
X161592984Y-104769985D01*
X161630500Y-104629975D01*
X161630500Y-104485025D01*
X161592984Y-104345015D01*
X161592982Y-104345012D01*
X161592982Y-104345010D01*
X161520512Y-104219489D01*
X161520510Y-104219487D01*
X161520509Y-104219485D01*
X161418015Y-104116991D01*
X161418012Y-104116989D01*
X161418010Y-104116987D01*
X161292488Y-104044517D01*
X161292489Y-104044517D01*
X161161771Y-104009491D01*
X161152475Y-104007000D01*
X161007525Y-104007000D01*
X160998229Y-104009491D01*
X160867510Y-104044517D01*
X160741989Y-104116987D01*
X160639487Y-104219489D01*
X160567017Y-104345010D01*
X160529500Y-104485025D01*
X132150500Y-104485025D01*
X132150500Y-104377525D01*
X132112984Y-104237515D01*
X132112982Y-104237512D01*
X132112982Y-104237510D01*
X132040512Y-104111989D01*
X132040510Y-104111987D01*
X132040509Y-104111985D01*
X131938015Y-104009491D01*
X131938012Y-104009489D01*
X131938010Y-104009487D01*
X131812488Y-103937017D01*
X131812489Y-103937017D01*
X131782896Y-103929087D01*
X131672475Y-103899500D01*
X131527525Y-103899500D01*
X131465790Y-103916041D01*
X131387510Y-103937017D01*
X131261989Y-104009487D01*
X131159487Y-104111989D01*
X131087017Y-104237510D01*
X131049500Y-104377525D01*
X125573705Y-104377525D01*
X125562984Y-104337515D01*
X125562982Y-104337512D01*
X125562982Y-104337510D01*
X125490512Y-104211989D01*
X125490510Y-104211987D01*
X125490509Y-104211985D01*
X125388015Y-104109491D01*
X125388012Y-104109489D01*
X125388010Y-104109487D01*
X125262488Y-104037017D01*
X125262489Y-104037017D01*
X125159761Y-104009491D01*
X125122475Y-103999500D01*
X124977525Y-103999500D01*
X124940239Y-104009491D01*
X124837510Y-104037017D01*
X124711989Y-104109487D01*
X124609487Y-104211989D01*
X124537017Y-104337510D01*
X124499501Y-104477522D01*
X124499500Y-104477525D01*
X123400500Y-104477525D01*
X123400500Y-103577525D01*
X125699500Y-103577525D01*
X125699500Y-103722474D01*
X125737017Y-103862489D01*
X125809487Y-103988010D01*
X125809489Y-103988012D01*
X125809491Y-103988015D01*
X125911985Y-104090509D01*
X125911987Y-104090510D01*
X125911989Y-104090512D01*
X126037511Y-104162982D01*
X126037512Y-104162982D01*
X126037515Y-104162984D01*
X126177525Y-104200500D01*
X126177526Y-104200500D01*
X126322474Y-104200500D01*
X126322475Y-104200500D01*
X126462485Y-104162984D01*
X126462487Y-104162982D01*
X126462489Y-104162982D01*
X126588010Y-104090512D01*
X126588010Y-104090511D01*
X126588015Y-104090509D01*
X126690509Y-103988015D01*
X126719953Y-103937017D01*
X126762982Y-103862489D01*
X126762982Y-103862487D01*
X126762984Y-103862485D01*
X126800500Y-103722475D01*
X126800500Y-103577525D01*
X126773705Y-103477525D01*
X149749500Y-103477525D01*
X149749500Y-103622475D01*
X149776295Y-103722474D01*
X149787017Y-103762489D01*
X149859487Y-103888010D01*
X149859489Y-103888012D01*
X149859491Y-103888015D01*
X149961985Y-103990509D01*
X149961987Y-103990510D01*
X149961989Y-103990512D01*
X150087511Y-104062982D01*
X150087512Y-104062982D01*
X150087515Y-104062984D01*
X150227525Y-104100500D01*
X150227526Y-104100500D01*
X150372474Y-104100500D01*
X150372475Y-104100500D01*
X150512485Y-104062984D01*
X150512487Y-104062982D01*
X150512489Y-104062982D01*
X150638010Y-103990512D01*
X150638010Y-103990511D01*
X150638015Y-103990509D01*
X150740509Y-103888015D01*
X150740512Y-103888010D01*
X150812982Y-103762489D01*
X150812982Y-103762487D01*
X150812984Y-103762485D01*
X150850500Y-103622475D01*
X150850500Y-103477525D01*
X150812984Y-103337515D01*
X150812982Y-103337512D01*
X150812982Y-103337510D01*
X150740512Y-103211989D01*
X150740510Y-103211987D01*
X150740509Y-103211985D01*
X150638015Y-103109491D01*
X150638012Y-103109489D01*
X150638010Y-103109487D01*
X150546708Y-103056773D01*
X150546705Y-103056773D01*
X150512486Y-103037016D01*
X150442480Y-103018258D01*
X150372475Y-102999500D01*
X150227525Y-102999500D01*
X150165790Y-103016041D01*
X150087510Y-103037017D01*
X149961989Y-103109487D01*
X149859487Y-103211989D01*
X149787017Y-103337510D01*
X149787016Y-103337515D01*
X149749500Y-103477525D01*
X126773705Y-103477525D01*
X126762984Y-103437515D01*
X126762982Y-103437512D01*
X126762982Y-103437510D01*
X126690512Y-103311989D01*
X126690510Y-103311987D01*
X126690509Y-103311985D01*
X126588015Y-103209491D01*
X126588012Y-103209489D01*
X126588010Y-103209487D01*
X126462488Y-103137017D01*
X126462489Y-103137017D01*
X126359761Y-103109491D01*
X126322475Y-103099500D01*
X126177525Y-103099500D01*
X126140239Y-103109491D01*
X126037510Y-103137017D01*
X125911989Y-103209487D01*
X125809487Y-103311989D01*
X125737017Y-103437510D01*
X125699500Y-103577525D01*
X123400500Y-103577525D01*
X123400500Y-102677525D01*
X138949500Y-102677525D01*
X138949500Y-102822475D01*
X138970273Y-102899999D01*
X138987017Y-102962489D01*
X139059487Y-103088010D01*
X139059489Y-103088012D01*
X139059491Y-103088015D01*
X139161985Y-103190509D01*
X139161987Y-103190510D01*
X139161989Y-103190512D01*
X139287511Y-103262982D01*
X139287512Y-103262982D01*
X139287515Y-103262984D01*
X139427525Y-103300500D01*
X139427526Y-103300500D01*
X139572474Y-103300500D01*
X139572475Y-103300500D01*
X139712485Y-103262984D01*
X139712487Y-103262982D01*
X139712489Y-103262982D01*
X139838010Y-103190512D01*
X139838010Y-103190511D01*
X139838015Y-103190509D01*
X139940509Y-103088015D01*
X139969953Y-103037017D01*
X140004301Y-102977525D01*
X155849500Y-102977525D01*
X155849500Y-103122475D01*
X155874514Y-103215826D01*
X155887017Y-103262489D01*
X155959486Y-103388008D01*
X155959488Y-103388011D01*
X155959489Y-103388012D01*
X155959491Y-103388015D01*
X156061985Y-103490509D01*
X156061987Y-103490510D01*
X156061989Y-103490512D01*
X156187511Y-103562982D01*
X156187512Y-103562982D01*
X156187515Y-103562984D01*
X156327525Y-103600500D01*
X156327526Y-103600500D01*
X156472474Y-103600500D01*
X156472475Y-103600500D01*
X156612485Y-103562984D01*
X156612487Y-103562982D01*
X156612489Y-103562982D01*
X156738010Y-103490512D01*
X156738010Y-103490511D01*
X156738015Y-103490509D01*
X156840509Y-103388015D01*
X156840511Y-103388010D01*
X156840514Y-103388008D01*
X156912982Y-103262489D01*
X156912982Y-103262487D01*
X156912984Y-103262485D01*
X156950500Y-103122475D01*
X156950500Y-103046532D01*
X164769500Y-103046532D01*
X164769500Y-103253467D01*
X164809869Y-103456418D01*
X164889058Y-103647597D01*
X164889059Y-103647598D01*
X165004023Y-103819655D01*
X165150345Y-103965977D01*
X165322402Y-104080941D01*
X165513580Y-104160130D01*
X165716535Y-104200500D01*
X165716536Y-104200500D01*
X165923464Y-104200500D01*
X165923465Y-104200500D01*
X166126420Y-104160130D01*
X166317598Y-104080941D01*
X166489655Y-103965977D01*
X166635977Y-103819655D01*
X166750941Y-103647598D01*
X166830130Y-103456420D01*
X166870500Y-103253465D01*
X166870500Y-103046535D01*
X166870499Y-103046532D01*
X167309500Y-103046532D01*
X167309500Y-103253467D01*
X167349869Y-103456418D01*
X167429058Y-103647597D01*
X167429059Y-103647598D01*
X167544023Y-103819655D01*
X167690345Y-103965977D01*
X167862402Y-104080941D01*
X168053580Y-104160130D01*
X168256535Y-104200500D01*
X168256536Y-104200500D01*
X168463464Y-104200500D01*
X168463465Y-104200500D01*
X168666420Y-104160130D01*
X168857598Y-104080941D01*
X169029655Y-103965977D01*
X169175977Y-103819655D01*
X169290941Y-103647598D01*
X169370130Y-103456420D01*
X169410500Y-103253465D01*
X169410500Y-103046535D01*
X169370130Y-102843580D01*
X169290941Y-102652402D01*
X169175977Y-102480345D01*
X169029655Y-102334023D01*
X168990709Y-102308000D01*
X168911691Y-102255202D01*
X169750000Y-102255202D01*
X169750000Y-102899999D01*
X169750001Y-102900000D01*
X170466988Y-102900000D01*
X170434075Y-102957007D01*
X170400000Y-103084174D01*
X170400000Y-103215826D01*
X170434075Y-103342993D01*
X170466988Y-103400000D01*
X169750002Y-103400000D01*
X169750001Y-103400001D01*
X169750001Y-104044791D01*
X169752909Y-104069874D01*
X169798213Y-104172477D01*
X169877522Y-104251786D01*
X169980127Y-104297090D01*
X170005203Y-104299999D01*
X170649998Y-104299999D01*
X170650000Y-104299998D01*
X170650000Y-103583012D01*
X170707007Y-103615925D01*
X170834174Y-103650000D01*
X170965826Y-103650000D01*
X171092993Y-103615925D01*
X171150000Y-103583012D01*
X171150000Y-104299998D01*
X171150001Y-104299999D01*
X171794790Y-104299999D01*
X171794791Y-104299998D01*
X171819874Y-104297090D01*
X171922477Y-104251786D01*
X172001786Y-104172477D01*
X172047090Y-104069872D01*
X172049999Y-104044797D01*
X172050000Y-104044795D01*
X172050000Y-103400001D01*
X172049999Y-103400000D01*
X171333012Y-103400000D01*
X171365925Y-103342993D01*
X171400000Y-103215826D01*
X171400000Y-103084174D01*
X171365925Y-102957007D01*
X171333012Y-102900000D01*
X172049998Y-102900000D01*
X172049999Y-102899999D01*
X172049999Y-102255210D01*
X172049998Y-102255208D01*
X172047090Y-102230125D01*
X172001786Y-102127522D01*
X171922477Y-102048213D01*
X171819872Y-102002909D01*
X171794797Y-102000000D01*
X171150001Y-102000000D01*
X171150000Y-102000001D01*
X171150000Y-102716988D01*
X171092993Y-102684075D01*
X170965826Y-102650000D01*
X170834174Y-102650000D01*
X170707007Y-102684075D01*
X170650000Y-102716988D01*
X170650000Y-102000001D01*
X170649999Y-102000000D01*
X170005210Y-102000000D01*
X170005207Y-102000001D01*
X169980125Y-102002909D01*
X169877522Y-102048213D01*
X169798213Y-102127522D01*
X169752909Y-102230127D01*
X169750000Y-102255202D01*
X168911691Y-102255202D01*
X168857597Y-102219058D01*
X168666418Y-102139869D01*
X168463467Y-102099500D01*
X168463465Y-102099500D01*
X168256535Y-102099500D01*
X168256532Y-102099500D01*
X168053581Y-102139869D01*
X167862402Y-102219058D01*
X167690348Y-102334020D01*
X167544020Y-102480348D01*
X167429058Y-102652402D01*
X167349869Y-102843581D01*
X167309500Y-103046532D01*
X166870499Y-103046532D01*
X166830130Y-102843580D01*
X166750941Y-102652402D01*
X166635977Y-102480345D01*
X166489655Y-102334023D01*
X166452940Y-102309491D01*
X166317597Y-102219058D01*
X166126418Y-102139869D01*
X165923467Y-102099500D01*
X165923465Y-102099500D01*
X165716535Y-102099500D01*
X165716532Y-102099500D01*
X165513581Y-102139869D01*
X165322402Y-102219058D01*
X165150348Y-102334020D01*
X165004020Y-102480348D01*
X164889058Y-102652402D01*
X164809869Y-102843581D01*
X164769500Y-103046532D01*
X156950500Y-103046532D01*
X156950500Y-102977525D01*
X156912984Y-102837515D01*
X156912982Y-102837512D01*
X156912982Y-102837510D01*
X156840512Y-102711989D01*
X156840510Y-102711987D01*
X156840509Y-102711985D01*
X156738015Y-102609491D01*
X156738012Y-102609489D01*
X156738010Y-102609487D01*
X156612488Y-102537017D01*
X156612489Y-102537017D01*
X156582896Y-102529087D01*
X156472475Y-102499500D01*
X156327525Y-102499500D01*
X156265790Y-102516041D01*
X156187510Y-102537017D01*
X156061989Y-102609487D01*
X155959487Y-102711989D01*
X155887017Y-102837510D01*
X155870273Y-102899999D01*
X155849500Y-102977525D01*
X140004301Y-102977525D01*
X140012982Y-102962489D01*
X140012982Y-102962487D01*
X140012984Y-102962485D01*
X140050500Y-102822475D01*
X140050500Y-102677525D01*
X140012984Y-102537515D01*
X140012982Y-102537512D01*
X140012982Y-102537510D01*
X139940512Y-102411989D01*
X139940510Y-102411987D01*
X139940509Y-102411985D01*
X139838015Y-102309491D01*
X139838012Y-102309489D01*
X139838010Y-102309487D01*
X139712488Y-102237017D01*
X139712489Y-102237017D01*
X139645469Y-102219059D01*
X139572475Y-102199500D01*
X139427525Y-102199500D01*
X139365790Y-102216041D01*
X139287510Y-102237017D01*
X139161989Y-102309487D01*
X139059487Y-102411989D01*
X138987017Y-102537510D01*
X138987016Y-102537515D01*
X138949500Y-102677525D01*
X123400500Y-102677525D01*
X123400500Y-101277525D01*
X137249500Y-101277525D01*
X137249500Y-101422475D01*
X137270273Y-101499999D01*
X137287017Y-101562489D01*
X137359487Y-101688010D01*
X137359489Y-101688012D01*
X137359491Y-101688015D01*
X137461985Y-101790509D01*
X137461987Y-101790510D01*
X137461989Y-101790512D01*
X137587511Y-101862982D01*
X137587512Y-101862982D01*
X137587515Y-101862984D01*
X137727525Y-101900500D01*
X137727526Y-101900500D01*
X137872474Y-101900500D01*
X137872475Y-101900500D01*
X138012485Y-101862984D01*
X138012487Y-101862982D01*
X138012489Y-101862982D01*
X138138010Y-101790512D01*
X138138010Y-101790511D01*
X138138015Y-101790509D01*
X138240509Y-101688015D01*
X138242235Y-101685025D01*
X161149500Y-101685025D01*
X161149500Y-101829974D01*
X161187017Y-101969989D01*
X161259487Y-102095510D01*
X161259489Y-102095512D01*
X161259491Y-102095515D01*
X161361985Y-102198009D01*
X161361987Y-102198010D01*
X161361989Y-102198012D01*
X161487511Y-102270482D01*
X161487512Y-102270482D01*
X161487515Y-102270484D01*
X161627525Y-102308000D01*
X161627526Y-102308000D01*
X161772474Y-102308000D01*
X161772475Y-102308000D01*
X161912485Y-102270484D01*
X161912487Y-102270482D01*
X161912489Y-102270482D01*
X162038010Y-102198012D01*
X162038010Y-102198011D01*
X162038015Y-102198009D01*
X162140509Y-102095515D01*
X162167819Y-102048213D01*
X162212982Y-101969989D01*
X162212982Y-101969987D01*
X162212984Y-101969985D01*
X162250500Y-101829975D01*
X162250500Y-101685025D01*
X162212984Y-101545015D01*
X162212982Y-101545012D01*
X162212982Y-101545010D01*
X162140512Y-101419489D01*
X162140510Y-101419487D01*
X162140509Y-101419485D01*
X162038015Y-101316991D01*
X162038012Y-101316989D01*
X162038010Y-101316987D01*
X161912488Y-101244517D01*
X161912489Y-101244517D01*
X161882896Y-101236587D01*
X161772475Y-101207000D01*
X161627525Y-101207000D01*
X161565790Y-101223541D01*
X161487510Y-101244517D01*
X161361989Y-101316987D01*
X161259487Y-101419489D01*
X161187017Y-101545010D01*
X161149500Y-101685025D01*
X138242235Y-101685025D01*
X138312984Y-101562485D01*
X138350500Y-101422475D01*
X138350500Y-101277525D01*
X138312984Y-101137515D01*
X138312982Y-101137512D01*
X138312982Y-101137510D01*
X138240512Y-101011989D01*
X138240510Y-101011987D01*
X138240509Y-101011985D01*
X138138015Y-100909491D01*
X138138012Y-100909489D01*
X138138010Y-100909487D01*
X138012488Y-100837017D01*
X138012489Y-100837017D01*
X137933773Y-100815925D01*
X137872475Y-100799500D01*
X137727525Y-100799500D01*
X137666227Y-100815925D01*
X137587510Y-100837017D01*
X137461989Y-100909487D01*
X137359487Y-101011989D01*
X137287017Y-101137510D01*
X137251551Y-101269872D01*
X137249500Y-101277525D01*
X123400500Y-101277525D01*
X123400500Y-99777525D01*
X139949500Y-99777525D01*
X139949500Y-99922474D01*
X139987017Y-100062489D01*
X140059487Y-100188010D01*
X140059489Y-100188012D01*
X140059491Y-100188015D01*
X140161985Y-100290509D01*
X140161987Y-100290510D01*
X140161989Y-100290512D01*
X140287511Y-100362982D01*
X140287512Y-100362982D01*
X140287515Y-100362984D01*
X140427525Y-100400500D01*
X140427526Y-100400500D01*
X140572474Y-100400500D01*
X140572475Y-100400500D01*
X140712485Y-100362984D01*
X140712487Y-100362982D01*
X140712489Y-100362982D01*
X140838010Y-100290512D01*
X140838010Y-100290511D01*
X140838015Y-100290509D01*
X140881992Y-100246532D01*
X164769500Y-100246532D01*
X164769500Y-100453467D01*
X164809869Y-100656418D01*
X164889058Y-100847597D01*
X165004020Y-101019651D01*
X165004023Y-101019655D01*
X165150345Y-101165977D01*
X165322402Y-101280941D01*
X165513580Y-101360130D01*
X165716535Y-101400500D01*
X165716536Y-101400500D01*
X165923464Y-101400500D01*
X165923465Y-101400500D01*
X166126420Y-101360130D01*
X166317598Y-101280941D01*
X166489655Y-101165977D01*
X166635977Y-101019655D01*
X166750941Y-100847598D01*
X166830130Y-100656420D01*
X166870500Y-100453465D01*
X166870500Y-100246535D01*
X166870499Y-100246532D01*
X167309500Y-100246532D01*
X167309500Y-100453467D01*
X167349869Y-100656418D01*
X167429058Y-100847597D01*
X167544020Y-101019651D01*
X167544023Y-101019655D01*
X167690345Y-101165977D01*
X167862402Y-101280941D01*
X168053580Y-101360130D01*
X168256535Y-101400500D01*
X168256536Y-101400500D01*
X168463464Y-101400500D01*
X168463465Y-101400500D01*
X168666420Y-101360130D01*
X168857598Y-101280941D01*
X169029655Y-101165977D01*
X169175977Y-101019655D01*
X169290941Y-100847598D01*
X169370130Y-100656420D01*
X169410500Y-100453465D01*
X169410500Y-100246535D01*
X169370130Y-100043580D01*
X169290941Y-99852402D01*
X169175977Y-99680345D01*
X169029655Y-99534023D01*
X168960791Y-99488010D01*
X168911690Y-99455202D01*
X169750000Y-99455202D01*
X169750000Y-100099999D01*
X169750001Y-100100000D01*
X170466988Y-100100000D01*
X170434075Y-100157007D01*
X170400000Y-100284174D01*
X170400000Y-100415826D01*
X170434075Y-100542993D01*
X170466988Y-100600000D01*
X169750002Y-100600000D01*
X169750001Y-100600001D01*
X169750001Y-101244791D01*
X169752909Y-101269874D01*
X169798213Y-101372477D01*
X169877522Y-101451786D01*
X169980127Y-101497090D01*
X170005203Y-101499999D01*
X170649998Y-101499999D01*
X170650000Y-101499998D01*
X170650000Y-100783012D01*
X170707007Y-100815925D01*
X170834174Y-100850000D01*
X170965826Y-100850000D01*
X171092993Y-100815925D01*
X171150000Y-100783012D01*
X171150000Y-101499998D01*
X171150001Y-101499999D01*
X171794790Y-101499999D01*
X171794791Y-101499998D01*
X171819874Y-101497090D01*
X171922477Y-101451786D01*
X172001786Y-101372477D01*
X172047090Y-101269872D01*
X172049999Y-101244797D01*
X172050000Y-101244795D01*
X172050000Y-100600001D01*
X172049999Y-100600000D01*
X171333012Y-100600000D01*
X171365925Y-100542993D01*
X171400000Y-100415826D01*
X171400000Y-100284174D01*
X171365925Y-100157007D01*
X171333012Y-100100000D01*
X172049998Y-100100000D01*
X172049999Y-100099999D01*
X172049999Y-99455210D01*
X172049998Y-99455208D01*
X172047090Y-99430125D01*
X172001786Y-99327522D01*
X171922477Y-99248213D01*
X171819872Y-99202909D01*
X171794797Y-99200000D01*
X171150001Y-99200000D01*
X171150000Y-99200001D01*
X171150000Y-99916988D01*
X171092993Y-99884075D01*
X170965826Y-99850000D01*
X170834174Y-99850000D01*
X170707007Y-99884075D01*
X170650000Y-99916988D01*
X170650000Y-99200001D01*
X170649999Y-99200000D01*
X170005210Y-99200000D01*
X170005207Y-99200001D01*
X169980125Y-99202909D01*
X169877522Y-99248213D01*
X169798213Y-99327522D01*
X169752909Y-99430127D01*
X169750000Y-99455202D01*
X168911690Y-99455202D01*
X168857597Y-99419058D01*
X168666418Y-99339869D01*
X168463467Y-99299500D01*
X168463465Y-99299500D01*
X168256535Y-99299500D01*
X168256532Y-99299500D01*
X168053581Y-99339869D01*
X167862402Y-99419058D01*
X167690348Y-99534020D01*
X167544020Y-99680348D01*
X167429058Y-99852402D01*
X167349869Y-100043581D01*
X167309500Y-100246532D01*
X166870499Y-100246532D01*
X166830130Y-100043580D01*
X166750941Y-99852402D01*
X166635977Y-99680345D01*
X166489655Y-99534023D01*
X166420799Y-99488015D01*
X166317597Y-99419058D01*
X166126418Y-99339869D01*
X165923467Y-99299500D01*
X165923465Y-99299500D01*
X165716535Y-99299500D01*
X165716532Y-99299500D01*
X165513581Y-99339869D01*
X165322402Y-99419058D01*
X165150348Y-99534020D01*
X165004020Y-99680348D01*
X164889058Y-99852402D01*
X164809869Y-100043581D01*
X164769500Y-100246532D01*
X140881992Y-100246532D01*
X140940509Y-100188015D01*
X141012984Y-100062485D01*
X141050500Y-99922475D01*
X141050500Y-99777525D01*
X141012984Y-99637515D01*
X141012982Y-99637512D01*
X141012982Y-99637510D01*
X140940512Y-99511989D01*
X140940510Y-99511987D01*
X140940509Y-99511985D01*
X140838015Y-99409491D01*
X140838012Y-99409489D01*
X140838010Y-99409487D01*
X140712488Y-99337017D01*
X140712489Y-99337017D01*
X140677053Y-99327522D01*
X140572475Y-99299500D01*
X140427525Y-99299500D01*
X140365790Y-99316041D01*
X140287510Y-99337017D01*
X140161989Y-99409487D01*
X140059487Y-99511989D01*
X139987017Y-99637510D01*
X139949500Y-99777525D01*
X123400500Y-99777525D01*
X123400500Y-99077525D01*
X138549500Y-99077525D01*
X138549500Y-99222474D01*
X138587017Y-99362489D01*
X138659487Y-99488010D01*
X138659489Y-99488012D01*
X138659491Y-99488015D01*
X138761985Y-99590509D01*
X138761987Y-99590510D01*
X138761989Y-99590512D01*
X138887511Y-99662982D01*
X138887512Y-99662982D01*
X138887515Y-99662984D01*
X139027525Y-99700500D01*
X139027526Y-99700500D01*
X139172473Y-99700500D01*
X139172475Y-99700500D01*
X139312485Y-99662984D01*
X139312488Y-99662982D01*
X139312489Y-99662982D01*
X139438010Y-99590512D01*
X139438010Y-99590511D01*
X139438015Y-99590509D01*
X139540509Y-99488015D01*
X139580321Y-99419059D01*
X139612982Y-99362489D01*
X139612982Y-99362487D01*
X139612984Y-99362485D01*
X139650500Y-99222475D01*
X139650500Y-99077525D01*
X139612984Y-98937515D01*
X139612982Y-98937512D01*
X139612982Y-98937510D01*
X139540512Y-98811989D01*
X139540510Y-98811987D01*
X139540509Y-98811985D01*
X139438015Y-98709491D01*
X139438012Y-98709489D01*
X139438010Y-98709487D01*
X139312488Y-98637017D01*
X139312489Y-98637017D01*
X139282896Y-98629087D01*
X139172475Y-98599500D01*
X139027525Y-98599500D01*
X138979065Y-98612485D01*
X138887510Y-98637017D01*
X138761989Y-98709487D01*
X138659487Y-98811989D01*
X138587017Y-98937510D01*
X138549500Y-99077525D01*
X123400500Y-99077525D01*
X123400500Y-98327525D01*
X144349500Y-98327525D01*
X144349500Y-98472475D01*
X144373752Y-98562982D01*
X144387017Y-98612489D01*
X144459487Y-98738010D01*
X144459489Y-98738012D01*
X144459491Y-98738015D01*
X144561985Y-98840509D01*
X144561987Y-98840510D01*
X144561989Y-98840512D01*
X144687511Y-98912982D01*
X144687512Y-98912982D01*
X144687515Y-98912984D01*
X144827525Y-98950500D01*
X144827526Y-98950500D01*
X144972474Y-98950500D01*
X144972475Y-98950500D01*
X145112485Y-98912984D01*
X145112487Y-98912982D01*
X145112489Y-98912982D01*
X145238010Y-98840512D01*
X145238010Y-98840511D01*
X145238015Y-98840509D01*
X145340509Y-98738015D01*
X145340512Y-98738010D01*
X145412982Y-98612489D01*
X145412982Y-98612487D01*
X145412984Y-98612485D01*
X145450500Y-98472475D01*
X145450500Y-98327525D01*
X145437102Y-98277525D01*
X146049500Y-98277525D01*
X146049500Y-98422474D01*
X146087017Y-98562489D01*
X146159487Y-98688010D01*
X146159489Y-98688012D01*
X146159491Y-98688015D01*
X146261985Y-98790509D01*
X146261987Y-98790510D01*
X146261989Y-98790512D01*
X146387511Y-98862982D01*
X146387512Y-98862982D01*
X146387515Y-98862984D01*
X146527525Y-98900500D01*
X146527526Y-98900500D01*
X146672474Y-98900500D01*
X146672475Y-98900500D01*
X146812485Y-98862984D01*
X146812487Y-98862982D01*
X146812489Y-98862982D01*
X146938010Y-98790512D01*
X146938010Y-98790511D01*
X146938015Y-98790509D01*
X147040509Y-98688015D01*
X147069953Y-98637017D01*
X147112982Y-98562489D01*
X147112982Y-98562487D01*
X147112984Y-98562485D01*
X147150500Y-98422475D01*
X147150500Y-98277525D01*
X147112984Y-98137515D01*
X147040509Y-98011985D01*
X147006049Y-97977525D01*
X154149500Y-97977525D01*
X154149500Y-98122475D01*
X154153530Y-98137515D01*
X154187017Y-98262489D01*
X154259487Y-98388010D01*
X154259489Y-98388012D01*
X154259491Y-98388015D01*
X154361985Y-98490509D01*
X154361987Y-98490510D01*
X154361989Y-98490512D01*
X154487511Y-98562982D01*
X154487512Y-98562982D01*
X154487515Y-98562984D01*
X154627525Y-98600500D01*
X154627526Y-98600500D01*
X154772474Y-98600500D01*
X154772475Y-98600500D01*
X154912485Y-98562984D01*
X154912487Y-98562982D01*
X154912489Y-98562982D01*
X155038010Y-98490512D01*
X155038010Y-98490511D01*
X155038015Y-98490509D01*
X155140509Y-98388015D01*
X155212984Y-98262485D01*
X155250500Y-98122475D01*
X155250500Y-97977525D01*
X155212984Y-97837515D01*
X155212982Y-97837512D01*
X155212982Y-97837510D01*
X155140512Y-97711989D01*
X155140510Y-97711987D01*
X155140509Y-97711985D01*
X155038015Y-97609491D01*
X155038012Y-97609489D01*
X155038010Y-97609487D01*
X154912488Y-97537017D01*
X154912489Y-97537017D01*
X154882896Y-97529087D01*
X154772475Y-97499500D01*
X154627525Y-97499500D01*
X154565790Y-97516041D01*
X154487510Y-97537017D01*
X154361989Y-97609487D01*
X154259487Y-97711989D01*
X154187017Y-97837510D01*
X154181951Y-97856418D01*
X154149500Y-97977525D01*
X147006049Y-97977525D01*
X146938015Y-97909491D01*
X146938012Y-97909489D01*
X146938010Y-97909487D01*
X146812488Y-97837017D01*
X146812489Y-97837017D01*
X146782896Y-97829087D01*
X146672475Y-97799500D01*
X146527525Y-97799500D01*
X146465790Y-97816041D01*
X146387510Y-97837017D01*
X146261989Y-97909487D01*
X146159487Y-98011989D01*
X146087017Y-98137510D01*
X146049500Y-98277525D01*
X145437102Y-98277525D01*
X145412984Y-98187515D01*
X145412982Y-98187512D01*
X145412982Y-98187510D01*
X145340512Y-98061989D01*
X145340510Y-98061987D01*
X145340509Y-98061985D01*
X145238015Y-97959491D01*
X145238012Y-97959489D01*
X145238010Y-97959487D01*
X145112488Y-97887017D01*
X145112489Y-97887017D01*
X145082896Y-97879087D01*
X144972475Y-97849500D01*
X144827525Y-97849500D01*
X144801700Y-97856420D01*
X144687510Y-97887017D01*
X144561989Y-97959487D01*
X144459487Y-98061989D01*
X144387017Y-98187510D01*
X144357771Y-98296659D01*
X144349500Y-98327525D01*
X123400500Y-98327525D01*
X123400500Y-97446532D01*
X164769500Y-97446532D01*
X164769500Y-97653467D01*
X164809869Y-97856418D01*
X164889058Y-98047597D01*
X164982548Y-98187515D01*
X165004023Y-98219655D01*
X165150345Y-98365977D01*
X165322402Y-98480941D01*
X165513580Y-98560130D01*
X165716535Y-98600500D01*
X165716536Y-98600500D01*
X165923464Y-98600500D01*
X165923465Y-98600500D01*
X166126420Y-98560130D01*
X166317598Y-98480941D01*
X166489655Y-98365977D01*
X166635977Y-98219655D01*
X166750941Y-98047598D01*
X166830130Y-97856420D01*
X166870500Y-97653465D01*
X166870500Y-97446535D01*
X166870499Y-97446532D01*
X167309500Y-97446532D01*
X167309500Y-97653467D01*
X167349869Y-97856418D01*
X167429058Y-98047597D01*
X167522548Y-98187515D01*
X167544023Y-98219655D01*
X167690345Y-98365977D01*
X167862402Y-98480941D01*
X168053580Y-98560130D01*
X168256535Y-98600500D01*
X168256536Y-98600500D01*
X168463464Y-98600500D01*
X168463465Y-98600500D01*
X168666420Y-98560130D01*
X168857598Y-98480941D01*
X169029655Y-98365977D01*
X169175977Y-98219655D01*
X169290941Y-98047598D01*
X169370130Y-97856420D01*
X169410500Y-97653465D01*
X169410500Y-97446535D01*
X169370130Y-97243580D01*
X169290941Y-97052402D01*
X169175977Y-96880345D01*
X169029655Y-96734023D01*
X168973773Y-96696684D01*
X168911691Y-96655202D01*
X169750000Y-96655202D01*
X169750000Y-97299999D01*
X169750001Y-97300000D01*
X170466988Y-97300000D01*
X170434075Y-97357007D01*
X170400000Y-97484174D01*
X170400000Y-97615826D01*
X170434075Y-97742993D01*
X170466988Y-97800000D01*
X169750002Y-97800000D01*
X169750001Y-97800001D01*
X169750001Y-98444791D01*
X169752909Y-98469874D01*
X169798213Y-98572477D01*
X169877522Y-98651786D01*
X169980127Y-98697090D01*
X170005203Y-98699999D01*
X170649998Y-98699999D01*
X170650000Y-98699998D01*
X170650000Y-97983012D01*
X170707007Y-98015925D01*
X170834174Y-98050000D01*
X170965826Y-98050000D01*
X171092993Y-98015925D01*
X171150000Y-97983012D01*
X171150000Y-98699998D01*
X171150001Y-98699999D01*
X171794790Y-98699999D01*
X171794791Y-98699998D01*
X171819874Y-98697090D01*
X171922477Y-98651786D01*
X172001786Y-98572477D01*
X172047090Y-98469872D01*
X172049999Y-98444797D01*
X172050000Y-98444795D01*
X172050000Y-97800001D01*
X172049999Y-97800000D01*
X171333012Y-97800000D01*
X171365925Y-97742993D01*
X171400000Y-97615826D01*
X171400000Y-97484174D01*
X171365925Y-97357007D01*
X171333012Y-97300000D01*
X172049998Y-97300000D01*
X172049999Y-97299999D01*
X172049999Y-96655210D01*
X172049998Y-96655208D01*
X172047090Y-96630125D01*
X172001786Y-96527522D01*
X171922477Y-96448213D01*
X171819872Y-96402909D01*
X171794797Y-96400000D01*
X171150001Y-96400000D01*
X171150000Y-96400001D01*
X171150000Y-97116988D01*
X171092993Y-97084075D01*
X170965826Y-97050000D01*
X170834174Y-97050000D01*
X170707007Y-97084075D01*
X170650000Y-97116988D01*
X170650000Y-96400001D01*
X170649999Y-96400000D01*
X170005210Y-96400000D01*
X170005207Y-96400001D01*
X169980125Y-96402909D01*
X169877522Y-96448213D01*
X169798213Y-96527522D01*
X169752909Y-96630127D01*
X169750000Y-96655202D01*
X168911691Y-96655202D01*
X168857597Y-96619058D01*
X168666418Y-96539869D01*
X168463467Y-96499500D01*
X168463465Y-96499500D01*
X168256535Y-96499500D01*
X168256532Y-96499500D01*
X168053581Y-96539869D01*
X167862402Y-96619058D01*
X167690348Y-96734020D01*
X167544020Y-96880348D01*
X167429058Y-97052402D01*
X167349869Y-97243581D01*
X167309500Y-97446532D01*
X166870499Y-97446532D01*
X166830130Y-97243580D01*
X166750941Y-97052402D01*
X166635977Y-96880345D01*
X166489655Y-96734023D01*
X166433773Y-96696684D01*
X166317597Y-96619058D01*
X166126418Y-96539869D01*
X165923467Y-96499500D01*
X165923465Y-96499500D01*
X165716535Y-96499500D01*
X165716532Y-96499500D01*
X165513581Y-96539869D01*
X165322402Y-96619058D01*
X165150348Y-96734020D01*
X165004020Y-96880348D01*
X164889058Y-97052402D01*
X164809869Y-97243581D01*
X164769500Y-97446532D01*
X123400500Y-97446532D01*
X123400500Y-96777525D01*
X133649500Y-96777525D01*
X133649500Y-96922474D01*
X133687017Y-97062489D01*
X133759487Y-97188010D01*
X133759489Y-97188012D01*
X133759491Y-97188015D01*
X133861985Y-97290509D01*
X133861987Y-97290510D01*
X133861989Y-97290512D01*
X133987511Y-97362982D01*
X133987512Y-97362982D01*
X133987515Y-97362984D01*
X134127525Y-97400500D01*
X134127526Y-97400500D01*
X134272474Y-97400500D01*
X134272475Y-97400500D01*
X134412485Y-97362984D01*
X134412487Y-97362982D01*
X134412489Y-97362982D01*
X134538010Y-97290512D01*
X134538010Y-97290511D01*
X134538015Y-97290509D01*
X134640509Y-97188015D01*
X134712984Y-97062485D01*
X134750500Y-96922475D01*
X134750500Y-96777525D01*
X134723705Y-96677525D01*
X149049500Y-96677525D01*
X149049500Y-96822475D01*
X149065007Y-96880348D01*
X149087017Y-96962489D01*
X149159487Y-97088010D01*
X149159489Y-97088012D01*
X149159491Y-97088015D01*
X149261985Y-97190509D01*
X149261987Y-97190510D01*
X149261989Y-97190512D01*
X149387511Y-97262982D01*
X149387512Y-97262982D01*
X149387515Y-97262984D01*
X149527525Y-97300500D01*
X149527526Y-97300500D01*
X149672474Y-97300500D01*
X149672475Y-97300500D01*
X149812485Y-97262984D01*
X149812487Y-97262982D01*
X149812489Y-97262982D01*
X149938010Y-97190512D01*
X149938010Y-97190511D01*
X149938015Y-97190509D01*
X150040509Y-97088015D01*
X150042784Y-97084075D01*
X150112982Y-96962489D01*
X150112982Y-96962487D01*
X150112984Y-96962485D01*
X150150500Y-96822475D01*
X150150500Y-96677525D01*
X150112984Y-96537515D01*
X150112982Y-96537512D01*
X150112982Y-96537510D01*
X150040512Y-96411989D01*
X150040510Y-96411987D01*
X150040509Y-96411985D01*
X149938015Y-96309491D01*
X149938012Y-96309489D01*
X149938010Y-96309487D01*
X149812488Y-96237017D01*
X149812489Y-96237017D01*
X149735516Y-96216392D01*
X149672475Y-96199500D01*
X149527525Y-96199500D01*
X149465790Y-96216041D01*
X149387510Y-96237017D01*
X149261989Y-96309487D01*
X149159487Y-96411989D01*
X149087017Y-96537510D01*
X149087016Y-96537515D01*
X149049500Y-96677525D01*
X134723705Y-96677525D01*
X134712984Y-96637515D01*
X134712982Y-96637512D01*
X134712982Y-96637510D01*
X134640512Y-96511989D01*
X134640510Y-96511987D01*
X134640509Y-96511985D01*
X134538015Y-96409491D01*
X134538012Y-96409489D01*
X134538010Y-96409487D01*
X134412488Y-96337017D01*
X134412489Y-96337017D01*
X134309761Y-96309491D01*
X134272475Y-96299500D01*
X134127525Y-96299500D01*
X134090239Y-96309491D01*
X133987510Y-96337017D01*
X133861989Y-96409487D01*
X133759487Y-96511989D01*
X133687017Y-96637510D01*
X133649500Y-96777525D01*
X123400500Y-96777525D01*
X123400500Y-95177525D01*
X141249500Y-95177525D01*
X141249500Y-95322475D01*
X141264251Y-95377525D01*
X141287017Y-95462489D01*
X141359487Y-95588010D01*
X141359489Y-95588012D01*
X141359491Y-95588015D01*
X141461985Y-95690509D01*
X141461987Y-95690510D01*
X141461989Y-95690512D01*
X141587511Y-95762982D01*
X141587512Y-95762982D01*
X141587515Y-95762984D01*
X141727525Y-95800500D01*
X141727526Y-95800500D01*
X141872474Y-95800500D01*
X141872475Y-95800500D01*
X142012485Y-95762984D01*
X142012487Y-95762982D01*
X142012489Y-95762982D01*
X142138010Y-95690512D01*
X142138010Y-95690511D01*
X142138015Y-95690509D01*
X142144416Y-95684108D01*
X146399500Y-95684108D01*
X146399500Y-95815892D01*
X146419494Y-95890512D01*
X146433609Y-95943190D01*
X146499496Y-96057309D01*
X146499498Y-96057311D01*
X146499500Y-96057314D01*
X146592686Y-96150500D01*
X146592688Y-96150501D01*
X146592690Y-96150503D01*
X146706810Y-96216390D01*
X146706808Y-96216390D01*
X146706812Y-96216391D01*
X146706814Y-96216392D01*
X146834108Y-96250500D01*
X146834110Y-96250500D01*
X146965890Y-96250500D01*
X146965892Y-96250500D01*
X147093186Y-96216392D01*
X147093188Y-96216390D01*
X147093190Y-96216390D01*
X147207309Y-96150503D01*
X147207309Y-96150502D01*
X147207314Y-96150500D01*
X147300500Y-96057314D01*
X147366392Y-95943186D01*
X147400500Y-95815892D01*
X147400500Y-95684108D01*
X147366392Y-95556814D01*
X147366390Y-95556811D01*
X147366390Y-95556809D01*
X147300503Y-95442690D01*
X147300501Y-95442688D01*
X147300500Y-95442686D01*
X147235339Y-95377525D01*
X149049500Y-95377525D01*
X149049500Y-95522475D01*
X149079087Y-95632896D01*
X149087017Y-95662489D01*
X149159487Y-95788010D01*
X149159489Y-95788012D01*
X149159491Y-95788015D01*
X149261985Y-95890509D01*
X149261987Y-95890510D01*
X149261989Y-95890512D01*
X149387511Y-95962982D01*
X149387512Y-95962982D01*
X149387515Y-95962984D01*
X149527525Y-96000500D01*
X149527526Y-96000500D01*
X149672474Y-96000500D01*
X149672475Y-96000500D01*
X149812485Y-95962984D01*
X149812487Y-95962982D01*
X149812489Y-95962982D01*
X149938010Y-95890512D01*
X149938010Y-95890511D01*
X149938015Y-95890509D01*
X150040509Y-95788015D01*
X150054962Y-95762982D01*
X150112982Y-95662489D01*
X150112982Y-95662487D01*
X150112984Y-95662485D01*
X150150500Y-95522475D01*
X150150500Y-95377525D01*
X150112984Y-95237515D01*
X150112982Y-95237512D01*
X150112982Y-95237510D01*
X150040512Y-95111989D01*
X150040510Y-95111987D01*
X150040509Y-95111985D01*
X149938015Y-95009491D01*
X149938012Y-95009489D01*
X149938010Y-95009487D01*
X149812488Y-94937017D01*
X149812489Y-94937017D01*
X149782896Y-94929087D01*
X149672475Y-94899500D01*
X149527525Y-94899500D01*
X149480931Y-94911985D01*
X149387510Y-94937017D01*
X149261989Y-95009487D01*
X149159487Y-95111989D01*
X149087017Y-95237510D01*
X149074665Y-95283608D01*
X149049500Y-95377525D01*
X147235339Y-95377525D01*
X147207314Y-95349500D01*
X147207311Y-95349498D01*
X147207309Y-95349496D01*
X147093189Y-95283609D01*
X147093191Y-95283609D01*
X147043799Y-95270375D01*
X146965892Y-95249500D01*
X146834108Y-95249500D01*
X146756200Y-95270375D01*
X146706809Y-95283609D01*
X146592690Y-95349496D01*
X146499496Y-95442690D01*
X146433609Y-95556809D01*
X146433608Y-95556814D01*
X146399500Y-95684108D01*
X142144416Y-95684108D01*
X142240509Y-95588015D01*
X142312984Y-95462485D01*
X142350500Y-95322475D01*
X142350500Y-95177525D01*
X142312984Y-95037515D01*
X142312982Y-95037512D01*
X142312982Y-95037510D01*
X142240512Y-94911989D01*
X142240510Y-94911987D01*
X142240509Y-94911985D01*
X142138015Y-94809491D01*
X142138012Y-94809489D01*
X142138010Y-94809487D01*
X142012488Y-94737017D01*
X142012489Y-94737017D01*
X141982896Y-94729087D01*
X141872475Y-94699500D01*
X141727525Y-94699500D01*
X141665790Y-94716041D01*
X141587510Y-94737017D01*
X141461989Y-94809487D01*
X141359487Y-94911989D01*
X141287017Y-95037510D01*
X141256849Y-95150099D01*
X141249500Y-95177525D01*
X123400500Y-95177525D01*
X123400500Y-94484108D01*
X146999500Y-94484108D01*
X146999500Y-94615892D01*
X147029579Y-94728151D01*
X147033609Y-94743190D01*
X147099496Y-94857309D01*
X147099498Y-94857311D01*
X147099500Y-94857314D01*
X147192686Y-94950500D01*
X147192688Y-94950501D01*
X147192690Y-94950503D01*
X147306810Y-95016390D01*
X147306808Y-95016390D01*
X147306812Y-95016391D01*
X147306814Y-95016392D01*
X147434108Y-95050500D01*
X147434110Y-95050500D01*
X147565890Y-95050500D01*
X147565892Y-95050500D01*
X147693186Y-95016392D01*
X147693188Y-95016390D01*
X147693190Y-95016390D01*
X147807309Y-94950503D01*
X147807309Y-94950502D01*
X147807314Y-94950500D01*
X147900500Y-94857314D01*
X147902722Y-94853465D01*
X147966390Y-94743190D01*
X147966390Y-94743188D01*
X147966392Y-94743186D01*
X147992290Y-94646532D01*
X164769500Y-94646532D01*
X164769500Y-94853467D01*
X164809869Y-95056418D01*
X164889058Y-95247597D01*
X164957147Y-95349500D01*
X165004023Y-95419655D01*
X165150345Y-95565977D01*
X165322402Y-95680941D01*
X165513580Y-95760130D01*
X165716535Y-95800500D01*
X165716536Y-95800500D01*
X165923464Y-95800500D01*
X165923465Y-95800500D01*
X166126420Y-95760130D01*
X166317598Y-95680941D01*
X166489655Y-95565977D01*
X166635977Y-95419655D01*
X166750941Y-95247598D01*
X166830130Y-95056420D01*
X166870500Y-94853465D01*
X166870500Y-94646535D01*
X166870499Y-94646532D01*
X167309500Y-94646532D01*
X167309500Y-94853467D01*
X167349869Y-95056418D01*
X167429058Y-95247597D01*
X167497147Y-95349500D01*
X167544023Y-95419655D01*
X167690345Y-95565977D01*
X167862402Y-95680941D01*
X168053580Y-95760130D01*
X168256535Y-95800500D01*
X168256536Y-95800500D01*
X168463464Y-95800500D01*
X168463465Y-95800500D01*
X168666420Y-95760130D01*
X168857598Y-95680941D01*
X169029655Y-95565977D01*
X169175977Y-95419655D01*
X169290941Y-95247598D01*
X169370130Y-95056420D01*
X169410500Y-94853465D01*
X169410500Y-94646535D01*
X169370130Y-94443580D01*
X169290941Y-94252402D01*
X169175977Y-94080345D01*
X169029655Y-93934023D01*
X168923334Y-93862982D01*
X168911690Y-93855202D01*
X169750000Y-93855202D01*
X169750000Y-94499999D01*
X169750001Y-94500000D01*
X170466988Y-94500000D01*
X170434075Y-94557007D01*
X170400000Y-94684174D01*
X170400000Y-94815826D01*
X170434075Y-94942993D01*
X170466988Y-95000000D01*
X169750002Y-95000000D01*
X169750001Y-95000001D01*
X169750001Y-95644791D01*
X169752909Y-95669874D01*
X169798213Y-95772477D01*
X169877522Y-95851786D01*
X169980127Y-95897090D01*
X170005203Y-95899999D01*
X170649998Y-95899999D01*
X170650000Y-95899998D01*
X170650000Y-95183012D01*
X170707007Y-95215925D01*
X170834174Y-95250000D01*
X170965826Y-95250000D01*
X171092993Y-95215925D01*
X171150000Y-95183012D01*
X171150000Y-95899998D01*
X171150001Y-95899999D01*
X171794790Y-95899999D01*
X171794791Y-95899998D01*
X171819874Y-95897090D01*
X171922477Y-95851786D01*
X172001786Y-95772477D01*
X172047090Y-95669872D01*
X172049999Y-95644797D01*
X172050000Y-95644795D01*
X172050000Y-95000001D01*
X172049999Y-95000000D01*
X171333012Y-95000000D01*
X171365925Y-94942993D01*
X171400000Y-94815826D01*
X171400000Y-94684174D01*
X171365925Y-94557007D01*
X171333012Y-94500000D01*
X172049998Y-94500000D01*
X172049999Y-94499999D01*
X172049999Y-93855210D01*
X172049998Y-93855208D01*
X172047090Y-93830125D01*
X172001786Y-93727522D01*
X171922477Y-93648213D01*
X171819872Y-93602909D01*
X171794797Y-93600000D01*
X171150001Y-93600000D01*
X171150000Y-93600001D01*
X171150000Y-94316988D01*
X171092993Y-94284075D01*
X170965826Y-94250000D01*
X170834174Y-94250000D01*
X170707007Y-94284075D01*
X170650000Y-94316988D01*
X170650000Y-93600001D01*
X170649999Y-93600000D01*
X170005210Y-93600000D01*
X170005207Y-93600001D01*
X169980125Y-93602909D01*
X169877522Y-93648213D01*
X169798213Y-93727522D01*
X169752909Y-93830127D01*
X169750000Y-93855202D01*
X168911690Y-93855202D01*
X168857597Y-93819058D01*
X168666418Y-93739869D01*
X168463467Y-93699500D01*
X168463465Y-93699500D01*
X168256535Y-93699500D01*
X168256532Y-93699500D01*
X168053581Y-93739869D01*
X167862402Y-93819058D01*
X167690348Y-93934020D01*
X167544020Y-94080348D01*
X167429058Y-94252402D01*
X167349869Y-94443581D01*
X167309500Y-94646532D01*
X166870499Y-94646532D01*
X166830130Y-94443580D01*
X166750941Y-94252402D01*
X166635977Y-94080345D01*
X166489655Y-93934023D01*
X166383334Y-93862982D01*
X166317597Y-93819058D01*
X166126418Y-93739869D01*
X165923467Y-93699500D01*
X165923465Y-93699500D01*
X165716535Y-93699500D01*
X165716532Y-93699500D01*
X165513581Y-93739869D01*
X165322402Y-93819058D01*
X165150348Y-93934020D01*
X165004020Y-94080348D01*
X164889058Y-94252402D01*
X164809869Y-94443581D01*
X164769500Y-94646532D01*
X147992290Y-94646532D01*
X148000500Y-94615892D01*
X148000500Y-94484108D01*
X147966392Y-94356814D01*
X147966390Y-94356811D01*
X147966390Y-94356809D01*
X147900503Y-94242690D01*
X147900501Y-94242688D01*
X147900500Y-94242686D01*
X147807314Y-94149500D01*
X147807311Y-94149498D01*
X147807309Y-94149496D01*
X147693189Y-94083609D01*
X147693191Y-94083609D01*
X147643799Y-94070375D01*
X147565892Y-94049500D01*
X147434108Y-94049500D01*
X147356200Y-94070375D01*
X147306809Y-94083609D01*
X147192690Y-94149496D01*
X147099496Y-94242690D01*
X147033609Y-94356809D01*
X147033608Y-94356814D01*
X146999500Y-94484108D01*
X123400500Y-94484108D01*
X123400500Y-93527525D01*
X144349500Y-93527525D01*
X144349500Y-93672475D01*
X144364250Y-93727522D01*
X144387017Y-93812489D01*
X144459487Y-93938010D01*
X144459489Y-93938012D01*
X144459491Y-93938015D01*
X144561985Y-94040509D01*
X144561987Y-94040510D01*
X144561989Y-94040512D01*
X144687511Y-94112982D01*
X144687512Y-94112982D01*
X144687515Y-94112984D01*
X144827525Y-94150500D01*
X144827526Y-94150500D01*
X144972474Y-94150500D01*
X144972475Y-94150500D01*
X145112485Y-94112984D01*
X145112487Y-94112982D01*
X145112489Y-94112982D01*
X145238010Y-94040512D01*
X145238010Y-94040511D01*
X145238015Y-94040509D01*
X145340509Y-93938015D01*
X145342816Y-93934020D01*
X145412982Y-93812489D01*
X145412982Y-93812487D01*
X145412984Y-93812485D01*
X145450500Y-93672475D01*
X145450500Y-93527525D01*
X145412984Y-93387515D01*
X145412982Y-93387512D01*
X145412982Y-93387510D01*
X145340512Y-93261989D01*
X145340510Y-93261987D01*
X145340509Y-93261985D01*
X145256049Y-93177525D01*
X147549500Y-93177525D01*
X147549500Y-93322474D01*
X147587017Y-93462489D01*
X147659487Y-93588010D01*
X147659489Y-93588012D01*
X147659491Y-93588015D01*
X147761985Y-93690509D01*
X147761987Y-93690510D01*
X147761989Y-93690512D01*
X147887511Y-93762982D01*
X147887512Y-93762982D01*
X147887515Y-93762984D01*
X148027525Y-93800500D01*
X148027526Y-93800500D01*
X148172474Y-93800500D01*
X148172475Y-93800500D01*
X148312485Y-93762984D01*
X148312487Y-93762982D01*
X148312489Y-93762982D01*
X148438010Y-93690512D01*
X148438010Y-93690511D01*
X148438015Y-93690509D01*
X148540509Y-93588015D01*
X148540512Y-93588010D01*
X148612982Y-93462489D01*
X148612982Y-93462487D01*
X148612984Y-93462485D01*
X148650500Y-93322475D01*
X148650500Y-93277525D01*
X158649500Y-93277525D01*
X158649500Y-93422474D01*
X158687017Y-93562489D01*
X158759487Y-93688010D01*
X158759489Y-93688012D01*
X158759491Y-93688015D01*
X158861985Y-93790509D01*
X158861987Y-93790510D01*
X158861989Y-93790512D01*
X158987511Y-93862982D01*
X158987512Y-93862982D01*
X158987515Y-93862984D01*
X159127525Y-93900500D01*
X159127526Y-93900500D01*
X159272474Y-93900500D01*
X159272475Y-93900500D01*
X159412485Y-93862984D01*
X159412487Y-93862982D01*
X159412489Y-93862982D01*
X159538010Y-93790512D01*
X159538010Y-93790511D01*
X159538015Y-93790509D01*
X159640509Y-93688015D01*
X159712984Y-93562485D01*
X159750500Y-93422475D01*
X159750500Y-93277525D01*
X159712984Y-93137515D01*
X159712982Y-93137512D01*
X159712982Y-93137510D01*
X159640512Y-93011989D01*
X159640510Y-93011987D01*
X159640509Y-93011985D01*
X159538015Y-92909491D01*
X159538012Y-92909489D01*
X159538010Y-92909487D01*
X159412488Y-92837017D01*
X159412489Y-92837017D01*
X159309761Y-92809491D01*
X159272475Y-92799500D01*
X159127525Y-92799500D01*
X159090239Y-92809491D01*
X158987510Y-92837017D01*
X158861989Y-92909487D01*
X158759487Y-93011989D01*
X158687017Y-93137510D01*
X158649500Y-93277525D01*
X148650500Y-93277525D01*
X148650500Y-93177525D01*
X148612984Y-93037515D01*
X148612982Y-93037512D01*
X148612982Y-93037510D01*
X148540512Y-92911989D01*
X148540510Y-92911987D01*
X148540509Y-92911985D01*
X148438015Y-92809491D01*
X148438012Y-92809489D01*
X148438010Y-92809487D01*
X148312488Y-92737017D01*
X148312489Y-92737017D01*
X148282896Y-92729087D01*
X148172475Y-92699500D01*
X148027525Y-92699500D01*
X147965790Y-92716041D01*
X147887510Y-92737017D01*
X147761989Y-92809487D01*
X147659487Y-92911989D01*
X147587017Y-93037510D01*
X147549500Y-93177525D01*
X145256049Y-93177525D01*
X145238015Y-93159491D01*
X145238012Y-93159489D01*
X145238010Y-93159487D01*
X145112488Y-93087017D01*
X145112489Y-93087017D01*
X145082896Y-93079087D01*
X144972475Y-93049500D01*
X144827525Y-93049500D01*
X144765790Y-93066041D01*
X144687510Y-93087017D01*
X144561989Y-93159487D01*
X144459487Y-93261989D01*
X144387017Y-93387510D01*
X144349500Y-93527525D01*
X123400500Y-93527525D01*
X123400500Y-92177525D01*
X141049500Y-92177525D01*
X141049500Y-92322475D01*
X141064251Y-92377525D01*
X141087017Y-92462489D01*
X141159487Y-92588010D01*
X141159489Y-92588012D01*
X141159491Y-92588015D01*
X141261985Y-92690509D01*
X141261987Y-92690510D01*
X141261989Y-92690512D01*
X141387511Y-92762982D01*
X141387512Y-92762982D01*
X141387515Y-92762984D01*
X141527525Y-92800500D01*
X141527526Y-92800500D01*
X141672474Y-92800500D01*
X141672475Y-92800500D01*
X141812485Y-92762984D01*
X141812487Y-92762982D01*
X141812489Y-92762982D01*
X141938010Y-92690512D01*
X141938010Y-92690511D01*
X141938015Y-92690509D01*
X142040509Y-92588015D01*
X142112984Y-92462485D01*
X142135749Y-92377525D01*
X148699500Y-92377525D01*
X148699500Y-92522474D01*
X148737017Y-92662489D01*
X148809487Y-92788010D01*
X148809489Y-92788012D01*
X148809491Y-92788015D01*
X148911985Y-92890509D01*
X148911987Y-92890510D01*
X148911989Y-92890512D01*
X149037511Y-92962982D01*
X149037512Y-92962982D01*
X149037515Y-92962984D01*
X149177525Y-93000500D01*
X149177526Y-93000500D01*
X149322474Y-93000500D01*
X149322475Y-93000500D01*
X149462485Y-92962984D01*
X149462487Y-92962982D01*
X149462489Y-92962982D01*
X149588010Y-92890512D01*
X149588010Y-92890511D01*
X149588015Y-92890509D01*
X149690509Y-92788015D01*
X149719953Y-92737017D01*
X149762982Y-92662489D01*
X149762982Y-92662487D01*
X149762984Y-92662485D01*
X149800500Y-92522475D01*
X149800500Y-92377525D01*
X149762984Y-92237515D01*
X149762982Y-92237512D01*
X149762982Y-92237510D01*
X149690512Y-92111989D01*
X149690510Y-92111987D01*
X149690509Y-92111985D01*
X149588015Y-92009491D01*
X149588012Y-92009489D01*
X149588010Y-92009487D01*
X149462488Y-91937017D01*
X149462489Y-91937017D01*
X149432896Y-91929087D01*
X149322475Y-91899500D01*
X149177525Y-91899500D01*
X149130931Y-91911985D01*
X149037510Y-91937017D01*
X148911989Y-92009487D01*
X148809487Y-92111989D01*
X148737017Y-92237510D01*
X148699500Y-92377525D01*
X142135749Y-92377525D01*
X142150500Y-92322475D01*
X142150500Y-92177525D01*
X142112984Y-92037515D01*
X142112982Y-92037512D01*
X142112982Y-92037510D01*
X142040512Y-91911989D01*
X142040510Y-91911987D01*
X142040509Y-91911985D01*
X141938015Y-91809491D01*
X141938012Y-91809489D01*
X141938010Y-91809487D01*
X141812488Y-91737017D01*
X141812489Y-91737017D01*
X141782896Y-91729087D01*
X141672475Y-91699500D01*
X141527525Y-91699500D01*
X141465790Y-91716041D01*
X141387510Y-91737017D01*
X141261989Y-91809487D01*
X141159487Y-91911989D01*
X141087017Y-92037510D01*
X141049500Y-92177525D01*
X123400500Y-92177525D01*
X123400500Y-90077525D01*
X140949500Y-90077525D01*
X140949500Y-90222475D01*
X140972006Y-90306468D01*
X140987017Y-90362489D01*
X141059487Y-90488010D01*
X141059489Y-90488012D01*
X141059491Y-90488015D01*
X141161985Y-90590509D01*
X141161987Y-90590510D01*
X141161989Y-90590512D01*
X141287511Y-90662982D01*
X141287512Y-90662982D01*
X141287515Y-90662984D01*
X141427525Y-90700500D01*
X141427526Y-90700500D01*
X141572474Y-90700500D01*
X141572475Y-90700500D01*
X141712485Y-90662984D01*
X141712487Y-90662982D01*
X141712489Y-90662982D01*
X141838010Y-90590512D01*
X141838010Y-90590511D01*
X141838015Y-90590509D01*
X141940509Y-90488015D01*
X141959379Y-90455331D01*
X142012982Y-90362489D01*
X142012982Y-90362487D01*
X142012984Y-90362485D01*
X142050500Y-90222475D01*
X142050500Y-90077525D01*
X142023705Y-89977525D01*
X144099500Y-89977525D01*
X144099500Y-90122475D01*
X144118285Y-90192579D01*
X144137017Y-90262489D01*
X144209487Y-90388010D01*
X144209489Y-90388012D01*
X144209491Y-90388015D01*
X144311985Y-90490509D01*
X144311987Y-90490510D01*
X144311989Y-90490512D01*
X144437511Y-90562982D01*
X144437512Y-90562982D01*
X144437515Y-90562984D01*
X144577525Y-90600500D01*
X144577526Y-90600500D01*
X144722474Y-90600500D01*
X144722475Y-90600500D01*
X144808218Y-90577525D01*
X145249500Y-90577525D01*
X145249500Y-90722475D01*
X145279087Y-90832896D01*
X145287017Y-90862489D01*
X145359487Y-90988010D01*
X145359489Y-90988012D01*
X145359491Y-90988015D01*
X145461985Y-91090509D01*
X145461987Y-91090510D01*
X145461989Y-91090512D01*
X145587511Y-91162982D01*
X145587512Y-91162982D01*
X145587515Y-91162984D01*
X145727525Y-91200500D01*
X145727526Y-91200500D01*
X145872474Y-91200500D01*
X145872475Y-91200500D01*
X146012485Y-91162984D01*
X146012487Y-91162982D01*
X146012489Y-91162982D01*
X146138010Y-91090512D01*
X146138010Y-91090511D01*
X146138015Y-91090509D01*
X146150999Y-91077525D01*
X147649500Y-91077525D01*
X147649500Y-91222475D01*
X147678976Y-91332478D01*
X147687017Y-91362489D01*
X147759487Y-91488010D01*
X147759489Y-91488012D01*
X147759491Y-91488015D01*
X147861985Y-91590509D01*
X147861987Y-91590510D01*
X147861989Y-91590512D01*
X147987511Y-91662982D01*
X147987512Y-91662982D01*
X147987515Y-91662984D01*
X148127525Y-91700500D01*
X148127526Y-91700500D01*
X148272474Y-91700500D01*
X148272475Y-91700500D01*
X148412485Y-91662984D01*
X148412487Y-91662982D01*
X148412489Y-91662982D01*
X148538010Y-91590512D01*
X148538010Y-91590511D01*
X148538015Y-91590509D01*
X148640509Y-91488015D01*
X148669377Y-91438015D01*
X148712982Y-91362489D01*
X148712982Y-91362487D01*
X148712984Y-91362485D01*
X148750500Y-91222475D01*
X148750500Y-91077525D01*
X148737102Y-91027525D01*
X148949500Y-91027525D01*
X148949500Y-91172475D01*
X148962897Y-91222474D01*
X148987017Y-91312489D01*
X149059487Y-91438010D01*
X149059489Y-91438012D01*
X149059491Y-91438015D01*
X149161985Y-91540509D01*
X149161987Y-91540510D01*
X149161989Y-91540512D01*
X149287511Y-91612982D01*
X149287512Y-91612982D01*
X149287515Y-91612984D01*
X149427525Y-91650500D01*
X149427526Y-91650500D01*
X149572474Y-91650500D01*
X149572475Y-91650500D01*
X149712485Y-91612984D01*
X149712487Y-91612982D01*
X149712489Y-91612982D01*
X149838010Y-91540512D01*
X149838010Y-91540511D01*
X149838015Y-91540509D01*
X149940509Y-91438015D01*
X149943100Y-91433528D01*
X150012982Y-91312489D01*
X150012982Y-91312487D01*
X150012984Y-91312485D01*
X150050500Y-91172475D01*
X150050500Y-91027525D01*
X150012984Y-90887515D01*
X149961615Y-90798542D01*
X164569500Y-90798542D01*
X164569500Y-90941457D01*
X164581351Y-91001032D01*
X164596566Y-91077525D01*
X164597381Y-91081619D01*
X164597381Y-91081621D01*
X164652068Y-91213648D01*
X164652074Y-91213659D01*
X164699522Y-91284668D01*
X164731468Y-91332479D01*
X164832521Y-91433532D01*
X164903362Y-91480866D01*
X164951340Y-91512925D01*
X164951351Y-91512931D01*
X165000121Y-91533132D01*
X165083380Y-91567619D01*
X165223545Y-91595500D01*
X165223546Y-91595500D01*
X166416454Y-91595500D01*
X166416455Y-91595500D01*
X166556620Y-91567619D01*
X166688653Y-91512929D01*
X166807479Y-91433532D01*
X166908532Y-91332479D01*
X166987929Y-91213653D01*
X167042619Y-91081620D01*
X167070500Y-90941455D01*
X167070500Y-90805931D01*
X168899500Y-90805931D01*
X168899500Y-90934069D01*
X168921896Y-91046660D01*
X168924499Y-91059742D01*
X168924500Y-91059747D01*
X168973534Y-91178125D01*
X168973538Y-91178133D01*
X169003167Y-91222475D01*
X169044724Y-91284669D01*
X169135331Y-91375276D01*
X169198848Y-91417717D01*
X169241866Y-91446461D01*
X169241870Y-91446463D01*
X169241873Y-91446465D01*
X169360256Y-91495501D01*
X169485931Y-91520500D01*
X169485932Y-91520500D01*
X170514068Y-91520500D01*
X170514069Y-91520500D01*
X170639744Y-91495501D01*
X170758127Y-91446465D01*
X170864669Y-91375276D01*
X170955276Y-91284669D01*
X171026465Y-91178127D01*
X171075501Y-91059744D01*
X171100500Y-90934069D01*
X171100500Y-90805931D01*
X171075501Y-90680256D01*
X171026465Y-90561873D01*
X171026463Y-90561870D01*
X171026461Y-90561866D01*
X170978781Y-90490509D01*
X170955276Y-90455331D01*
X170864669Y-90364724D01*
X170798537Y-90320536D01*
X170758133Y-90293538D01*
X170758125Y-90293534D01*
X170639747Y-90244500D01*
X170639745Y-90244499D01*
X170639744Y-90244499D01*
X170514069Y-90219500D01*
X169485931Y-90219500D01*
X169485930Y-90219500D01*
X169447885Y-90227068D01*
X169360256Y-90244499D01*
X169360255Y-90244499D01*
X169360252Y-90244500D01*
X169241874Y-90293534D01*
X169241866Y-90293538D01*
X169135331Y-90364724D01*
X169135327Y-90364727D01*
X169044727Y-90455327D01*
X169044724Y-90455331D01*
X168973538Y-90561866D01*
X168973534Y-90561874D01*
X168924500Y-90680252D01*
X168924499Y-90680255D01*
X168924499Y-90680256D01*
X168899500Y-90805931D01*
X167070500Y-90805931D01*
X167070500Y-90798545D01*
X167042619Y-90658380D01*
X167014506Y-90590509D01*
X166987931Y-90526351D01*
X166987925Y-90526340D01*
X166955866Y-90478362D01*
X166908532Y-90407521D01*
X166807479Y-90306468D01*
X166726115Y-90252102D01*
X166688659Y-90227074D01*
X166688651Y-90227070D01*
X166605382Y-90192579D01*
X166558857Y-90152842D01*
X166544573Y-90093348D01*
X166567988Y-90036820D01*
X166605382Y-90009651D01*
X166621022Y-90003173D01*
X166725108Y-89933625D01*
X166813625Y-89845108D01*
X166883173Y-89741022D01*
X166931078Y-89625369D01*
X166955500Y-89502591D01*
X166955500Y-89377409D01*
X166931078Y-89254631D01*
X166901867Y-89184109D01*
X166883175Y-89138982D01*
X166883169Y-89138971D01*
X166855087Y-89096945D01*
X166813625Y-89034892D01*
X166725108Y-88946375D01*
X166683644Y-88918669D01*
X166621028Y-88876830D01*
X166621017Y-88876824D01*
X166505369Y-88828922D01*
X166382593Y-88804500D01*
X166382591Y-88804500D01*
X166257409Y-88804500D01*
X166257406Y-88804500D01*
X166134631Y-88828922D01*
X166134629Y-88828922D01*
X166018982Y-88876824D01*
X166018971Y-88876830D01*
X165914892Y-88946375D01*
X165914888Y-88946378D01*
X165826378Y-89034888D01*
X165826375Y-89034892D01*
X165756830Y-89138971D01*
X165756824Y-89138982D01*
X165708922Y-89254629D01*
X165708922Y-89254631D01*
X165684500Y-89377406D01*
X165684500Y-89502593D01*
X165708922Y-89625368D01*
X165708922Y-89625370D01*
X165756824Y-89741017D01*
X165756830Y-89741028D01*
X165795901Y-89799500D01*
X165826375Y-89845108D01*
X165914892Y-89933625D01*
X165959132Y-89963185D01*
X165997011Y-90011235D01*
X165999413Y-90072373D01*
X165965420Y-90123247D01*
X165908016Y-90144424D01*
X165904130Y-90144500D01*
X165223542Y-90144500D01*
X165083380Y-90172381D01*
X165083378Y-90172381D01*
X164951351Y-90227068D01*
X164951340Y-90227074D01*
X164832521Y-90306468D01*
X164832517Y-90306471D01*
X164731471Y-90407517D01*
X164731468Y-90407521D01*
X164652074Y-90526340D01*
X164652068Y-90526351D01*
X164597381Y-90658378D01*
X164597381Y-90658380D01*
X164569500Y-90798542D01*
X149961615Y-90798542D01*
X149940509Y-90761985D01*
X149838015Y-90659491D01*
X149838012Y-90659489D01*
X149838010Y-90659487D01*
X149712488Y-90587017D01*
X149712489Y-90587017D01*
X149682896Y-90579087D01*
X149572475Y-90549500D01*
X149427525Y-90549500D01*
X149381375Y-90561866D01*
X149287510Y-90587017D01*
X149161989Y-90659487D01*
X149059487Y-90761989D01*
X148987017Y-90887510D01*
X148972562Y-90941457D01*
X148949500Y-91027525D01*
X148737102Y-91027525D01*
X148712984Y-90937515D01*
X148712982Y-90937512D01*
X148712982Y-90937510D01*
X148640512Y-90811989D01*
X148640510Y-90811987D01*
X148640509Y-90811985D01*
X148538015Y-90709491D01*
X148538012Y-90709489D01*
X148538010Y-90709487D01*
X148412488Y-90637017D01*
X148412489Y-90637017D01*
X148382896Y-90629087D01*
X148272475Y-90599500D01*
X148127525Y-90599500D01*
X148065790Y-90616041D01*
X147987510Y-90637017D01*
X147861989Y-90709487D01*
X147759487Y-90811989D01*
X147687017Y-90937510D01*
X147657771Y-91046659D01*
X147649500Y-91077525D01*
X146150999Y-91077525D01*
X146240509Y-90988015D01*
X146240512Y-90988010D01*
X146312982Y-90862489D01*
X146312982Y-90862487D01*
X146312984Y-90862485D01*
X146350500Y-90722475D01*
X146350500Y-90577525D01*
X146312984Y-90437515D01*
X146240509Y-90311985D01*
X146206049Y-90277525D01*
X146549500Y-90277525D01*
X146549500Y-90422475D01*
X146553530Y-90437515D01*
X146587017Y-90562489D01*
X146659487Y-90688010D01*
X146659489Y-90688012D01*
X146659491Y-90688015D01*
X146761985Y-90790509D01*
X146761987Y-90790510D01*
X146761989Y-90790512D01*
X146887511Y-90862982D01*
X146887512Y-90862982D01*
X146887515Y-90862984D01*
X147027525Y-90900500D01*
X147027526Y-90900500D01*
X147172474Y-90900500D01*
X147172475Y-90900500D01*
X147312485Y-90862984D01*
X147312487Y-90862982D01*
X147312489Y-90862982D01*
X147438010Y-90790512D01*
X147438010Y-90790511D01*
X147438015Y-90790509D01*
X147540509Y-90688015D01*
X147554962Y-90662982D01*
X147612982Y-90562489D01*
X147612982Y-90562487D01*
X147612984Y-90562485D01*
X147650500Y-90422475D01*
X147650500Y-90277525D01*
X147612984Y-90137515D01*
X147612982Y-90137512D01*
X147612982Y-90137510D01*
X147540512Y-90011989D01*
X147540510Y-90011987D01*
X147540509Y-90011985D01*
X147438015Y-89909491D01*
X147438012Y-89909489D01*
X147438010Y-89909487D01*
X147312488Y-89837017D01*
X147312489Y-89837017D01*
X147282896Y-89829087D01*
X147172475Y-89799500D01*
X147027525Y-89799500D01*
X146980931Y-89811985D01*
X146887510Y-89837017D01*
X146761989Y-89909487D01*
X146659487Y-90011989D01*
X146587017Y-90137510D01*
X146563019Y-90227071D01*
X146549500Y-90277525D01*
X146206049Y-90277525D01*
X146138015Y-90209491D01*
X146138012Y-90209489D01*
X146138010Y-90209487D01*
X146012488Y-90137017D01*
X146012489Y-90137017D01*
X145958214Y-90122474D01*
X145872475Y-90099500D01*
X145727525Y-90099500D01*
X145665790Y-90116041D01*
X145587510Y-90137017D01*
X145461989Y-90209487D01*
X145359490Y-90311986D01*
X145344572Y-90337823D01*
X145344546Y-90337870D01*
X145287016Y-90437515D01*
X145284236Y-90447888D01*
X145284234Y-90447893D01*
X145272815Y-90490512D01*
X145249500Y-90577525D01*
X144808218Y-90577525D01*
X144862485Y-90562984D01*
X144862487Y-90562982D01*
X144862489Y-90562982D01*
X144988010Y-90490512D01*
X144988010Y-90490511D01*
X144988015Y-90490509D01*
X145090509Y-90388015D01*
X145162984Y-90262485D01*
X145200500Y-90122475D01*
X145200500Y-89977525D01*
X145162984Y-89837515D01*
X145162982Y-89837512D01*
X145162982Y-89837510D01*
X145090512Y-89711989D01*
X145090510Y-89711987D01*
X145090509Y-89711985D01*
X144988015Y-89609491D01*
X144988012Y-89609489D01*
X144988010Y-89609487D01*
X144932650Y-89577525D01*
X150149500Y-89577525D01*
X150149500Y-89722475D01*
X150179087Y-89832896D01*
X150187017Y-89862489D01*
X150259487Y-89988010D01*
X150259489Y-89988012D01*
X150259491Y-89988015D01*
X150361985Y-90090509D01*
X150361987Y-90090510D01*
X150361989Y-90090512D01*
X150487511Y-90162982D01*
X150487512Y-90162982D01*
X150487515Y-90162984D01*
X150627525Y-90200500D01*
X150627526Y-90200500D01*
X150772474Y-90200500D01*
X150772475Y-90200500D01*
X150912485Y-90162984D01*
X150912487Y-90162982D01*
X150912489Y-90162982D01*
X151038010Y-90090512D01*
X151038010Y-90090511D01*
X151038015Y-90090509D01*
X151140509Y-89988015D01*
X151140512Y-89988010D01*
X151212982Y-89862489D01*
X151212982Y-89862487D01*
X151212984Y-89862485D01*
X151250500Y-89722475D01*
X151250500Y-89577525D01*
X151212984Y-89437515D01*
X151212982Y-89437512D01*
X151212982Y-89437510D01*
X151140512Y-89311989D01*
X151140510Y-89311987D01*
X151140509Y-89311985D01*
X151038015Y-89209491D01*
X151038012Y-89209489D01*
X151038010Y-89209487D01*
X150994052Y-89184108D01*
X163049500Y-89184108D01*
X163049500Y-89315892D01*
X163065984Y-89377410D01*
X163083609Y-89443190D01*
X163149496Y-89557309D01*
X163149498Y-89557311D01*
X163149500Y-89557314D01*
X163242686Y-89650500D01*
X163242688Y-89650501D01*
X163242690Y-89650503D01*
X163356810Y-89716390D01*
X163356808Y-89716390D01*
X163356812Y-89716391D01*
X163356814Y-89716392D01*
X163484108Y-89750500D01*
X163484110Y-89750500D01*
X163615890Y-89750500D01*
X163615892Y-89750500D01*
X163743186Y-89716392D01*
X163743188Y-89716390D01*
X163743190Y-89716390D01*
X163857309Y-89650503D01*
X163857309Y-89650502D01*
X163857314Y-89650500D01*
X163950500Y-89557314D01*
X163982093Y-89502593D01*
X164016390Y-89443190D01*
X164016390Y-89443188D01*
X164016392Y-89443186D01*
X164050500Y-89315892D01*
X164050500Y-89184108D01*
X164016392Y-89056814D01*
X164016390Y-89056811D01*
X164016390Y-89056809D01*
X163950503Y-88942690D01*
X163950501Y-88942688D01*
X163950500Y-88942686D01*
X163857314Y-88849500D01*
X163857311Y-88849498D01*
X163857309Y-88849496D01*
X163743189Y-88783609D01*
X163743191Y-88783609D01*
X163693799Y-88770375D01*
X163615892Y-88749500D01*
X163484108Y-88749500D01*
X163406200Y-88770375D01*
X163356809Y-88783609D01*
X163242690Y-88849496D01*
X163149496Y-88942690D01*
X163083609Y-89056809D01*
X163083608Y-89056814D01*
X163049500Y-89184108D01*
X150994052Y-89184108D01*
X150912488Y-89137017D01*
X150912489Y-89137017D01*
X150882896Y-89129087D01*
X150772475Y-89099500D01*
X150627525Y-89099500D01*
X150565790Y-89116041D01*
X150487510Y-89137017D01*
X150361989Y-89209487D01*
X150259487Y-89311989D01*
X150187017Y-89437510D01*
X150187016Y-89437515D01*
X150149500Y-89577525D01*
X144932650Y-89577525D01*
X144862488Y-89537017D01*
X144862489Y-89537017D01*
X144832896Y-89529087D01*
X144722475Y-89499500D01*
X144577525Y-89499500D01*
X144515790Y-89516041D01*
X144437510Y-89537017D01*
X144311989Y-89609487D01*
X144209487Y-89711989D01*
X144137017Y-89837510D01*
X144130325Y-89862485D01*
X144099500Y-89977525D01*
X142023705Y-89977525D01*
X142012984Y-89937515D01*
X142012982Y-89937512D01*
X142012982Y-89937510D01*
X141940512Y-89811989D01*
X141940510Y-89811987D01*
X141940509Y-89811985D01*
X141838015Y-89709491D01*
X141838012Y-89709489D01*
X141838010Y-89709487D01*
X141712488Y-89637017D01*
X141712489Y-89637017D01*
X141669018Y-89625369D01*
X141572475Y-89599500D01*
X141427525Y-89599500D01*
X141390239Y-89609491D01*
X141287510Y-89637017D01*
X141161989Y-89709487D01*
X141059487Y-89811989D01*
X140987017Y-89937510D01*
X140950880Y-90072373D01*
X140949500Y-90077525D01*
X123400500Y-90077525D01*
X123400500Y-87877525D01*
X131149500Y-87877525D01*
X131149500Y-88022474D01*
X131187017Y-88162489D01*
X131259487Y-88288010D01*
X131259489Y-88288012D01*
X131259491Y-88288015D01*
X131361985Y-88390509D01*
X131361987Y-88390510D01*
X131361989Y-88390512D01*
X131487511Y-88462982D01*
X131487512Y-88462982D01*
X131487515Y-88462984D01*
X131627525Y-88500500D01*
X131627526Y-88500500D01*
X131772474Y-88500500D01*
X131772475Y-88500500D01*
X131912485Y-88462984D01*
X131912487Y-88462982D01*
X131912489Y-88462982D01*
X132038010Y-88390512D01*
X132038010Y-88390511D01*
X132038015Y-88390509D01*
X132140509Y-88288015D01*
X132140512Y-88288010D01*
X132212982Y-88162489D01*
X132212982Y-88162487D01*
X132212984Y-88162485D01*
X132249147Y-88027525D01*
X135799500Y-88027525D01*
X135799500Y-88172475D01*
X135829087Y-88282896D01*
X135837017Y-88312489D01*
X135909487Y-88438010D01*
X135909489Y-88438012D01*
X135909491Y-88438015D01*
X136011985Y-88540509D01*
X136011987Y-88540510D01*
X136011989Y-88540512D01*
X136137511Y-88612982D01*
X136137512Y-88612982D01*
X136137515Y-88612984D01*
X136277525Y-88650500D01*
X136277526Y-88650500D01*
X136422474Y-88650500D01*
X136422475Y-88650500D01*
X136562485Y-88612984D01*
X136562487Y-88612982D01*
X136562489Y-88612982D01*
X136688010Y-88540512D01*
X136688010Y-88540511D01*
X136688015Y-88540509D01*
X136790509Y-88438015D01*
X136790512Y-88438010D01*
X136862982Y-88312489D01*
X136862982Y-88312487D01*
X136862984Y-88312485D01*
X136900500Y-88172475D01*
X136900500Y-88027525D01*
X136862984Y-87887515D01*
X136862982Y-87887512D01*
X136862982Y-87887510D01*
X136824315Y-87820539D01*
X136799481Y-87777525D01*
X153149500Y-87777525D01*
X153149500Y-87922475D01*
X153164251Y-87977525D01*
X153187017Y-88062489D01*
X153259487Y-88188010D01*
X153259489Y-88188012D01*
X153259491Y-88188015D01*
X153361985Y-88290509D01*
X153361987Y-88290510D01*
X153361989Y-88290512D01*
X153487511Y-88362982D01*
X153487512Y-88362982D01*
X153487515Y-88362984D01*
X153627525Y-88400500D01*
X153627526Y-88400500D01*
X153772474Y-88400500D01*
X153772475Y-88400500D01*
X153912485Y-88362984D01*
X153912487Y-88362982D01*
X153912489Y-88362982D01*
X154038010Y-88290512D01*
X154038010Y-88290511D01*
X154038015Y-88290509D01*
X154140509Y-88188015D01*
X154149482Y-88172474D01*
X154212982Y-88062489D01*
X154212982Y-88062487D01*
X154212984Y-88062485D01*
X154250500Y-87922475D01*
X154250500Y-87777525D01*
X154212984Y-87637515D01*
X154212982Y-87637512D01*
X154212982Y-87637510D01*
X154140512Y-87511989D01*
X154140510Y-87511987D01*
X154140509Y-87511985D01*
X154038015Y-87409491D01*
X154038012Y-87409489D01*
X154038010Y-87409487D01*
X153982650Y-87377525D01*
X157349500Y-87377525D01*
X157349500Y-87522475D01*
X157379087Y-87632896D01*
X157387017Y-87662489D01*
X157459487Y-87788010D01*
X157459489Y-87788012D01*
X157459491Y-87788015D01*
X157561985Y-87890509D01*
X157561987Y-87890510D01*
X157561989Y-87890512D01*
X157687511Y-87962982D01*
X157687512Y-87962982D01*
X157687515Y-87962984D01*
X157827525Y-88000500D01*
X157827526Y-88000500D01*
X157972474Y-88000500D01*
X157972475Y-88000500D01*
X158058218Y-87977525D01*
X159499500Y-87977525D01*
X159499500Y-88122474D01*
X159537017Y-88262489D01*
X159609487Y-88388010D01*
X159609489Y-88388012D01*
X159609491Y-88388015D01*
X159711985Y-88490509D01*
X159711987Y-88490510D01*
X159711989Y-88490512D01*
X159837511Y-88562982D01*
X159837512Y-88562982D01*
X159837515Y-88562984D01*
X159977525Y-88600500D01*
X159977526Y-88600500D01*
X160122474Y-88600500D01*
X160122475Y-88600500D01*
X160262485Y-88562984D01*
X160262487Y-88562982D01*
X160262489Y-88562982D01*
X160388010Y-88490512D01*
X160388010Y-88490511D01*
X160388015Y-88490509D01*
X160490509Y-88388015D01*
X160534114Y-88312489D01*
X160562982Y-88262489D01*
X160562982Y-88262487D01*
X160562984Y-88262485D01*
X160600500Y-88122475D01*
X160600500Y-87984108D01*
X163049500Y-87984108D01*
X163049500Y-88115892D01*
X163061986Y-88162489D01*
X163083609Y-88243190D01*
X163149496Y-88357309D01*
X163149498Y-88357311D01*
X163149500Y-88357314D01*
X163242686Y-88450500D01*
X163242688Y-88450501D01*
X163242690Y-88450503D01*
X163356810Y-88516390D01*
X163356808Y-88516390D01*
X163356812Y-88516391D01*
X163356814Y-88516392D01*
X163484108Y-88550500D01*
X163484110Y-88550500D01*
X163615890Y-88550500D01*
X163615892Y-88550500D01*
X163743186Y-88516392D01*
X163743188Y-88516390D01*
X163743190Y-88516390D01*
X163857309Y-88450503D01*
X163857309Y-88450502D01*
X163857314Y-88450500D01*
X163950500Y-88357314D01*
X163990513Y-88288010D01*
X164016390Y-88243190D01*
X164016390Y-88243188D01*
X164016392Y-88243186D01*
X164050500Y-88115892D01*
X164050500Y-87984108D01*
X164016392Y-87856814D01*
X164016390Y-87856811D01*
X164016390Y-87856809D01*
X163950503Y-87742690D01*
X163950501Y-87742688D01*
X163950500Y-87742686D01*
X163857314Y-87649500D01*
X163857311Y-87649498D01*
X163857309Y-87649496D01*
X163743189Y-87583609D01*
X163743191Y-87583609D01*
X163693799Y-87570375D01*
X163615892Y-87549500D01*
X163484108Y-87549500D01*
X163406200Y-87570375D01*
X163356809Y-87583609D01*
X163242690Y-87649496D01*
X163149496Y-87742690D01*
X163083609Y-87856809D01*
X163074579Y-87890512D01*
X163049500Y-87984108D01*
X160600500Y-87984108D01*
X160600500Y-87977525D01*
X160562984Y-87837515D01*
X160562982Y-87837512D01*
X160562982Y-87837510D01*
X160490512Y-87711989D01*
X160490510Y-87711987D01*
X160490509Y-87711985D01*
X160388015Y-87609491D01*
X160388012Y-87609489D01*
X160388010Y-87609487D01*
X160262488Y-87537017D01*
X160262489Y-87537017D01*
X160208214Y-87522474D01*
X160122475Y-87499500D01*
X159977525Y-87499500D01*
X159940239Y-87509491D01*
X159837510Y-87537017D01*
X159711989Y-87609487D01*
X159609487Y-87711989D01*
X159537017Y-87837510D01*
X159499500Y-87977525D01*
X158058218Y-87977525D01*
X158112485Y-87962984D01*
X158112487Y-87962982D01*
X158112489Y-87962982D01*
X158238008Y-87890513D01*
X158238007Y-87890513D01*
X158238015Y-87890509D01*
X158340509Y-87788015D01*
X158340512Y-87788010D01*
X158412982Y-87662489D01*
X158412982Y-87662487D01*
X158412984Y-87662485D01*
X158450500Y-87522475D01*
X158450500Y-87377525D01*
X158412984Y-87237515D01*
X158412982Y-87237512D01*
X158412982Y-87237510D01*
X158340512Y-87111989D01*
X158340510Y-87111987D01*
X158340509Y-87111985D01*
X158238015Y-87009491D01*
X158238012Y-87009489D01*
X158238010Y-87009487D01*
X158112488Y-86937017D01*
X158112489Y-86937017D01*
X158082896Y-86929087D01*
X157972475Y-86899500D01*
X157827525Y-86899500D01*
X157765790Y-86916041D01*
X157687510Y-86937017D01*
X157561989Y-87009487D01*
X157459487Y-87111989D01*
X157387017Y-87237510D01*
X157387016Y-87237515D01*
X157349500Y-87377525D01*
X153982650Y-87377525D01*
X153912488Y-87337017D01*
X153912489Y-87337017D01*
X153882896Y-87329087D01*
X153772475Y-87299500D01*
X153627525Y-87299500D01*
X153565790Y-87316041D01*
X153487510Y-87337017D01*
X153361989Y-87409487D01*
X153259487Y-87511989D01*
X153187017Y-87637510D01*
X153160222Y-87737510D01*
X153149500Y-87777525D01*
X136799481Y-87777525D01*
X136790509Y-87761985D01*
X136688015Y-87659491D01*
X136688012Y-87659489D01*
X136688010Y-87659487D01*
X136562488Y-87587017D01*
X136562489Y-87587017D01*
X136532896Y-87579087D01*
X136422475Y-87549500D01*
X136277525Y-87549500D01*
X136215790Y-87566041D01*
X136137510Y-87587017D01*
X136011989Y-87659487D01*
X135909487Y-87761989D01*
X135837017Y-87887510D01*
X135811134Y-87984108D01*
X135799500Y-88027525D01*
X132249147Y-88027525D01*
X132250500Y-88022475D01*
X132250500Y-87877525D01*
X132212984Y-87737515D01*
X132212982Y-87737512D01*
X132212982Y-87737510D01*
X132140512Y-87611989D01*
X132140510Y-87611987D01*
X132140509Y-87611985D01*
X132038015Y-87509491D01*
X132038012Y-87509489D01*
X132038010Y-87509487D01*
X131912488Y-87437017D01*
X131912489Y-87437017D01*
X131809761Y-87409491D01*
X131772475Y-87399500D01*
X131627525Y-87399500D01*
X131590239Y-87409491D01*
X131487510Y-87437017D01*
X131361989Y-87509487D01*
X131259487Y-87611989D01*
X131187017Y-87737510D01*
X131149500Y-87877525D01*
X123400500Y-87877525D01*
X123400500Y-85134108D01*
X162989500Y-85134108D01*
X162989500Y-85265892D01*
X163019579Y-85378151D01*
X163023609Y-85393190D01*
X163089496Y-85507309D01*
X163089498Y-85507311D01*
X163089500Y-85507314D01*
X163182686Y-85600500D01*
X163182688Y-85600501D01*
X163182690Y-85600503D01*
X163296810Y-85666390D01*
X163296808Y-85666390D01*
X163296812Y-85666391D01*
X163296814Y-85666392D01*
X163424108Y-85700500D01*
X163424110Y-85700500D01*
X163555890Y-85700500D01*
X163555892Y-85700500D01*
X163683186Y-85666392D01*
X163683188Y-85666390D01*
X163683190Y-85666390D01*
X163797309Y-85600503D01*
X163797309Y-85600502D01*
X163797314Y-85600500D01*
X163890500Y-85507314D01*
X163956392Y-85393186D01*
X163990500Y-85265892D01*
X163990500Y-85134108D01*
X163956392Y-85006814D01*
X163956390Y-85006811D01*
X163956390Y-85006809D01*
X163890503Y-84892690D01*
X163890501Y-84892688D01*
X163890500Y-84892686D01*
X163797314Y-84799500D01*
X163797311Y-84799498D01*
X163797309Y-84799496D01*
X163683189Y-84733609D01*
X163683191Y-84733609D01*
X163617068Y-84715892D01*
X163555892Y-84699500D01*
X163424108Y-84699500D01*
X163362932Y-84715892D01*
X163296809Y-84733609D01*
X163182690Y-84799496D01*
X163089496Y-84892690D01*
X163023609Y-85006809D01*
X163023608Y-85006814D01*
X162989500Y-85134108D01*
X123400500Y-85134108D01*
X123400500Y-84584108D01*
X166999500Y-84584108D01*
X166999500Y-84715892D01*
X167029579Y-84828151D01*
X167033609Y-84843190D01*
X167099496Y-84957309D01*
X167099498Y-84957311D01*
X167099500Y-84957314D01*
X167192686Y-85050500D01*
X167192688Y-85050501D01*
X167192690Y-85050503D01*
X167306810Y-85116390D01*
X167306808Y-85116390D01*
X167306812Y-85116391D01*
X167306814Y-85116392D01*
X167434108Y-85150500D01*
X167434110Y-85150500D01*
X167565890Y-85150500D01*
X167565892Y-85150500D01*
X167693186Y-85116392D01*
X167693188Y-85116390D01*
X167693190Y-85116390D01*
X167807309Y-85050503D01*
X167807309Y-85050502D01*
X167807314Y-85050500D01*
X167900500Y-84957314D01*
X167966392Y-84843186D01*
X168000500Y-84715892D01*
X168000500Y-84584108D01*
X167966392Y-84456814D01*
X167966390Y-84456811D01*
X167966390Y-84456809D01*
X167900503Y-84342690D01*
X167900501Y-84342688D01*
X167900500Y-84342686D01*
X167807314Y-84249500D01*
X167807311Y-84249498D01*
X167807309Y-84249496D01*
X167693189Y-84183609D01*
X167693191Y-84183609D01*
X167643799Y-84170375D01*
X167565892Y-84149500D01*
X167434108Y-84149500D01*
X167356200Y-84170375D01*
X167306809Y-84183609D01*
X167192690Y-84249496D01*
X167099496Y-84342690D01*
X167033609Y-84456809D01*
X167021902Y-84500500D01*
X166999500Y-84584108D01*
X123400500Y-84584108D01*
X123400500Y-83934108D01*
X162989500Y-83934108D01*
X162989500Y-84065892D01*
X163013008Y-84153625D01*
X163023609Y-84193190D01*
X163089496Y-84307309D01*
X163089498Y-84307311D01*
X163089500Y-84307314D01*
X163182686Y-84400500D01*
X163182688Y-84400501D01*
X163182690Y-84400503D01*
X163296810Y-84466390D01*
X163296808Y-84466390D01*
X163296812Y-84466391D01*
X163296814Y-84466392D01*
X163424108Y-84500500D01*
X163424110Y-84500500D01*
X163555890Y-84500500D01*
X163555892Y-84500500D01*
X163683186Y-84466392D01*
X163683188Y-84466390D01*
X163683190Y-84466390D01*
X163797309Y-84400503D01*
X163797309Y-84400502D01*
X163797314Y-84400500D01*
X163890500Y-84307314D01*
X163897321Y-84295500D01*
X163956390Y-84193190D01*
X163956390Y-84193188D01*
X163956392Y-84193186D01*
X163990500Y-84065892D01*
X163990500Y-83934108D01*
X163956392Y-83806814D01*
X163956390Y-83806811D01*
X163956390Y-83806809D01*
X163890503Y-83692690D01*
X163890501Y-83692688D01*
X163890500Y-83692686D01*
X163797314Y-83599500D01*
X163797311Y-83599498D01*
X163797309Y-83599496D01*
X163683189Y-83533609D01*
X163683191Y-83533609D01*
X163633799Y-83520375D01*
X163555892Y-83499500D01*
X163424108Y-83499500D01*
X163346200Y-83520375D01*
X163296809Y-83533609D01*
X163182690Y-83599496D01*
X163089496Y-83692690D01*
X163023609Y-83806809D01*
X163013277Y-83845369D01*
X162989500Y-83934108D01*
X123400500Y-83934108D01*
X123400500Y-83277525D01*
X137449500Y-83277525D01*
X137449500Y-83422474D01*
X137487017Y-83562489D01*
X137559487Y-83688010D01*
X137559489Y-83688012D01*
X137559491Y-83688015D01*
X137661985Y-83790509D01*
X137661987Y-83790510D01*
X137661989Y-83790512D01*
X137787511Y-83862982D01*
X137787512Y-83862982D01*
X137787515Y-83862984D01*
X137927525Y-83900500D01*
X137927526Y-83900500D01*
X138072474Y-83900500D01*
X138072475Y-83900500D01*
X138212485Y-83862984D01*
X138212487Y-83862982D01*
X138212489Y-83862982D01*
X138249034Y-83841883D01*
X138338010Y-83790512D01*
X138338010Y-83790511D01*
X138338015Y-83790509D01*
X138440509Y-83688015D01*
X138440512Y-83688010D01*
X138512982Y-83562489D01*
X138512982Y-83562487D01*
X138512984Y-83562485D01*
X138550500Y-83422475D01*
X138550500Y-83277525D01*
X138512984Y-83137515D01*
X138512982Y-83137512D01*
X138512982Y-83137510D01*
X138440512Y-83011989D01*
X138440510Y-83011987D01*
X138440509Y-83011985D01*
X138338015Y-82909491D01*
X138338012Y-82909489D01*
X138338010Y-82909487D01*
X138212488Y-82837017D01*
X138212489Y-82837017D01*
X138098468Y-82806465D01*
X138072475Y-82799500D01*
X137927525Y-82799500D01*
X137901532Y-82806465D01*
X137787510Y-82837017D01*
X137661989Y-82909487D01*
X137559487Y-83011989D01*
X137487017Y-83137510D01*
X137449500Y-83277525D01*
X123400500Y-83277525D01*
X123400500Y-82077525D01*
X140949500Y-82077525D01*
X140949500Y-82222474D01*
X140987017Y-82362489D01*
X141059487Y-82488010D01*
X141059489Y-82488012D01*
X141059491Y-82488015D01*
X141161985Y-82590509D01*
X141161987Y-82590510D01*
X141161989Y-82590512D01*
X141287511Y-82662982D01*
X141287512Y-82662982D01*
X141287515Y-82662984D01*
X141427525Y-82700500D01*
X141427526Y-82700500D01*
X141572474Y-82700500D01*
X141572475Y-82700500D01*
X141712485Y-82662984D01*
X141712487Y-82662982D01*
X141712489Y-82662982D01*
X141838010Y-82590512D01*
X141838010Y-82590511D01*
X141838015Y-82590509D01*
X141940509Y-82488015D01*
X141979924Y-82419747D01*
X142012982Y-82362489D01*
X142012982Y-82362487D01*
X142012984Y-82362485D01*
X142050500Y-82222475D01*
X142050500Y-82158542D01*
X164569500Y-82158542D01*
X164569500Y-82301457D01*
X164597381Y-82441619D01*
X164597381Y-82441621D01*
X164652068Y-82573648D01*
X164652074Y-82573659D01*
X164699522Y-82644668D01*
X164731468Y-82692479D01*
X164832521Y-82793532D01*
X164897601Y-82837017D01*
X164951340Y-82872925D01*
X164951351Y-82872931D01*
X165000121Y-82893132D01*
X165083380Y-82927619D01*
X165223545Y-82955500D01*
X165223546Y-82955500D01*
X165904130Y-82955500D01*
X165962321Y-82974407D01*
X165998285Y-83023907D01*
X165998285Y-83085093D01*
X165962321Y-83134593D01*
X165959132Y-83136815D01*
X165914892Y-83166375D01*
X165914888Y-83166378D01*
X165826378Y-83254888D01*
X165826375Y-83254892D01*
X165756830Y-83358971D01*
X165756824Y-83358982D01*
X165708922Y-83474629D01*
X165708922Y-83474631D01*
X165684500Y-83597406D01*
X165684500Y-83722593D01*
X165708922Y-83845368D01*
X165708922Y-83845370D01*
X165756824Y-83961017D01*
X165756830Y-83961028D01*
X165798669Y-84023644D01*
X165826375Y-84065108D01*
X165914892Y-84153625D01*
X165974099Y-84193186D01*
X166018971Y-84223169D01*
X166018982Y-84223175D01*
X166061702Y-84240869D01*
X166134631Y-84271078D01*
X166257409Y-84295500D01*
X166257410Y-84295500D01*
X166382590Y-84295500D01*
X166382591Y-84295500D01*
X166505369Y-84271078D01*
X166621022Y-84223173D01*
X166725108Y-84153625D01*
X166813625Y-84065108D01*
X166883173Y-83961022D01*
X166931078Y-83845369D01*
X166955500Y-83722591D01*
X166955500Y-83597409D01*
X166952854Y-83584108D01*
X168299500Y-83584108D01*
X168299500Y-83715892D01*
X168319494Y-83790512D01*
X168333609Y-83843190D01*
X168399496Y-83957309D01*
X168399498Y-83957311D01*
X168399500Y-83957314D01*
X168492686Y-84050500D01*
X168492688Y-84050501D01*
X168492690Y-84050503D01*
X168606810Y-84116390D01*
X168606808Y-84116390D01*
X168606812Y-84116391D01*
X168606814Y-84116392D01*
X168734108Y-84150500D01*
X168734110Y-84150500D01*
X168865890Y-84150500D01*
X168865892Y-84150500D01*
X168993186Y-84116392D01*
X168993188Y-84116390D01*
X168993190Y-84116390D01*
X169107309Y-84050503D01*
X169107309Y-84050502D01*
X169107314Y-84050500D01*
X169200500Y-83957314D01*
X169200503Y-83957309D01*
X169266390Y-83843190D01*
X169266390Y-83843188D01*
X169266392Y-83843186D01*
X169300500Y-83715892D01*
X169300500Y-83584108D01*
X169266392Y-83456814D01*
X169266390Y-83456811D01*
X169266390Y-83456809D01*
X169200503Y-83342690D01*
X169200501Y-83342688D01*
X169200500Y-83342686D01*
X169107314Y-83249500D01*
X169107311Y-83249498D01*
X169107309Y-83249496D01*
X168993189Y-83183609D01*
X168993191Y-83183609D01*
X168928871Y-83166375D01*
X168865892Y-83149500D01*
X168734108Y-83149500D01*
X168671129Y-83166375D01*
X168606809Y-83183609D01*
X168492690Y-83249496D01*
X168399496Y-83342690D01*
X168333609Y-83456809D01*
X168328834Y-83474631D01*
X168299500Y-83584108D01*
X166952854Y-83584108D01*
X166931078Y-83474631D01*
X166883173Y-83358978D01*
X166883172Y-83358976D01*
X166883169Y-83358971D01*
X166855087Y-83316945D01*
X166813625Y-83254892D01*
X166725108Y-83166375D01*
X166677543Y-83134593D01*
X166621028Y-83096830D01*
X166621018Y-83096825D01*
X166605380Y-83090347D01*
X166558855Y-83050609D01*
X166544573Y-82991114D01*
X166567990Y-82934587D01*
X166605380Y-82907421D01*
X166688653Y-82872929D01*
X166807479Y-82793532D01*
X166908532Y-82692479D01*
X166987929Y-82573653D01*
X167042619Y-82441620D01*
X167070500Y-82301455D01*
X167070500Y-82165930D01*
X168899500Y-82165930D01*
X168899500Y-82294069D01*
X168924499Y-82419742D01*
X168924500Y-82419747D01*
X168973534Y-82538125D01*
X168973538Y-82538133D01*
X169008535Y-82590509D01*
X169044724Y-82644669D01*
X169135331Y-82735276D01*
X169198848Y-82777717D01*
X169241866Y-82806461D01*
X169241870Y-82806463D01*
X169241873Y-82806465D01*
X169360256Y-82855501D01*
X169485931Y-82880500D01*
X169485932Y-82880500D01*
X170514068Y-82880500D01*
X170514069Y-82880500D01*
X170639744Y-82855501D01*
X170758127Y-82806465D01*
X170864669Y-82735276D01*
X170955276Y-82644669D01*
X171026465Y-82538127D01*
X171075501Y-82419744D01*
X171100500Y-82294069D01*
X171100500Y-82165931D01*
X171075501Y-82040256D01*
X171026465Y-81921873D01*
X171026463Y-81921870D01*
X171026461Y-81921866D01*
X170997717Y-81878848D01*
X170955276Y-81815331D01*
X170864669Y-81724724D01*
X170822226Y-81696365D01*
X170758133Y-81653538D01*
X170758125Y-81653534D01*
X170639747Y-81604500D01*
X170639745Y-81604499D01*
X170639744Y-81604499D01*
X170514069Y-81579500D01*
X169485931Y-81579500D01*
X169485930Y-81579500D01*
X169447885Y-81587068D01*
X169360256Y-81604499D01*
X169360255Y-81604499D01*
X169360252Y-81604500D01*
X169241874Y-81653534D01*
X169241866Y-81653538D01*
X169135331Y-81724724D01*
X169135327Y-81724727D01*
X169044727Y-81815327D01*
X169044724Y-81815331D01*
X168973538Y-81921866D01*
X168973534Y-81921874D01*
X168924500Y-82040252D01*
X168924499Y-82040257D01*
X168899500Y-82165930D01*
X167070500Y-82165930D01*
X167070500Y-82158545D01*
X167042619Y-82018380D01*
X167009124Y-81937515D01*
X166987931Y-81886351D01*
X166987925Y-81886340D01*
X166955866Y-81838362D01*
X166908532Y-81767521D01*
X166807479Y-81666468D01*
X166760143Y-81634839D01*
X166688659Y-81587074D01*
X166688648Y-81587068D01*
X166556620Y-81532381D01*
X166416457Y-81504500D01*
X166416455Y-81504500D01*
X165223545Y-81504500D01*
X165223542Y-81504500D01*
X165083380Y-81532381D01*
X165083378Y-81532381D01*
X164951351Y-81587068D01*
X164951340Y-81587074D01*
X164832521Y-81666468D01*
X164832517Y-81666471D01*
X164731471Y-81767517D01*
X164731468Y-81767521D01*
X164652074Y-81886340D01*
X164652068Y-81886351D01*
X164597381Y-82018378D01*
X164597381Y-82018380D01*
X164569500Y-82158542D01*
X142050500Y-82158542D01*
X142050500Y-82077525D01*
X142012984Y-81937515D01*
X142012982Y-81937512D01*
X142012982Y-81937510D01*
X141940512Y-81811989D01*
X141940510Y-81811987D01*
X141940509Y-81811985D01*
X141838015Y-81709491D01*
X141838012Y-81709489D01*
X141838010Y-81709487D01*
X141712488Y-81637017D01*
X141712489Y-81637017D01*
X141682896Y-81629087D01*
X141572475Y-81599500D01*
X141427525Y-81599500D01*
X141365790Y-81616041D01*
X141287510Y-81637017D01*
X141161989Y-81709487D01*
X141059487Y-81811989D01*
X140987017Y-81937510D01*
X140949500Y-82077525D01*
X123400500Y-82077525D01*
X123400500Y-79784108D01*
X148299500Y-79784108D01*
X148299500Y-79915892D01*
X148329579Y-80028151D01*
X148333609Y-80043190D01*
X148399496Y-80157309D01*
X148399498Y-80157311D01*
X148399500Y-80157314D01*
X148492686Y-80250500D01*
X148492688Y-80250501D01*
X148492690Y-80250503D01*
X148606810Y-80316390D01*
X148606808Y-80316390D01*
X148606812Y-80316391D01*
X148606814Y-80316392D01*
X148734108Y-80350500D01*
X148734110Y-80350500D01*
X148865890Y-80350500D01*
X148865892Y-80350500D01*
X148993186Y-80316392D01*
X148993188Y-80316390D01*
X148993190Y-80316390D01*
X149107309Y-80250503D01*
X149107309Y-80250502D01*
X149107314Y-80250500D01*
X149200500Y-80157314D01*
X149266392Y-80043186D01*
X149300500Y-79915892D01*
X149300500Y-79784108D01*
X149266392Y-79656814D01*
X149266390Y-79656811D01*
X149266390Y-79656809D01*
X149200503Y-79542690D01*
X149200501Y-79542688D01*
X149200500Y-79542686D01*
X149107314Y-79449500D01*
X149107311Y-79449498D01*
X149107309Y-79449496D01*
X148993189Y-79383609D01*
X148993191Y-79383609D01*
X148943799Y-79370375D01*
X148865892Y-79349500D01*
X148734108Y-79349500D01*
X148656200Y-79370375D01*
X148606809Y-79383609D01*
X148492690Y-79449496D01*
X148399496Y-79542690D01*
X148333609Y-79656809D01*
X148333608Y-79656814D01*
X148299500Y-79784108D01*
X123400500Y-79784108D01*
X123400500Y-77877525D01*
X135949500Y-77877525D01*
X135949500Y-78022474D01*
X135987017Y-78162489D01*
X136059487Y-78288010D01*
X136059489Y-78288012D01*
X136059491Y-78288015D01*
X136161985Y-78390509D01*
X136161987Y-78390510D01*
X136161989Y-78390512D01*
X136287511Y-78462982D01*
X136287512Y-78462982D01*
X136287515Y-78462984D01*
X136427525Y-78500500D01*
X136427526Y-78500500D01*
X136572474Y-78500500D01*
X136572475Y-78500500D01*
X136712485Y-78462984D01*
X136712487Y-78462982D01*
X136712489Y-78462982D01*
X136838010Y-78390512D01*
X136838010Y-78390511D01*
X136838015Y-78390509D01*
X136940509Y-78288015D01*
X136940512Y-78288010D01*
X136975433Y-78227525D01*
X142249500Y-78227525D01*
X142249500Y-78372474D01*
X142287017Y-78512489D01*
X142359487Y-78638010D01*
X142359489Y-78638012D01*
X142359491Y-78638015D01*
X142461985Y-78740509D01*
X142461987Y-78740510D01*
X142461989Y-78740512D01*
X142587511Y-78812982D01*
X142587512Y-78812982D01*
X142587515Y-78812984D01*
X142727525Y-78850500D01*
X142727526Y-78850500D01*
X142872474Y-78850500D01*
X142872475Y-78850500D01*
X143012485Y-78812984D01*
X143012487Y-78812982D01*
X143012489Y-78812982D01*
X143138010Y-78740512D01*
X143138010Y-78740511D01*
X143138015Y-78740509D01*
X143240509Y-78638015D01*
X143284114Y-78562489D01*
X143312982Y-78512489D01*
X143312982Y-78512487D01*
X143312984Y-78512485D01*
X143350500Y-78372475D01*
X143350500Y-78277525D01*
X152449500Y-78277525D01*
X152449500Y-78422475D01*
X152479087Y-78532896D01*
X152487017Y-78562489D01*
X152559487Y-78688010D01*
X152559489Y-78688012D01*
X152559491Y-78688015D01*
X152661985Y-78790509D01*
X152661987Y-78790510D01*
X152661989Y-78790512D01*
X152787511Y-78862982D01*
X152787512Y-78862982D01*
X152787515Y-78862984D01*
X152927525Y-78900500D01*
X152927526Y-78900500D01*
X153072474Y-78900500D01*
X153072475Y-78900500D01*
X153212485Y-78862984D01*
X153212487Y-78862982D01*
X153212489Y-78862982D01*
X153338010Y-78790512D01*
X153338010Y-78790511D01*
X153338015Y-78790509D01*
X153440509Y-78688015D01*
X153469377Y-78638015D01*
X153512982Y-78562489D01*
X153512982Y-78562487D01*
X153512984Y-78562485D01*
X153550500Y-78422475D01*
X153550500Y-78277525D01*
X153512984Y-78137515D01*
X153512982Y-78137512D01*
X153512982Y-78137510D01*
X153440512Y-78011989D01*
X153440510Y-78011987D01*
X153440509Y-78011985D01*
X153338015Y-77909491D01*
X153338012Y-77909489D01*
X153338010Y-77909487D01*
X153282650Y-77877525D01*
X162849500Y-77877525D01*
X162849500Y-78022474D01*
X162887017Y-78162489D01*
X162959487Y-78288010D01*
X162959489Y-78288012D01*
X162959491Y-78288015D01*
X163061985Y-78390509D01*
X163061987Y-78390510D01*
X163061989Y-78390512D01*
X163187511Y-78462982D01*
X163187512Y-78462982D01*
X163187515Y-78462984D01*
X163327525Y-78500500D01*
X163327526Y-78500500D01*
X163472474Y-78500500D01*
X163472475Y-78500500D01*
X163612485Y-78462984D01*
X163612487Y-78462982D01*
X163612489Y-78462982D01*
X163738010Y-78390512D01*
X163738010Y-78390511D01*
X163738015Y-78390509D01*
X163840509Y-78288015D01*
X163840512Y-78288010D01*
X163912982Y-78162489D01*
X163912982Y-78162487D01*
X163912984Y-78162485D01*
X163950500Y-78022475D01*
X163950500Y-77877525D01*
X163912984Y-77737515D01*
X163912982Y-77737512D01*
X163912982Y-77737510D01*
X163840512Y-77611989D01*
X163840510Y-77611987D01*
X163840509Y-77611985D01*
X163738015Y-77509491D01*
X163738012Y-77509489D01*
X163738010Y-77509487D01*
X163612488Y-77437017D01*
X163612489Y-77437017D01*
X163582896Y-77429087D01*
X163472475Y-77399500D01*
X163327525Y-77399500D01*
X163265790Y-77416041D01*
X163187510Y-77437017D01*
X163061989Y-77509487D01*
X162959487Y-77611989D01*
X162887017Y-77737510D01*
X162849500Y-77877525D01*
X153282650Y-77877525D01*
X153212488Y-77837017D01*
X153212489Y-77837017D01*
X153182896Y-77829087D01*
X153072475Y-77799500D01*
X152927525Y-77799500D01*
X152865790Y-77816041D01*
X152787510Y-77837017D01*
X152661989Y-77909487D01*
X152559487Y-78011989D01*
X152487017Y-78137510D01*
X152449500Y-78277525D01*
X143350500Y-78277525D01*
X143350500Y-78227525D01*
X143312984Y-78087515D01*
X143312982Y-78087512D01*
X143312982Y-78087510D01*
X143240512Y-77961989D01*
X143240510Y-77961987D01*
X143240509Y-77961985D01*
X143138015Y-77859491D01*
X143138012Y-77859489D01*
X143138010Y-77859487D01*
X143012488Y-77787017D01*
X143012489Y-77787017D01*
X142982896Y-77779087D01*
X142872475Y-77749500D01*
X142727525Y-77749500D01*
X142665790Y-77766041D01*
X142587510Y-77787017D01*
X142461989Y-77859487D01*
X142359487Y-77961989D01*
X142287017Y-78087510D01*
X142249500Y-78227525D01*
X136975433Y-78227525D01*
X137007759Y-78171536D01*
X137007759Y-78171535D01*
X137007971Y-78171166D01*
X137012984Y-78162485D01*
X137050500Y-78022475D01*
X137050500Y-77877525D01*
X137012984Y-77737515D01*
X137012982Y-77737512D01*
X137012982Y-77737510D01*
X136940512Y-77611989D01*
X136940510Y-77611987D01*
X136940509Y-77611985D01*
X136838015Y-77509491D01*
X136838012Y-77509489D01*
X136838010Y-77509487D01*
X136712488Y-77437017D01*
X136712489Y-77437017D01*
X136682896Y-77429087D01*
X136572475Y-77399500D01*
X136427525Y-77399500D01*
X136365790Y-77416041D01*
X136287510Y-77437017D01*
X136161989Y-77509487D01*
X136059487Y-77611989D01*
X135987017Y-77737510D01*
X135949500Y-77877525D01*
X123400500Y-77877525D01*
X123400500Y-73624777D01*
X124589500Y-73624777D01*
X124589500Y-73875222D01*
X124622188Y-74123512D01*
X124622188Y-74123517D01*
X124687007Y-74365420D01*
X124687011Y-74365433D01*
X124782844Y-74596797D01*
X124782846Y-74596801D01*
X124782848Y-74596805D01*
X124908069Y-74813694D01*
X124908071Y-74813697D01*
X125060522Y-75012376D01*
X125060524Y-75012378D01*
X125060528Y-75012383D01*
X125237617Y-75189472D01*
X125237621Y-75189475D01*
X125237623Y-75189477D01*
X125436302Y-75341928D01*
X125436306Y-75341931D01*
X125653195Y-75467152D01*
X125884572Y-75562991D01*
X126126480Y-75627811D01*
X126374779Y-75660500D01*
X126374780Y-75660500D01*
X126625220Y-75660500D01*
X126625221Y-75660500D01*
X126873520Y-75627811D01*
X127115428Y-75562991D01*
X127346805Y-75467152D01*
X127563694Y-75341931D01*
X127762383Y-75189472D01*
X127939472Y-75012383D01*
X128091931Y-74813694D01*
X128217152Y-74596805D01*
X128312991Y-74365428D01*
X128377811Y-74123520D01*
X128410500Y-73875221D01*
X128410500Y-73624779D01*
X128391114Y-73477525D01*
X146549500Y-73477525D01*
X146549500Y-73622475D01*
X146550118Y-73624780D01*
X146587017Y-73762489D01*
X146659487Y-73888010D01*
X146659489Y-73888012D01*
X146659491Y-73888015D01*
X146761985Y-73990509D01*
X146761987Y-73990510D01*
X146761989Y-73990512D01*
X146887511Y-74062982D01*
X146887512Y-74062982D01*
X146887515Y-74062984D01*
X147027525Y-74100500D01*
X147027526Y-74100500D01*
X147172474Y-74100500D01*
X147172475Y-74100500D01*
X147312485Y-74062984D01*
X147312487Y-74062982D01*
X147312489Y-74062982D01*
X147438010Y-73990512D01*
X147438010Y-73990511D01*
X147438015Y-73990509D01*
X147540509Y-73888015D01*
X147612984Y-73762485D01*
X147649883Y-73624777D01*
X167589500Y-73624777D01*
X167589500Y-73875222D01*
X167622188Y-74123512D01*
X167622188Y-74123517D01*
X167687007Y-74365420D01*
X167687011Y-74365433D01*
X167782844Y-74596797D01*
X167782846Y-74596801D01*
X167782848Y-74596805D01*
X167908069Y-74813694D01*
X167908071Y-74813697D01*
X168060522Y-75012376D01*
X168060524Y-75012378D01*
X168060528Y-75012383D01*
X168237617Y-75189472D01*
X168237621Y-75189475D01*
X168237623Y-75189477D01*
X168436302Y-75341928D01*
X168436306Y-75341931D01*
X168653195Y-75467152D01*
X168884572Y-75562991D01*
X169126480Y-75627811D01*
X169374779Y-75660500D01*
X169374780Y-75660500D01*
X169625220Y-75660500D01*
X169625221Y-75660500D01*
X169873520Y-75627811D01*
X170115428Y-75562991D01*
X170346805Y-75467152D01*
X170563694Y-75341931D01*
X170762383Y-75189472D01*
X170939472Y-75012383D01*
X171091931Y-74813694D01*
X171217152Y-74596805D01*
X171312991Y-74365428D01*
X171377811Y-74123520D01*
X171410500Y-73875221D01*
X171410500Y-73624779D01*
X171377811Y-73376480D01*
X171312991Y-73134572D01*
X171217152Y-72903195D01*
X171091931Y-72686306D01*
X171076517Y-72666218D01*
X170939477Y-72487623D01*
X170939475Y-72487621D01*
X170939472Y-72487617D01*
X170762383Y-72310528D01*
X170762378Y-72310524D01*
X170762376Y-72310522D01*
X170563697Y-72158071D01*
X170510319Y-72127253D01*
X170346805Y-72032848D01*
X170346801Y-72032846D01*
X170346797Y-72032844D01*
X170115433Y-71937011D01*
X170115432Y-71937010D01*
X170115428Y-71937009D01*
X169873520Y-71872189D01*
X169873515Y-71872188D01*
X169873514Y-71872188D01*
X169625222Y-71839500D01*
X169625221Y-71839500D01*
X169374779Y-71839500D01*
X169374777Y-71839500D01*
X169126487Y-71872188D01*
X169126482Y-71872188D01*
X168884579Y-71937007D01*
X168884566Y-71937011D01*
X168653202Y-72032844D01*
X168436302Y-72158071D01*
X168237623Y-72310522D01*
X168060522Y-72487623D01*
X167908071Y-72686302D01*
X167782844Y-72903202D01*
X167687011Y-73134566D01*
X167687007Y-73134579D01*
X167622188Y-73376482D01*
X167622188Y-73376487D01*
X167589500Y-73624777D01*
X147649883Y-73624777D01*
X147650500Y-73622475D01*
X147650500Y-73477525D01*
X147612984Y-73337515D01*
X147612982Y-73337512D01*
X147612982Y-73337510D01*
X147540512Y-73211989D01*
X147540510Y-73211987D01*
X147540509Y-73211985D01*
X147438015Y-73109491D01*
X147438012Y-73109489D01*
X147438010Y-73109487D01*
X147312488Y-73037017D01*
X147312489Y-73037017D01*
X147282896Y-73029087D01*
X147172475Y-72999500D01*
X147027525Y-72999500D01*
X146965790Y-73016041D01*
X146887510Y-73037017D01*
X146761989Y-73109487D01*
X146659487Y-73211989D01*
X146587017Y-73337510D01*
X146576573Y-73376487D01*
X146549500Y-73477525D01*
X128391114Y-73477525D01*
X128377811Y-73376480D01*
X128312991Y-73134572D01*
X128217152Y-72903195D01*
X128091931Y-72686306D01*
X128076517Y-72666218D01*
X127939477Y-72487623D01*
X127939475Y-72487621D01*
X127939472Y-72487617D01*
X127779380Y-72327525D01*
X133849500Y-72327525D01*
X133849500Y-72472475D01*
X133879087Y-72582896D01*
X133887017Y-72612489D01*
X133959487Y-72738010D01*
X133959489Y-72738012D01*
X133959491Y-72738015D01*
X134061985Y-72840509D01*
X134061987Y-72840510D01*
X134061989Y-72840512D01*
X134187511Y-72912982D01*
X134187512Y-72912982D01*
X134187515Y-72912984D01*
X134327525Y-72950500D01*
X134327526Y-72950500D01*
X134472474Y-72950500D01*
X134472475Y-72950500D01*
X134612485Y-72912984D01*
X134612487Y-72912982D01*
X134612489Y-72912982D01*
X134738010Y-72840512D01*
X134738010Y-72840511D01*
X134738015Y-72840509D01*
X134840509Y-72738015D01*
X134912984Y-72612485D01*
X134950500Y-72472475D01*
X134950500Y-72327525D01*
X135349500Y-72327525D01*
X135349500Y-72472475D01*
X135379087Y-72582896D01*
X135387017Y-72612489D01*
X135459487Y-72738010D01*
X135459489Y-72738012D01*
X135459491Y-72738015D01*
X135561985Y-72840509D01*
X135561987Y-72840510D01*
X135561989Y-72840512D01*
X135687511Y-72912982D01*
X135687512Y-72912982D01*
X135687515Y-72912984D01*
X135827525Y-72950500D01*
X135827526Y-72950500D01*
X135972474Y-72950500D01*
X135972475Y-72950500D01*
X136112485Y-72912984D01*
X136112487Y-72912982D01*
X136112489Y-72912982D01*
X136238010Y-72840512D01*
X136238010Y-72840511D01*
X136238015Y-72840509D01*
X136340509Y-72738015D01*
X136412984Y-72612485D01*
X136450500Y-72472475D01*
X136450500Y-72327525D01*
X136412984Y-72187515D01*
X136412982Y-72187512D01*
X136412982Y-72187510D01*
X136340512Y-72061989D01*
X136340510Y-72061987D01*
X136340509Y-72061985D01*
X136238015Y-71959491D01*
X136238008Y-71959487D01*
X136233306Y-71956772D01*
X136233304Y-71956770D01*
X136112488Y-71887017D01*
X136112489Y-71887017D01*
X136082896Y-71879087D01*
X136077066Y-71877525D01*
X146449500Y-71877525D01*
X146449500Y-72022475D01*
X146460087Y-72061985D01*
X146487017Y-72162489D01*
X146559487Y-72288010D01*
X146559489Y-72288012D01*
X146559491Y-72288015D01*
X146661985Y-72390509D01*
X146661987Y-72390510D01*
X146661989Y-72390512D01*
X146787511Y-72462982D01*
X146787512Y-72462982D01*
X146787515Y-72462984D01*
X146927525Y-72500500D01*
X146927526Y-72500500D01*
X147072474Y-72500500D01*
X147072475Y-72500500D01*
X147212485Y-72462984D01*
X147212487Y-72462982D01*
X147212489Y-72462982D01*
X147338010Y-72390512D01*
X147338010Y-72390511D01*
X147338015Y-72390509D01*
X147440509Y-72288015D01*
X147512984Y-72162485D01*
X147550500Y-72022475D01*
X147550500Y-71877525D01*
X147512984Y-71737515D01*
X147512982Y-71737512D01*
X147512982Y-71737510D01*
X147440512Y-71611989D01*
X147440510Y-71611987D01*
X147440509Y-71611985D01*
X147338015Y-71509491D01*
X147338012Y-71509489D01*
X147338010Y-71509487D01*
X147212488Y-71437017D01*
X147212489Y-71437017D01*
X147118662Y-71411876D01*
X147072475Y-71399500D01*
X146927525Y-71399500D01*
X146881338Y-71411876D01*
X146787510Y-71437017D01*
X146661989Y-71509487D01*
X146559487Y-71611989D01*
X146487017Y-71737510D01*
X146487016Y-71737515D01*
X146449500Y-71877525D01*
X136077066Y-71877525D01*
X135972475Y-71849500D01*
X135827525Y-71849500D01*
X135779192Y-71862451D01*
X135687510Y-71887017D01*
X135561989Y-71959487D01*
X135459487Y-72061989D01*
X135387017Y-72187510D01*
X135387016Y-72187515D01*
X135349500Y-72327525D01*
X134950500Y-72327525D01*
X134912984Y-72187515D01*
X134912982Y-72187512D01*
X134912982Y-72187510D01*
X134840512Y-72061989D01*
X134840510Y-72061987D01*
X134840509Y-72061985D01*
X134738015Y-71959491D01*
X134738012Y-71959489D01*
X134738010Y-71959487D01*
X134612488Y-71887017D01*
X134612489Y-71887017D01*
X134582896Y-71879087D01*
X134472475Y-71849500D01*
X134327525Y-71849500D01*
X134279192Y-71862451D01*
X134187510Y-71887017D01*
X134061989Y-71959487D01*
X133959487Y-72061989D01*
X133887017Y-72187510D01*
X133887016Y-72187515D01*
X133849500Y-72327525D01*
X127779380Y-72327525D01*
X127762383Y-72310528D01*
X127762378Y-72310524D01*
X127762376Y-72310522D01*
X127563697Y-72158071D01*
X127510319Y-72127253D01*
X127346805Y-72032848D01*
X127346801Y-72032846D01*
X127346797Y-72032844D01*
X127115433Y-71937011D01*
X127115432Y-71937010D01*
X127115428Y-71937009D01*
X126873520Y-71872189D01*
X126873515Y-71872188D01*
X126873514Y-71872188D01*
X126625222Y-71839500D01*
X126625221Y-71839500D01*
X126374779Y-71839500D01*
X126374777Y-71839500D01*
X126126487Y-71872188D01*
X126126482Y-71872188D01*
X125884579Y-71937007D01*
X125884566Y-71937011D01*
X125653202Y-72032844D01*
X125436302Y-72158071D01*
X125237623Y-72310522D01*
X125060522Y-72487623D01*
X124908071Y-72686302D01*
X124782844Y-72903202D01*
X124687011Y-73134566D01*
X124687007Y-73134579D01*
X124622188Y-73376482D01*
X124622188Y-73376487D01*
X124589500Y-73624777D01*
X123400500Y-73624777D01*
X123400500Y-73252773D01*
X123400656Y-73247222D01*
X123406982Y-73134572D01*
X123416533Y-72964493D01*
X123417776Y-72953467D01*
X123464746Y-72677023D01*
X123467207Y-72666237D01*
X123544840Y-72396770D01*
X123548500Y-72386310D01*
X123655808Y-72127246D01*
X123660622Y-72117251D01*
X123796254Y-71871843D01*
X123802151Y-71862458D01*
X123964419Y-71633762D01*
X123971324Y-71625104D01*
X124158187Y-71416003D01*
X124166003Y-71408187D01*
X124375104Y-71221324D01*
X124383762Y-71214419D01*
X124612458Y-71052151D01*
X124621843Y-71046254D01*
X124867257Y-70910618D01*
X124877246Y-70905808D01*
X125136310Y-70798500D01*
X125146770Y-70794840D01*
X125416237Y-70717207D01*
X125427023Y-70714746D01*
X125703474Y-70667775D01*
X125714493Y-70666533D01*
X125997222Y-70650655D01*
X126002773Y-70650500D01*
X126057583Y-70650500D01*
X169942417Y-70650500D01*
X169997227Y-70650500D01*
X170002777Y-70650655D01*
G37*
%TD.AperFunction*%
%TD*%
M02*
